%TF.GenerationSoftware,KiCad,Pcbnew,8.0.7*%
%TF.CreationDate,2025-01-11T16:00:59+00:00*%
%TF.ProjectId,PANEL,50414e45-4c2e-46b6-9963-61645f706362,rev?*%
%TF.SameCoordinates,Original*%
%TF.FileFunction,Drillmap*%
%TF.FilePolarity,Positive*%
%FSLAX45Y45*%
G04 Gerber Fmt 4.5, Leading zero omitted, Abs format (unit mm)*
G04 Created by KiCad (PCBNEW 8.0.7) date 2025-01-11 16:00:59*
%MOMM*%
%LPD*%
G01*
G04 APERTURE LIST*
%ADD10C,0.100000*%
%ADD11C,0.050000*%
%ADD12C,0.200000*%
G04 APERTURE END LIST*
D10*
X9001000Y-10228000D02*
G75*
G02*
X8201000Y-10228000I-400000J0D01*
G01*
X8201000Y-10228000D02*
G75*
G02*
X9001000Y-10228000I400000J0D01*
G01*
D11*
X7555000Y-3750000D02*
X17685000Y-3750000D01*
D10*
X17361786Y-13476000D02*
G75*
G02*
X16681786Y-13476000I-340000J0D01*
G01*
X16681786Y-13476000D02*
G75*
G02*
X17361786Y-13476000I340000J0D01*
G01*
D11*
X14812000Y-4210000D02*
X15012000Y-4210000D01*
D10*
X8993000Y-12026000D02*
G75*
G02*
X8193000Y-12026000I-400000J0D01*
G01*
X8193000Y-12026000D02*
G75*
G02*
X8993000Y-12026000I400000J0D01*
G01*
D11*
X10240000Y-4210000D02*
G75*
G02*
X10240000Y-3890000I0J160000D01*
G01*
X10440000Y-3890000D02*
X10240000Y-3890000D01*
X10240000Y-4210000D02*
X10440000Y-4210000D01*
D10*
X10805000Y-6513000D02*
G75*
G02*
X10005000Y-6513000I-400000J0D01*
G01*
X10005000Y-6513000D02*
G75*
G02*
X10805000Y-6513000I400000J0D01*
G01*
X15809000Y-6525000D02*
G75*
G02*
X15009000Y-6525000I-400000J0D01*
G01*
X15009000Y-6525000D02*
G75*
G02*
X15809000Y-6525000I400000J0D01*
G01*
D11*
X17685000Y-16600000D02*
X17685000Y-3750000D01*
X15012000Y-16140000D02*
G75*
G02*
X15012000Y-16460000I0J-160000D01*
G01*
X10240000Y-16460000D02*
X10440000Y-16460000D01*
X14812000Y-4210000D02*
G75*
G02*
X14812000Y-3890000I0J160000D01*
G01*
D10*
X8913786Y-13828000D02*
G75*
G02*
X8233786Y-13828000I-340000J0D01*
G01*
X8233786Y-13828000D02*
G75*
G02*
X8913786Y-13828000I340000J0D01*
G01*
X17370786Y-9941000D02*
G75*
G02*
X16690786Y-9941000I-340000J0D01*
G01*
X16690786Y-9941000D02*
G75*
G02*
X17370786Y-9941000I340000J0D01*
G01*
X10687099Y-10250000D02*
G75*
G02*
X9887099Y-10250000I-400000J0D01*
G01*
X9887099Y-10250000D02*
G75*
G02*
X10687099Y-10250000I400000J0D01*
G01*
X12310786Y-13818000D02*
G75*
G02*
X11630786Y-13818000I-340000J0D01*
G01*
X11630786Y-13818000D02*
G75*
G02*
X12310786Y-13818000I340000J0D01*
G01*
X14117000Y-6531000D02*
G75*
G02*
X13317000Y-6531000I-400000J0D01*
G01*
X13317000Y-6531000D02*
G75*
G02*
X14117000Y-6531000I400000J0D01*
G01*
X14056786Y-8284000D02*
G75*
G02*
X13376786Y-8284000I-340000J0D01*
G01*
X13376786Y-8284000D02*
G75*
G02*
X14056786Y-8284000I340000J0D01*
G01*
X10718000Y-8277000D02*
G75*
G02*
X10038000Y-8277000I-340000J0D01*
G01*
X10038000Y-8277000D02*
G75*
G02*
X10718000Y-8277000I340000J0D01*
G01*
X10700000Y-12032000D02*
G75*
G02*
X9900000Y-12032000I-400000J0D01*
G01*
X9900000Y-12032000D02*
G75*
G02*
X10700000Y-12032000I400000J0D01*
G01*
X8992000Y-8277000D02*
G75*
G02*
X8192000Y-8277000I-400000J0D01*
G01*
X8192000Y-8277000D02*
G75*
G02*
X8992000Y-8277000I400000J0D01*
G01*
D11*
X14812000Y-16460000D02*
G75*
G02*
X14812000Y-16140000I0J160000D01*
G01*
D10*
X12620786Y-8276000D02*
G75*
G02*
X11940786Y-8276000I-340000J0D01*
G01*
X11940786Y-8276000D02*
G75*
G02*
X12620786Y-8276000I340000J0D01*
G01*
X10614786Y-13823000D02*
G75*
G02*
X9934786Y-13823000I-340000J0D01*
G01*
X9934786Y-13823000D02*
G75*
G02*
X10614786Y-13823000I340000J0D01*
G01*
X8995000Y-6516000D02*
G75*
G02*
X8195000Y-6516000I-400000J0D01*
G01*
X8195000Y-6516000D02*
G75*
G02*
X8995000Y-6516000I400000J0D01*
G01*
X15799000Y-9944000D02*
G75*
G02*
X14999000Y-9944000I-400000J0D01*
G01*
X14999000Y-9944000D02*
G75*
G02*
X15799000Y-9944000I400000J0D01*
G01*
D11*
X7555000Y-3750000D02*
X7555000Y-16600000D01*
D10*
X12401000Y-12029000D02*
G75*
G02*
X11601000Y-12029000I-400000J0D01*
G01*
X11601000Y-12029000D02*
G75*
G02*
X12401000Y-12029000I400000J0D01*
G01*
D11*
X10440000Y-16140000D02*
X10240000Y-16140000D01*
D10*
X12698000Y-6525000D02*
G75*
G02*
X11898000Y-6525000I-400000J0D01*
G01*
X11898000Y-6525000D02*
G75*
G02*
X12698000Y-6525000I400000J0D01*
G01*
X17361786Y-8230000D02*
G75*
G02*
X16681786Y-8230000I-340000J0D01*
G01*
X16681786Y-8230000D02*
G75*
G02*
X17361786Y-8230000I340000J0D01*
G01*
D11*
X10440000Y-16140000D02*
G75*
G02*
X10440000Y-16460000I0J-160000D01*
G01*
X10240000Y-16460000D02*
G75*
G02*
X10240000Y-16140000I0J160000D01*
G01*
D10*
X17366786Y-11704000D02*
G75*
G02*
X16686786Y-11704000I-340000J0D01*
G01*
X16686786Y-11704000D02*
G75*
G02*
X17366786Y-11704000I340000J0D01*
G01*
D11*
X15012000Y-16140000D02*
X14812000Y-16140000D01*
X7555000Y-16600000D02*
X17685000Y-16600000D01*
D10*
X15820000Y-13454000D02*
G75*
G02*
X15020000Y-13454000I-400000J0D01*
G01*
X15020000Y-13454000D02*
G75*
G02*
X15820000Y-13454000I400000J0D01*
G01*
X15796000Y-11695000D02*
G75*
G02*
X14996000Y-11695000I-400000J0D01*
G01*
X14996000Y-11695000D02*
G75*
G02*
X15796000Y-11695000I400000J0D01*
G01*
D11*
X14812000Y-16460000D02*
X15012000Y-16460000D01*
D10*
X15796000Y-8210000D02*
G75*
G02*
X14996000Y-8210000I-400000J0D01*
G01*
X14996000Y-8210000D02*
G75*
G02*
X15796000Y-8210000I400000J0D01*
G01*
D11*
X15012000Y-3890000D02*
G75*
G02*
X15012000Y-4210000I0J-160000D01*
G01*
X10440000Y-3890000D02*
G75*
G02*
X10440000Y-4210000I0J-160000D01*
G01*
X15012000Y-3890000D02*
X14812000Y-3890000D01*
D10*
X17453000Y-6525000D02*
G75*
G02*
X16653000Y-6525000I-400000J0D01*
G01*
X16653000Y-6525000D02*
G75*
G02*
X17453000Y-6525000I400000J0D01*
G01*
D12*
X7813277Y-16913984D02*
X7813277Y-16713984D01*
X7813277Y-16713984D02*
X7860896Y-16713984D01*
X7860896Y-16713984D02*
X7889467Y-16723508D01*
X7889467Y-16723508D02*
X7908515Y-16742555D01*
X7908515Y-16742555D02*
X7918039Y-16761603D01*
X7918039Y-16761603D02*
X7927562Y-16799698D01*
X7927562Y-16799698D02*
X7927562Y-16828270D01*
X7927562Y-16828270D02*
X7918039Y-16866365D01*
X7918039Y-16866365D02*
X7908515Y-16885412D01*
X7908515Y-16885412D02*
X7889467Y-16904460D01*
X7889467Y-16904460D02*
X7860896Y-16913984D01*
X7860896Y-16913984D02*
X7813277Y-16913984D01*
X8013277Y-16913984D02*
X8013277Y-16780650D01*
X8013277Y-16818746D02*
X8022801Y-16799698D01*
X8022801Y-16799698D02*
X8032324Y-16790174D01*
X8032324Y-16790174D02*
X8051372Y-16780650D01*
X8051372Y-16780650D02*
X8070420Y-16780650D01*
X8137086Y-16913984D02*
X8137086Y-16780650D01*
X8137086Y-16713984D02*
X8127562Y-16723508D01*
X8127562Y-16723508D02*
X8137086Y-16733031D01*
X8137086Y-16733031D02*
X8146610Y-16723508D01*
X8146610Y-16723508D02*
X8137086Y-16713984D01*
X8137086Y-16713984D02*
X8137086Y-16733031D01*
X8260896Y-16913984D02*
X8241848Y-16904460D01*
X8241848Y-16904460D02*
X8232324Y-16885412D01*
X8232324Y-16885412D02*
X8232324Y-16713984D01*
X8365658Y-16913984D02*
X8346610Y-16904460D01*
X8346610Y-16904460D02*
X8337086Y-16885412D01*
X8337086Y-16885412D02*
X8337086Y-16713984D01*
X8594229Y-16913984D02*
X8594229Y-16713984D01*
X8594229Y-16713984D02*
X8660896Y-16856841D01*
X8660896Y-16856841D02*
X8727563Y-16713984D01*
X8727563Y-16713984D02*
X8727563Y-16913984D01*
X8908515Y-16913984D02*
X8908515Y-16809222D01*
X8908515Y-16809222D02*
X8898991Y-16790174D01*
X8898991Y-16790174D02*
X8879944Y-16780650D01*
X8879944Y-16780650D02*
X8841848Y-16780650D01*
X8841848Y-16780650D02*
X8822801Y-16790174D01*
X8908515Y-16904460D02*
X8889467Y-16913984D01*
X8889467Y-16913984D02*
X8841848Y-16913984D01*
X8841848Y-16913984D02*
X8822801Y-16904460D01*
X8822801Y-16904460D02*
X8813277Y-16885412D01*
X8813277Y-16885412D02*
X8813277Y-16866365D01*
X8813277Y-16866365D02*
X8822801Y-16847317D01*
X8822801Y-16847317D02*
X8841848Y-16837793D01*
X8841848Y-16837793D02*
X8889467Y-16837793D01*
X8889467Y-16837793D02*
X8908515Y-16828270D01*
X9003753Y-16780650D02*
X9003753Y-16980650D01*
X9003753Y-16790174D02*
X9022801Y-16780650D01*
X9022801Y-16780650D02*
X9060896Y-16780650D01*
X9060896Y-16780650D02*
X9079944Y-16790174D01*
X9079944Y-16790174D02*
X9089467Y-16799698D01*
X9089467Y-16799698D02*
X9098991Y-16818746D01*
X9098991Y-16818746D02*
X9098991Y-16875889D01*
X9098991Y-16875889D02*
X9089467Y-16894936D01*
X9089467Y-16894936D02*
X9079944Y-16904460D01*
X9079944Y-16904460D02*
X9060896Y-16913984D01*
X9060896Y-16913984D02*
X9022801Y-16913984D01*
X9022801Y-16913984D02*
X9003753Y-16904460D01*
X9184705Y-16894936D02*
X9194229Y-16904460D01*
X9194229Y-16904460D02*
X9184705Y-16913984D01*
X9184705Y-16913984D02*
X9175182Y-16904460D01*
X9175182Y-16904460D02*
X9184705Y-16894936D01*
X9184705Y-16894936D02*
X9184705Y-16913984D01*
X9184705Y-16790174D02*
X9194229Y-16799698D01*
X9194229Y-16799698D02*
X9184705Y-16809222D01*
X9184705Y-16809222D02*
X9175182Y-16799698D01*
X9175182Y-16799698D02*
X9184705Y-16790174D01*
X9184705Y-16790174D02*
X9184705Y-16809222D01*
M02*
