%TF.GenerationSoftware,KiCad,Pcbnew,8.0.7*%
%TF.CreationDate,2025-01-11T16:00:46+00:00*%
%TF.ProjectId,PANEL,50414e45-4c2e-46b6-9963-61645f706362,rev?*%
%TF.SameCoordinates,Original*%
%TF.FileFunction,Profile,NP*%
%FSLAX46Y46*%
G04 Gerber Fmt 4.6, Leading zero omitted, Abs format (unit mm)*
G04 Created by KiCad (PCBNEW 8.0.7) date 2025-01-11 16:00:46*
%MOMM*%
%LPD*%
G01*
G04 APERTURE LIST*
%TA.AperFunction,Profile*%
%ADD10C,0.100000*%
%TD*%
%TA.AperFunction,Profile*%
%ADD11C,0.050000*%
%TD*%
G04 APERTURE END LIST*
D10*
X90010000Y-102280000D02*
G75*
G02*
X82010000Y-102280000I-4000000J0D01*
G01*
X82010000Y-102280000D02*
G75*
G02*
X90010000Y-102280000I4000000J0D01*
G01*
D11*
X75550000Y-37500000D02*
X176850000Y-37500000D01*
D10*
X173617856Y-134760000D02*
G75*
G02*
X166817856Y-134760000I-3400000J0D01*
G01*
X166817856Y-134760000D02*
G75*
G02*
X173617856Y-134760000I3400000J0D01*
G01*
D11*
X148120000Y-42100000D02*
X150120000Y-42100000D01*
D10*
X89930000Y-120260000D02*
G75*
G02*
X81930000Y-120260000I-4000000J0D01*
G01*
X81930000Y-120260000D02*
G75*
G02*
X89930000Y-120260000I4000000J0D01*
G01*
D11*
X102400000Y-42100000D02*
G75*
G02*
X102400000Y-38900000I0J1600000D01*
G01*
X104400000Y-38900000D02*
X102400000Y-38900000D01*
X102400000Y-42100000D02*
X104400000Y-42100000D01*
D10*
X108050000Y-65130000D02*
G75*
G02*
X100050000Y-65130000I-4000000J0D01*
G01*
X100050000Y-65130000D02*
G75*
G02*
X108050000Y-65130000I4000000J0D01*
G01*
X158090000Y-65250000D02*
G75*
G02*
X150090000Y-65250000I-4000000J0D01*
G01*
X150090000Y-65250000D02*
G75*
G02*
X158090000Y-65250000I4000000J0D01*
G01*
D11*
X176850000Y-166000000D02*
X176850000Y-37500000D01*
X150120000Y-161400000D02*
G75*
G02*
X150120000Y-164600000I0J-1600000D01*
G01*
X102400000Y-164600000D02*
X104400000Y-164600000D01*
X148120000Y-42100000D02*
G75*
G02*
X148120000Y-38900000I0J1600000D01*
G01*
D10*
X89137856Y-138280000D02*
G75*
G02*
X82337856Y-138280000I-3400000J0D01*
G01*
X82337856Y-138280000D02*
G75*
G02*
X89137856Y-138280000I3400000J0D01*
G01*
X173707856Y-99410000D02*
G75*
G02*
X166907856Y-99410000I-3400000J0D01*
G01*
X166907856Y-99410000D02*
G75*
G02*
X173707856Y-99410000I3400000J0D01*
G01*
X106870994Y-102500000D02*
G75*
G02*
X98870994Y-102500000I-4000000J0D01*
G01*
X98870994Y-102500000D02*
G75*
G02*
X106870994Y-102500000I4000000J0D01*
G01*
X123107856Y-138180000D02*
G75*
G02*
X116307856Y-138180000I-3400000J0D01*
G01*
X116307856Y-138180000D02*
G75*
G02*
X123107856Y-138180000I3400000J0D01*
G01*
X141170000Y-65310000D02*
G75*
G02*
X133170000Y-65310000I-4000000J0D01*
G01*
X133170000Y-65310000D02*
G75*
G02*
X141170000Y-65310000I4000000J0D01*
G01*
X140567856Y-82840000D02*
G75*
G02*
X133767856Y-82840000I-3400000J0D01*
G01*
X133767856Y-82840000D02*
G75*
G02*
X140567856Y-82840000I3400000J0D01*
G01*
X107180000Y-82770000D02*
G75*
G02*
X100380000Y-82770000I-3400000J0D01*
G01*
X100380000Y-82770000D02*
G75*
G02*
X107180000Y-82770000I3400000J0D01*
G01*
X107000000Y-120320000D02*
G75*
G02*
X99000000Y-120320000I-4000000J0D01*
G01*
X99000000Y-120320000D02*
G75*
G02*
X107000000Y-120320000I4000000J0D01*
G01*
X89920000Y-82770000D02*
G75*
G02*
X81920000Y-82770000I-4000000J0D01*
G01*
X81920000Y-82770000D02*
G75*
G02*
X89920000Y-82770000I4000000J0D01*
G01*
D11*
X148120000Y-164600000D02*
G75*
G02*
X148120000Y-161400000I0J1600000D01*
G01*
D10*
X126207856Y-82760000D02*
G75*
G02*
X119407856Y-82760000I-3400000J0D01*
G01*
X119407856Y-82760000D02*
G75*
G02*
X126207856Y-82760000I3400000J0D01*
G01*
X106147856Y-138230000D02*
G75*
G02*
X99347856Y-138230000I-3400000J0D01*
G01*
X99347856Y-138230000D02*
G75*
G02*
X106147856Y-138230000I3400000J0D01*
G01*
X89950000Y-65160000D02*
G75*
G02*
X81950000Y-65160000I-4000000J0D01*
G01*
X81950000Y-65160000D02*
G75*
G02*
X89950000Y-65160000I4000000J0D01*
G01*
X157990000Y-99440000D02*
G75*
G02*
X149990000Y-99440000I-4000000J0D01*
G01*
X149990000Y-99440000D02*
G75*
G02*
X157990000Y-99440000I4000000J0D01*
G01*
D11*
X75550000Y-37500000D02*
X75550000Y-166000000D01*
D10*
X124010000Y-120290000D02*
G75*
G02*
X116010000Y-120290000I-4000000J0D01*
G01*
X116010000Y-120290000D02*
G75*
G02*
X124010000Y-120290000I4000000J0D01*
G01*
D11*
X104400000Y-161400000D02*
X102400000Y-161400000D01*
D10*
X126980000Y-65250000D02*
G75*
G02*
X118980000Y-65250000I-4000000J0D01*
G01*
X118980000Y-65250000D02*
G75*
G02*
X126980000Y-65250000I4000000J0D01*
G01*
X173617856Y-82300000D02*
G75*
G02*
X166817856Y-82300000I-3400000J0D01*
G01*
X166817856Y-82300000D02*
G75*
G02*
X173617856Y-82300000I3400000J0D01*
G01*
D11*
X104400000Y-161400000D02*
G75*
G02*
X104400000Y-164600000I0J-1600000D01*
G01*
X102400000Y-164600000D02*
G75*
G02*
X102400000Y-161400000I0J1600000D01*
G01*
D10*
X173667856Y-117040000D02*
G75*
G02*
X166867856Y-117040000I-3400000J0D01*
G01*
X166867856Y-117040000D02*
G75*
G02*
X173667856Y-117040000I3400000J0D01*
G01*
D11*
X150120000Y-161400000D02*
X148120000Y-161400000D01*
X75550000Y-166000000D02*
X176850000Y-166000000D01*
D10*
X158200000Y-134540000D02*
G75*
G02*
X150200000Y-134540000I-4000000J0D01*
G01*
X150200000Y-134540000D02*
G75*
G02*
X158200000Y-134540000I4000000J0D01*
G01*
X157960000Y-116950000D02*
G75*
G02*
X149960000Y-116950000I-4000000J0D01*
G01*
X149960000Y-116950000D02*
G75*
G02*
X157960000Y-116950000I4000000J0D01*
G01*
D11*
X148120000Y-164600000D02*
X150120000Y-164600000D01*
D10*
X157960000Y-82100000D02*
G75*
G02*
X149960000Y-82100000I-4000000J0D01*
G01*
X149960000Y-82100000D02*
G75*
G02*
X157960000Y-82100000I4000000J0D01*
G01*
D11*
X150120000Y-38900000D02*
G75*
G02*
X150120000Y-42100000I0J-1600000D01*
G01*
X104400000Y-38900000D02*
G75*
G02*
X104400000Y-42100000I0J-1600000D01*
G01*
X150120000Y-38900000D02*
X148120000Y-38900000D01*
D10*
X174530000Y-65250000D02*
G75*
G02*
X166530000Y-65250000I-4000000J0D01*
G01*
X166530000Y-65250000D02*
G75*
G02*
X174530000Y-65250000I4000000J0D01*
G01*
M02*
