%TF.GenerationSoftware,KiCad,Pcbnew,7.0.9*%
%TF.CreationDate,2024-05-31T23:55:29+01:00*%
%TF.ProjectId,VCOInterface,56434f49-6e74-4657-9266-6163652e6b69,rev?*%
%TF.SameCoordinates,Original*%
%TF.FileFunction,Profile,NP*%
%FSLAX46Y46*%
G04 Gerber Fmt 4.6, Leading zero omitted, Abs format (unit mm)*
G04 Created by KiCad (PCBNEW 7.0.9) date 2024-05-31 23:55:29*
%MOMM*%
%LPD*%
G01*
G04 APERTURE LIST*
%TA.AperFunction,Profile*%
%ADD10C,0.100000*%
%TD*%
%TA.AperFunction,Profile*%
%ADD11C,0.050000*%
%TD*%
G04 APERTURE END LIST*
D10*
X90010000Y-102280000D02*
G75*
G03*
X90010000Y-102280000I-4000000J0D01*
G01*
D11*
X75550000Y-37500000D02*
X176850000Y-37500000D01*
D10*
X173617856Y-134760000D02*
G75*
G03*
X173617856Y-134760000I-3400000J0D01*
G01*
D11*
X148120000Y-42100000D02*
X150120000Y-42100000D01*
D10*
X89930000Y-120260000D02*
G75*
G03*
X89930000Y-120260000I-4000000J0D01*
G01*
D11*
X102400000Y-38900000D02*
G75*
G03*
X102400000Y-42100000I0J-1600000D01*
G01*
X104400000Y-38900000D02*
X102400000Y-38900000D01*
X102400000Y-42100000D02*
X104400000Y-42100000D01*
D10*
X108050000Y-65130000D02*
G75*
G03*
X108050000Y-65130000I-4000000J0D01*
G01*
X158090000Y-65250000D02*
G75*
G03*
X158090000Y-65250000I-4000000J0D01*
G01*
D11*
X176850000Y-166000000D02*
X176850000Y-37500000D01*
X150120000Y-164600000D02*
G75*
G03*
X150120000Y-161400000I0J1600000D01*
G01*
X102400000Y-164600000D02*
X104400000Y-164600000D01*
X148120000Y-38900000D02*
G75*
G03*
X148120000Y-42100000I0J-1600000D01*
G01*
D10*
X89137856Y-138280000D02*
G75*
G03*
X89137856Y-138280000I-3400000J0D01*
G01*
X173707856Y-99410000D02*
G75*
G03*
X173707856Y-99410000I-3400000J0D01*
G01*
X106870994Y-102500000D02*
G75*
G03*
X106870994Y-102500000I-4000000J0D01*
G01*
X123107856Y-138180000D02*
G75*
G03*
X123107856Y-138180000I-3400000J0D01*
G01*
X141170000Y-65310000D02*
G75*
G03*
X141170000Y-65310000I-4000000J0D01*
G01*
X140567856Y-82840000D02*
G75*
G03*
X140567856Y-82840000I-3400000J0D01*
G01*
X107180000Y-82770000D02*
G75*
G03*
X107180000Y-82770000I-3400000J0D01*
G01*
X107000000Y-120320000D02*
G75*
G03*
X107000000Y-120320000I-4000000J0D01*
G01*
X89920000Y-82770000D02*
G75*
G03*
X89920000Y-82770000I-4000000J0D01*
G01*
D11*
X148120000Y-161400000D02*
G75*
G03*
X148120000Y-164600000I0J-1600000D01*
G01*
D10*
X126207856Y-82760000D02*
G75*
G03*
X126207856Y-82760000I-3400000J0D01*
G01*
X106147856Y-138230000D02*
G75*
G03*
X106147856Y-138230000I-3400000J0D01*
G01*
X89950000Y-65160000D02*
G75*
G03*
X89950000Y-65160000I-4000000J0D01*
G01*
X157990000Y-99440000D02*
G75*
G03*
X157990000Y-99440000I-4000000J0D01*
G01*
D11*
X75550000Y-37500000D02*
X75550000Y-166000000D01*
D10*
X124010000Y-120290000D02*
G75*
G03*
X124010000Y-120290000I-4000000J0D01*
G01*
D11*
X104400000Y-161400000D02*
X102400000Y-161400000D01*
D10*
X126980000Y-65250000D02*
G75*
G03*
X126980000Y-65250000I-4000000J0D01*
G01*
X173617856Y-82300000D02*
G75*
G03*
X173617856Y-82300000I-3400000J0D01*
G01*
D11*
X104400000Y-164600000D02*
G75*
G03*
X104400000Y-161400000I0J1600000D01*
G01*
X102400000Y-161400000D02*
G75*
G03*
X102400000Y-164600000I0J-1600000D01*
G01*
D10*
X173667856Y-117040000D02*
G75*
G03*
X173667856Y-117040000I-3400000J0D01*
G01*
D11*
X150120000Y-161400000D02*
X148120000Y-161400000D01*
X75550000Y-166000000D02*
X176850000Y-166000000D01*
D10*
X158200000Y-134540000D02*
G75*
G03*
X158200000Y-134540000I-4000000J0D01*
G01*
X157960000Y-116950000D02*
G75*
G03*
X157960000Y-116950000I-4000000J0D01*
G01*
D11*
X148120000Y-164600000D02*
X150120000Y-164600000D01*
D10*
X157960000Y-82100000D02*
G75*
G03*
X157960000Y-82100000I-4000000J0D01*
G01*
D11*
X150120000Y-42100000D02*
G75*
G03*
X150120000Y-38900000I0J1600000D01*
G01*
X104400000Y-42100000D02*
G75*
G03*
X104400000Y-38900000I0J1600000D01*
G01*
X150120000Y-38900000D02*
X148120000Y-38900000D01*
D10*
X174530000Y-65250000D02*
G75*
G03*
X174530000Y-65250000I-4000000J0D01*
G01*
M02*
