%TF.GenerationSoftware,KiCad,Pcbnew,7.0.9*%
%TF.CreationDate,2024-05-31T23:55:29+01:00*%
%TF.ProjectId,VCOInterface,56434f49-6e74-4657-9266-6163652e6b69,rev?*%
%TF.SameCoordinates,Original*%
%TF.FileFunction,Legend,Bot*%
%TF.FilePolarity,Positive*%
%FSLAX46Y46*%
G04 Gerber Fmt 4.6, Leading zero omitted, Abs format (unit mm)*
G04 Created by KiCad (PCBNEW 7.0.9) date 2024-05-31 23:55:29*
%MOMM*%
%LPD*%
G01*
G04 APERTURE LIST*
%ADD10C,0.150000*%
G04 APERTURE END LIST*
D10*
X173927506Y-162849819D02*
X173927506Y-163564104D01*
X173927506Y-163564104D02*
X173975125Y-163706961D01*
X173975125Y-163706961D02*
X174070363Y-163802200D01*
X174070363Y-163802200D02*
X174213220Y-163849819D01*
X174213220Y-163849819D02*
X174308458Y-163849819D01*
X172975125Y-163849819D02*
X173451315Y-163849819D01*
X173451315Y-163849819D02*
X173451315Y-162849819D01*
X172070363Y-163754580D02*
X172117982Y-163802200D01*
X172117982Y-163802200D02*
X172260839Y-163849819D01*
X172260839Y-163849819D02*
X172356077Y-163849819D01*
X172356077Y-163849819D02*
X172498934Y-163802200D01*
X172498934Y-163802200D02*
X172594172Y-163706961D01*
X172594172Y-163706961D02*
X172641791Y-163611723D01*
X172641791Y-163611723D02*
X172689410Y-163421247D01*
X172689410Y-163421247D02*
X172689410Y-163278390D01*
X172689410Y-163278390D02*
X172641791Y-163087914D01*
X172641791Y-163087914D02*
X172594172Y-162992676D01*
X172594172Y-162992676D02*
X172498934Y-162897438D01*
X172498934Y-162897438D02*
X172356077Y-162849819D01*
X172356077Y-162849819D02*
X172260839Y-162849819D01*
X172260839Y-162849819D02*
X172117982Y-162897438D01*
X172117982Y-162897438D02*
X172070363Y-162945057D01*
X171356077Y-162849819D02*
X171356077Y-163564104D01*
X171356077Y-163564104D02*
X171403696Y-163706961D01*
X171403696Y-163706961D02*
X171498934Y-163802200D01*
X171498934Y-163802200D02*
X171641791Y-163849819D01*
X171641791Y-163849819D02*
X171737029Y-163849819D01*
X170403696Y-163849819D02*
X170879886Y-163849819D01*
X170879886Y-163849819D02*
X170879886Y-162849819D01*
X169498934Y-163754580D02*
X169546553Y-163802200D01*
X169546553Y-163802200D02*
X169689410Y-163849819D01*
X169689410Y-163849819D02*
X169784648Y-163849819D01*
X169784648Y-163849819D02*
X169927505Y-163802200D01*
X169927505Y-163802200D02*
X170022743Y-163706961D01*
X170022743Y-163706961D02*
X170070362Y-163611723D01*
X170070362Y-163611723D02*
X170117981Y-163421247D01*
X170117981Y-163421247D02*
X170117981Y-163278390D01*
X170117981Y-163278390D02*
X170070362Y-163087914D01*
X170070362Y-163087914D02*
X170022743Y-162992676D01*
X170022743Y-162992676D02*
X169927505Y-162897438D01*
X169927505Y-162897438D02*
X169784648Y-162849819D01*
X169784648Y-162849819D02*
X169689410Y-162849819D01*
X169689410Y-162849819D02*
X169546553Y-162897438D01*
X169546553Y-162897438D02*
X169498934Y-162945057D01*
X168784648Y-162849819D02*
X168784648Y-163564104D01*
X168784648Y-163564104D02*
X168832267Y-163706961D01*
X168832267Y-163706961D02*
X168927505Y-163802200D01*
X168927505Y-163802200D02*
X169070362Y-163849819D01*
X169070362Y-163849819D02*
X169165600Y-163849819D01*
X167832267Y-163849819D02*
X168308457Y-163849819D01*
X168308457Y-163849819D02*
X168308457Y-162849819D01*
X166927505Y-163754580D02*
X166975124Y-163802200D01*
X166975124Y-163802200D02*
X167117981Y-163849819D01*
X167117981Y-163849819D02*
X167213219Y-163849819D01*
X167213219Y-163849819D02*
X167356076Y-163802200D01*
X167356076Y-163802200D02*
X167451314Y-163706961D01*
X167451314Y-163706961D02*
X167498933Y-163611723D01*
X167498933Y-163611723D02*
X167546552Y-163421247D01*
X167546552Y-163421247D02*
X167546552Y-163278390D01*
X167546552Y-163278390D02*
X167498933Y-163087914D01*
X167498933Y-163087914D02*
X167451314Y-162992676D01*
X167451314Y-162992676D02*
X167356076Y-162897438D01*
X167356076Y-162897438D02*
X167213219Y-162849819D01*
X167213219Y-162849819D02*
X167117981Y-162849819D01*
X167117981Y-162849819D02*
X166975124Y-162897438D01*
X166975124Y-162897438D02*
X166927505Y-162945057D01*
X166213219Y-162849819D02*
X166213219Y-163564104D01*
X166213219Y-163564104D02*
X166260838Y-163706961D01*
X166260838Y-163706961D02*
X166356076Y-163802200D01*
X166356076Y-163802200D02*
X166498933Y-163849819D01*
X166498933Y-163849819D02*
X166594171Y-163849819D01*
X165260838Y-163849819D02*
X165737028Y-163849819D01*
X165737028Y-163849819D02*
X165737028Y-162849819D01*
X164356076Y-163754580D02*
X164403695Y-163802200D01*
X164403695Y-163802200D02*
X164546552Y-163849819D01*
X164546552Y-163849819D02*
X164641790Y-163849819D01*
X164641790Y-163849819D02*
X164784647Y-163802200D01*
X164784647Y-163802200D02*
X164879885Y-163706961D01*
X164879885Y-163706961D02*
X164927504Y-163611723D01*
X164927504Y-163611723D02*
X164975123Y-163421247D01*
X164975123Y-163421247D02*
X164975123Y-163278390D01*
X164975123Y-163278390D02*
X164927504Y-163087914D01*
X164927504Y-163087914D02*
X164879885Y-162992676D01*
X164879885Y-162992676D02*
X164784647Y-162897438D01*
X164784647Y-162897438D02*
X164641790Y-162849819D01*
X164641790Y-162849819D02*
X164546552Y-162849819D01*
X164546552Y-162849819D02*
X164403695Y-162897438D01*
X164403695Y-162897438D02*
X164356076Y-162945057D01*
M02*
