%TF.GenerationSoftware,KiCad,Pcbnew,8.0.7*%
%TF.CreationDate,2025-01-11T15:48:58+00:00*%
%TF.ProjectId,CONNECTOR,434f4e4e-4543-4544-9f52-2e6b69636164,rev?*%
%TF.SameCoordinates,Original*%
%TF.FileFunction,Drillmap*%
%TF.FilePolarity,Positive*%
%FSLAX45Y45*%
G04 Gerber Fmt 4.5, Leading zero omitted, Abs format (unit mm)*
G04 Created by KiCad (PCBNEW 8.0.7) date 2025-01-11 15:48:58*
%MOMM*%
%LPD*%
G01*
G04 APERTURE LIST*
%ADD10C,0.100000*%
%ADD11C,0.050000*%
%ADD12C,0.200000*%
G04 APERTURE END LIST*
D10*
X19380000Y-15039500D02*
X19380000Y-5060500D01*
X9420000Y-5060500D02*
X9420000Y-15039500D01*
D11*
X19380000Y-5060500D02*
X9420000Y-5060500D01*
X9420000Y-15039500D02*
X19380000Y-15039500D01*
D12*
X9675777Y-15355984D02*
X9675777Y-15155984D01*
X9675777Y-15155984D02*
X9723396Y-15155984D01*
X9723396Y-15155984D02*
X9751967Y-15165508D01*
X9751967Y-15165508D02*
X9771015Y-15184555D01*
X9771015Y-15184555D02*
X9780539Y-15203603D01*
X9780539Y-15203603D02*
X9790063Y-15241698D01*
X9790063Y-15241698D02*
X9790063Y-15270269D01*
X9790063Y-15270269D02*
X9780539Y-15308365D01*
X9780539Y-15308365D02*
X9771015Y-15327412D01*
X9771015Y-15327412D02*
X9751967Y-15346460D01*
X9751967Y-15346460D02*
X9723396Y-15355984D01*
X9723396Y-15355984D02*
X9675777Y-15355984D01*
X9875777Y-15355984D02*
X9875777Y-15222650D01*
X9875777Y-15260746D02*
X9885301Y-15241698D01*
X9885301Y-15241698D02*
X9894824Y-15232174D01*
X9894824Y-15232174D02*
X9913872Y-15222650D01*
X9913872Y-15222650D02*
X9932920Y-15222650D01*
X9999586Y-15355984D02*
X9999586Y-15222650D01*
X9999586Y-15155984D02*
X9990063Y-15165508D01*
X9990063Y-15165508D02*
X9999586Y-15175031D01*
X9999586Y-15175031D02*
X10009110Y-15165508D01*
X10009110Y-15165508D02*
X9999586Y-15155984D01*
X9999586Y-15155984D02*
X9999586Y-15175031D01*
X10123396Y-15355984D02*
X10104348Y-15346460D01*
X10104348Y-15346460D02*
X10094824Y-15327412D01*
X10094824Y-15327412D02*
X10094824Y-15155984D01*
X10228158Y-15355984D02*
X10209110Y-15346460D01*
X10209110Y-15346460D02*
X10199586Y-15327412D01*
X10199586Y-15327412D02*
X10199586Y-15155984D01*
X10456729Y-15355984D02*
X10456729Y-15155984D01*
X10456729Y-15155984D02*
X10523396Y-15298841D01*
X10523396Y-15298841D02*
X10590063Y-15155984D01*
X10590063Y-15155984D02*
X10590063Y-15355984D01*
X10771015Y-15355984D02*
X10771015Y-15251222D01*
X10771015Y-15251222D02*
X10761491Y-15232174D01*
X10761491Y-15232174D02*
X10742444Y-15222650D01*
X10742444Y-15222650D02*
X10704348Y-15222650D01*
X10704348Y-15222650D02*
X10685301Y-15232174D01*
X10771015Y-15346460D02*
X10751967Y-15355984D01*
X10751967Y-15355984D02*
X10704348Y-15355984D01*
X10704348Y-15355984D02*
X10685301Y-15346460D01*
X10685301Y-15346460D02*
X10675777Y-15327412D01*
X10675777Y-15327412D02*
X10675777Y-15308365D01*
X10675777Y-15308365D02*
X10685301Y-15289317D01*
X10685301Y-15289317D02*
X10704348Y-15279793D01*
X10704348Y-15279793D02*
X10751967Y-15279793D01*
X10751967Y-15279793D02*
X10771015Y-15270269D01*
X10866253Y-15222650D02*
X10866253Y-15422650D01*
X10866253Y-15232174D02*
X10885301Y-15222650D01*
X10885301Y-15222650D02*
X10923396Y-15222650D01*
X10923396Y-15222650D02*
X10942444Y-15232174D01*
X10942444Y-15232174D02*
X10951967Y-15241698D01*
X10951967Y-15241698D02*
X10961491Y-15260746D01*
X10961491Y-15260746D02*
X10961491Y-15317888D01*
X10961491Y-15317888D02*
X10951967Y-15336936D01*
X10951967Y-15336936D02*
X10942444Y-15346460D01*
X10942444Y-15346460D02*
X10923396Y-15355984D01*
X10923396Y-15355984D02*
X10885301Y-15355984D01*
X10885301Y-15355984D02*
X10866253Y-15346460D01*
X11047205Y-15336936D02*
X11056729Y-15346460D01*
X11056729Y-15346460D02*
X11047205Y-15355984D01*
X11047205Y-15355984D02*
X11037682Y-15346460D01*
X11037682Y-15346460D02*
X11047205Y-15336936D01*
X11047205Y-15336936D02*
X11047205Y-15355984D01*
X11047205Y-15232174D02*
X11056729Y-15241698D01*
X11056729Y-15241698D02*
X11047205Y-15251222D01*
X11047205Y-15251222D02*
X11037682Y-15241698D01*
X11037682Y-15241698D02*
X11047205Y-15232174D01*
X11047205Y-15232174D02*
X11047205Y-15251222D01*
M02*
