M48
; DRILL file {KiCad 8.0.7} date 2025-01-11T15:48:56+0000
; FORMAT={-:-/ absolute / metric / decimal}
; #@! TF.CreationDate,2025-01-11T15:48:56+00:00
; #@! TF.GenerationSoftware,Kicad,Pcbnew,8.0.7
; #@! TF.FileFunction,Plated,1,2,PTH
FMAT,2
METRIC
; #@! TA.AperFunction,Plated,PTH,ViaDrill
T1C0.300
; #@! TA.AperFunction,Plated,PTH,ComponentDrill
T2C0.600
; #@! TA.AperFunction,Plated,PTH,ComponentDrill
T3C1.000
; #@! TA.AperFunction,Plated,PTH,ComponentDrill
T4C1.100
; #@! TA.AperFunction,Plated,PTH,ComponentDrill
T5C1.850
%
G90
G05
T1
X121.735Y-128.708
X125.402Y-135.241
X125.932Y-106.733
X126.42Y-133.043
X127.203Y-108.204
X127.447Y-84.461
X127.96Y-86.825
X130.791Y-104.422
X130.791Y-107.21
X157.638Y-59.645
X159.478Y-63.836
T3
X96.182Y-61.42
X96.182Y-63.92
X96.182Y-66.42
X96.182Y-79.0
X96.182Y-81.5
X96.182Y-84.0
X96.275Y-98.5
X96.275Y-101.0
X96.275Y-103.5
X96.275Y-116.5
X96.275Y-119.0
X96.275Y-121.5
X104.625Y-53.3
X104.635Y-147.7
X107.165Y-53.3
X107.175Y-147.7
X109.705Y-53.3
X109.715Y-147.7
X112.245Y-53.3
X112.255Y-147.7
X113.275Y-98.5
X113.275Y-101.0
X113.275Y-103.5
X113.275Y-116.5
X113.275Y-119.0
X113.275Y-121.5
X114.275Y-61.42
X114.275Y-63.92
X114.275Y-66.42
X114.785Y-53.3
X114.795Y-147.7
X117.325Y-53.3
X117.335Y-147.7
X119.865Y-53.3
X119.875Y-147.7
X122.405Y-53.3
X122.415Y-147.7
X124.945Y-53.3
X124.955Y-147.7
X127.485Y-53.3
X127.495Y-147.7
X130.025Y-53.3
X130.035Y-147.7
X130.275Y-116.5
X130.275Y-119.0
X130.275Y-121.5
X132.565Y-53.3
X132.575Y-147.7
X133.275Y-61.5
X133.275Y-64.0
X133.275Y-66.5
X135.105Y-53.3
X135.115Y-147.7
X137.645Y-53.3
X137.655Y-147.7
X140.185Y-53.3
X140.195Y-147.7
X142.725Y-53.3
X142.735Y-147.7
X145.265Y-53.3
X145.275Y-147.7
X147.805Y-53.3
X147.815Y-147.7
X150.345Y-53.3
X150.355Y-147.7
X152.885Y-53.3
X152.895Y-147.7
X155.425Y-53.3
X155.435Y-147.7
X157.965Y-53.3
X157.975Y-147.7
X160.505Y-53.3
X160.515Y-147.7
X163.045Y-53.3
X163.055Y-147.7
X164.275Y-61.5
X164.275Y-64.0
X164.275Y-66.5
X164.275Y-78.35
X164.275Y-80.85
X164.275Y-83.35
X164.275Y-95.7
X164.275Y-98.2
X164.275Y-100.7
X164.275Y-113.25
X164.275Y-115.75
X164.275Y-118.25
X165.585Y-53.3
X165.595Y-147.7
X168.125Y-53.3
X168.135Y-147.7
X170.665Y-53.3
X170.675Y-147.7
X173.205Y-53.3
X173.215Y-147.7
X175.745Y-53.3
X175.755Y-147.7
X178.285Y-53.3
X178.295Y-147.7
X180.775Y-61.5
X180.775Y-64.0
X180.775Y-66.5
X180.825Y-53.3
X180.835Y-147.7
X183.365Y-53.3
X183.375Y-147.7
T5
X155.0Y-59.3
X155.0Y-64.0
X155.0Y-68.7
X172.0Y-128.75
X172.0Y-133.45
X172.0Y-138.15
T2
G00X103.0Y-132.08
M15
G01X104.0Y-132.08
M16
G05
G00X103.0Y-140.38
M15
G01X104.0Y-140.38
M16
G05
G00X103.0Y-143.48
M15
G01X104.0Y-143.48
M16
G05
G00X120.0Y-132.08
M15
G01X121.0Y-132.08
M16
G05
G00X120.0Y-140.38
M15
G01X121.0Y-140.38
M16
G05
G00X120.0Y-143.48
M15
G01X121.0Y-143.48
M16
G05
G00X121.093Y-76.58
M15
G01X122.093Y-76.58
M16
G05
G00X121.093Y-84.88
M15
G01X122.093Y-84.88
M16
G05
G00X121.093Y-87.98
M15
G01X122.093Y-87.98
M16
G05
G00X137.0Y-132.08
M15
G01X138.0Y-132.08
M16
G05
G00X137.0Y-140.38
M15
G01X138.0Y-140.38
M16
G05
G00X137.0Y-143.48
M15
G01X138.0Y-143.48
M16
G05
G00X140.093Y-76.66
M15
G01X141.093Y-76.66
M16
G05
G00X140.093Y-84.96
M15
G01X141.093Y-84.96
M16
G05
G00X140.093Y-88.06
M15
G01X141.093Y-88.06
M16
G05
G00X154.5Y-76.673
M15
G01X155.5Y-76.673
M16
G05
G00X154.5Y-84.973
M15
G01X155.5Y-84.973
M16
G05
G00X154.5Y-88.073
M15
G01X155.5Y-88.073
M16
G05
G00X187.5Y-76.13
M15
G01X188.5Y-76.13
M16
G05
G00X187.5Y-84.43
M15
G01X188.5Y-84.43
M16
G05
G00X187.5Y-87.53
M15
G01X188.5Y-87.53
M16
G05
G00X187.5Y-93.28
M15
G01X188.5Y-93.28
M16
G05
G00X187.5Y-101.58
M15
G01X188.5Y-101.58
M16
G05
G00X187.5Y-104.68
M15
G01X188.5Y-104.68
M16
G05
G00X187.5Y-110.83
M15
G01X188.5Y-110.83
M16
G05
G00X187.5Y-119.13
M15
G01X188.5Y-119.13
M16
G05
G00X187.5Y-122.23
M15
G01X188.5Y-122.23
M16
G05
G00X187.5Y-128.58
M15
G01X188.5Y-128.58
M16
G05
G00X187.5Y-136.88
M15
G01X188.5Y-136.88
M16
G05
G00X187.5Y-139.98
M15
G01X188.5Y-139.98
M16
G05
T4
G00X103.332Y-59.12
M15
G01X104.032Y-59.12
M16
G05
G00X103.332Y-68.72
M15
G01X104.032Y-68.72
M16
G05
G00X103.332Y-76.7
M15
G01X104.032Y-76.7
M16
G05
G00X103.332Y-86.3
M15
G01X104.032Y-86.3
M16
G05
G00X103.425Y-96.2
M15
G01X104.125Y-96.2
M16
G05
G00X103.425Y-105.8
M15
G01X104.125Y-105.8
M16
G05
G00X103.425Y-114.2
M15
G01X104.125Y-114.2
M16
G05
G00X103.425Y-123.8
M15
G01X104.125Y-123.8
M16
G05
G00X120.425Y-96.2
M15
G01X121.125Y-96.2
M16
G05
G00X120.425Y-105.8
M15
G01X121.125Y-105.8
M16
G05
G00X120.425Y-114.2
M15
G01X121.125Y-114.2
M16
G05
G00X120.425Y-123.8
M15
G01X121.125Y-123.8
M16
G05
G00X121.425Y-59.12
M15
G01X122.125Y-59.12
M16
G05
G00X121.425Y-68.72
M15
G01X122.125Y-68.72
M16
G05
G00X137.425Y-114.2
M15
G01X138.125Y-114.2
M16
G05
G00X137.425Y-123.8
M15
G01X138.125Y-123.8
M16
G05
G00X140.425Y-59.2
M15
G01X141.125Y-59.2
M16
G05
G00X140.425Y-68.8
M15
G01X141.125Y-68.8
M16
G05
G00X171.425Y-59.2
M15
G01X172.125Y-59.2
M16
G05
G00X171.425Y-68.8
M15
G01X172.125Y-68.8
M16
G05
G00X171.425Y-76.05
M15
G01X172.125Y-76.05
M16
G05
G00X171.425Y-85.65
M15
G01X172.125Y-85.65
M16
G05
G00X171.425Y-93.4
M15
G01X172.125Y-93.4
M16
G05
G00X171.425Y-103.0
M15
G01X172.125Y-103.0
M16
G05
G00X171.425Y-110.95
M15
G01X172.125Y-110.95
M16
G05
G00X171.425Y-120.55
M15
G01X172.125Y-120.55
M16
G05
G00X187.925Y-59.2
M15
G01X188.625Y-59.2
M16
G05
G00X187.925Y-68.8
M15
G01X188.625Y-68.8
M16
G05
M30
