%TF.GenerationSoftware,KiCad,Pcbnew,7.0.9*%
%TF.CreationDate,2024-05-31T23:58:34+01:00*%
%TF.ProjectId,VCO PANEL,56434f20-5041-44e4-954c-2e6b69636164,rev?*%
%TF.SameCoordinates,Original*%
%TF.FileFunction,Soldermask,Bot*%
%TF.FilePolarity,Negative*%
%FSLAX46Y46*%
G04 Gerber Fmt 4.6, Leading zero omitted, Abs format (unit mm)*
G04 Created by KiCad (PCBNEW 7.0.9) date 2024-05-31 23:58:34*
%MOMM*%
%LPD*%
G01*
G04 APERTURE LIST*
G04 Aperture macros list*
%AMRoundRect*
0 Rectangle with rounded corners*
0 $1 Rounding radius*
0 $2 $3 $4 $5 $6 $7 $8 $9 X,Y pos of 4 corners*
0 Add a 4 corners polygon primitive as box body*
4,1,4,$2,$3,$4,$5,$6,$7,$8,$9,$2,$3,0*
0 Add four circle primitives for the rounded corners*
1,1,$1+$1,$2,$3*
1,1,$1+$1,$4,$5*
1,1,$1+$1,$6,$7*
1,1,$1+$1,$8,$9*
0 Add four rect primitives between the rounded corners*
20,1,$1+$1,$2,$3,$4,$5,0*
20,1,$1+$1,$4,$5,$6,$7,0*
20,1,$1+$1,$6,$7,$8,$9,0*
20,1,$1+$1,$8,$9,$2,$3,0*%
G04 Aperture macros list end*
%ADD10R,1.700000X1.700000*%
%ADD11O,1.700000X1.700000*%
%ADD12RoundRect,0.650000X-0.650000X-0.650000X0.650000X-0.650000X0.650000X0.650000X-0.650000X0.650000X0*%
%ADD13O,3.100000X2.100000*%
%ADD14O,3.240000X2.720000*%
%ADD15R,1.800000X1.800000*%
%ADD16C,1.800000*%
%ADD17C,3.200000*%
G04 APERTURE END LIST*
D10*
%TO.C,J1*%
X104625000Y-53300000D03*
D11*
X107165000Y-53300000D03*
X109705000Y-53300000D03*
X112245000Y-53300000D03*
X114785000Y-53300000D03*
X117325000Y-53300000D03*
X119865000Y-53300000D03*
X122405000Y-53300000D03*
X124945000Y-53300000D03*
X127485000Y-53300000D03*
X130025000Y-53300000D03*
X132565000Y-53300000D03*
X135105000Y-53300000D03*
X137645000Y-53300000D03*
X140185000Y-53300000D03*
X142725000Y-53300000D03*
X145265000Y-53300000D03*
X147805000Y-53300000D03*
X150345000Y-53300000D03*
X152885000Y-53300000D03*
X155425000Y-53300000D03*
X157965000Y-53300000D03*
X160505000Y-53300000D03*
X163045000Y-53300000D03*
X165585000Y-53300000D03*
X168125000Y-53300000D03*
X170665000Y-53300000D03*
X173205000Y-53300000D03*
X175745000Y-53300000D03*
X178285000Y-53300000D03*
X180825000Y-53300000D03*
X183365000Y-53300000D03*
%TD*%
D12*
%TO.C,J5*%
X188000000Y-119130000D03*
D13*
X188000000Y-122230000D03*
D12*
X188000000Y-110830000D03*
%TD*%
D14*
%TO.C,RV9*%
X188275000Y-59200000D03*
X188275000Y-68800000D03*
D15*
X180775000Y-61500000D03*
D16*
X180775000Y-64000000D03*
X180775000Y-66500000D03*
%TD*%
D12*
%TO.C,J11*%
X155000000Y-84972600D03*
D13*
X155000000Y-88072600D03*
D12*
X155000000Y-76672600D03*
%TD*%
D14*
%TO.C,RV4*%
X121775000Y-59120000D03*
X121775000Y-68720000D03*
D15*
X114275000Y-61420000D03*
D16*
X114275000Y-63920000D03*
X114275000Y-66420000D03*
%TD*%
D14*
%TO.C,RV8*%
X171775000Y-93400000D03*
X171775000Y-103000000D03*
D15*
X164275000Y-95700000D03*
D16*
X164275000Y-98200000D03*
X164275000Y-100700000D03*
%TD*%
D12*
%TO.C,J10*%
X120500000Y-140380000D03*
D13*
X120500000Y-143480000D03*
D12*
X120500000Y-132080000D03*
%TD*%
D14*
%TO.C,RV2*%
X103682500Y-76700000D03*
X103682500Y-86300000D03*
D15*
X96182500Y-79000000D03*
D16*
X96182500Y-81500000D03*
X96182500Y-84000000D03*
%TD*%
D17*
%TO.C,SW2*%
X172000000Y-138150000D03*
X172000000Y-133450000D03*
X172000000Y-128750000D03*
%TD*%
D14*
%TO.C,RV3*%
X140775000Y-59200000D03*
X140775000Y-68800000D03*
D15*
X133275000Y-61500000D03*
D16*
X133275000Y-64000000D03*
X133275000Y-66500000D03*
%TD*%
D12*
%TO.C,J12*%
X137500000Y-140380000D03*
D13*
X137500000Y-143480000D03*
D12*
X137500000Y-132080000D03*
%TD*%
D14*
%TO.C,RV13*%
X137775000Y-114200000D03*
X137775000Y-123800000D03*
D15*
X130275000Y-116500000D03*
D16*
X130275000Y-119000000D03*
X130275000Y-121500000D03*
%TD*%
D14*
%TO.C,RV1*%
X103682500Y-59120000D03*
X103682500Y-68720000D03*
D15*
X96182500Y-61420000D03*
D16*
X96182500Y-63920000D03*
X96182500Y-66420000D03*
%TD*%
D14*
%TO.C,RV10*%
X103775000Y-96200000D03*
X103775000Y-105800000D03*
D15*
X96275000Y-98500000D03*
D16*
X96275000Y-101000000D03*
X96275000Y-103500000D03*
%TD*%
D14*
%TO.C,RV14*%
X120775000Y-96200000D03*
X120775000Y-105800000D03*
D15*
X113275000Y-98500000D03*
D16*
X113275000Y-101000000D03*
X113275000Y-103500000D03*
%TD*%
D14*
%TO.C,RV11*%
X103775000Y-114200000D03*
X103775000Y-123800000D03*
D15*
X96275000Y-116500000D03*
D16*
X96275000Y-119000000D03*
X96275000Y-121500000D03*
%TD*%
D12*
%TO.C,J4*%
X103500000Y-140380000D03*
D13*
X103500000Y-143480000D03*
D12*
X103500000Y-132080000D03*
%TD*%
D10*
%TO.C,J2*%
X183375000Y-147700000D03*
D11*
X180835000Y-147700000D03*
X178295000Y-147700000D03*
X175755000Y-147700000D03*
X173215000Y-147700000D03*
X170675000Y-147700000D03*
X168135000Y-147700000D03*
X165595000Y-147700000D03*
X163055000Y-147700000D03*
X160515000Y-147700000D03*
X157975000Y-147700000D03*
X155435000Y-147700000D03*
X152895000Y-147700000D03*
X150355000Y-147700000D03*
X147815000Y-147700000D03*
X145275000Y-147700000D03*
X142735000Y-147700000D03*
X140195000Y-147700000D03*
X137655000Y-147700000D03*
X135115000Y-147700000D03*
X132575000Y-147700000D03*
X130035000Y-147700000D03*
X127495000Y-147700000D03*
X124955000Y-147700000D03*
X122415000Y-147700000D03*
X119875000Y-147700000D03*
X117335000Y-147700000D03*
X114795000Y-147700000D03*
X112255000Y-147700000D03*
X109715000Y-147700000D03*
X107175000Y-147700000D03*
X104635000Y-147700000D03*
%TD*%
D12*
%TO.C,J6*%
X188000000Y-101580000D03*
D13*
X188000000Y-104680000D03*
D12*
X188000000Y-93280000D03*
%TD*%
%TO.C,J7*%
X188000000Y-136880000D03*
D13*
X188000000Y-139980000D03*
D12*
X188000000Y-128580000D03*
%TD*%
D14*
%TO.C,RV12*%
X120775000Y-114200000D03*
X120775000Y-123800000D03*
D15*
X113275000Y-116500000D03*
D16*
X113275000Y-119000000D03*
X113275000Y-121500000D03*
%TD*%
D14*
%TO.C,RV5*%
X171775000Y-59200000D03*
X171775000Y-68800000D03*
D15*
X164275000Y-61500000D03*
D16*
X164275000Y-64000000D03*
X164275000Y-66500000D03*
%TD*%
D12*
%TO.C,J3*%
X121592500Y-84880000D03*
D13*
X121592500Y-87980000D03*
D12*
X121592500Y-76580000D03*
%TD*%
%TO.C,J8*%
X188000000Y-84430000D03*
D13*
X188000000Y-87530000D03*
D12*
X188000000Y-76130000D03*
%TD*%
D17*
%TO.C,SW1*%
X155000000Y-68700000D03*
X155000000Y-64000000D03*
X155000000Y-59300000D03*
%TD*%
D12*
%TO.C,J9*%
X140592500Y-84960000D03*
D13*
X140592500Y-88060000D03*
D12*
X140592500Y-76660000D03*
%TD*%
D14*
%TO.C,RV6*%
X171775000Y-76050000D03*
X171775000Y-85650000D03*
D15*
X164275000Y-78350000D03*
D16*
X164275000Y-80850000D03*
X164275000Y-83350000D03*
%TD*%
D14*
%TO.C,RV7*%
X171775000Y-110950000D03*
X171775000Y-120550000D03*
D15*
X164275000Y-113250000D03*
D16*
X164275000Y-115750000D03*
X164275000Y-118250000D03*
%TD*%
M02*
