%TF.GenerationSoftware,KiCad,Pcbnew,7.0.9*%
%TF.CreationDate,2024-05-31T23:58:34+01:00*%
%TF.ProjectId,VCO PANEL,56434f20-5041-44e4-954c-2e6b69636164,rev?*%
%TF.SameCoordinates,Original*%
%TF.FileFunction,Copper,L1,Top*%
%TF.FilePolarity,Positive*%
%FSLAX46Y46*%
G04 Gerber Fmt 4.6, Leading zero omitted, Abs format (unit mm)*
G04 Created by KiCad (PCBNEW 7.0.9) date 2024-05-31 23:58:34*
%MOMM*%
%LPD*%
G01*
G04 APERTURE LIST*
G04 Aperture macros list*
%AMRoundRect*
0 Rectangle with rounded corners*
0 $1 Rounding radius*
0 $2 $3 $4 $5 $6 $7 $8 $9 X,Y pos of 4 corners*
0 Add a 4 corners polygon primitive as box body*
4,1,4,$2,$3,$4,$5,$6,$7,$8,$9,$2,$3,0*
0 Add four circle primitives for the rounded corners*
1,1,$1+$1,$2,$3*
1,1,$1+$1,$4,$5*
1,1,$1+$1,$6,$7*
1,1,$1+$1,$8,$9*
0 Add four rect primitives between the rounded corners*
20,1,$1+$1,$2,$3,$4,$5,0*
20,1,$1+$1,$4,$5,$6,$7,0*
20,1,$1+$1,$6,$7,$8,$9,0*
20,1,$1+$1,$8,$9,$2,$3,0*%
G04 Aperture macros list end*
%TA.AperFunction,ComponentPad*%
%ADD10R,1.700000X1.700000*%
%TD*%
%TA.AperFunction,ComponentPad*%
%ADD11O,1.700000X1.700000*%
%TD*%
%TA.AperFunction,ComponentPad*%
%ADD12RoundRect,0.650000X-0.650000X-0.650000X0.650000X-0.650000X0.650000X0.650000X-0.650000X0.650000X0*%
%TD*%
%TA.AperFunction,ComponentPad*%
%ADD13O,3.100000X2.100000*%
%TD*%
%TA.AperFunction,ComponentPad*%
%ADD14O,3.240000X2.720000*%
%TD*%
%TA.AperFunction,ComponentPad*%
%ADD15R,1.800000X1.800000*%
%TD*%
%TA.AperFunction,ComponentPad*%
%ADD16C,1.800000*%
%TD*%
%TA.AperFunction,ComponentPad*%
%ADD17C,3.200000*%
%TD*%
%TA.AperFunction,ViaPad*%
%ADD18C,0.600000*%
%TD*%
%TA.AperFunction,Conductor*%
%ADD19C,0.250000*%
%TD*%
G04 APERTURE END LIST*
D10*
%TO.P,J1,1,Pin_1*%
%TO.N,VCO1CoarsePot1*%
X104625000Y-53300000D03*
D11*
%TO.P,J1,2,Pin_2*%
%TO.N,VCO1CoarsePot2*%
X107165000Y-53300000D03*
%TO.P,J1,3,Pin_3*%
%TO.N,VCO1CoarsePot3*%
X109705000Y-53300000D03*
%TO.P,J1,4,Pin_4*%
%TO.N,VCO1FinePot1*%
X112245000Y-53300000D03*
%TO.P,J1,5,Pin_5*%
%TO.N,VCO1FinePot2*%
X114785000Y-53300000D03*
%TO.P,J1,6,Pin_6*%
%TO.N,VCO1FinePot3*%
X117325000Y-53300000D03*
%TO.P,J1,7,Pin_7*%
%TO.N,VCO1FMPot1*%
X119865000Y-53300000D03*
%TO.P,J1,8,Pin_8*%
%TO.N,VCO1FMPot2*%
X122405000Y-53300000D03*
%TO.P,J1,9,Pin_9*%
%TO.N,VCO1FMPot3*%
X124945000Y-53300000D03*
%TO.P,J1,10,Pin_10*%
%TO.N,VCO1PwmPot1*%
X127485000Y-53300000D03*
%TO.P,J1,11,Pin_11*%
%TO.N,VCO1PwmPot2*%
X130025000Y-53300000D03*
%TO.P,J1,12,Pin_12*%
%TO.N,VCO1PwmPot3*%
X132565000Y-53300000D03*
%TO.P,J1,13,Pin_13*%
%TO.N,SW1p1*%
X135105000Y-53300000D03*
%TO.P,J1,14,Pin_14*%
%TO.N,SW1p2*%
X137645000Y-53300000D03*
%TO.P,J1,15,Pin_15*%
%TO.N,SW1p3*%
X140185000Y-53300000D03*
%TO.P,J1,16,Pin_16*%
%TO.N,VCO2CoarsePot1*%
X142725000Y-53300000D03*
%TO.P,J1,17,Pin_17*%
%TO.N,VCO2CoarsePot2*%
X145265000Y-53300000D03*
%TO.P,J1,18,Pin_18*%
%TO.N,VCO2CoarsePot3*%
X147805000Y-53300000D03*
%TO.P,J1,19,Pin_19*%
%TO.N,VCO2FinePot1*%
X150345000Y-53300000D03*
%TO.P,J1,20,Pin_20*%
%TO.N,VCO2FinePot2*%
X152885000Y-53300000D03*
%TO.P,J1,21,Pin_21*%
%TO.N,VCO2FinePot3*%
X155425000Y-53300000D03*
%TO.P,J1,22,Pin_22*%
%TO.N,VCO2FMPot1*%
X157965000Y-53300000D03*
%TO.P,J1,23,Pin_23*%
%TO.N,VCO2FMPot2*%
X160505000Y-53300000D03*
%TO.P,J1,24,Pin_24*%
%TO.N,VCO2FMPot3*%
X163045000Y-53300000D03*
%TO.P,J1,25,Pin_25*%
%TO.N,VCO2PwmPot1*%
X165585000Y-53300000D03*
%TO.P,J1,26,Pin_26*%
%TO.N,VCO2PwmPot2*%
X168125000Y-53300000D03*
%TO.P,J1,27,Pin_27*%
%TO.N,VCO2PwmPot3*%
X170665000Y-53300000D03*
%TO.P,J1,28,Pin_28*%
%TO.N,VCO2IDKPot1*%
X173205000Y-53300000D03*
%TO.P,J1,29,Pin_29*%
%TO.N,VCO2IDKPot2*%
X175745000Y-53300000D03*
%TO.P,J1,30,Pin_30*%
%TO.N,VCO2IDKPot3*%
X178285000Y-53300000D03*
%TO.P,J1,31,Pin_31*%
%TO.N,SW2p1*%
X180825000Y-53300000D03*
%TO.P,J1,32,Pin_32*%
%TO.N,SW2p2*%
X183365000Y-53300000D03*
%TD*%
D12*
%TO.P,J5,R*%
%TO.N,unconnected-(J5-PadR)*%
X188000000Y-119130000D03*
D13*
%TO.P,J5,S*%
%TO.N,Ground*%
X188000000Y-122230000D03*
D12*
%TO.P,J5,T*%
%TO.N,fmIn2*%
X188000000Y-110830000D03*
%TD*%
D14*
%TO.P,RV9,*%
%TO.N,*%
X188275000Y-59200000D03*
X188275000Y-68800000D03*
D15*
%TO.P,RV9,1,1*%
%TO.N,VCO2IDKPot1*%
X180775000Y-61500000D03*
D16*
%TO.P,RV9,2,2*%
%TO.N,VCO2IDKPot2*%
X180775000Y-64000000D03*
%TO.P,RV9,3,3*%
%TO.N,VCO2IDKPot3*%
X180775000Y-66500000D03*
%TD*%
D12*
%TO.P,J11,R*%
%TO.N,unconnected-(J11-PadR)*%
X155000000Y-84972600D03*
D13*
%TO.P,J11,S*%
%TO.N,Ground*%
X155000000Y-88072600D03*
D12*
%TO.P,J11,T*%
%TO.N,vcoOut1*%
X155000000Y-76672600D03*
%TD*%
D14*
%TO.P,RV4,*%
%TO.N,*%
X121775000Y-59120000D03*
X121775000Y-68720000D03*
D15*
%TO.P,RV4,1,1*%
%TO.N,VCO1PwmPot1*%
X114275000Y-61420000D03*
D16*
%TO.P,RV4,2,2*%
%TO.N,VCO1PwmPot2*%
X114275000Y-63920000D03*
%TO.P,RV4,3,3*%
%TO.N,VCO1PwmPot3*%
X114275000Y-66420000D03*
%TD*%
D14*
%TO.P,RV8,*%
%TO.N,*%
X171775000Y-93400000D03*
X171775000Y-103000000D03*
D15*
%TO.P,RV8,1,1*%
%TO.N,VCO2PwmPot1*%
X164275000Y-95700000D03*
D16*
%TO.P,RV8,2,2*%
%TO.N,VCO2PwmPot2*%
X164275000Y-98200000D03*
%TO.P,RV8,3,3*%
%TO.N,VCO2PwmPot3*%
X164275000Y-100700000D03*
%TD*%
D12*
%TO.P,J10,R*%
%TO.N,unconnected-(J10-PadR)*%
X120500000Y-140380000D03*
D13*
%TO.P,J10,S*%
%TO.N,Ground*%
X120500000Y-143480000D03*
D12*
%TO.P,J10,T*%
%TO.N,fmIn3*%
X120500000Y-132080000D03*
%TD*%
D14*
%TO.P,RV2,*%
%TO.N,*%
X103682500Y-76700000D03*
X103682500Y-86300000D03*
D15*
%TO.P,RV2,1,1*%
%TO.N,VCO1FinePot1*%
X96182500Y-79000000D03*
D16*
%TO.P,RV2,2,2*%
%TO.N,VCO1FinePot2*%
X96182500Y-81500000D03*
%TO.P,RV2,3,3*%
%TO.N,VCO1FinePot3*%
X96182500Y-84000000D03*
%TD*%
D17*
%TO.P,SW2,1,A*%
%TO.N,SW2p1*%
X172000000Y-138150000D03*
%TO.P,SW2,2,B*%
%TO.N,SW2p2*%
X172000000Y-133450000D03*
%TO.P,SW2,3,C*%
%TO.N,SW2p3*%
X172000000Y-128750000D03*
%TD*%
D14*
%TO.P,RV3,*%
%TO.N,*%
X140775000Y-59200000D03*
X140775000Y-68800000D03*
D15*
%TO.P,RV3,1,1*%
%TO.N,VCO1FMPot1*%
X133275000Y-61500000D03*
D16*
%TO.P,RV3,2,2*%
%TO.N,VCO1FMPot2*%
X133275000Y-64000000D03*
%TO.P,RV3,3,3*%
%TO.N,VCO1FMPot3*%
X133275000Y-66500000D03*
%TD*%
D12*
%TO.P,J12,R*%
%TO.N,unconnected-(J12-PadR)*%
X137500000Y-140380000D03*
D13*
%TO.P,J12,S*%
%TO.N,Ground*%
X137500000Y-143480000D03*
D12*
%TO.P,J12,T*%
%TO.N,mixOut*%
X137500000Y-132080000D03*
%TD*%
D14*
%TO.P,RV13,*%
%TO.N,*%
X137775000Y-114200000D03*
X137775000Y-123800000D03*
D15*
%TO.P,RV13,1,1*%
%TO.N,VCO3WaveMixPot1*%
X130275000Y-116500000D03*
D16*
%TO.P,RV13,2,2*%
%TO.N,VCO3WaveMixPot2*%
X130275000Y-119000000D03*
%TO.P,RV13,3,3*%
%TO.N,VCO3WaveMixPot3*%
X130275000Y-121500000D03*
%TD*%
D14*
%TO.P,RV1,*%
%TO.N,*%
X103682500Y-59120000D03*
X103682500Y-68720000D03*
D15*
%TO.P,RV1,1,1*%
%TO.N,VCO1CoarsePot1*%
X96182500Y-61420000D03*
D16*
%TO.P,RV1,2,2*%
%TO.N,VCO1CoarsePot2*%
X96182500Y-63920000D03*
%TO.P,RV1,3,3*%
%TO.N,VCO1CoarsePot3*%
X96182500Y-66420000D03*
%TD*%
D14*
%TO.P,RV10,*%
%TO.N,*%
X103775000Y-96200000D03*
X103775000Y-105800000D03*
D15*
%TO.P,RV10,1,1*%
%TO.N,VCO3CoarsePot1*%
X96275000Y-98500000D03*
D16*
%TO.P,RV10,2,2*%
%TO.N,VCO3CoarsePot2*%
X96275000Y-101000000D03*
%TO.P,RV10,3,3*%
%TO.N,VCO3CoarsePot3*%
X96275000Y-103500000D03*
%TD*%
D14*
%TO.P,RV14,*%
%TO.N,*%
X120775000Y-96200000D03*
X120775000Y-105800000D03*
D15*
%TO.P,RV14,1,1*%
%TO.N,VCO3PwmPot1*%
X113275000Y-98500000D03*
D16*
%TO.P,RV14,2,2*%
%TO.N,VCO3PwmPot2*%
X113275000Y-101000000D03*
%TO.P,RV14,3,3*%
%TO.N,VCO3PwmPot3*%
X113275000Y-103500000D03*
%TD*%
D14*
%TO.P,RV11,*%
%TO.N,*%
X103775000Y-114200000D03*
X103775000Y-123800000D03*
D15*
%TO.P,RV11,1,1*%
%TO.N,VCO3FinePot1*%
X96275000Y-116500000D03*
D16*
%TO.P,RV11,2,2*%
%TO.N,VCO3FinePot2*%
X96275000Y-119000000D03*
%TO.P,RV11,3,3*%
%TO.N,VCO3FinePot3*%
X96275000Y-121500000D03*
%TD*%
D12*
%TO.P,J4,R*%
%TO.N,unconnected-(J4-PadR)*%
X103500000Y-140380000D03*
D13*
%TO.P,J4,S*%
%TO.N,Ground*%
X103500000Y-143480000D03*
D12*
%TO.P,J4,T*%
%TO.N,cvIn3*%
X103500000Y-132080000D03*
%TD*%
D10*
%TO.P,J2,1,Pin_1*%
%TO.N,SW2p3*%
X183375000Y-147700000D03*
D11*
%TO.P,J2,2,Pin_2*%
%TO.N,VCO3CoarsePot1*%
X180835000Y-147700000D03*
%TO.P,J2,3,Pin_3*%
%TO.N,VCO3CoarsePot2*%
X178295000Y-147700000D03*
%TO.P,J2,4,Pin_4*%
%TO.N,VCO3CoarsePot3*%
X175755000Y-147700000D03*
%TO.P,J2,5,Pin_5*%
%TO.N,VCO3FinePot1*%
X173215000Y-147700000D03*
%TO.P,J2,6,Pin_6*%
%TO.N,VCO3FinePot2*%
X170675000Y-147700000D03*
%TO.P,J2,7,Pin_7*%
%TO.N,VCO3FinePot3*%
X168135000Y-147700000D03*
%TO.P,J2,8,Pin_8*%
%TO.N,VCO3FMPot1*%
X165595000Y-147700000D03*
%TO.P,J2,9,Pin_9*%
%TO.N,VCO3FMPot2*%
X163055000Y-147700000D03*
%TO.P,J2,10,Pin_10*%
%TO.N,VCO3FMPot3*%
X160515000Y-147700000D03*
%TO.P,J2,11,Pin_11*%
%TO.N,VCO3PwmPot1*%
X157975000Y-147700000D03*
%TO.P,J2,12,Pin_12*%
%TO.N,VCO3PwmPot2*%
X155435000Y-147700000D03*
%TO.P,J2,13,Pin_13*%
%TO.N,VCO3PwmPot3*%
X152895000Y-147700000D03*
%TO.P,J2,14,Pin_14*%
%TO.N,VCO3WaveMixPot1*%
X150355000Y-147700000D03*
%TO.P,J2,15,Pin_15*%
%TO.N,VCO3WaveMixPot2*%
X147815000Y-147700000D03*
%TO.P,J2,16,Pin_16*%
%TO.N,VCO3WaveMixPot3*%
X145275000Y-147700000D03*
%TO.P,J2,17,Pin_17*%
%TO.N,cvIn1*%
X142735000Y-147700000D03*
%TO.P,J2,18,Pin_18*%
%TO.N,cvIn2*%
X140195000Y-147700000D03*
%TO.P,J2,19,Pin_19*%
%TO.N,cvIn3*%
X137655000Y-147700000D03*
%TO.P,J2,20,Pin_20*%
%TO.N,fmIn1*%
X135115000Y-147700000D03*
%TO.P,J2,21,Pin_21*%
%TO.N,fmIn2*%
X132575000Y-147700000D03*
%TO.P,J2,22,Pin_22*%
%TO.N,fmIn3*%
X130035000Y-147700000D03*
%TO.P,J2,23,Pin_23*%
%TO.N,pwmIn*%
X127495000Y-147700000D03*
%TO.P,J2,24,Pin_24*%
%TO.N,vcoOut1*%
X124955000Y-147700000D03*
%TO.P,J2,25,Pin_25*%
%TO.N,vcoOut2*%
X122415000Y-147700000D03*
%TO.P,J2,26,Pin_26*%
%TO.N,mixOut*%
X119875000Y-147700000D03*
%TO.P,J2,27,Pin_27*%
%TO.N,unconnected-(J2-Pin_27-Pad27)*%
X117335000Y-147700000D03*
%TO.P,J2,28,Pin_28*%
%TO.N,unconnected-(J2-Pin_28-Pad28)*%
X114795000Y-147700000D03*
%TO.P,J2,29,Pin_29*%
%TO.N,unconnected-(J2-Pin_29-Pad29)*%
X112255000Y-147700000D03*
%TO.P,J2,30,Pin_30*%
%TO.N,unconnected-(J2-Pin_30-Pad30)*%
X109715000Y-147700000D03*
%TO.P,J2,31,Pin_31*%
%TO.N,Ground*%
X107175000Y-147700000D03*
%TO.P,J2,32,Pin_32*%
X104635000Y-147700000D03*
%TD*%
D12*
%TO.P,J6,R*%
%TO.N,unconnected-(J6-PadR)*%
X188000000Y-101580000D03*
D13*
%TO.P,J6,S*%
%TO.N,Ground*%
X188000000Y-104680000D03*
D12*
%TO.P,J6,T*%
%TO.N,pwmIn*%
X188000000Y-93280000D03*
%TD*%
%TO.P,J7,R*%
%TO.N,unconnected-(J7-PadR)*%
X188000000Y-136880000D03*
D13*
%TO.P,J7,S*%
%TO.N,Ground*%
X188000000Y-139980000D03*
D12*
%TO.P,J7,T*%
%TO.N,vcoOut2*%
X188000000Y-128580000D03*
%TD*%
D14*
%TO.P,RV12,*%
%TO.N,*%
X120775000Y-114200000D03*
X120775000Y-123800000D03*
D15*
%TO.P,RV12,1,1*%
%TO.N,VCO3FMPot1*%
X113275000Y-116500000D03*
D16*
%TO.P,RV12,2,2*%
%TO.N,VCO3FMPot2*%
X113275000Y-119000000D03*
%TO.P,RV12,3,3*%
%TO.N,VCO3FMPot3*%
X113275000Y-121500000D03*
%TD*%
D14*
%TO.P,RV5,*%
%TO.N,*%
X171775000Y-59200000D03*
X171775000Y-68800000D03*
D15*
%TO.P,RV5,1,1*%
%TO.N,VCO2CoarsePot1*%
X164275000Y-61500000D03*
D16*
%TO.P,RV5,2,2*%
%TO.N,VCO2CoarsePot2*%
X164275000Y-64000000D03*
%TO.P,RV5,3,3*%
%TO.N,VCO2CoarsePot3*%
X164275000Y-66500000D03*
%TD*%
D12*
%TO.P,J3,R*%
%TO.N,unconnected-(J3-PadR)*%
X121592500Y-84880000D03*
D13*
%TO.P,J3,S*%
%TO.N,Ground*%
X121592500Y-87980000D03*
D12*
%TO.P,J3,T*%
%TO.N,cvIn1*%
X121592500Y-76580000D03*
%TD*%
%TO.P,J8,R*%
%TO.N,unconnected-(J8-PadR)*%
X188000000Y-84430000D03*
D13*
%TO.P,J8,S*%
%TO.N,Ground*%
X188000000Y-87530000D03*
D12*
%TO.P,J8,T*%
%TO.N,cvIn2*%
X188000000Y-76130000D03*
%TD*%
D17*
%TO.P,SW1,1,A*%
%TO.N,SW1p1*%
X155000000Y-68700000D03*
%TO.P,SW1,2,B*%
%TO.N,SW1p2*%
X155000000Y-64000000D03*
%TO.P,SW1,3,C*%
%TO.N,SW1p3*%
X155000000Y-59300000D03*
%TD*%
D12*
%TO.P,J9,R*%
%TO.N,unconnected-(J9-PadR)*%
X140592500Y-84960000D03*
D13*
%TO.P,J9,S*%
%TO.N,Ground*%
X140592500Y-88060000D03*
D12*
%TO.P,J9,T*%
%TO.N,fmIn1*%
X140592500Y-76660000D03*
%TD*%
D14*
%TO.P,RV6,*%
%TO.N,*%
X171775000Y-76050000D03*
X171775000Y-85650000D03*
D15*
%TO.P,RV6,1,1*%
%TO.N,VCO2FinePot1*%
X164275000Y-78350000D03*
D16*
%TO.P,RV6,2,2*%
%TO.N,VCO2FinePot2*%
X164275000Y-80850000D03*
%TO.P,RV6,3,3*%
%TO.N,VCO2FinePot3*%
X164275000Y-83350000D03*
%TD*%
D14*
%TO.P,RV7,*%
%TO.N,*%
X171775000Y-110950000D03*
X171775000Y-120550000D03*
D15*
%TO.P,RV7,1,1*%
%TO.N,VCO2FMPot1*%
X164275000Y-113250000D03*
D16*
%TO.P,RV7,2,2*%
%TO.N,VCO2FMPot2*%
X164275000Y-115750000D03*
%TO.P,RV7,3,3*%
%TO.N,VCO2FMPot3*%
X164275000Y-118250000D03*
%TD*%
D18*
%TO.N,VCO2FinePot2*%
X157638300Y-59644900D03*
%TO.N,VCO2FinePot3*%
X159478200Y-63836000D03*
%TO.N,VCO3PwmPot1*%
X130791300Y-104422400D03*
%TO.N,VCO3PwmPot2*%
X130791300Y-107210200D03*
%TO.N,VCO3PwmPot3*%
X121734900Y-128707900D03*
%TO.N,fmIn1*%
X127960100Y-86825100D03*
%TO.N,fmIn2*%
X127202600Y-108204400D03*
%TO.N,pwmIn*%
X125932200Y-106733300D03*
%TO.N,vcoOut1*%
X127446900Y-84460700D03*
%TO.N,mixOut*%
X126419700Y-133043500D03*
%TO.N,Ground*%
X125401600Y-135241300D03*
%TD*%
D19*
%TO.N,VCO1CoarsePot2*%
X96182500Y-63920000D02*
X96373100Y-63920000D01*
X104905800Y-54776700D02*
X107165000Y-54776700D01*
X107165000Y-53300000D02*
X107165000Y-54776700D01*
X100045600Y-60247500D02*
X100045600Y-59636900D01*
X100045600Y-59636900D02*
X104905800Y-54776700D01*
X96373100Y-63920000D02*
X100045600Y-60247500D01*
%TO.N,VCO1FinePot1*%
X96182500Y-79000000D02*
X96182500Y-70874000D01*
X96182500Y-70874000D02*
X112245000Y-54811500D01*
X112245000Y-54811500D02*
X112245000Y-53300000D01*
%TO.N,VCO1FinePot2*%
X99490300Y-69841900D02*
X114555500Y-54776700D01*
X96452300Y-81500000D02*
X99490300Y-78462000D01*
X114555500Y-54776700D02*
X114785000Y-54776700D01*
X96182500Y-81500000D02*
X96452300Y-81500000D01*
X114785000Y-53300000D02*
X114785000Y-54776700D01*
X99490300Y-78462000D02*
X99490300Y-69841900D01*
%TO.N,VCO1FinePot3*%
X111028200Y-64581700D02*
X111028200Y-61073500D01*
X111028200Y-61073500D02*
X117325000Y-54776700D01*
X100617000Y-74992900D02*
X111028200Y-64581700D01*
X117325000Y-53300000D02*
X117325000Y-54776700D01*
X96182500Y-84000000D02*
X100617000Y-79565500D01*
X100617000Y-79565500D02*
X100617000Y-74992900D01*
%TO.N,VCO1FMPot1*%
X133275000Y-61500000D02*
X128065000Y-61500000D01*
X128065000Y-61500000D02*
X119865000Y-53300000D01*
%TO.N,VCO1FMPot2*%
X133512500Y-64000000D02*
X134806300Y-62706200D01*
X129065000Y-59960000D02*
X122405000Y-53300000D01*
X133275000Y-64000000D02*
X133512500Y-64000000D01*
X134806300Y-62706200D02*
X134806300Y-60331800D01*
X134434500Y-59960000D02*
X129065000Y-59960000D01*
X134806300Y-60331800D02*
X134434500Y-59960000D01*
%TO.N,VCO1FMPot3*%
X134052800Y-58515200D02*
X130160200Y-58515200D01*
X135558000Y-60020400D02*
X134052800Y-58515200D01*
X135558000Y-64217000D02*
X135558000Y-60020400D01*
X130160200Y-58515200D02*
X124945000Y-53300000D01*
X133275000Y-66500000D02*
X135558000Y-64217000D01*
%TO.N,VCO2FinePot2*%
X157638300Y-58701900D02*
X157638300Y-59644900D01*
X152885000Y-53300000D02*
X152885000Y-54776700D01*
X152885000Y-54776700D02*
X153713100Y-54776700D01*
X153713100Y-54776700D02*
X157638300Y-58701900D01*
%TO.N,VCO2FinePot3*%
X155425000Y-53300000D02*
X155425000Y-54776700D01*
X159478200Y-58829900D02*
X155425000Y-54776700D01*
X159478200Y-63836000D02*
X159478200Y-58829900D01*
%TO.N,VCO2FMPot1*%
X157965000Y-54776700D02*
X160544500Y-57356200D01*
X157965000Y-53300000D02*
X157965000Y-54776700D01*
X164275000Y-113250000D02*
X164275000Y-111723300D01*
X160544600Y-107992900D02*
X164275000Y-111723300D01*
X160544500Y-57356200D02*
X160544500Y-107992900D01*
X160544500Y-107992900D02*
X160544600Y-107992900D01*
%TO.N,VCO2FMPot2*%
X165801700Y-112090400D02*
X165801700Y-114490100D01*
X161426900Y-55698600D02*
X161426900Y-107715600D01*
X165801700Y-114490100D02*
X164541800Y-115750000D01*
X160505000Y-53300000D02*
X160505000Y-54776700D01*
X161426900Y-107715600D02*
X165801700Y-112090400D01*
X160505000Y-54776700D02*
X161426900Y-55698600D01*
X164541800Y-115750000D02*
X164275000Y-115750000D01*
%TO.N,VCO2FMPot3*%
X166553400Y-107683200D02*
X162748300Y-103878100D01*
X164275000Y-118250000D02*
X166553400Y-115971600D01*
X163045000Y-53300000D02*
X163045000Y-54776700D01*
X162748300Y-103878100D02*
X162748300Y-55073400D01*
X162748300Y-55073400D02*
X163045000Y-54776700D01*
X166553400Y-115971600D02*
X166553400Y-107683200D01*
%TO.N,VCO2PwmPot1*%
X165801700Y-54993400D02*
X165585000Y-54776700D01*
X164275000Y-95700000D02*
X164275000Y-94173300D01*
X165585000Y-53300000D02*
X165585000Y-54776700D01*
X164275000Y-94173300D02*
X165801700Y-92646600D01*
X165801700Y-92646600D02*
X165801700Y-54993400D01*
%TO.N,VCO2PwmPot2*%
X167306600Y-95354700D02*
X167306600Y-55595100D01*
X164461300Y-98200000D02*
X167306600Y-95354700D01*
X164275000Y-98200000D02*
X164461300Y-98200000D01*
X168125000Y-53300000D02*
X168125000Y-54776700D01*
X167306600Y-55595100D02*
X168125000Y-54776700D01*
%TO.N,VCO2PwmPot3*%
X164275000Y-100700000D02*
X168151400Y-96823600D01*
X168151400Y-96823600D02*
X168151400Y-57290300D01*
X170665000Y-53300000D02*
X170665000Y-54776700D01*
X168151400Y-57290300D02*
X170665000Y-54776700D01*
%TO.N,SW2p1*%
X169008000Y-135158000D02*
X169008000Y-66593700D01*
X169008000Y-66593700D02*
X180825000Y-54776700D01*
X172000000Y-138150000D02*
X169008000Y-135158000D01*
X180825000Y-53300000D02*
X180825000Y-54776700D01*
%TO.N,SW2p2*%
X183365000Y-114176100D02*
X183365000Y-53300000D01*
X169772200Y-127768900D02*
X183365000Y-114176100D01*
X169772200Y-131222200D02*
X169772200Y-127768900D01*
X172000000Y-133450000D02*
X169772200Y-131222200D01*
%TO.N,SW2p3*%
X172000000Y-128750000D02*
X183375000Y-140125000D01*
X183375000Y-140125000D02*
X183375000Y-147700000D01*
%TO.N,VCO3PwmPot1*%
X157975000Y-131298800D02*
X157975000Y-147700000D01*
X131098600Y-104422400D02*
X157975000Y-131298800D01*
X130791300Y-104422400D02*
X131098600Y-104422400D01*
%TO.N,VCO3PwmPot2*%
X130791300Y-107210200D02*
X130791300Y-110285900D01*
X130791300Y-110285900D02*
X155435000Y-134929600D01*
X155435000Y-134929600D02*
X155435000Y-147700000D01*
%TO.N,VCO3PwmPot3*%
X113275000Y-103500000D02*
X116932700Y-107157700D01*
X116932700Y-123905700D02*
X121734900Y-128707900D01*
X116932700Y-107157700D02*
X116932700Y-123905700D01*
%TO.N,VCO3WaveMixPot1*%
X150355000Y-133299900D02*
X150355000Y-147700000D01*
X133555100Y-116500000D02*
X150355000Y-133299900D01*
X130275000Y-116500000D02*
X133555100Y-116500000D01*
%TO.N,VCO3WaveMixPot2*%
X132419700Y-121544100D02*
X147815000Y-136939400D01*
X132419700Y-121144700D02*
X132419700Y-121544100D01*
X147815000Y-136939400D02*
X147815000Y-147700000D01*
X130275000Y-119000000D02*
X132419700Y-121144700D01*
%TO.N,VCO3WaveMixPot3*%
X130275000Y-121500000D02*
X145275000Y-136500000D01*
X145275000Y-136500000D02*
X145275000Y-147700000D01*
%TO.N,cvIn1*%
X128902300Y-83889800D02*
X121592500Y-76580000D01*
X128902300Y-111328300D02*
X128902300Y-83889800D01*
X142735000Y-147700000D02*
X142735000Y-140860900D01*
X142735000Y-140860900D02*
X128747300Y-126873200D01*
X128747300Y-111483300D02*
X128902300Y-111328300D01*
X128747300Y-126873200D02*
X128747300Y-111483300D01*
%TO.N,cvIn2*%
X188000000Y-76130000D02*
X184851700Y-79278300D01*
X184851700Y-79278300D02*
X184851700Y-148813900D01*
X184851700Y-148813900D02*
X184488900Y-149176700D01*
X141671700Y-149176700D02*
X140195000Y-147700000D01*
X184488900Y-149176700D02*
X141671700Y-149176700D01*
%TO.N,fmIn1*%
X128129300Y-86994300D02*
X127960100Y-86825100D01*
X127995600Y-127184600D02*
X127995600Y-108722000D01*
X127995600Y-108722000D02*
X128129300Y-108588300D01*
X128129300Y-108588300D02*
X128129300Y-86994300D01*
X135115000Y-134304000D02*
X127995600Y-127184600D01*
X135115000Y-147700000D02*
X135115000Y-134304000D01*
%TO.N,fmIn2*%
X132575000Y-132835800D02*
X127202600Y-127463400D01*
X127202600Y-127463400D02*
X127202600Y-108204400D01*
X132575000Y-146223300D02*
X132575000Y-132835800D01*
X132575000Y-147700000D02*
X132575000Y-146223300D01*
%TO.N,pwmIn*%
X125932200Y-128588900D02*
X125932200Y-106733300D01*
X127495000Y-147700000D02*
X127495000Y-146223300D01*
X127495000Y-146223300D02*
X128133200Y-145585100D01*
X128133200Y-145585100D02*
X128133200Y-130789900D01*
X128133200Y-130789900D02*
X125932200Y-128588900D01*
%TO.N,vcoOut1*%
X127446900Y-84460700D02*
X125000300Y-86907300D01*
X125000300Y-129796800D02*
X127378400Y-132174900D01*
X125000300Y-86907300D02*
X125000300Y-129796800D01*
X127378400Y-143799900D02*
X124955000Y-146223300D01*
X127378400Y-132174900D02*
X127378400Y-143799900D01*
X124955000Y-147700000D02*
X124955000Y-146223300D01*
%TO.N,mixOut*%
X120703100Y-146223300D02*
X119875000Y-146223300D01*
X126419700Y-133043500D02*
X126419700Y-140506700D01*
X126419700Y-140506700D02*
X120703100Y-146223300D01*
X119875000Y-147700000D02*
X119875000Y-146223300D01*
%TO.N,Ground*%
X186012800Y-108343900D02*
X186012800Y-120319400D01*
X121592500Y-87980000D02*
X121592500Y-89656700D01*
X186012800Y-120319400D02*
X187923400Y-122230000D01*
X188000000Y-122230000D02*
X188000000Y-123906700D01*
X103500000Y-143480000D02*
X103500000Y-145156700D01*
X103568400Y-145156700D02*
X103500000Y-145156700D01*
X123077100Y-140985300D02*
X120582400Y-143480000D01*
X188000000Y-139980000D02*
X188089200Y-139980000D01*
X123077100Y-135241300D02*
X125401600Y-135241300D01*
X120582400Y-143480000D02*
X120500000Y-143480000D01*
X123077100Y-135241300D02*
X123077100Y-140985300D01*
X188001800Y-104680000D02*
X189929200Y-102752600D01*
X188000000Y-104680000D02*
X188000000Y-106356700D01*
X189929200Y-102752600D02*
X189929200Y-91135900D01*
X188089200Y-139980000D02*
X189937600Y-138131600D01*
X121592500Y-89656700D02*
X123077100Y-91141300D01*
X188000000Y-104680000D02*
X188001800Y-104680000D01*
X104635000Y-146223300D02*
X103568400Y-145156700D01*
X187923400Y-122230000D02*
X188000000Y-122230000D01*
X188000000Y-87530000D02*
X188000000Y-89206700D01*
X188000000Y-106356700D02*
X186012800Y-108343900D01*
X189937600Y-125844300D02*
X188000000Y-123906700D01*
X189929200Y-91135900D02*
X188000000Y-89206700D01*
X189937600Y-138131600D02*
X189937600Y-125844300D01*
X123077100Y-91141300D02*
X123077100Y-135241300D01*
X104635000Y-147700000D02*
X104635000Y-146223300D01*
%TD*%
M02*
