M48
; DRILL file {KiCad 7.0.9} date Fri May 31 23:58:38 2024
; FORMAT={-:-/ absolute / inch / decimal}
; #@! TF.CreationDate,2024-05-31T23:58:38+01:00
; #@! TF.GenerationSoftware,Kicad,Pcbnew,7.0.9
; #@! TF.FileFunction,Plated,1,2,PTH
FMAT,2
INCH
; #@! TA.AperFunction,Plated,PTH,ViaDrill
T1C0.0118
; #@! TA.AperFunction,Plated,PTH,ComponentDrill
T2C0.0236
; #@! TA.AperFunction,Plated,PTH,ComponentDrill
T3C0.0394
; #@! TA.AperFunction,Plated,PTH,ComponentDrill
T4C0.0433
; #@! TA.AperFunction,Plated,PTH,ComponentDrill
T5C0.0728
%
G90
G05
T1
X4.7927Y-5.0672
X4.9371Y-5.3245
X4.958Y-4.2021
X4.9772Y-5.2379
X5.008Y-4.26
X5.0176Y-3.3252
X5.0378Y-3.4183
X5.1493Y-4.1111
X5.1493Y-4.2209
X6.2062Y-2.3482
X6.2787Y-2.5132
T3
X3.7867Y-2.4181
X3.7867Y-2.5165
X3.7867Y-2.615
X3.7867Y-3.1102
X3.7867Y-3.2087
X3.7867Y-3.3071
X3.7904Y-3.878
X3.7904Y-3.9764
X3.7904Y-4.0748
X3.7904Y-4.5866
X3.7904Y-4.685
X3.7904Y-4.7835
X4.1191Y-2.0984
X4.1195Y-5.815
X4.2191Y-2.0984
X4.2195Y-5.815
X4.3191Y-2.0984
X4.3195Y-5.815
X4.4191Y-2.0984
X4.4195Y-5.815
X4.4596Y-3.878
X4.4596Y-3.9764
X4.4596Y-4.0748
X4.4596Y-4.5866
X4.4596Y-4.685
X4.4596Y-4.7835
X4.499Y-2.4181
X4.499Y-2.5165
X4.499Y-2.615
X4.5191Y-2.0984
X4.5195Y-5.815
X4.6191Y-2.0984
X4.6195Y-5.815
X4.7191Y-2.0984
X4.7195Y-5.815
X4.8191Y-2.0984
X4.8195Y-5.815
X4.9191Y-2.0984
X4.9195Y-5.815
X5.0191Y-2.0984
X5.0195Y-5.815
X5.1191Y-2.0984
X5.1195Y-5.815
X5.1289Y-4.5866
X5.1289Y-4.685
X5.1289Y-4.7835
X5.2191Y-2.0984
X5.2195Y-5.815
X5.247Y-2.4213
X5.247Y-2.5197
X5.247Y-2.6181
X5.3191Y-2.0984
X5.3195Y-5.815
X5.4191Y-2.0984
X5.4195Y-5.815
X5.5191Y-2.0984
X5.5195Y-5.815
X5.6191Y-2.0984
X5.6195Y-5.815
X5.7191Y-2.0984
X5.7195Y-5.815
X5.8191Y-2.0984
X5.8195Y-5.815
X5.9191Y-2.0984
X5.9195Y-5.815
X6.0191Y-2.0984
X6.0195Y-5.815
X6.1191Y-2.0984
X6.1195Y-5.815
X6.2191Y-2.0984
X6.2195Y-5.815
X6.3191Y-2.0984
X6.3195Y-5.815
X6.4191Y-2.0984
X6.4195Y-5.815
X6.4675Y-2.4213
X6.4675Y-2.5197
X6.4675Y-2.6181
X6.4675Y-3.0846
X6.4675Y-3.1831
X6.4675Y-3.2815
X6.4675Y-3.7677
X6.4675Y-3.8661
X6.4675Y-3.9646
X6.4675Y-4.4587
X6.4675Y-4.5571
X6.4675Y-4.6555
X6.5191Y-2.0984
X6.5195Y-5.815
X6.6191Y-2.0984
X6.6195Y-5.815
X6.7191Y-2.0984
X6.7195Y-5.815
X6.8191Y-2.0984
X6.8195Y-5.815
X6.9191Y-2.0984
X6.9195Y-5.815
X7.0191Y-2.0984
X7.0195Y-5.815
X7.1171Y-2.4213
X7.1171Y-2.5197
X7.1171Y-2.6181
X7.1191Y-2.0984
X7.1195Y-5.815
X7.2191Y-2.0984
X7.2195Y-5.815
T5
X6.1024Y-2.3346
X6.1024Y-2.5197
X6.1024Y-2.7047
X6.7717Y-5.0689
X6.7717Y-5.2539
X6.7717Y-5.439
T2
G00X4.0551Y-5.2
M15
G01X4.0945Y-5.2
M16
G05
G00X4.0551Y-5.5268
M15
G01X4.0945Y-5.5268
M16
G05
G00X4.0551Y-5.6488
M15
G01X4.0945Y-5.6488
M16
G05
G00X4.7244Y-5.2
M15
G01X4.7638Y-5.2
M16
G05
G00X4.7244Y-5.5268
M15
G01X4.7638Y-5.5268
M16
G05
G00X4.7244Y-5.6488
M15
G01X4.7638Y-5.6488
M16
G05
G00X4.7674Y-3.015
M15
G01X4.8068Y-3.015
M16
G05
G00X4.7674Y-3.3417
M15
G01X4.8068Y-3.3417
M16
G05
G00X4.7674Y-3.4638
M15
G01X4.8068Y-3.4638
M16
G05
G00X5.3937Y-5.2
M15
G01X5.4331Y-5.2
M16
G05
G00X5.3937Y-5.5268
M15
G01X5.4331Y-5.5268
M16
G05
G00X5.3937Y-5.6488
M15
G01X5.4331Y-5.6488
M16
G05
G00X5.5155Y-3.0181
M15
G01X5.5548Y-3.0181
M16
G05
G00X5.5155Y-3.3449
M15
G01X5.5548Y-3.3449
M16
G05
G00X5.5155Y-3.4669
M15
G01X5.5548Y-3.4669
M16
G05
G00X6.0827Y-3.0186
M15
G01X6.122Y-3.0186
M16
G05
G00X6.0827Y-3.3454
M15
G01X6.122Y-3.3454
M16
G05
G00X6.0827Y-3.4674
M15
G01X6.122Y-3.4674
M16
G05
G00X7.3819Y-2.9972
M15
G01X7.4213Y-2.9972
M16
G05
G00X7.3819Y-3.324
M15
G01X7.4213Y-3.324
M16
G05
G00X7.3819Y-3.4461
M15
G01X7.4213Y-3.4461
M16
G05
G00X7.3819Y-3.6724
M15
G01X7.4213Y-3.6724
M16
G05
G00X7.3819Y-3.9992
M15
G01X7.4213Y-3.9992
M16
G05
G00X7.3819Y-4.1213
M15
G01X7.4213Y-4.1213
M16
G05
G00X7.3819Y-4.3634
M15
G01X7.4213Y-4.3634
M16
G05
G00X7.3819Y-4.6902
M15
G01X7.4213Y-4.6902
M16
G05
G00X7.3819Y-4.8122
M15
G01X7.4213Y-4.8122
M16
G05
G00X7.3819Y-5.0622
M15
G01X7.4213Y-5.0622
M16
G05
G00X7.3819Y-5.389
M15
G01X7.4213Y-5.389
M16
G05
G00X7.3819Y-5.511
M15
G01X7.4213Y-5.511
M16
G05
T4
G00X4.0682Y-2.3276
M15
G01X4.0958Y-2.3276
M16
G05
G00X4.0682Y-2.7055
M15
G01X4.0958Y-2.7055
M16
G05
G00X4.0682Y-3.0197
M15
G01X4.0958Y-3.0197
M16
G05
G00X4.0682Y-3.3976
M15
G01X4.0958Y-3.3976
M16
G05
G00X4.0719Y-3.7874
M15
G01X4.0994Y-3.7874
M16
G05
G00X4.0719Y-4.1654
M15
G01X4.0994Y-4.1654
M16
G05
G00X4.0719Y-4.4961
M15
G01X4.0994Y-4.4961
M16
G05
G00X4.0719Y-4.874
M15
G01X4.0994Y-4.874
M16
G05
G00X4.7411Y-3.7874
M15
G01X4.7687Y-3.7874
M16
G05
G00X4.7411Y-4.1654
M15
G01X4.7687Y-4.1654
M16
G05
G00X4.7411Y-4.4961
M15
G01X4.7687Y-4.4961
M16
G05
G00X4.7411Y-4.874
M15
G01X4.7687Y-4.874
M16
G05
G00X4.7805Y-2.3276
M15
G01X4.8081Y-2.3276
M16
G05
G00X4.7805Y-2.7055
M15
G01X4.8081Y-2.7055
M16
G05
G00X5.4104Y-4.4961
M15
G01X5.438Y-4.4961
M16
G05
G00X5.4104Y-4.874
M15
G01X5.438Y-4.874
M16
G05
G00X5.5285Y-2.3307
M15
G01X5.5561Y-2.3307
M16
G05
G00X5.5285Y-2.7087
M15
G01X5.5561Y-2.7087
M16
G05
G00X6.749Y-2.3307
M15
G01X6.7766Y-2.3307
M16
G05
G00X6.749Y-2.7087
M15
G01X6.7766Y-2.7087
M16
G05
G00X6.749Y-2.9941
M15
G01X6.7766Y-2.9941
M16
G05
G00X6.749Y-3.372
M15
G01X6.7766Y-3.372
M16
G05
G00X6.749Y-3.6772
M15
G01X6.7766Y-3.6772
M16
G05
G00X6.749Y-4.0551
M15
G01X6.7766Y-4.0551
M16
G05
G00X6.749Y-4.3681
M15
G01X6.7766Y-4.3681
M16
G05
G00X6.749Y-4.7461
M15
G01X6.7766Y-4.7461
M16
G05
G00X7.3986Y-2.3307
M15
G01X7.4262Y-2.3307
M16
G05
G00X7.3986Y-2.7087
M15
G01X7.4262Y-2.7087
M16
G05
T0
M30
