%TF.GenerationSoftware,KiCad,Pcbnew,7.0.9*%
%TF.CreationDate,2024-05-31T23:58:34+01:00*%
%TF.ProjectId,VCO PANEL,56434f20-5041-44e4-954c-2e6b69636164,rev?*%
%TF.SameCoordinates,Original*%
%TF.FileFunction,Legend,Top*%
%TF.FilePolarity,Positive*%
%FSLAX46Y46*%
G04 Gerber Fmt 4.6, Leading zero omitted, Abs format (unit mm)*
G04 Created by KiCad (PCBNEW 7.0.9) date 2024-05-31 23:58:34*
%MOMM*%
%LPD*%
G01*
G04 APERTURE LIST*
%ADD10C,0.150000*%
%ADD11C,0.100000*%
%ADD12C,0.120000*%
%ADD13C,0.200000*%
G04 APERTURE END LIST*
D10*
X101749819Y-53633333D02*
X102464104Y-53633333D01*
X102464104Y-53633333D02*
X102606961Y-53680952D01*
X102606961Y-53680952D02*
X102702200Y-53776190D01*
X102702200Y-53776190D02*
X102749819Y-53919047D01*
X102749819Y-53919047D02*
X102749819Y-54014285D01*
X102749819Y-52633333D02*
X102749819Y-53204761D01*
X102749819Y-52919047D02*
X101749819Y-52919047D01*
X101749819Y-52919047D02*
X101892676Y-53014285D01*
X101892676Y-53014285D02*
X101987914Y-53109523D01*
X101987914Y-53109523D02*
X102035533Y-53204761D01*
X185066666Y-108404819D02*
X185066666Y-109119104D01*
X185066666Y-109119104D02*
X185019047Y-109261961D01*
X185019047Y-109261961D02*
X184923809Y-109357200D01*
X184923809Y-109357200D02*
X184780952Y-109404819D01*
X184780952Y-109404819D02*
X184685714Y-109404819D01*
X186019047Y-108404819D02*
X185542857Y-108404819D01*
X185542857Y-108404819D02*
X185495238Y-108881009D01*
X185495238Y-108881009D02*
X185542857Y-108833390D01*
X185542857Y-108833390D02*
X185638095Y-108785771D01*
X185638095Y-108785771D02*
X185876190Y-108785771D01*
X185876190Y-108785771D02*
X185971428Y-108833390D01*
X185971428Y-108833390D02*
X186019047Y-108881009D01*
X186019047Y-108881009D02*
X186066666Y-108976247D01*
X186066666Y-108976247D02*
X186066666Y-109214342D01*
X186066666Y-109214342D02*
X186019047Y-109309580D01*
X186019047Y-109309580D02*
X185971428Y-109357200D01*
X185971428Y-109357200D02*
X185876190Y-109404819D01*
X185876190Y-109404819D02*
X185638095Y-109404819D01*
X185638095Y-109404819D02*
X185542857Y-109357200D01*
X185542857Y-109357200D02*
X185495238Y-109309580D01*
X186889761Y-57314819D02*
X186556428Y-56838628D01*
X186318333Y-57314819D02*
X186318333Y-56314819D01*
X186318333Y-56314819D02*
X186699285Y-56314819D01*
X186699285Y-56314819D02*
X186794523Y-56362438D01*
X186794523Y-56362438D02*
X186842142Y-56410057D01*
X186842142Y-56410057D02*
X186889761Y-56505295D01*
X186889761Y-56505295D02*
X186889761Y-56648152D01*
X186889761Y-56648152D02*
X186842142Y-56743390D01*
X186842142Y-56743390D02*
X186794523Y-56791009D01*
X186794523Y-56791009D02*
X186699285Y-56838628D01*
X186699285Y-56838628D02*
X186318333Y-56838628D01*
X187175476Y-56314819D02*
X187508809Y-57314819D01*
X187508809Y-57314819D02*
X187842142Y-56314819D01*
X188223095Y-57314819D02*
X188413571Y-57314819D01*
X188413571Y-57314819D02*
X188508809Y-57267200D01*
X188508809Y-57267200D02*
X188556428Y-57219580D01*
X188556428Y-57219580D02*
X188651666Y-57076723D01*
X188651666Y-57076723D02*
X188699285Y-56886247D01*
X188699285Y-56886247D02*
X188699285Y-56505295D01*
X188699285Y-56505295D02*
X188651666Y-56410057D01*
X188651666Y-56410057D02*
X188604047Y-56362438D01*
X188604047Y-56362438D02*
X188508809Y-56314819D01*
X188508809Y-56314819D02*
X188318333Y-56314819D01*
X188318333Y-56314819D02*
X188223095Y-56362438D01*
X188223095Y-56362438D02*
X188175476Y-56410057D01*
X188175476Y-56410057D02*
X188127857Y-56505295D01*
X188127857Y-56505295D02*
X188127857Y-56743390D01*
X188127857Y-56743390D02*
X188175476Y-56838628D01*
X188175476Y-56838628D02*
X188223095Y-56886247D01*
X188223095Y-56886247D02*
X188318333Y-56933866D01*
X188318333Y-56933866D02*
X188508809Y-56933866D01*
X188508809Y-56933866D02*
X188604047Y-56886247D01*
X188604047Y-56886247D02*
X188651666Y-56838628D01*
X188651666Y-56838628D02*
X188699285Y-56743390D01*
X151590476Y-74247419D02*
X151590476Y-74961704D01*
X151590476Y-74961704D02*
X151542857Y-75104561D01*
X151542857Y-75104561D02*
X151447619Y-75199800D01*
X151447619Y-75199800D02*
X151304762Y-75247419D01*
X151304762Y-75247419D02*
X151209524Y-75247419D01*
X152590476Y-75247419D02*
X152019048Y-75247419D01*
X152304762Y-75247419D02*
X152304762Y-74247419D01*
X152304762Y-74247419D02*
X152209524Y-74390276D01*
X152209524Y-74390276D02*
X152114286Y-74485514D01*
X152114286Y-74485514D02*
X152019048Y-74533133D01*
X153542857Y-75247419D02*
X152971429Y-75247419D01*
X153257143Y-75247419D02*
X153257143Y-74247419D01*
X153257143Y-74247419D02*
X153161905Y-74390276D01*
X153161905Y-74390276D02*
X153066667Y-74485514D01*
X153066667Y-74485514D02*
X152971429Y-74533133D01*
X120389761Y-57234819D02*
X120056428Y-56758628D01*
X119818333Y-57234819D02*
X119818333Y-56234819D01*
X119818333Y-56234819D02*
X120199285Y-56234819D01*
X120199285Y-56234819D02*
X120294523Y-56282438D01*
X120294523Y-56282438D02*
X120342142Y-56330057D01*
X120342142Y-56330057D02*
X120389761Y-56425295D01*
X120389761Y-56425295D02*
X120389761Y-56568152D01*
X120389761Y-56568152D02*
X120342142Y-56663390D01*
X120342142Y-56663390D02*
X120294523Y-56711009D01*
X120294523Y-56711009D02*
X120199285Y-56758628D01*
X120199285Y-56758628D02*
X119818333Y-56758628D01*
X120675476Y-56234819D02*
X121008809Y-57234819D01*
X121008809Y-57234819D02*
X121342142Y-56234819D01*
X122104047Y-56568152D02*
X122104047Y-57234819D01*
X121865952Y-56187200D02*
X121627857Y-56901485D01*
X121627857Y-56901485D02*
X122246904Y-56901485D01*
X170389761Y-91514819D02*
X170056428Y-91038628D01*
X169818333Y-91514819D02*
X169818333Y-90514819D01*
X169818333Y-90514819D02*
X170199285Y-90514819D01*
X170199285Y-90514819D02*
X170294523Y-90562438D01*
X170294523Y-90562438D02*
X170342142Y-90610057D01*
X170342142Y-90610057D02*
X170389761Y-90705295D01*
X170389761Y-90705295D02*
X170389761Y-90848152D01*
X170389761Y-90848152D02*
X170342142Y-90943390D01*
X170342142Y-90943390D02*
X170294523Y-90991009D01*
X170294523Y-90991009D02*
X170199285Y-91038628D01*
X170199285Y-91038628D02*
X169818333Y-91038628D01*
X170675476Y-90514819D02*
X171008809Y-91514819D01*
X171008809Y-91514819D02*
X171342142Y-90514819D01*
X171818333Y-90943390D02*
X171723095Y-90895771D01*
X171723095Y-90895771D02*
X171675476Y-90848152D01*
X171675476Y-90848152D02*
X171627857Y-90752914D01*
X171627857Y-90752914D02*
X171627857Y-90705295D01*
X171627857Y-90705295D02*
X171675476Y-90610057D01*
X171675476Y-90610057D02*
X171723095Y-90562438D01*
X171723095Y-90562438D02*
X171818333Y-90514819D01*
X171818333Y-90514819D02*
X172008809Y-90514819D01*
X172008809Y-90514819D02*
X172104047Y-90562438D01*
X172104047Y-90562438D02*
X172151666Y-90610057D01*
X172151666Y-90610057D02*
X172199285Y-90705295D01*
X172199285Y-90705295D02*
X172199285Y-90752914D01*
X172199285Y-90752914D02*
X172151666Y-90848152D01*
X172151666Y-90848152D02*
X172104047Y-90895771D01*
X172104047Y-90895771D02*
X172008809Y-90943390D01*
X172008809Y-90943390D02*
X171818333Y-90943390D01*
X171818333Y-90943390D02*
X171723095Y-90991009D01*
X171723095Y-90991009D02*
X171675476Y-91038628D01*
X171675476Y-91038628D02*
X171627857Y-91133866D01*
X171627857Y-91133866D02*
X171627857Y-91324342D01*
X171627857Y-91324342D02*
X171675476Y-91419580D01*
X171675476Y-91419580D02*
X171723095Y-91467200D01*
X171723095Y-91467200D02*
X171818333Y-91514819D01*
X171818333Y-91514819D02*
X172008809Y-91514819D01*
X172008809Y-91514819D02*
X172104047Y-91467200D01*
X172104047Y-91467200D02*
X172151666Y-91419580D01*
X172151666Y-91419580D02*
X172199285Y-91324342D01*
X172199285Y-91324342D02*
X172199285Y-91133866D01*
X172199285Y-91133866D02*
X172151666Y-91038628D01*
X172151666Y-91038628D02*
X172104047Y-90991009D01*
X172104047Y-90991009D02*
X172008809Y-90943390D01*
X117090476Y-129654819D02*
X117090476Y-130369104D01*
X117090476Y-130369104D02*
X117042857Y-130511961D01*
X117042857Y-130511961D02*
X116947619Y-130607200D01*
X116947619Y-130607200D02*
X116804762Y-130654819D01*
X116804762Y-130654819D02*
X116709524Y-130654819D01*
X118090476Y-130654819D02*
X117519048Y-130654819D01*
X117804762Y-130654819D02*
X117804762Y-129654819D01*
X117804762Y-129654819D02*
X117709524Y-129797676D01*
X117709524Y-129797676D02*
X117614286Y-129892914D01*
X117614286Y-129892914D02*
X117519048Y-129940533D01*
X118709524Y-129654819D02*
X118804762Y-129654819D01*
X118804762Y-129654819D02*
X118900000Y-129702438D01*
X118900000Y-129702438D02*
X118947619Y-129750057D01*
X118947619Y-129750057D02*
X118995238Y-129845295D01*
X118995238Y-129845295D02*
X119042857Y-130035771D01*
X119042857Y-130035771D02*
X119042857Y-130273866D01*
X119042857Y-130273866D02*
X118995238Y-130464342D01*
X118995238Y-130464342D02*
X118947619Y-130559580D01*
X118947619Y-130559580D02*
X118900000Y-130607200D01*
X118900000Y-130607200D02*
X118804762Y-130654819D01*
X118804762Y-130654819D02*
X118709524Y-130654819D01*
X118709524Y-130654819D02*
X118614286Y-130607200D01*
X118614286Y-130607200D02*
X118566667Y-130559580D01*
X118566667Y-130559580D02*
X118519048Y-130464342D01*
X118519048Y-130464342D02*
X118471429Y-130273866D01*
X118471429Y-130273866D02*
X118471429Y-130035771D01*
X118471429Y-130035771D02*
X118519048Y-129845295D01*
X118519048Y-129845295D02*
X118566667Y-129750057D01*
X118566667Y-129750057D02*
X118614286Y-129702438D01*
X118614286Y-129702438D02*
X118709524Y-129654819D01*
X102297261Y-74814819D02*
X101963928Y-74338628D01*
X101725833Y-74814819D02*
X101725833Y-73814819D01*
X101725833Y-73814819D02*
X102106785Y-73814819D01*
X102106785Y-73814819D02*
X102202023Y-73862438D01*
X102202023Y-73862438D02*
X102249642Y-73910057D01*
X102249642Y-73910057D02*
X102297261Y-74005295D01*
X102297261Y-74005295D02*
X102297261Y-74148152D01*
X102297261Y-74148152D02*
X102249642Y-74243390D01*
X102249642Y-74243390D02*
X102202023Y-74291009D01*
X102202023Y-74291009D02*
X102106785Y-74338628D01*
X102106785Y-74338628D02*
X101725833Y-74338628D01*
X102582976Y-73814819D02*
X102916309Y-74814819D01*
X102916309Y-74814819D02*
X103249642Y-73814819D01*
X103535357Y-73910057D02*
X103582976Y-73862438D01*
X103582976Y-73862438D02*
X103678214Y-73814819D01*
X103678214Y-73814819D02*
X103916309Y-73814819D01*
X103916309Y-73814819D02*
X104011547Y-73862438D01*
X104011547Y-73862438D02*
X104059166Y-73910057D01*
X104059166Y-73910057D02*
X104106785Y-74005295D01*
X104106785Y-74005295D02*
X104106785Y-74100533D01*
X104106785Y-74100533D02*
X104059166Y-74243390D01*
X104059166Y-74243390D02*
X103487738Y-74814819D01*
X103487738Y-74814819D02*
X104106785Y-74814819D01*
D11*
X169409800Y-129833332D02*
X169457419Y-129690475D01*
X169457419Y-129690475D02*
X169457419Y-129452380D01*
X169457419Y-129452380D02*
X169409800Y-129357142D01*
X169409800Y-129357142D02*
X169362180Y-129309523D01*
X169362180Y-129309523D02*
X169266942Y-129261904D01*
X169266942Y-129261904D02*
X169171704Y-129261904D01*
X169171704Y-129261904D02*
X169076466Y-129309523D01*
X169076466Y-129309523D02*
X169028847Y-129357142D01*
X169028847Y-129357142D02*
X168981228Y-129452380D01*
X168981228Y-129452380D02*
X168933609Y-129642856D01*
X168933609Y-129642856D02*
X168885990Y-129738094D01*
X168885990Y-129738094D02*
X168838371Y-129785713D01*
X168838371Y-129785713D02*
X168743133Y-129833332D01*
X168743133Y-129833332D02*
X168647895Y-129833332D01*
X168647895Y-129833332D02*
X168552657Y-129785713D01*
X168552657Y-129785713D02*
X168505038Y-129738094D01*
X168505038Y-129738094D02*
X168457419Y-129642856D01*
X168457419Y-129642856D02*
X168457419Y-129404761D01*
X168457419Y-129404761D02*
X168505038Y-129261904D01*
X168457419Y-128928570D02*
X169457419Y-128690475D01*
X169457419Y-128690475D02*
X168743133Y-128499999D01*
X168743133Y-128499999D02*
X169457419Y-128309523D01*
X169457419Y-128309523D02*
X168457419Y-128071428D01*
X168552657Y-127738094D02*
X168505038Y-127690475D01*
X168505038Y-127690475D02*
X168457419Y-127595237D01*
X168457419Y-127595237D02*
X168457419Y-127357142D01*
X168457419Y-127357142D02*
X168505038Y-127261904D01*
X168505038Y-127261904D02*
X168552657Y-127214285D01*
X168552657Y-127214285D02*
X168647895Y-127166666D01*
X168647895Y-127166666D02*
X168743133Y-127166666D01*
X168743133Y-127166666D02*
X168885990Y-127214285D01*
X168885990Y-127214285D02*
X169457419Y-127785713D01*
X169457419Y-127785713D02*
X169457419Y-127166666D01*
D10*
X139389761Y-57314819D02*
X139056428Y-56838628D01*
X138818333Y-57314819D02*
X138818333Y-56314819D01*
X138818333Y-56314819D02*
X139199285Y-56314819D01*
X139199285Y-56314819D02*
X139294523Y-56362438D01*
X139294523Y-56362438D02*
X139342142Y-56410057D01*
X139342142Y-56410057D02*
X139389761Y-56505295D01*
X139389761Y-56505295D02*
X139389761Y-56648152D01*
X139389761Y-56648152D02*
X139342142Y-56743390D01*
X139342142Y-56743390D02*
X139294523Y-56791009D01*
X139294523Y-56791009D02*
X139199285Y-56838628D01*
X139199285Y-56838628D02*
X138818333Y-56838628D01*
X139675476Y-56314819D02*
X140008809Y-57314819D01*
X140008809Y-57314819D02*
X140342142Y-56314819D01*
X140580238Y-56314819D02*
X141199285Y-56314819D01*
X141199285Y-56314819D02*
X140865952Y-56695771D01*
X140865952Y-56695771D02*
X141008809Y-56695771D01*
X141008809Y-56695771D02*
X141104047Y-56743390D01*
X141104047Y-56743390D02*
X141151666Y-56791009D01*
X141151666Y-56791009D02*
X141199285Y-56886247D01*
X141199285Y-56886247D02*
X141199285Y-57124342D01*
X141199285Y-57124342D02*
X141151666Y-57219580D01*
X141151666Y-57219580D02*
X141104047Y-57267200D01*
X141104047Y-57267200D02*
X141008809Y-57314819D01*
X141008809Y-57314819D02*
X140723095Y-57314819D01*
X140723095Y-57314819D02*
X140627857Y-57267200D01*
X140627857Y-57267200D02*
X140580238Y-57219580D01*
X134090476Y-129654819D02*
X134090476Y-130369104D01*
X134090476Y-130369104D02*
X134042857Y-130511961D01*
X134042857Y-130511961D02*
X133947619Y-130607200D01*
X133947619Y-130607200D02*
X133804762Y-130654819D01*
X133804762Y-130654819D02*
X133709524Y-130654819D01*
X135090476Y-130654819D02*
X134519048Y-130654819D01*
X134804762Y-130654819D02*
X134804762Y-129654819D01*
X134804762Y-129654819D02*
X134709524Y-129797676D01*
X134709524Y-129797676D02*
X134614286Y-129892914D01*
X134614286Y-129892914D02*
X134519048Y-129940533D01*
X135471429Y-129750057D02*
X135519048Y-129702438D01*
X135519048Y-129702438D02*
X135614286Y-129654819D01*
X135614286Y-129654819D02*
X135852381Y-129654819D01*
X135852381Y-129654819D02*
X135947619Y-129702438D01*
X135947619Y-129702438D02*
X135995238Y-129750057D01*
X135995238Y-129750057D02*
X136042857Y-129845295D01*
X136042857Y-129845295D02*
X136042857Y-129940533D01*
X136042857Y-129940533D02*
X135995238Y-130083390D01*
X135995238Y-130083390D02*
X135423810Y-130654819D01*
X135423810Y-130654819D02*
X136042857Y-130654819D01*
X135913571Y-112314819D02*
X135580238Y-111838628D01*
X135342143Y-112314819D02*
X135342143Y-111314819D01*
X135342143Y-111314819D02*
X135723095Y-111314819D01*
X135723095Y-111314819D02*
X135818333Y-111362438D01*
X135818333Y-111362438D02*
X135865952Y-111410057D01*
X135865952Y-111410057D02*
X135913571Y-111505295D01*
X135913571Y-111505295D02*
X135913571Y-111648152D01*
X135913571Y-111648152D02*
X135865952Y-111743390D01*
X135865952Y-111743390D02*
X135818333Y-111791009D01*
X135818333Y-111791009D02*
X135723095Y-111838628D01*
X135723095Y-111838628D02*
X135342143Y-111838628D01*
X136199286Y-111314819D02*
X136532619Y-112314819D01*
X136532619Y-112314819D02*
X136865952Y-111314819D01*
X137723095Y-112314819D02*
X137151667Y-112314819D01*
X137437381Y-112314819D02*
X137437381Y-111314819D01*
X137437381Y-111314819D02*
X137342143Y-111457676D01*
X137342143Y-111457676D02*
X137246905Y-111552914D01*
X137246905Y-111552914D02*
X137151667Y-111600533D01*
X138056429Y-111314819D02*
X138675476Y-111314819D01*
X138675476Y-111314819D02*
X138342143Y-111695771D01*
X138342143Y-111695771D02*
X138485000Y-111695771D01*
X138485000Y-111695771D02*
X138580238Y-111743390D01*
X138580238Y-111743390D02*
X138627857Y-111791009D01*
X138627857Y-111791009D02*
X138675476Y-111886247D01*
X138675476Y-111886247D02*
X138675476Y-112124342D01*
X138675476Y-112124342D02*
X138627857Y-112219580D01*
X138627857Y-112219580D02*
X138580238Y-112267200D01*
X138580238Y-112267200D02*
X138485000Y-112314819D01*
X138485000Y-112314819D02*
X138199286Y-112314819D01*
X138199286Y-112314819D02*
X138104048Y-112267200D01*
X138104048Y-112267200D02*
X138056429Y-112219580D01*
X102297261Y-57234819D02*
X101963928Y-56758628D01*
X101725833Y-57234819D02*
X101725833Y-56234819D01*
X101725833Y-56234819D02*
X102106785Y-56234819D01*
X102106785Y-56234819D02*
X102202023Y-56282438D01*
X102202023Y-56282438D02*
X102249642Y-56330057D01*
X102249642Y-56330057D02*
X102297261Y-56425295D01*
X102297261Y-56425295D02*
X102297261Y-56568152D01*
X102297261Y-56568152D02*
X102249642Y-56663390D01*
X102249642Y-56663390D02*
X102202023Y-56711009D01*
X102202023Y-56711009D02*
X102106785Y-56758628D01*
X102106785Y-56758628D02*
X101725833Y-56758628D01*
X102582976Y-56234819D02*
X102916309Y-57234819D01*
X102916309Y-57234819D02*
X103249642Y-56234819D01*
X104106785Y-57234819D02*
X103535357Y-57234819D01*
X103821071Y-57234819D02*
X103821071Y-56234819D01*
X103821071Y-56234819D02*
X103725833Y-56377676D01*
X103725833Y-56377676D02*
X103630595Y-56472914D01*
X103630595Y-56472914D02*
X103535357Y-56520533D01*
X101913571Y-94314819D02*
X101580238Y-93838628D01*
X101342143Y-94314819D02*
X101342143Y-93314819D01*
X101342143Y-93314819D02*
X101723095Y-93314819D01*
X101723095Y-93314819D02*
X101818333Y-93362438D01*
X101818333Y-93362438D02*
X101865952Y-93410057D01*
X101865952Y-93410057D02*
X101913571Y-93505295D01*
X101913571Y-93505295D02*
X101913571Y-93648152D01*
X101913571Y-93648152D02*
X101865952Y-93743390D01*
X101865952Y-93743390D02*
X101818333Y-93791009D01*
X101818333Y-93791009D02*
X101723095Y-93838628D01*
X101723095Y-93838628D02*
X101342143Y-93838628D01*
X102199286Y-93314819D02*
X102532619Y-94314819D01*
X102532619Y-94314819D02*
X102865952Y-93314819D01*
X103723095Y-94314819D02*
X103151667Y-94314819D01*
X103437381Y-94314819D02*
X103437381Y-93314819D01*
X103437381Y-93314819D02*
X103342143Y-93457676D01*
X103342143Y-93457676D02*
X103246905Y-93552914D01*
X103246905Y-93552914D02*
X103151667Y-93600533D01*
X104342143Y-93314819D02*
X104437381Y-93314819D01*
X104437381Y-93314819D02*
X104532619Y-93362438D01*
X104532619Y-93362438D02*
X104580238Y-93410057D01*
X104580238Y-93410057D02*
X104627857Y-93505295D01*
X104627857Y-93505295D02*
X104675476Y-93695771D01*
X104675476Y-93695771D02*
X104675476Y-93933866D01*
X104675476Y-93933866D02*
X104627857Y-94124342D01*
X104627857Y-94124342D02*
X104580238Y-94219580D01*
X104580238Y-94219580D02*
X104532619Y-94267200D01*
X104532619Y-94267200D02*
X104437381Y-94314819D01*
X104437381Y-94314819D02*
X104342143Y-94314819D01*
X104342143Y-94314819D02*
X104246905Y-94267200D01*
X104246905Y-94267200D02*
X104199286Y-94219580D01*
X104199286Y-94219580D02*
X104151667Y-94124342D01*
X104151667Y-94124342D02*
X104104048Y-93933866D01*
X104104048Y-93933866D02*
X104104048Y-93695771D01*
X104104048Y-93695771D02*
X104151667Y-93505295D01*
X104151667Y-93505295D02*
X104199286Y-93410057D01*
X104199286Y-93410057D02*
X104246905Y-93362438D01*
X104246905Y-93362438D02*
X104342143Y-93314819D01*
X118913571Y-94314819D02*
X118580238Y-93838628D01*
X118342143Y-94314819D02*
X118342143Y-93314819D01*
X118342143Y-93314819D02*
X118723095Y-93314819D01*
X118723095Y-93314819D02*
X118818333Y-93362438D01*
X118818333Y-93362438D02*
X118865952Y-93410057D01*
X118865952Y-93410057D02*
X118913571Y-93505295D01*
X118913571Y-93505295D02*
X118913571Y-93648152D01*
X118913571Y-93648152D02*
X118865952Y-93743390D01*
X118865952Y-93743390D02*
X118818333Y-93791009D01*
X118818333Y-93791009D02*
X118723095Y-93838628D01*
X118723095Y-93838628D02*
X118342143Y-93838628D01*
X119199286Y-93314819D02*
X119532619Y-94314819D01*
X119532619Y-94314819D02*
X119865952Y-93314819D01*
X120723095Y-94314819D02*
X120151667Y-94314819D01*
X120437381Y-94314819D02*
X120437381Y-93314819D01*
X120437381Y-93314819D02*
X120342143Y-93457676D01*
X120342143Y-93457676D02*
X120246905Y-93552914D01*
X120246905Y-93552914D02*
X120151667Y-93600533D01*
X121580238Y-93648152D02*
X121580238Y-94314819D01*
X121342143Y-93267200D02*
X121104048Y-93981485D01*
X121104048Y-93981485D02*
X121723095Y-93981485D01*
X101913571Y-111314819D02*
X101580238Y-110838628D01*
X101342143Y-111314819D02*
X101342143Y-110314819D01*
X101342143Y-110314819D02*
X101723095Y-110314819D01*
X101723095Y-110314819D02*
X101818333Y-110362438D01*
X101818333Y-110362438D02*
X101865952Y-110410057D01*
X101865952Y-110410057D02*
X101913571Y-110505295D01*
X101913571Y-110505295D02*
X101913571Y-110648152D01*
X101913571Y-110648152D02*
X101865952Y-110743390D01*
X101865952Y-110743390D02*
X101818333Y-110791009D01*
X101818333Y-110791009D02*
X101723095Y-110838628D01*
X101723095Y-110838628D02*
X101342143Y-110838628D01*
X102199286Y-110314819D02*
X102532619Y-111314819D01*
X102532619Y-111314819D02*
X102865952Y-110314819D01*
X103723095Y-111314819D02*
X103151667Y-111314819D01*
X103437381Y-111314819D02*
X103437381Y-110314819D01*
X103437381Y-110314819D02*
X103342143Y-110457676D01*
X103342143Y-110457676D02*
X103246905Y-110552914D01*
X103246905Y-110552914D02*
X103151667Y-110600533D01*
X104675476Y-111314819D02*
X104104048Y-111314819D01*
X104389762Y-111314819D02*
X104389762Y-110314819D01*
X104389762Y-110314819D02*
X104294524Y-110457676D01*
X104294524Y-110457676D02*
X104199286Y-110552914D01*
X104199286Y-110552914D02*
X104104048Y-110600533D01*
X100566666Y-129654819D02*
X100566666Y-130369104D01*
X100566666Y-130369104D02*
X100519047Y-130511961D01*
X100519047Y-130511961D02*
X100423809Y-130607200D01*
X100423809Y-130607200D02*
X100280952Y-130654819D01*
X100280952Y-130654819D02*
X100185714Y-130654819D01*
X101471428Y-129988152D02*
X101471428Y-130654819D01*
X101233333Y-129607200D02*
X100995238Y-130321485D01*
X100995238Y-130321485D02*
X101614285Y-130321485D01*
X185159819Y-148033333D02*
X185874104Y-148033333D01*
X185874104Y-148033333D02*
X186016961Y-148080952D01*
X186016961Y-148080952D02*
X186112200Y-148176190D01*
X186112200Y-148176190D02*
X186159819Y-148319047D01*
X186159819Y-148319047D02*
X186159819Y-148414285D01*
X185255057Y-147604761D02*
X185207438Y-147557142D01*
X185207438Y-147557142D02*
X185159819Y-147461904D01*
X185159819Y-147461904D02*
X185159819Y-147223809D01*
X185159819Y-147223809D02*
X185207438Y-147128571D01*
X185207438Y-147128571D02*
X185255057Y-147080952D01*
X185255057Y-147080952D02*
X185350295Y-147033333D01*
X185350295Y-147033333D02*
X185445533Y-147033333D01*
X185445533Y-147033333D02*
X185588390Y-147080952D01*
X185588390Y-147080952D02*
X186159819Y-147652380D01*
X186159819Y-147652380D02*
X186159819Y-147033333D01*
X185066666Y-90854819D02*
X185066666Y-91569104D01*
X185066666Y-91569104D02*
X185019047Y-91711961D01*
X185019047Y-91711961D02*
X184923809Y-91807200D01*
X184923809Y-91807200D02*
X184780952Y-91854819D01*
X184780952Y-91854819D02*
X184685714Y-91854819D01*
X185971428Y-90854819D02*
X185780952Y-90854819D01*
X185780952Y-90854819D02*
X185685714Y-90902438D01*
X185685714Y-90902438D02*
X185638095Y-90950057D01*
X185638095Y-90950057D02*
X185542857Y-91092914D01*
X185542857Y-91092914D02*
X185495238Y-91283390D01*
X185495238Y-91283390D02*
X185495238Y-91664342D01*
X185495238Y-91664342D02*
X185542857Y-91759580D01*
X185542857Y-91759580D02*
X185590476Y-91807200D01*
X185590476Y-91807200D02*
X185685714Y-91854819D01*
X185685714Y-91854819D02*
X185876190Y-91854819D01*
X185876190Y-91854819D02*
X185971428Y-91807200D01*
X185971428Y-91807200D02*
X186019047Y-91759580D01*
X186019047Y-91759580D02*
X186066666Y-91664342D01*
X186066666Y-91664342D02*
X186066666Y-91426247D01*
X186066666Y-91426247D02*
X186019047Y-91331009D01*
X186019047Y-91331009D02*
X185971428Y-91283390D01*
X185971428Y-91283390D02*
X185876190Y-91235771D01*
X185876190Y-91235771D02*
X185685714Y-91235771D01*
X185685714Y-91235771D02*
X185590476Y-91283390D01*
X185590476Y-91283390D02*
X185542857Y-91331009D01*
X185542857Y-91331009D02*
X185495238Y-91426247D01*
X185066666Y-126154819D02*
X185066666Y-126869104D01*
X185066666Y-126869104D02*
X185019047Y-127011961D01*
X185019047Y-127011961D02*
X184923809Y-127107200D01*
X184923809Y-127107200D02*
X184780952Y-127154819D01*
X184780952Y-127154819D02*
X184685714Y-127154819D01*
X185447619Y-126154819D02*
X186114285Y-126154819D01*
X186114285Y-126154819D02*
X185685714Y-127154819D01*
X118913571Y-111314819D02*
X118580238Y-110838628D01*
X118342143Y-111314819D02*
X118342143Y-110314819D01*
X118342143Y-110314819D02*
X118723095Y-110314819D01*
X118723095Y-110314819D02*
X118818333Y-110362438D01*
X118818333Y-110362438D02*
X118865952Y-110410057D01*
X118865952Y-110410057D02*
X118913571Y-110505295D01*
X118913571Y-110505295D02*
X118913571Y-110648152D01*
X118913571Y-110648152D02*
X118865952Y-110743390D01*
X118865952Y-110743390D02*
X118818333Y-110791009D01*
X118818333Y-110791009D02*
X118723095Y-110838628D01*
X118723095Y-110838628D02*
X118342143Y-110838628D01*
X119199286Y-110314819D02*
X119532619Y-111314819D01*
X119532619Y-111314819D02*
X119865952Y-110314819D01*
X120723095Y-111314819D02*
X120151667Y-111314819D01*
X120437381Y-111314819D02*
X120437381Y-110314819D01*
X120437381Y-110314819D02*
X120342143Y-110457676D01*
X120342143Y-110457676D02*
X120246905Y-110552914D01*
X120246905Y-110552914D02*
X120151667Y-110600533D01*
X121104048Y-110410057D02*
X121151667Y-110362438D01*
X121151667Y-110362438D02*
X121246905Y-110314819D01*
X121246905Y-110314819D02*
X121485000Y-110314819D01*
X121485000Y-110314819D02*
X121580238Y-110362438D01*
X121580238Y-110362438D02*
X121627857Y-110410057D01*
X121627857Y-110410057D02*
X121675476Y-110505295D01*
X121675476Y-110505295D02*
X121675476Y-110600533D01*
X121675476Y-110600533D02*
X121627857Y-110743390D01*
X121627857Y-110743390D02*
X121056429Y-111314819D01*
X121056429Y-111314819D02*
X121675476Y-111314819D01*
X170389761Y-57314819D02*
X170056428Y-56838628D01*
X169818333Y-57314819D02*
X169818333Y-56314819D01*
X169818333Y-56314819D02*
X170199285Y-56314819D01*
X170199285Y-56314819D02*
X170294523Y-56362438D01*
X170294523Y-56362438D02*
X170342142Y-56410057D01*
X170342142Y-56410057D02*
X170389761Y-56505295D01*
X170389761Y-56505295D02*
X170389761Y-56648152D01*
X170389761Y-56648152D02*
X170342142Y-56743390D01*
X170342142Y-56743390D02*
X170294523Y-56791009D01*
X170294523Y-56791009D02*
X170199285Y-56838628D01*
X170199285Y-56838628D02*
X169818333Y-56838628D01*
X170675476Y-56314819D02*
X171008809Y-57314819D01*
X171008809Y-57314819D02*
X171342142Y-56314819D01*
X172151666Y-56314819D02*
X171675476Y-56314819D01*
X171675476Y-56314819D02*
X171627857Y-56791009D01*
X171627857Y-56791009D02*
X171675476Y-56743390D01*
X171675476Y-56743390D02*
X171770714Y-56695771D01*
X171770714Y-56695771D02*
X172008809Y-56695771D01*
X172008809Y-56695771D02*
X172104047Y-56743390D01*
X172104047Y-56743390D02*
X172151666Y-56791009D01*
X172151666Y-56791009D02*
X172199285Y-56886247D01*
X172199285Y-56886247D02*
X172199285Y-57124342D01*
X172199285Y-57124342D02*
X172151666Y-57219580D01*
X172151666Y-57219580D02*
X172104047Y-57267200D01*
X172104047Y-57267200D02*
X172008809Y-57314819D01*
X172008809Y-57314819D02*
X171770714Y-57314819D01*
X171770714Y-57314819D02*
X171675476Y-57267200D01*
X171675476Y-57267200D02*
X171627857Y-57219580D01*
X118659166Y-74154819D02*
X118659166Y-74869104D01*
X118659166Y-74869104D02*
X118611547Y-75011961D01*
X118611547Y-75011961D02*
X118516309Y-75107200D01*
X118516309Y-75107200D02*
X118373452Y-75154819D01*
X118373452Y-75154819D02*
X118278214Y-75154819D01*
X119040119Y-74154819D02*
X119659166Y-74154819D01*
X119659166Y-74154819D02*
X119325833Y-74535771D01*
X119325833Y-74535771D02*
X119468690Y-74535771D01*
X119468690Y-74535771D02*
X119563928Y-74583390D01*
X119563928Y-74583390D02*
X119611547Y-74631009D01*
X119611547Y-74631009D02*
X119659166Y-74726247D01*
X119659166Y-74726247D02*
X119659166Y-74964342D01*
X119659166Y-74964342D02*
X119611547Y-75059580D01*
X119611547Y-75059580D02*
X119563928Y-75107200D01*
X119563928Y-75107200D02*
X119468690Y-75154819D01*
X119468690Y-75154819D02*
X119182976Y-75154819D01*
X119182976Y-75154819D02*
X119087738Y-75107200D01*
X119087738Y-75107200D02*
X119040119Y-75059580D01*
X185066666Y-73704819D02*
X185066666Y-74419104D01*
X185066666Y-74419104D02*
X185019047Y-74561961D01*
X185019047Y-74561961D02*
X184923809Y-74657200D01*
X184923809Y-74657200D02*
X184780952Y-74704819D01*
X184780952Y-74704819D02*
X184685714Y-74704819D01*
X185685714Y-74133390D02*
X185590476Y-74085771D01*
X185590476Y-74085771D02*
X185542857Y-74038152D01*
X185542857Y-74038152D02*
X185495238Y-73942914D01*
X185495238Y-73942914D02*
X185495238Y-73895295D01*
X185495238Y-73895295D02*
X185542857Y-73800057D01*
X185542857Y-73800057D02*
X185590476Y-73752438D01*
X185590476Y-73752438D02*
X185685714Y-73704819D01*
X185685714Y-73704819D02*
X185876190Y-73704819D01*
X185876190Y-73704819D02*
X185971428Y-73752438D01*
X185971428Y-73752438D02*
X186019047Y-73800057D01*
X186019047Y-73800057D02*
X186066666Y-73895295D01*
X186066666Y-73895295D02*
X186066666Y-73942914D01*
X186066666Y-73942914D02*
X186019047Y-74038152D01*
X186019047Y-74038152D02*
X185971428Y-74085771D01*
X185971428Y-74085771D02*
X185876190Y-74133390D01*
X185876190Y-74133390D02*
X185685714Y-74133390D01*
X185685714Y-74133390D02*
X185590476Y-74181009D01*
X185590476Y-74181009D02*
X185542857Y-74228628D01*
X185542857Y-74228628D02*
X185495238Y-74323866D01*
X185495238Y-74323866D02*
X185495238Y-74514342D01*
X185495238Y-74514342D02*
X185542857Y-74609580D01*
X185542857Y-74609580D02*
X185590476Y-74657200D01*
X185590476Y-74657200D02*
X185685714Y-74704819D01*
X185685714Y-74704819D02*
X185876190Y-74704819D01*
X185876190Y-74704819D02*
X185971428Y-74657200D01*
X185971428Y-74657200D02*
X186019047Y-74609580D01*
X186019047Y-74609580D02*
X186066666Y-74514342D01*
X186066666Y-74514342D02*
X186066666Y-74323866D01*
X186066666Y-74323866D02*
X186019047Y-74228628D01*
X186019047Y-74228628D02*
X185971428Y-74181009D01*
X185971428Y-74181009D02*
X185876190Y-74133390D01*
D11*
X152409800Y-60333332D02*
X152457419Y-60190475D01*
X152457419Y-60190475D02*
X152457419Y-59952380D01*
X152457419Y-59952380D02*
X152409800Y-59857142D01*
X152409800Y-59857142D02*
X152362180Y-59809523D01*
X152362180Y-59809523D02*
X152266942Y-59761904D01*
X152266942Y-59761904D02*
X152171704Y-59761904D01*
X152171704Y-59761904D02*
X152076466Y-59809523D01*
X152076466Y-59809523D02*
X152028847Y-59857142D01*
X152028847Y-59857142D02*
X151981228Y-59952380D01*
X151981228Y-59952380D02*
X151933609Y-60142856D01*
X151933609Y-60142856D02*
X151885990Y-60238094D01*
X151885990Y-60238094D02*
X151838371Y-60285713D01*
X151838371Y-60285713D02*
X151743133Y-60333332D01*
X151743133Y-60333332D02*
X151647895Y-60333332D01*
X151647895Y-60333332D02*
X151552657Y-60285713D01*
X151552657Y-60285713D02*
X151505038Y-60238094D01*
X151505038Y-60238094D02*
X151457419Y-60142856D01*
X151457419Y-60142856D02*
X151457419Y-59904761D01*
X151457419Y-59904761D02*
X151505038Y-59761904D01*
X151457419Y-59428570D02*
X152457419Y-59190475D01*
X152457419Y-59190475D02*
X151743133Y-58999999D01*
X151743133Y-58999999D02*
X152457419Y-58809523D01*
X152457419Y-58809523D02*
X151457419Y-58571428D01*
X152457419Y-57666666D02*
X152457419Y-58238094D01*
X152457419Y-57952380D02*
X151457419Y-57952380D01*
X151457419Y-57952380D02*
X151600276Y-58047618D01*
X151600276Y-58047618D02*
X151695514Y-58142856D01*
X151695514Y-58142856D02*
X151743133Y-58238094D01*
D10*
X137659166Y-74234819D02*
X137659166Y-74949104D01*
X137659166Y-74949104D02*
X137611547Y-75091961D01*
X137611547Y-75091961D02*
X137516309Y-75187200D01*
X137516309Y-75187200D02*
X137373452Y-75234819D01*
X137373452Y-75234819D02*
X137278214Y-75234819D01*
X138182976Y-75234819D02*
X138373452Y-75234819D01*
X138373452Y-75234819D02*
X138468690Y-75187200D01*
X138468690Y-75187200D02*
X138516309Y-75139580D01*
X138516309Y-75139580D02*
X138611547Y-74996723D01*
X138611547Y-74996723D02*
X138659166Y-74806247D01*
X138659166Y-74806247D02*
X138659166Y-74425295D01*
X138659166Y-74425295D02*
X138611547Y-74330057D01*
X138611547Y-74330057D02*
X138563928Y-74282438D01*
X138563928Y-74282438D02*
X138468690Y-74234819D01*
X138468690Y-74234819D02*
X138278214Y-74234819D01*
X138278214Y-74234819D02*
X138182976Y-74282438D01*
X138182976Y-74282438D02*
X138135357Y-74330057D01*
X138135357Y-74330057D02*
X138087738Y-74425295D01*
X138087738Y-74425295D02*
X138087738Y-74663390D01*
X138087738Y-74663390D02*
X138135357Y-74758628D01*
X138135357Y-74758628D02*
X138182976Y-74806247D01*
X138182976Y-74806247D02*
X138278214Y-74853866D01*
X138278214Y-74853866D02*
X138468690Y-74853866D01*
X138468690Y-74853866D02*
X138563928Y-74806247D01*
X138563928Y-74806247D02*
X138611547Y-74758628D01*
X138611547Y-74758628D02*
X138659166Y-74663390D01*
X170389761Y-74164819D02*
X170056428Y-73688628D01*
X169818333Y-74164819D02*
X169818333Y-73164819D01*
X169818333Y-73164819D02*
X170199285Y-73164819D01*
X170199285Y-73164819D02*
X170294523Y-73212438D01*
X170294523Y-73212438D02*
X170342142Y-73260057D01*
X170342142Y-73260057D02*
X170389761Y-73355295D01*
X170389761Y-73355295D02*
X170389761Y-73498152D01*
X170389761Y-73498152D02*
X170342142Y-73593390D01*
X170342142Y-73593390D02*
X170294523Y-73641009D01*
X170294523Y-73641009D02*
X170199285Y-73688628D01*
X170199285Y-73688628D02*
X169818333Y-73688628D01*
X170675476Y-73164819D02*
X171008809Y-74164819D01*
X171008809Y-74164819D02*
X171342142Y-73164819D01*
X172104047Y-73164819D02*
X171913571Y-73164819D01*
X171913571Y-73164819D02*
X171818333Y-73212438D01*
X171818333Y-73212438D02*
X171770714Y-73260057D01*
X171770714Y-73260057D02*
X171675476Y-73402914D01*
X171675476Y-73402914D02*
X171627857Y-73593390D01*
X171627857Y-73593390D02*
X171627857Y-73974342D01*
X171627857Y-73974342D02*
X171675476Y-74069580D01*
X171675476Y-74069580D02*
X171723095Y-74117200D01*
X171723095Y-74117200D02*
X171818333Y-74164819D01*
X171818333Y-74164819D02*
X172008809Y-74164819D01*
X172008809Y-74164819D02*
X172104047Y-74117200D01*
X172104047Y-74117200D02*
X172151666Y-74069580D01*
X172151666Y-74069580D02*
X172199285Y-73974342D01*
X172199285Y-73974342D02*
X172199285Y-73736247D01*
X172199285Y-73736247D02*
X172151666Y-73641009D01*
X172151666Y-73641009D02*
X172104047Y-73593390D01*
X172104047Y-73593390D02*
X172008809Y-73545771D01*
X172008809Y-73545771D02*
X171818333Y-73545771D01*
X171818333Y-73545771D02*
X171723095Y-73593390D01*
X171723095Y-73593390D02*
X171675476Y-73641009D01*
X171675476Y-73641009D02*
X171627857Y-73736247D01*
X170389761Y-109064819D02*
X170056428Y-108588628D01*
X169818333Y-109064819D02*
X169818333Y-108064819D01*
X169818333Y-108064819D02*
X170199285Y-108064819D01*
X170199285Y-108064819D02*
X170294523Y-108112438D01*
X170294523Y-108112438D02*
X170342142Y-108160057D01*
X170342142Y-108160057D02*
X170389761Y-108255295D01*
X170389761Y-108255295D02*
X170389761Y-108398152D01*
X170389761Y-108398152D02*
X170342142Y-108493390D01*
X170342142Y-108493390D02*
X170294523Y-108541009D01*
X170294523Y-108541009D02*
X170199285Y-108588628D01*
X170199285Y-108588628D02*
X169818333Y-108588628D01*
X170675476Y-108064819D02*
X171008809Y-109064819D01*
X171008809Y-109064819D02*
X171342142Y-108064819D01*
X171580238Y-108064819D02*
X172246904Y-108064819D01*
X172246904Y-108064819D02*
X171818333Y-109064819D01*
D12*
%TO.C,J1*%
X103295000Y-54630000D02*
X103295000Y-53300000D01*
X104625000Y-54630000D02*
X103295000Y-54630000D01*
X105895000Y-54630000D02*
X184695000Y-54630000D01*
X105895000Y-54630000D02*
X105895000Y-51970000D01*
X184695000Y-54630000D02*
X184695000Y-51970000D01*
X105895000Y-51970000D02*
X184695000Y-51970000D01*
D13*
%TO.C,J5*%
X183500000Y-109750000D02*
X186400000Y-109750000D01*
X183500000Y-120250000D02*
X183500000Y-109750000D01*
X183500000Y-120250000D02*
X186500000Y-120250000D01*
X189500000Y-120250000D02*
X192500000Y-120250000D01*
X189600000Y-109750000D02*
X192500000Y-109750000D01*
X192500000Y-120250000D02*
X192500000Y-109750000D01*
D12*
X188000000Y-112855000D02*
G75*
G03*
X186703737Y-118338576I0J-2895000D01*
G01*
X189296263Y-118338576D02*
G75*
G03*
X188000000Y-112855000I-1296263J2588576D01*
G01*
X189800000Y-115750000D02*
G75*
G03*
X189800000Y-115750000I-1800000J0D01*
G01*
%TO.C,RV9*%
X181655000Y-59120000D02*
X186375000Y-59120000D01*
X181655000Y-60310000D02*
X181655000Y-59130000D01*
X181655000Y-63210000D02*
X181655000Y-62680000D01*
X181655000Y-65660000D02*
X181655000Y-64830000D01*
X181655000Y-68870000D02*
X181655000Y-67380000D01*
X181655000Y-68870000D02*
X186375000Y-68870000D01*
X190185000Y-59130000D02*
X193245000Y-59130000D01*
X190185000Y-68870000D02*
X193245000Y-68870000D01*
X193245000Y-68870000D02*
X193245000Y-59130000D01*
D13*
%TO.C,J11*%
X150500000Y-75592600D02*
X153400000Y-75592600D01*
X150500000Y-86092600D02*
X150500000Y-75592600D01*
X150500000Y-86092600D02*
X153500000Y-86092600D01*
X156500000Y-86092600D02*
X159500000Y-86092600D01*
X156600000Y-75592600D02*
X159500000Y-75592600D01*
X159500000Y-86092600D02*
X159500000Y-75592600D01*
D12*
X155000000Y-78697600D02*
G75*
G03*
X153703737Y-84181176I0J-2895000D01*
G01*
X156296263Y-84181176D02*
G75*
G03*
X155000000Y-78697600I-1296263J2588576D01*
G01*
X156800000Y-81592600D02*
G75*
G03*
X156800000Y-81592600I-1800000J0D01*
G01*
%TO.C,RV4*%
X115155000Y-59040000D02*
X119875000Y-59040000D01*
X115155000Y-60230000D02*
X115155000Y-59050000D01*
X115155000Y-63130000D02*
X115155000Y-62600000D01*
X115155000Y-65580000D02*
X115155000Y-64750000D01*
X115155000Y-68790000D02*
X115155000Y-67300000D01*
X115155000Y-68790000D02*
X119875000Y-68790000D01*
X123685000Y-59050000D02*
X126745000Y-59050000D01*
X123685000Y-68790000D02*
X126745000Y-68790000D01*
X126745000Y-68790000D02*
X126745000Y-59050000D01*
%TO.C,RV8*%
X165155000Y-93320000D02*
X169875000Y-93320000D01*
X165155000Y-94510000D02*
X165155000Y-93330000D01*
X165155000Y-97410000D02*
X165155000Y-96880000D01*
X165155000Y-99860000D02*
X165155000Y-99030000D01*
X165155000Y-103070000D02*
X165155000Y-101580000D01*
X165155000Y-103070000D02*
X169875000Y-103070000D01*
X173685000Y-93330000D02*
X176745000Y-93330000D01*
X173685000Y-103070000D02*
X176745000Y-103070000D01*
X176745000Y-103070000D02*
X176745000Y-93330000D01*
D13*
%TO.C,J10*%
X116000000Y-131000000D02*
X118900000Y-131000000D01*
X116000000Y-141500000D02*
X116000000Y-131000000D01*
X116000000Y-141500000D02*
X119000000Y-141500000D01*
X122000000Y-141500000D02*
X125000000Y-141500000D01*
X122100000Y-131000000D02*
X125000000Y-131000000D01*
X125000000Y-141500000D02*
X125000000Y-131000000D01*
D12*
X120500000Y-134105000D02*
G75*
G03*
X119203737Y-139588576I0J-2895000D01*
G01*
X121796263Y-139588576D02*
G75*
G03*
X120500000Y-134105000I-1296263J2588576D01*
G01*
X122300000Y-137000000D02*
G75*
G03*
X122300000Y-137000000I-1800000J0D01*
G01*
%TO.C,RV2*%
X97062500Y-76620000D02*
X101782500Y-76620000D01*
X97062500Y-77810000D02*
X97062500Y-76630000D01*
X97062500Y-80710000D02*
X97062500Y-80180000D01*
X97062500Y-83160000D02*
X97062500Y-82330000D01*
X97062500Y-86370000D02*
X97062500Y-84880000D01*
X97062500Y-86370000D02*
X101782500Y-86370000D01*
X105592500Y-76630000D02*
X108652500Y-76630000D01*
X105592500Y-86370000D02*
X108652500Y-86370000D01*
X108652500Y-86370000D02*
X108652500Y-76630000D01*
D11*
%TO.C,SW2*%
X168500000Y-127050000D02*
X175500000Y-127050000D01*
X168500000Y-139950000D02*
X168500000Y-127050000D01*
X168500000Y-139950000D02*
X175500000Y-139950000D01*
X175500000Y-139950000D02*
X175500000Y-127050000D01*
D12*
%TO.C,RV3*%
X134155000Y-59120000D02*
X138875000Y-59120000D01*
X134155000Y-60310000D02*
X134155000Y-59130000D01*
X134155000Y-63210000D02*
X134155000Y-62680000D01*
X134155000Y-65660000D02*
X134155000Y-64830000D01*
X134155000Y-68870000D02*
X134155000Y-67380000D01*
X134155000Y-68870000D02*
X138875000Y-68870000D01*
X142685000Y-59130000D02*
X145745000Y-59130000D01*
X142685000Y-68870000D02*
X145745000Y-68870000D01*
X145745000Y-68870000D02*
X145745000Y-59130000D01*
D13*
%TO.C,J12*%
X133000000Y-131000000D02*
X135900000Y-131000000D01*
X133000000Y-141500000D02*
X133000000Y-131000000D01*
X133000000Y-141500000D02*
X136000000Y-141500000D01*
X139000000Y-141500000D02*
X142000000Y-141500000D01*
X139100000Y-131000000D02*
X142000000Y-131000000D01*
X142000000Y-141500000D02*
X142000000Y-131000000D01*
D12*
X137500000Y-134105000D02*
G75*
G03*
X136203737Y-139588576I0J-2895000D01*
G01*
X138796263Y-139588576D02*
G75*
G03*
X137500000Y-134105000I-1296263J2588576D01*
G01*
X139300000Y-137000000D02*
G75*
G03*
X139300000Y-137000000I-1800000J0D01*
G01*
%TO.C,RV13*%
X131155000Y-114120000D02*
X135875000Y-114120000D01*
X131155000Y-115310000D02*
X131155000Y-114130000D01*
X131155000Y-118210000D02*
X131155000Y-117680000D01*
X131155000Y-120660000D02*
X131155000Y-119830000D01*
X131155000Y-123870000D02*
X131155000Y-122380000D01*
X131155000Y-123870000D02*
X135875000Y-123870000D01*
X139685000Y-114130000D02*
X142745000Y-114130000D01*
X139685000Y-123870000D02*
X142745000Y-123870000D01*
X142745000Y-123870000D02*
X142745000Y-114130000D01*
%TO.C,RV1*%
X97062500Y-59040000D02*
X101782500Y-59040000D01*
X97062500Y-60230000D02*
X97062500Y-59050000D01*
X97062500Y-63130000D02*
X97062500Y-62600000D01*
X97062500Y-65580000D02*
X97062500Y-64750000D01*
X97062500Y-68790000D02*
X97062500Y-67300000D01*
X97062500Y-68790000D02*
X101782500Y-68790000D01*
X105592500Y-59050000D02*
X108652500Y-59050000D01*
X105592500Y-68790000D02*
X108652500Y-68790000D01*
X108652500Y-68790000D02*
X108652500Y-59050000D01*
%TO.C,RV10*%
X97155000Y-96120000D02*
X101875000Y-96120000D01*
X97155000Y-97310000D02*
X97155000Y-96130000D01*
X97155000Y-100210000D02*
X97155000Y-99680000D01*
X97155000Y-102660000D02*
X97155000Y-101830000D01*
X97155000Y-105870000D02*
X97155000Y-104380000D01*
X97155000Y-105870000D02*
X101875000Y-105870000D01*
X105685000Y-96130000D02*
X108745000Y-96130000D01*
X105685000Y-105870000D02*
X108745000Y-105870000D01*
X108745000Y-105870000D02*
X108745000Y-96130000D01*
%TO.C,RV14*%
X114155000Y-96120000D02*
X118875000Y-96120000D01*
X114155000Y-97310000D02*
X114155000Y-96130000D01*
X114155000Y-100210000D02*
X114155000Y-99680000D01*
X114155000Y-102660000D02*
X114155000Y-101830000D01*
X114155000Y-105870000D02*
X114155000Y-104380000D01*
X114155000Y-105870000D02*
X118875000Y-105870000D01*
X122685000Y-96130000D02*
X125745000Y-96130000D01*
X122685000Y-105870000D02*
X125745000Y-105870000D01*
X125745000Y-105870000D02*
X125745000Y-96130000D01*
%TO.C,RV11*%
X97155000Y-114120000D02*
X101875000Y-114120000D01*
X97155000Y-115310000D02*
X97155000Y-114130000D01*
X97155000Y-118210000D02*
X97155000Y-117680000D01*
X97155000Y-120660000D02*
X97155000Y-119830000D01*
X97155000Y-123870000D02*
X97155000Y-122380000D01*
X97155000Y-123870000D02*
X101875000Y-123870000D01*
X105685000Y-114130000D02*
X108745000Y-114130000D01*
X105685000Y-123870000D02*
X108745000Y-123870000D01*
X108745000Y-123870000D02*
X108745000Y-114130000D01*
D13*
%TO.C,J4*%
X99000000Y-131000000D02*
X101900000Y-131000000D01*
X99000000Y-141500000D02*
X99000000Y-131000000D01*
X99000000Y-141500000D02*
X102000000Y-141500000D01*
X105000000Y-141500000D02*
X108000000Y-141500000D01*
X105100000Y-131000000D02*
X108000000Y-131000000D01*
X108000000Y-141500000D02*
X108000000Y-131000000D01*
D12*
X103500000Y-134105000D02*
G75*
G03*
X102203737Y-139588576I0J-2895000D01*
G01*
X104796263Y-139588576D02*
G75*
G03*
X103500000Y-134105000I-1296263J2588576D01*
G01*
X105300000Y-137000000D02*
G75*
G03*
X105300000Y-137000000I-1800000J0D01*
G01*
%TO.C,J2*%
X184705000Y-146370000D02*
X184705000Y-147700000D01*
X183375000Y-146370000D02*
X184705000Y-146370000D01*
X182105000Y-146370000D02*
X103305000Y-146370000D01*
X182105000Y-146370000D02*
X182105000Y-149030000D01*
X103305000Y-146370000D02*
X103305000Y-149030000D01*
X182105000Y-149030000D02*
X103305000Y-149030000D01*
D13*
%TO.C,J6*%
X183500000Y-92200000D02*
X186400000Y-92200000D01*
X183500000Y-102700000D02*
X183500000Y-92200000D01*
X183500000Y-102700000D02*
X186500000Y-102700000D01*
X189500000Y-102700000D02*
X192500000Y-102700000D01*
X189600000Y-92200000D02*
X192500000Y-92200000D01*
X192500000Y-102700000D02*
X192500000Y-92200000D01*
D12*
X188000000Y-95305000D02*
G75*
G03*
X186703737Y-100788576I0J-2895000D01*
G01*
X189296263Y-100788576D02*
G75*
G03*
X188000000Y-95305000I-1296263J2588576D01*
G01*
X189800000Y-98200000D02*
G75*
G03*
X189800000Y-98200000I-1800000J0D01*
G01*
D13*
%TO.C,J7*%
X183500000Y-127500000D02*
X186400000Y-127500000D01*
X183500000Y-138000000D02*
X183500000Y-127500000D01*
X183500000Y-138000000D02*
X186500000Y-138000000D01*
X189500000Y-138000000D02*
X192500000Y-138000000D01*
X189600000Y-127500000D02*
X192500000Y-127500000D01*
X192500000Y-138000000D02*
X192500000Y-127500000D01*
D12*
X188000000Y-130605000D02*
G75*
G03*
X186703737Y-136088576I0J-2895000D01*
G01*
X189296263Y-136088576D02*
G75*
G03*
X188000000Y-130605000I-1296263J2588576D01*
G01*
X189800000Y-133500000D02*
G75*
G03*
X189800000Y-133500000I-1800000J0D01*
G01*
%TO.C,RV12*%
X114155000Y-114120000D02*
X118875000Y-114120000D01*
X114155000Y-115310000D02*
X114155000Y-114130000D01*
X114155000Y-118210000D02*
X114155000Y-117680000D01*
X114155000Y-120660000D02*
X114155000Y-119830000D01*
X114155000Y-123870000D02*
X114155000Y-122380000D01*
X114155000Y-123870000D02*
X118875000Y-123870000D01*
X122685000Y-114130000D02*
X125745000Y-114130000D01*
X122685000Y-123870000D02*
X125745000Y-123870000D01*
X125745000Y-123870000D02*
X125745000Y-114130000D01*
%TO.C,RV5*%
X165155000Y-59120000D02*
X169875000Y-59120000D01*
X165155000Y-60310000D02*
X165155000Y-59130000D01*
X165155000Y-63210000D02*
X165155000Y-62680000D01*
X165155000Y-65660000D02*
X165155000Y-64830000D01*
X165155000Y-68870000D02*
X165155000Y-67380000D01*
X165155000Y-68870000D02*
X169875000Y-68870000D01*
X173685000Y-59130000D02*
X176745000Y-59130000D01*
X173685000Y-68870000D02*
X176745000Y-68870000D01*
X176745000Y-68870000D02*
X176745000Y-59130000D01*
D13*
%TO.C,J3*%
X117092500Y-75500000D02*
X119992500Y-75500000D01*
X117092500Y-86000000D02*
X117092500Y-75500000D01*
X117092500Y-86000000D02*
X120092500Y-86000000D01*
X123092500Y-86000000D02*
X126092500Y-86000000D01*
X123192500Y-75500000D02*
X126092500Y-75500000D01*
X126092500Y-86000000D02*
X126092500Y-75500000D01*
D12*
X121592500Y-78605000D02*
G75*
G03*
X120296237Y-84088576I0J-2895000D01*
G01*
X122888763Y-84088576D02*
G75*
G03*
X121592500Y-78605000I-1296263J2588576D01*
G01*
X123392500Y-81500000D02*
G75*
G03*
X123392500Y-81500000I-1800000J0D01*
G01*
D13*
%TO.C,J8*%
X183500000Y-75050000D02*
X186400000Y-75050000D01*
X183500000Y-85550000D02*
X183500000Y-75050000D01*
X183500000Y-85550000D02*
X186500000Y-85550000D01*
X189500000Y-85550000D02*
X192500000Y-85550000D01*
X189600000Y-75050000D02*
X192500000Y-75050000D01*
X192500000Y-85550000D02*
X192500000Y-75050000D01*
D12*
X188000000Y-78155000D02*
G75*
G03*
X186703737Y-83638576I0J-2895000D01*
G01*
X189296263Y-83638576D02*
G75*
G03*
X188000000Y-78155000I-1296263J2588576D01*
G01*
X189800000Y-81050000D02*
G75*
G03*
X189800000Y-81050000I-1800000J0D01*
G01*
D11*
%TO.C,SW1*%
X151500000Y-57600000D02*
X158500000Y-57600000D01*
X151500000Y-70500000D02*
X151500000Y-57600000D01*
X151500000Y-70500000D02*
X158500000Y-70500000D01*
X158500000Y-70500000D02*
X158500000Y-57600000D01*
D13*
%TO.C,J9*%
X136092500Y-75580000D02*
X138992500Y-75580000D01*
X136092500Y-86080000D02*
X136092500Y-75580000D01*
X136092500Y-86080000D02*
X139092500Y-86080000D01*
X142092500Y-86080000D02*
X145092500Y-86080000D01*
X142192500Y-75580000D02*
X145092500Y-75580000D01*
X145092500Y-86080000D02*
X145092500Y-75580000D01*
D12*
X140592500Y-78685000D02*
G75*
G03*
X139296237Y-84168576I0J-2895000D01*
G01*
X141888763Y-84168576D02*
G75*
G03*
X140592500Y-78685000I-1296263J2588576D01*
G01*
X142392500Y-81580000D02*
G75*
G03*
X142392500Y-81580000I-1800000J0D01*
G01*
%TO.C,RV6*%
X165155000Y-75970000D02*
X169875000Y-75970000D01*
X165155000Y-77160000D02*
X165155000Y-75980000D01*
X165155000Y-80060000D02*
X165155000Y-79530000D01*
X165155000Y-82510000D02*
X165155000Y-81680000D01*
X165155000Y-85720000D02*
X165155000Y-84230000D01*
X165155000Y-85720000D02*
X169875000Y-85720000D01*
X173685000Y-75980000D02*
X176745000Y-75980000D01*
X173685000Y-85720000D02*
X176745000Y-85720000D01*
X176745000Y-85720000D02*
X176745000Y-75980000D01*
%TO.C,RV7*%
X165155000Y-110870000D02*
X169875000Y-110870000D01*
X165155000Y-112060000D02*
X165155000Y-110880000D01*
X165155000Y-114960000D02*
X165155000Y-114430000D01*
X165155000Y-117410000D02*
X165155000Y-116580000D01*
X165155000Y-120620000D02*
X165155000Y-119130000D01*
X165155000Y-120620000D02*
X169875000Y-120620000D01*
X173685000Y-110880000D02*
X176745000Y-110880000D01*
X173685000Y-120620000D02*
X176745000Y-120620000D01*
X176745000Y-120620000D02*
X176745000Y-110880000D01*
%TD*%
M02*
