M48
; DRILL file {KiCad 7.0.9} date Mon Jun  3 12:34:32 2024
; FORMAT={-:-/ absolute / inch / decimal}
; #@! TF.CreationDate,2024-06-03T12:34:32+01:00
; #@! TF.GenerationSoftware,Kicad,Pcbnew,7.0.9
; #@! TF.FileFunction,Plated,1,2,PTH
FMAT,2
INCH
; #@! TA.AperFunction,Plated,PTH,ViaDrill
T1C0.0157
; #@! TA.AperFunction,Plated,PTH,ComponentDrill
T2C0.0276
; #@! TA.AperFunction,Plated,PTH,ComponentDrill
T3C0.0295
; #@! TA.AperFunction,Plated,PTH,ComponentDrill
T4C0.0315
; #@! TA.AperFunction,Plated,PTH,ComponentDrill
T5C0.0394
; #@! TA.AperFunction,Plated,PTH,ComponentDrill
T6C0.0472
%
G90
G05
T1
X8.9757Y-3.7444
X9.1712Y-2.9237
X9.2581Y-4.2956
X9.647Y-5.3215
X9.9677Y-4.0179
X10.1206Y-5.4352
X10.1237Y-4.0646
X10.1546Y-5.277
X10.2764Y-3.6679
X10.3088Y-3.2687
X10.3334Y-3.2204
X10.382Y-3.7133
X10.4361Y-5.6992
X10.6317Y-3.7741
X10.6896Y-3.7945
X10.7279Y-6.3645
X10.7504Y-5.3938
X10.7569Y-4.5296
X10.791Y-4.1911
X10.8678Y-4.3765
X10.8692Y-5.1074
X10.8693Y-6.3709
X10.873Y-4.9358
X10.8803Y-5.5359
X10.8965Y-3.8423
X10.9376Y-3.7445
X10.9407Y-6.3206
X10.9663Y-5.6487
X10.9922Y-4.8272
X11.0109Y-4.6348
X11.0179Y-5.3965
X11.0306Y-3.7323
X11.1135Y-2.8728
X11.228Y-5.1744
X11.4087Y-3.9818
X11.4384Y-2.9052
X11.4912Y-6.4
X11.5095Y-6.3446
X11.5815Y-3.4444
X11.5905Y-5.1784
X11.7024Y-5.8082
X11.7296Y-4.2767
X11.8487Y-4.0853
X11.863Y-2.9584
X12.6331Y-5.2828
X12.6343Y-5.4812
X12.7905Y-4.3478
T2
X9.4638Y-3.0118
X9.5638Y-3.0118
X9.6606Y-3.1102
X9.6622Y-3.0118
X9.6622Y-3.3071
X9.7606Y-3.1102
X9.7622Y-3.0118
X9.7622Y-3.3071
X10.1575Y-5.9921
X10.1756Y-5.7953
X10.2047Y-5.3661
X10.2059Y-5.5433
X10.2087Y-5.1929
X10.2575Y-5.9921
X10.2756Y-5.7953
X10.3047Y-5.3661
X10.3059Y-5.5433
X10.3087Y-5.1929
X10.3929Y-5.9882
X10.4929Y-5.9882
X10.498Y-5.7362
X10.598Y-5.7362
X10.7827Y-6.189
X10.8827Y-6.189
T3
X9.0612Y-5.1404
X9.0642Y-4.9236
X9.1112Y-5.1404
X9.1142Y-4.9236
X9.1612Y-5.1404
X9.1642Y-4.9236
X9.3337Y-5.6085
X9.3337Y-5.6585
X9.3337Y-5.7085
X9.5305Y-5.6083
X9.5305Y-5.6583
X9.5305Y-5.7083
X11.7209Y-3.4803
X11.7244Y-3.2835
X11.7709Y-3.4803
X11.7744Y-3.2835
X11.8209Y-3.4803
X11.8244Y-3.2835
T4
X9.0126Y-3.4449
X9.0185Y-3.2087
X9.0201Y-3.0118
X9.0415Y-5.3963
X9.0433Y-4.3382
X9.0433Y-4.6382
X9.0581Y-5.7053
X9.0581Y-6.0053
X9.0669Y-3.6862
X9.0669Y-4.1862
X9.1614Y-4.3307
X9.1614Y-4.4291
X9.2384Y-5.3963
X9.3031Y-3.6862
X9.3031Y-4.1862
X9.3201Y-3.0118
X9.4016Y-4.7122
X9.4016Y-5.0122
X9.4321Y-5.8553
X9.4606Y-3.7724
X9.4606Y-4.1724
X9.5126Y-3.4449
X9.5185Y-3.2087
X9.6138Y-3.4843
X9.6289Y-5.8553
X9.6496Y-4.1567
X9.6496Y-4.5567
X9.6839Y-3.7441
X9.7823Y-3.7441
X9.9043Y-3.0118
X9.9043Y-3.2087
X9.9406Y-4.9961
X9.9575Y-3.7205
X9.9636Y-5.8128
X9.9636Y-6.2128
X9.9764Y-4.0984
X9.9764Y-4.1984
X9.9764Y-4.2984
X9.9764Y-4.3984
X9.9764Y-4.4984
X9.9764Y-4.5984
X9.9764Y-4.6984
X10.0118Y-5.1504
X10.0118Y-5.5504
X10.0138Y-3.4843
X10.1299Y-6.189
X10.2406Y-4.9961
X10.2764Y-4.0984
X10.2764Y-4.1984
X10.2764Y-4.2984
X10.2764Y-4.3984
X10.2764Y-4.4984
X10.2764Y-4.5984
X10.2764Y-4.6984
X10.4043Y-3.0118
X10.4043Y-3.2087
X10.4575Y-3.7205
X10.4843Y-5.5394
X10.4862Y-5.0197
X10.4902Y-4.7047
X10.4984Y-5.2559
X10.515Y-4.4291
X10.5295Y-4.1929
X10.6295Y-5.9882
X10.6299Y-6.189
X10.7024Y-5.7362
X10.7126Y-3.0299
X10.7126Y-3.1299
X10.7126Y-3.2299
X10.7126Y-3.3299
X10.7126Y-3.4299
X10.7126Y-3.5299
X10.7126Y-3.6299
X10.815Y-4.4291
X10.8209Y-3.937
X10.9193Y-3.937
X10.9295Y-5.9882
X10.9311Y-4.4882
X10.9843Y-5.5394
X10.9862Y-5.0197
X10.9902Y-4.7047
X10.9984Y-5.2559
X11.0024Y-5.7362
X11.0126Y-3.0299
X11.0126Y-3.1299
X11.0126Y-3.2299
X11.0126Y-3.3299
X11.0126Y-3.4299
X11.0126Y-3.5299
X11.0126Y-3.6299
X11.0295Y-4.1929
X11.1535Y-4.6583
X11.1535Y-5.0583
X11.2323Y-5.3465
X11.2323Y-5.4465
X11.2323Y-5.5465
X11.2323Y-5.6465
X11.2323Y-5.7465
X11.2323Y-5.8465
X11.2323Y-5.9465
X11.2323Y-6.1984
X11.3543Y-4.7252
X11.3543Y-5.1252
X11.4311Y-4.4882
X11.5039Y-5.0591
X11.5276Y-3.2016
X11.5276Y-3.6016
X11.5323Y-5.3465
X11.5323Y-5.4465
X11.5323Y-5.5465
X11.5323Y-5.6465
X11.5323Y-5.7465
X11.5323Y-5.8465
X11.5323Y-5.9465
X11.5323Y-6.1984
X11.5425Y-3.0472
X11.5807Y-4.4913
X11.5807Y-4.8913
X11.6024Y-5.0591
X11.6283Y-3.9496
X11.6283Y-4.3496
X11.6764Y-3.7362
X11.7461Y-5.0591
X11.7913Y-5.3661
X11.7933Y-5.5811
X11.8Y-6.1717
X11.802Y-5.8724
X11.8425Y-3.0472
X11.8524Y-4.3969
X11.8524Y-4.8969
X11.8732Y-3.7362
X11.8787Y-6.1717
X11.8807Y-5.8724
X11.9961Y-3.3681
X12.002Y-3.1496
X12.0492Y-4.4654
X12.0492Y-4.8654
X12.061Y-3.8504
X12.061Y-4.0472
X12.0717Y-3.5748
X12.0724Y-5.9134
X12.0724Y-6.1717
X12.2461Y-5.0591
X12.2756Y-4.6575
X12.2913Y-5.3661
X12.2933Y-5.5811
X12.365Y-4.4606
X12.4717Y-3.5748
X12.4724Y-5.9134
X12.4724Y-6.1717
X12.4756Y-4.9252
X12.4756Y-5.0252
X12.4756Y-5.1252
X12.4756Y-5.2252
X12.4756Y-5.3252
X12.4756Y-5.4252
X12.4756Y-5.5252
X12.4961Y-3.3681
X12.502Y-3.1496
X12.561Y-3.8504
X12.561Y-4.0472
X12.6772Y-3.5335
X12.6772Y-3.6319
X12.6811Y-3.1181
X12.6811Y-3.4181
X12.765Y-4.4606
X12.7756Y-4.6575
X12.7756Y-4.9252
X12.7756Y-5.0252
X12.7756Y-5.1252
X12.7756Y-5.2252
X12.7756Y-5.3252
X12.7756Y-5.4252
X12.7756Y-5.5252
T5
X9.0874Y-6.247
X9.3498Y-2.7874
X9.3502Y-6.5039
X9.3874Y-6.147
X9.4498Y-2.7874
X9.4502Y-6.5039
X9.5498Y-2.7874
X9.5502Y-6.5039
X9.6498Y-2.7874
X9.6502Y-6.5039
X9.6703Y-5.0795
X9.7498Y-2.7874
X9.7502Y-6.5039
X9.7703Y-4.6795
X9.7703Y-5.3795
X9.7874Y-6.247
X9.8498Y-2.7874
X9.8502Y-6.5039
X9.9498Y-2.7874
X9.9502Y-6.5039
X10.0498Y-2.7874
X10.0502Y-6.5039
X10.1498Y-2.7874
X10.1502Y-6.5039
X10.2498Y-2.7874
X10.2502Y-6.5039
X10.3498Y-2.7874
X10.3502Y-6.5039
X10.4498Y-2.7874
X10.4502Y-6.5039
X10.5498Y-2.7874
X10.5502Y-6.5039
X10.6498Y-2.7874
X10.6502Y-6.5039
X10.7498Y-2.7874
X10.7502Y-6.5039
X10.8498Y-2.7874
X10.8502Y-6.5039
X10.9498Y-2.7874
X10.9502Y-6.5039
X11.0498Y-2.7874
X11.0502Y-6.5039
X11.1498Y-2.7874
X11.1502Y-6.5039
X11.2498Y-2.7874
X11.2502Y-6.5039
X11.252Y-3.0559
X11.252Y-3.7559
X11.3498Y-2.7874
X11.3502Y-6.5039
X11.352Y-3.3559
X11.4498Y-2.7874
X11.4502Y-6.5039
X11.5498Y-2.7874
X11.5502Y-6.5039
X11.6498Y-2.7874
X11.6502Y-6.5039
X11.7498Y-2.7874
X11.7502Y-6.5039
X11.8498Y-2.7874
X11.8502Y-6.5039
X11.9498Y-2.7874
X11.9502Y-6.5039
X12.0498Y-2.7874
X12.0502Y-6.5039
X12.1498Y-2.7874
X12.1502Y-6.5039
X12.2498Y-2.7874
X12.2502Y-6.5039
X12.3498Y-2.7874
X12.3502Y-6.5039
X12.4498Y-2.7874
X12.4502Y-6.5039
X12.6402Y-5.8307
X12.6402Y-5.9307
X12.6402Y-6.0307
X12.6402Y-6.1307
X12.6402Y-6.2307
X12.7402Y-5.8307
X12.7402Y-5.9307
X12.7402Y-6.0307
X12.7402Y-6.1307
X12.7402Y-6.2307
T6
X9.3819Y-4.3606
X9.3819Y-4.5606
X9.437Y-5.1937
X9.437Y-5.3937
X9.8061Y-5.5988
X9.8061Y-5.7988
X10.1437Y-3.4795
X10.3437Y-3.4795
X11.2252Y-4.2283
X11.4252Y-4.2283
T0
M30
