%TF.GenerationSoftware,KiCad,Pcbnew,7.0.9*%
%TF.CreationDate,2024-06-03T12:34:28+01:00*%
%TF.ProjectId,3X VCO,33582056-434f-42e6-9b69-6361645f7063,rev?*%
%TF.SameCoordinates,Original*%
%TF.FileFunction,Copper,L1,Top*%
%TF.FilePolarity,Positive*%
%FSLAX46Y46*%
G04 Gerber Fmt 4.6, Leading zero omitted, Abs format (unit mm)*
G04 Created by KiCad (PCBNEW 7.0.9) date 2024-06-03 12:34:28*
%MOMM*%
%LPD*%
G01*
G04 APERTURE LIST*
%TA.AperFunction,ComponentPad*%
%ADD10C,1.600000*%
%TD*%
%TA.AperFunction,ComponentPad*%
%ADD11O,1.600000X1.600000*%
%TD*%
%TA.AperFunction,ComponentPad*%
%ADD12C,1.400000*%
%TD*%
%TA.AperFunction,ComponentPad*%
%ADD13O,1.400000X1.400000*%
%TD*%
%TA.AperFunction,ComponentPad*%
%ADD14C,1.800000*%
%TD*%
%TA.AperFunction,ComponentPad*%
%ADD15R,1.700000X1.700000*%
%TD*%
%TA.AperFunction,ComponentPad*%
%ADD16O,1.700000X1.700000*%
%TD*%
%TA.AperFunction,ComponentPad*%
%ADD17R,1.500000X1.050000*%
%TD*%
%TA.AperFunction,ComponentPad*%
%ADD18O,1.500000X1.050000*%
%TD*%
%TA.AperFunction,ComponentPad*%
%ADD19R,2.400000X2.400000*%
%TD*%
%TA.AperFunction,ComponentPad*%
%ADD20O,2.400000X2.400000*%
%TD*%
%TA.AperFunction,ComponentPad*%
%ADD21R,1.600000X1.600000*%
%TD*%
%TA.AperFunction,ComponentPad*%
%ADD22R,1.050000X1.500000*%
%TD*%
%TA.AperFunction,ComponentPad*%
%ADD23O,1.050000X1.500000*%
%TD*%
%TA.AperFunction,ViaPad*%
%ADD24C,0.800000*%
%TD*%
%TA.AperFunction,Conductor*%
%ADD25C,0.350000*%
%TD*%
G04 APERTURE END LIST*
D10*
%TO.P,R22,1*%
%TO.N,Net-(R22-Pad1)*%
X265620000Y-94500000D03*
D11*
%TO.P,R22,2*%
%TO.N,Net-(U3B--)*%
X252920000Y-94500000D03*
%TD*%
D10*
%TO.P,R11,1*%
%TO.N,Net-(R11-Pad1)*%
X299500000Y-136300000D03*
D11*
%TO.P,R11,2*%
%TO.N,cvIn3*%
X312200000Y-136300000D03*
%TD*%
D12*
%TO.P,TH2,1*%
%TO.N,VCO1FMPot1*%
X247920000Y-79000000D03*
D13*
%TO.P,TH2,2*%
%TO.N,Net-(R4-Pad1)*%
X245380000Y-79000000D03*
%TD*%
D14*
%TO.P,R36,1*%
%TO.N,Net-(R35-Pad2)*%
X248165000Y-118860000D03*
%TO.P,R36,2*%
%TO.N,VCO1CoarsePot1*%
X245625000Y-129020000D03*
%TO.P,R36,3*%
%TO.N,N/C*%
X248165000Y-136640000D03*
%TD*%
D10*
%TO.P,C4,1*%
%TO.N,Net-(U2B-+)*%
X274850000Y-100000000D03*
%TO.P,C4,2*%
%TO.N,Net-(U2D--)*%
X277350000Y-100000000D03*
%TD*%
%TO.P,R44,1*%
%TO.N,Net-(U4B--)*%
X288400000Y-130180000D03*
D11*
%TO.P,R44,2*%
%TO.N,VCO1CoarsePot1*%
X288400000Y-120020000D03*
%TD*%
D10*
%TO.P,R25,1*%
%TO.N,Net-(C5-Pad1)*%
X230300000Y-106330000D03*
D11*
%TO.P,R25,2*%
%TO.N,VCO1CoarsePot1*%
X230300000Y-93630000D03*
%TD*%
D10*
%TO.P,C1,1*%
%TO.N,Net-(D1-K)*%
X301580000Y-94900000D03*
%TO.P,C1,2*%
%TO.N,VCO1CoarsePot1*%
X296580000Y-94900000D03*
%TD*%
%TO.P,R42,1*%
%TO.N,Net-(U4B--)*%
X283300000Y-128480000D03*
D11*
%TO.P,R42,2*%
%TO.N,VCO2PwmPot1*%
X283300000Y-118320000D03*
%TD*%
D15*
%TO.P,J1,1,Pin_1*%
%TO.N,VCO1CoarsePot1*%
X237485000Y-70800000D03*
D16*
%TO.P,J1,2,Pin_2*%
%TO.N,VCO1CoarsePot2*%
X240025000Y-70800000D03*
%TO.P,J1,3,Pin_3*%
%TO.N,VCO1CoarsePot3*%
X242565000Y-70800000D03*
%TO.P,J1,4,Pin_4*%
%TO.N,VCO1CoarsePot1*%
X245105000Y-70800000D03*
%TO.P,J1,5,Pin_5*%
%TO.N,VCO1FinePot2*%
X247645000Y-70800000D03*
%TO.P,J1,6,Pin_6*%
%TO.N,VCO1CoarsePot3*%
X250185000Y-70800000D03*
%TO.P,J1,7,Pin_7*%
%TO.N,VCO1FMPot1*%
X252725000Y-70800000D03*
%TO.P,J1,8,Pin_8*%
%TO.N,VCO1FMPot2*%
X255265000Y-70800000D03*
%TO.P,J1,9,Pin_9*%
%TO.N,VCO1FMPot3*%
X257805000Y-70800000D03*
%TO.P,J1,10,Pin_10*%
%TO.N,VCO1PwmPot1*%
X260345000Y-70800000D03*
%TO.P,J1,11,Pin_11*%
%TO.N,VCO1CoarsePot1*%
X262885000Y-70800000D03*
%TO.P,J1,12,Pin_12*%
%TO.N,VCO1PwmPot3*%
X265425000Y-70800000D03*
%TO.P,J1,13,Pin_13*%
%TO.N,SW1p1*%
X267965000Y-70800000D03*
%TO.P,J1,14,Pin_14*%
%TO.N,SW1p2*%
X270505000Y-70800000D03*
%TO.P,J1,15,Pin_15*%
%TO.N,SW1p3*%
X273045000Y-70800000D03*
%TO.P,J1,16,Pin_16*%
%TO.N,VCO1CoarsePot1*%
X275585000Y-70800000D03*
%TO.P,J1,17,Pin_17*%
%TO.N,VCO2CoarsePot2*%
X278125000Y-70800000D03*
%TO.P,J1,18,Pin_18*%
%TO.N,VCO1CoarsePot3*%
X280665000Y-70800000D03*
%TO.P,J1,19,Pin_19*%
%TO.N,VCO1CoarsePot1*%
X283205000Y-70800000D03*
%TO.P,J1,20,Pin_20*%
%TO.N,VCO2FinePot2*%
X285745000Y-70800000D03*
%TO.P,J1,21,Pin_21*%
%TO.N,VCO1CoarsePot3*%
X288285000Y-70800000D03*
%TO.P,J1,22,Pin_22*%
%TO.N,VCO2FMPot1*%
X290825000Y-70800000D03*
%TO.P,J1,23,Pin_23*%
%TO.N,VCO2FMPot2*%
X293365000Y-70800000D03*
%TO.P,J1,24,Pin_24*%
%TO.N,VCO2FMPot3*%
X295905000Y-70800000D03*
%TO.P,J1,25,Pin_25*%
%TO.N,VCO2PwmPot1*%
X298445000Y-70800000D03*
%TO.P,J1,26,Pin_26*%
%TO.N,VCO2PwmPot2*%
X300985000Y-70800000D03*
%TO.P,J1,27,Pin_27*%
%TO.N,VCO2PwmPot3*%
X303525000Y-70800000D03*
%TO.P,J1,28,Pin_28*%
%TO.N,VCO2IDKPot1*%
X306065000Y-70800000D03*
%TO.P,J1,29,Pin_29*%
%TO.N,VCO2IDKPot2*%
X308605000Y-70800000D03*
%TO.P,J1,30,Pin_30*%
%TO.N,VCO1CoarsePot3*%
X311145000Y-70800000D03*
%TO.P,J1,31,Pin_31*%
%TO.N,SW2p1*%
X313685000Y-70800000D03*
%TO.P,J1,32,Pin_32*%
%TO.N,SW2p2*%
X316225000Y-70800000D03*
%TD*%
D10*
%TO.P,R30,1*%
%TO.N,Net-(C6-Pad1)*%
X317400000Y-85550000D03*
D11*
%TO.P,R30,2*%
%TO.N,VCO1CoarsePot1*%
X304700000Y-85550000D03*
%TD*%
D15*
%TO.P,J2,1,Pin_1*%
%TO.N,Net-(J2-Pin_1)*%
X321060000Y-148100000D03*
D16*
%TO.P,J2,2,Pin_2*%
X323600000Y-148100000D03*
%TO.P,J2,3,Pin_3*%
%TO.N,VCO1CoarsePot1*%
X321060000Y-150640000D03*
%TO.P,J2,4,Pin_4*%
X323600000Y-150640000D03*
%TO.P,J2,5,Pin_5*%
X321060000Y-153180000D03*
%TO.P,J2,6,Pin_6*%
X323600000Y-153180000D03*
%TO.P,J2,7,Pin_7*%
X321060000Y-155720000D03*
%TO.P,J2,8,Pin_8*%
X323600000Y-155720000D03*
%TO.P,J2,9,Pin_9*%
%TO.N,Net-(J2-Pin_10)*%
X321060000Y-158260000D03*
%TO.P,J2,10,Pin_10*%
X323600000Y-158260000D03*
%TD*%
D10*
%TO.P,R48,1*%
%TO.N,Net-(U4C-+)*%
X324230000Y-113300000D03*
D11*
%TO.P,R48,2*%
%TO.N,VCO1CoarsePot1*%
X314070000Y-113300000D03*
%TD*%
D10*
%TO.P,C6,1*%
%TO.N,Net-(C6-Pad1)*%
X322000000Y-89750000D03*
%TO.P,C6,2*%
%TO.N,Net-(C6-Pad2)*%
X322000000Y-92250000D03*
%TD*%
D12*
%TO.P,TH3,1*%
%TO.N,VCO3FMPot2*%
X276420000Y-157200000D03*
D13*
%TO.P,TH3,2*%
%TO.N,Net-(R5-Pad1)*%
X273880000Y-157200000D03*
%TD*%
D10*
%TO.P,R2,1*%
%TO.N,VCO1FMPot1*%
X292800000Y-81320000D03*
D11*
%TO.P,R2,2*%
%TO.N,Net-(R2-Pad2)*%
X292800000Y-91480000D03*
%TD*%
D10*
%TO.P,C3,1*%
%TO.N,Net-(U2C-+)*%
X245970000Y-95100000D03*
%TO.P,C3,2*%
%TO.N,Net-(U2A--)*%
X248470000Y-95100000D03*
%TD*%
%TO.P,R40,1*%
%TO.N,Net-(R40-Pad1)*%
X271840000Y-145700000D03*
D11*
%TO.P,R40,2*%
%TO.N,VCO2FinePot2*%
X279460000Y-145700000D03*
%TD*%
D10*
%TO.P,R46,1*%
%TO.N,Net-(U4C-+)*%
X324500000Y-118300000D03*
D11*
%TO.P,R46,2*%
%TO.N,Net-(R46-Pad2)*%
X311800000Y-118300000D03*
%TD*%
D10*
%TO.P,R51,1*%
%TO.N,VCO2IDKPot1*%
X306640000Y-156760000D03*
D11*
%TO.P,R51,2*%
%TO.N,Net-(J2-Pin_10)*%
X316800000Y-156760000D03*
%TD*%
D10*
%TO.P,R4,1*%
%TO.N,Net-(R4-Pad1)*%
X241770000Y-81500000D03*
D11*
%TO.P,R4,2*%
%TO.N,cvIn1*%
X229070000Y-81500000D03*
%TD*%
D10*
%TO.P,R50,1*%
%TO.N,SW2p1*%
X240300000Y-95820000D03*
D11*
%TO.P,R50,2*%
%TO.N,Net-(U4C--)*%
X240300000Y-105980000D03*
%TD*%
D10*
%TO.P,R35,1*%
%TO.N,VCO2FMPot1*%
X254300000Y-130820000D03*
D11*
%TO.P,R35,2*%
%TO.N,Net-(R35-Pad2)*%
X254300000Y-140980000D03*
%TD*%
D10*
%TO.P,R31,1*%
%TO.N,VCO3WaveMixPot3*%
X322100000Y-79200000D03*
D11*
%TO.P,R31,2*%
%TO.N,Net-(C6-Pad1)*%
X322100000Y-86820000D03*
%TD*%
D10*
%TO.P,R18,1*%
%TO.N,Net-(U3B--)*%
X254350000Y-88500000D03*
D11*
%TO.P,R18,2*%
%TO.N,VCO1CoarsePot1*%
X244190000Y-88500000D03*
%TD*%
D17*
%TO.P,Q4,1,C*%
%TO.N,Net-(D2-K)*%
X242075000Y-142450000D03*
D18*
%TO.P,Q4,2,B*%
%TO.N,Net-(Q3-E)*%
X242075000Y-143720000D03*
%TO.P,Q4,3,E*%
%TO.N,VCO1CoarsePot1*%
X242075000Y-144990000D03*
%TD*%
D10*
%TO.P,C5,1*%
%TO.N,Net-(C5-Pad1)*%
X232700000Y-110000000D03*
%TO.P,C5,2*%
%TO.N,Net-(C5-Pad2)*%
X232700000Y-112500000D03*
%TD*%
%TO.P,R21,1*%
%TO.N,Net-(D4-K)*%
X319050000Y-102800000D03*
D11*
%TO.P,R21,2*%
%TO.N,VCO1CoarsePot1*%
X306350000Y-102800000D03*
%TD*%
D10*
%TO.P,R12,1*%
%TO.N,VCO2IDKPot1*%
X230075000Y-144915000D03*
D11*
%TO.P,R12,2*%
%TO.N,Net-(Q3-E)*%
X230075000Y-152535000D03*
%TD*%
D19*
%TO.P,D1,1,K*%
%TO.N,Net-(D1-K)*%
X262730000Y-88380000D03*
D20*
%TO.P,D1,2,A*%
%TO.N,Net-(D1-A)*%
X257650000Y-88380000D03*
%TD*%
D17*
%TO.P,Q3,1,C*%
%TO.N,VCO1CoarsePot3*%
X237075000Y-144995000D03*
D18*
%TO.P,Q3,2,B*%
%TO.N,VCO3FMPot1*%
X237075000Y-143725000D03*
%TO.P,Q3,3,E*%
%TO.N,Net-(Q3-E)*%
X237075000Y-142455000D03*
%TD*%
D12*
%TO.P,TH6,1*%
%TO.N,VCO3FMPot1*%
X260540000Y-152200000D03*
D13*
%TO.P,TH6,2*%
%TO.N,Net-(R11-Pad1)*%
X258000000Y-152200000D03*
%TD*%
D21*
%TO.P,C10,1*%
%TO.N,VCO1CoarsePot1*%
X299770000Y-149160000D03*
D10*
%TO.P,C10,2*%
%TO.N,VCO1CoarsePot3*%
X301770000Y-149160000D03*
%TD*%
D21*
%TO.P,U3,1*%
%TO.N,Net-(R27-Pad1)*%
X285300000Y-135800000D03*
D11*
%TO.P,U3,2,-*%
%TO.N,Net-(U3A--)*%
X285300000Y-138340000D03*
%TO.P,U3,3,+*%
%TO.N,Net-(U2B-+)*%
X285300000Y-140880000D03*
%TO.P,U3,4,V+*%
%TO.N,VCO2IDKPot1*%
X285300000Y-143420000D03*
%TO.P,U3,5,+*%
%TO.N,Net-(U2C-+)*%
X285300000Y-145960000D03*
%TO.P,U3,6,-*%
%TO.N,Net-(U3B--)*%
X285300000Y-148500000D03*
%TO.P,U3,7*%
%TO.N,Net-(R22-Pad1)*%
X285300000Y-151040000D03*
%TO.P,U3,8*%
%TO.N,Net-(U3C--)*%
X292920000Y-151040000D03*
%TO.P,U3,9,-*%
X292920000Y-148500000D03*
%TO.P,U3,10,+*%
%TO.N,VCO3WaveMixPot2*%
X292920000Y-145960000D03*
%TO.P,U3,11,V-*%
%TO.N,VCO1CoarsePot3*%
X292920000Y-143420000D03*
%TO.P,U3,12,+*%
%TO.N,Net-(D5-K)*%
X292920000Y-140880000D03*
%TO.P,U3,13,-*%
%TO.N,Net-(U3D--)*%
X292920000Y-138340000D03*
%TO.P,U3,14*%
X292920000Y-135800000D03*
%TD*%
D21*
%TO.P,U4,1*%
%TO.N,Net-(R47-Pad1)*%
X316880000Y-125100000D03*
D11*
%TO.P,U4,2,-*%
%TO.N,Net-(U4A--)*%
X316880000Y-127640000D03*
%TO.P,U4,3,+*%
%TO.N,Net-(U4A-+)*%
X316880000Y-130180000D03*
%TO.P,U4,4,V+*%
%TO.N,VCO2IDKPot1*%
X316880000Y-132720000D03*
%TO.P,U4,5,+*%
%TO.N,Net-(U4A-+)*%
X316880000Y-135260000D03*
%TO.P,U4,6,-*%
%TO.N,Net-(U4B--)*%
X316880000Y-137800000D03*
%TO.P,U4,7*%
%TO.N,Net-(R46-Pad2)*%
X316880000Y-140340000D03*
%TO.P,U4,8*%
%TO.N,Net-(U4C--)*%
X324500000Y-140340000D03*
%TO.P,U4,9,-*%
X324500000Y-137800000D03*
%TO.P,U4,10,+*%
%TO.N,Net-(U4C-+)*%
X324500000Y-135260000D03*
%TO.P,U4,11,V-*%
%TO.N,VCO1CoarsePot3*%
X324500000Y-132720000D03*
%TO.P,U4,12*%
%TO.N,N/C*%
X324500000Y-130180000D03*
%TO.P,U4,13*%
X324500000Y-127640000D03*
%TO.P,U4,14*%
X324500000Y-125100000D03*
%TD*%
D12*
%TO.P,TH11,1*%
%TO.N,VCO2FMPot1*%
X259230000Y-140800000D03*
D13*
%TO.P,TH11,2*%
%TO.N,Net-(R39-Pad1)*%
X261770000Y-140800000D03*
%TD*%
D19*
%TO.P,D2,1,K*%
%TO.N,Net-(D2-K)*%
X249075000Y-142210000D03*
D20*
%TO.P,D2,2,A*%
%TO.N,Net-(D2-A)*%
X249075000Y-147290000D03*
%TD*%
D15*
%TO.P,J3,1,Pin_1*%
%TO.N,SW2p3*%
X316235000Y-165200000D03*
D16*
%TO.P,J3,2,Pin_2*%
%TO.N,VCO1CoarsePot1*%
X313695000Y-165200000D03*
%TO.P,J3,3,Pin_3*%
%TO.N,VCO3CoarsePot2*%
X311155000Y-165200000D03*
%TO.P,J3,4,Pin_4*%
%TO.N,VCO1CoarsePot3*%
X308615000Y-165200000D03*
%TO.P,J3,5,Pin_5*%
%TO.N,VCO1CoarsePot1*%
X306075000Y-165200000D03*
%TO.P,J3,6,Pin_6*%
%TO.N,VCO3FinePot2*%
X303535000Y-165200000D03*
%TO.P,J3,7,Pin_7*%
%TO.N,VCO1CoarsePot3*%
X300995000Y-165200000D03*
%TO.P,J3,8,Pin_8*%
%TO.N,VCO3FMPot1*%
X298455000Y-165200000D03*
%TO.P,J3,9,Pin_9*%
%TO.N,VCO3FMPot2*%
X295915000Y-165200000D03*
%TO.P,J3,10,Pin_10*%
%TO.N,VCO3FMPot3*%
X293375000Y-165200000D03*
%TO.P,J3,11,Pin_11*%
%TO.N,VCO3PwmPot1*%
X290835000Y-165200000D03*
%TO.P,J3,12,Pin_12*%
%TO.N,VCO1CoarsePot1*%
X288295000Y-165200000D03*
%TO.P,J3,13,Pin_13*%
%TO.N,VCO3PwmPot3*%
X285755000Y-165200000D03*
%TO.P,J3,14,Pin_14*%
%TO.N,VCO3WaveMixPot1*%
X283215000Y-165200000D03*
%TO.P,J3,15,Pin_15*%
%TO.N,VCO3WaveMixPot2*%
X280675000Y-165200000D03*
%TO.P,J3,16,Pin_16*%
%TO.N,VCO3WaveMixPot3*%
X278135000Y-165200000D03*
%TO.P,J3,17,Pin_17*%
%TO.N,cvIn1*%
X275595000Y-165200000D03*
%TO.P,J3,18,Pin_18*%
%TO.N,cvIn2*%
X273055000Y-165200000D03*
%TO.P,J3,19,Pin_19*%
%TO.N,cvIn3*%
X270515000Y-165200000D03*
%TO.P,J3,20,Pin_20*%
%TO.N,fmIn1*%
X267975000Y-165200000D03*
%TO.P,J3,21,Pin_21*%
%TO.N,fmIn2*%
X265435000Y-165200000D03*
%TO.P,J3,22,Pin_22*%
%TO.N,fmIn3*%
X262895000Y-165200000D03*
%TO.P,J3,23,Pin_23*%
%TO.N,VCO2PwmPot2*%
X260355000Y-165200000D03*
%TO.P,J3,24,Pin_24*%
%TO.N,SW1p2*%
X257815000Y-165200000D03*
%TO.P,J3,25,Pin_25*%
%TO.N,SW2p2*%
X255275000Y-165200000D03*
%TO.P,J3,26,Pin_26*%
%TO.N,mixOut*%
X252735000Y-165200000D03*
%TO.P,J3,27,Pin_27*%
%TO.N,unconnected-(J3-Pin_27-Pad27)*%
X250195000Y-165200000D03*
%TO.P,J3,28,Pin_28*%
%TO.N,unconnected-(J3-Pin_28-Pad28)*%
X247655000Y-165200000D03*
%TO.P,J3,29,Pin_29*%
%TO.N,unconnected-(J3-Pin_29-Pad29)*%
X245115000Y-165200000D03*
%TO.P,J3,30,Pin_30*%
%TO.N,unconnected-(J3-Pin_30-Pad30)*%
X242575000Y-165200000D03*
%TO.P,J3,31,Pin_31*%
%TO.N,unconnected-(J3-Pin_31-Pad31)*%
X240035000Y-165200000D03*
%TO.P,J3,32,Pin_32*%
%TO.N,unconnected-(J3-Pin_32-Pad32)*%
X237495000Y-165200000D03*
%TD*%
D12*
%TO.P,TH5,1*%
%TO.N,VCO1FMPot1*%
X242920000Y-76500000D03*
D13*
%TO.P,TH5,2*%
%TO.N,Net-(R8-Pad1)*%
X240380000Y-76500000D03*
%TD*%
D10*
%TO.P,R15,1*%
%TO.N,Net-(D3-A)*%
X245100000Y-115740000D03*
D11*
%TO.P,R15,2*%
%TO.N,VCO1PwmPot1*%
X245100000Y-105580000D03*
%TD*%
D10*
%TO.P,R13,1*%
%TO.N,Net-(R13-Pad1)*%
X299550000Y-141760000D03*
D11*
%TO.P,R13,2*%
%TO.N,VCO3CoarsePot2*%
X312250000Y-141760000D03*
%TD*%
D10*
%TO.P,R20,1*%
%TO.N,VCO1CoarsePot1*%
X306350000Y-97800000D03*
D11*
%TO.P,R20,2*%
%TO.N,Net-(U2B-+)*%
X319050000Y-97800000D03*
%TD*%
D10*
%TO.P,R45,1*%
%TO.N,Net-(U4A--)*%
X306050000Y-113420000D03*
D11*
%TO.P,R45,2*%
%TO.N,VCO1CoarsePot1*%
X306050000Y-123580000D03*
%TD*%
D21*
%TO.P,C9,1*%
%TO.N,VCO2IDKPot1*%
X299720000Y-156760000D03*
D10*
%TO.P,C9,2*%
%TO.N,VCO1CoarsePot1*%
X301720000Y-156760000D03*
%TD*%
%TO.P,R32,1*%
%TO.N,VCO3WaveMixPot3*%
X317550000Y-80000000D03*
D11*
%TO.P,R32,2*%
%TO.N,VCO1CoarsePot1*%
X304850000Y-80000000D03*
%TD*%
D19*
%TO.P,D4,1,K*%
%TO.N,Net-(D4-K)*%
X285120000Y-107400000D03*
D20*
%TO.P,D4,2,A*%
%TO.N,Net-(D4-A)*%
X290200000Y-107400000D03*
%TD*%
D14*
%TO.P,R3,1*%
%TO.N,Net-(R2-Pad2)*%
X285800000Y-95400000D03*
%TO.P,R3,2*%
%TO.N,VCO1CoarsePot1*%
X288340000Y-85240000D03*
%TO.P,R3,3*%
%TO.N,N/C*%
X285800000Y-77620000D03*
%TD*%
D22*
%TO.P,Q5,1,C*%
%TO.N,VCO1CoarsePot3*%
X230230000Y-125060000D03*
D23*
%TO.P,Q5,2,B*%
%TO.N,VCO2FMPot1*%
X231500000Y-125060000D03*
%TO.P,Q5,3,E*%
%TO.N,Net-(Q5-E)*%
X232770000Y-125060000D03*
%TD*%
D10*
%TO.P,C7,1*%
%TO.N,Net-(D5-K)*%
X234655000Y-137065000D03*
%TO.P,C7,2*%
%TO.N,VCO1CoarsePot1*%
X229655000Y-137065000D03*
%TD*%
D19*
%TO.P,D3,1,K*%
%TO.N,Net-(D3-K)*%
X238300000Y-110760000D03*
D20*
%TO.P,D3,2,A*%
%TO.N,Net-(D3-A)*%
X238300000Y-115840000D03*
%TD*%
D10*
%TO.P,R1,1*%
%TO.N,Net-(R1-Pad1)*%
X264270000Y-81500000D03*
D11*
%TO.P,R1,2*%
%TO.N,fmIn1*%
X251570000Y-81500000D03*
%TD*%
D10*
%TO.P,R38,1*%
%TO.N,VCO2IDKPot1*%
X238800000Y-127310000D03*
D11*
%TO.P,R38,2*%
%TO.N,Net-(Q5-E)*%
X238800000Y-119690000D03*
%TD*%
D10*
%TO.P,C8,1*%
%TO.N,Net-(U4A-+)*%
X294700000Y-128500000D03*
%TO.P,C8,2*%
%TO.N,Net-(U3D--)*%
X292200000Y-128500000D03*
%TD*%
%TO.P,R39,1*%
%TO.N,Net-(R39-Pad1)*%
X266300000Y-140700000D03*
D11*
%TO.P,R39,2*%
%TO.N,VCO2CoarsePot2*%
X279000000Y-140700000D03*
%TD*%
D12*
%TO.P,TH1,1*%
%TO.N,VCO1FMPot2*%
X247960000Y-84000000D03*
D13*
%TO.P,TH1,2*%
%TO.N,Net-(R1-Pad1)*%
X245420000Y-84000000D03*
%TD*%
D21*
%TO.P,U1,1*%
%TO.N,Net-(D1-K)*%
X253400000Y-104100000D03*
D11*
%TO.P,U1,2*%
%TO.N,Net-(D1-A)*%
X253400000Y-106640000D03*
%TO.P,U1,3*%
%TO.N,Net-(D3-K)*%
X253400000Y-109180000D03*
%TO.P,U1,4*%
%TO.N,Net-(C5-Pad2)*%
X253400000Y-111720000D03*
%TO.P,U1,5*%
%TO.N,Net-(D5-K)*%
X253400000Y-114260000D03*
%TO.P,U1,6*%
%TO.N,Net-(D5-A)*%
X253400000Y-116800000D03*
%TO.P,U1,7,VSS*%
%TO.N,VCO1CoarsePot1*%
X253400000Y-119340000D03*
%TO.P,U1,8*%
%TO.N,Net-(D2-A)*%
X261020000Y-119340000D03*
%TO.P,U1,9*%
%TO.N,Net-(D2-K)*%
X261020000Y-116800000D03*
%TO.P,U1,10*%
%TO.N,Net-(C6-Pad2)*%
X261020000Y-114260000D03*
%TO.P,U1,11*%
%TO.N,Net-(D4-K)*%
X261020000Y-111720000D03*
%TO.P,U1,12*%
%TO.N,N/C*%
X261020000Y-109180000D03*
%TO.P,U1,13*%
X261020000Y-106640000D03*
%TO.P,U1,14,VDD*%
%TO.N,VCO2IDKPot1*%
X261020000Y-104100000D03*
%TD*%
D12*
%TO.P,TH4,1*%
%TO.N,VCO1FMPot1*%
X245420000Y-76500000D03*
D13*
%TO.P,TH4,2*%
%TO.N,Net-(R7-Pad1)*%
X247960000Y-76500000D03*
%TD*%
D21*
%TO.P,U2,1*%
%TO.N,Net-(U2A--)*%
X272100000Y-76960000D03*
D11*
%TO.P,U2,2,-*%
X272100000Y-79500000D03*
%TO.P,U2,3,+*%
%TO.N,Net-(D1-K)*%
X272100000Y-82040000D03*
%TO.P,U2,4,V+*%
%TO.N,VCO2IDKPot1*%
X272100000Y-84580000D03*
%TO.P,U2,5,+*%
%TO.N,Net-(U2B-+)*%
X272100000Y-87120000D03*
%TO.P,U2,6,-*%
%TO.N,VCO3PwmPot1*%
X272100000Y-89660000D03*
%TO.P,U2,7*%
%TO.N,Net-(D4-A)*%
X272100000Y-92200000D03*
%TO.P,U2,8*%
%TO.N,Net-(D3-A)*%
X279720000Y-92200000D03*
%TO.P,U2,9,-*%
%TO.N,VCO1PwmPot1*%
X279720000Y-89660000D03*
%TO.P,U2,10,+*%
%TO.N,Net-(U2C-+)*%
X279720000Y-87120000D03*
%TO.P,U2,11,V-*%
%TO.N,VCO1CoarsePot3*%
X279720000Y-84580000D03*
%TO.P,U2,12,+*%
%TO.N,Net-(D2-K)*%
X279720000Y-82040000D03*
%TO.P,U2,13,-*%
%TO.N,Net-(U2D--)*%
X279720000Y-79500000D03*
%TO.P,U2,14*%
X279720000Y-76960000D03*
%TD*%
D10*
%TO.P,R33,1*%
%TO.N,mixOut*%
X285300000Y-157440000D03*
D11*
%TO.P,R33,2*%
%TO.N,Net-(U3C--)*%
X292920000Y-157440000D03*
%TD*%
D12*
%TO.P,TH9,1*%
%TO.N,VCO2FMPot2*%
X259300000Y-131900000D03*
D13*
%TO.P,TH9,2*%
%TO.N,Net-(R34-Pad1)*%
X261840000Y-131900000D03*
%TD*%
D10*
%TO.P,R47,1*%
%TO.N,Net-(R47-Pad1)*%
X301050000Y-124380000D03*
D11*
%TO.P,R47,2*%
%TO.N,Net-(U4A--)*%
X301050000Y-111680000D03*
%TD*%
D10*
%TO.P,R43,1*%
%TO.N,VCO1CoarsePot1*%
X311050000Y-128500000D03*
D11*
%TO.P,R43,2*%
%TO.N,Net-(U4A-+)*%
X298350000Y-128500000D03*
%TD*%
D10*
%TO.P,R16,1*%
%TO.N,VCO1CoarsePot1*%
X241620000Y-87500000D03*
D11*
%TO.P,R16,2*%
%TO.N,Net-(U2C-+)*%
X228920000Y-87500000D03*
%TD*%
D19*
%TO.P,D5,1,K*%
%TO.N,Net-(D5-K)*%
X239700000Y-137000000D03*
D20*
%TO.P,D5,2,A*%
%TO.N,Net-(D5-A)*%
X239700000Y-131920000D03*
%TD*%
D10*
%TO.P,R6,1*%
%TO.N,VCO2IDKPot1*%
X293180000Y-77400000D03*
D11*
%TO.P,R6,2*%
%TO.N,Net-(Q1-E)*%
X300800000Y-77400000D03*
%TD*%
D10*
%TO.P,R49,1*%
%TO.N,SW2p3*%
X294150000Y-114080000D03*
D11*
%TO.P,R49,2*%
%TO.N,Net-(R47-Pad1)*%
X294150000Y-124240000D03*
%TD*%
D10*
%TO.P,R7,1*%
%TO.N,Net-(R7-Pad1)*%
X251570000Y-76500000D03*
D11*
%TO.P,R7,2*%
%TO.N,VCO1CoarsePot2*%
X264270000Y-76500000D03*
%TD*%
D10*
%TO.P,R19,1*%
%TO.N,Net-(D4-A)*%
X295360000Y-110480000D03*
D11*
%TO.P,R19,2*%
%TO.N,VCO3PwmPot1*%
X295360000Y-100320000D03*
%TD*%
D22*
%TO.P,Q6,1,C*%
%TO.N,Net-(D5-K)*%
X232695000Y-130565000D03*
D23*
%TO.P,Q6,2,B*%
%TO.N,Net-(Q5-E)*%
X231425000Y-130565000D03*
%TO.P,Q6,3,E*%
%TO.N,VCO1CoarsePot1*%
X230155000Y-130565000D03*
%TD*%
D10*
%TO.P,R14,1*%
%TO.N,Net-(R14-Pad1)*%
X269990000Y-152100000D03*
D11*
%TO.P,R14,2*%
%TO.N,VCO3FinePot2*%
X277610000Y-152100000D03*
%TD*%
D10*
%TO.P,R5,1*%
%TO.N,Net-(R5-Pad1)*%
X270000000Y-157200000D03*
D11*
%TO.P,R5,2*%
%TO.N,fmIn3*%
X257300000Y-157200000D03*
%TD*%
D10*
%TO.P,C2,1*%
%TO.N,Net-(D2-K)*%
X244575000Y-148725000D03*
%TO.P,C2,2*%
%TO.N,VCO1CoarsePot1*%
X239575000Y-148725000D03*
%TD*%
D12*
%TO.P,TH12,1*%
%TO.N,VCO2FMPot1*%
X266650000Y-145700000D03*
D13*
%TO.P,TH12,2*%
%TO.N,Net-(R40-Pad1)*%
X269190000Y-145700000D03*
%TD*%
D10*
%TO.P,R26,1*%
%TO.N,SW1p1*%
X229700000Y-117810000D03*
D11*
%TO.P,R26,2*%
%TO.N,Net-(C5-Pad1)*%
X229700000Y-110190000D03*
%TD*%
D10*
%TO.P,R29,1*%
%TO.N,VCO3WaveMixPot1*%
X274700000Y-112500000D03*
D11*
%TO.P,R29,2*%
%TO.N,Net-(R27-Pad1)*%
X267080000Y-112500000D03*
%TD*%
D10*
%TO.P,R9,1*%
%TO.N,VCO3FMPot1*%
X253075000Y-147645000D03*
D11*
%TO.P,R9,2*%
%TO.N,Net-(R10-Pad1)*%
X253075000Y-157805000D03*
%TD*%
D10*
%TO.P,R41,1*%
%TO.N,Net-(U4B--)*%
X279150000Y-119500000D03*
D11*
%TO.P,R41,2*%
%TO.N,VCO2IDKPot2*%
X266450000Y-119500000D03*
%TD*%
D10*
%TO.P,R28,1*%
%TO.N,SW1p1*%
X277650000Y-114000000D03*
D11*
%TO.P,R28,2*%
%TO.N,VCO1CoarsePot1*%
X290350000Y-114000000D03*
%TD*%
D22*
%TO.P,Q1,1,C*%
%TO.N,VCO1CoarsePot3*%
X297800000Y-83400000D03*
D23*
%TO.P,Q1,2,B*%
%TO.N,VCO1FMPot1*%
X299070000Y-83400000D03*
%TO.P,Q1,3,E*%
%TO.N,Net-(Q1-E)*%
X300340000Y-83400000D03*
%TD*%
D10*
%TO.P,R34,1*%
%TO.N,Net-(R34-Pad1)*%
X266350000Y-127500000D03*
D11*
%TO.P,R34,2*%
%TO.N,fmIn2*%
X279050000Y-127500000D03*
%TD*%
D10*
%TO.P,R27,1*%
%TO.N,Net-(R27-Pad1)*%
X267450000Y-106500000D03*
D11*
%TO.P,R27,2*%
%TO.N,Net-(U3A--)*%
X280150000Y-106500000D03*
%TD*%
D10*
%TO.P,R24,1*%
%TO.N,SW1p3*%
X252490000Y-126900000D03*
D11*
%TO.P,R24,2*%
%TO.N,Net-(R22-Pad1)*%
X260110000Y-126900000D03*
%TD*%
D10*
%TO.P,R37,1*%
%TO.N,Net-(R37-Pad1)*%
X266660000Y-133500000D03*
D11*
%TO.P,R37,2*%
%TO.N,cvIn2*%
X279360000Y-133500000D03*
%TD*%
D14*
%TO.P,R10,1*%
%TO.N,Net-(R10-Pad1)*%
X248600000Y-158675000D03*
%TO.P,R10,2*%
%TO.N,VCO1CoarsePot1*%
X238440000Y-156135000D03*
%TO.P,R10,3*%
%TO.N,N/C*%
X230820000Y-158675000D03*
%TD*%
D12*
%TO.P,TH7,1*%
%TO.N,VCO3FMPot1*%
X261000000Y-147200000D03*
D13*
%TO.P,TH7,2*%
%TO.N,Net-(R13-Pad1)*%
X258460000Y-147200000D03*
%TD*%
D22*
%TO.P,Q2,1,C*%
%TO.N,Net-(D1-K)*%
X300250000Y-88400000D03*
D23*
%TO.P,Q2,2,B*%
%TO.N,Net-(Q1-E)*%
X298980000Y-88400000D03*
%TO.P,Q2,3,E*%
%TO.N,VCO1CoarsePot1*%
X297710000Y-88400000D03*
%TD*%
D12*
%TO.P,TH10,1*%
%TO.N,VCO2FMPot1*%
X259200000Y-136300000D03*
D13*
%TO.P,TH10,2*%
%TO.N,Net-(R37-Pad1)*%
X261740000Y-136300000D03*
%TD*%
D10*
%TO.P,R17,1*%
%TO.N,Net-(D3-K)*%
X236300000Y-106330000D03*
D11*
%TO.P,R17,2*%
%TO.N,VCO1CoarsePot1*%
X236300000Y-93630000D03*
%TD*%
D10*
%TO.P,R52,1*%
%TO.N,VCO1CoarsePot3*%
X306640000Y-150200000D03*
D11*
%TO.P,R52,2*%
%TO.N,Net-(J2-Pin_1)*%
X316800000Y-150200000D03*
%TD*%
D10*
%TO.P,R23,1*%
%TO.N,Net-(U3A--)*%
X316780000Y-90800000D03*
D11*
%TO.P,R23,2*%
%TO.N,VCO1CoarsePot1*%
X306620000Y-90800000D03*
%TD*%
D12*
%TO.P,TH8,1*%
%TO.N,VCO3FMPot1*%
X263980000Y-152100000D03*
D13*
%TO.P,TH8,2*%
%TO.N,Net-(R14-Pad1)*%
X266520000Y-152100000D03*
%TD*%
D10*
%TO.P,R8,1*%
%TO.N,Net-(R8-Pad1)*%
X236730000Y-76500000D03*
D11*
%TO.P,R8,2*%
%TO.N,VCO1FinePot2*%
X229110000Y-76500000D03*
%TD*%
D24*
%TO.N,SW2p2*%
X294170000Y-87488100D03*
X279202000Y-122611000D03*
X257926000Y-134036000D03*
%TO.N,VCO2PwmPot2*%
X277895000Y-160542000D03*
%TO.N,SW1p2*%
X324878000Y-110433000D03*
%TO.N,VCO2FMPot2*%
X279676000Y-117724000D03*
%TO.N,Net-(U4C--)*%
X320880000Y-134183000D03*
X300957000Y-103766000D03*
%TO.N,VCO2IDKPot2*%
X297933000Y-108628000D03*
%TO.N,VCO2FinePot2*%
X276077000Y-129729000D03*
X276173000Y-125369000D03*
%TO.N,VCO2CoarsePot2*%
X276360000Y-140612000D03*
%TO.N,Net-(R35-Pad2)*%
X245035000Y-135165000D03*
%TO.N,fmIn2*%
X273059000Y-137003000D03*
%TO.N,VCO3WaveMixPot1*%
X276042000Y-111163000D03*
X294399000Y-131531000D03*
%TO.N,Net-(R27-Pad1)*%
X285191000Y-131429000D03*
%TO.N,SW1p1*%
X235157000Y-109107000D03*
X253179000Y-102055000D03*
X274092000Y-106454000D03*
%TO.N,Net-(R22-Pad1)*%
X265076000Y-144760000D03*
%TO.N,VCO3PwmPot1*%
X277816000Y-95110200D03*
X292341000Y-161152000D03*
%TO.N,Net-(U3B--)*%
X270045000Y-95861000D03*
%TO.N,Net-(R13-Pad1)*%
X278544000Y-143476000D03*
X279854000Y-137071000D03*
%TO.N,cvIn3*%
X291876000Y-162560000D03*
%TO.N,Net-(R11-Pad1)*%
X257064000Y-138055000D03*
%TO.N,cvIn1*%
X276081000Y-161821000D03*
X272489000Y-161658000D03*
X262469000Y-81798000D03*
%TO.N,fmIn1*%
X261843000Y-83024100D03*
%TO.N,VCO2FMPot1*%
X273226000Y-115051000D03*
X282284000Y-72968400D03*
%TO.N,VCO1FMPot1*%
X290535000Y-73792000D03*
%TO.N,Net-(D4-A)*%
X276771000Y-97594800D03*
X289782000Y-101138000D03*
%TO.N,VCO1CoarsePot3*%
X232948000Y-74262800D03*
X320912000Y-139223000D03*
%TO.N,VCO2IDKPot1*%
X301321000Y-75143800D03*
X261020000Y-93165800D03*
%TO.N,Net-(U2B-+)*%
X297241000Y-147529000D03*
%TO.N,Net-(U2C-+)*%
X271517000Y-96379400D03*
%TO.N,Net-(D2-K)*%
X263702000Y-94317700D03*
%TO.N,VCO1CoarsePot1*%
X227983000Y-95106700D03*
%TO.N,Net-(D1-K)*%
X280177000Y-94801600D03*
X257143000Y-103241000D03*
%TD*%
D25*
%TO.N,SW2p2*%
X255984000Y-135978000D02*
X257926000Y-134036000D01*
X255984000Y-153373000D02*
X255984000Y-135978000D01*
X255275000Y-154082000D02*
X255984000Y-153373000D01*
X255275000Y-165200000D02*
X255275000Y-154082000D01*
X294330000Y-87647300D02*
X294170000Y-87488100D01*
X294330000Y-92533100D02*
X294330000Y-87647300D01*
X283243000Y-103619000D02*
X294330000Y-92533100D01*
X283243000Y-115560000D02*
X283243000Y-103619000D01*
X281751000Y-117052000D02*
X283243000Y-115560000D01*
X281751000Y-120061000D02*
X281751000Y-117052000D01*
X279202000Y-122611000D02*
X281751000Y-120061000D01*
%TO.N,VCO2PwmPot2*%
X289909000Y-148528000D02*
X277895000Y-160542000D01*
X289909000Y-126692000D02*
X289909000Y-148528000D01*
X286895000Y-123678000D02*
X289909000Y-126692000D01*
X286895000Y-116353000D02*
X286895000Y-123678000D01*
X288294000Y-114954000D02*
X286895000Y-116353000D01*
X288294000Y-100977000D02*
X288294000Y-114954000D01*
X296368000Y-92903200D02*
X288294000Y-100977000D01*
X296368000Y-81759700D02*
X296368000Y-92903200D01*
X299295000Y-78833000D02*
X296368000Y-81759700D01*
X299295000Y-74580400D02*
X299295000Y-78833000D01*
X300985000Y-72890600D02*
X299295000Y-74580400D01*
X300985000Y-70800000D02*
X300985000Y-72890600D01*
%TO.N,SW1p2*%
X324878000Y-77222100D02*
X324878000Y-110433000D01*
X316929000Y-69273300D02*
X324878000Y-77222100D01*
X272032000Y-69273300D02*
X316929000Y-69273300D01*
X270505000Y-70800000D02*
X272032000Y-69273300D01*
%TO.N,VCO3WaveMixPot2*%
X291026000Y-147854000D02*
X292920000Y-145960000D01*
X291026000Y-153824000D02*
X291026000Y-147854000D01*
X281176000Y-163673000D02*
X291026000Y-153824000D01*
X280675000Y-163673000D02*
X281176000Y-163673000D01*
X280675000Y-165200000D02*
X280675000Y-163673000D01*
%TO.N,VCO2FMPot2*%
X293365000Y-72326700D02*
X293365000Y-70800000D01*
X294695000Y-73656300D02*
X293365000Y-72326700D01*
X294695000Y-77973800D02*
X294695000Y-73656300D01*
X294452000Y-78216900D02*
X294695000Y-77973800D01*
X294452000Y-85324100D02*
X294452000Y-78216900D01*
X291250000Y-88525600D02*
X294452000Y-85324100D01*
X291250000Y-94408200D02*
X291250000Y-88525600D01*
X282373000Y-103285000D02*
X291250000Y-94408200D01*
X282373000Y-115028000D02*
X282373000Y-103285000D01*
X279676000Y-117724000D02*
X282373000Y-115028000D01*
%TO.N,VCO1FMPot2*%
X247960000Y-82510000D02*
X247960000Y-84000000D01*
X255265000Y-75205000D02*
X247960000Y-82510000D01*
X255265000Y-70800000D02*
X255265000Y-75205000D01*
%TO.N,Net-(U4C--)*%
X324500000Y-137800000D02*
X324500000Y-140340000D01*
X320880000Y-123688000D02*
X300957000Y-103766000D01*
X320880000Y-134183000D02*
X320880000Y-123688000D01*
%TO.N,Net-(R46-Pad2)*%
X319229000Y-137991000D02*
X316880000Y-140340000D01*
X319229000Y-124252000D02*
X319229000Y-137991000D01*
X313277000Y-118300000D02*
X319229000Y-124252000D01*
X311800000Y-118300000D02*
X313277000Y-118300000D01*
%TO.N,Net-(U4C-+)*%
X324230000Y-118030000D02*
X324230000Y-113300000D01*
X324500000Y-118300000D02*
X324230000Y-118030000D01*
%TO.N,Net-(U4A--)*%
X306050000Y-118287000D02*
X306050000Y-113420000D01*
X315403000Y-127640000D02*
X306050000Y-118287000D01*
X316880000Y-127640000D02*
X315403000Y-127640000D01*
%TO.N,VCO2PwmPot1*%
X298445000Y-72326700D02*
X298445000Y-70800000D01*
X298386000Y-72386200D02*
X298445000Y-72326700D01*
X298386000Y-78538200D02*
X298386000Y-72386200D01*
X295305000Y-81618900D02*
X298386000Y-78538200D01*
X295305000Y-92762400D02*
X295305000Y-81618900D01*
X287371000Y-100696000D02*
X295305000Y-92762400D01*
X287371000Y-112772000D02*
X287371000Y-100696000D01*
X283300000Y-116843000D02*
X287371000Y-112772000D01*
X283300000Y-118320000D02*
X283300000Y-116843000D01*
%TO.N,VCO2IDKPot2*%
X297933000Y-101531000D02*
X297933000Y-108628000D01*
X303088000Y-96375200D02*
X297933000Y-101531000D01*
X303088000Y-77843200D02*
X303088000Y-96375200D01*
X308605000Y-72326700D02*
X303088000Y-77843200D01*
X308605000Y-70800000D02*
X308605000Y-72326700D01*
%TO.N,Net-(U4B--)*%
X286700000Y-128480000D02*
X283300000Y-128480000D01*
X288400000Y-130180000D02*
X286700000Y-128480000D01*
%TO.N,VCO2FinePot2*%
X277441000Y-131093000D02*
X276077000Y-129729000D01*
X277441000Y-145158000D02*
X277441000Y-131093000D01*
X277983000Y-145700000D02*
X277441000Y-145158000D01*
X279460000Y-145700000D02*
X277983000Y-145700000D01*
X276173000Y-117565000D02*
X276173000Y-125369000D01*
X279142000Y-114596000D02*
X276173000Y-117565000D01*
X279142000Y-108006000D02*
X279142000Y-114596000D01*
X278648000Y-107512000D02*
X279142000Y-108006000D01*
X278648000Y-104816000D02*
X278648000Y-107512000D01*
X289924000Y-93540700D02*
X278648000Y-104816000D01*
X289924000Y-76505300D02*
X289924000Y-93540700D01*
X285745000Y-72326700D02*
X289924000Y-76505300D01*
X285745000Y-70800000D02*
X285745000Y-72326700D01*
%TO.N,VCO2CoarsePot2*%
X276360000Y-131971000D02*
X276360000Y-140612000D01*
X269840000Y-125452000D02*
X276360000Y-131971000D01*
X269840000Y-103029000D02*
X269840000Y-125452000D01*
X268968000Y-102157000D02*
X269840000Y-103029000D01*
X268968000Y-77527400D02*
X268968000Y-102157000D01*
X271684000Y-74811200D02*
X268968000Y-77527400D01*
X274114000Y-74811200D02*
X271684000Y-74811200D01*
X278125000Y-70800000D02*
X274114000Y-74811200D01*
%TO.N,cvIn2*%
X273055000Y-163318000D02*
X273055000Y-165200000D01*
X281388000Y-154985000D02*
X273055000Y-163318000D01*
X281388000Y-137004000D02*
X281388000Y-154985000D01*
X279360000Y-134977000D02*
X281388000Y-137004000D01*
X279360000Y-133500000D02*
X279360000Y-134977000D01*
%TO.N,Net-(R35-Pad2)*%
X248165000Y-123305000D02*
X248165000Y-118860000D01*
X244025000Y-127445000D02*
X248165000Y-123305000D01*
X244025000Y-134155000D02*
X244025000Y-127445000D01*
X245035000Y-135165000D02*
X244025000Y-134155000D01*
%TO.N,fmIn2*%
X273324000Y-137268000D02*
X273059000Y-137003000D01*
X273324000Y-146602000D02*
X273324000Y-137268000D01*
X268184000Y-151742000D02*
X273324000Y-146602000D01*
X268184000Y-160924000D02*
X268184000Y-151742000D01*
X265435000Y-163673000D02*
X268184000Y-160924000D01*
X265435000Y-165200000D02*
X265435000Y-163673000D01*
%TO.N,Net-(U3C--)*%
X292920000Y-148500000D02*
X292920000Y-151040000D01*
X292920000Y-151040000D02*
X292920000Y-157440000D01*
%TO.N,VCO3WaveMixPot3*%
X322100000Y-79200000D02*
X319425000Y-81875000D01*
X317550000Y-80000000D02*
X319425000Y-81875000D01*
X279662000Y-166727000D02*
X278135000Y-165200000D01*
X317383000Y-166727000D02*
X279662000Y-166727000D01*
X325139000Y-158971000D02*
X317383000Y-166727000D01*
X325139000Y-145315000D02*
X325139000Y-158971000D01*
X319836000Y-140011000D02*
X325139000Y-145315000D01*
X319836000Y-138777000D02*
X319836000Y-140011000D01*
X321956000Y-136656000D02*
X319836000Y-138777000D01*
X321956000Y-133338000D02*
X321956000Y-136656000D01*
X321766000Y-133147000D02*
X321956000Y-133338000D01*
X321766000Y-98427200D02*
X321766000Y-133147000D01*
X319425000Y-96086600D02*
X321766000Y-98427200D01*
X319425000Y-81875000D02*
X319425000Y-96086600D01*
%TO.N,VCO3WaveMixPot1*%
X274706000Y-112500000D02*
X276042000Y-111163000D01*
X274700000Y-112500000D02*
X274706000Y-112500000D01*
X288896000Y-159519000D02*
X283215000Y-165200000D01*
X292956000Y-159519000D02*
X288896000Y-159519000D01*
X294399000Y-158076000D02*
X292956000Y-159519000D01*
X294399000Y-131531000D02*
X294399000Y-158076000D01*
%TO.N,Net-(R27-Pad1)*%
X267080000Y-106870000D02*
X267080000Y-112500000D01*
X267450000Y-106500000D02*
X267080000Y-106870000D01*
X285191000Y-134214000D02*
X285191000Y-131429000D01*
X285300000Y-134323000D02*
X285191000Y-134214000D01*
X285300000Y-135800000D02*
X285300000Y-134323000D01*
%TO.N,SW1p1*%
X267863000Y-70800000D02*
X267965000Y-70800000D01*
X261195000Y-77467800D02*
X267863000Y-70800000D01*
X261195000Y-79503300D02*
X261195000Y-77467800D01*
X251438000Y-89260000D02*
X261195000Y-79503300D01*
X251438000Y-101482000D02*
X251438000Y-89260000D01*
X245084000Y-107837000D02*
X251438000Y-101482000D01*
X236428000Y-107837000D02*
X245084000Y-107837000D01*
X235157000Y-109107000D02*
X236428000Y-107837000D01*
X252606000Y-101482000D02*
X253179000Y-102055000D01*
X251438000Y-101482000D02*
X252606000Y-101482000D01*
X277650000Y-110013000D02*
X274092000Y-106454000D01*
X277650000Y-114000000D02*
X277650000Y-110013000D01*
%TO.N,SW1p3*%
X252490000Y-125457000D02*
X252490000Y-126900000D01*
X256066000Y-121881000D02*
X252490000Y-125457000D01*
X256066000Y-93210800D02*
X256066000Y-121881000D01*
X260735000Y-88541900D02*
X256066000Y-93210800D01*
X260735000Y-82009300D02*
X260735000Y-88541900D01*
X264377000Y-78367400D02*
X260735000Y-82009300D01*
X265478000Y-78367400D02*
X264377000Y-78367400D01*
X273045000Y-70800000D02*
X265478000Y-78367400D01*
%TO.N,Net-(U3A--)*%
X280150000Y-115214000D02*
X280150000Y-106500000D01*
X277654000Y-117710000D02*
X280150000Y-115214000D01*
X277654000Y-123404000D02*
X277654000Y-117710000D01*
X280539000Y-126289000D02*
X277654000Y-123404000D01*
X280539000Y-127810000D02*
X280539000Y-126289000D01*
X283081000Y-130353000D02*
X280539000Y-127810000D01*
X285637000Y-130353000D02*
X283081000Y-130353000D01*
X286777000Y-131493000D02*
X285637000Y-130353000D01*
X286777000Y-138340000D02*
X286777000Y-131493000D01*
X285300000Y-138340000D02*
X286777000Y-138340000D01*
%TO.N,Net-(R22-Pad1)*%
X263272000Y-142956000D02*
X265076000Y-144760000D01*
X263272000Y-131309000D02*
X263272000Y-142956000D01*
X260340000Y-128377000D02*
X263272000Y-131309000D01*
X260110000Y-128377000D02*
X260340000Y-128377000D01*
X260110000Y-127638000D02*
X260110000Y-128377000D01*
X264613000Y-123135000D02*
X260110000Y-127638000D01*
X264613000Y-95506700D02*
X264613000Y-123135000D01*
X265620000Y-94500000D02*
X264613000Y-95506700D01*
X260110000Y-126900000D02*
X260110000Y-127638000D01*
%TO.N,VCO3PwmPot1*%
X273577000Y-90871200D02*
X277816000Y-95110200D01*
X273577000Y-89660000D02*
X273577000Y-90871200D01*
X272100000Y-89660000D02*
X273577000Y-89660000D01*
X292539000Y-161152000D02*
X292341000Y-161152000D01*
X296096000Y-157595000D02*
X292539000Y-161152000D01*
X296096000Y-131355000D02*
X296096000Y-157595000D01*
X296856000Y-130594000D02*
X296096000Y-131355000D01*
X296856000Y-103293000D02*
X296856000Y-130594000D01*
X295360000Y-101797000D02*
X296856000Y-103293000D01*
X295360000Y-100320000D02*
X295360000Y-101797000D01*
%TO.N,Net-(U3B--)*%
X254350000Y-91593300D02*
X254350000Y-88500000D01*
X252920000Y-93023300D02*
X254350000Y-91593300D01*
X252920000Y-94500000D02*
X252920000Y-93023300D01*
X282929000Y-146129000D02*
X285300000Y-148500000D01*
X282929000Y-134980000D02*
X282929000Y-146129000D01*
X270694000Y-122745000D02*
X282929000Y-134980000D01*
X270694000Y-98126000D02*
X270694000Y-122745000D01*
X270045000Y-97477100D02*
X270694000Y-98126000D01*
X270045000Y-95861000D02*
X270045000Y-97477100D01*
%TO.N,VCO1PwmPot1*%
X245100000Y-104103000D02*
X245100000Y-105580000D01*
X244493000Y-103497000D02*
X245100000Y-104103000D01*
X244493000Y-94488400D02*
X244493000Y-103497000D01*
X256344000Y-82638200D02*
X244493000Y-94488400D01*
X256344000Y-76328200D02*
X256344000Y-82638200D01*
X260345000Y-72326700D02*
X256344000Y-76328200D01*
X260345000Y-70800000D02*
X260345000Y-72326700D01*
%TO.N,VCO3CoarsePot2*%
X311155000Y-144332000D02*
X311155000Y-165200000D01*
X312250000Y-143237000D02*
X311155000Y-144332000D01*
X312250000Y-141760000D02*
X312250000Y-143237000D01*
%TO.N,Net-(R13-Pad1)*%
X280510000Y-141509000D02*
X278544000Y-143476000D01*
X280510000Y-137728000D02*
X280510000Y-141509000D01*
X279854000Y-137071000D02*
X280510000Y-137728000D01*
%TO.N,cvIn3*%
X310010000Y-136300000D02*
X312200000Y-136300000D01*
X297342000Y-148968000D02*
X310010000Y-136300000D01*
X297342000Y-157742000D02*
X297342000Y-148968000D01*
X292524000Y-162560000D02*
X297342000Y-157742000D01*
X291876000Y-162560000D02*
X292524000Y-162560000D01*
%TO.N,Net-(R11-Pad1)*%
X257064000Y-149888000D02*
X257064000Y-138055000D01*
X258000000Y-150823000D02*
X257064000Y-149888000D01*
X258000000Y-152200000D02*
X258000000Y-150823000D01*
%TO.N,Net-(R10-Pad1)*%
X249470000Y-157805000D02*
X248600000Y-158675000D01*
X253075000Y-157805000D02*
X249470000Y-157805000D01*
%TO.N,VCO1FinePot2*%
X246118000Y-69273300D02*
X247645000Y-70800000D01*
X236337000Y-69273300D02*
X246118000Y-69273300D01*
X230587000Y-75023300D02*
X236337000Y-69273300D01*
X230587000Y-76500000D02*
X230587000Y-75023300D01*
X229110000Y-76500000D02*
X230587000Y-76500000D01*
%TO.N,fmIn3*%
X257300000Y-158677000D02*
X257300000Y-157200000D01*
X262297000Y-163673000D02*
X257300000Y-158677000D01*
X262895000Y-163673000D02*
X262297000Y-163673000D01*
X262895000Y-165200000D02*
X262895000Y-163673000D01*
%TO.N,cvIn1*%
X276081000Y-163187000D02*
X276081000Y-161821000D01*
X275595000Y-163673000D02*
X276081000Y-163187000D01*
X275595000Y-165200000D02*
X275595000Y-163673000D01*
X272489000Y-156250000D02*
X272489000Y-161658000D01*
X275099000Y-153640000D02*
X272489000Y-156250000D01*
X275099000Y-134324000D02*
X275099000Y-153640000D01*
X268988000Y-128213000D02*
X275099000Y-134324000D01*
X268988000Y-103560000D02*
X268988000Y-128213000D01*
X268053000Y-102625000D02*
X268988000Y-103560000D01*
X268053000Y-87382400D02*
X268053000Y-102625000D01*
X262469000Y-81798000D02*
X268053000Y-87382400D01*
%TO.N,fmIn1*%
X267975000Y-163673000D02*
X267975000Y-165200000D01*
X271637000Y-160011000D02*
X267975000Y-163673000D01*
X271637000Y-155897000D02*
X271637000Y-160011000D01*
X274184000Y-153350000D02*
X271637000Y-155897000D01*
X274184000Y-134983000D02*
X274184000Y-153350000D01*
X268137000Y-128935000D02*
X274184000Y-134983000D01*
X268137000Y-118224000D02*
X268137000Y-128935000D01*
X265586000Y-115673000D02*
X268137000Y-118224000D01*
X265586000Y-101745000D02*
X265586000Y-115673000D01*
X267138000Y-100192000D02*
X265586000Y-101745000D01*
X267138000Y-88319400D02*
X267138000Y-100192000D01*
X261843000Y-83024100D02*
X267138000Y-88319400D01*
%TO.N,Net-(Q5-E)*%
X231425000Y-129138000D02*
X231425000Y-130565000D01*
X232770000Y-127793000D02*
X231425000Y-129138000D01*
X232770000Y-125060000D02*
X232770000Y-127793000D01*
%TO.N,VCO2FMPot1*%
X282284000Y-97154400D02*
X282284000Y-72968400D01*
X277008000Y-102431000D02*
X282284000Y-97154400D01*
X276549000Y-102431000D02*
X277008000Y-102431000D01*
X272986000Y-105994000D02*
X276549000Y-102431000D01*
X272986000Y-114811000D02*
X272986000Y-105994000D01*
X273226000Y-115051000D02*
X272986000Y-114811000D01*
X264267000Y-145837000D02*
X259230000Y-140800000D01*
X266513000Y-145837000D02*
X264267000Y-145837000D01*
X266650000Y-145700000D02*
X266513000Y-145837000D01*
X259200000Y-140770000D02*
X259230000Y-140800000D01*
X259200000Y-136300000D02*
X259200000Y-140770000D01*
%TO.N,Net-(Q3-E)*%
X239767000Y-143720000D02*
X242075000Y-143720000D01*
X238502000Y-142455000D02*
X239767000Y-143720000D01*
X237075000Y-142455000D02*
X238502000Y-142455000D01*
%TO.N,Net-(Q1-E)*%
X300800000Y-81513300D02*
X300800000Y-77400000D01*
X300340000Y-81973300D02*
X300800000Y-81513300D01*
X300340000Y-83400000D02*
X300340000Y-81973300D01*
X300340000Y-85613300D02*
X300340000Y-83400000D01*
X298980000Y-86973300D02*
X300340000Y-85613300D01*
X298980000Y-88400000D02*
X298980000Y-86973300D01*
%TO.N,VCO1FMPot1*%
X247748000Y-78828100D02*
X247920000Y-79000000D01*
X247748000Y-78720900D02*
X247748000Y-78828100D01*
X247641000Y-78720900D02*
X247748000Y-78720900D01*
X245420000Y-76500000D02*
X247641000Y-78720900D01*
X252725000Y-72326700D02*
X252725000Y-70800000D01*
X249708000Y-75343200D02*
X252725000Y-72326700D01*
X249708000Y-76760500D02*
X249708000Y-75343200D01*
X247748000Y-78720900D02*
X249708000Y-76760500D01*
X291703000Y-74959900D02*
X290535000Y-73792000D01*
X291703000Y-80223300D02*
X291703000Y-74959900D01*
X292800000Y-81320000D02*
X291703000Y-80223300D01*
%TO.N,Net-(D5-A)*%
X247987000Y-116800000D02*
X253400000Y-116800000D01*
X243175000Y-121612000D02*
X247987000Y-116800000D01*
X243175000Y-126568000D02*
X243175000Y-121612000D01*
X239700000Y-130043000D02*
X243175000Y-126568000D01*
X239700000Y-131920000D02*
X239700000Y-130043000D01*
%TO.N,Net-(D4-A)*%
X272853000Y-93676700D02*
X276771000Y-97594800D01*
X272100000Y-93676700D02*
X272853000Y-93676700D01*
X272100000Y-92200000D02*
X272100000Y-93676700D01*
X290200000Y-101556000D02*
X290200000Y-107400000D01*
X289782000Y-101138000D02*
X290200000Y-101556000D01*
X295157000Y-110480000D02*
X295360000Y-110480000D01*
X292077000Y-107400000D02*
X295157000Y-110480000D01*
X290200000Y-107400000D02*
X292077000Y-107400000D01*
%TO.N,Net-(D2-A)*%
X261020000Y-120817000D02*
X261020000Y-119340000D01*
X256851000Y-124986000D02*
X261020000Y-120817000D01*
X256851000Y-132992000D02*
X256851000Y-124986000D01*
X251593000Y-138249000D02*
X256851000Y-132992000D01*
X251593000Y-143089000D02*
X251593000Y-138249000D01*
X249269000Y-145413000D02*
X251593000Y-143089000D01*
X249075000Y-145413000D02*
X249269000Y-145413000D01*
X249075000Y-147290000D02*
X249075000Y-145413000D01*
%TO.N,Net-(D1-A)*%
X254877000Y-106640000D02*
X253400000Y-106640000D01*
X254877000Y-93030000D02*
X254877000Y-106640000D01*
X257650000Y-90256700D02*
X254877000Y-93030000D01*
X257650000Y-88380000D02*
X257650000Y-90256700D01*
%TO.N,VCO1CoarsePot3*%
X230230000Y-123633000D02*
X231200000Y-123633000D01*
X230230000Y-125060000D02*
X230230000Y-123633000D01*
X232948000Y-87854700D02*
X232948000Y-74262800D01*
X228787000Y-92015700D02*
X232948000Y-87854700D01*
X228787000Y-94296100D02*
X228787000Y-92015700D01*
X231777000Y-97285800D02*
X228787000Y-94296100D01*
X231777000Y-106942000D02*
X231777000Y-97285800D01*
X231200000Y-107518000D02*
X231777000Y-106942000D01*
X231200000Y-123633000D02*
X231200000Y-107518000D01*
X308121000Y-151681000D02*
X308121000Y-163624000D01*
X306640000Y-150200000D02*
X308121000Y-151681000D01*
X302571000Y-163624000D02*
X308121000Y-163624000D01*
X300995000Y-165200000D02*
X302571000Y-163624000D01*
X308170000Y-163673000D02*
X308121000Y-163624000D01*
X308615000Y-163673000D02*
X308170000Y-163673000D01*
X308615000Y-165200000D02*
X308615000Y-163673000D01*
X278236000Y-83095500D02*
X279720000Y-84580000D01*
X278236000Y-74756200D02*
X278236000Y-83095500D01*
X280665000Y-72326700D02*
X278236000Y-74756200D01*
X280665000Y-70800000D02*
X280665000Y-72326700D01*
X322808000Y-132720000D02*
X324500000Y-132720000D01*
X322733000Y-132645000D02*
X322808000Y-132720000D01*
X322733000Y-109286000D02*
X322733000Y-132645000D01*
X323583000Y-108436000D02*
X322733000Y-109286000D01*
X323583000Y-78592600D02*
X323583000Y-108436000D01*
X319420000Y-74429200D02*
X323583000Y-78592600D01*
X314774000Y-74429200D02*
X319420000Y-74429200D01*
X311145000Y-70800000D02*
X314774000Y-74429200D01*
X237296000Y-123633000D02*
X231200000Y-123633000D01*
X240285000Y-126622000D02*
X237296000Y-123633000D01*
X240285000Y-127975000D02*
X240285000Y-126622000D01*
X237720000Y-130540000D02*
X240285000Y-127975000D01*
X237720000Y-138790000D02*
X237720000Y-130540000D01*
X235648000Y-140862000D02*
X237720000Y-138790000D01*
X235648000Y-144995000D02*
X235648000Y-140862000D01*
X237075000Y-144995000D02*
X235648000Y-144995000D01*
X322808000Y-137327000D02*
X320912000Y-139223000D01*
X322808000Y-132720000D02*
X322808000Y-137327000D01*
%TO.N,VCO2IDKPot1*%
X305097000Y-156760000D02*
X306640000Y-156760000D01*
X303621000Y-158237000D02*
X305097000Y-156760000D01*
X299720000Y-158237000D02*
X303621000Y-158237000D01*
X299720000Y-156760000D02*
X299720000Y-158237000D01*
X301721000Y-75143800D02*
X306065000Y-70800000D01*
X301321000Y-75143800D02*
X301721000Y-75143800D01*
X236793000Y-138197000D02*
X230075000Y-144915000D01*
X236793000Y-129317000D02*
X236793000Y-138197000D01*
X238800000Y-127310000D02*
X236793000Y-129317000D01*
X315091000Y-134509000D02*
X316880000Y-132720000D01*
X315091000Y-136775000D02*
X315091000Y-134509000D01*
X305097000Y-146768000D02*
X315091000Y-136775000D01*
X305097000Y-156760000D02*
X305097000Y-146768000D01*
X261020000Y-104100000D02*
X261020000Y-93165800D01*
%TO.N,Net-(U3D--)*%
X292920000Y-135800000D02*
X292920000Y-138340000D01*
X292200000Y-133603000D02*
X292200000Y-128500000D01*
X292920000Y-134323000D02*
X292200000Y-133603000D01*
X292920000Y-135800000D02*
X292920000Y-134323000D01*
%TO.N,Net-(U4A-+)*%
X318366000Y-133774000D02*
X316880000Y-135260000D01*
X318366000Y-131666000D02*
X318366000Y-133774000D01*
X316880000Y-130180000D02*
X318366000Y-131666000D01*
%TO.N,Net-(D5-K)*%
X233897000Y-136307000D02*
X234655000Y-137065000D01*
X233897000Y-130565000D02*
X233897000Y-136307000D01*
X232695000Y-130565000D02*
X233897000Y-130565000D01*
%TO.N,Net-(C6-Pad1)*%
X322000000Y-88396700D02*
X322000000Y-89750000D01*
X322100000Y-88296700D02*
X322000000Y-88396700D01*
X322100000Y-86820000D02*
X322100000Y-88296700D01*
%TO.N,Net-(C5-Pad2)*%
X251923000Y-111720000D02*
X253400000Y-111720000D01*
X249070000Y-108867000D02*
X251923000Y-111720000D01*
X236832000Y-108867000D02*
X249070000Y-108867000D01*
X236234000Y-109465000D02*
X236832000Y-108867000D01*
X236234000Y-109553000D02*
X236234000Y-109465000D01*
X233287000Y-112500000D02*
X236234000Y-109553000D01*
X232700000Y-112500000D02*
X233287000Y-112500000D01*
%TO.N,Net-(C5-Pad1)*%
X230300000Y-108113000D02*
X230300000Y-106330000D01*
X229700000Y-108713000D02*
X230300000Y-108113000D01*
X229700000Y-110190000D02*
X229700000Y-108713000D01*
%TO.N,Net-(U2D--)*%
X279720000Y-79500000D02*
X279720000Y-76960000D01*
X281256000Y-96094300D02*
X277350000Y-100000000D01*
X281256000Y-81035700D02*
X281256000Y-96094300D01*
X279720000Y-79500000D02*
X281256000Y-81035700D01*
%TO.N,Net-(U2B-+)*%
X274850000Y-97857700D02*
X274850000Y-100000000D01*
X270623000Y-93630900D02*
X274850000Y-97857700D01*
X270623000Y-88596800D02*
X270623000Y-93630900D01*
X272100000Y-87120000D02*
X270623000Y-88596800D01*
X317573000Y-97800000D02*
X319050000Y-97800000D01*
X316069000Y-96295500D02*
X317573000Y-97800000D01*
X305700000Y-96295500D02*
X316069000Y-96295500D01*
X299527000Y-102468000D02*
X305700000Y-96295500D01*
X299527000Y-124945000D02*
X299527000Y-102468000D01*
X299846000Y-125264000D02*
X299527000Y-124945000D01*
X299846000Y-129104000D02*
X299846000Y-125264000D01*
X297241000Y-131709000D02*
X299846000Y-129104000D01*
X297241000Y-147529000D02*
X297241000Y-131709000D01*
%TO.N,Net-(U2A--)*%
X272100000Y-79500000D02*
X272100000Y-76960000D01*
%TO.N,Net-(U2C-+)*%
X272107000Y-96969800D02*
X271517000Y-96379400D01*
X272107000Y-122876000D02*
X272107000Y-96969800D01*
X283780000Y-134549000D02*
X272107000Y-122876000D01*
X283780000Y-144440000D02*
X283780000Y-134549000D01*
X285300000Y-145960000D02*
X283780000Y-144440000D01*
%TO.N,Net-(D2-K)*%
X244575000Y-148587000D02*
X244575000Y-148725000D01*
X249075000Y-144087000D02*
X244575000Y-148587000D01*
X249075000Y-142210000D02*
X249075000Y-144087000D01*
X259543000Y-118277000D02*
X261020000Y-116800000D01*
X259543000Y-119609000D02*
X259543000Y-118277000D01*
X255038000Y-124113000D02*
X259543000Y-119609000D01*
X255038000Y-127107000D02*
X255038000Y-124113000D01*
X250425000Y-131721000D02*
X255038000Y-127107000D01*
X250425000Y-138983000D02*
X250425000Y-131721000D01*
X249075000Y-140333000D02*
X250425000Y-138983000D01*
X249075000Y-142210000D02*
X249075000Y-140333000D01*
X263702000Y-114118000D02*
X263702000Y-94317700D01*
X261020000Y-116800000D02*
X263702000Y-114118000D01*
%TO.N,VCO1CoarsePot1*%
X321060000Y-153180000D02*
X321060000Y-155720000D01*
X239575000Y-155000000D02*
X238440000Y-156135000D01*
X239575000Y-148725000D02*
X239575000Y-155000000D01*
X242075000Y-146225000D02*
X239575000Y-148725000D01*
X242075000Y-144990000D02*
X242075000Y-146225000D01*
X304700000Y-81626700D02*
X304700000Y-85550000D01*
X304850000Y-81476700D02*
X304700000Y-81626700D01*
X304850000Y-80000000D02*
X304850000Y-81476700D01*
X236300000Y-93630000D02*
X236300000Y-92891600D01*
X229655000Y-132492000D02*
X229655000Y-137065000D01*
X230155000Y-131992000D02*
X229655000Y-132492000D01*
X230155000Y-130565000D02*
X230155000Y-131992000D01*
X238500000Y-73341500D02*
X238987000Y-73341500D01*
X237485000Y-72326700D02*
X238500000Y-73341500D01*
X237485000Y-70800000D02*
X237485000Y-72326700D01*
X242564000Y-73341500D02*
X245105000Y-70800000D01*
X238987000Y-73341500D02*
X242564000Y-73341500D01*
X301720000Y-156173000D02*
X301720000Y-156760000D01*
X299727000Y-154180000D02*
X301720000Y-156173000D01*
X299727000Y-150680000D02*
X299727000Y-154180000D01*
X299770000Y-150637000D02*
X299727000Y-150680000D01*
X299770000Y-149160000D02*
X299770000Y-150637000D01*
X238987000Y-84867300D02*
X241620000Y-87500000D01*
X238987000Y-73341500D02*
X238987000Y-84867300D01*
X232515000Y-92891600D02*
X236300000Y-92891600D01*
X231777000Y-93630000D02*
X232515000Y-92891600D01*
X230300000Y-93630000D02*
X231777000Y-93630000D01*
X241620000Y-88500000D02*
X244190000Y-88500000D01*
X241620000Y-88500100D02*
X241620000Y-88500000D01*
X240692000Y-88500100D02*
X241620000Y-88500100D01*
X236300000Y-92891600D02*
X240692000Y-88500100D01*
X241620000Y-88500000D02*
X241620000Y-87500000D01*
X306350000Y-97800000D02*
X306350000Y-102800000D01*
X306350000Y-104277000D02*
X306350000Y-102800000D01*
X313897000Y-111823000D02*
X306350000Y-104277000D01*
X314070000Y-111823000D02*
X313897000Y-111823000D01*
X314070000Y-113300000D02*
X314070000Y-111823000D01*
X321060000Y-150640000D02*
X323600000Y-150640000D01*
X304700000Y-87403300D02*
X304700000Y-85550000D01*
X306620000Y-89323300D02*
X304700000Y-87403300D01*
X306620000Y-90800000D02*
X306620000Y-89323300D01*
X321060000Y-153180000D02*
X321060000Y-150640000D01*
X321060000Y-153180000D02*
X323600000Y-153180000D01*
X227983000Y-129595000D02*
X227983000Y-95106700D01*
X228953000Y-130565000D02*
X227983000Y-129595000D01*
X230155000Y-130565000D02*
X228953000Y-130565000D01*
X245625000Y-127999000D02*
X245625000Y-129020000D01*
X253400000Y-120224000D02*
X245625000Y-127999000D01*
X253400000Y-119340000D02*
X253400000Y-120224000D01*
X243502000Y-144990000D02*
X242075000Y-144990000D01*
X246111000Y-142380000D02*
X243502000Y-144990000D01*
X246111000Y-129506000D02*
X246111000Y-142380000D01*
X245625000Y-129020000D02*
X246111000Y-129506000D01*
X290350000Y-116593000D02*
X290350000Y-114000000D01*
X288400000Y-118543000D02*
X290350000Y-116593000D01*
X288400000Y-120020000D02*
X288400000Y-118543000D01*
X288340000Y-77461700D02*
X288340000Y-85240000D01*
X283205000Y-72326700D02*
X288340000Y-77461700D01*
X283205000Y-70800000D02*
X283205000Y-72326700D01*
X298194000Y-155714000D02*
X299727000Y-154180000D01*
X298194000Y-158119000D02*
X298194000Y-155714000D01*
X292646000Y-163666000D02*
X298194000Y-158119000D01*
X289829000Y-163666000D02*
X292646000Y-163666000D01*
X288295000Y-165200000D02*
X289829000Y-163666000D01*
X313695000Y-163085000D02*
X321060000Y-155720000D01*
X313695000Y-165200000D02*
X313695000Y-163085000D01*
X321060000Y-155720000D02*
X323600000Y-155720000D01*
X299770000Y-149049000D02*
X299770000Y-149160000D01*
X301361000Y-147458000D02*
X299770000Y-149049000D01*
X303130000Y-147458000D02*
X301361000Y-147458000D01*
X313677000Y-136912000D02*
X303130000Y-147458000D01*
X313677000Y-131127000D02*
X313677000Y-136912000D01*
X311050000Y-128500000D02*
X313677000Y-131127000D01*
X307527000Y-124977000D02*
X311050000Y-128500000D01*
X307527000Y-123580000D02*
X307527000Y-124977000D01*
X306050000Y-123580000D02*
X307527000Y-123580000D01*
%TO.N,Net-(D1-K)*%
X301452000Y-94771700D02*
X301580000Y-94900000D01*
X301452000Y-88400000D02*
X301452000Y-94771700D01*
X300250000Y-88400000D02*
X301452000Y-88400000D01*
X275201000Y-89825100D02*
X280177000Y-94801600D01*
X275201000Y-85140900D02*
X275201000Y-89825100D01*
X272100000Y-82040000D02*
X275201000Y-85140900D01*
X257143000Y-95491900D02*
X257143000Y-103241000D01*
X262378000Y-90256700D02*
X257143000Y-95491900D01*
X262730000Y-90256700D02*
X262378000Y-90256700D01*
X262730000Y-88380000D02*
X262730000Y-90256700D01*
%TD*%
M02*
