M48
; DRILL file {KiCad 8.0.7} date 2025-01-16T14:46:26+0000
; FORMAT={-:-/ absolute / metric / decimal}
; #@! TF.CreationDate,2025-01-16T14:46:26+00:00
; #@! TF.GenerationSoftware,Kicad,Pcbnew,8.0.7
; #@! TF.FileFunction,Plated,1,4,PTH
FMAT,2
METRIC
; #@! TA.AperFunction,Plated,PTH,ViaDrill
T1C0.400
; #@! TA.AperFunction,Plated,PTH,ComponentDrill
T2C0.700
; #@! TA.AperFunction,Plated,PTH,ComponentDrill
T3C0.750
; #@! TA.AperFunction,Plated,PTH,ComponentDrill
T4C0.800
; #@! TA.AperFunction,Plated,PTH,ComponentDrill
T5C1.000
; #@! TA.AperFunction,Plated,PTH,ComponentDrill
T6C1.200
%
G90
G05
T1
X260.354Y-160.965
X290.154Y-148.078
T2
X232.706Y-93.802
X232.706Y-96.342
X232.706Y-99.122
X232.706Y-101.662
X248.786Y-127.242
X248.866Y-131.242
X248.866Y-134.392
X251.326Y-127.242
X251.406Y-131.242
X251.406Y-134.392
X276.286Y-98.592
X276.286Y-102.242
X278.826Y-98.592
X278.826Y-102.242
X289.006Y-139.522
X289.006Y-142.062
X292.156Y-77.522
X292.156Y-80.062
X314.506Y-96.742
X314.506Y-99.282
X320.506Y-84.982
X320.506Y-87.522
X320.546Y-90.432
X320.546Y-92.972
T3
X253.559Y-112.912
X253.586Y-118.192
X254.829Y-112.912
X254.856Y-118.192
X256.099Y-112.912
X256.126Y-118.192
X270.466Y-98.742
X270.506Y-93.242
X271.736Y-98.742
X271.776Y-93.242
X273.006Y-98.742
X273.046Y-93.242
X313.476Y-90.982
X313.506Y-85.482
X314.746Y-90.982
X314.776Y-85.482
X316.016Y-90.982
X316.046Y-85.482
T4
X230.386Y-106.242
X231.156Y-116.242
X231.386Y-147.892
X231.386Y-160.592
X232.506Y-78.242
X232.506Y-90.942
X233.006Y-124.662
X233.006Y-134.822
X233.256Y-110.742
X234.426Y-149.742
X235.756Y-110.742
X236.386Y-154.742
X237.506Y-139.742
X237.506Y-144.742
X238.006Y-106.242
X238.506Y-84.432
X238.506Y-92.052
X238.506Y-94.932
X238.506Y-102.552
X238.806Y-78.492
X238.806Y-80.992
X238.886Y-127.242
X243.306Y-78.742
X243.856Y-116.242
X244.006Y-83.892
X244.006Y-96.592
X244.006Y-99.392
X244.006Y-112.092
X244.006Y-154.742
X244.586Y-149.742
X245.506Y-134.042
X245.506Y-146.742
X246.506Y-127.242
X247.926Y-84.742
X249.006Y-89.502
X249.006Y-92.042
X249.006Y-94.582
X249.006Y-97.122
X249.006Y-99.662
X249.006Y-102.202
X249.006Y-104.742
X250.006Y-111.742
X250.006Y-119.362
X251.886Y-139.702
X251.886Y-142.242
X251.886Y-144.782
X251.886Y-147.322
X251.886Y-149.862
X251.886Y-152.402
X251.886Y-154.942
X253.756Y-123.552
X253.786Y-134.242
X254.306Y-129.242
X256.006Y-78.742
X256.256Y-123.552
X256.626Y-89.502
X256.626Y-92.042
X256.626Y-94.582
X256.626Y-97.122
X256.626Y-99.662
X256.626Y-102.202
X256.626Y-104.742
X258.086Y-84.742
X259.506Y-139.702
X259.506Y-142.242
X259.506Y-144.782
X259.506Y-147.322
X259.506Y-149.862
X259.506Y-152.402
X259.506Y-154.942
X259.696Y-91.742
X260.006Y-111.052
X260.006Y-123.752
X260.846Y-85.742
X261.406Y-134.242
X264.446Y-156.242
X264.756Y-140.242
X264.756Y-152.942
X266.506Y-95.742
X266.506Y-100.742
X267.006Y-129.242
X267.316Y-91.742
X271.006Y-85.742
X271.756Y-140.542
X271.756Y-153.242
X272.066Y-156.242
X273.681Y-87.017
X273.886Y-112.002
X273.886Y-114.542
X273.886Y-117.082
X273.886Y-119.622
X273.886Y-122.162
X273.886Y-124.702
X273.886Y-127.242
X275.006Y-156.242
X276.346Y-93.742
X277.506Y-156.242
X281.506Y-112.002
X281.506Y-114.542
X281.506Y-117.082
X281.506Y-119.622
X281.506Y-122.162
X281.506Y-124.702
X281.506Y-127.242
X281.656Y-103.742
X282.156Y-98.242
X282.926Y-134.892
X284.006Y-138.042
X284.006Y-150.742
X284.656Y-131.242
X285.886Y-110.742
X285.926Y-115.742
X285.926Y-120.742
X286.006Y-124.242
X286.381Y-87.017
X286.506Y-93.742
X289.506Y-144.892
X289.506Y-157.592
X291.806Y-84.242
X293.086Y-134.892
X294.356Y-103.742
X294.856Y-98.242
X296.086Y-115.742
X296.086Y-120.742
X296.166Y-124.242
X296.306Y-137.742
X296.506Y-89.742
X296.506Y-92.242
X297.356Y-131.242
X298.586Y-110.742
X298.636Y-147.382
X298.636Y-149.382
X298.636Y-153.382
X298.636Y-155.382
X302.206Y-89.617
X302.206Y-92.157
X302.206Y-94.697
X302.206Y-97.237
X302.206Y-99.777
X302.206Y-102.317
X302.206Y-104.857
X302.506Y-110.042
X302.506Y-122.742
X304.506Y-84.242
X305.976Y-147.882
X306.056Y-154.882
X307.426Y-110.162
X307.426Y-120.322
X307.426Y-123.662
X307.426Y-133.822
X309.006Y-137.742
X309.826Y-89.617
X309.826Y-92.157
X309.826Y-94.697
X309.826Y-97.237
X309.826Y-99.777
X309.826Y-102.317
X309.826Y-104.857
X310.006Y-142.242
X312.006Y-79.482
X314.616Y-101.762
X314.616Y-114.462
X316.136Y-147.882
X316.216Y-154.882
X317.006Y-79.482
X317.626Y-142.242
X320.506Y-96.162
X320.506Y-106.322
X320.506Y-109.742
X320.506Y-122.442
X320.506Y-125.662
X320.506Y-135.822
X321.095Y-74.813
X321.095Y-82.433
T5
X237.485Y-70.8
X237.495Y-165.2
X240.025Y-70.8
X240.035Y-165.2
X242.565Y-70.8
X242.575Y-165.2
X245.105Y-70.8
X245.115Y-165.2
X247.645Y-70.8
X247.655Y-165.2
X250.185Y-70.8
X250.195Y-165.2
X252.725Y-70.8
X252.735Y-165.2
X255.265Y-70.8
X255.275Y-165.2
X257.805Y-70.8
X257.815Y-165.2
X260.006Y-78.242
X260.345Y-70.8
X260.355Y-165.2
X262.885Y-70.8
X262.895Y-165.2
X265.425Y-70.8
X265.435Y-165.2
X267.965Y-70.8
X267.975Y-165.2
X270.166Y-80.782
X270.505Y-70.8
X270.515Y-165.2
X273.045Y-70.8
X273.055Y-165.2
X275.585Y-70.8
X275.595Y-165.2
X276.991Y-144.877
X277.786Y-78.242
X278.125Y-70.8
X278.135Y-165.2
X279.531Y-134.717
X279.531Y-152.497
X280.665Y-70.8
X280.675Y-165.2
X283.205Y-70.8
X283.215Y-165.2
X285.745Y-70.8
X285.755Y-165.2
X288.285Y-70.8
X288.295Y-165.2
X290.825Y-70.8
X290.835Y-165.2
X293.365Y-70.8
X293.375Y-165.2
X295.905Y-70.8
X295.915Y-165.2
X298.445Y-70.8
X298.455Y-165.2
X300.985Y-70.8
X300.995Y-165.2
X303.525Y-70.8
X303.535Y-165.2
X306.065Y-70.8
X306.075Y-165.2
X308.605Y-70.8
X308.615Y-165.2
X311.145Y-70.8
X311.155Y-165.2
X312.161Y-127.297
X313.685Y-70.8
X313.695Y-165.2
X314.701Y-117.137
X314.701Y-134.917
X316.225Y-70.8
X316.235Y-165.2
X320.466Y-147.582
X320.466Y-150.122
X320.466Y-152.662
X320.466Y-155.202
X320.466Y-157.742
X323.006Y-147.582
X323.006Y-150.122
X323.006Y-152.662
X323.006Y-155.202
X323.006Y-157.742
T6
X232.506Y-137.902
X232.506Y-142.982
X236.166Y-134.242
X241.246Y-134.242
X269.006Y-109.242
X269.006Y-114.322
X282.166Y-79.242
X287.246Y-79.242
X308.506Y-79.742
X308.506Y-84.822
M30
