%TF.GenerationSoftware,KiCad,Pcbnew,8.0.7*%
%TF.CreationDate,2025-01-11T15:45:07+00:00*%
%TF.ProjectId,MAIN,4d41494e-2e6b-4696-9361-645f70636258,rev?*%
%TF.SameCoordinates,Original*%
%TF.FileFunction,Copper,L3,Inr*%
%TF.FilePolarity,Positive*%
%FSLAX46Y46*%
G04 Gerber Fmt 4.6, Leading zero omitted, Abs format (unit mm)*
G04 Created by KiCad (PCBNEW 8.0.7) date 2025-01-11 15:45:07*
%MOMM*%
%LPD*%
G01*
G04 APERTURE LIST*
%TA.AperFunction,ComponentPad*%
%ADD10C,1.600000*%
%TD*%
%TA.AperFunction,ComponentPad*%
%ADD11R,1.050000X1.500000*%
%TD*%
%TA.AperFunction,ComponentPad*%
%ADD12O,1.050000X1.500000*%
%TD*%
%TA.AperFunction,ComponentPad*%
%ADD13O,1.600000X1.600000*%
%TD*%
%TA.AperFunction,ComponentPad*%
%ADD14R,2.400000X2.400000*%
%TD*%
%TA.AperFunction,ComponentPad*%
%ADD15O,2.400000X2.400000*%
%TD*%
%TA.AperFunction,ComponentPad*%
%ADD16R,1.700000X1.700000*%
%TD*%
%TA.AperFunction,ComponentPad*%
%ADD17O,1.700000X1.700000*%
%TD*%
%TA.AperFunction,ComponentPad*%
%ADD18C,1.400000*%
%TD*%
%TA.AperFunction,ComponentPad*%
%ADD19O,1.400000X1.400000*%
%TD*%
%TA.AperFunction,ComponentPad*%
%ADD20C,1.800000*%
%TD*%
%TA.AperFunction,ComponentPad*%
%ADD21R,1.600000X1.600000*%
%TD*%
G04 APERTURE END LIST*
D10*
%TO.N,Net-(U4B-+)*%
%TO.C,C4*%
X256256194Y-123552182D03*
%TO.N,Net-(U4A--)*%
X253756194Y-123552182D03*
%TD*%
%TO.N,Net-(D5-K)*%
%TO.C,C7*%
X312006194Y-79482182D03*
%TO.N,VCO1CoarsePot1*%
X317006194Y-79482182D03*
%TD*%
D11*
%TO.N,Net-(D5-K)*%
%TO.C,Q6*%
X313506194Y-85482182D03*
D12*
%TO.N,Net-(Q5-E)*%
X314776194Y-85482182D03*
%TO.N,VCO1CoarsePot1*%
X316046194Y-85482182D03*
%TD*%
D10*
%TO.N,VCO1CoarsePot1*%
%TO.C,R20*%
X260006194Y-111052182D03*
D13*
%TO.N,Net-(U4B-+)*%
X260006194Y-123752182D03*
%TD*%
D10*
%TO.N,Net-(D3-K)*%
%TO.C,R17*%
X286381194Y-87017182D03*
D13*
%TO.N,VCO1CoarsePot1*%
X273681194Y-87017182D03*
%TD*%
D10*
%TO.N,Net-(U3D--)*%
%TO.C,R42*%
X285926194Y-115742182D03*
D13*
%TO.N,VCO2PwmPot1*%
X296086194Y-115742182D03*
%TD*%
D14*
%TO.N,Net-(D2-K)*%
%TO.C,D2*%
X232506194Y-142982182D03*
D15*
%TO.N,Net-(D2-A)*%
X232506194Y-137902182D03*
%TD*%
D11*
%TO.N,VCO1CoarsePot3*%
%TO.C,Q1*%
X270506194Y-93242182D03*
D12*
%TO.N,VCO1FMPot1*%
X271776194Y-93242182D03*
%TO.N,Net-(Q1-E)*%
X273046194Y-93242182D03*
%TD*%
D10*
%TO.N,Net-(R27-Pad1)*%
%TO.C,R27*%
X231386194Y-160592182D03*
D13*
%TO.N,Net-(U4B--)*%
X231386194Y-147892182D03*
%TD*%
D16*
%TO.N,VCO1CoarsePot1*%
%TO.C,J1*%
X237485000Y-70800000D03*
D17*
%TO.N,VCO1CoarsePot2*%
X240025000Y-70800000D03*
%TO.N,VCO1CoarsePot3*%
X242565000Y-70800000D03*
%TO.N,VCO1CoarsePot1*%
X245105000Y-70800000D03*
%TO.N,VCO1FinePot2*%
X247645000Y-70800000D03*
%TO.N,VCO1CoarsePot3*%
X250185000Y-70800000D03*
%TO.N,VCO1FMPot1*%
X252725000Y-70800000D03*
%TO.N,VCO1FMPot2*%
X255265000Y-70800000D03*
%TO.N,VCO1FMPot3*%
X257805000Y-70800000D03*
%TO.N,VCO1PwmPot1*%
X260345000Y-70800000D03*
%TO.N,VCO1CoarsePot1*%
X262885000Y-70800000D03*
%TO.N,VCO1PwmPot3*%
X265425000Y-70800000D03*
%TO.N,SW1p1*%
X267965000Y-70800000D03*
%TO.N,SW1p2*%
X270505000Y-70800000D03*
%TO.N,SW1p3*%
X273045000Y-70800000D03*
%TO.N,VCO1CoarsePot1*%
X275585000Y-70800000D03*
%TO.N,VCO2CoarsePot2*%
X278125000Y-70800000D03*
%TO.N,VCO1CoarsePot3*%
X280665000Y-70800000D03*
%TO.N,VCO1CoarsePot1*%
X283205000Y-70800000D03*
%TO.N,VCO2FinePot2*%
X285745000Y-70800000D03*
%TO.N,VCO1CoarsePot3*%
X288285000Y-70800000D03*
%TO.N,VCO2FMPot1*%
X290825000Y-70800000D03*
%TO.N,VCO2FMPot2*%
X293365000Y-70800000D03*
%TO.N,VCO2FMPot3*%
X295905000Y-70800000D03*
%TO.N,VCO2PwmPot1*%
X298445000Y-70800000D03*
%TO.N,VCO2PwmPot2*%
X300985000Y-70800000D03*
%TO.N,VCO2PwmPot3*%
X303525000Y-70800000D03*
%TO.N,VCO2IDKPot1*%
X306065000Y-70800000D03*
%TO.N,VCO2IDKPot2*%
X308605000Y-70800000D03*
%TO.N,VCO1CoarsePot3*%
X311145000Y-70800000D03*
%TO.N,SW2p1*%
X313685000Y-70800000D03*
%TO.N,SW2p2*%
X316225000Y-70800000D03*
%TD*%
D10*
%TO.N,Net-(R4-Pad1)*%
%TO.C,R4*%
X281656194Y-103742182D03*
D13*
%TO.N,cvIn1*%
X294356194Y-103742182D03*
%TD*%
D10*
%TO.N,Net-(U2B--)*%
%TO.C,R18*%
X247926194Y-84742182D03*
D13*
%TO.N,VCO1CoarsePot1*%
X258086194Y-84742182D03*
%TD*%
D10*
%TO.N,Net-(C6-Pad1)*%
%TO.C,C6*%
X277506192Y-156242182D03*
%TO.N,Net-(C6-Pad2)*%
X275006192Y-156242182D03*
%TD*%
%TO.N,VCO3WaveMixPot3*%
%TO.C,R31*%
X264446192Y-156242182D03*
D13*
%TO.N,Net-(C6-Pad1)*%
X272066192Y-156242182D03*
%TD*%
D18*
%TO.N,VCO2FMPot1*%
%TO.C,TH11*%
X314506194Y-96742182D03*
D19*
%TO.N,Net-(R39-Pad1)*%
X314506194Y-99282182D03*
%TD*%
D20*
%TO.N,Net-(R10-Pad1)*%
%TO.C,R10*%
X279531192Y-134717182D03*
%TO.N,VCO1CoarsePot1*%
X276991192Y-144877182D03*
%TO.N,N/C*%
X279531192Y-152497182D03*
%TD*%
D10*
%TO.N,VCO1FMPot1*%
%TO.C,R2*%
X276346194Y-93742182D03*
D13*
%TO.N,Net-(R2-Pad2)*%
X286506194Y-93742182D03*
%TD*%
D18*
%TO.N,VCO2FMPot2*%
%TO.C,TH9*%
X292156194Y-77522182D03*
D19*
%TO.N,Net-(R34-Pad1)*%
X292156194Y-80062182D03*
%TD*%
D10*
%TO.N,Net-(U3C-+)*%
%TO.C,R48*%
X296166194Y-124242182D03*
D13*
%TO.N,VCO1CoarsePot1*%
X286006194Y-124242182D03*
%TD*%
D20*
%TO.N,Net-(R2-Pad2)*%
%TO.C,R3*%
X260006194Y-78242182D03*
%TO.N,VCO1CoarsePot1*%
X270166194Y-80782182D03*
%TO.N,N/C*%
X277786194Y-78242182D03*
%TD*%
D10*
%TO.N,Net-(R39-Pad1)*%
%TO.C,R39*%
X314616194Y-101762182D03*
D13*
%TO.N,VCO2CoarsePot2*%
X314616194Y-114462182D03*
%TD*%
D10*
%TO.N,Net-(D4-K)*%
%TO.C,R21*%
X245506194Y-134042182D03*
D13*
%TO.N,VCO1CoarsePot1*%
X245506194Y-146742182D03*
%TD*%
D10*
%TO.N,VCO3FMPot1*%
%TO.C,R9*%
X293086194Y-134892182D03*
D13*
%TO.N,Net-(R10-Pad1)*%
X282926194Y-134892182D03*
%TD*%
D10*
%TO.N,Net-(U3B--)*%
%TO.C,R45*%
X307426194Y-133822182D03*
D13*
%TO.N,VCO1CoarsePot1*%
X307426194Y-123662182D03*
%TD*%
D11*
%TO.N,Net-(D2-K)*%
%TO.C,Q4*%
X253558666Y-112912182D03*
D12*
%TO.N,Net-(Q3-E)*%
X254828666Y-112912182D03*
%TO.N,VCO1CoarsePot1*%
X256098666Y-112912182D03*
%TD*%
D10*
%TO.N,Net-(C5-Pad1)*%
%TO.C,C5*%
X233256194Y-110742182D03*
%TO.N,Net-(C5-Pad2)*%
X235756194Y-110742182D03*
%TD*%
%TO.N,Net-(D3-A)*%
%TO.C,R15*%
X271006194Y-85742182D03*
D13*
%TO.N,VCO1PwmPot1*%
X260846194Y-85742182D03*
%TD*%
D10*
%TO.N,Net-(D4-A)*%
%TO.C,R19*%
X233006194Y-134822182D03*
D13*
%TO.N,VCO3PwmPot1*%
X233006194Y-124662182D03*
%TD*%
D10*
%TO.N,SW1p3*%
%TO.C,R24*%
X238506194Y-102552182D03*
D13*
%TO.N,Net-(R22-Pad1)*%
X238506194Y-94932182D03*
%TD*%
D10*
%TO.N,mixOut*%
%TO.C,R33*%
X238886194Y-127242182D03*
D13*
%TO.N,Net-(U4D--)*%
X246506194Y-127242182D03*
%TD*%
D21*
%TO.N,Net-(U2A--)*%
%TO.C,U2*%
X249006194Y-89502182D03*
D13*
X249006194Y-92042182D03*
%TO.N,Net-(D1-K)*%
X249006194Y-94582182D03*
%TO.N,VCO2IDKPot1*%
X249006194Y-97122182D03*
%TO.N,Net-(U2B-+)*%
X249006194Y-99662182D03*
%TO.N,Net-(U2B--)*%
X249006194Y-102202182D03*
%TO.N,Net-(R22-Pad1)*%
X249006194Y-104742182D03*
%TO.N,Net-(D3-A)*%
X256626194Y-104742182D03*
%TO.N,VCO1PwmPot1*%
X256626194Y-102202182D03*
%TO.N,Net-(U2B-+)*%
X256626194Y-99662182D03*
%TO.N,VCO1CoarsePot3*%
X256626194Y-97122182D03*
%TO.N,VCO1CoarsePot1*%
X256626194Y-94582182D03*
X256626194Y-92042182D03*
%TO.N,unconnected-(U2-Pad14)*%
X256626194Y-89502182D03*
%TD*%
D16*
%TO.N,SW2p3*%
%TO.C,J3*%
X316235000Y-165200000D03*
D17*
%TO.N,VCO1CoarsePot1*%
X313695000Y-165200000D03*
%TO.N,VCO3CoarsePot2*%
X311155000Y-165200000D03*
%TO.N,VCO1CoarsePot3*%
X308615000Y-165200000D03*
%TO.N,VCO1CoarsePot1*%
X306075000Y-165200000D03*
%TO.N,VCO3FinePot2*%
X303535000Y-165200000D03*
%TO.N,VCO1CoarsePot3*%
X300995000Y-165200000D03*
%TO.N,VCO3FMPot1*%
X298455000Y-165200000D03*
%TO.N,VCO3FMPot2*%
X295915000Y-165200000D03*
%TO.N,VCO3FMPot3*%
X293375000Y-165200000D03*
%TO.N,VCO3PwmPot1*%
X290835000Y-165200000D03*
%TO.N,VCO1CoarsePot1*%
X288295000Y-165200000D03*
%TO.N,VCO3PwmPot3*%
X285755000Y-165200000D03*
%TO.N,VCO3WaveMixPot1*%
X283215000Y-165200000D03*
%TO.N,VCO3WaveMixPot2*%
X280675000Y-165200000D03*
%TO.N,VCO3WaveMixPot3*%
X278135000Y-165200000D03*
%TO.N,cvIn1*%
X275595000Y-165200000D03*
%TO.N,cvIn2*%
X273055000Y-165200000D03*
%TO.N,cvIn3*%
X270515000Y-165200000D03*
%TO.N,fmIn1*%
X267975000Y-165200000D03*
%TO.N,fmIn2*%
X265435000Y-165200000D03*
%TO.N,fmIn3*%
X262895000Y-165200000D03*
%TO.N,VCO2PwmPot2*%
X260355000Y-165200000D03*
%TO.N,SW1p2*%
X257815000Y-165200000D03*
%TO.N,SW2p2*%
X255275000Y-165200000D03*
%TO.N,mixOut*%
X252735000Y-165200000D03*
%TO.N,unconnected-(J3-Pin_27-Pad27)*%
X250195000Y-165200000D03*
%TO.N,unconnected-(J3-Pin_28-Pad28)*%
X247655000Y-165200000D03*
%TO.N,unconnected-(J3-Pin_29-Pad29)*%
X245115000Y-165200000D03*
%TO.N,unconnected-(J3-Pin_30-Pad30)*%
X242575000Y-165200000D03*
%TO.N,unconnected-(J3-Pin_31-Pad31)*%
X240035000Y-165200000D03*
%TO.N,unconnected-(J3-Pin_32-Pad32)*%
X237495000Y-165200000D03*
%TD*%
D20*
%TO.N,Net-(R35-Pad2)*%
%TO.C,R36*%
X314701194Y-117137182D03*
%TO.N,VCO1CoarsePot1*%
X312161194Y-127297182D03*
%TO.N,N/C*%
X314701194Y-134917182D03*
%TD*%
D21*
%TO.N,Net-(D1-K)*%
%TO.C,U1*%
X273886194Y-112002182D03*
D13*
%TO.N,Net-(D1-A)*%
X273886194Y-114542182D03*
%TO.N,Net-(D3-K)*%
X273886194Y-117082182D03*
%TO.N,Net-(C5-Pad2)*%
X273886194Y-119622182D03*
%TO.N,Net-(D5-K)*%
X273886194Y-122162182D03*
%TO.N,Net-(D5-A)*%
X273886194Y-124702182D03*
%TO.N,VCO1CoarsePot1*%
X273886194Y-127242182D03*
%TO.N,Net-(D2-A)*%
X281506194Y-127242182D03*
%TO.N,Net-(D2-K)*%
X281506194Y-124702182D03*
%TO.N,Net-(C6-Pad2)*%
X281506194Y-122162182D03*
%TO.N,Net-(D4-K)*%
X281506194Y-119622182D03*
%TO.N,N/C*%
X281506194Y-117082182D03*
X281506194Y-114542182D03*
%TO.N,VCO2IDKPot1*%
X281506194Y-112002182D03*
%TD*%
D10*
%TO.N,VCO1CoarsePot1*%
%TO.C,R43*%
X284656194Y-131242182D03*
D13*
%TO.N,Net-(U3B-+)*%
X297356194Y-131242182D03*
%TD*%
D18*
%TO.N,VCO3FMPot1*%
%TO.C,TH8*%
X248866194Y-134392182D03*
D19*
%TO.N,Net-(R14-Pad1)*%
X251406194Y-134392182D03*
%TD*%
D11*
%TO.N,VCO1CoarsePot3*%
%TO.C,Q3*%
X256126194Y-118192182D03*
D12*
%TO.N,VCO3FMPot1*%
X254856194Y-118192182D03*
%TO.N,Net-(Q3-E)*%
X253586194Y-118192182D03*
%TD*%
D10*
%TO.N,VCO2IDKPot1*%
%TO.C,R12*%
X250006194Y-119362182D03*
D13*
%TO.N,Net-(Q3-E)*%
X250006194Y-111742182D03*
%TD*%
D10*
%TO.N,VCO2IDKPot1*%
%TO.C,R38*%
X310006194Y-142242182D03*
D13*
%TO.N,Net-(Q5-E)*%
X317626194Y-142242182D03*
%TD*%
D10*
%TO.N,SW2p1*%
%TO.C,R50*%
X320506194Y-96162182D03*
D13*
%TO.N,Net-(U3C--)*%
X320506194Y-106322182D03*
%TD*%
D10*
%TO.N,VCO2FMPot1*%
%TO.C,R35*%
X307426194Y-110162182D03*
D13*
%TO.N,Net-(R35-Pad2)*%
X307426194Y-120322182D03*
%TD*%
D11*
%TO.N,Net-(D1-K)*%
%TO.C,Q2*%
X273006194Y-98742182D03*
D12*
%TO.N,Net-(Q1-E)*%
X271736194Y-98742182D03*
%TO.N,VCO1CoarsePot1*%
X270466194Y-98742182D03*
%TD*%
D10*
%TO.N,Net-(R13-Pad1)*%
%TO.C,R13*%
X289506194Y-144892182D03*
D13*
%TO.N,VCO3CoarsePot2*%
X289506194Y-157592182D03*
%TD*%
D10*
%TO.N,Net-(U3D--)*%
%TO.C,R44*%
X285926194Y-120742182D03*
D13*
%TO.N,VCO1CoarsePot1*%
X296086194Y-120742182D03*
%TD*%
D14*
%TO.N,Net-(D1-K)*%
%TO.C,D1*%
X269006194Y-109242182D03*
D15*
%TO.N,Net-(D1-A)*%
X269006194Y-114322182D03*
%TD*%
D21*
%TO.N,VCO2IDKPot1*%
%TO.C,C9*%
X298636194Y-155382182D03*
D10*
%TO.N,VCO1CoarsePot1*%
X298636194Y-153382182D03*
%TD*%
D18*
%TO.N,VCO1FMPot2*%
%TO.C,TH1*%
X276286194Y-98592182D03*
D19*
%TO.N,Net-(R1-Pad1)*%
X278826194Y-98592182D03*
%TD*%
D14*
%TO.N,Net-(D4-K)*%
%TO.C,D4*%
X241246194Y-134242182D03*
D15*
%TO.N,Net-(D4-A)*%
X236166194Y-134242182D03*
%TD*%
D18*
%TO.N,VCO3FMPot2*%
%TO.C,TH3*%
X248786194Y-127242182D03*
D19*
%TO.N,Net-(R5-Pad1)*%
X251326194Y-127242182D03*
%TD*%
D18*
%TO.N,VCO1FMPot1*%
%TO.C,TH5*%
X232706194Y-101662182D03*
D19*
%TO.N,Net-(R8-Pad1)*%
X232706194Y-99122182D03*
%TD*%
D10*
%TO.N,Net-(R14-Pad1)*%
%TO.C,R14*%
X253786194Y-134242182D03*
D13*
%TO.N,VCO3FinePot2*%
X261406194Y-134242182D03*
%TD*%
D11*
%TO.N,VCO1CoarsePot3*%
%TO.C,Q5*%
X316016194Y-90982182D03*
D12*
%TO.N,VCO2FMPot1*%
X314746194Y-90982182D03*
%TO.N,Net-(Q5-E)*%
X313476194Y-90982182D03*
%TD*%
D18*
%TO.N,VCO2FMPot1*%
%TO.C,TH10*%
X320546194Y-90432182D03*
D19*
%TO.N,Net-(R37-Pad1)*%
X320546194Y-92972182D03*
%TD*%
D10*
%TO.N,Net-(D2-K)*%
%TO.C,C2*%
X237506194Y-139742182D03*
%TO.N,VCO1CoarsePot1*%
X237506194Y-144742182D03*
%TD*%
D16*
%TO.N,Net-(J2-Pin_1)*%
%TO.C,J2*%
X320466194Y-147582182D03*
D17*
X323006194Y-147582182D03*
%TO.N,VCO1CoarsePot1*%
X320466194Y-150122182D03*
X323006194Y-150122182D03*
X320466194Y-152662182D03*
X323006194Y-152662182D03*
X320466194Y-155202182D03*
X323006194Y-155202182D03*
%TO.N,Net-(J2-Pin_10)*%
X320466194Y-157742182D03*
X323006194Y-157742182D03*
%TD*%
D21*
%TO.N,Net-(U3A--)*%
%TO.C,U3*%
X302206194Y-89617182D03*
D13*
X302206194Y-92157182D03*
%TO.N,Net-(D5-K)*%
X302206194Y-94697182D03*
%TO.N,VCO2IDKPot1*%
X302206194Y-97237182D03*
%TO.N,Net-(U3B-+)*%
X302206194Y-99777182D03*
%TO.N,Net-(U3B--)*%
X302206194Y-102317182D03*
%TO.N,Net-(R47-Pad1)*%
X302206194Y-104857182D03*
%TO.N,Net-(U3C--)*%
X309826194Y-104857182D03*
X309826194Y-102317182D03*
%TO.N,Net-(U3C-+)*%
X309826194Y-99777182D03*
%TO.N,VCO1CoarsePot3*%
X309826194Y-97237182D03*
%TO.N,Net-(U3B-+)*%
X309826194Y-94697182D03*
%TO.N,Net-(U3D--)*%
X309826194Y-92157182D03*
%TO.N,Net-(R46-Pad2)*%
X309826194Y-89617182D03*
%TD*%
D21*
%TO.N,Net-(U4A--)*%
%TO.C,U4*%
X251886194Y-139702182D03*
D13*
X251886194Y-142242182D03*
%TO.N,Net-(D2-K)*%
X251886194Y-144782182D03*
%TO.N,VCO2IDKPot1*%
X251886194Y-147322182D03*
%TO.N,Net-(U4B-+)*%
X251886194Y-149862182D03*
%TO.N,Net-(U4B--)*%
X251886194Y-152402182D03*
%TO.N,Net-(R27-Pad1)*%
X251886194Y-154942182D03*
%TO.N,Net-(D4-A)*%
X259506194Y-154942182D03*
%TO.N,VCO3PwmPot1*%
X259506194Y-152402182D03*
%TO.N,Net-(U4B-+)*%
X259506194Y-149862182D03*
%TO.N,VCO1CoarsePot3*%
X259506194Y-147322182D03*
%TO.N,VCO3WaveMixPot2*%
X259506194Y-144782182D03*
%TO.N,Net-(U4D--)*%
X259506194Y-142242182D03*
X259506194Y-139702182D03*
%TD*%
D18*
%TO.N,VCO1FMPot1*%
%TO.C,TH2*%
X276286194Y-102242182D03*
D19*
%TO.N,Net-(R4-Pad1)*%
X278826194Y-102242182D03*
%TD*%
D10*
%TO.N,Net-(R8-Pad1)*%
%TO.C,R8*%
X238506194Y-92052182D03*
D13*
%TO.N,VCO1FinePot2*%
X238506194Y-84432182D03*
%TD*%
D10*
%TO.N,Net-(R40-Pad1)*%
%TO.C,R40*%
X321094672Y-82433140D03*
D13*
%TO.N,VCO2FinePot2*%
X321094672Y-74813140D03*
%TD*%
D10*
%TO.N,Net-(R22-Pad1)*%
%TO.C,R22*%
X244006194Y-96592182D03*
D13*
%TO.N,Net-(U2B--)*%
X244006194Y-83892182D03*
%TD*%
D14*
%TO.N,Net-(D3-K)*%
%TO.C,D3*%
X287246194Y-79242182D03*
D15*
%TO.N,Net-(D3-A)*%
X282166194Y-79242182D03*
%TD*%
D10*
%TO.N,Net-(R5-Pad1)*%
%TO.C,R5*%
X254306194Y-129242182D03*
D13*
%TO.N,fmIn3*%
X267006194Y-129242182D03*
%TD*%
D10*
%TO.N,Net-(D1-K)*%
%TO.C,C1*%
X266506194Y-100742182D03*
%TO.N,VCO1CoarsePot1*%
X266506194Y-95742182D03*
%TD*%
%TO.N,Net-(U3B-+)*%
%TO.C,C8*%
X296506194Y-92242182D03*
%TO.N,Net-(U3A--)*%
X296506194Y-89742182D03*
%TD*%
%TO.N,Net-(R37-Pad1)*%
%TO.C,R37*%
X320506194Y-109742182D03*
D13*
%TO.N,cvIn2*%
X320506194Y-122442182D03*
%TD*%
D10*
%TO.N,VCO1CoarsePot1*%
%TO.C,R16*%
X256006194Y-78742182D03*
D13*
%TO.N,Net-(U2B-+)*%
X243306194Y-78742182D03*
%TD*%
D10*
%TO.N,Net-(U3D--)*%
%TO.C,R41*%
X285886194Y-110742182D03*
D13*
%TO.N,VCO2IDKPot2*%
X298586194Y-110742182D03*
%TD*%
D10*
%TO.N,Net-(R1-Pad1)*%
%TO.C,R1*%
X282156194Y-98242182D03*
D13*
%TO.N,fmIn1*%
X294856194Y-98242182D03*
%TD*%
D10*
%TO.N,VCO3WaveMixPot3*%
%TO.C,R32*%
X264756192Y-152942182D03*
D13*
%TO.N,VCO1CoarsePot1*%
X264756192Y-140242182D03*
%TD*%
D10*
%TO.N,VCO2IDKPot1*%
%TO.C,R6*%
X259696194Y-91742182D03*
D13*
%TO.N,Net-(Q1-E)*%
X267316194Y-91742182D03*
%TD*%
D14*
%TO.N,Net-(D5-K)*%
%TO.C,D5*%
X308506194Y-79742182D03*
D15*
%TO.N,Net-(D5-A)*%
X308506194Y-84822182D03*
%TD*%
D10*
%TO.N,Net-(R47-Pad1)*%
%TO.C,R47*%
X309006194Y-137742182D03*
D13*
%TO.N,Net-(U3B--)*%
X296306194Y-137742182D03*
%TD*%
D10*
%TO.N,Net-(U3C-+)*%
%TO.C,R46*%
X302506194Y-122742182D03*
D13*
%TO.N,Net-(R46-Pad2)*%
X302506194Y-110042182D03*
%TD*%
D10*
%TO.N,Net-(R7-Pad1)*%
%TO.C,R7*%
X232506194Y-90942182D03*
D13*
%TO.N,VCO1CoarsePot2*%
X232506194Y-78242182D03*
%TD*%
D18*
%TO.N,VCO3FMPot1*%
%TO.C,TH6*%
X289006194Y-139522182D03*
D19*
%TO.N,Net-(R11-Pad1)*%
X289006194Y-142062182D03*
%TD*%
D10*
%TO.N,Net-(U2B-+)*%
%TO.C,C3*%
X238806194Y-78492182D03*
%TO.N,Net-(U2A--)*%
X238806194Y-80992182D03*
%TD*%
%TO.N,Net-(U4B--)*%
%TO.C,R23*%
X234426194Y-149742182D03*
D13*
%TO.N,VCO1CoarsePot1*%
X244586194Y-149742182D03*
%TD*%
D10*
%TO.N,VCO3WaveMixPot1*%
%TO.C,R29*%
X244006194Y-154742182D03*
D13*
%TO.N,Net-(R27-Pad1)*%
X236386194Y-154742182D03*
%TD*%
D10*
%TO.N,Net-(C5-Pad1)*%
%TO.C,R25*%
X244006194Y-99392182D03*
D13*
%TO.N,VCO1CoarsePot1*%
X244006194Y-112092182D03*
%TD*%
D10*
%TO.N,Net-(C6-Pad1)*%
%TO.C,R30*%
X271756192Y-153242182D03*
D13*
%TO.N,VCO1CoarsePot1*%
X271756192Y-140542182D03*
%TD*%
D10*
%TO.N,VCO2IDKPot1*%
%TO.C,R51*%
X306056194Y-154882182D03*
D13*
%TO.N,Net-(J2-Pin_10)*%
X316216194Y-154882182D03*
%TD*%
D10*
%TO.N,Net-(R34-Pad1)*%
%TO.C,R34*%
X291806194Y-84242182D03*
D13*
%TO.N,fmIn2*%
X304506194Y-84242182D03*
%TD*%
D10*
%TO.N,VCO1CoarsePot3*%
%TO.C,R52*%
X305976194Y-147882182D03*
D13*
%TO.N,Net-(J2-Pin_1)*%
X316136194Y-147882182D03*
%TD*%
D10*
%TO.N,SW1p1*%
%TO.C,R26*%
X230386194Y-106242182D03*
D13*
%TO.N,Net-(C5-Pad1)*%
X238006194Y-106242182D03*
%TD*%
D10*
%TO.N,Net-(R11-Pad1)*%
%TO.C,R11*%
X284006194Y-138042182D03*
D13*
%TO.N,cvIn3*%
X284006194Y-150742182D03*
%TD*%
D21*
%TO.N,VCO1CoarsePot1*%
%TO.C,C10*%
X298636194Y-149382182D03*
D10*
%TO.N,VCO1CoarsePot3*%
X298636194Y-147382182D03*
%TD*%
D18*
%TO.N,VCO1FMPot1*%
%TO.C,TH4*%
X232706194Y-96342182D03*
D19*
%TO.N,Net-(R7-Pad1)*%
X232706194Y-93802182D03*
%TD*%
D10*
%TO.N,SW2p3*%
%TO.C,R49*%
X320506194Y-135822182D03*
D13*
%TO.N,Net-(R47-Pad1)*%
X320506194Y-125662182D03*
%TD*%
D18*
%TO.N,VCO2FMPot1*%
%TO.C,TH12*%
X320506194Y-87522182D03*
D19*
%TO.N,Net-(R40-Pad1)*%
X320506194Y-84982182D03*
%TD*%
D18*
%TO.N,VCO3FMPot1*%
%TO.C,TH7*%
X248866194Y-131242182D03*
D19*
%TO.N,Net-(R13-Pad1)*%
X251406194Y-131242182D03*
%TD*%
D10*
%TO.N,SW1p1*%
%TO.C,R28*%
X231156194Y-116242182D03*
D13*
%TO.N,VCO1CoarsePot1*%
X243856194Y-116242182D03*
%TD*%
M02*
