%TF.GenerationSoftware,KiCad,Pcbnew,9.0.0*%
%TF.CreationDate,2025-03-13T15:24:50+00:00*%
%TF.ProjectId,MAIN,4d41494e-2e6b-4696-9361-645f70636258,rev?*%
%TF.SameCoordinates,Original*%
%TF.FileFunction,Copper,L4,Bot*%
%TF.FilePolarity,Positive*%
%FSLAX46Y46*%
G04 Gerber Fmt 4.6, Leading zero omitted, Abs format (unit mm)*
G04 Created by KiCad (PCBNEW 9.0.0) date 2025-03-13 15:24:50*
%MOMM*%
%LPD*%
G01*
G04 APERTURE LIST*
%TA.AperFunction,ComponentPad*%
%ADD10C,1.600000*%
%TD*%
%TA.AperFunction,ComponentPad*%
%ADD11R,1.050000X1.500000*%
%TD*%
%TA.AperFunction,ComponentPad*%
%ADD12O,1.050000X1.500000*%
%TD*%
%TA.AperFunction,ComponentPad*%
%ADD13O,1.600000X1.600000*%
%TD*%
%TA.AperFunction,ComponentPad*%
%ADD14R,2.400000X2.400000*%
%TD*%
%TA.AperFunction,ComponentPad*%
%ADD15O,2.400000X2.400000*%
%TD*%
%TA.AperFunction,ComponentPad*%
%ADD16R,1.700000X1.700000*%
%TD*%
%TA.AperFunction,ComponentPad*%
%ADD17O,1.700000X1.700000*%
%TD*%
%TA.AperFunction,ComponentPad*%
%ADD18C,1.400000*%
%TD*%
%TA.AperFunction,ComponentPad*%
%ADD19O,1.400000X1.400000*%
%TD*%
%TA.AperFunction,ComponentPad*%
%ADD20C,1.800000*%
%TD*%
%TA.AperFunction,ComponentPad*%
%ADD21R,1.600000X1.600000*%
%TD*%
%TA.AperFunction,ViaPad*%
%ADD22C,0.800000*%
%TD*%
%TA.AperFunction,Conductor*%
%ADD23C,0.250000*%
%TD*%
G04 APERTURE END LIST*
D10*
%TO.P,C4,1*%
%TO.N,Net-(U4B-+)*%
X256256200Y-123552200D03*
%TO.P,C4,2*%
%TO.N,Net-(U4A--)*%
X253756200Y-123552200D03*
%TD*%
%TO.P,C7,1*%
%TO.N,Net-(D5-K)*%
X312006200Y-79482200D03*
%TO.P,C7,2*%
%TO.N,VCO1CoarsePot1*%
X317006200Y-79482200D03*
%TD*%
D11*
%TO.P,Q6,1,C*%
%TO.N,Net-(D5-K)*%
X313506200Y-85482200D03*
D12*
%TO.P,Q6,2,B*%
%TO.N,Net-(Q5-E)*%
X314776200Y-85482200D03*
%TO.P,Q6,3,E*%
%TO.N,VCO1CoarsePot1*%
X316046200Y-85482200D03*
%TD*%
D10*
%TO.P,R20,1*%
%TO.N,VCO1CoarsePot1*%
X260006200Y-111052200D03*
D13*
%TO.P,R20,2*%
%TO.N,Net-(U4B-+)*%
X260006200Y-123752200D03*
%TD*%
D10*
%TO.P,R17,1*%
%TO.N,Net-(D3-K)*%
X286381200Y-87017200D03*
D13*
%TO.P,R17,2*%
%TO.N,VCO1CoarsePot1*%
X273681200Y-87017200D03*
%TD*%
D10*
%TO.P,R42,1*%
%TO.N,Net-(U3D--)*%
X285926200Y-115742200D03*
D13*
%TO.P,R42,2*%
%TO.N,VCO2PwmPot1*%
X296086200Y-115742200D03*
%TD*%
D14*
%TO.P,D2,1,K*%
%TO.N,Net-(D2-K)*%
X232506200Y-142982200D03*
D15*
%TO.P,D2,2,A*%
%TO.N,Net-(D2-A)*%
X232506200Y-137902200D03*
%TD*%
D11*
%TO.P,Q1,1,C*%
%TO.N,VCO1CoarsePot3*%
X270506200Y-93242200D03*
D12*
%TO.P,Q1,2,B*%
%TO.N,VCO1FMPot1*%
X271776200Y-93242200D03*
%TO.P,Q1,3,E*%
%TO.N,Net-(Q1-E)*%
X273046200Y-93242200D03*
%TD*%
D10*
%TO.P,R27,1*%
%TO.N,Net-(R27-Pad1)*%
X231386200Y-160592200D03*
D13*
%TO.P,R27,2*%
%TO.N,Net-(U4B--)*%
X231386200Y-147892200D03*
%TD*%
D16*
%TO.P,J1,1,Pin_1*%
%TO.N,VCO1CoarsePot1*%
X237485000Y-70800000D03*
D17*
%TO.P,J1,2,Pin_2*%
%TO.N,VCO1CoarsePot2*%
X240025000Y-70800000D03*
%TO.P,J1,3,Pin_3*%
%TO.N,VCO1CoarsePot3*%
X242565000Y-70800000D03*
%TO.P,J1,4,Pin_4*%
%TO.N,VCO1CoarsePot1*%
X245105000Y-70800000D03*
%TO.P,J1,5,Pin_5*%
%TO.N,VCO1FinePot2*%
X247645000Y-70800000D03*
%TO.P,J1,6,Pin_6*%
%TO.N,VCO1CoarsePot3*%
X250185000Y-70800000D03*
%TO.P,J1,7,Pin_7*%
%TO.N,VCO1FMPot1*%
X252725000Y-70800000D03*
%TO.P,J1,8,Pin_8*%
%TO.N,VCO1FMPot2*%
X255265000Y-70800000D03*
%TO.P,J1,9,Pin_9*%
%TO.N,VCO1FMPot3*%
X257805000Y-70800000D03*
%TO.P,J1,10,Pin_10*%
%TO.N,VCO1PwmPot1*%
X260345000Y-70800000D03*
%TO.P,J1,11,Pin_11*%
%TO.N,VCO1CoarsePot1*%
X262885000Y-70800000D03*
%TO.P,J1,12,Pin_12*%
%TO.N,VCO1PwmPot3*%
X265425000Y-70800000D03*
%TO.P,J1,13,Pin_13*%
%TO.N,SW1p1*%
X267965000Y-70800000D03*
%TO.P,J1,14,Pin_14*%
%TO.N,SW1p2*%
X270505000Y-70800000D03*
%TO.P,J1,15,Pin_15*%
%TO.N,SW1p3*%
X273045000Y-70800000D03*
%TO.P,J1,16,Pin_16*%
%TO.N,VCO1CoarsePot1*%
X275585000Y-70800000D03*
%TO.P,J1,17,Pin_17*%
%TO.N,VCO2CoarsePot2*%
X278125000Y-70800000D03*
%TO.P,J1,18,Pin_18*%
%TO.N,VCO1CoarsePot3*%
X280665000Y-70800000D03*
%TO.P,J1,19,Pin_19*%
%TO.N,VCO1CoarsePot1*%
X283205000Y-70800000D03*
%TO.P,J1,20,Pin_20*%
%TO.N,VCO2FinePot2*%
X285745000Y-70800000D03*
%TO.P,J1,21,Pin_21*%
%TO.N,VCO1CoarsePot3*%
X288285000Y-70800000D03*
%TO.P,J1,22,Pin_22*%
%TO.N,VCO2FMPot1*%
X290825000Y-70800000D03*
%TO.P,J1,23,Pin_23*%
%TO.N,VCO2FMPot2*%
X293365000Y-70800000D03*
%TO.P,J1,24,Pin_24*%
%TO.N,VCO2FMPot3*%
X295905000Y-70800000D03*
%TO.P,J1,25,Pin_25*%
%TO.N,VCO2PwmPot1*%
X298445000Y-70800000D03*
%TO.P,J1,26,Pin_26*%
%TO.N,VCO2PwmPot2*%
X300985000Y-70800000D03*
%TO.P,J1,27,Pin_27*%
%TO.N,VCO2PwmPot3*%
X303525000Y-70800000D03*
%TO.P,J1,28,Pin_28*%
%TO.N,VCO2IDKPot1*%
X306065000Y-70800000D03*
%TO.P,J1,29,Pin_29*%
%TO.N,VCO2IDKPot2*%
X308605000Y-70800000D03*
%TO.P,J1,30,Pin_30*%
%TO.N,VCO1CoarsePot3*%
X311145000Y-70800000D03*
%TO.P,J1,31,Pin_31*%
%TO.N,SW2p1*%
X313685000Y-70800000D03*
%TO.P,J1,32,Pin_32*%
%TO.N,SW2p2*%
X316225000Y-70800000D03*
%TD*%
D10*
%TO.P,R4,1*%
%TO.N,Net-(R4-Pad1)*%
X281656200Y-103742200D03*
D13*
%TO.P,R4,2*%
%TO.N,cvIn1*%
X294356200Y-103742200D03*
%TD*%
D10*
%TO.P,R18,1*%
%TO.N,Net-(U2B--)*%
X247926200Y-84742200D03*
D13*
%TO.P,R18,2*%
%TO.N,VCO1CoarsePot1*%
X258086200Y-84742200D03*
%TD*%
D10*
%TO.P,C6,1*%
%TO.N,Net-(C6-Pad1)*%
X277506200Y-156242200D03*
%TO.P,C6,2*%
%TO.N,Net-(C6-Pad2)*%
X275006200Y-156242200D03*
%TD*%
%TO.P,R31,1*%
%TO.N,VCO3WaveMixPot3*%
X264446200Y-156242200D03*
D13*
%TO.P,R31,2*%
%TO.N,Net-(C6-Pad1)*%
X272066200Y-156242200D03*
%TD*%
D18*
%TO.P,TH11,1*%
%TO.N,VCO2FMPot1*%
X314506200Y-96742200D03*
D19*
%TO.P,TH11,2*%
%TO.N,Net-(R39-Pad1)*%
X314506200Y-99282200D03*
%TD*%
D20*
%TO.P,R10,1*%
%TO.N,Net-(R10-Pad1)*%
X279531200Y-134717200D03*
%TO.P,R10,2*%
%TO.N,VCO1CoarsePot1*%
X276991200Y-144877200D03*
%TO.P,R10,3*%
%TO.N,N/C*%
X279531200Y-152497200D03*
%TD*%
D10*
%TO.P,R2,1*%
%TO.N,VCO1FMPot1*%
X276346200Y-93742200D03*
D13*
%TO.P,R2,2*%
%TO.N,Net-(R2-Pad2)*%
X286506200Y-93742200D03*
%TD*%
D18*
%TO.P,TH9,1*%
%TO.N,VCO2FMPot2*%
X292156200Y-77522200D03*
D19*
%TO.P,TH9,2*%
%TO.N,Net-(R34-Pad1)*%
X292156200Y-80062200D03*
%TD*%
D10*
%TO.P,R48,1*%
%TO.N,Net-(U3C-+)*%
X296166200Y-124242200D03*
D13*
%TO.P,R48,2*%
%TO.N,VCO1CoarsePot1*%
X286006200Y-124242200D03*
%TD*%
D20*
%TO.P,R3,1*%
%TO.N,Net-(R2-Pad2)*%
X260006200Y-78242200D03*
%TO.P,R3,2*%
%TO.N,VCO1CoarsePot1*%
X270166200Y-80782200D03*
%TO.P,R3,3*%
%TO.N,N/C*%
X277786200Y-78242200D03*
%TD*%
D10*
%TO.P,R39,1*%
%TO.N,Net-(R39-Pad1)*%
X314616200Y-101762200D03*
D13*
%TO.P,R39,2*%
%TO.N,VCO2CoarsePot2*%
X314616200Y-114462200D03*
%TD*%
D10*
%TO.P,R21,1*%
%TO.N,Net-(D4-K)*%
X245506200Y-134042200D03*
D13*
%TO.P,R21,2*%
%TO.N,VCO1CoarsePot1*%
X245506200Y-146742200D03*
%TD*%
D10*
%TO.P,R9,1*%
%TO.N,VCO3FMPot1*%
X293086200Y-134892200D03*
D13*
%TO.P,R9,2*%
%TO.N,Net-(R10-Pad1)*%
X282926200Y-134892200D03*
%TD*%
D10*
%TO.P,R45,1*%
%TO.N,Net-(U3B--)*%
X307426200Y-133822200D03*
D13*
%TO.P,R45,2*%
%TO.N,VCO1CoarsePot1*%
X307426200Y-123662200D03*
%TD*%
D11*
%TO.P,Q4,1,C*%
%TO.N,Net-(D2-K)*%
X253558700Y-112912200D03*
D12*
%TO.P,Q4,2,B*%
%TO.N,Net-(Q3-E)*%
X254828700Y-112912200D03*
%TO.P,Q4,3,E*%
%TO.N,VCO1CoarsePot1*%
X256098700Y-112912200D03*
%TD*%
D10*
%TO.P,C5,1*%
%TO.N,Net-(C5-Pad1)*%
X233256200Y-110742200D03*
%TO.P,C5,2*%
%TO.N,Net-(C5-Pad2)*%
X235756200Y-110742200D03*
%TD*%
%TO.P,R15,1*%
%TO.N,Net-(D3-A)*%
X271006200Y-85742200D03*
D13*
%TO.P,R15,2*%
%TO.N,VCO1PwmPot1*%
X260846200Y-85742200D03*
%TD*%
D10*
%TO.P,R19,1*%
%TO.N,Net-(D4-A)*%
X233006200Y-134822200D03*
D13*
%TO.P,R19,2*%
%TO.N,VCO3PwmPot1*%
X233006200Y-124662200D03*
%TD*%
D10*
%TO.P,R24,1*%
%TO.N,SW1p3*%
X238506200Y-102552200D03*
D13*
%TO.P,R24,2*%
%TO.N,Net-(R22-Pad1)*%
X238506200Y-94932200D03*
%TD*%
D10*
%TO.P,R33,1*%
%TO.N,mixOut*%
X238886200Y-127242200D03*
D13*
%TO.P,R33,2*%
%TO.N,Net-(U4D--)*%
X246506200Y-127242200D03*
%TD*%
D21*
%TO.P,U2,1*%
%TO.N,Net-(U2A--)*%
X249006200Y-89502200D03*
D13*
%TO.P,U2,2,-*%
X249006200Y-92042200D03*
%TO.P,U2,3,+*%
%TO.N,Net-(D1-K)*%
X249006200Y-94582200D03*
%TO.P,U2,4,V+*%
%TO.N,VCO2IDKPot1*%
X249006200Y-97122200D03*
%TO.P,U2,5,+*%
%TO.N,Net-(U2B-+)*%
X249006200Y-99662200D03*
%TO.P,U2,6,-*%
%TO.N,Net-(U2B--)*%
X249006200Y-102202200D03*
%TO.P,U2,7*%
%TO.N,Net-(R22-Pad1)*%
X249006200Y-104742200D03*
%TO.P,U2,8*%
%TO.N,Net-(D3-A)*%
X256626200Y-104742200D03*
%TO.P,U2,9,-*%
%TO.N,VCO1PwmPot1*%
X256626200Y-102202200D03*
%TO.P,U2,10,+*%
%TO.N,Net-(U2B-+)*%
X256626200Y-99662200D03*
%TO.P,U2,11,V-*%
%TO.N,VCO1CoarsePot3*%
X256626200Y-97122200D03*
%TO.P,U2,12,+*%
%TO.N,VCO1CoarsePot1*%
X256626200Y-94582200D03*
%TO.P,U2,13,-*%
X256626200Y-92042200D03*
%TO.P,U2,14*%
%TO.N,unconnected-(U2-Pad14)*%
X256626200Y-89502200D03*
%TD*%
D16*
%TO.P,J3,1,Pin_1*%
%TO.N,SW2p3*%
X316235000Y-165200000D03*
D17*
%TO.P,J3,2,Pin_2*%
%TO.N,VCO1CoarsePot1*%
X313695000Y-165200000D03*
%TO.P,J3,3,Pin_3*%
%TO.N,VCO3CoarsePot2*%
X311155000Y-165200000D03*
%TO.P,J3,4,Pin_4*%
%TO.N,VCO1CoarsePot3*%
X308615000Y-165200000D03*
%TO.P,J3,5,Pin_5*%
%TO.N,VCO1CoarsePot1*%
X306075000Y-165200000D03*
%TO.P,J3,6,Pin_6*%
%TO.N,VCO3FinePot2*%
X303535000Y-165200000D03*
%TO.P,J3,7,Pin_7*%
%TO.N,VCO1CoarsePot3*%
X300995000Y-165200000D03*
%TO.P,J3,8,Pin_8*%
%TO.N,VCO3FMPot1*%
X298455000Y-165200000D03*
%TO.P,J3,9,Pin_9*%
%TO.N,VCO3FMPot2*%
X295915000Y-165200000D03*
%TO.P,J3,10,Pin_10*%
%TO.N,VCO3FMPot3*%
X293375000Y-165200000D03*
%TO.P,J3,11,Pin_11*%
%TO.N,VCO3PwmPot1*%
X290835000Y-165200000D03*
%TO.P,J3,12,Pin_12*%
%TO.N,VCO1CoarsePot1*%
X288295000Y-165200000D03*
%TO.P,J3,13,Pin_13*%
%TO.N,VCO3PwmPot3*%
X285755000Y-165200000D03*
%TO.P,J3,14,Pin_14*%
%TO.N,VCO3WaveMixPot1*%
X283215000Y-165200000D03*
%TO.P,J3,15,Pin_15*%
%TO.N,VCO3WaveMixPot2*%
X280675000Y-165200000D03*
%TO.P,J3,16,Pin_16*%
%TO.N,VCO3WaveMixPot3*%
X278135000Y-165200000D03*
%TO.P,J3,17,Pin_17*%
%TO.N,cvIn1*%
X275595000Y-165200000D03*
%TO.P,J3,18,Pin_18*%
%TO.N,cvIn2*%
X273055000Y-165200000D03*
%TO.P,J3,19,Pin_19*%
%TO.N,cvIn3*%
X270515000Y-165200000D03*
%TO.P,J3,20,Pin_20*%
%TO.N,fmIn1*%
X267975000Y-165200000D03*
%TO.P,J3,21,Pin_21*%
%TO.N,fmIn2*%
X265435000Y-165200000D03*
%TO.P,J3,22,Pin_22*%
%TO.N,fmIn3*%
X262895000Y-165200000D03*
%TO.P,J3,23,Pin_23*%
%TO.N,VCO2PwmPot2*%
X260355000Y-165200000D03*
%TO.P,J3,24,Pin_24*%
%TO.N,SW1p2*%
X257815000Y-165200000D03*
%TO.P,J3,25,Pin_25*%
%TO.N,SW2p2*%
X255275000Y-165200000D03*
%TO.P,J3,26,Pin_26*%
%TO.N,mixOut*%
X252735000Y-165200000D03*
%TO.P,J3,27,Pin_27*%
%TO.N,unconnected-(J3-Pin_27-Pad27)*%
X250195000Y-165200000D03*
%TO.P,J3,28,Pin_28*%
%TO.N,unconnected-(J3-Pin_28-Pad28)*%
X247655000Y-165200000D03*
%TO.P,J3,29,Pin_29*%
%TO.N,unconnected-(J3-Pin_29-Pad29)*%
X245115000Y-165200000D03*
%TO.P,J3,30,Pin_30*%
%TO.N,unconnected-(J3-Pin_30-Pad30)*%
X242575000Y-165200000D03*
%TO.P,J3,31,Pin_31*%
%TO.N,unconnected-(J3-Pin_31-Pad31)*%
X240035000Y-165200000D03*
%TO.P,J3,32,Pin_32*%
%TO.N,unconnected-(J3-Pin_32-Pad32)*%
X237495000Y-165200000D03*
%TD*%
D20*
%TO.P,R36,1*%
%TO.N,Net-(R35-Pad2)*%
X314701200Y-117137200D03*
%TO.P,R36,2*%
%TO.N,VCO1CoarsePot1*%
X312161200Y-127297200D03*
%TO.P,R36,3*%
%TO.N,N/C*%
X314701200Y-134917200D03*
%TD*%
D21*
%TO.P,U1,1*%
%TO.N,Net-(D1-K)*%
X273886200Y-112002200D03*
D13*
%TO.P,U1,2*%
%TO.N,Net-(D1-A)*%
X273886200Y-114542200D03*
%TO.P,U1,3*%
%TO.N,Net-(D3-K)*%
X273886200Y-117082200D03*
%TO.P,U1,4*%
%TO.N,Net-(C5-Pad2)*%
X273886200Y-119622200D03*
%TO.P,U1,5*%
%TO.N,Net-(D5-K)*%
X273886200Y-122162200D03*
%TO.P,U1,6*%
%TO.N,Net-(D5-A)*%
X273886200Y-124702200D03*
%TO.P,U1,7,VSS*%
%TO.N,VCO1CoarsePot1*%
X273886200Y-127242200D03*
%TO.P,U1,8*%
%TO.N,Net-(D2-A)*%
X281506200Y-127242200D03*
%TO.P,U1,9*%
%TO.N,Net-(D2-K)*%
X281506200Y-124702200D03*
%TO.P,U1,10*%
%TO.N,Net-(C6-Pad2)*%
X281506200Y-122162200D03*
%TO.P,U1,11*%
%TO.N,Net-(D4-K)*%
X281506200Y-119622200D03*
%TO.P,U1,12*%
%TO.N,N/C*%
X281506200Y-117082200D03*
%TO.P,U1,13*%
X281506200Y-114542200D03*
%TO.P,U1,14,VDD*%
%TO.N,VCO2IDKPot1*%
X281506200Y-112002200D03*
%TD*%
D10*
%TO.P,R43,1*%
%TO.N,VCO1CoarsePot1*%
X284656200Y-131242200D03*
D13*
%TO.P,R43,2*%
%TO.N,Net-(U3B-+)*%
X297356200Y-131242200D03*
%TD*%
D18*
%TO.P,TH8,1*%
%TO.N,VCO3FMPot1*%
X248866200Y-134392200D03*
D19*
%TO.P,TH8,2*%
%TO.N,Net-(R14-Pad1)*%
X251406200Y-134392200D03*
%TD*%
D11*
%TO.P,Q3,1,C*%
%TO.N,VCO1CoarsePot3*%
X256126200Y-118192200D03*
D12*
%TO.P,Q3,2,B*%
%TO.N,VCO3FMPot1*%
X254856200Y-118192200D03*
%TO.P,Q3,3,E*%
%TO.N,Net-(Q3-E)*%
X253586200Y-118192200D03*
%TD*%
D10*
%TO.P,R12,1*%
%TO.N,VCO2IDKPot1*%
X250006200Y-119362200D03*
D13*
%TO.P,R12,2*%
%TO.N,Net-(Q3-E)*%
X250006200Y-111742200D03*
%TD*%
D10*
%TO.P,R38,1*%
%TO.N,VCO2IDKPot1*%
X310006200Y-142242200D03*
D13*
%TO.P,R38,2*%
%TO.N,Net-(Q5-E)*%
X317626200Y-142242200D03*
%TD*%
D10*
%TO.P,R50,1*%
%TO.N,SW2p1*%
X320506200Y-96162200D03*
D13*
%TO.P,R50,2*%
%TO.N,Net-(U3C--)*%
X320506200Y-106322200D03*
%TD*%
D10*
%TO.P,R35,1*%
%TO.N,VCO2FMPot1*%
X307426200Y-110162200D03*
D13*
%TO.P,R35,2*%
%TO.N,Net-(R35-Pad2)*%
X307426200Y-120322200D03*
%TD*%
D11*
%TO.P,Q2,1,C*%
%TO.N,Net-(D1-K)*%
X273006200Y-98742200D03*
D12*
%TO.P,Q2,2,B*%
%TO.N,Net-(Q1-E)*%
X271736200Y-98742200D03*
%TO.P,Q2,3,E*%
%TO.N,VCO1CoarsePot1*%
X270466200Y-98742200D03*
%TD*%
D10*
%TO.P,R13,1*%
%TO.N,Net-(R13-Pad1)*%
X289506200Y-144892200D03*
D13*
%TO.P,R13,2*%
%TO.N,VCO3CoarsePot2*%
X289506200Y-157592200D03*
%TD*%
D10*
%TO.P,R44,1*%
%TO.N,Net-(U3D--)*%
X285926200Y-120742200D03*
D13*
%TO.P,R44,2*%
%TO.N,VCO1CoarsePot1*%
X296086200Y-120742200D03*
%TD*%
D14*
%TO.P,D1,1,K*%
%TO.N,Net-(D1-K)*%
X269006200Y-109242200D03*
D15*
%TO.P,D1,2,A*%
%TO.N,Net-(D1-A)*%
X269006200Y-114322200D03*
%TD*%
D21*
%TO.P,C9,1*%
%TO.N,VCO2IDKPot1*%
X298636200Y-155382200D03*
D10*
%TO.P,C9,2*%
%TO.N,VCO1CoarsePot1*%
X298636200Y-153382200D03*
%TD*%
D18*
%TO.P,TH1,1*%
%TO.N,VCO1FMPot2*%
X276286200Y-98592200D03*
D19*
%TO.P,TH1,2*%
%TO.N,Net-(R1-Pad1)*%
X278826200Y-98592200D03*
%TD*%
D14*
%TO.P,D4,1,K*%
%TO.N,Net-(D4-K)*%
X241246200Y-134242200D03*
D15*
%TO.P,D4,2,A*%
%TO.N,Net-(D4-A)*%
X236166200Y-134242200D03*
%TD*%
D18*
%TO.P,TH3,1*%
%TO.N,VCO3FMPot2*%
X248786200Y-127242200D03*
D19*
%TO.P,TH3,2*%
%TO.N,Net-(R5-Pad1)*%
X251326200Y-127242200D03*
%TD*%
D18*
%TO.P,TH5,1*%
%TO.N,VCO1FMPot1*%
X232706200Y-101662200D03*
D19*
%TO.P,TH5,2*%
%TO.N,Net-(R8-Pad1)*%
X232706200Y-99122200D03*
%TD*%
D10*
%TO.P,R14,1*%
%TO.N,Net-(R14-Pad1)*%
X253786200Y-134242200D03*
D13*
%TO.P,R14,2*%
%TO.N,VCO3FinePot2*%
X261406200Y-134242200D03*
%TD*%
D11*
%TO.P,Q5,1,C*%
%TO.N,VCO1CoarsePot3*%
X316016200Y-90982200D03*
D12*
%TO.P,Q5,2,B*%
%TO.N,VCO2FMPot1*%
X314746200Y-90982200D03*
%TO.P,Q5,3,E*%
%TO.N,Net-(Q5-E)*%
X313476200Y-90982200D03*
%TD*%
D18*
%TO.P,TH10,1*%
%TO.N,VCO2FMPot1*%
X320546200Y-90432200D03*
D19*
%TO.P,TH10,2*%
%TO.N,Net-(R37-Pad1)*%
X320546200Y-92972200D03*
%TD*%
D10*
%TO.P,C2,1*%
%TO.N,Net-(D2-K)*%
X237506200Y-139742200D03*
%TO.P,C2,2*%
%TO.N,VCO1CoarsePot1*%
X237506200Y-144742200D03*
%TD*%
D16*
%TO.P,J2,1,Pin_1*%
%TO.N,Net-(J2-Pin_1)*%
X320466200Y-147582200D03*
D17*
%TO.P,J2,2,Pin_2*%
X323006200Y-147582200D03*
%TO.P,J2,3,Pin_3*%
%TO.N,VCO1CoarsePot1*%
X320466200Y-150122200D03*
%TO.P,J2,4,Pin_4*%
X323006200Y-150122200D03*
%TO.P,J2,5,Pin_5*%
X320466200Y-152662200D03*
%TO.P,J2,6,Pin_6*%
X323006200Y-152662200D03*
%TO.P,J2,7,Pin_7*%
X320466200Y-155202200D03*
%TO.P,J2,8,Pin_8*%
X323006200Y-155202200D03*
%TO.P,J2,9,Pin_9*%
%TO.N,Net-(J2-Pin_10)*%
X320466200Y-157742200D03*
%TO.P,J2,10,Pin_10*%
X323006200Y-157742200D03*
%TD*%
D21*
%TO.P,U3,1*%
%TO.N,Net-(U3A--)*%
X302206200Y-89617200D03*
D13*
%TO.P,U3,2,-*%
X302206200Y-92157200D03*
%TO.P,U3,3,+*%
%TO.N,Net-(D5-K)*%
X302206200Y-94697200D03*
%TO.P,U3,4,V+*%
%TO.N,VCO2IDKPot1*%
X302206200Y-97237200D03*
%TO.P,U3,5,+*%
%TO.N,Net-(U3B-+)*%
X302206200Y-99777200D03*
%TO.P,U3,6,-*%
%TO.N,Net-(U3B--)*%
X302206200Y-102317200D03*
%TO.P,U3,7*%
%TO.N,Net-(R47-Pad1)*%
X302206200Y-104857200D03*
%TO.P,U3,8*%
%TO.N,Net-(U3C--)*%
X309826200Y-104857200D03*
%TO.P,U3,9,-*%
X309826200Y-102317200D03*
%TO.P,U3,10,+*%
%TO.N,Net-(U3C-+)*%
X309826200Y-99777200D03*
%TO.P,U3,11,V-*%
%TO.N,VCO1CoarsePot3*%
X309826200Y-97237200D03*
%TO.P,U3,12,+*%
%TO.N,Net-(U3B-+)*%
X309826200Y-94697200D03*
%TO.P,U3,13,-*%
%TO.N,Net-(U3D--)*%
X309826200Y-92157200D03*
%TO.P,U3,14*%
%TO.N,Net-(R46-Pad2)*%
X309826200Y-89617200D03*
%TD*%
D21*
%TO.P,U4,1*%
%TO.N,Net-(U4A--)*%
X251886200Y-139702200D03*
D13*
%TO.P,U4,2,-*%
X251886200Y-142242200D03*
%TO.P,U4,3,+*%
%TO.N,Net-(D2-K)*%
X251886200Y-144782200D03*
%TO.P,U4,4,V+*%
%TO.N,VCO2IDKPot1*%
X251886200Y-147322200D03*
%TO.P,U4,5,+*%
%TO.N,Net-(U4B-+)*%
X251886200Y-149862200D03*
%TO.P,U4,6,-*%
%TO.N,Net-(U4B--)*%
X251886200Y-152402200D03*
%TO.P,U4,7*%
%TO.N,Net-(R27-Pad1)*%
X251886200Y-154942200D03*
%TO.P,U4,8*%
%TO.N,Net-(D4-A)*%
X259506200Y-154942200D03*
%TO.P,U4,9,-*%
%TO.N,VCO3PwmPot1*%
X259506200Y-152402200D03*
%TO.P,U4,10,+*%
%TO.N,Net-(U4B-+)*%
X259506200Y-149862200D03*
%TO.P,U4,11,V-*%
%TO.N,VCO1CoarsePot3*%
X259506200Y-147322200D03*
%TO.P,U4,12,+*%
%TO.N,VCO3WaveMixPot2*%
X259506200Y-144782200D03*
%TO.P,U4,13,-*%
%TO.N,Net-(U4D--)*%
X259506200Y-142242200D03*
%TO.P,U4,14*%
X259506200Y-139702200D03*
%TD*%
D18*
%TO.P,TH2,1*%
%TO.N,VCO1FMPot1*%
X276286200Y-102242200D03*
D19*
%TO.P,TH2,2*%
%TO.N,Net-(R4-Pad1)*%
X278826200Y-102242200D03*
%TD*%
D10*
%TO.P,R8,1*%
%TO.N,Net-(R8-Pad1)*%
X238506200Y-92052200D03*
D13*
%TO.P,R8,2*%
%TO.N,VCO1FinePot2*%
X238506200Y-84432200D03*
%TD*%
D10*
%TO.P,R40,1*%
%TO.N,Net-(R40-Pad1)*%
X321094700Y-82433100D03*
D13*
%TO.P,R40,2*%
%TO.N,VCO2FinePot2*%
X321094700Y-74813100D03*
%TD*%
D10*
%TO.P,R22,1*%
%TO.N,Net-(R22-Pad1)*%
X244006200Y-96592200D03*
D13*
%TO.P,R22,2*%
%TO.N,Net-(U2B--)*%
X244006200Y-83892200D03*
%TD*%
D14*
%TO.P,D3,1,K*%
%TO.N,Net-(D3-K)*%
X287246200Y-79242200D03*
D15*
%TO.P,D3,2,A*%
%TO.N,Net-(D3-A)*%
X282166200Y-79242200D03*
%TD*%
D10*
%TO.P,R5,1*%
%TO.N,Net-(R5-Pad1)*%
X254306200Y-129242200D03*
D13*
%TO.P,R5,2*%
%TO.N,fmIn3*%
X267006200Y-129242200D03*
%TD*%
D10*
%TO.P,C1,1*%
%TO.N,Net-(D1-K)*%
X266506200Y-100742200D03*
%TO.P,C1,2*%
%TO.N,VCO1CoarsePot1*%
X266506200Y-95742200D03*
%TD*%
%TO.P,C8,1*%
%TO.N,Net-(U3B-+)*%
X296506200Y-92242200D03*
%TO.P,C8,2*%
%TO.N,Net-(U3A--)*%
X296506200Y-89742200D03*
%TD*%
%TO.P,R37,1*%
%TO.N,Net-(R37-Pad1)*%
X320506200Y-109742200D03*
D13*
%TO.P,R37,2*%
%TO.N,cvIn2*%
X320506200Y-122442200D03*
%TD*%
D10*
%TO.P,R16,1*%
%TO.N,VCO1CoarsePot1*%
X256006200Y-78742200D03*
D13*
%TO.P,R16,2*%
%TO.N,Net-(U2B-+)*%
X243306200Y-78742200D03*
%TD*%
D10*
%TO.P,R41,1*%
%TO.N,Net-(U3D--)*%
X285886200Y-110742200D03*
D13*
%TO.P,R41,2*%
%TO.N,VCO2IDKPot2*%
X298586200Y-110742200D03*
%TD*%
D10*
%TO.P,R1,1*%
%TO.N,Net-(R1-Pad1)*%
X282156200Y-98242200D03*
D13*
%TO.P,R1,2*%
%TO.N,fmIn1*%
X294856200Y-98242200D03*
%TD*%
D10*
%TO.P,R32,1*%
%TO.N,VCO3WaveMixPot3*%
X264756200Y-152942200D03*
D13*
%TO.P,R32,2*%
%TO.N,VCO1CoarsePot1*%
X264756200Y-140242200D03*
%TD*%
D10*
%TO.P,R6,1*%
%TO.N,VCO2IDKPot1*%
X259696200Y-91742200D03*
D13*
%TO.P,R6,2*%
%TO.N,Net-(Q1-E)*%
X267316200Y-91742200D03*
%TD*%
D14*
%TO.P,D5,1,K*%
%TO.N,Net-(D5-K)*%
X308506200Y-79742200D03*
D15*
%TO.P,D5,2,A*%
%TO.N,Net-(D5-A)*%
X308506200Y-84822200D03*
%TD*%
D10*
%TO.P,R47,1*%
%TO.N,Net-(R47-Pad1)*%
X309006200Y-137742200D03*
D13*
%TO.P,R47,2*%
%TO.N,Net-(U3B--)*%
X296306200Y-137742200D03*
%TD*%
D10*
%TO.P,R46,1*%
%TO.N,Net-(U3C-+)*%
X302506200Y-122742200D03*
D13*
%TO.P,R46,2*%
%TO.N,Net-(R46-Pad2)*%
X302506200Y-110042200D03*
%TD*%
D10*
%TO.P,R7,1*%
%TO.N,Net-(R7-Pad1)*%
X232506200Y-90942200D03*
D13*
%TO.P,R7,2*%
%TO.N,VCO1CoarsePot2*%
X232506200Y-78242200D03*
%TD*%
D18*
%TO.P,TH6,1*%
%TO.N,VCO3FMPot1*%
X289006200Y-139522200D03*
D19*
%TO.P,TH6,2*%
%TO.N,Net-(R11-Pad1)*%
X289006200Y-142062200D03*
%TD*%
D10*
%TO.P,C3,1*%
%TO.N,Net-(U2B-+)*%
X238806200Y-78492200D03*
%TO.P,C3,2*%
%TO.N,Net-(U2A--)*%
X238806200Y-80992200D03*
%TD*%
%TO.P,R23,1*%
%TO.N,Net-(U4B--)*%
X234426200Y-149742200D03*
D13*
%TO.P,R23,2*%
%TO.N,VCO1CoarsePot1*%
X244586200Y-149742200D03*
%TD*%
D10*
%TO.P,R29,1*%
%TO.N,VCO3WaveMixPot1*%
X244006200Y-154742200D03*
D13*
%TO.P,R29,2*%
%TO.N,Net-(R27-Pad1)*%
X236386200Y-154742200D03*
%TD*%
D10*
%TO.P,R25,1*%
%TO.N,Net-(C5-Pad1)*%
X244006200Y-99392200D03*
D13*
%TO.P,R25,2*%
%TO.N,VCO1CoarsePot1*%
X244006200Y-112092200D03*
%TD*%
D10*
%TO.P,R30,1*%
%TO.N,Net-(C6-Pad1)*%
X271756200Y-153242200D03*
D13*
%TO.P,R30,2*%
%TO.N,VCO1CoarsePot1*%
X271756200Y-140542200D03*
%TD*%
D10*
%TO.P,R51,1*%
%TO.N,VCO2IDKPot1*%
X306056200Y-154882200D03*
D13*
%TO.P,R51,2*%
%TO.N,Net-(J2-Pin_10)*%
X316216200Y-154882200D03*
%TD*%
D10*
%TO.P,R34,1*%
%TO.N,Net-(R34-Pad1)*%
X291806200Y-84242200D03*
D13*
%TO.P,R34,2*%
%TO.N,fmIn2*%
X304506200Y-84242200D03*
%TD*%
D10*
%TO.P,R52,1*%
%TO.N,VCO1CoarsePot3*%
X305976200Y-147882200D03*
D13*
%TO.P,R52,2*%
%TO.N,Net-(J2-Pin_1)*%
X316136200Y-147882200D03*
%TD*%
D10*
%TO.P,R26,1*%
%TO.N,SW1p1*%
X230386200Y-106242200D03*
D13*
%TO.P,R26,2*%
%TO.N,Net-(C5-Pad1)*%
X238006200Y-106242200D03*
%TD*%
D10*
%TO.P,R11,1*%
%TO.N,Net-(R11-Pad1)*%
X284006200Y-138042200D03*
D13*
%TO.P,R11,2*%
%TO.N,cvIn3*%
X284006200Y-150742200D03*
%TD*%
D21*
%TO.P,C10,1*%
%TO.N,VCO1CoarsePot1*%
X298636200Y-149382200D03*
D10*
%TO.P,C10,2*%
%TO.N,VCO1CoarsePot3*%
X298636200Y-147382200D03*
%TD*%
D18*
%TO.P,TH4,1*%
%TO.N,VCO1FMPot1*%
X232706200Y-96342200D03*
D19*
%TO.P,TH4,2*%
%TO.N,Net-(R7-Pad1)*%
X232706200Y-93802200D03*
%TD*%
D10*
%TO.P,R49,1*%
%TO.N,SW2p3*%
X320506200Y-135822200D03*
D13*
%TO.P,R49,2*%
%TO.N,Net-(R47-Pad1)*%
X320506200Y-125662200D03*
%TD*%
D18*
%TO.P,TH12,1*%
%TO.N,VCO2FMPot1*%
X320506200Y-87522200D03*
D19*
%TO.P,TH12,2*%
%TO.N,Net-(R40-Pad1)*%
X320506200Y-84982200D03*
%TD*%
D18*
%TO.P,TH7,1*%
%TO.N,VCO3FMPot1*%
X248866200Y-131242200D03*
D19*
%TO.P,TH7,2*%
%TO.N,Net-(R13-Pad1)*%
X251406200Y-131242200D03*
%TD*%
D10*
%TO.P,R28,1*%
%TO.N,SW1p1*%
X231156200Y-116242200D03*
D13*
%TO.P,R28,2*%
%TO.N,VCO1CoarsePot1*%
X243856200Y-116242200D03*
%TD*%
D22*
%TO.N,VCO2PwmPot2*%
X291750000Y-89250000D03*
X285750000Y-161500000D03*
X295500000Y-86750000D03*
%TO.N,SW2p2*%
X323750000Y-143250000D03*
X262500000Y-151000000D03*
%TO.N,SW1p2*%
X269250000Y-162500000D03*
%TO.N,Net-(D2-A)*%
X277500000Y-137250000D03*
%TO.N,Net-(D5-A)*%
X279750000Y-84500000D03*
%TO.N,VCO3FMPot2*%
X254000000Y-167240000D03*
%TO.N,mixOut*%
X239500000Y-162500000D03*
%TO.N,cvIn1*%
X284500000Y-107500000D03*
%TO.N,VCO3WaveMixPot2*%
X281500000Y-143500000D03*
%TO.N,cvIn2*%
X277750000Y-132250000D03*
%TO.N,cvIn3*%
X273750000Y-149750000D03*
%TO.N,fmIn1*%
X270750000Y-106250000D03*
%TO.N,fmIn2*%
X266500000Y-89500000D03*
%TO.N,VCO3FinePot2*%
X268500000Y-150500000D03*
%TO.N,SW1p3*%
X270000000Y-102750000D03*
%TO.N,VCO2CoarsePot2*%
X280750000Y-108250000D03*
%TO.N,Net-(D5-K)*%
X274250000Y-90750000D03*
%TO.N,Net-(D3-A)*%
X264250000Y-88500000D03*
%TO.N,VCO1FMPot2*%
X274250000Y-75250000D03*
%TO.N,Net-(D5-K)*%
X299500000Y-91000000D03*
%TO.N,Net-(D3-K)*%
X282750000Y-107500000D03*
X275250000Y-108000000D03*
%TO.N,VCO2FMPot1*%
X314500000Y-73500000D03*
%TO.N,Net-(D4-K)*%
X271250000Y-121250000D03*
X271250000Y-132500000D03*
%TO.N,Net-(D2-K)*%
X283250000Y-118500000D03*
%TO.N,Net-(U3D--)*%
X311000000Y-107500000D03*
%TO.N,SW1p1*%
X231000000Y-69750000D03*
%TO.N,VCO1FMPot1*%
X252750000Y-86750000D03*
%TO.N,Net-(U4D--)*%
X248050000Y-138750000D03*
%TO.N,Net-(R13-Pad1)*%
X274000000Y-141750000D03*
X273500000Y-132000000D03*
%TO.N,VCO3FinePot2*%
X267750000Y-135000000D03*
%TO.N,Net-(R2-Pad2)*%
X289750000Y-76250000D03*
%TO.N,Net-(D2-K)*%
X239519653Y-113480347D03*
%TO.N,VCO3PwmPot1*%
X255750000Y-125750000D03*
%TO.N,Net-(D4-A)*%
X255000000Y-136500000D03*
%TO.N,Net-(R46-Pad2)*%
X304500000Y-98250000D03*
X304500000Y-101000000D03*
%TO.N,Net-(R37-Pad1)*%
X317250000Y-97500000D03*
%TO.N,VCO3FMPot1*%
X294500000Y-149000000D03*
X292500000Y-146272200D03*
%TO.N,VCO3WaveMixPot3*%
X264500000Y-160750000D03*
%TO.N,VCO2IDKPot1*%
X260500000Y-93500000D03*
X263000000Y-96000000D03*
%TD*%
D23*
%TO.N,VCO2PwmPot2*%
X295500000Y-86750000D02*
X296000000Y-86250000D01*
X296000000Y-86250000D02*
X296000000Y-75785000D01*
X296000000Y-75785000D02*
X300985000Y-70800000D01*
X291750000Y-89250000D02*
X291750000Y-92000000D01*
X291750000Y-92000000D02*
X290500000Y-93250000D01*
X290500000Y-135526720D02*
X286250000Y-139776720D01*
X290500000Y-93250000D02*
X290500000Y-135526720D01*
X286250000Y-139776720D02*
X286250000Y-161000000D01*
X286250000Y-161000000D02*
X285750000Y-161500000D01*
%TO.N,SW2p1*%
X313685000Y-70800000D02*
X313685000Y-70935000D01*
X313685000Y-70935000D02*
X323250000Y-80500000D01*
X323250000Y-80500000D02*
X323250000Y-95250000D01*
X323250000Y-95250000D02*
X322337800Y-96162200D01*
X322337800Y-96162200D02*
X320506200Y-96162200D01*
%TO.N,SW2p2*%
X316225000Y-70800000D02*
X316225000Y-71975000D01*
X316225000Y-71975000D02*
X324750000Y-80500000D01*
X324750000Y-80500000D02*
X324750000Y-142250000D01*
X324750000Y-142250000D02*
X323750000Y-143250000D01*
X262500000Y-151000000D02*
X262500000Y-157975000D01*
X262500000Y-157975000D02*
X255275000Y-165200000D01*
%TO.N,SW1p2*%
X269250000Y-162500000D02*
X269677000Y-162073000D01*
X269880200Y-87527795D02*
X269880200Y-85275795D01*
X269677000Y-117151090D02*
X265380200Y-112854290D01*
X269880200Y-85275795D02*
X271455000Y-83700995D01*
X269677000Y-162073000D02*
X269677000Y-117151090D01*
X265380200Y-112854290D02*
X265380200Y-92027795D01*
X265380200Y-92027795D02*
X269880200Y-87527795D01*
X271455000Y-71750000D02*
X270505000Y-70800000D01*
X271455000Y-83700995D02*
X271455000Y-71750000D01*
%TO.N,fmIn2*%
X265435000Y-165200000D02*
X269000000Y-161635000D01*
X269000000Y-161635000D02*
X269000000Y-151026720D01*
X269000000Y-151026720D02*
X269226000Y-150800720D01*
X269226000Y-150800720D02*
X269226000Y-150199280D01*
X269226000Y-150199280D02*
X268750000Y-149723280D01*
X268750000Y-149723280D02*
X268750000Y-117685595D01*
X268750000Y-117685595D02*
X264874849Y-113810444D01*
X264874849Y-113810444D02*
X264874849Y-91125151D01*
X264874849Y-91125151D02*
X266500000Y-89500000D01*
%TO.N,fmIn1*%
X270750000Y-106250000D02*
X270750000Y-118000000D01*
X270500000Y-162675000D02*
X267975000Y-165200000D01*
X270750000Y-118000000D02*
X270500000Y-118250000D01*
X270500000Y-118250000D02*
X270500000Y-162675000D01*
%TO.N,Net-(D2-A)*%
X277500000Y-137250000D02*
X277500000Y-134250000D01*
X277500000Y-134250000D02*
X279500000Y-132250000D01*
X279500000Y-132250000D02*
X279500000Y-129248400D01*
X279500000Y-129248400D02*
X281506200Y-127242200D01*
%TO.N,Net-(D5-A)*%
X279750000Y-84500000D02*
X279852200Y-84602200D01*
X279852200Y-84602200D02*
X279852200Y-118736200D01*
X279852200Y-118736200D02*
X273886200Y-124702200D01*
%TO.N,VCO2CoarsePot2*%
X280750000Y-108250000D02*
X280500000Y-108000000D01*
X280500000Y-108000000D02*
X280500000Y-73175000D01*
X280500000Y-73175000D02*
X278125000Y-70800000D01*
%TO.N,VCO1FMPot1*%
X276286200Y-102242200D02*
X277750000Y-100778400D01*
X277750000Y-100778400D02*
X277750000Y-95146000D01*
X277750000Y-95146000D02*
X276346200Y-93742200D01*
%TO.N,VCO3FMPot2*%
X254000000Y-167240000D02*
X254000000Y-147030376D01*
X254000000Y-147030376D02*
X252877824Y-145908200D01*
X252877824Y-145908200D02*
X251419795Y-145908200D01*
X247500000Y-135250000D02*
X247500000Y-128528400D01*
X251419795Y-145908200D02*
X249892200Y-144380605D01*
X249892200Y-144380605D02*
X249892200Y-137642200D01*
X249892200Y-137642200D02*
X247500000Y-135250000D01*
X247500000Y-128528400D02*
X248786200Y-127242200D01*
%TO.N,Net-(U4D--)*%
X246506200Y-127242200D02*
X246750000Y-127486000D01*
X246750000Y-127486000D02*
X246750000Y-137450000D01*
X246750000Y-137450000D02*
X248050000Y-138750000D01*
%TO.N,mixOut*%
X239500000Y-162500000D02*
X239000000Y-162000000D01*
X239000000Y-162000000D02*
X239000000Y-152250000D01*
X239000000Y-152250000D02*
X238886200Y-152136200D01*
X238886200Y-152136200D02*
X238886200Y-127242200D01*
%TO.N,cvIn1*%
X275595000Y-165200000D02*
X280757200Y-160037800D01*
X280757200Y-160037800D02*
X280757200Y-130242800D01*
X280757200Y-130242800D02*
X284500000Y-126500000D01*
X284500000Y-126500000D02*
X284500000Y-107500000D01*
%TO.N,VCO3WaveMixPot2*%
X281500000Y-164375000D02*
X281500000Y-143500000D01*
X280675000Y-165200000D02*
X281500000Y-164375000D01*
%TO.N,cvIn2*%
X273055000Y-165200000D02*
X276132200Y-162122800D01*
X275750000Y-134250000D02*
X277750000Y-132250000D01*
X276132200Y-162122800D02*
X276132200Y-154132200D01*
X276132200Y-154132200D02*
X275750000Y-153750000D01*
X275750000Y-153750000D02*
X275750000Y-134250000D01*
%TO.N,cvIn3*%
X273750000Y-161965000D02*
X273750000Y-149750000D01*
X270515000Y-165200000D02*
X273750000Y-161965000D01*
%TO.N,VCO3FinePot2*%
X267750000Y-149750000D02*
X267750000Y-138231200D01*
X268500000Y-150500000D02*
X267750000Y-149750000D01*
%TO.N,SW1p3*%
X273045000Y-85295805D02*
X273045000Y-70800000D01*
X270000000Y-102750000D02*
X270000000Y-101500000D01*
X270000000Y-101500000D02*
X269000000Y-100500000D01*
X269000000Y-89340805D02*
X273045000Y-85295805D01*
X269000000Y-100500000D02*
X269000000Y-89340805D01*
%TO.N,Net-(D5-K)*%
X273886200Y-122162200D02*
X271750000Y-120026000D01*
X274750000Y-91250000D02*
X274250000Y-90750000D01*
X271750000Y-120026000D02*
X271750000Y-103474896D01*
X271750000Y-103474896D02*
X274750000Y-100474896D01*
X274750000Y-100474896D02*
X274750000Y-91250000D01*
%TO.N,Net-(D3-A)*%
X264250000Y-103000000D02*
X264250000Y-88500000D01*
X263875000Y-103375000D02*
X264250000Y-103000000D01*
%TO.N,VCO1FMPot2*%
X274250000Y-75250000D02*
X275220200Y-76220200D01*
X275220200Y-76220200D02*
X275220200Y-97526200D01*
X275220200Y-97526200D02*
X276286200Y-98592200D01*
%TO.N,Net-(D5-K)*%
X299500000Y-91000000D02*
X299500000Y-93500000D01*
X300697200Y-94697200D02*
X302206200Y-94697200D01*
X299500000Y-93500000D02*
X300697200Y-94697200D01*
%TO.N,Net-(D3-K)*%
X286381200Y-87017200D02*
X283750000Y-89648400D01*
X283750000Y-89648400D02*
X283750000Y-107218400D01*
X283750000Y-107218400D02*
X283468400Y-107500000D01*
X283468400Y-107500000D02*
X282750000Y-107500000D01*
X273886200Y-117082200D02*
X275250000Y-115718400D01*
X275250000Y-115718400D02*
X275250000Y-108000000D01*
%TO.N,VCO2FMPot1*%
X314746200Y-90982200D02*
X314746200Y-89925200D01*
X314746200Y-89925200D02*
X318750000Y-85921400D01*
X318750000Y-77750000D02*
X314500000Y-73500000D01*
X318750000Y-85921400D02*
X318750000Y-77750000D01*
%TO.N,Net-(D4-K)*%
X271250000Y-132500000D02*
X271250000Y-121250000D01*
%TO.N,Net-(Q3-E)*%
X253586200Y-118192200D02*
X253586200Y-116435200D01*
X253586200Y-116435200D02*
X254828700Y-115192700D01*
X254828700Y-115192700D02*
X254828700Y-112912200D01*
%TO.N,Net-(D2-K)*%
X283250000Y-118500000D02*
X284000000Y-119250000D01*
X284000000Y-119250000D02*
X284000000Y-124000000D01*
X284000000Y-124000000D02*
X283297800Y-124702200D01*
X283297800Y-124702200D02*
X281506200Y-124702200D01*
%TO.N,VCO2PwmPot1*%
X298445000Y-70800000D02*
X298445000Y-71305000D01*
X298445000Y-71305000D02*
X294000000Y-75750000D01*
X294000000Y-75750000D02*
X294000000Y-93750000D01*
X294000000Y-93750000D02*
X296500000Y-96250000D01*
X296500000Y-96250000D02*
X296500000Y-115328400D01*
X296500000Y-115328400D02*
X296086200Y-115742200D01*
%TO.N,Net-(U3B-+)*%
X297356200Y-131242200D02*
X297451000Y-131147400D01*
X297451000Y-131147400D02*
X297451000Y-93187000D01*
X297451000Y-93187000D02*
X296506200Y-92242200D01*
%TO.N,Net-(C5-Pad1)*%
X244006200Y-99392200D02*
X244006200Y-104243800D01*
X244006200Y-104243800D02*
X242007800Y-106242200D01*
X242007800Y-106242200D02*
X238006200Y-106242200D01*
%TO.N,Net-(U3D--)*%
X311750000Y-94081000D02*
X309826200Y-92157200D01*
X311000000Y-107500000D02*
X311750000Y-106750000D01*
X311750000Y-106750000D02*
X311750000Y-94081000D01*
%TO.N,SW1p1*%
X230386200Y-70363800D02*
X231000000Y-69750000D01*
X230386200Y-106242200D02*
X230386200Y-70363800D01*
%TO.N,VCO1FMPot1*%
X252725000Y-86725000D02*
X252750000Y-86750000D01*
X252725000Y-70800000D02*
X252725000Y-86725000D01*
%TO.N,Net-(Q1-E)*%
X271736200Y-98742200D02*
X271736200Y-96763800D01*
X271736200Y-96763800D02*
X273046200Y-95453800D01*
X273046200Y-95453800D02*
X273046200Y-93242200D01*
%TO.N,Net-(R13-Pad1)*%
X273500000Y-141250000D02*
X274000000Y-141750000D01*
X273500000Y-132000000D02*
X273500000Y-141250000D01*
%TO.N,VCO3FinePot2*%
X267750000Y-138231200D02*
X267750000Y-135000000D01*
%TO.N,VCO1FMPot1*%
X232706200Y-96342200D02*
X232706200Y-95851795D01*
X246750000Y-73500000D02*
X251750000Y-73500000D01*
X251750000Y-73500000D02*
X252725000Y-72525000D01*
X232706200Y-95851795D02*
X242000000Y-86557995D01*
X242000000Y-86557995D02*
X242000000Y-78250000D01*
X242000000Y-78250000D02*
X246750000Y-73500000D01*
X252725000Y-72525000D02*
X252725000Y-70800000D01*
%TO.N,VCO1FinePot2*%
X238506200Y-84432200D02*
X240067800Y-84432200D01*
X240067800Y-84432200D02*
X241000000Y-83500000D01*
X241000000Y-83500000D02*
X241000000Y-77750000D01*
X241000000Y-77750000D02*
X247645000Y-71105000D01*
X247645000Y-71105000D02*
X247645000Y-70800000D01*
%TO.N,Net-(R2-Pad2)*%
X289750000Y-76250000D02*
X289750000Y-90498400D01*
X289750000Y-90498400D02*
X286506200Y-93742200D01*
%TO.N,Net-(D3-A)*%
X263875000Y-103375000D02*
X262507800Y-104742200D01*
X262507800Y-104742200D02*
X256626200Y-104742200D01*
%TO.N,Net-(D2-K)*%
X237760200Y-115239800D02*
X239519653Y-113480347D01*
X237760200Y-139488200D02*
X237760200Y-115239800D01*
X237506200Y-139742200D02*
X237760200Y-139488200D01*
%TO.N,Net-(U4B-+)*%
X259506200Y-149862200D02*
X261887800Y-149862200D01*
X261887800Y-149862200D02*
X263250000Y-148500000D01*
X263250000Y-148500000D02*
X263250000Y-125000000D01*
X263250000Y-125000000D02*
X262002200Y-123752200D01*
X262002200Y-123752200D02*
X260006200Y-123752200D01*
%TO.N,VCO3PwmPot1*%
X255750000Y-148646000D02*
X255750000Y-125750000D01*
X259506200Y-152402200D02*
X255750000Y-148646000D01*
%TO.N,Net-(D4-A)*%
X259506200Y-154942200D02*
X256442200Y-154942200D01*
X256442200Y-154942200D02*
X255000000Y-153500000D01*
X255000000Y-153500000D02*
X255000000Y-136500000D01*
%TO.N,cvIn3*%
X284006200Y-150742200D02*
X284006200Y-151493800D01*
X270515000Y-164985000D02*
X270515000Y-165200000D01*
%TO.N,Net-(C6-Pad2)*%
X275006200Y-156242200D02*
X275000000Y-156236000D01*
X275000000Y-156236000D02*
X275000000Y-132250000D01*
X275000000Y-132250000D02*
X278000000Y-129250000D01*
X278000000Y-129250000D02*
X278000000Y-123000000D01*
X278000000Y-123000000D02*
X278837800Y-122162200D01*
X278837800Y-122162200D02*
X281506200Y-122162200D01*
%TO.N,Net-(R46-Pad2)*%
X302506200Y-110042200D02*
X304500000Y-108048400D01*
X304500000Y-98250000D02*
X304500000Y-94943400D01*
X304500000Y-108048400D02*
X304500000Y-101000000D01*
X304500000Y-94943400D02*
X309826200Y-89617200D01*
%TO.N,VCO2FMPot1*%
X307426200Y-110162200D02*
X310837800Y-110162200D01*
X310837800Y-110162200D02*
X312500000Y-108500000D01*
X312500000Y-108500000D02*
X312500000Y-98748400D01*
X312500000Y-98748400D02*
X314506200Y-96742200D01*
%TO.N,Net-(R37-Pad1)*%
X317250000Y-106486000D02*
X317250000Y-97500000D01*
X320506200Y-109742200D02*
X317250000Y-106486000D01*
%TO.N,VCO3FMPot1*%
X294500000Y-161245000D02*
X298455000Y-165200000D01*
X289006200Y-139522200D02*
X292500000Y-143016000D01*
X292500000Y-143016000D02*
X292500000Y-146272200D01*
X294500000Y-149000000D02*
X294500000Y-161245000D01*
X289006200Y-139522200D02*
X293086200Y-135442200D01*
X293086200Y-135442200D02*
X293086200Y-134892200D01*
%TO.N,VCO3WaveMixPot3*%
X264500000Y-160750000D02*
X264500000Y-160000000D01*
X264500000Y-160000000D02*
X264446200Y-159946200D01*
X264446200Y-159946200D02*
X264446200Y-156242200D01*
%TO.N,Net-(U4A--)*%
X251886200Y-139702200D02*
X252432200Y-139156200D01*
X252432200Y-139156200D02*
X252432200Y-124876200D01*
X252432200Y-124876200D02*
X253756200Y-123552200D01*
%TO.N,VCO3FMPot1*%
X248866200Y-131242200D02*
X250000000Y-130108400D01*
X250000000Y-130108400D02*
X250000000Y-123299200D01*
X250000000Y-123299200D02*
X254856200Y-118443000D01*
X254856200Y-118443000D02*
X254856200Y-118192200D01*
X248866200Y-131242200D02*
X248866200Y-134392200D01*
%TO.N,Net-(U3B-+)*%
X302206200Y-99777200D02*
X304746200Y-99777200D01*
X304746200Y-99777200D02*
X309826200Y-94697200D01*
%TO.N,Net-(R47-Pad1)*%
X309006200Y-137742200D02*
X309006200Y-135243800D01*
X309006200Y-135243800D02*
X318587800Y-125662200D01*
X318587800Y-125662200D02*
X320506200Y-125662200D01*
%TO.N,Net-(U3B--)*%
X302206200Y-102317200D02*
X299931221Y-104592179D01*
X299931221Y-104592179D02*
X299931221Y-134117179D01*
X299931221Y-134117179D02*
X296306200Y-137742200D01*
%TO.N,Net-(R47-Pad1)*%
X302206200Y-104857200D02*
X301000000Y-106063400D01*
X301000000Y-106063400D02*
X301000000Y-135250000D01*
X301000000Y-135250000D02*
X303492200Y-137742200D01*
X303492200Y-137742200D02*
X309006200Y-137742200D01*
%TO.N,Net-(U3C-+)*%
X302506200Y-122742200D02*
X304757800Y-122742200D01*
X306972800Y-99777200D02*
X309826200Y-99777200D01*
X304757800Y-122742200D02*
X305750000Y-121750000D01*
X305750000Y-121750000D02*
X305750000Y-101000000D01*
X305750000Y-101000000D02*
X306972800Y-99777200D01*
%TO.N,Net-(R8-Pad1)*%
X232706200Y-99122200D02*
X232706200Y-98293800D01*
X232706200Y-98293800D02*
X238506200Y-92493800D01*
X238506200Y-92493800D02*
X238506200Y-92052200D01*
%TO.N,Net-(R22-Pad1)*%
X244006200Y-96592200D02*
X245592200Y-96592200D01*
X246992200Y-104742200D02*
X249006200Y-104742200D01*
X245592200Y-96592200D02*
X246000000Y-97000000D01*
X246000000Y-97000000D02*
X246000000Y-103750000D01*
X246000000Y-103750000D02*
X246992200Y-104742200D01*
%TO.N,Net-(U2B-+)*%
X243306200Y-78742200D02*
X246492200Y-78742200D01*
X251000000Y-97668400D02*
X249006200Y-99662200D01*
X246492200Y-78742200D02*
X251000000Y-83250000D01*
X251000000Y-83250000D02*
X251000000Y-97668400D01*
%TO.N,Net-(R39-Pad1)*%
X314506200Y-99282200D02*
X314506200Y-101652200D01*
X314506200Y-101652200D02*
X314616200Y-101762200D01*
%TO.N,Net-(D5-K)*%
X313506200Y-85482200D02*
X313506200Y-80982200D01*
X313506200Y-80982200D02*
X312006200Y-79482200D01*
%TO.N,Net-(Q5-E)*%
X313476200Y-90982200D02*
X313476200Y-89340200D01*
X313476200Y-89340200D02*
X314776200Y-88040200D01*
X314776200Y-88040200D02*
X314776200Y-85482200D01*
X317626200Y-142242200D02*
X321007800Y-142242200D01*
X321007800Y-142242200D02*
X322250000Y-141000000D01*
X322250000Y-141000000D02*
X322250000Y-101000000D01*
X322250000Y-101000000D02*
X313476200Y-92226200D01*
X313476200Y-92226200D02*
X313476200Y-90982200D01*
%TO.N,Net-(U2B--)*%
X249006200Y-102202200D02*
X247000000Y-100196000D01*
X247000000Y-100196000D02*
X247000000Y-85668400D01*
X247000000Y-85668400D02*
X247926200Y-84742200D01*
%TO.N,VCO1PwmPot1*%
X260846200Y-85742200D02*
X262074000Y-86970000D01*
X262074000Y-86970000D02*
X262074000Y-100926000D01*
X262074000Y-100926000D02*
X260797800Y-102202200D01*
X260797800Y-102202200D02*
X256626200Y-102202200D01*
X260345000Y-70800000D02*
X261646199Y-72101199D01*
X261646199Y-72101199D02*
X261646199Y-84942201D01*
X261646199Y-84942201D02*
X260846200Y-85742200D01*
%TO.N,Net-(U3D--)*%
X285926200Y-115742200D02*
X285926200Y-120742200D01*
X285886200Y-110742200D02*
X285886200Y-115702200D01*
X285886200Y-115702200D02*
X285926200Y-115742200D01*
%TO.N,VCO2IDKPot2*%
X308605000Y-70800000D02*
X308605000Y-73645000D01*
X308605000Y-73645000D02*
X298586200Y-83663800D01*
X298586200Y-83663800D02*
X298586200Y-110742200D01*
%TO.N,Net-(R40-Pad1)*%
X321094700Y-82433100D02*
X321094700Y-84393700D01*
X321094700Y-84393700D02*
X320506200Y-84982200D01*
%TO.N,SW2p3*%
X316235000Y-165200000D02*
X313500000Y-162465000D01*
X313500000Y-162465000D02*
X313500000Y-142828400D01*
X313500000Y-142828400D02*
X320506200Y-135822200D01*
%TO.N,fmIn3*%
X262895000Y-165200000D02*
X267006200Y-161088800D01*
X267006200Y-161088800D02*
X267006200Y-129242200D01*
%TO.N,VCO1CoarsePot2*%
X240025000Y-70800000D02*
X240025000Y-73475000D01*
X240025000Y-73475000D02*
X235257800Y-78242200D01*
X235257800Y-78242200D02*
X232506200Y-78242200D01*
%TO.N,VCO2FMPot2*%
X293365000Y-70800000D02*
X293365000Y-74135000D01*
X293365000Y-74135000D02*
X292156200Y-75343800D01*
X292156200Y-75343800D02*
X292156200Y-77522200D01*
%TO.N,Net-(D3-K)*%
X286381200Y-87017200D02*
X287500000Y-85898400D01*
X287500000Y-85898400D02*
X287500000Y-79496000D01*
X287500000Y-79496000D02*
X287246200Y-79242200D01*
%TO.N,Net-(D1-K)*%
X269006200Y-109242200D02*
X269006200Y-102006200D01*
X269006200Y-102006200D02*
X267742200Y-100742200D01*
X267742200Y-100742200D02*
X266506200Y-100742200D01*
%TO.N,Net-(U4D--)*%
X259506200Y-142242200D02*
X259506200Y-139702200D01*
%TO.N,Net-(U4A--)*%
X251886200Y-142242200D02*
X251886200Y-139702200D01*
%TO.N,Net-(U3A--)*%
X302206200Y-92157200D02*
X302206200Y-89617200D01*
%TO.N,Net-(U2A--)*%
X249006200Y-92042200D02*
X249006200Y-89502200D01*
%TO.N,Net-(R34-Pad1)*%
X292156200Y-80062200D02*
X292156200Y-83892200D01*
X292156200Y-83892200D02*
X291806200Y-84242200D01*
%TO.N,VCO2FMPot1*%
X320506200Y-87522200D02*
X320506200Y-90392200D01*
X320506200Y-90392200D02*
X320546200Y-90432200D01*
%TO.N,Net-(U3C--)*%
X309826200Y-102317200D02*
X309826200Y-104857200D01*
%TO.N,VCO3WaveMixPot3*%
X264446200Y-156242200D02*
X264446200Y-153252200D01*
X264446200Y-153252200D02*
X264756200Y-152942200D01*
%TO.N,Net-(C6-Pad1)*%
X271756200Y-153242200D02*
X271756200Y-155932200D01*
X271756200Y-155932200D02*
X272066200Y-156242200D01*
%TO.N,SW1p1*%
X230386200Y-106242200D02*
X230386200Y-115472200D01*
X230386200Y-115472200D02*
X231156200Y-116242200D01*
%TO.N,VCO1FMPot1*%
X232706200Y-96342200D02*
X231657800Y-96342200D01*
X231657800Y-96342200D02*
X231000000Y-97000000D01*
X231000000Y-97000000D02*
X231000000Y-101000000D01*
X231000000Y-101000000D02*
X231662200Y-101662200D01*
X231662200Y-101662200D02*
X232706200Y-101662200D01*
%TO.N,Net-(R7-Pad1)*%
X232506200Y-90942200D02*
X232506200Y-93602200D01*
X232506200Y-93602200D02*
X232706200Y-93802200D01*
%TD*%
M02*
