%TF.GenerationSoftware,KiCad,Pcbnew,9.0.0*%
%TF.CreationDate,2025-03-13T15:24:46+00:00*%
%TF.ProjectId,MAIN,4d41494e-2e6b-4696-9361-645f70636258,rev?*%
%TF.SameCoordinates,Original*%
%TF.FileFunction,Copper,L3,Inr*%
%TF.FilePolarity,Positive*%
%FSLAX46Y46*%
G04 Gerber Fmt 4.6, Leading zero omitted, Abs format (unit mm)*
G04 Created by KiCad (PCBNEW 9.0.0) date 2025-03-13 15:24:46*
%MOMM*%
%LPD*%
G01*
G04 APERTURE LIST*
%TA.AperFunction,ComponentPad*%
%ADD10C,1.600000*%
%TD*%
%TA.AperFunction,ComponentPad*%
%ADD11R,1.050000X1.500000*%
%TD*%
%TA.AperFunction,ComponentPad*%
%ADD12O,1.050000X1.500000*%
%TD*%
%TA.AperFunction,ComponentPad*%
%ADD13O,1.600000X1.600000*%
%TD*%
%TA.AperFunction,ComponentPad*%
%ADD14R,2.400000X2.400000*%
%TD*%
%TA.AperFunction,ComponentPad*%
%ADD15O,2.400000X2.400000*%
%TD*%
%TA.AperFunction,ComponentPad*%
%ADD16R,1.700000X1.700000*%
%TD*%
%TA.AperFunction,ComponentPad*%
%ADD17O,1.700000X1.700000*%
%TD*%
%TA.AperFunction,ComponentPad*%
%ADD18C,1.400000*%
%TD*%
%TA.AperFunction,ComponentPad*%
%ADD19O,1.400000X1.400000*%
%TD*%
%TA.AperFunction,ComponentPad*%
%ADD20C,1.800000*%
%TD*%
%TA.AperFunction,ComponentPad*%
%ADD21R,1.600000X1.600000*%
%TD*%
%TA.AperFunction,ViaPad*%
%ADD22C,0.800000*%
%TD*%
%TA.AperFunction,Conductor*%
%ADD23C,0.500000*%
%TD*%
G04 APERTURE END LIST*
D10*
%TO.N,Net-(U4B-+)*%
%TO.C,C4*%
X256256200Y-123552200D03*
%TO.N,Net-(U4A--)*%
X253756200Y-123552200D03*
%TD*%
%TO.N,Net-(D5-K)*%
%TO.C,C7*%
X312006200Y-79482200D03*
%TO.N,VCO1CoarsePot1*%
X317006200Y-79482200D03*
%TD*%
D11*
%TO.N,Net-(D5-K)*%
%TO.C,Q6*%
X313506200Y-85482200D03*
D12*
%TO.N,Net-(Q5-E)*%
X314776200Y-85482200D03*
%TO.N,VCO1CoarsePot1*%
X316046200Y-85482200D03*
%TD*%
D10*
%TO.N,VCO1CoarsePot1*%
%TO.C,R20*%
X260006200Y-111052200D03*
D13*
%TO.N,Net-(U4B-+)*%
X260006200Y-123752200D03*
%TD*%
D10*
%TO.N,Net-(D3-K)*%
%TO.C,R17*%
X286381200Y-87017200D03*
D13*
%TO.N,VCO1CoarsePot1*%
X273681200Y-87017200D03*
%TD*%
D10*
%TO.N,Net-(U3D--)*%
%TO.C,R42*%
X285926200Y-115742200D03*
D13*
%TO.N,VCO2PwmPot1*%
X296086200Y-115742200D03*
%TD*%
D14*
%TO.N,Net-(D2-K)*%
%TO.C,D2*%
X232506200Y-142982200D03*
D15*
%TO.N,Net-(D2-A)*%
X232506200Y-137902200D03*
%TD*%
D11*
%TO.N,VCO1CoarsePot3*%
%TO.C,Q1*%
X270506200Y-93242200D03*
D12*
%TO.N,VCO1FMPot1*%
X271776200Y-93242200D03*
%TO.N,Net-(Q1-E)*%
X273046200Y-93242200D03*
%TD*%
D10*
%TO.N,Net-(R27-Pad1)*%
%TO.C,R27*%
X231386200Y-160592200D03*
D13*
%TO.N,Net-(U4B--)*%
X231386200Y-147892200D03*
%TD*%
D16*
%TO.N,VCO1CoarsePot1*%
%TO.C,J1*%
X237485000Y-70800000D03*
D17*
%TO.N,VCO1CoarsePot2*%
X240025000Y-70800000D03*
%TO.N,VCO1CoarsePot3*%
X242565000Y-70800000D03*
%TO.N,VCO1CoarsePot1*%
X245105000Y-70800000D03*
%TO.N,VCO1FinePot2*%
X247645000Y-70800000D03*
%TO.N,VCO1CoarsePot3*%
X250185000Y-70800000D03*
%TO.N,VCO1FMPot1*%
X252725000Y-70800000D03*
%TO.N,VCO1FMPot2*%
X255265000Y-70800000D03*
%TO.N,VCO1FMPot3*%
X257805000Y-70800000D03*
%TO.N,VCO1PwmPot1*%
X260345000Y-70800000D03*
%TO.N,VCO1CoarsePot1*%
X262885000Y-70800000D03*
%TO.N,VCO1PwmPot3*%
X265425000Y-70800000D03*
%TO.N,SW1p1*%
X267965000Y-70800000D03*
%TO.N,SW1p2*%
X270505000Y-70800000D03*
%TO.N,SW1p3*%
X273045000Y-70800000D03*
%TO.N,VCO1CoarsePot1*%
X275585000Y-70800000D03*
%TO.N,VCO2CoarsePot2*%
X278125000Y-70800000D03*
%TO.N,VCO1CoarsePot3*%
X280665000Y-70800000D03*
%TO.N,VCO1CoarsePot1*%
X283205000Y-70800000D03*
%TO.N,VCO2FinePot2*%
X285745000Y-70800000D03*
%TO.N,VCO1CoarsePot3*%
X288285000Y-70800000D03*
%TO.N,VCO2FMPot1*%
X290825000Y-70800000D03*
%TO.N,VCO2FMPot2*%
X293365000Y-70800000D03*
%TO.N,VCO2FMPot3*%
X295905000Y-70800000D03*
%TO.N,VCO2PwmPot1*%
X298445000Y-70800000D03*
%TO.N,VCO2PwmPot2*%
X300985000Y-70800000D03*
%TO.N,VCO2PwmPot3*%
X303525000Y-70800000D03*
%TO.N,VCO2IDKPot1*%
X306065000Y-70800000D03*
%TO.N,VCO2IDKPot2*%
X308605000Y-70800000D03*
%TO.N,VCO1CoarsePot3*%
X311145000Y-70800000D03*
%TO.N,SW2p1*%
X313685000Y-70800000D03*
%TO.N,SW2p2*%
X316225000Y-70800000D03*
%TD*%
D10*
%TO.N,Net-(R4-Pad1)*%
%TO.C,R4*%
X281656200Y-103742200D03*
D13*
%TO.N,cvIn1*%
X294356200Y-103742200D03*
%TD*%
D10*
%TO.N,Net-(U2B--)*%
%TO.C,R18*%
X247926200Y-84742200D03*
D13*
%TO.N,VCO1CoarsePot1*%
X258086200Y-84742200D03*
%TD*%
D10*
%TO.N,Net-(C6-Pad1)*%
%TO.C,C6*%
X277506200Y-156242200D03*
%TO.N,Net-(C6-Pad2)*%
X275006200Y-156242200D03*
%TD*%
%TO.N,VCO3WaveMixPot3*%
%TO.C,R31*%
X264446200Y-156242200D03*
D13*
%TO.N,Net-(C6-Pad1)*%
X272066200Y-156242200D03*
%TD*%
D18*
%TO.N,VCO2FMPot1*%
%TO.C,TH11*%
X314506200Y-96742200D03*
D19*
%TO.N,Net-(R39-Pad1)*%
X314506200Y-99282200D03*
%TD*%
D20*
%TO.N,Net-(R10-Pad1)*%
%TO.C,R10*%
X279531200Y-134717200D03*
%TO.N,VCO1CoarsePot1*%
X276991200Y-144877200D03*
%TO.N,N/C*%
X279531200Y-152497200D03*
%TD*%
D10*
%TO.N,VCO1FMPot1*%
%TO.C,R2*%
X276346200Y-93742200D03*
D13*
%TO.N,Net-(R2-Pad2)*%
X286506200Y-93742200D03*
%TD*%
D18*
%TO.N,VCO2FMPot2*%
%TO.C,TH9*%
X292156200Y-77522200D03*
D19*
%TO.N,Net-(R34-Pad1)*%
X292156200Y-80062200D03*
%TD*%
D10*
%TO.N,Net-(U3C-+)*%
%TO.C,R48*%
X296166200Y-124242200D03*
D13*
%TO.N,VCO1CoarsePot1*%
X286006200Y-124242200D03*
%TD*%
D20*
%TO.N,Net-(R2-Pad2)*%
%TO.C,R3*%
X260006200Y-78242200D03*
%TO.N,VCO1CoarsePot1*%
X270166200Y-80782200D03*
%TO.N,N/C*%
X277786200Y-78242200D03*
%TD*%
D10*
%TO.N,Net-(R39-Pad1)*%
%TO.C,R39*%
X314616200Y-101762200D03*
D13*
%TO.N,VCO2CoarsePot2*%
X314616200Y-114462200D03*
%TD*%
D10*
%TO.N,Net-(D4-K)*%
%TO.C,R21*%
X245506200Y-134042200D03*
D13*
%TO.N,VCO1CoarsePot1*%
X245506200Y-146742200D03*
%TD*%
D10*
%TO.N,VCO3FMPot1*%
%TO.C,R9*%
X293086200Y-134892200D03*
D13*
%TO.N,Net-(R10-Pad1)*%
X282926200Y-134892200D03*
%TD*%
D10*
%TO.N,Net-(U3B--)*%
%TO.C,R45*%
X307426200Y-133822200D03*
D13*
%TO.N,VCO1CoarsePot1*%
X307426200Y-123662200D03*
%TD*%
D11*
%TO.N,Net-(D2-K)*%
%TO.C,Q4*%
X253558700Y-112912200D03*
D12*
%TO.N,Net-(Q3-E)*%
X254828700Y-112912200D03*
%TO.N,VCO1CoarsePot1*%
X256098700Y-112912200D03*
%TD*%
D10*
%TO.N,Net-(C5-Pad1)*%
%TO.C,C5*%
X233256200Y-110742200D03*
%TO.N,Net-(C5-Pad2)*%
X235756200Y-110742200D03*
%TD*%
%TO.N,Net-(D3-A)*%
%TO.C,R15*%
X271006200Y-85742200D03*
D13*
%TO.N,VCO1PwmPot1*%
X260846200Y-85742200D03*
%TD*%
D10*
%TO.N,Net-(D4-A)*%
%TO.C,R19*%
X233006200Y-134822200D03*
D13*
%TO.N,VCO3PwmPot1*%
X233006200Y-124662200D03*
%TD*%
D10*
%TO.N,SW1p3*%
%TO.C,R24*%
X238506200Y-102552200D03*
D13*
%TO.N,Net-(R22-Pad1)*%
X238506200Y-94932200D03*
%TD*%
D10*
%TO.N,mixOut*%
%TO.C,R33*%
X238886200Y-127242200D03*
D13*
%TO.N,Net-(U4D--)*%
X246506200Y-127242200D03*
%TD*%
D21*
%TO.N,Net-(U2A--)*%
%TO.C,U2*%
X249006200Y-89502200D03*
D13*
X249006200Y-92042200D03*
%TO.N,Net-(D1-K)*%
X249006200Y-94582200D03*
%TO.N,VCO2IDKPot1*%
X249006200Y-97122200D03*
%TO.N,Net-(U2B-+)*%
X249006200Y-99662200D03*
%TO.N,Net-(U2B--)*%
X249006200Y-102202200D03*
%TO.N,Net-(R22-Pad1)*%
X249006200Y-104742200D03*
%TO.N,Net-(D3-A)*%
X256626200Y-104742200D03*
%TO.N,VCO1PwmPot1*%
X256626200Y-102202200D03*
%TO.N,Net-(U2B-+)*%
X256626200Y-99662200D03*
%TO.N,VCO1CoarsePot3*%
X256626200Y-97122200D03*
%TO.N,VCO1CoarsePot1*%
X256626200Y-94582200D03*
X256626200Y-92042200D03*
%TO.N,unconnected-(U2-Pad14)*%
X256626200Y-89502200D03*
%TD*%
D16*
%TO.N,SW2p3*%
%TO.C,J3*%
X316235000Y-165200000D03*
D17*
%TO.N,VCO1CoarsePot1*%
X313695000Y-165200000D03*
%TO.N,VCO3CoarsePot2*%
X311155000Y-165200000D03*
%TO.N,VCO1CoarsePot3*%
X308615000Y-165200000D03*
%TO.N,VCO1CoarsePot1*%
X306075000Y-165200000D03*
%TO.N,VCO3FinePot2*%
X303535000Y-165200000D03*
%TO.N,VCO1CoarsePot3*%
X300995000Y-165200000D03*
%TO.N,VCO3FMPot1*%
X298455000Y-165200000D03*
%TO.N,VCO3FMPot2*%
X295915000Y-165200000D03*
%TO.N,VCO3FMPot3*%
X293375000Y-165200000D03*
%TO.N,VCO3PwmPot1*%
X290835000Y-165200000D03*
%TO.N,VCO1CoarsePot1*%
X288295000Y-165200000D03*
%TO.N,VCO3PwmPot3*%
X285755000Y-165200000D03*
%TO.N,VCO3WaveMixPot1*%
X283215000Y-165200000D03*
%TO.N,VCO3WaveMixPot2*%
X280675000Y-165200000D03*
%TO.N,VCO3WaveMixPot3*%
X278135000Y-165200000D03*
%TO.N,cvIn1*%
X275595000Y-165200000D03*
%TO.N,cvIn2*%
X273055000Y-165200000D03*
%TO.N,cvIn3*%
X270515000Y-165200000D03*
%TO.N,fmIn1*%
X267975000Y-165200000D03*
%TO.N,fmIn2*%
X265435000Y-165200000D03*
%TO.N,fmIn3*%
X262895000Y-165200000D03*
%TO.N,VCO2PwmPot2*%
X260355000Y-165200000D03*
%TO.N,SW1p2*%
X257815000Y-165200000D03*
%TO.N,SW2p2*%
X255275000Y-165200000D03*
%TO.N,mixOut*%
X252735000Y-165200000D03*
%TO.N,unconnected-(J3-Pin_27-Pad27)*%
X250195000Y-165200000D03*
%TO.N,unconnected-(J3-Pin_28-Pad28)*%
X247655000Y-165200000D03*
%TO.N,unconnected-(J3-Pin_29-Pad29)*%
X245115000Y-165200000D03*
%TO.N,unconnected-(J3-Pin_30-Pad30)*%
X242575000Y-165200000D03*
%TO.N,unconnected-(J3-Pin_31-Pad31)*%
X240035000Y-165200000D03*
%TO.N,unconnected-(J3-Pin_32-Pad32)*%
X237495000Y-165200000D03*
%TD*%
D20*
%TO.N,Net-(R35-Pad2)*%
%TO.C,R36*%
X314701200Y-117137200D03*
%TO.N,VCO1CoarsePot1*%
X312161200Y-127297200D03*
%TO.N,N/C*%
X314701200Y-134917200D03*
%TD*%
D21*
%TO.N,Net-(D1-K)*%
%TO.C,U1*%
X273886200Y-112002200D03*
D13*
%TO.N,Net-(D1-A)*%
X273886200Y-114542200D03*
%TO.N,Net-(D3-K)*%
X273886200Y-117082200D03*
%TO.N,Net-(C5-Pad2)*%
X273886200Y-119622200D03*
%TO.N,Net-(D5-K)*%
X273886200Y-122162200D03*
%TO.N,Net-(D5-A)*%
X273886200Y-124702200D03*
%TO.N,VCO1CoarsePot1*%
X273886200Y-127242200D03*
%TO.N,Net-(D2-A)*%
X281506200Y-127242200D03*
%TO.N,Net-(D2-K)*%
X281506200Y-124702200D03*
%TO.N,Net-(C6-Pad2)*%
X281506200Y-122162200D03*
%TO.N,Net-(D4-K)*%
X281506200Y-119622200D03*
%TO.N,N/C*%
X281506200Y-117082200D03*
X281506200Y-114542200D03*
%TO.N,VCO2IDKPot1*%
X281506200Y-112002200D03*
%TD*%
D10*
%TO.N,VCO1CoarsePot1*%
%TO.C,R43*%
X284656200Y-131242200D03*
D13*
%TO.N,Net-(U3B-+)*%
X297356200Y-131242200D03*
%TD*%
D18*
%TO.N,VCO3FMPot1*%
%TO.C,TH8*%
X248866200Y-134392200D03*
D19*
%TO.N,Net-(R14-Pad1)*%
X251406200Y-134392200D03*
%TD*%
D11*
%TO.N,VCO1CoarsePot3*%
%TO.C,Q3*%
X256126200Y-118192200D03*
D12*
%TO.N,VCO3FMPot1*%
X254856200Y-118192200D03*
%TO.N,Net-(Q3-E)*%
X253586200Y-118192200D03*
%TD*%
D10*
%TO.N,VCO2IDKPot1*%
%TO.C,R12*%
X250006200Y-119362200D03*
D13*
%TO.N,Net-(Q3-E)*%
X250006200Y-111742200D03*
%TD*%
D10*
%TO.N,VCO2IDKPot1*%
%TO.C,R38*%
X310006200Y-142242200D03*
D13*
%TO.N,Net-(Q5-E)*%
X317626200Y-142242200D03*
%TD*%
D10*
%TO.N,SW2p1*%
%TO.C,R50*%
X320506200Y-96162200D03*
D13*
%TO.N,Net-(U3C--)*%
X320506200Y-106322200D03*
%TD*%
D10*
%TO.N,VCO2FMPot1*%
%TO.C,R35*%
X307426200Y-110162200D03*
D13*
%TO.N,Net-(R35-Pad2)*%
X307426200Y-120322200D03*
%TD*%
D11*
%TO.N,Net-(D1-K)*%
%TO.C,Q2*%
X273006200Y-98742200D03*
D12*
%TO.N,Net-(Q1-E)*%
X271736200Y-98742200D03*
%TO.N,VCO1CoarsePot1*%
X270466200Y-98742200D03*
%TD*%
D10*
%TO.N,Net-(R13-Pad1)*%
%TO.C,R13*%
X289506200Y-144892200D03*
D13*
%TO.N,VCO3CoarsePot2*%
X289506200Y-157592200D03*
%TD*%
D10*
%TO.N,Net-(U3D--)*%
%TO.C,R44*%
X285926200Y-120742200D03*
D13*
%TO.N,VCO1CoarsePot1*%
X296086200Y-120742200D03*
%TD*%
D14*
%TO.N,Net-(D1-K)*%
%TO.C,D1*%
X269006200Y-109242200D03*
D15*
%TO.N,Net-(D1-A)*%
X269006200Y-114322200D03*
%TD*%
D21*
%TO.N,VCO2IDKPot1*%
%TO.C,C9*%
X298636200Y-155382200D03*
D10*
%TO.N,VCO1CoarsePot1*%
X298636200Y-153382200D03*
%TD*%
D18*
%TO.N,VCO1FMPot2*%
%TO.C,TH1*%
X276286200Y-98592200D03*
D19*
%TO.N,Net-(R1-Pad1)*%
X278826200Y-98592200D03*
%TD*%
D14*
%TO.N,Net-(D4-K)*%
%TO.C,D4*%
X241246200Y-134242200D03*
D15*
%TO.N,Net-(D4-A)*%
X236166200Y-134242200D03*
%TD*%
D18*
%TO.N,VCO3FMPot2*%
%TO.C,TH3*%
X248786200Y-127242200D03*
D19*
%TO.N,Net-(R5-Pad1)*%
X251326200Y-127242200D03*
%TD*%
D18*
%TO.N,VCO1FMPot1*%
%TO.C,TH5*%
X232706200Y-101662200D03*
D19*
%TO.N,Net-(R8-Pad1)*%
X232706200Y-99122200D03*
%TD*%
D10*
%TO.N,Net-(R14-Pad1)*%
%TO.C,R14*%
X253786200Y-134242200D03*
D13*
%TO.N,VCO3FinePot2*%
X261406200Y-134242200D03*
%TD*%
D11*
%TO.N,VCO1CoarsePot3*%
%TO.C,Q5*%
X316016200Y-90982200D03*
D12*
%TO.N,VCO2FMPot1*%
X314746200Y-90982200D03*
%TO.N,Net-(Q5-E)*%
X313476200Y-90982200D03*
%TD*%
D18*
%TO.N,VCO2FMPot1*%
%TO.C,TH10*%
X320546200Y-90432200D03*
D19*
%TO.N,Net-(R37-Pad1)*%
X320546200Y-92972200D03*
%TD*%
D10*
%TO.N,Net-(D2-K)*%
%TO.C,C2*%
X237506200Y-139742200D03*
%TO.N,VCO1CoarsePot1*%
X237506200Y-144742200D03*
%TD*%
D16*
%TO.N,Net-(J2-Pin_1)*%
%TO.C,J2*%
X320466200Y-147582200D03*
D17*
X323006200Y-147582200D03*
%TO.N,VCO1CoarsePot1*%
X320466200Y-150122200D03*
X323006200Y-150122200D03*
X320466200Y-152662200D03*
X323006200Y-152662200D03*
X320466200Y-155202200D03*
X323006200Y-155202200D03*
%TO.N,Net-(J2-Pin_10)*%
X320466200Y-157742200D03*
X323006200Y-157742200D03*
%TD*%
D21*
%TO.N,Net-(U3A--)*%
%TO.C,U3*%
X302206200Y-89617200D03*
D13*
X302206200Y-92157200D03*
%TO.N,Net-(D5-K)*%
X302206200Y-94697200D03*
%TO.N,VCO2IDKPot1*%
X302206200Y-97237200D03*
%TO.N,Net-(U3B-+)*%
X302206200Y-99777200D03*
%TO.N,Net-(U3B--)*%
X302206200Y-102317200D03*
%TO.N,Net-(R47-Pad1)*%
X302206200Y-104857200D03*
%TO.N,Net-(U3C--)*%
X309826200Y-104857200D03*
X309826200Y-102317200D03*
%TO.N,Net-(U3C-+)*%
X309826200Y-99777200D03*
%TO.N,VCO1CoarsePot3*%
X309826200Y-97237200D03*
%TO.N,Net-(U3B-+)*%
X309826200Y-94697200D03*
%TO.N,Net-(U3D--)*%
X309826200Y-92157200D03*
%TO.N,Net-(R46-Pad2)*%
X309826200Y-89617200D03*
%TD*%
D21*
%TO.N,Net-(U4A--)*%
%TO.C,U4*%
X251886200Y-139702200D03*
D13*
X251886200Y-142242200D03*
%TO.N,Net-(D2-K)*%
X251886200Y-144782200D03*
%TO.N,VCO2IDKPot1*%
X251886200Y-147322200D03*
%TO.N,Net-(U4B-+)*%
X251886200Y-149862200D03*
%TO.N,Net-(U4B--)*%
X251886200Y-152402200D03*
%TO.N,Net-(R27-Pad1)*%
X251886200Y-154942200D03*
%TO.N,Net-(D4-A)*%
X259506200Y-154942200D03*
%TO.N,VCO3PwmPot1*%
X259506200Y-152402200D03*
%TO.N,Net-(U4B-+)*%
X259506200Y-149862200D03*
%TO.N,VCO1CoarsePot3*%
X259506200Y-147322200D03*
%TO.N,VCO3WaveMixPot2*%
X259506200Y-144782200D03*
%TO.N,Net-(U4D--)*%
X259506200Y-142242200D03*
X259506200Y-139702200D03*
%TD*%
D18*
%TO.N,VCO1FMPot1*%
%TO.C,TH2*%
X276286200Y-102242200D03*
D19*
%TO.N,Net-(R4-Pad1)*%
X278826200Y-102242200D03*
%TD*%
D10*
%TO.N,Net-(R8-Pad1)*%
%TO.C,R8*%
X238506200Y-92052200D03*
D13*
%TO.N,VCO1FinePot2*%
X238506200Y-84432200D03*
%TD*%
D10*
%TO.N,Net-(R40-Pad1)*%
%TO.C,R40*%
X321094700Y-82433100D03*
D13*
%TO.N,VCO2FinePot2*%
X321094700Y-74813100D03*
%TD*%
D10*
%TO.N,Net-(R22-Pad1)*%
%TO.C,R22*%
X244006200Y-96592200D03*
D13*
%TO.N,Net-(U2B--)*%
X244006200Y-83892200D03*
%TD*%
D14*
%TO.N,Net-(D3-K)*%
%TO.C,D3*%
X287246200Y-79242200D03*
D15*
%TO.N,Net-(D3-A)*%
X282166200Y-79242200D03*
%TD*%
D10*
%TO.N,Net-(R5-Pad1)*%
%TO.C,R5*%
X254306200Y-129242200D03*
D13*
%TO.N,fmIn3*%
X267006200Y-129242200D03*
%TD*%
D10*
%TO.N,Net-(D1-K)*%
%TO.C,C1*%
X266506200Y-100742200D03*
%TO.N,VCO1CoarsePot1*%
X266506200Y-95742200D03*
%TD*%
%TO.N,Net-(U3B-+)*%
%TO.C,C8*%
X296506200Y-92242200D03*
%TO.N,Net-(U3A--)*%
X296506200Y-89742200D03*
%TD*%
%TO.N,Net-(R37-Pad1)*%
%TO.C,R37*%
X320506200Y-109742200D03*
D13*
%TO.N,cvIn2*%
X320506200Y-122442200D03*
%TD*%
D10*
%TO.N,VCO1CoarsePot1*%
%TO.C,R16*%
X256006200Y-78742200D03*
D13*
%TO.N,Net-(U2B-+)*%
X243306200Y-78742200D03*
%TD*%
D10*
%TO.N,Net-(U3D--)*%
%TO.C,R41*%
X285886200Y-110742200D03*
D13*
%TO.N,VCO2IDKPot2*%
X298586200Y-110742200D03*
%TD*%
D10*
%TO.N,Net-(R1-Pad1)*%
%TO.C,R1*%
X282156200Y-98242200D03*
D13*
%TO.N,fmIn1*%
X294856200Y-98242200D03*
%TD*%
D10*
%TO.N,VCO3WaveMixPot3*%
%TO.C,R32*%
X264756200Y-152942200D03*
D13*
%TO.N,VCO1CoarsePot1*%
X264756200Y-140242200D03*
%TD*%
D10*
%TO.N,VCO2IDKPot1*%
%TO.C,R6*%
X259696200Y-91742200D03*
D13*
%TO.N,Net-(Q1-E)*%
X267316200Y-91742200D03*
%TD*%
D14*
%TO.N,Net-(D5-K)*%
%TO.C,D5*%
X308506200Y-79742200D03*
D15*
%TO.N,Net-(D5-A)*%
X308506200Y-84822200D03*
%TD*%
D10*
%TO.N,Net-(R47-Pad1)*%
%TO.C,R47*%
X309006200Y-137742200D03*
D13*
%TO.N,Net-(U3B--)*%
X296306200Y-137742200D03*
%TD*%
D10*
%TO.N,Net-(U3C-+)*%
%TO.C,R46*%
X302506200Y-122742200D03*
D13*
%TO.N,Net-(R46-Pad2)*%
X302506200Y-110042200D03*
%TD*%
D10*
%TO.N,Net-(R7-Pad1)*%
%TO.C,R7*%
X232506200Y-90942200D03*
D13*
%TO.N,VCO1CoarsePot2*%
X232506200Y-78242200D03*
%TD*%
D18*
%TO.N,VCO3FMPot1*%
%TO.C,TH6*%
X289006200Y-139522200D03*
D19*
%TO.N,Net-(R11-Pad1)*%
X289006200Y-142062200D03*
%TD*%
D10*
%TO.N,Net-(U2B-+)*%
%TO.C,C3*%
X238806200Y-78492200D03*
%TO.N,Net-(U2A--)*%
X238806200Y-80992200D03*
%TD*%
%TO.N,Net-(U4B--)*%
%TO.C,R23*%
X234426200Y-149742200D03*
D13*
%TO.N,VCO1CoarsePot1*%
X244586200Y-149742200D03*
%TD*%
D10*
%TO.N,VCO3WaveMixPot1*%
%TO.C,R29*%
X244006200Y-154742200D03*
D13*
%TO.N,Net-(R27-Pad1)*%
X236386200Y-154742200D03*
%TD*%
D10*
%TO.N,Net-(C5-Pad1)*%
%TO.C,R25*%
X244006200Y-99392200D03*
D13*
%TO.N,VCO1CoarsePot1*%
X244006200Y-112092200D03*
%TD*%
D10*
%TO.N,Net-(C6-Pad1)*%
%TO.C,R30*%
X271756200Y-153242200D03*
D13*
%TO.N,VCO1CoarsePot1*%
X271756200Y-140542200D03*
%TD*%
D10*
%TO.N,VCO2IDKPot1*%
%TO.C,R51*%
X306056200Y-154882200D03*
D13*
%TO.N,Net-(J2-Pin_10)*%
X316216200Y-154882200D03*
%TD*%
D10*
%TO.N,Net-(R34-Pad1)*%
%TO.C,R34*%
X291806200Y-84242200D03*
D13*
%TO.N,fmIn2*%
X304506200Y-84242200D03*
%TD*%
D10*
%TO.N,VCO1CoarsePot3*%
%TO.C,R52*%
X305976200Y-147882200D03*
D13*
%TO.N,Net-(J2-Pin_1)*%
X316136200Y-147882200D03*
%TD*%
D10*
%TO.N,SW1p1*%
%TO.C,R26*%
X230386200Y-106242200D03*
D13*
%TO.N,Net-(C5-Pad1)*%
X238006200Y-106242200D03*
%TD*%
D10*
%TO.N,Net-(R11-Pad1)*%
%TO.C,R11*%
X284006200Y-138042200D03*
D13*
%TO.N,cvIn3*%
X284006200Y-150742200D03*
%TD*%
D21*
%TO.N,VCO1CoarsePot1*%
%TO.C,C10*%
X298636200Y-149382200D03*
D10*
%TO.N,VCO1CoarsePot3*%
X298636200Y-147382200D03*
%TD*%
D18*
%TO.N,VCO1FMPot1*%
%TO.C,TH4*%
X232706200Y-96342200D03*
D19*
%TO.N,Net-(R7-Pad1)*%
X232706200Y-93802200D03*
%TD*%
D10*
%TO.N,SW2p3*%
%TO.C,R49*%
X320506200Y-135822200D03*
D13*
%TO.N,Net-(R47-Pad1)*%
X320506200Y-125662200D03*
%TD*%
D18*
%TO.N,VCO2FMPot1*%
%TO.C,TH12*%
X320506200Y-87522200D03*
D19*
%TO.N,Net-(R40-Pad1)*%
X320506200Y-84982200D03*
%TD*%
D18*
%TO.N,VCO3FMPot1*%
%TO.C,TH7*%
X248866200Y-131242200D03*
D19*
%TO.N,Net-(R13-Pad1)*%
X251406200Y-131242200D03*
%TD*%
D10*
%TO.N,SW1p1*%
%TO.C,R28*%
X231156200Y-116242200D03*
D13*
%TO.N,VCO1CoarsePot1*%
X243856200Y-116242200D03*
%TD*%
D22*
%TO.N,VCO2PwmPot2*%
X291750000Y-89250000D03*
X285750000Y-161500000D03*
X295500000Y-86750000D03*
%TO.N,SW2p2*%
X323750000Y-143250000D03*
X262500000Y-151000000D03*
%TO.N,SW1p2*%
X269250000Y-162500000D03*
%TO.N,Net-(D2-A)*%
X277500000Y-137250000D03*
%TO.N,Net-(D5-A)*%
X279750000Y-84500000D03*
%TO.N,VCO3FMPot2*%
X254000000Y-167240000D03*
%TO.N,mixOut*%
X239500000Y-162500000D03*
%TO.N,cvIn1*%
X284500000Y-107500000D03*
%TO.N,VCO3WaveMixPot2*%
X281500000Y-143500000D03*
%TO.N,cvIn2*%
X277750000Y-132250000D03*
%TO.N,cvIn3*%
X273750000Y-149750000D03*
%TO.N,fmIn1*%
X270750000Y-106250000D03*
%TO.N,fmIn2*%
X266500000Y-89500000D03*
%TO.N,VCO3FinePot2*%
X268500000Y-150500000D03*
%TO.N,SW1p3*%
X270000000Y-102750000D03*
%TO.N,VCO2CoarsePot2*%
X280750000Y-108250000D03*
%TO.N,Net-(D5-K)*%
X274250000Y-90750000D03*
%TO.N,Net-(D3-A)*%
X264250000Y-88500000D03*
%TO.N,VCO1FMPot2*%
X274250000Y-75250000D03*
%TO.N,Net-(D5-K)*%
X299500000Y-91000000D03*
%TO.N,Net-(D3-K)*%
X282750000Y-107500000D03*
X275250000Y-108000000D03*
%TO.N,VCO2FMPot1*%
X314500000Y-73500000D03*
%TO.N,Net-(D4-K)*%
X271250000Y-121250000D03*
X271250000Y-132500000D03*
%TO.N,Net-(D2-K)*%
X283250000Y-118500000D03*
%TO.N,Net-(U3D--)*%
X311000000Y-107500000D03*
%TO.N,SW1p1*%
X231000000Y-69750000D03*
%TO.N,VCO1FMPot1*%
X252750000Y-86750000D03*
%TO.N,Net-(U4D--)*%
X248050000Y-138750000D03*
%TO.N,Net-(R13-Pad1)*%
X274000000Y-141750000D03*
X273500000Y-132000000D03*
%TO.N,VCO3FinePot2*%
X267750000Y-135000000D03*
%TO.N,Net-(R2-Pad2)*%
X289750000Y-76250000D03*
%TO.N,Net-(D2-K)*%
X239519653Y-113480347D03*
%TO.N,VCO3PwmPot1*%
X255750000Y-125750000D03*
%TO.N,Net-(D4-A)*%
X255000000Y-136500000D03*
%TO.N,Net-(R46-Pad2)*%
X304500000Y-98250000D03*
X304500000Y-101000000D03*
%TO.N,Net-(R37-Pad1)*%
X317250000Y-97500000D03*
%TO.N,VCO3FMPot1*%
X294500000Y-149000000D03*
X292500000Y-146272200D03*
%TO.N,VCO3WaveMixPot3*%
X264500000Y-160750000D03*
%TO.N,VCO2IDKPot1*%
X260500000Y-93500000D03*
X263000000Y-96000000D03*
%TD*%
D23*
%TO.N,VCO2IDKPot1*%
X260500000Y-93500000D02*
X260392400Y-93500000D01*
X260392400Y-93500000D02*
X259696200Y-92803800D01*
X259696200Y-92803800D02*
X259696200Y-91742200D01*
X281506200Y-112002200D02*
X268795200Y-99291200D01*
X268795200Y-99291200D02*
X266291200Y-99291200D01*
X266291200Y-99291200D02*
X263000000Y-96000000D01*
%TO.N,VCO1CoarsePot3*%
X256626200Y-97122200D02*
X258555200Y-99051200D01*
X258555200Y-99051200D02*
X258555200Y-115763200D01*
X258555200Y-115763200D02*
X256126200Y-118192200D01*
%TO.N,VCO2IDKPot1*%
X259696200Y-91742200D02*
X259696200Y-90520176D01*
X250006200Y-119362200D02*
X246500000Y-115856000D01*
X246500000Y-99628400D02*
X249006200Y-97122200D01*
X246500000Y-115856000D02*
X246500000Y-99628400D01*
X251886200Y-147322200D02*
X247000000Y-142436000D01*
X247000000Y-142436000D02*
X247000000Y-131500000D01*
X247000000Y-131500000D02*
X243500000Y-128000000D01*
X243500000Y-128000000D02*
X243500000Y-125868400D01*
X243500000Y-125868400D02*
X250006200Y-119362200D01*
%TO.N,VCO1CoarsePot3*%
X259506200Y-147322200D02*
X257707200Y-145523200D01*
X257707200Y-145523200D02*
X257707200Y-119773200D01*
X257707200Y-119773200D02*
X256126200Y-118192200D01*
%TO.N,VCO2IDKPot1*%
X310006200Y-142242200D02*
X310006200Y-141840176D01*
X310006200Y-141840176D02*
X285359224Y-117193200D01*
X283565988Y-114065988D02*
X281506200Y-112006200D01*
X285359224Y-117193200D02*
X285325176Y-117193200D01*
X281506200Y-112006200D02*
X281506200Y-112002200D01*
X285325176Y-117193200D02*
X283565988Y-115434012D01*
X283565988Y-115434012D02*
X283565988Y-114065988D01*
X259696200Y-91742200D02*
X259696200Y-90196200D01*
X259696200Y-90196200D02*
X257000000Y-87500000D01*
X257000000Y-87500000D02*
X254000000Y-87500000D01*
X254000000Y-87500000D02*
X250457200Y-91042800D01*
X250457200Y-91042800D02*
X250457200Y-95671200D01*
X250457200Y-95671200D02*
X249006200Y-97122200D01*
%TO.N,VCO1CoarsePot3*%
X249500000Y-73500000D02*
X249500000Y-78500000D01*
X262500000Y-91500000D02*
X262500000Y-94000000D01*
X249500000Y-78500000D02*
X262500000Y-91500000D01*
X281500000Y-73500000D02*
X281500000Y-77110923D01*
X281500000Y-77110923D02*
X277000000Y-81610923D01*
X270506200Y-92493800D02*
X270506200Y-93242200D01*
X277000000Y-81610923D02*
X277000000Y-86000000D01*
X277000000Y-86000000D02*
X270506200Y-92493800D01*
%TO.N,VCO2IDKPot1*%
X281506200Y-112002200D02*
X292508401Y-101000000D01*
X292508401Y-101000000D02*
X298443400Y-101000000D01*
X298443400Y-101000000D02*
X302206200Y-97237200D01*
%TO.N,VCO1CoarsePot3*%
X270506200Y-93242200D02*
X269748400Y-94000000D01*
X269748400Y-94000000D02*
X262500000Y-94000000D01*
X262500000Y-94000000D02*
X259377800Y-97122200D01*
X259377800Y-97122200D02*
X256626200Y-97122200D01*
%TO.N,VCO2IDKPot1*%
X306065000Y-70800000D02*
X306065000Y-93378400D01*
X306065000Y-93378400D02*
X302206200Y-97237200D01*
%TO.N,VCO1CoarsePot3*%
X288285000Y-70800000D02*
X290085000Y-69000000D01*
X290085000Y-69000000D02*
X309345000Y-69000000D01*
X309345000Y-69000000D02*
X311145000Y-70800000D01*
X311145000Y-70800000D02*
X311145000Y-72855000D01*
X314500000Y-76210000D02*
X314500000Y-80000000D01*
X311145000Y-72855000D02*
X314500000Y-76210000D01*
X318500000Y-88498400D02*
X316016200Y-90982200D01*
X314500000Y-80000000D02*
X318500000Y-84000000D01*
X318500000Y-84000000D02*
X318500000Y-88498400D01*
X280665000Y-70800000D02*
X280665000Y-72665000D01*
X280665000Y-72665000D02*
X281500000Y-73500000D01*
X281500000Y-73500000D02*
X287500000Y-73500000D01*
X287500000Y-73500000D02*
X288285000Y-72715000D01*
X288285000Y-72715000D02*
X288285000Y-70800000D01*
X250185000Y-70800000D02*
X250185000Y-72815000D01*
X250185000Y-72815000D02*
X249500000Y-73500000D01*
X249500000Y-73500000D02*
X243000000Y-73500000D01*
X242565000Y-73065000D02*
X242565000Y-70800000D01*
X243000000Y-73500000D02*
X242565000Y-73065000D01*
X300995000Y-163005000D02*
X295500000Y-157510000D01*
X295500000Y-157510000D02*
X295500000Y-153000000D01*
X297000000Y-151500000D02*
X302358400Y-151500000D01*
X295500000Y-153000000D02*
X297000000Y-151500000D01*
X302358400Y-151500000D02*
X305976200Y-147882200D01*
X305976200Y-147882200D02*
X305594000Y-147500000D01*
X298754000Y-147500000D02*
X298636200Y-147382200D01*
X305594000Y-147500000D02*
X298754000Y-147500000D01*
X308615000Y-165200000D02*
X308615000Y-163115000D01*
X308615000Y-163115000D02*
X308000000Y-162500000D01*
X301500000Y-162500000D02*
X300995000Y-163005000D01*
X300995000Y-163005000D02*
X300995000Y-165200000D01*
X308000000Y-162500000D02*
X301500000Y-162500000D01*
%TO.N,VCO2IDKPot1*%
X306056200Y-154882200D02*
X305938400Y-155000000D01*
X305938400Y-155000000D02*
X299018400Y-155000000D01*
X299018400Y-155000000D02*
X298636200Y-155382200D01*
X306056200Y-154882200D02*
X310006200Y-150932200D01*
X310006200Y-150932200D02*
X310006200Y-142242200D01*
%TO.N,VCO1CoarsePot3*%
X259506200Y-147322200D02*
X298576200Y-147322200D01*
X298576200Y-147322200D02*
X298636200Y-147382200D01*
X316016200Y-90982200D02*
X316016200Y-92232200D01*
X316016200Y-92232200D02*
X311011200Y-97237200D01*
X311011200Y-97237200D02*
X309826200Y-97237200D01*
%TD*%
M02*
