%TF.GenerationSoftware,KiCad,Pcbnew,8.0.7*%
%TF.CreationDate,2025-01-11T15:46:45+00:00*%
%TF.ProjectId,MAIN,4d41494e-2e6b-4696-9361-645f70636258,rev?*%
%TF.SameCoordinates,Original*%
%TF.FileFunction,Drillmap*%
%TF.FilePolarity,Positive*%
%FSLAX45Y45*%
G04 Gerber Fmt 4.5, Leading zero omitted, Abs format (unit mm)*
G04 Created by KiCad (PCBNEW 8.0.7) date 2025-01-11 15:46:45*
%MOMM*%
%LPD*%
G01*
G04 APERTURE LIST*
%ADD10C,0.050000*%
%ADD11C,0.200000*%
%ADD12C,0.100000*%
%ADD13C,0.120000*%
G04 APERTURE END LIST*
D10*
X32666000Y-6810000D02*
X22706000Y-6810000D01*
X32666000Y-16789000D02*
X32666000Y-6810000D01*
X22706000Y-6810000D02*
X22706000Y-16789000D01*
X22706000Y-16789000D02*
X32666000Y-16789000D01*
D11*
D12*
X23235619Y-9345218D02*
X23305619Y-9415218D01*
X23305619Y-9345218D02*
X23235619Y-9415218D01*
X23235619Y-9599218D02*
X23305619Y-9669218D01*
X23305619Y-9599218D02*
X23235619Y-9669218D01*
X23235619Y-9877218D02*
X23305619Y-9947218D01*
X23305619Y-9877218D02*
X23235619Y-9947218D01*
X23235619Y-10131218D02*
X23305619Y-10201218D01*
X23305619Y-10131218D02*
X23235619Y-10201218D01*
X24843619Y-12689218D02*
X24913619Y-12759218D01*
X24913619Y-12689218D02*
X24843619Y-12759218D01*
X24851619Y-13089218D02*
X24921619Y-13159218D01*
X24921619Y-13089218D02*
X24851619Y-13159218D01*
X24851619Y-13404218D02*
X24921619Y-13474218D01*
X24921619Y-13404218D02*
X24851619Y-13474218D01*
X25097619Y-12689218D02*
X25167619Y-12759218D01*
X25167619Y-12689218D02*
X25097619Y-12759218D01*
X25105619Y-13089218D02*
X25175619Y-13159218D01*
X25175619Y-13089218D02*
X25105619Y-13159218D01*
X25105619Y-13404218D02*
X25175619Y-13474218D01*
X25175619Y-13404218D02*
X25105619Y-13474218D01*
X27593619Y-9824218D02*
X27663619Y-9894218D01*
X27663619Y-9824218D02*
X27593619Y-9894218D01*
X27593619Y-10189218D02*
X27663619Y-10259218D01*
X27663619Y-10189218D02*
X27593619Y-10259218D01*
X27847619Y-9824218D02*
X27917619Y-9894218D01*
X27917619Y-9824218D02*
X27847619Y-9894218D01*
X27847619Y-10189218D02*
X27917619Y-10259218D01*
X27917619Y-10189218D02*
X27847619Y-10259218D01*
X28865619Y-13917218D02*
X28935619Y-13987218D01*
X28935619Y-13917218D02*
X28865619Y-13987218D01*
X28865619Y-14171218D02*
X28935619Y-14241218D01*
X28935619Y-14171218D02*
X28865619Y-14241218D01*
X29180619Y-7717218D02*
X29250619Y-7787218D01*
X29250619Y-7717218D02*
X29180619Y-7787218D01*
X29180619Y-7971218D02*
X29250619Y-8041218D01*
X29250619Y-7971218D02*
X29180619Y-8041218D01*
X31415619Y-9639218D02*
X31485619Y-9709218D01*
X31485619Y-9639218D02*
X31415619Y-9709218D01*
X31415619Y-9893218D02*
X31485619Y-9963218D01*
X31485619Y-9893218D02*
X31415619Y-9963218D01*
X32015619Y-8463218D02*
X32085619Y-8533218D01*
X32085619Y-8463218D02*
X32015619Y-8533218D01*
X32015619Y-8717218D02*
X32085619Y-8787218D01*
X32085619Y-8717218D02*
X32015619Y-8787218D01*
X32019619Y-9008218D02*
X32089619Y-9078218D01*
X32089619Y-9008218D02*
X32019619Y-9078218D01*
X32019619Y-9262218D02*
X32089619Y-9332218D01*
X32089619Y-9262218D02*
X32019619Y-9332218D01*
X25393367Y-11291218D02*
G75*
G02*
X25318367Y-11291218I-37500J0D01*
G01*
X25318367Y-11291218D02*
G75*
G02*
X25393367Y-11291218I37500J0D01*
G01*
X25396119Y-11819218D02*
G75*
G02*
X25321119Y-11819218I-37500J0D01*
G01*
X25321119Y-11819218D02*
G75*
G02*
X25396119Y-11819218I37500J0D01*
G01*
X25520367Y-11291218D02*
G75*
G02*
X25445367Y-11291218I-37500J0D01*
G01*
X25445367Y-11291218D02*
G75*
G02*
X25520367Y-11291218I37500J0D01*
G01*
X25523119Y-11819218D02*
G75*
G02*
X25448119Y-11819218I-37500J0D01*
G01*
X25448119Y-11819218D02*
G75*
G02*
X25523119Y-11819218I37500J0D01*
G01*
X25647367Y-11291218D02*
G75*
G02*
X25572367Y-11291218I-37500J0D01*
G01*
X25572367Y-11291218D02*
G75*
G02*
X25647367Y-11291218I37500J0D01*
G01*
X25650119Y-11819218D02*
G75*
G02*
X25575119Y-11819218I-37500J0D01*
G01*
X25575119Y-11819218D02*
G75*
G02*
X25650119Y-11819218I37500J0D01*
G01*
X27084119Y-9874218D02*
G75*
G02*
X27009119Y-9874218I-37500J0D01*
G01*
X27009119Y-9874218D02*
G75*
G02*
X27084119Y-9874218I37500J0D01*
G01*
X27088119Y-9324218D02*
G75*
G02*
X27013119Y-9324218I-37500J0D01*
G01*
X27013119Y-9324218D02*
G75*
G02*
X27088119Y-9324218I37500J0D01*
G01*
X27211119Y-9874218D02*
G75*
G02*
X27136119Y-9874218I-37500J0D01*
G01*
X27136119Y-9874218D02*
G75*
G02*
X27211119Y-9874218I37500J0D01*
G01*
X27215119Y-9324218D02*
G75*
G02*
X27140119Y-9324218I-37500J0D01*
G01*
X27140119Y-9324218D02*
G75*
G02*
X27215119Y-9324218I37500J0D01*
G01*
X27338119Y-9874218D02*
G75*
G02*
X27263119Y-9874218I-37500J0D01*
G01*
X27263119Y-9874218D02*
G75*
G02*
X27338119Y-9874218I37500J0D01*
G01*
X27342119Y-9324218D02*
G75*
G02*
X27267119Y-9324218I-37500J0D01*
G01*
X27267119Y-9324218D02*
G75*
G02*
X27342119Y-9324218I37500J0D01*
G01*
X31385119Y-9098218D02*
G75*
G02*
X31310119Y-9098218I-37500J0D01*
G01*
X31310119Y-9098218D02*
G75*
G02*
X31385119Y-9098218I37500J0D01*
G01*
X31388119Y-8548218D02*
G75*
G02*
X31313119Y-8548218I-37500J0D01*
G01*
X31313119Y-8548218D02*
G75*
G02*
X31388119Y-8548218I37500J0D01*
G01*
X31512119Y-9098218D02*
G75*
G02*
X31437119Y-9098218I-37500J0D01*
G01*
X31437119Y-9098218D02*
G75*
G02*
X31512119Y-9098218I37500J0D01*
G01*
X31515119Y-8548218D02*
G75*
G02*
X31440119Y-8548218I-37500J0D01*
G01*
X31440119Y-8548218D02*
G75*
G02*
X31515119Y-8548218I37500J0D01*
G01*
X31639119Y-9098218D02*
G75*
G02*
X31564119Y-9098218I-37500J0D01*
G01*
X31564119Y-9098218D02*
G75*
G02*
X31639119Y-9098218I37500J0D01*
G01*
X31642119Y-8548218D02*
G75*
G02*
X31567119Y-8548218I-37500J0D01*
G01*
X31567119Y-8548218D02*
G75*
G02*
X31642119Y-8548218I37500J0D01*
G01*
X23038619Y-10584218D02*
X23038619Y-10664218D01*
X22998619Y-10624218D02*
X23078619Y-10624218D01*
X23115619Y-11584218D02*
X23115619Y-11664218D01*
X23075619Y-11624218D02*
X23155619Y-11624218D01*
X23138619Y-14749218D02*
X23138619Y-14829218D01*
X23098619Y-14789218D02*
X23178619Y-14789218D01*
X23138619Y-16019218D02*
X23138619Y-16099218D01*
X23098619Y-16059218D02*
X23178619Y-16059218D01*
X23250619Y-7784218D02*
X23250619Y-7864218D01*
X23210619Y-7824218D02*
X23290619Y-7824218D01*
X23250619Y-9054218D02*
X23250619Y-9134218D01*
X23210619Y-9094218D02*
X23290619Y-9094218D01*
X23300619Y-12426218D02*
X23300619Y-12506218D01*
X23260619Y-12466218D02*
X23340619Y-12466218D01*
X23300619Y-13442218D02*
X23300619Y-13522218D01*
X23260619Y-13482218D02*
X23340619Y-13482218D01*
X23325619Y-11034218D02*
X23325619Y-11114218D01*
X23285619Y-11074218D02*
X23365619Y-11074218D01*
X23442619Y-14934218D02*
X23442619Y-15014218D01*
X23402619Y-14974218D02*
X23482619Y-14974218D01*
X23575619Y-11034218D02*
X23575619Y-11114218D01*
X23535619Y-11074218D02*
X23615619Y-11074218D01*
X23638619Y-15434218D02*
X23638619Y-15514218D01*
X23598619Y-15474218D02*
X23678619Y-15474218D01*
X23750619Y-13934218D02*
X23750619Y-14014218D01*
X23710619Y-13974218D02*
X23790619Y-13974218D01*
X23750619Y-14434218D02*
X23750619Y-14514218D01*
X23710619Y-14474218D02*
X23790619Y-14474218D01*
X23800619Y-10584218D02*
X23800619Y-10664218D01*
X23760619Y-10624218D02*
X23840619Y-10624218D01*
X23850619Y-8403218D02*
X23850619Y-8483218D01*
X23810619Y-8443218D02*
X23890619Y-8443218D01*
X23850619Y-9165218D02*
X23850619Y-9245218D01*
X23810619Y-9205218D02*
X23890619Y-9205218D01*
X23850619Y-9453218D02*
X23850619Y-9533218D01*
X23810619Y-9493218D02*
X23890619Y-9493218D01*
X23850619Y-10215218D02*
X23850619Y-10295218D01*
X23810619Y-10255218D02*
X23890619Y-10255218D01*
X23880619Y-7809218D02*
X23880619Y-7889218D01*
X23840619Y-7849218D02*
X23920619Y-7849218D01*
X23880619Y-8059218D02*
X23880619Y-8139218D01*
X23840619Y-8099218D02*
X23920619Y-8099218D01*
X23888619Y-12684218D02*
X23888619Y-12764218D01*
X23848619Y-12724218D02*
X23928619Y-12724218D01*
X24330619Y-7834218D02*
X24330619Y-7914218D01*
X24290619Y-7874218D02*
X24370619Y-7874218D01*
X24385619Y-11584218D02*
X24385619Y-11664218D01*
X24345619Y-11624218D02*
X24425619Y-11624218D01*
X24400619Y-8349218D02*
X24400619Y-8429218D01*
X24360619Y-8389218D02*
X24440619Y-8389218D01*
X24400619Y-9619218D02*
X24400619Y-9699218D01*
X24360619Y-9659218D02*
X24440619Y-9659218D01*
X24400619Y-9899218D02*
X24400619Y-9979218D01*
X24360619Y-9939218D02*
X24440619Y-9939218D01*
X24400619Y-11169218D02*
X24400619Y-11249218D01*
X24360619Y-11209218D02*
X24440619Y-11209218D01*
X24400619Y-15434218D02*
X24400619Y-15514218D01*
X24360619Y-15474218D02*
X24440619Y-15474218D01*
X24458619Y-14934218D02*
X24458619Y-15014218D01*
X24418619Y-14974218D02*
X24498619Y-14974218D01*
X24550619Y-13364218D02*
X24550619Y-13444218D01*
X24510619Y-13404218D02*
X24590619Y-13404218D01*
X24550619Y-14634218D02*
X24550619Y-14714218D01*
X24510619Y-14674218D02*
X24590619Y-14674218D01*
X24650619Y-12684218D02*
X24650619Y-12764218D01*
X24610619Y-12724218D02*
X24690619Y-12724218D01*
X24792619Y-8434218D02*
X24792619Y-8514218D01*
X24752619Y-8474218D02*
X24832619Y-8474218D01*
X24900619Y-8910218D02*
X24900619Y-8990218D01*
X24860619Y-8950218D02*
X24940619Y-8950218D01*
X24900619Y-9164218D02*
X24900619Y-9244218D01*
X24860619Y-9204218D02*
X24940619Y-9204218D01*
X24900619Y-9418218D02*
X24900619Y-9498218D01*
X24860619Y-9458218D02*
X24940619Y-9458218D01*
X24900619Y-9672218D02*
X24900619Y-9752218D01*
X24860619Y-9712218D02*
X24940619Y-9712218D01*
X24900619Y-9926218D02*
X24900619Y-10006218D01*
X24860619Y-9966218D02*
X24940619Y-9966218D01*
X24900619Y-10180218D02*
X24900619Y-10260218D01*
X24860619Y-10220218D02*
X24940619Y-10220218D01*
X24900619Y-10434218D02*
X24900619Y-10514218D01*
X24860619Y-10474218D02*
X24940619Y-10474218D01*
X25000619Y-11134218D02*
X25000619Y-11214218D01*
X24960619Y-11174218D02*
X25040619Y-11174218D01*
X25000619Y-11896218D02*
X25000619Y-11976218D01*
X24960619Y-11936218D02*
X25040619Y-11936218D01*
X25188619Y-13930218D02*
X25188619Y-14010218D01*
X25148619Y-13970218D02*
X25228619Y-13970218D01*
X25188619Y-14184218D02*
X25188619Y-14264218D01*
X25148619Y-14224218D02*
X25228619Y-14224218D01*
X25188619Y-14438218D02*
X25188619Y-14518218D01*
X25148619Y-14478218D02*
X25228619Y-14478218D01*
X25188619Y-14692218D02*
X25188619Y-14772218D01*
X25148619Y-14732218D02*
X25228619Y-14732218D01*
X25188619Y-14946218D02*
X25188619Y-15026218D01*
X25148619Y-14986218D02*
X25228619Y-14986218D01*
X25188619Y-15200218D02*
X25188619Y-15280218D01*
X25148619Y-15240218D02*
X25228619Y-15240218D01*
X25188619Y-15454218D02*
X25188619Y-15534218D01*
X25148619Y-15494218D02*
X25228619Y-15494218D01*
X25375619Y-12315218D02*
X25375619Y-12395218D01*
X25335619Y-12355218D02*
X25415619Y-12355218D01*
X25378619Y-13384218D02*
X25378619Y-13464218D01*
X25338619Y-13424218D02*
X25418619Y-13424218D01*
X25430619Y-12884218D02*
X25430619Y-12964218D01*
X25390619Y-12924218D02*
X25470619Y-12924218D01*
X25600619Y-7834218D02*
X25600619Y-7914218D01*
X25560619Y-7874218D02*
X25640619Y-7874218D01*
X25625619Y-12315218D02*
X25625619Y-12395218D01*
X25585619Y-12355218D02*
X25665619Y-12355218D01*
X25662619Y-8910218D02*
X25662619Y-8990218D01*
X25622619Y-8950218D02*
X25702619Y-8950218D01*
X25662619Y-9164218D02*
X25662619Y-9244218D01*
X25622619Y-9204218D02*
X25702619Y-9204218D01*
X25662619Y-9418218D02*
X25662619Y-9498218D01*
X25622619Y-9458218D02*
X25702619Y-9458218D01*
X25662619Y-9672218D02*
X25662619Y-9752218D01*
X25622619Y-9712218D02*
X25702619Y-9712218D01*
X25662619Y-9926218D02*
X25662619Y-10006218D01*
X25622619Y-9966218D02*
X25702619Y-9966218D01*
X25662619Y-10180218D02*
X25662619Y-10260218D01*
X25622619Y-10220218D02*
X25702619Y-10220218D01*
X25662619Y-10434218D02*
X25662619Y-10514218D01*
X25622619Y-10474218D02*
X25702619Y-10474218D01*
X25808619Y-8434218D02*
X25808619Y-8514218D01*
X25768619Y-8474218D02*
X25848619Y-8474218D01*
X25950619Y-13930218D02*
X25950619Y-14010218D01*
X25910619Y-13970218D02*
X25990619Y-13970218D01*
X25950619Y-14184218D02*
X25950619Y-14264218D01*
X25910619Y-14224218D02*
X25990619Y-14224218D01*
X25950619Y-14438218D02*
X25950619Y-14518218D01*
X25910619Y-14478218D02*
X25990619Y-14478218D01*
X25950619Y-14692218D02*
X25950619Y-14772218D01*
X25910619Y-14732218D02*
X25990619Y-14732218D01*
X25950619Y-14946218D02*
X25950619Y-15026218D01*
X25910619Y-14986218D02*
X25990619Y-14986218D01*
X25950619Y-15200218D02*
X25950619Y-15280218D01*
X25910619Y-15240218D02*
X25990619Y-15240218D01*
X25950619Y-15454218D02*
X25950619Y-15534218D01*
X25910619Y-15494218D02*
X25990619Y-15494218D01*
X25969619Y-9134218D02*
X25969619Y-9214218D01*
X25929619Y-9174218D02*
X26009619Y-9174218D01*
X26000619Y-11065218D02*
X26000619Y-11145218D01*
X25960619Y-11105218D02*
X26040619Y-11105218D01*
X26000619Y-12335218D02*
X26000619Y-12415218D01*
X25960619Y-12375218D02*
X26040619Y-12375218D01*
X26084619Y-8534218D02*
X26084619Y-8614218D01*
X26044619Y-8574218D02*
X26124619Y-8574218D01*
X26140619Y-13384218D02*
X26140619Y-13464218D01*
X26100619Y-13424218D02*
X26180619Y-13424218D01*
X26444619Y-15584218D02*
X26444619Y-15664218D01*
X26404619Y-15624218D02*
X26484619Y-15624218D01*
X26475619Y-13984218D02*
X26475619Y-14064218D01*
X26435619Y-14024218D02*
X26515619Y-14024218D01*
X26475619Y-15254218D02*
X26475619Y-15334218D01*
X26435619Y-15294218D02*
X26515619Y-15294218D01*
X26650619Y-9534218D02*
X26650619Y-9614218D01*
X26610619Y-9574218D02*
X26690619Y-9574218D01*
X26650619Y-10034218D02*
X26650619Y-10114218D01*
X26610619Y-10074218D02*
X26690619Y-10074218D01*
X26700619Y-12884218D02*
X26700619Y-12964218D01*
X26660619Y-12924218D02*
X26740619Y-12924218D01*
X26731619Y-9134218D02*
X26731619Y-9214218D01*
X26691619Y-9174218D02*
X26771619Y-9174218D01*
X27100619Y-8534218D02*
X27100619Y-8614218D01*
X27060619Y-8574218D02*
X27140619Y-8574218D01*
X27175619Y-14014218D02*
X27175619Y-14094218D01*
X27135619Y-14054218D02*
X27215619Y-14054218D01*
X27175619Y-15284218D02*
X27175619Y-15364218D01*
X27135619Y-15324218D02*
X27215619Y-15324218D01*
X27206619Y-15584218D02*
X27206619Y-15664218D01*
X27166619Y-15624218D02*
X27246619Y-15624218D01*
X27368119Y-8661718D02*
X27368119Y-8741718D01*
X27328119Y-8701718D02*
X27408119Y-8701718D01*
X27388619Y-11160218D02*
X27388619Y-11240218D01*
X27348619Y-11200218D02*
X27428619Y-11200218D01*
X27388619Y-11414218D02*
X27388619Y-11494218D01*
X27348619Y-11454218D02*
X27428619Y-11454218D01*
X27388619Y-11668218D02*
X27388619Y-11748218D01*
X27348619Y-11708218D02*
X27428619Y-11708218D01*
X27388619Y-11922218D02*
X27388619Y-12002218D01*
X27348619Y-11962218D02*
X27428619Y-11962218D01*
X27388619Y-12176218D02*
X27388619Y-12256218D01*
X27348619Y-12216218D02*
X27428619Y-12216218D01*
X27388619Y-12430218D02*
X27388619Y-12510218D01*
X27348619Y-12470218D02*
X27428619Y-12470218D01*
X27388619Y-12684218D02*
X27388619Y-12764218D01*
X27348619Y-12724218D02*
X27428619Y-12724218D01*
X27500619Y-15584218D02*
X27500619Y-15664218D01*
X27460619Y-15624218D02*
X27540619Y-15624218D01*
X27634619Y-9334218D02*
X27634619Y-9414218D01*
X27594619Y-9374218D02*
X27674619Y-9374218D01*
X27750619Y-15584218D02*
X27750619Y-15664218D01*
X27710619Y-15624218D02*
X27790619Y-15624218D01*
X28150619Y-11160218D02*
X28150619Y-11240218D01*
X28110619Y-11200218D02*
X28190619Y-11200218D01*
X28150619Y-11414218D02*
X28150619Y-11494218D01*
X28110619Y-11454218D02*
X28190619Y-11454218D01*
X28150619Y-11668218D02*
X28150619Y-11748218D01*
X28110619Y-11708218D02*
X28190619Y-11708218D01*
X28150619Y-11922218D02*
X28150619Y-12002218D01*
X28110619Y-11962218D02*
X28190619Y-11962218D01*
X28150619Y-12176218D02*
X28150619Y-12256218D01*
X28110619Y-12216218D02*
X28190619Y-12216218D01*
X28150619Y-12430218D02*
X28150619Y-12510218D01*
X28110619Y-12470218D02*
X28190619Y-12470218D01*
X28150619Y-12684218D02*
X28150619Y-12764218D01*
X28110619Y-12724218D02*
X28190619Y-12724218D01*
X28165619Y-10334218D02*
X28165619Y-10414218D01*
X28125619Y-10374218D02*
X28205619Y-10374218D01*
X28215619Y-9784218D02*
X28215619Y-9864218D01*
X28175619Y-9824218D02*
X28255619Y-9824218D01*
X28292619Y-13449218D02*
X28292619Y-13529218D01*
X28252619Y-13489218D02*
X28332619Y-13489218D01*
X28400619Y-13764218D02*
X28400619Y-13844218D01*
X28360619Y-13804218D02*
X28440619Y-13804218D01*
X28400619Y-15034218D02*
X28400619Y-15114218D01*
X28360619Y-15074218D02*
X28440619Y-15074218D01*
X28465619Y-13084218D02*
X28465619Y-13164218D01*
X28425619Y-13124218D02*
X28505619Y-13124218D01*
X28588619Y-11034218D02*
X28588619Y-11114218D01*
X28548619Y-11074218D02*
X28628619Y-11074218D01*
X28592619Y-11534218D02*
X28592619Y-11614218D01*
X28552619Y-11574218D02*
X28632619Y-11574218D01*
X28592619Y-12034218D02*
X28592619Y-12114218D01*
X28552619Y-12074218D02*
X28632619Y-12074218D01*
X28600619Y-12384218D02*
X28600619Y-12464218D01*
X28560619Y-12424218D02*
X28640619Y-12424218D01*
X28638119Y-8661718D02*
X28638119Y-8741718D01*
X28598119Y-8701718D02*
X28678119Y-8701718D01*
X28650619Y-9334218D02*
X28650619Y-9414218D01*
X28610619Y-9374218D02*
X28690619Y-9374218D01*
X28950619Y-14449218D02*
X28950619Y-14529218D01*
X28910619Y-14489218D02*
X28990619Y-14489218D01*
X28950619Y-15719218D02*
X28950619Y-15799218D01*
X28910619Y-15759218D02*
X28990619Y-15759218D01*
X29180619Y-8384218D02*
X29180619Y-8464218D01*
X29140619Y-8424218D02*
X29220619Y-8424218D01*
X29308619Y-13449218D02*
X29308619Y-13529218D01*
X29268619Y-13489218D02*
X29348619Y-13489218D01*
X29435619Y-10334218D02*
X29435619Y-10414218D01*
X29395619Y-10374218D02*
X29475619Y-10374218D01*
X29485619Y-9784218D02*
X29485619Y-9864218D01*
X29445619Y-9824218D02*
X29525619Y-9824218D01*
X29608619Y-11534218D02*
X29608619Y-11614218D01*
X29568619Y-11574218D02*
X29648619Y-11574218D01*
X29608619Y-12034218D02*
X29608619Y-12114218D01*
X29568619Y-12074218D02*
X29648619Y-12074218D01*
X29616619Y-12384218D02*
X29616619Y-12464218D01*
X29576619Y-12424218D02*
X29656619Y-12424218D01*
X29630619Y-13734218D02*
X29630619Y-13814218D01*
X29590619Y-13774218D02*
X29670619Y-13774218D01*
X29650619Y-8934218D02*
X29650619Y-9014218D01*
X29610619Y-8974218D02*
X29690619Y-8974218D01*
X29650619Y-9184218D02*
X29650619Y-9264218D01*
X29610619Y-9224218D02*
X29690619Y-9224218D01*
X29735619Y-13084218D02*
X29735619Y-13164218D01*
X29695619Y-13124218D02*
X29775619Y-13124218D01*
X29858619Y-11034218D02*
X29858619Y-11114218D01*
X29818619Y-11074218D02*
X29898619Y-11074218D01*
X29863619Y-14698218D02*
X29863619Y-14778218D01*
X29823619Y-14738218D02*
X29903619Y-14738218D01*
X29863619Y-14898218D02*
X29863619Y-14978218D01*
X29823619Y-14938218D02*
X29903619Y-14938218D01*
X29863619Y-15298218D02*
X29863619Y-15378218D01*
X29823619Y-15338218D02*
X29903619Y-15338218D01*
X29863619Y-15498218D02*
X29863619Y-15578218D01*
X29823619Y-15538218D02*
X29903619Y-15538218D01*
X30220619Y-8921718D02*
X30220619Y-9001718D01*
X30180619Y-8961718D02*
X30260619Y-8961718D01*
X30220619Y-9175718D02*
X30220619Y-9255718D01*
X30180619Y-9215718D02*
X30260619Y-9215718D01*
X30220619Y-9429718D02*
X30220619Y-9509718D01*
X30180619Y-9469718D02*
X30260619Y-9469718D01*
X30220619Y-9683718D02*
X30220619Y-9763718D01*
X30180619Y-9723718D02*
X30260619Y-9723718D01*
X30220619Y-9937718D02*
X30220619Y-10017718D01*
X30180619Y-9977718D02*
X30260619Y-9977718D01*
X30220619Y-10191718D02*
X30220619Y-10271718D01*
X30180619Y-10231718D02*
X30260619Y-10231718D01*
X30220619Y-10445718D02*
X30220619Y-10525718D01*
X30180619Y-10485718D02*
X30260619Y-10485718D01*
X30250619Y-10964218D02*
X30250619Y-11044218D01*
X30210619Y-11004218D02*
X30290619Y-11004218D01*
X30250619Y-12234218D02*
X30250619Y-12314218D01*
X30210619Y-12274218D02*
X30290619Y-12274218D01*
X30450619Y-8384218D02*
X30450619Y-8464218D01*
X30410619Y-8424218D02*
X30490619Y-8424218D01*
X30597619Y-14748218D02*
X30597619Y-14828218D01*
X30557619Y-14788218D02*
X30637619Y-14788218D01*
X30605619Y-15448218D02*
X30605619Y-15528218D01*
X30565619Y-15488218D02*
X30645619Y-15488218D01*
X30742619Y-10976218D02*
X30742619Y-11056218D01*
X30702619Y-11016218D02*
X30782619Y-11016218D01*
X30742619Y-11992218D02*
X30742619Y-12072218D01*
X30702619Y-12032218D02*
X30782619Y-12032218D01*
X30742619Y-12326218D02*
X30742619Y-12406218D01*
X30702619Y-12366218D02*
X30782619Y-12366218D01*
X30742619Y-13342218D02*
X30742619Y-13422218D01*
X30702619Y-13382218D02*
X30782619Y-13382218D01*
X30900619Y-13734218D02*
X30900619Y-13814218D01*
X30860619Y-13774218D02*
X30940619Y-13774218D01*
X30982619Y-8921718D02*
X30982619Y-9001718D01*
X30942619Y-8961718D02*
X31022619Y-8961718D01*
X30982619Y-9175718D02*
X30982619Y-9255718D01*
X30942619Y-9215718D02*
X31022619Y-9215718D01*
X30982619Y-9429718D02*
X30982619Y-9509718D01*
X30942619Y-9469718D02*
X31022619Y-9469718D01*
X30982619Y-9683718D02*
X30982619Y-9763718D01*
X30942619Y-9723718D02*
X31022619Y-9723718D01*
X30982619Y-9937718D02*
X30982619Y-10017718D01*
X30942619Y-9977718D02*
X31022619Y-9977718D01*
X30982619Y-10191718D02*
X30982619Y-10271718D01*
X30942619Y-10231718D02*
X31022619Y-10231718D01*
X30982619Y-10445718D02*
X30982619Y-10525718D01*
X30942619Y-10485718D02*
X31022619Y-10485718D01*
X31000619Y-14184218D02*
X31000619Y-14264218D01*
X30960619Y-14224218D02*
X31040619Y-14224218D01*
X31200619Y-7908218D02*
X31200619Y-7988218D01*
X31160619Y-7948218D02*
X31240619Y-7948218D01*
X31461619Y-10136218D02*
X31461619Y-10216218D01*
X31421619Y-10176218D02*
X31501619Y-10176218D01*
X31461619Y-11406218D02*
X31461619Y-11486218D01*
X31421619Y-11446218D02*
X31501619Y-11446218D01*
X31613619Y-14748218D02*
X31613619Y-14828218D01*
X31573619Y-14788218D02*
X31653619Y-14788218D01*
X31621619Y-15448218D02*
X31621619Y-15528218D01*
X31581619Y-15488218D02*
X31661619Y-15488218D01*
X31700619Y-7908218D02*
X31700619Y-7988218D01*
X31660619Y-7948218D02*
X31740619Y-7948218D01*
X31762619Y-14184218D02*
X31762619Y-14264218D01*
X31722619Y-14224218D02*
X31802619Y-14224218D01*
X32050619Y-9576218D02*
X32050619Y-9656218D01*
X32010619Y-9616218D02*
X32090619Y-9616218D01*
X32050619Y-10592218D02*
X32050619Y-10672218D01*
X32010619Y-10632218D02*
X32090619Y-10632218D01*
X32050619Y-10934218D02*
X32050619Y-11014218D01*
X32010619Y-10974218D02*
X32090619Y-10974218D01*
X32050619Y-12204218D02*
X32050619Y-12284218D01*
X32010619Y-12244218D02*
X32090619Y-12244218D01*
X32050619Y-12526218D02*
X32050619Y-12606218D01*
X32010619Y-12566218D02*
X32090619Y-12566218D01*
X32050619Y-13542218D02*
X32050619Y-13622218D01*
X32010619Y-13582218D02*
X32090619Y-13582218D01*
X32109467Y-7441314D02*
X32109467Y-7521314D01*
X32069467Y-7481314D02*
X32149467Y-7481314D01*
X32109467Y-8203314D02*
X32109467Y-8283314D01*
X32069467Y-8243314D02*
X32149467Y-8243314D01*
X23783856Y-7115356D02*
X23783856Y-7044644D01*
X23713144Y-7044644D01*
X23713144Y-7115356D01*
X23783856Y-7115356D01*
X23784856Y-16555356D02*
X23784856Y-16484644D01*
X23714144Y-16484644D01*
X23714144Y-16555356D01*
X23784856Y-16555356D01*
X24037856Y-7115356D02*
X24037856Y-7044644D01*
X23967144Y-7044644D01*
X23967144Y-7115356D01*
X24037856Y-7115356D01*
X24038856Y-16555356D02*
X24038856Y-16484644D01*
X23968144Y-16484644D01*
X23968144Y-16555356D01*
X24038856Y-16555356D01*
X24291856Y-7115356D02*
X24291856Y-7044644D01*
X24221144Y-7044644D01*
X24221144Y-7115356D01*
X24291856Y-7115356D01*
X24292856Y-16555356D02*
X24292856Y-16484644D01*
X24222144Y-16484644D01*
X24222144Y-16555356D01*
X24292856Y-16555356D01*
X24545856Y-7115356D02*
X24545856Y-7044644D01*
X24475144Y-7044644D01*
X24475144Y-7115356D01*
X24545856Y-7115356D01*
X24546856Y-16555356D02*
X24546856Y-16484644D01*
X24476144Y-16484644D01*
X24476144Y-16555356D01*
X24546856Y-16555356D01*
X24799856Y-7115356D02*
X24799856Y-7044644D01*
X24729144Y-7044644D01*
X24729144Y-7115356D01*
X24799856Y-7115356D01*
X24800856Y-16555356D02*
X24800856Y-16484644D01*
X24730144Y-16484644D01*
X24730144Y-16555356D01*
X24800856Y-16555356D01*
X25053856Y-7115356D02*
X25053856Y-7044644D01*
X24983144Y-7044644D01*
X24983144Y-7115356D01*
X25053856Y-7115356D01*
X25054856Y-16555356D02*
X25054856Y-16484644D01*
X24984144Y-16484644D01*
X24984144Y-16555356D01*
X25054856Y-16555356D01*
X25307856Y-7115356D02*
X25307856Y-7044644D01*
X25237144Y-7044644D01*
X25237144Y-7115356D01*
X25307856Y-7115356D01*
X25308856Y-16555356D02*
X25308856Y-16484644D01*
X25238144Y-16484644D01*
X25238144Y-16555356D01*
X25308856Y-16555356D01*
X25561856Y-7115356D02*
X25561856Y-7044644D01*
X25491144Y-7044644D01*
X25491144Y-7115356D01*
X25561856Y-7115356D01*
X25562856Y-16555356D02*
X25562856Y-16484644D01*
X25492144Y-16484644D01*
X25492144Y-16555356D01*
X25562856Y-16555356D01*
X25815856Y-7115356D02*
X25815856Y-7044644D01*
X25745144Y-7044644D01*
X25745144Y-7115356D01*
X25815856Y-7115356D01*
X25816856Y-16555356D02*
X25816856Y-16484644D01*
X25746144Y-16484644D01*
X25746144Y-16555356D01*
X25816856Y-16555356D01*
X26035975Y-7859574D02*
X26035975Y-7788862D01*
X25965264Y-7788862D01*
X25965264Y-7859574D01*
X26035975Y-7859574D01*
X26069856Y-7115356D02*
X26069856Y-7044644D01*
X25999144Y-7044644D01*
X25999144Y-7115356D01*
X26069856Y-7115356D01*
X26070856Y-16555356D02*
X26070856Y-16484644D01*
X26000144Y-16484644D01*
X26000144Y-16555356D01*
X26070856Y-16555356D01*
X26323856Y-7115356D02*
X26323856Y-7044644D01*
X26253144Y-7044644D01*
X26253144Y-7115356D01*
X26323856Y-7115356D01*
X26324856Y-16555356D02*
X26324856Y-16484644D01*
X26254144Y-16484644D01*
X26254144Y-16555356D01*
X26324856Y-16555356D01*
X26577856Y-7115356D02*
X26577856Y-7044644D01*
X26507144Y-7044644D01*
X26507144Y-7115356D01*
X26577856Y-7115356D01*
X26578856Y-16555356D02*
X26578856Y-16484644D01*
X26508144Y-16484644D01*
X26508144Y-16555356D01*
X26578856Y-16555356D01*
X26831856Y-7115356D02*
X26831856Y-7044644D01*
X26761144Y-7044644D01*
X26761144Y-7115356D01*
X26831856Y-7115356D01*
X26832856Y-16555356D02*
X26832856Y-16484644D01*
X26762144Y-16484644D01*
X26762144Y-16555356D01*
X26832856Y-16555356D01*
X27051975Y-8113574D02*
X27051975Y-8042862D01*
X26981264Y-8042862D01*
X26981264Y-8113574D01*
X27051975Y-8113574D01*
X27085856Y-7115356D02*
X27085856Y-7044644D01*
X27015144Y-7044644D01*
X27015144Y-7115356D01*
X27085856Y-7115356D01*
X27086856Y-16555356D02*
X27086856Y-16484644D01*
X27016144Y-16484644D01*
X27016144Y-16555356D01*
X27086856Y-16555356D01*
X27339856Y-7115356D02*
X27339856Y-7044644D01*
X27269144Y-7044644D01*
X27269144Y-7115356D01*
X27339856Y-7115356D01*
X27340856Y-16555356D02*
X27340856Y-16484644D01*
X27270144Y-16484644D01*
X27270144Y-16555356D01*
X27340856Y-16555356D01*
X27593856Y-7115356D02*
X27593856Y-7044644D01*
X27523144Y-7044644D01*
X27523144Y-7115356D01*
X27593856Y-7115356D01*
X27594856Y-16555356D02*
X27594856Y-16484644D01*
X27524144Y-16484644D01*
X27524144Y-16555356D01*
X27594856Y-16555356D01*
X27734475Y-14523074D02*
X27734475Y-14452362D01*
X27663763Y-14452362D01*
X27663763Y-14523074D01*
X27734475Y-14523074D01*
X27813975Y-7859574D02*
X27813975Y-7788862D01*
X27743264Y-7788862D01*
X27743264Y-7859574D01*
X27813975Y-7859574D01*
X27847856Y-7115356D02*
X27847856Y-7044644D01*
X27777144Y-7044644D01*
X27777144Y-7115356D01*
X27847856Y-7115356D01*
X27848856Y-16555356D02*
X27848856Y-16484644D01*
X27778144Y-16484644D01*
X27778144Y-16555356D01*
X27848856Y-16555356D01*
X27988475Y-13507074D02*
X27988475Y-13436362D01*
X27917763Y-13436362D01*
X27917763Y-13507074D01*
X27988475Y-13507074D01*
X27988475Y-15285074D02*
X27988475Y-15214362D01*
X27917763Y-15214362D01*
X27917763Y-15285074D01*
X27988475Y-15285074D01*
X28101856Y-7115356D02*
X28101856Y-7044644D01*
X28031144Y-7044644D01*
X28031144Y-7115356D01*
X28101856Y-7115356D01*
X28102856Y-16555356D02*
X28102856Y-16484644D01*
X28032144Y-16484644D01*
X28032144Y-16555356D01*
X28102856Y-16555356D01*
X28355856Y-7115356D02*
X28355856Y-7044644D01*
X28285144Y-7044644D01*
X28285144Y-7115356D01*
X28355856Y-7115356D01*
X28356856Y-16555356D02*
X28356856Y-16484644D01*
X28286144Y-16484644D01*
X28286144Y-16555356D01*
X28356856Y-16555356D01*
X28609856Y-7115356D02*
X28609856Y-7044644D01*
X28539144Y-7044644D01*
X28539144Y-7115356D01*
X28609856Y-7115356D01*
X28610856Y-16555356D02*
X28610856Y-16484644D01*
X28540144Y-16484644D01*
X28540144Y-16555356D01*
X28610856Y-16555356D01*
X28863856Y-7115356D02*
X28863856Y-7044644D01*
X28793144Y-7044644D01*
X28793144Y-7115356D01*
X28863856Y-7115356D01*
X28864856Y-16555356D02*
X28864856Y-16484644D01*
X28794144Y-16484644D01*
X28794144Y-16555356D01*
X28864856Y-16555356D01*
X29117856Y-7115356D02*
X29117856Y-7044644D01*
X29047144Y-7044644D01*
X29047144Y-7115356D01*
X29117856Y-7115356D01*
X29118856Y-16555356D02*
X29118856Y-16484644D01*
X29048144Y-16484644D01*
X29048144Y-16555356D01*
X29118856Y-16555356D01*
X29371856Y-7115356D02*
X29371856Y-7044644D01*
X29301144Y-7044644D01*
X29301144Y-7115356D01*
X29371856Y-7115356D01*
X29372856Y-16555356D02*
X29372856Y-16484644D01*
X29302144Y-16484644D01*
X29302144Y-16555356D01*
X29372856Y-16555356D01*
X29625856Y-7115356D02*
X29625856Y-7044644D01*
X29555144Y-7044644D01*
X29555144Y-7115356D01*
X29625856Y-7115356D01*
X29626856Y-16555356D02*
X29626856Y-16484644D01*
X29556144Y-16484644D01*
X29556144Y-16555356D01*
X29626856Y-16555356D01*
X29879856Y-7115356D02*
X29879856Y-7044644D01*
X29809144Y-7044644D01*
X29809144Y-7115356D01*
X29879856Y-7115356D01*
X29880856Y-16555356D02*
X29880856Y-16484644D01*
X29810144Y-16484644D01*
X29810144Y-16555356D01*
X29880856Y-16555356D01*
X30133856Y-7115356D02*
X30133856Y-7044644D01*
X30063144Y-7044644D01*
X30063144Y-7115356D01*
X30133856Y-7115356D01*
X30134856Y-16555356D02*
X30134856Y-16484644D01*
X30064144Y-16484644D01*
X30064144Y-16555356D01*
X30134856Y-16555356D01*
X30387856Y-7115356D02*
X30387856Y-7044644D01*
X30317144Y-7044644D01*
X30317144Y-7115356D01*
X30387856Y-7115356D01*
X30388856Y-16555356D02*
X30388856Y-16484644D01*
X30318144Y-16484644D01*
X30318144Y-16555356D01*
X30388856Y-16555356D01*
X30641856Y-7115356D02*
X30641856Y-7044644D01*
X30571144Y-7044644D01*
X30571144Y-7115356D01*
X30641856Y-7115356D01*
X30642856Y-16555356D02*
X30642856Y-16484644D01*
X30572144Y-16484644D01*
X30572144Y-16555356D01*
X30642856Y-16555356D01*
X30895856Y-7115356D02*
X30895856Y-7044644D01*
X30825144Y-7044644D01*
X30825144Y-7115356D01*
X30895856Y-7115356D01*
X30896856Y-16555356D02*
X30896856Y-16484644D01*
X30826144Y-16484644D01*
X30826144Y-16555356D01*
X30896856Y-16555356D01*
X31149856Y-7115356D02*
X31149856Y-7044644D01*
X31079144Y-7044644D01*
X31079144Y-7115356D01*
X31149856Y-7115356D01*
X31150856Y-16555356D02*
X31150856Y-16484644D01*
X31080144Y-16484644D01*
X31080144Y-16555356D01*
X31150856Y-16555356D01*
X31251475Y-12765074D02*
X31251475Y-12694362D01*
X31180764Y-12694362D01*
X31180764Y-12765074D01*
X31251475Y-12765074D01*
X31403856Y-7115356D02*
X31403856Y-7044644D01*
X31333144Y-7044644D01*
X31333144Y-7115356D01*
X31403856Y-7115356D01*
X31404856Y-16555356D02*
X31404856Y-16484644D01*
X31334144Y-16484644D01*
X31334144Y-16555356D01*
X31404856Y-16555356D01*
X31505475Y-11749074D02*
X31505475Y-11678362D01*
X31434764Y-11678362D01*
X31434764Y-11749074D01*
X31505475Y-11749074D01*
X31505475Y-13527074D02*
X31505475Y-13456362D01*
X31434764Y-13456362D01*
X31434764Y-13527074D01*
X31505475Y-13527074D01*
X31657856Y-7115356D02*
X31657856Y-7044644D01*
X31587144Y-7044644D01*
X31587144Y-7115356D01*
X31657856Y-7115356D01*
X31658856Y-16555356D02*
X31658856Y-16484644D01*
X31588144Y-16484644D01*
X31588144Y-16555356D01*
X31658856Y-16555356D01*
X32081975Y-14793574D02*
X32081975Y-14722862D01*
X32011264Y-14722862D01*
X32011264Y-14793574D01*
X32081975Y-14793574D01*
X32081975Y-15047574D02*
X32081975Y-14976862D01*
X32011264Y-14976862D01*
X32011264Y-15047574D01*
X32081975Y-15047574D01*
X32081975Y-15301574D02*
X32081975Y-15230862D01*
X32011264Y-15230862D01*
X32011264Y-15301574D01*
X32081975Y-15301574D01*
X32081975Y-15555574D02*
X32081975Y-15484862D01*
X32011264Y-15484862D01*
X32011264Y-15555574D01*
X32081975Y-15555574D01*
X32081975Y-15809574D02*
X32081975Y-15738862D01*
X32011264Y-15738862D01*
X32011264Y-15809574D01*
X32081975Y-15809574D01*
X32335975Y-14793574D02*
X32335975Y-14722862D01*
X32265264Y-14722862D01*
X32265264Y-14793574D01*
X32335975Y-14793574D01*
X32335975Y-15047574D02*
X32335975Y-14976862D01*
X32265264Y-14976862D01*
X32265264Y-15047574D01*
X32335975Y-15047574D01*
X32335975Y-15301574D02*
X32335975Y-15230862D01*
X32265264Y-15230862D01*
X32265264Y-15301574D01*
X32335975Y-15301574D01*
X32335975Y-15555574D02*
X32335975Y-15484862D01*
X32265264Y-15484862D01*
X32265264Y-15555574D01*
X32335975Y-15555574D01*
X32335975Y-15809574D02*
X32335975Y-15738862D01*
X32265264Y-15738862D01*
X32265264Y-15809574D01*
X32335975Y-15809574D01*
D13*
X23250619Y-13850218D02*
X23310619Y-13790218D01*
X23250619Y-13730218D01*
X23190619Y-13790218D01*
X23250619Y-13850218D01*
X23250619Y-14358218D02*
X23310619Y-14298218D01*
X23250619Y-14238218D01*
X23190619Y-14298218D01*
X23250619Y-14358218D01*
X23616619Y-13484218D02*
X23676619Y-13424218D01*
X23616619Y-13364218D01*
X23556619Y-13424218D01*
X23616619Y-13484218D01*
X24124619Y-13484218D02*
X24184619Y-13424218D01*
X24124619Y-13364218D01*
X24064619Y-13424218D01*
X24124619Y-13484218D01*
X26900619Y-10984218D02*
X26960619Y-10924218D01*
X26900619Y-10864218D01*
X26840619Y-10924218D01*
X26900619Y-10984218D01*
X26900619Y-11492218D02*
X26960619Y-11432218D01*
X26900619Y-11372218D01*
X26840619Y-11432218D01*
X26900619Y-11492218D01*
X28216619Y-7984218D02*
X28276619Y-7924218D01*
X28216619Y-7864218D01*
X28156619Y-7924218D01*
X28216619Y-7984218D01*
X28724619Y-7984218D02*
X28784619Y-7924218D01*
X28724619Y-7864218D01*
X28664619Y-7924218D01*
X28724619Y-7984218D01*
X30850619Y-8034218D02*
X30910619Y-7974218D01*
X30850619Y-7914218D01*
X30790619Y-7974218D01*
X30850619Y-8034218D01*
X30850619Y-8542218D02*
X30910619Y-8482218D01*
X30850619Y-8422218D01*
X30790619Y-8482218D01*
X30850619Y-8542218D01*
D11*
X22964277Y-17102984D02*
X22964277Y-16902984D01*
X22964277Y-16902984D02*
X23011896Y-16902984D01*
X23011896Y-16902984D02*
X23040467Y-16912508D01*
X23040467Y-16912508D02*
X23059515Y-16931555D01*
X23059515Y-16931555D02*
X23069039Y-16950603D01*
X23069039Y-16950603D02*
X23078562Y-16988698D01*
X23078562Y-16988698D02*
X23078562Y-17017270D01*
X23078562Y-17017270D02*
X23069039Y-17055365D01*
X23069039Y-17055365D02*
X23059515Y-17074412D01*
X23059515Y-17074412D02*
X23040467Y-17093460D01*
X23040467Y-17093460D02*
X23011896Y-17102984D01*
X23011896Y-17102984D02*
X22964277Y-17102984D01*
X23164277Y-17102984D02*
X23164277Y-16969650D01*
X23164277Y-17007746D02*
X23173801Y-16988698D01*
X23173801Y-16988698D02*
X23183324Y-16979174D01*
X23183324Y-16979174D02*
X23202372Y-16969650D01*
X23202372Y-16969650D02*
X23221420Y-16969650D01*
X23288086Y-17102984D02*
X23288086Y-16969650D01*
X23288086Y-16902984D02*
X23278562Y-16912508D01*
X23278562Y-16912508D02*
X23288086Y-16922031D01*
X23288086Y-16922031D02*
X23297610Y-16912508D01*
X23297610Y-16912508D02*
X23288086Y-16902984D01*
X23288086Y-16902984D02*
X23288086Y-16922031D01*
X23411896Y-17102984D02*
X23392848Y-17093460D01*
X23392848Y-17093460D02*
X23383324Y-17074412D01*
X23383324Y-17074412D02*
X23383324Y-16902984D01*
X23516658Y-17102984D02*
X23497610Y-17093460D01*
X23497610Y-17093460D02*
X23488086Y-17074412D01*
X23488086Y-17074412D02*
X23488086Y-16902984D01*
X23745229Y-17102984D02*
X23745229Y-16902984D01*
X23745229Y-16902984D02*
X23811896Y-17045841D01*
X23811896Y-17045841D02*
X23878562Y-16902984D01*
X23878562Y-16902984D02*
X23878562Y-17102984D01*
X24059515Y-17102984D02*
X24059515Y-16998222D01*
X24059515Y-16998222D02*
X24049991Y-16979174D01*
X24049991Y-16979174D02*
X24030943Y-16969650D01*
X24030943Y-16969650D02*
X23992848Y-16969650D01*
X23992848Y-16969650D02*
X23973801Y-16979174D01*
X24059515Y-17093460D02*
X24040467Y-17102984D01*
X24040467Y-17102984D02*
X23992848Y-17102984D01*
X23992848Y-17102984D02*
X23973801Y-17093460D01*
X23973801Y-17093460D02*
X23964277Y-17074412D01*
X23964277Y-17074412D02*
X23964277Y-17055365D01*
X23964277Y-17055365D02*
X23973801Y-17036317D01*
X23973801Y-17036317D02*
X23992848Y-17026793D01*
X23992848Y-17026793D02*
X24040467Y-17026793D01*
X24040467Y-17026793D02*
X24059515Y-17017270D01*
X24154753Y-16969650D02*
X24154753Y-17169650D01*
X24154753Y-16979174D02*
X24173801Y-16969650D01*
X24173801Y-16969650D02*
X24211896Y-16969650D01*
X24211896Y-16969650D02*
X24230943Y-16979174D01*
X24230943Y-16979174D02*
X24240467Y-16988698D01*
X24240467Y-16988698D02*
X24249991Y-17007746D01*
X24249991Y-17007746D02*
X24249991Y-17064889D01*
X24249991Y-17064889D02*
X24240467Y-17083936D01*
X24240467Y-17083936D02*
X24230943Y-17093460D01*
X24230943Y-17093460D02*
X24211896Y-17102984D01*
X24211896Y-17102984D02*
X24173801Y-17102984D01*
X24173801Y-17102984D02*
X24154753Y-17093460D01*
X24335705Y-17083936D02*
X24345229Y-17093460D01*
X24345229Y-17093460D02*
X24335705Y-17102984D01*
X24335705Y-17102984D02*
X24326182Y-17093460D01*
X24326182Y-17093460D02*
X24335705Y-17083936D01*
X24335705Y-17083936D02*
X24335705Y-17102984D01*
X24335705Y-16979174D02*
X24345229Y-16988698D01*
X24345229Y-16988698D02*
X24335705Y-16998222D01*
X24335705Y-16998222D02*
X24326182Y-16988698D01*
X24326182Y-16988698D02*
X24335705Y-16979174D01*
X24335705Y-16979174D02*
X24335705Y-16998222D01*
D12*
X22633500Y-17396500D02*
X22703500Y-17466500D01*
X22703500Y-17396500D02*
X22633500Y-17466500D01*
D11*
X23002372Y-17322984D02*
X23021420Y-17322984D01*
X23021420Y-17322984D02*
X23040467Y-17332508D01*
X23040467Y-17332508D02*
X23049991Y-17342031D01*
X23049991Y-17342031D02*
X23059515Y-17361079D01*
X23059515Y-17361079D02*
X23069039Y-17399174D01*
X23069039Y-17399174D02*
X23069039Y-17446793D01*
X23069039Y-17446793D02*
X23059515Y-17484889D01*
X23059515Y-17484889D02*
X23049991Y-17503936D01*
X23049991Y-17503936D02*
X23040467Y-17513460D01*
X23040467Y-17513460D02*
X23021420Y-17522984D01*
X23021420Y-17522984D02*
X23002372Y-17522984D01*
X23002372Y-17522984D02*
X22983324Y-17513460D01*
X22983324Y-17513460D02*
X22973801Y-17503936D01*
X22973801Y-17503936D02*
X22964277Y-17484889D01*
X22964277Y-17484889D02*
X22954753Y-17446793D01*
X22954753Y-17446793D02*
X22954753Y-17399174D01*
X22954753Y-17399174D02*
X22964277Y-17361079D01*
X22964277Y-17361079D02*
X22973801Y-17342031D01*
X22973801Y-17342031D02*
X22983324Y-17332508D01*
X22983324Y-17332508D02*
X23002372Y-17322984D01*
X23154753Y-17503936D02*
X23164277Y-17513460D01*
X23164277Y-17513460D02*
X23154753Y-17522984D01*
X23154753Y-17522984D02*
X23145229Y-17513460D01*
X23145229Y-17513460D02*
X23154753Y-17503936D01*
X23154753Y-17503936D02*
X23154753Y-17522984D01*
X23230943Y-17322984D02*
X23364277Y-17322984D01*
X23364277Y-17322984D02*
X23278562Y-17522984D01*
X23478562Y-17322984D02*
X23497610Y-17322984D01*
X23497610Y-17322984D02*
X23516658Y-17332508D01*
X23516658Y-17332508D02*
X23526182Y-17342031D01*
X23526182Y-17342031D02*
X23535705Y-17361079D01*
X23535705Y-17361079D02*
X23545229Y-17399174D01*
X23545229Y-17399174D02*
X23545229Y-17446793D01*
X23545229Y-17446793D02*
X23535705Y-17484889D01*
X23535705Y-17484889D02*
X23526182Y-17503936D01*
X23526182Y-17503936D02*
X23516658Y-17513460D01*
X23516658Y-17513460D02*
X23497610Y-17522984D01*
X23497610Y-17522984D02*
X23478562Y-17522984D01*
X23478562Y-17522984D02*
X23459515Y-17513460D01*
X23459515Y-17513460D02*
X23449991Y-17503936D01*
X23449991Y-17503936D02*
X23440467Y-17484889D01*
X23440467Y-17484889D02*
X23430943Y-17446793D01*
X23430943Y-17446793D02*
X23430943Y-17399174D01*
X23430943Y-17399174D02*
X23440467Y-17361079D01*
X23440467Y-17361079D02*
X23449991Y-17342031D01*
X23449991Y-17342031D02*
X23459515Y-17332508D01*
X23459515Y-17332508D02*
X23478562Y-17322984D01*
X23669039Y-17322984D02*
X23688086Y-17322984D01*
X23688086Y-17322984D02*
X23707134Y-17332508D01*
X23707134Y-17332508D02*
X23716658Y-17342031D01*
X23716658Y-17342031D02*
X23726182Y-17361079D01*
X23726182Y-17361079D02*
X23735705Y-17399174D01*
X23735705Y-17399174D02*
X23735705Y-17446793D01*
X23735705Y-17446793D02*
X23726182Y-17484889D01*
X23726182Y-17484889D02*
X23716658Y-17503936D01*
X23716658Y-17503936D02*
X23707134Y-17513460D01*
X23707134Y-17513460D02*
X23688086Y-17522984D01*
X23688086Y-17522984D02*
X23669039Y-17522984D01*
X23669039Y-17522984D02*
X23649991Y-17513460D01*
X23649991Y-17513460D02*
X23640467Y-17503936D01*
X23640467Y-17503936D02*
X23630943Y-17484889D01*
X23630943Y-17484889D02*
X23621420Y-17446793D01*
X23621420Y-17446793D02*
X23621420Y-17399174D01*
X23621420Y-17399174D02*
X23630943Y-17361079D01*
X23630943Y-17361079D02*
X23640467Y-17342031D01*
X23640467Y-17342031D02*
X23649991Y-17332508D01*
X23649991Y-17332508D02*
X23669039Y-17322984D01*
X23821420Y-17522984D02*
X23821420Y-17389650D01*
X23821420Y-17408698D02*
X23830943Y-17399174D01*
X23830943Y-17399174D02*
X23849991Y-17389650D01*
X23849991Y-17389650D02*
X23878563Y-17389650D01*
X23878563Y-17389650D02*
X23897610Y-17399174D01*
X23897610Y-17399174D02*
X23907134Y-17418222D01*
X23907134Y-17418222D02*
X23907134Y-17522984D01*
X23907134Y-17418222D02*
X23916658Y-17399174D01*
X23916658Y-17399174D02*
X23935705Y-17389650D01*
X23935705Y-17389650D02*
X23964277Y-17389650D01*
X23964277Y-17389650D02*
X23983324Y-17399174D01*
X23983324Y-17399174D02*
X23992848Y-17418222D01*
X23992848Y-17418222D02*
X23992848Y-17522984D01*
X24088086Y-17522984D02*
X24088086Y-17389650D01*
X24088086Y-17408698D02*
X24097610Y-17399174D01*
X24097610Y-17399174D02*
X24116658Y-17389650D01*
X24116658Y-17389650D02*
X24145229Y-17389650D01*
X24145229Y-17389650D02*
X24164277Y-17399174D01*
X24164277Y-17399174D02*
X24173801Y-17418222D01*
X24173801Y-17418222D02*
X24173801Y-17522984D01*
X24173801Y-17418222D02*
X24183324Y-17399174D01*
X24183324Y-17399174D02*
X24202372Y-17389650D01*
X24202372Y-17389650D02*
X24230943Y-17389650D01*
X24230943Y-17389650D02*
X24249991Y-17399174D01*
X24249991Y-17399174D02*
X24259515Y-17418222D01*
X24259515Y-17418222D02*
X24259515Y-17522984D01*
X24649991Y-17313460D02*
X24478563Y-17570603D01*
X24907134Y-17322984D02*
X24926182Y-17322984D01*
X24926182Y-17322984D02*
X24945229Y-17332508D01*
X24945229Y-17332508D02*
X24954753Y-17342031D01*
X24954753Y-17342031D02*
X24964277Y-17361079D01*
X24964277Y-17361079D02*
X24973801Y-17399174D01*
X24973801Y-17399174D02*
X24973801Y-17446793D01*
X24973801Y-17446793D02*
X24964277Y-17484889D01*
X24964277Y-17484889D02*
X24954753Y-17503936D01*
X24954753Y-17503936D02*
X24945229Y-17513460D01*
X24945229Y-17513460D02*
X24926182Y-17522984D01*
X24926182Y-17522984D02*
X24907134Y-17522984D01*
X24907134Y-17522984D02*
X24888086Y-17513460D01*
X24888086Y-17513460D02*
X24878563Y-17503936D01*
X24878563Y-17503936D02*
X24869039Y-17484889D01*
X24869039Y-17484889D02*
X24859515Y-17446793D01*
X24859515Y-17446793D02*
X24859515Y-17399174D01*
X24859515Y-17399174D02*
X24869039Y-17361079D01*
X24869039Y-17361079D02*
X24878563Y-17342031D01*
X24878563Y-17342031D02*
X24888086Y-17332508D01*
X24888086Y-17332508D02*
X24907134Y-17322984D01*
X25059515Y-17503936D02*
X25069039Y-17513460D01*
X25069039Y-17513460D02*
X25059515Y-17522984D01*
X25059515Y-17522984D02*
X25049991Y-17513460D01*
X25049991Y-17513460D02*
X25059515Y-17503936D01*
X25059515Y-17503936D02*
X25059515Y-17522984D01*
X25192848Y-17322984D02*
X25211896Y-17322984D01*
X25211896Y-17322984D02*
X25230944Y-17332508D01*
X25230944Y-17332508D02*
X25240467Y-17342031D01*
X25240467Y-17342031D02*
X25249991Y-17361079D01*
X25249991Y-17361079D02*
X25259515Y-17399174D01*
X25259515Y-17399174D02*
X25259515Y-17446793D01*
X25259515Y-17446793D02*
X25249991Y-17484889D01*
X25249991Y-17484889D02*
X25240467Y-17503936D01*
X25240467Y-17503936D02*
X25230944Y-17513460D01*
X25230944Y-17513460D02*
X25211896Y-17522984D01*
X25211896Y-17522984D02*
X25192848Y-17522984D01*
X25192848Y-17522984D02*
X25173801Y-17513460D01*
X25173801Y-17513460D02*
X25164277Y-17503936D01*
X25164277Y-17503936D02*
X25154753Y-17484889D01*
X25154753Y-17484889D02*
X25145229Y-17446793D01*
X25145229Y-17446793D02*
X25145229Y-17399174D01*
X25145229Y-17399174D02*
X25154753Y-17361079D01*
X25154753Y-17361079D02*
X25164277Y-17342031D01*
X25164277Y-17342031D02*
X25173801Y-17332508D01*
X25173801Y-17332508D02*
X25192848Y-17322984D01*
X25335706Y-17342031D02*
X25345229Y-17332508D01*
X25345229Y-17332508D02*
X25364277Y-17322984D01*
X25364277Y-17322984D02*
X25411896Y-17322984D01*
X25411896Y-17322984D02*
X25430944Y-17332508D01*
X25430944Y-17332508D02*
X25440467Y-17342031D01*
X25440467Y-17342031D02*
X25449991Y-17361079D01*
X25449991Y-17361079D02*
X25449991Y-17380127D01*
X25449991Y-17380127D02*
X25440467Y-17408698D01*
X25440467Y-17408698D02*
X25326182Y-17522984D01*
X25326182Y-17522984D02*
X25449991Y-17522984D01*
X25516658Y-17322984D02*
X25649991Y-17322984D01*
X25649991Y-17322984D02*
X25564277Y-17522984D01*
X25811896Y-17322984D02*
X25773801Y-17322984D01*
X25773801Y-17322984D02*
X25754753Y-17332508D01*
X25754753Y-17332508D02*
X25745229Y-17342031D01*
X25745229Y-17342031D02*
X25726182Y-17370603D01*
X25726182Y-17370603D02*
X25716658Y-17408698D01*
X25716658Y-17408698D02*
X25716658Y-17484889D01*
X25716658Y-17484889D02*
X25726182Y-17503936D01*
X25726182Y-17503936D02*
X25735706Y-17513460D01*
X25735706Y-17513460D02*
X25754753Y-17522984D01*
X25754753Y-17522984D02*
X25792848Y-17522984D01*
X25792848Y-17522984D02*
X25811896Y-17513460D01*
X25811896Y-17513460D02*
X25821420Y-17503936D01*
X25821420Y-17503936D02*
X25830944Y-17484889D01*
X25830944Y-17484889D02*
X25830944Y-17437270D01*
X25830944Y-17437270D02*
X25821420Y-17418222D01*
X25821420Y-17418222D02*
X25811896Y-17408698D01*
X25811896Y-17408698D02*
X25792848Y-17399174D01*
X25792848Y-17399174D02*
X25754753Y-17399174D01*
X25754753Y-17399174D02*
X25735706Y-17408698D01*
X25735706Y-17408698D02*
X25726182Y-17418222D01*
X25726182Y-17418222D02*
X25716658Y-17437270D01*
X25907134Y-17322984D02*
X25907134Y-17361079D01*
X25983325Y-17322984D02*
X25983325Y-17361079D01*
X26278563Y-17599174D02*
X26269039Y-17589650D01*
X26269039Y-17589650D02*
X26249991Y-17561079D01*
X26249991Y-17561079D02*
X26240468Y-17542031D01*
X26240468Y-17542031D02*
X26230944Y-17513460D01*
X26230944Y-17513460D02*
X26221420Y-17465841D01*
X26221420Y-17465841D02*
X26221420Y-17427746D01*
X26221420Y-17427746D02*
X26230944Y-17380127D01*
X26230944Y-17380127D02*
X26240468Y-17351555D01*
X26240468Y-17351555D02*
X26249991Y-17332508D01*
X26249991Y-17332508D02*
X26269039Y-17303936D01*
X26269039Y-17303936D02*
X26278563Y-17294412D01*
X26345229Y-17342031D02*
X26354753Y-17332508D01*
X26354753Y-17332508D02*
X26373801Y-17322984D01*
X26373801Y-17322984D02*
X26421420Y-17322984D01*
X26421420Y-17322984D02*
X26440468Y-17332508D01*
X26440468Y-17332508D02*
X26449991Y-17342031D01*
X26449991Y-17342031D02*
X26459515Y-17361079D01*
X26459515Y-17361079D02*
X26459515Y-17380127D01*
X26459515Y-17380127D02*
X26449991Y-17408698D01*
X26449991Y-17408698D02*
X26335706Y-17522984D01*
X26335706Y-17522984D02*
X26459515Y-17522984D01*
X26630944Y-17389650D02*
X26630944Y-17522984D01*
X26583325Y-17313460D02*
X26535706Y-17456317D01*
X26535706Y-17456317D02*
X26659515Y-17456317D01*
X26888087Y-17522984D02*
X26888087Y-17322984D01*
X26973801Y-17522984D02*
X26973801Y-17418222D01*
X26973801Y-17418222D02*
X26964277Y-17399174D01*
X26964277Y-17399174D02*
X26945230Y-17389650D01*
X26945230Y-17389650D02*
X26916658Y-17389650D01*
X26916658Y-17389650D02*
X26897610Y-17399174D01*
X26897610Y-17399174D02*
X26888087Y-17408698D01*
X27097610Y-17522984D02*
X27078563Y-17513460D01*
X27078563Y-17513460D02*
X27069039Y-17503936D01*
X27069039Y-17503936D02*
X27059515Y-17484889D01*
X27059515Y-17484889D02*
X27059515Y-17427746D01*
X27059515Y-17427746D02*
X27069039Y-17408698D01*
X27069039Y-17408698D02*
X27078563Y-17399174D01*
X27078563Y-17399174D02*
X27097610Y-17389650D01*
X27097610Y-17389650D02*
X27126182Y-17389650D01*
X27126182Y-17389650D02*
X27145230Y-17399174D01*
X27145230Y-17399174D02*
X27154753Y-17408698D01*
X27154753Y-17408698D02*
X27164277Y-17427746D01*
X27164277Y-17427746D02*
X27164277Y-17484889D01*
X27164277Y-17484889D02*
X27154753Y-17503936D01*
X27154753Y-17503936D02*
X27145230Y-17513460D01*
X27145230Y-17513460D02*
X27126182Y-17522984D01*
X27126182Y-17522984D02*
X27097610Y-17522984D01*
X27278563Y-17522984D02*
X27259515Y-17513460D01*
X27259515Y-17513460D02*
X27249991Y-17494412D01*
X27249991Y-17494412D02*
X27249991Y-17322984D01*
X27430944Y-17513460D02*
X27411896Y-17522984D01*
X27411896Y-17522984D02*
X27373801Y-17522984D01*
X27373801Y-17522984D02*
X27354753Y-17513460D01*
X27354753Y-17513460D02*
X27345230Y-17494412D01*
X27345230Y-17494412D02*
X27345230Y-17418222D01*
X27345230Y-17418222D02*
X27354753Y-17399174D01*
X27354753Y-17399174D02*
X27373801Y-17389650D01*
X27373801Y-17389650D02*
X27411896Y-17389650D01*
X27411896Y-17389650D02*
X27430944Y-17399174D01*
X27430944Y-17399174D02*
X27440468Y-17418222D01*
X27440468Y-17418222D02*
X27440468Y-17437270D01*
X27440468Y-17437270D02*
X27345230Y-17456317D01*
X27516658Y-17513460D02*
X27535706Y-17522984D01*
X27535706Y-17522984D02*
X27573801Y-17522984D01*
X27573801Y-17522984D02*
X27592849Y-17513460D01*
X27592849Y-17513460D02*
X27602372Y-17494412D01*
X27602372Y-17494412D02*
X27602372Y-17484889D01*
X27602372Y-17484889D02*
X27592849Y-17465841D01*
X27592849Y-17465841D02*
X27573801Y-17456317D01*
X27573801Y-17456317D02*
X27545230Y-17456317D01*
X27545230Y-17456317D02*
X27526182Y-17446793D01*
X27526182Y-17446793D02*
X27516658Y-17427746D01*
X27516658Y-17427746D02*
X27516658Y-17418222D01*
X27516658Y-17418222D02*
X27526182Y-17399174D01*
X27526182Y-17399174D02*
X27545230Y-17389650D01*
X27545230Y-17389650D02*
X27573801Y-17389650D01*
X27573801Y-17389650D02*
X27592849Y-17399174D01*
X27669039Y-17599174D02*
X27678563Y-17589650D01*
X27678563Y-17589650D02*
X27697611Y-17561079D01*
X27697611Y-17561079D02*
X27707134Y-17542031D01*
X27707134Y-17542031D02*
X27716658Y-17513460D01*
X27716658Y-17513460D02*
X27726182Y-17465841D01*
X27726182Y-17465841D02*
X27726182Y-17427746D01*
X27726182Y-17427746D02*
X27716658Y-17380127D01*
X27716658Y-17380127D02*
X27707134Y-17351555D01*
X27707134Y-17351555D02*
X27697611Y-17332508D01*
X27697611Y-17332508D02*
X27678563Y-17303936D01*
X27678563Y-17303936D02*
X27669039Y-17294412D01*
D12*
X22703500Y-17695500D02*
G75*
G02*
X22628500Y-17695500I-37500J0D01*
G01*
X22628500Y-17695500D02*
G75*
G02*
X22703500Y-17695500I37500J0D01*
G01*
D11*
X23002372Y-17586984D02*
X23021420Y-17586984D01*
X23021420Y-17586984D02*
X23040467Y-17596508D01*
X23040467Y-17596508D02*
X23049991Y-17606031D01*
X23049991Y-17606031D02*
X23059515Y-17625079D01*
X23059515Y-17625079D02*
X23069039Y-17663174D01*
X23069039Y-17663174D02*
X23069039Y-17710793D01*
X23069039Y-17710793D02*
X23059515Y-17748889D01*
X23059515Y-17748889D02*
X23049991Y-17767936D01*
X23049991Y-17767936D02*
X23040467Y-17777460D01*
X23040467Y-17777460D02*
X23021420Y-17786984D01*
X23021420Y-17786984D02*
X23002372Y-17786984D01*
X23002372Y-17786984D02*
X22983324Y-17777460D01*
X22983324Y-17777460D02*
X22973801Y-17767936D01*
X22973801Y-17767936D02*
X22964277Y-17748889D01*
X22964277Y-17748889D02*
X22954753Y-17710793D01*
X22954753Y-17710793D02*
X22954753Y-17663174D01*
X22954753Y-17663174D02*
X22964277Y-17625079D01*
X22964277Y-17625079D02*
X22973801Y-17606031D01*
X22973801Y-17606031D02*
X22983324Y-17596508D01*
X22983324Y-17596508D02*
X23002372Y-17586984D01*
X23154753Y-17767936D02*
X23164277Y-17777460D01*
X23164277Y-17777460D02*
X23154753Y-17786984D01*
X23154753Y-17786984D02*
X23145229Y-17777460D01*
X23145229Y-17777460D02*
X23154753Y-17767936D01*
X23154753Y-17767936D02*
X23154753Y-17786984D01*
X23230943Y-17586984D02*
X23364277Y-17586984D01*
X23364277Y-17586984D02*
X23278562Y-17786984D01*
X23535705Y-17586984D02*
X23440467Y-17586984D01*
X23440467Y-17586984D02*
X23430943Y-17682222D01*
X23430943Y-17682222D02*
X23440467Y-17672698D01*
X23440467Y-17672698D02*
X23459515Y-17663174D01*
X23459515Y-17663174D02*
X23507134Y-17663174D01*
X23507134Y-17663174D02*
X23526182Y-17672698D01*
X23526182Y-17672698D02*
X23535705Y-17682222D01*
X23535705Y-17682222D02*
X23545229Y-17701270D01*
X23545229Y-17701270D02*
X23545229Y-17748889D01*
X23545229Y-17748889D02*
X23535705Y-17767936D01*
X23535705Y-17767936D02*
X23526182Y-17777460D01*
X23526182Y-17777460D02*
X23507134Y-17786984D01*
X23507134Y-17786984D02*
X23459515Y-17786984D01*
X23459515Y-17786984D02*
X23440467Y-17777460D01*
X23440467Y-17777460D02*
X23430943Y-17767936D01*
X23669039Y-17586984D02*
X23688086Y-17586984D01*
X23688086Y-17586984D02*
X23707134Y-17596508D01*
X23707134Y-17596508D02*
X23716658Y-17606031D01*
X23716658Y-17606031D02*
X23726182Y-17625079D01*
X23726182Y-17625079D02*
X23735705Y-17663174D01*
X23735705Y-17663174D02*
X23735705Y-17710793D01*
X23735705Y-17710793D02*
X23726182Y-17748889D01*
X23726182Y-17748889D02*
X23716658Y-17767936D01*
X23716658Y-17767936D02*
X23707134Y-17777460D01*
X23707134Y-17777460D02*
X23688086Y-17786984D01*
X23688086Y-17786984D02*
X23669039Y-17786984D01*
X23669039Y-17786984D02*
X23649991Y-17777460D01*
X23649991Y-17777460D02*
X23640467Y-17767936D01*
X23640467Y-17767936D02*
X23630943Y-17748889D01*
X23630943Y-17748889D02*
X23621420Y-17710793D01*
X23621420Y-17710793D02*
X23621420Y-17663174D01*
X23621420Y-17663174D02*
X23630943Y-17625079D01*
X23630943Y-17625079D02*
X23640467Y-17606031D01*
X23640467Y-17606031D02*
X23649991Y-17596508D01*
X23649991Y-17596508D02*
X23669039Y-17586984D01*
X23821420Y-17786984D02*
X23821420Y-17653650D01*
X23821420Y-17672698D02*
X23830943Y-17663174D01*
X23830943Y-17663174D02*
X23849991Y-17653650D01*
X23849991Y-17653650D02*
X23878563Y-17653650D01*
X23878563Y-17653650D02*
X23897610Y-17663174D01*
X23897610Y-17663174D02*
X23907134Y-17682222D01*
X23907134Y-17682222D02*
X23907134Y-17786984D01*
X23907134Y-17682222D02*
X23916658Y-17663174D01*
X23916658Y-17663174D02*
X23935705Y-17653650D01*
X23935705Y-17653650D02*
X23964277Y-17653650D01*
X23964277Y-17653650D02*
X23983324Y-17663174D01*
X23983324Y-17663174D02*
X23992848Y-17682222D01*
X23992848Y-17682222D02*
X23992848Y-17786984D01*
X24088086Y-17786984D02*
X24088086Y-17653650D01*
X24088086Y-17672698D02*
X24097610Y-17663174D01*
X24097610Y-17663174D02*
X24116658Y-17653650D01*
X24116658Y-17653650D02*
X24145229Y-17653650D01*
X24145229Y-17653650D02*
X24164277Y-17663174D01*
X24164277Y-17663174D02*
X24173801Y-17682222D01*
X24173801Y-17682222D02*
X24173801Y-17786984D01*
X24173801Y-17682222D02*
X24183324Y-17663174D01*
X24183324Y-17663174D02*
X24202372Y-17653650D01*
X24202372Y-17653650D02*
X24230943Y-17653650D01*
X24230943Y-17653650D02*
X24249991Y-17663174D01*
X24249991Y-17663174D02*
X24259515Y-17682222D01*
X24259515Y-17682222D02*
X24259515Y-17786984D01*
X24649991Y-17577460D02*
X24478563Y-17834603D01*
X24907134Y-17586984D02*
X24926182Y-17586984D01*
X24926182Y-17586984D02*
X24945229Y-17596508D01*
X24945229Y-17596508D02*
X24954753Y-17606031D01*
X24954753Y-17606031D02*
X24964277Y-17625079D01*
X24964277Y-17625079D02*
X24973801Y-17663174D01*
X24973801Y-17663174D02*
X24973801Y-17710793D01*
X24973801Y-17710793D02*
X24964277Y-17748889D01*
X24964277Y-17748889D02*
X24954753Y-17767936D01*
X24954753Y-17767936D02*
X24945229Y-17777460D01*
X24945229Y-17777460D02*
X24926182Y-17786984D01*
X24926182Y-17786984D02*
X24907134Y-17786984D01*
X24907134Y-17786984D02*
X24888086Y-17777460D01*
X24888086Y-17777460D02*
X24878563Y-17767936D01*
X24878563Y-17767936D02*
X24869039Y-17748889D01*
X24869039Y-17748889D02*
X24859515Y-17710793D01*
X24859515Y-17710793D02*
X24859515Y-17663174D01*
X24859515Y-17663174D02*
X24869039Y-17625079D01*
X24869039Y-17625079D02*
X24878563Y-17606031D01*
X24878563Y-17606031D02*
X24888086Y-17596508D01*
X24888086Y-17596508D02*
X24907134Y-17586984D01*
X25059515Y-17767936D02*
X25069039Y-17777460D01*
X25069039Y-17777460D02*
X25059515Y-17786984D01*
X25059515Y-17786984D02*
X25049991Y-17777460D01*
X25049991Y-17777460D02*
X25059515Y-17767936D01*
X25059515Y-17767936D02*
X25059515Y-17786984D01*
X25192848Y-17586984D02*
X25211896Y-17586984D01*
X25211896Y-17586984D02*
X25230944Y-17596508D01*
X25230944Y-17596508D02*
X25240467Y-17606031D01*
X25240467Y-17606031D02*
X25249991Y-17625079D01*
X25249991Y-17625079D02*
X25259515Y-17663174D01*
X25259515Y-17663174D02*
X25259515Y-17710793D01*
X25259515Y-17710793D02*
X25249991Y-17748889D01*
X25249991Y-17748889D02*
X25240467Y-17767936D01*
X25240467Y-17767936D02*
X25230944Y-17777460D01*
X25230944Y-17777460D02*
X25211896Y-17786984D01*
X25211896Y-17786984D02*
X25192848Y-17786984D01*
X25192848Y-17786984D02*
X25173801Y-17777460D01*
X25173801Y-17777460D02*
X25164277Y-17767936D01*
X25164277Y-17767936D02*
X25154753Y-17748889D01*
X25154753Y-17748889D02*
X25145229Y-17710793D01*
X25145229Y-17710793D02*
X25145229Y-17663174D01*
X25145229Y-17663174D02*
X25154753Y-17625079D01*
X25154753Y-17625079D02*
X25164277Y-17606031D01*
X25164277Y-17606031D02*
X25173801Y-17596508D01*
X25173801Y-17596508D02*
X25192848Y-17586984D01*
X25335706Y-17606031D02*
X25345229Y-17596508D01*
X25345229Y-17596508D02*
X25364277Y-17586984D01*
X25364277Y-17586984D02*
X25411896Y-17586984D01*
X25411896Y-17586984D02*
X25430944Y-17596508D01*
X25430944Y-17596508D02*
X25440467Y-17606031D01*
X25440467Y-17606031D02*
X25449991Y-17625079D01*
X25449991Y-17625079D02*
X25449991Y-17644127D01*
X25449991Y-17644127D02*
X25440467Y-17672698D01*
X25440467Y-17672698D02*
X25326182Y-17786984D01*
X25326182Y-17786984D02*
X25449991Y-17786984D01*
X25545229Y-17786984D02*
X25583325Y-17786984D01*
X25583325Y-17786984D02*
X25602372Y-17777460D01*
X25602372Y-17777460D02*
X25611896Y-17767936D01*
X25611896Y-17767936D02*
X25630944Y-17739365D01*
X25630944Y-17739365D02*
X25640467Y-17701270D01*
X25640467Y-17701270D02*
X25640467Y-17625079D01*
X25640467Y-17625079D02*
X25630944Y-17606031D01*
X25630944Y-17606031D02*
X25621420Y-17596508D01*
X25621420Y-17596508D02*
X25602372Y-17586984D01*
X25602372Y-17586984D02*
X25564277Y-17586984D01*
X25564277Y-17586984D02*
X25545229Y-17596508D01*
X25545229Y-17596508D02*
X25535706Y-17606031D01*
X25535706Y-17606031D02*
X25526182Y-17625079D01*
X25526182Y-17625079D02*
X25526182Y-17672698D01*
X25526182Y-17672698D02*
X25535706Y-17691746D01*
X25535706Y-17691746D02*
X25545229Y-17701270D01*
X25545229Y-17701270D02*
X25564277Y-17710793D01*
X25564277Y-17710793D02*
X25602372Y-17710793D01*
X25602372Y-17710793D02*
X25621420Y-17701270D01*
X25621420Y-17701270D02*
X25630944Y-17691746D01*
X25630944Y-17691746D02*
X25640467Y-17672698D01*
X25821420Y-17586984D02*
X25726182Y-17586984D01*
X25726182Y-17586984D02*
X25716658Y-17682222D01*
X25716658Y-17682222D02*
X25726182Y-17672698D01*
X25726182Y-17672698D02*
X25745229Y-17663174D01*
X25745229Y-17663174D02*
X25792848Y-17663174D01*
X25792848Y-17663174D02*
X25811896Y-17672698D01*
X25811896Y-17672698D02*
X25821420Y-17682222D01*
X25821420Y-17682222D02*
X25830944Y-17701270D01*
X25830944Y-17701270D02*
X25830944Y-17748889D01*
X25830944Y-17748889D02*
X25821420Y-17767936D01*
X25821420Y-17767936D02*
X25811896Y-17777460D01*
X25811896Y-17777460D02*
X25792848Y-17786984D01*
X25792848Y-17786984D02*
X25745229Y-17786984D01*
X25745229Y-17786984D02*
X25726182Y-17777460D01*
X25726182Y-17777460D02*
X25716658Y-17767936D01*
X25907134Y-17586984D02*
X25907134Y-17625079D01*
X25983325Y-17586984D02*
X25983325Y-17625079D01*
X26278563Y-17863174D02*
X26269039Y-17853650D01*
X26269039Y-17853650D02*
X26249991Y-17825079D01*
X26249991Y-17825079D02*
X26240468Y-17806031D01*
X26240468Y-17806031D02*
X26230944Y-17777460D01*
X26230944Y-17777460D02*
X26221420Y-17729841D01*
X26221420Y-17729841D02*
X26221420Y-17691746D01*
X26221420Y-17691746D02*
X26230944Y-17644127D01*
X26230944Y-17644127D02*
X26240468Y-17615555D01*
X26240468Y-17615555D02*
X26249991Y-17596508D01*
X26249991Y-17596508D02*
X26269039Y-17567936D01*
X26269039Y-17567936D02*
X26278563Y-17558412D01*
X26459515Y-17786984D02*
X26345229Y-17786984D01*
X26402372Y-17786984D02*
X26402372Y-17586984D01*
X26402372Y-17586984D02*
X26383325Y-17615555D01*
X26383325Y-17615555D02*
X26364277Y-17634603D01*
X26364277Y-17634603D02*
X26345229Y-17644127D01*
X26573801Y-17672698D02*
X26554753Y-17663174D01*
X26554753Y-17663174D02*
X26545229Y-17653650D01*
X26545229Y-17653650D02*
X26535706Y-17634603D01*
X26535706Y-17634603D02*
X26535706Y-17625079D01*
X26535706Y-17625079D02*
X26545229Y-17606031D01*
X26545229Y-17606031D02*
X26554753Y-17596508D01*
X26554753Y-17596508D02*
X26573801Y-17586984D01*
X26573801Y-17586984D02*
X26611896Y-17586984D01*
X26611896Y-17586984D02*
X26630944Y-17596508D01*
X26630944Y-17596508D02*
X26640468Y-17606031D01*
X26640468Y-17606031D02*
X26649991Y-17625079D01*
X26649991Y-17625079D02*
X26649991Y-17634603D01*
X26649991Y-17634603D02*
X26640468Y-17653650D01*
X26640468Y-17653650D02*
X26630944Y-17663174D01*
X26630944Y-17663174D02*
X26611896Y-17672698D01*
X26611896Y-17672698D02*
X26573801Y-17672698D01*
X26573801Y-17672698D02*
X26554753Y-17682222D01*
X26554753Y-17682222D02*
X26545229Y-17691746D01*
X26545229Y-17691746D02*
X26535706Y-17710793D01*
X26535706Y-17710793D02*
X26535706Y-17748889D01*
X26535706Y-17748889D02*
X26545229Y-17767936D01*
X26545229Y-17767936D02*
X26554753Y-17777460D01*
X26554753Y-17777460D02*
X26573801Y-17786984D01*
X26573801Y-17786984D02*
X26611896Y-17786984D01*
X26611896Y-17786984D02*
X26630944Y-17777460D01*
X26630944Y-17777460D02*
X26640468Y-17767936D01*
X26640468Y-17767936D02*
X26649991Y-17748889D01*
X26649991Y-17748889D02*
X26649991Y-17710793D01*
X26649991Y-17710793D02*
X26640468Y-17691746D01*
X26640468Y-17691746D02*
X26630944Y-17682222D01*
X26630944Y-17682222D02*
X26611896Y-17672698D01*
X26888087Y-17786984D02*
X26888087Y-17586984D01*
X26973801Y-17786984D02*
X26973801Y-17682222D01*
X26973801Y-17682222D02*
X26964277Y-17663174D01*
X26964277Y-17663174D02*
X26945230Y-17653650D01*
X26945230Y-17653650D02*
X26916658Y-17653650D01*
X26916658Y-17653650D02*
X26897610Y-17663174D01*
X26897610Y-17663174D02*
X26888087Y-17672698D01*
X27097610Y-17786984D02*
X27078563Y-17777460D01*
X27078563Y-17777460D02*
X27069039Y-17767936D01*
X27069039Y-17767936D02*
X27059515Y-17748889D01*
X27059515Y-17748889D02*
X27059515Y-17691746D01*
X27059515Y-17691746D02*
X27069039Y-17672698D01*
X27069039Y-17672698D02*
X27078563Y-17663174D01*
X27078563Y-17663174D02*
X27097610Y-17653650D01*
X27097610Y-17653650D02*
X27126182Y-17653650D01*
X27126182Y-17653650D02*
X27145230Y-17663174D01*
X27145230Y-17663174D02*
X27154753Y-17672698D01*
X27154753Y-17672698D02*
X27164277Y-17691746D01*
X27164277Y-17691746D02*
X27164277Y-17748889D01*
X27164277Y-17748889D02*
X27154753Y-17767936D01*
X27154753Y-17767936D02*
X27145230Y-17777460D01*
X27145230Y-17777460D02*
X27126182Y-17786984D01*
X27126182Y-17786984D02*
X27097610Y-17786984D01*
X27278563Y-17786984D02*
X27259515Y-17777460D01*
X27259515Y-17777460D02*
X27249991Y-17758412D01*
X27249991Y-17758412D02*
X27249991Y-17586984D01*
X27430944Y-17777460D02*
X27411896Y-17786984D01*
X27411896Y-17786984D02*
X27373801Y-17786984D01*
X27373801Y-17786984D02*
X27354753Y-17777460D01*
X27354753Y-17777460D02*
X27345230Y-17758412D01*
X27345230Y-17758412D02*
X27345230Y-17682222D01*
X27345230Y-17682222D02*
X27354753Y-17663174D01*
X27354753Y-17663174D02*
X27373801Y-17653650D01*
X27373801Y-17653650D02*
X27411896Y-17653650D01*
X27411896Y-17653650D02*
X27430944Y-17663174D01*
X27430944Y-17663174D02*
X27440468Y-17682222D01*
X27440468Y-17682222D02*
X27440468Y-17701270D01*
X27440468Y-17701270D02*
X27345230Y-17720317D01*
X27516658Y-17777460D02*
X27535706Y-17786984D01*
X27535706Y-17786984D02*
X27573801Y-17786984D01*
X27573801Y-17786984D02*
X27592849Y-17777460D01*
X27592849Y-17777460D02*
X27602372Y-17758412D01*
X27602372Y-17758412D02*
X27602372Y-17748889D01*
X27602372Y-17748889D02*
X27592849Y-17729841D01*
X27592849Y-17729841D02*
X27573801Y-17720317D01*
X27573801Y-17720317D02*
X27545230Y-17720317D01*
X27545230Y-17720317D02*
X27526182Y-17710793D01*
X27526182Y-17710793D02*
X27516658Y-17691746D01*
X27516658Y-17691746D02*
X27516658Y-17682222D01*
X27516658Y-17682222D02*
X27526182Y-17663174D01*
X27526182Y-17663174D02*
X27545230Y-17653650D01*
X27545230Y-17653650D02*
X27573801Y-17653650D01*
X27573801Y-17653650D02*
X27592849Y-17663174D01*
X27669039Y-17863174D02*
X27678563Y-17853650D01*
X27678563Y-17853650D02*
X27697611Y-17825079D01*
X27697611Y-17825079D02*
X27707134Y-17806031D01*
X27707134Y-17806031D02*
X27716658Y-17777460D01*
X27716658Y-17777460D02*
X27726182Y-17729841D01*
X27726182Y-17729841D02*
X27726182Y-17691746D01*
X27726182Y-17691746D02*
X27716658Y-17644127D01*
X27716658Y-17644127D02*
X27707134Y-17615555D01*
X27707134Y-17615555D02*
X27697611Y-17596508D01*
X27697611Y-17596508D02*
X27678563Y-17567936D01*
X27678563Y-17567936D02*
X27669039Y-17558412D01*
D12*
X22663500Y-17919500D02*
X22663500Y-17999500D01*
X22623500Y-17959500D02*
X22703500Y-17959500D01*
D11*
X23002372Y-17850984D02*
X23021420Y-17850984D01*
X23021420Y-17850984D02*
X23040467Y-17860508D01*
X23040467Y-17860508D02*
X23049991Y-17870031D01*
X23049991Y-17870031D02*
X23059515Y-17889079D01*
X23059515Y-17889079D02*
X23069039Y-17927174D01*
X23069039Y-17927174D02*
X23069039Y-17974793D01*
X23069039Y-17974793D02*
X23059515Y-18012889D01*
X23059515Y-18012889D02*
X23049991Y-18031936D01*
X23049991Y-18031936D02*
X23040467Y-18041460D01*
X23040467Y-18041460D02*
X23021420Y-18050984D01*
X23021420Y-18050984D02*
X23002372Y-18050984D01*
X23002372Y-18050984D02*
X22983324Y-18041460D01*
X22983324Y-18041460D02*
X22973801Y-18031936D01*
X22973801Y-18031936D02*
X22964277Y-18012889D01*
X22964277Y-18012889D02*
X22954753Y-17974793D01*
X22954753Y-17974793D02*
X22954753Y-17927174D01*
X22954753Y-17927174D02*
X22964277Y-17889079D01*
X22964277Y-17889079D02*
X22973801Y-17870031D01*
X22973801Y-17870031D02*
X22983324Y-17860508D01*
X22983324Y-17860508D02*
X23002372Y-17850984D01*
X23154753Y-18031936D02*
X23164277Y-18041460D01*
X23164277Y-18041460D02*
X23154753Y-18050984D01*
X23154753Y-18050984D02*
X23145229Y-18041460D01*
X23145229Y-18041460D02*
X23154753Y-18031936D01*
X23154753Y-18031936D02*
X23154753Y-18050984D01*
X23278562Y-17936698D02*
X23259515Y-17927174D01*
X23259515Y-17927174D02*
X23249991Y-17917650D01*
X23249991Y-17917650D02*
X23240467Y-17898603D01*
X23240467Y-17898603D02*
X23240467Y-17889079D01*
X23240467Y-17889079D02*
X23249991Y-17870031D01*
X23249991Y-17870031D02*
X23259515Y-17860508D01*
X23259515Y-17860508D02*
X23278562Y-17850984D01*
X23278562Y-17850984D02*
X23316658Y-17850984D01*
X23316658Y-17850984D02*
X23335705Y-17860508D01*
X23335705Y-17860508D02*
X23345229Y-17870031D01*
X23345229Y-17870031D02*
X23354753Y-17889079D01*
X23354753Y-17889079D02*
X23354753Y-17898603D01*
X23354753Y-17898603D02*
X23345229Y-17917650D01*
X23345229Y-17917650D02*
X23335705Y-17927174D01*
X23335705Y-17927174D02*
X23316658Y-17936698D01*
X23316658Y-17936698D02*
X23278562Y-17936698D01*
X23278562Y-17936698D02*
X23259515Y-17946222D01*
X23259515Y-17946222D02*
X23249991Y-17955746D01*
X23249991Y-17955746D02*
X23240467Y-17974793D01*
X23240467Y-17974793D02*
X23240467Y-18012889D01*
X23240467Y-18012889D02*
X23249991Y-18031936D01*
X23249991Y-18031936D02*
X23259515Y-18041460D01*
X23259515Y-18041460D02*
X23278562Y-18050984D01*
X23278562Y-18050984D02*
X23316658Y-18050984D01*
X23316658Y-18050984D02*
X23335705Y-18041460D01*
X23335705Y-18041460D02*
X23345229Y-18031936D01*
X23345229Y-18031936D02*
X23354753Y-18012889D01*
X23354753Y-18012889D02*
X23354753Y-17974793D01*
X23354753Y-17974793D02*
X23345229Y-17955746D01*
X23345229Y-17955746D02*
X23335705Y-17946222D01*
X23335705Y-17946222D02*
X23316658Y-17936698D01*
X23478562Y-17850984D02*
X23497610Y-17850984D01*
X23497610Y-17850984D02*
X23516658Y-17860508D01*
X23516658Y-17860508D02*
X23526182Y-17870031D01*
X23526182Y-17870031D02*
X23535705Y-17889079D01*
X23535705Y-17889079D02*
X23545229Y-17927174D01*
X23545229Y-17927174D02*
X23545229Y-17974793D01*
X23545229Y-17974793D02*
X23535705Y-18012889D01*
X23535705Y-18012889D02*
X23526182Y-18031936D01*
X23526182Y-18031936D02*
X23516658Y-18041460D01*
X23516658Y-18041460D02*
X23497610Y-18050984D01*
X23497610Y-18050984D02*
X23478562Y-18050984D01*
X23478562Y-18050984D02*
X23459515Y-18041460D01*
X23459515Y-18041460D02*
X23449991Y-18031936D01*
X23449991Y-18031936D02*
X23440467Y-18012889D01*
X23440467Y-18012889D02*
X23430943Y-17974793D01*
X23430943Y-17974793D02*
X23430943Y-17927174D01*
X23430943Y-17927174D02*
X23440467Y-17889079D01*
X23440467Y-17889079D02*
X23449991Y-17870031D01*
X23449991Y-17870031D02*
X23459515Y-17860508D01*
X23459515Y-17860508D02*
X23478562Y-17850984D01*
X23669039Y-17850984D02*
X23688086Y-17850984D01*
X23688086Y-17850984D02*
X23707134Y-17860508D01*
X23707134Y-17860508D02*
X23716658Y-17870031D01*
X23716658Y-17870031D02*
X23726182Y-17889079D01*
X23726182Y-17889079D02*
X23735705Y-17927174D01*
X23735705Y-17927174D02*
X23735705Y-17974793D01*
X23735705Y-17974793D02*
X23726182Y-18012889D01*
X23726182Y-18012889D02*
X23716658Y-18031936D01*
X23716658Y-18031936D02*
X23707134Y-18041460D01*
X23707134Y-18041460D02*
X23688086Y-18050984D01*
X23688086Y-18050984D02*
X23669039Y-18050984D01*
X23669039Y-18050984D02*
X23649991Y-18041460D01*
X23649991Y-18041460D02*
X23640467Y-18031936D01*
X23640467Y-18031936D02*
X23630943Y-18012889D01*
X23630943Y-18012889D02*
X23621420Y-17974793D01*
X23621420Y-17974793D02*
X23621420Y-17927174D01*
X23621420Y-17927174D02*
X23630943Y-17889079D01*
X23630943Y-17889079D02*
X23640467Y-17870031D01*
X23640467Y-17870031D02*
X23649991Y-17860508D01*
X23649991Y-17860508D02*
X23669039Y-17850984D01*
X23821420Y-18050984D02*
X23821420Y-17917650D01*
X23821420Y-17936698D02*
X23830943Y-17927174D01*
X23830943Y-17927174D02*
X23849991Y-17917650D01*
X23849991Y-17917650D02*
X23878563Y-17917650D01*
X23878563Y-17917650D02*
X23897610Y-17927174D01*
X23897610Y-17927174D02*
X23907134Y-17946222D01*
X23907134Y-17946222D02*
X23907134Y-18050984D01*
X23907134Y-17946222D02*
X23916658Y-17927174D01*
X23916658Y-17927174D02*
X23935705Y-17917650D01*
X23935705Y-17917650D02*
X23964277Y-17917650D01*
X23964277Y-17917650D02*
X23983324Y-17927174D01*
X23983324Y-17927174D02*
X23992848Y-17946222D01*
X23992848Y-17946222D02*
X23992848Y-18050984D01*
X24088086Y-18050984D02*
X24088086Y-17917650D01*
X24088086Y-17936698D02*
X24097610Y-17927174D01*
X24097610Y-17927174D02*
X24116658Y-17917650D01*
X24116658Y-17917650D02*
X24145229Y-17917650D01*
X24145229Y-17917650D02*
X24164277Y-17927174D01*
X24164277Y-17927174D02*
X24173801Y-17946222D01*
X24173801Y-17946222D02*
X24173801Y-18050984D01*
X24173801Y-17946222D02*
X24183324Y-17927174D01*
X24183324Y-17927174D02*
X24202372Y-17917650D01*
X24202372Y-17917650D02*
X24230943Y-17917650D01*
X24230943Y-17917650D02*
X24249991Y-17927174D01*
X24249991Y-17927174D02*
X24259515Y-17946222D01*
X24259515Y-17946222D02*
X24259515Y-18050984D01*
X24649991Y-17841460D02*
X24478563Y-18098603D01*
X24907134Y-17850984D02*
X24926182Y-17850984D01*
X24926182Y-17850984D02*
X24945229Y-17860508D01*
X24945229Y-17860508D02*
X24954753Y-17870031D01*
X24954753Y-17870031D02*
X24964277Y-17889079D01*
X24964277Y-17889079D02*
X24973801Y-17927174D01*
X24973801Y-17927174D02*
X24973801Y-17974793D01*
X24973801Y-17974793D02*
X24964277Y-18012889D01*
X24964277Y-18012889D02*
X24954753Y-18031936D01*
X24954753Y-18031936D02*
X24945229Y-18041460D01*
X24945229Y-18041460D02*
X24926182Y-18050984D01*
X24926182Y-18050984D02*
X24907134Y-18050984D01*
X24907134Y-18050984D02*
X24888086Y-18041460D01*
X24888086Y-18041460D02*
X24878563Y-18031936D01*
X24878563Y-18031936D02*
X24869039Y-18012889D01*
X24869039Y-18012889D02*
X24859515Y-17974793D01*
X24859515Y-17974793D02*
X24859515Y-17927174D01*
X24859515Y-17927174D02*
X24869039Y-17889079D01*
X24869039Y-17889079D02*
X24878563Y-17870031D01*
X24878563Y-17870031D02*
X24888086Y-17860508D01*
X24888086Y-17860508D02*
X24907134Y-17850984D01*
X25059515Y-18031936D02*
X25069039Y-18041460D01*
X25069039Y-18041460D02*
X25059515Y-18050984D01*
X25059515Y-18050984D02*
X25049991Y-18041460D01*
X25049991Y-18041460D02*
X25059515Y-18031936D01*
X25059515Y-18031936D02*
X25059515Y-18050984D01*
X25192848Y-17850984D02*
X25211896Y-17850984D01*
X25211896Y-17850984D02*
X25230944Y-17860508D01*
X25230944Y-17860508D02*
X25240467Y-17870031D01*
X25240467Y-17870031D02*
X25249991Y-17889079D01*
X25249991Y-17889079D02*
X25259515Y-17927174D01*
X25259515Y-17927174D02*
X25259515Y-17974793D01*
X25259515Y-17974793D02*
X25249991Y-18012889D01*
X25249991Y-18012889D02*
X25240467Y-18031936D01*
X25240467Y-18031936D02*
X25230944Y-18041460D01*
X25230944Y-18041460D02*
X25211896Y-18050984D01*
X25211896Y-18050984D02*
X25192848Y-18050984D01*
X25192848Y-18050984D02*
X25173801Y-18041460D01*
X25173801Y-18041460D02*
X25164277Y-18031936D01*
X25164277Y-18031936D02*
X25154753Y-18012889D01*
X25154753Y-18012889D02*
X25145229Y-17974793D01*
X25145229Y-17974793D02*
X25145229Y-17927174D01*
X25145229Y-17927174D02*
X25154753Y-17889079D01*
X25154753Y-17889079D02*
X25164277Y-17870031D01*
X25164277Y-17870031D02*
X25173801Y-17860508D01*
X25173801Y-17860508D02*
X25192848Y-17850984D01*
X25326182Y-17850984D02*
X25449991Y-17850984D01*
X25449991Y-17850984D02*
X25383325Y-17927174D01*
X25383325Y-17927174D02*
X25411896Y-17927174D01*
X25411896Y-17927174D02*
X25430944Y-17936698D01*
X25430944Y-17936698D02*
X25440467Y-17946222D01*
X25440467Y-17946222D02*
X25449991Y-17965270D01*
X25449991Y-17965270D02*
X25449991Y-18012889D01*
X25449991Y-18012889D02*
X25440467Y-18031936D01*
X25440467Y-18031936D02*
X25430944Y-18041460D01*
X25430944Y-18041460D02*
X25411896Y-18050984D01*
X25411896Y-18050984D02*
X25354753Y-18050984D01*
X25354753Y-18050984D02*
X25335706Y-18041460D01*
X25335706Y-18041460D02*
X25326182Y-18031936D01*
X25640467Y-18050984D02*
X25526182Y-18050984D01*
X25583325Y-18050984D02*
X25583325Y-17850984D01*
X25583325Y-17850984D02*
X25564277Y-17879555D01*
X25564277Y-17879555D02*
X25545229Y-17898603D01*
X25545229Y-17898603D02*
X25526182Y-17908127D01*
X25821420Y-17850984D02*
X25726182Y-17850984D01*
X25726182Y-17850984D02*
X25716658Y-17946222D01*
X25716658Y-17946222D02*
X25726182Y-17936698D01*
X25726182Y-17936698D02*
X25745229Y-17927174D01*
X25745229Y-17927174D02*
X25792848Y-17927174D01*
X25792848Y-17927174D02*
X25811896Y-17936698D01*
X25811896Y-17936698D02*
X25821420Y-17946222D01*
X25821420Y-17946222D02*
X25830944Y-17965270D01*
X25830944Y-17965270D02*
X25830944Y-18012889D01*
X25830944Y-18012889D02*
X25821420Y-18031936D01*
X25821420Y-18031936D02*
X25811896Y-18041460D01*
X25811896Y-18041460D02*
X25792848Y-18050984D01*
X25792848Y-18050984D02*
X25745229Y-18050984D01*
X25745229Y-18050984D02*
X25726182Y-18041460D01*
X25726182Y-18041460D02*
X25716658Y-18031936D01*
X25907134Y-17850984D02*
X25907134Y-17889079D01*
X25983325Y-17850984D02*
X25983325Y-17889079D01*
X26278563Y-18127174D02*
X26269039Y-18117650D01*
X26269039Y-18117650D02*
X26249991Y-18089079D01*
X26249991Y-18089079D02*
X26240468Y-18070031D01*
X26240468Y-18070031D02*
X26230944Y-18041460D01*
X26230944Y-18041460D02*
X26221420Y-17993841D01*
X26221420Y-17993841D02*
X26221420Y-17955746D01*
X26221420Y-17955746D02*
X26230944Y-17908127D01*
X26230944Y-17908127D02*
X26240468Y-17879555D01*
X26240468Y-17879555D02*
X26249991Y-17860508D01*
X26249991Y-17860508D02*
X26269039Y-17831936D01*
X26269039Y-17831936D02*
X26278563Y-17822412D01*
X26459515Y-18050984D02*
X26345229Y-18050984D01*
X26402372Y-18050984D02*
X26402372Y-17850984D01*
X26402372Y-17850984D02*
X26383325Y-17879555D01*
X26383325Y-17879555D02*
X26364277Y-17898603D01*
X26364277Y-17898603D02*
X26345229Y-17908127D01*
X26526182Y-17850984D02*
X26659515Y-17850984D01*
X26659515Y-17850984D02*
X26573801Y-18050984D01*
X26821420Y-17917650D02*
X26821420Y-18050984D01*
X26773801Y-17841460D02*
X26726182Y-17984317D01*
X26726182Y-17984317D02*
X26849991Y-17984317D01*
X27078563Y-18050984D02*
X27078563Y-17850984D01*
X27164277Y-18050984D02*
X27164277Y-17946222D01*
X27164277Y-17946222D02*
X27154753Y-17927174D01*
X27154753Y-17927174D02*
X27135706Y-17917650D01*
X27135706Y-17917650D02*
X27107134Y-17917650D01*
X27107134Y-17917650D02*
X27088087Y-17927174D01*
X27088087Y-17927174D02*
X27078563Y-17936698D01*
X27288087Y-18050984D02*
X27269039Y-18041460D01*
X27269039Y-18041460D02*
X27259515Y-18031936D01*
X27259515Y-18031936D02*
X27249991Y-18012889D01*
X27249991Y-18012889D02*
X27249991Y-17955746D01*
X27249991Y-17955746D02*
X27259515Y-17936698D01*
X27259515Y-17936698D02*
X27269039Y-17927174D01*
X27269039Y-17927174D02*
X27288087Y-17917650D01*
X27288087Y-17917650D02*
X27316658Y-17917650D01*
X27316658Y-17917650D02*
X27335706Y-17927174D01*
X27335706Y-17927174D02*
X27345230Y-17936698D01*
X27345230Y-17936698D02*
X27354753Y-17955746D01*
X27354753Y-17955746D02*
X27354753Y-18012889D01*
X27354753Y-18012889D02*
X27345230Y-18031936D01*
X27345230Y-18031936D02*
X27335706Y-18041460D01*
X27335706Y-18041460D02*
X27316658Y-18050984D01*
X27316658Y-18050984D02*
X27288087Y-18050984D01*
X27469039Y-18050984D02*
X27449991Y-18041460D01*
X27449991Y-18041460D02*
X27440468Y-18022412D01*
X27440468Y-18022412D02*
X27440468Y-17850984D01*
X27621420Y-18041460D02*
X27602372Y-18050984D01*
X27602372Y-18050984D02*
X27564277Y-18050984D01*
X27564277Y-18050984D02*
X27545230Y-18041460D01*
X27545230Y-18041460D02*
X27535706Y-18022412D01*
X27535706Y-18022412D02*
X27535706Y-17946222D01*
X27535706Y-17946222D02*
X27545230Y-17927174D01*
X27545230Y-17927174D02*
X27564277Y-17917650D01*
X27564277Y-17917650D02*
X27602372Y-17917650D01*
X27602372Y-17917650D02*
X27621420Y-17927174D01*
X27621420Y-17927174D02*
X27630944Y-17946222D01*
X27630944Y-17946222D02*
X27630944Y-17965270D01*
X27630944Y-17965270D02*
X27535706Y-17984317D01*
X27707134Y-18041460D02*
X27726182Y-18050984D01*
X27726182Y-18050984D02*
X27764277Y-18050984D01*
X27764277Y-18050984D02*
X27783325Y-18041460D01*
X27783325Y-18041460D02*
X27792849Y-18022412D01*
X27792849Y-18022412D02*
X27792849Y-18012889D01*
X27792849Y-18012889D02*
X27783325Y-17993841D01*
X27783325Y-17993841D02*
X27764277Y-17984317D01*
X27764277Y-17984317D02*
X27735706Y-17984317D01*
X27735706Y-17984317D02*
X27716658Y-17974793D01*
X27716658Y-17974793D02*
X27707134Y-17955746D01*
X27707134Y-17955746D02*
X27707134Y-17946222D01*
X27707134Y-17946222D02*
X27716658Y-17927174D01*
X27716658Y-17927174D02*
X27735706Y-17917650D01*
X27735706Y-17917650D02*
X27764277Y-17917650D01*
X27764277Y-17917650D02*
X27783325Y-17927174D01*
X27859515Y-18127174D02*
X27869039Y-18117650D01*
X27869039Y-18117650D02*
X27888087Y-18089079D01*
X27888087Y-18089079D02*
X27897611Y-18070031D01*
X27897611Y-18070031D02*
X27907134Y-18041460D01*
X27907134Y-18041460D02*
X27916658Y-17993841D01*
X27916658Y-17993841D02*
X27916658Y-17955746D01*
X27916658Y-17955746D02*
X27907134Y-17908127D01*
X27907134Y-17908127D02*
X27897611Y-17879555D01*
X27897611Y-17879555D02*
X27888087Y-17860508D01*
X27888087Y-17860508D02*
X27869039Y-17831936D01*
X27869039Y-17831936D02*
X27859515Y-17822412D01*
D12*
X22688856Y-18258856D02*
X22688856Y-18188144D01*
X22618144Y-18188144D01*
X22618144Y-18258856D01*
X22688856Y-18258856D01*
D11*
X23069039Y-18314984D02*
X22954753Y-18314984D01*
X23011896Y-18314984D02*
X23011896Y-18114984D01*
X23011896Y-18114984D02*
X22992848Y-18143555D01*
X22992848Y-18143555D02*
X22973801Y-18162603D01*
X22973801Y-18162603D02*
X22954753Y-18172127D01*
X23154753Y-18295936D02*
X23164277Y-18305460D01*
X23164277Y-18305460D02*
X23154753Y-18314984D01*
X23154753Y-18314984D02*
X23145229Y-18305460D01*
X23145229Y-18305460D02*
X23154753Y-18295936D01*
X23154753Y-18295936D02*
X23154753Y-18314984D01*
X23288086Y-18114984D02*
X23307134Y-18114984D01*
X23307134Y-18114984D02*
X23326182Y-18124508D01*
X23326182Y-18124508D02*
X23335705Y-18134031D01*
X23335705Y-18134031D02*
X23345229Y-18153079D01*
X23345229Y-18153079D02*
X23354753Y-18191174D01*
X23354753Y-18191174D02*
X23354753Y-18238793D01*
X23354753Y-18238793D02*
X23345229Y-18276889D01*
X23345229Y-18276889D02*
X23335705Y-18295936D01*
X23335705Y-18295936D02*
X23326182Y-18305460D01*
X23326182Y-18305460D02*
X23307134Y-18314984D01*
X23307134Y-18314984D02*
X23288086Y-18314984D01*
X23288086Y-18314984D02*
X23269039Y-18305460D01*
X23269039Y-18305460D02*
X23259515Y-18295936D01*
X23259515Y-18295936D02*
X23249991Y-18276889D01*
X23249991Y-18276889D02*
X23240467Y-18238793D01*
X23240467Y-18238793D02*
X23240467Y-18191174D01*
X23240467Y-18191174D02*
X23249991Y-18153079D01*
X23249991Y-18153079D02*
X23259515Y-18134031D01*
X23259515Y-18134031D02*
X23269039Y-18124508D01*
X23269039Y-18124508D02*
X23288086Y-18114984D01*
X23478562Y-18114984D02*
X23497610Y-18114984D01*
X23497610Y-18114984D02*
X23516658Y-18124508D01*
X23516658Y-18124508D02*
X23526182Y-18134031D01*
X23526182Y-18134031D02*
X23535705Y-18153079D01*
X23535705Y-18153079D02*
X23545229Y-18191174D01*
X23545229Y-18191174D02*
X23545229Y-18238793D01*
X23545229Y-18238793D02*
X23535705Y-18276889D01*
X23535705Y-18276889D02*
X23526182Y-18295936D01*
X23526182Y-18295936D02*
X23516658Y-18305460D01*
X23516658Y-18305460D02*
X23497610Y-18314984D01*
X23497610Y-18314984D02*
X23478562Y-18314984D01*
X23478562Y-18314984D02*
X23459515Y-18305460D01*
X23459515Y-18305460D02*
X23449991Y-18295936D01*
X23449991Y-18295936D02*
X23440467Y-18276889D01*
X23440467Y-18276889D02*
X23430943Y-18238793D01*
X23430943Y-18238793D02*
X23430943Y-18191174D01*
X23430943Y-18191174D02*
X23440467Y-18153079D01*
X23440467Y-18153079D02*
X23449991Y-18134031D01*
X23449991Y-18134031D02*
X23459515Y-18124508D01*
X23459515Y-18124508D02*
X23478562Y-18114984D01*
X23669039Y-18114984D02*
X23688086Y-18114984D01*
X23688086Y-18114984D02*
X23707134Y-18124508D01*
X23707134Y-18124508D02*
X23716658Y-18134031D01*
X23716658Y-18134031D02*
X23726182Y-18153079D01*
X23726182Y-18153079D02*
X23735705Y-18191174D01*
X23735705Y-18191174D02*
X23735705Y-18238793D01*
X23735705Y-18238793D02*
X23726182Y-18276889D01*
X23726182Y-18276889D02*
X23716658Y-18295936D01*
X23716658Y-18295936D02*
X23707134Y-18305460D01*
X23707134Y-18305460D02*
X23688086Y-18314984D01*
X23688086Y-18314984D02*
X23669039Y-18314984D01*
X23669039Y-18314984D02*
X23649991Y-18305460D01*
X23649991Y-18305460D02*
X23640467Y-18295936D01*
X23640467Y-18295936D02*
X23630943Y-18276889D01*
X23630943Y-18276889D02*
X23621420Y-18238793D01*
X23621420Y-18238793D02*
X23621420Y-18191174D01*
X23621420Y-18191174D02*
X23630943Y-18153079D01*
X23630943Y-18153079D02*
X23640467Y-18134031D01*
X23640467Y-18134031D02*
X23649991Y-18124508D01*
X23649991Y-18124508D02*
X23669039Y-18114984D01*
X23821420Y-18314984D02*
X23821420Y-18181650D01*
X23821420Y-18200698D02*
X23830943Y-18191174D01*
X23830943Y-18191174D02*
X23849991Y-18181650D01*
X23849991Y-18181650D02*
X23878563Y-18181650D01*
X23878563Y-18181650D02*
X23897610Y-18191174D01*
X23897610Y-18191174D02*
X23907134Y-18210222D01*
X23907134Y-18210222D02*
X23907134Y-18314984D01*
X23907134Y-18210222D02*
X23916658Y-18191174D01*
X23916658Y-18191174D02*
X23935705Y-18181650D01*
X23935705Y-18181650D02*
X23964277Y-18181650D01*
X23964277Y-18181650D02*
X23983324Y-18191174D01*
X23983324Y-18191174D02*
X23992848Y-18210222D01*
X23992848Y-18210222D02*
X23992848Y-18314984D01*
X24088086Y-18314984D02*
X24088086Y-18181650D01*
X24088086Y-18200698D02*
X24097610Y-18191174D01*
X24097610Y-18191174D02*
X24116658Y-18181650D01*
X24116658Y-18181650D02*
X24145229Y-18181650D01*
X24145229Y-18181650D02*
X24164277Y-18191174D01*
X24164277Y-18191174D02*
X24173801Y-18210222D01*
X24173801Y-18210222D02*
X24173801Y-18314984D01*
X24173801Y-18210222D02*
X24183324Y-18191174D01*
X24183324Y-18191174D02*
X24202372Y-18181650D01*
X24202372Y-18181650D02*
X24230943Y-18181650D01*
X24230943Y-18181650D02*
X24249991Y-18191174D01*
X24249991Y-18191174D02*
X24259515Y-18210222D01*
X24259515Y-18210222D02*
X24259515Y-18314984D01*
X24649991Y-18105460D02*
X24478563Y-18362603D01*
X24907134Y-18114984D02*
X24926182Y-18114984D01*
X24926182Y-18114984D02*
X24945229Y-18124508D01*
X24945229Y-18124508D02*
X24954753Y-18134031D01*
X24954753Y-18134031D02*
X24964277Y-18153079D01*
X24964277Y-18153079D02*
X24973801Y-18191174D01*
X24973801Y-18191174D02*
X24973801Y-18238793D01*
X24973801Y-18238793D02*
X24964277Y-18276889D01*
X24964277Y-18276889D02*
X24954753Y-18295936D01*
X24954753Y-18295936D02*
X24945229Y-18305460D01*
X24945229Y-18305460D02*
X24926182Y-18314984D01*
X24926182Y-18314984D02*
X24907134Y-18314984D01*
X24907134Y-18314984D02*
X24888086Y-18305460D01*
X24888086Y-18305460D02*
X24878563Y-18295936D01*
X24878563Y-18295936D02*
X24869039Y-18276889D01*
X24869039Y-18276889D02*
X24859515Y-18238793D01*
X24859515Y-18238793D02*
X24859515Y-18191174D01*
X24859515Y-18191174D02*
X24869039Y-18153079D01*
X24869039Y-18153079D02*
X24878563Y-18134031D01*
X24878563Y-18134031D02*
X24888086Y-18124508D01*
X24888086Y-18124508D02*
X24907134Y-18114984D01*
X25059515Y-18295936D02*
X25069039Y-18305460D01*
X25069039Y-18305460D02*
X25059515Y-18314984D01*
X25059515Y-18314984D02*
X25049991Y-18305460D01*
X25049991Y-18305460D02*
X25059515Y-18295936D01*
X25059515Y-18295936D02*
X25059515Y-18314984D01*
X25192848Y-18114984D02*
X25211896Y-18114984D01*
X25211896Y-18114984D02*
X25230944Y-18124508D01*
X25230944Y-18124508D02*
X25240467Y-18134031D01*
X25240467Y-18134031D02*
X25249991Y-18153079D01*
X25249991Y-18153079D02*
X25259515Y-18191174D01*
X25259515Y-18191174D02*
X25259515Y-18238793D01*
X25259515Y-18238793D02*
X25249991Y-18276889D01*
X25249991Y-18276889D02*
X25240467Y-18295936D01*
X25240467Y-18295936D02*
X25230944Y-18305460D01*
X25230944Y-18305460D02*
X25211896Y-18314984D01*
X25211896Y-18314984D02*
X25192848Y-18314984D01*
X25192848Y-18314984D02*
X25173801Y-18305460D01*
X25173801Y-18305460D02*
X25164277Y-18295936D01*
X25164277Y-18295936D02*
X25154753Y-18276889D01*
X25154753Y-18276889D02*
X25145229Y-18238793D01*
X25145229Y-18238793D02*
X25145229Y-18191174D01*
X25145229Y-18191174D02*
X25154753Y-18153079D01*
X25154753Y-18153079D02*
X25164277Y-18134031D01*
X25164277Y-18134031D02*
X25173801Y-18124508D01*
X25173801Y-18124508D02*
X25192848Y-18114984D01*
X25326182Y-18114984D02*
X25449991Y-18114984D01*
X25449991Y-18114984D02*
X25383325Y-18191174D01*
X25383325Y-18191174D02*
X25411896Y-18191174D01*
X25411896Y-18191174D02*
X25430944Y-18200698D01*
X25430944Y-18200698D02*
X25440467Y-18210222D01*
X25440467Y-18210222D02*
X25449991Y-18229270D01*
X25449991Y-18229270D02*
X25449991Y-18276889D01*
X25449991Y-18276889D02*
X25440467Y-18295936D01*
X25440467Y-18295936D02*
X25430944Y-18305460D01*
X25430944Y-18305460D02*
X25411896Y-18314984D01*
X25411896Y-18314984D02*
X25354753Y-18314984D01*
X25354753Y-18314984D02*
X25335706Y-18305460D01*
X25335706Y-18305460D02*
X25326182Y-18295936D01*
X25545229Y-18314984D02*
X25583325Y-18314984D01*
X25583325Y-18314984D02*
X25602372Y-18305460D01*
X25602372Y-18305460D02*
X25611896Y-18295936D01*
X25611896Y-18295936D02*
X25630944Y-18267365D01*
X25630944Y-18267365D02*
X25640467Y-18229270D01*
X25640467Y-18229270D02*
X25640467Y-18153079D01*
X25640467Y-18153079D02*
X25630944Y-18134031D01*
X25630944Y-18134031D02*
X25621420Y-18124508D01*
X25621420Y-18124508D02*
X25602372Y-18114984D01*
X25602372Y-18114984D02*
X25564277Y-18114984D01*
X25564277Y-18114984D02*
X25545229Y-18124508D01*
X25545229Y-18124508D02*
X25535706Y-18134031D01*
X25535706Y-18134031D02*
X25526182Y-18153079D01*
X25526182Y-18153079D02*
X25526182Y-18200698D01*
X25526182Y-18200698D02*
X25535706Y-18219746D01*
X25535706Y-18219746D02*
X25545229Y-18229270D01*
X25545229Y-18229270D02*
X25564277Y-18238793D01*
X25564277Y-18238793D02*
X25602372Y-18238793D01*
X25602372Y-18238793D02*
X25621420Y-18229270D01*
X25621420Y-18229270D02*
X25630944Y-18219746D01*
X25630944Y-18219746D02*
X25640467Y-18200698D01*
X25811896Y-18181650D02*
X25811896Y-18314984D01*
X25764277Y-18105460D02*
X25716658Y-18248317D01*
X25716658Y-18248317D02*
X25840467Y-18248317D01*
X25907134Y-18114984D02*
X25907134Y-18153079D01*
X25983325Y-18114984D02*
X25983325Y-18153079D01*
X26278563Y-18391174D02*
X26269039Y-18381650D01*
X26269039Y-18381650D02*
X26249991Y-18353079D01*
X26249991Y-18353079D02*
X26240468Y-18334031D01*
X26240468Y-18334031D02*
X26230944Y-18305460D01*
X26230944Y-18305460D02*
X26221420Y-18257841D01*
X26221420Y-18257841D02*
X26221420Y-18219746D01*
X26221420Y-18219746D02*
X26230944Y-18172127D01*
X26230944Y-18172127D02*
X26240468Y-18143555D01*
X26240468Y-18143555D02*
X26249991Y-18124508D01*
X26249991Y-18124508D02*
X26269039Y-18095936D01*
X26269039Y-18095936D02*
X26278563Y-18086412D01*
X26383325Y-18200698D02*
X26364277Y-18191174D01*
X26364277Y-18191174D02*
X26354753Y-18181650D01*
X26354753Y-18181650D02*
X26345229Y-18162603D01*
X26345229Y-18162603D02*
X26345229Y-18153079D01*
X26345229Y-18153079D02*
X26354753Y-18134031D01*
X26354753Y-18134031D02*
X26364277Y-18124508D01*
X26364277Y-18124508D02*
X26383325Y-18114984D01*
X26383325Y-18114984D02*
X26421420Y-18114984D01*
X26421420Y-18114984D02*
X26440468Y-18124508D01*
X26440468Y-18124508D02*
X26449991Y-18134031D01*
X26449991Y-18134031D02*
X26459515Y-18153079D01*
X26459515Y-18153079D02*
X26459515Y-18162603D01*
X26459515Y-18162603D02*
X26449991Y-18181650D01*
X26449991Y-18181650D02*
X26440468Y-18191174D01*
X26440468Y-18191174D02*
X26421420Y-18200698D01*
X26421420Y-18200698D02*
X26383325Y-18200698D01*
X26383325Y-18200698D02*
X26364277Y-18210222D01*
X26364277Y-18210222D02*
X26354753Y-18219746D01*
X26354753Y-18219746D02*
X26345229Y-18238793D01*
X26345229Y-18238793D02*
X26345229Y-18276889D01*
X26345229Y-18276889D02*
X26354753Y-18295936D01*
X26354753Y-18295936D02*
X26364277Y-18305460D01*
X26364277Y-18305460D02*
X26383325Y-18314984D01*
X26383325Y-18314984D02*
X26421420Y-18314984D01*
X26421420Y-18314984D02*
X26440468Y-18305460D01*
X26440468Y-18305460D02*
X26449991Y-18295936D01*
X26449991Y-18295936D02*
X26459515Y-18276889D01*
X26459515Y-18276889D02*
X26459515Y-18238793D01*
X26459515Y-18238793D02*
X26449991Y-18219746D01*
X26449991Y-18219746D02*
X26440468Y-18210222D01*
X26440468Y-18210222D02*
X26421420Y-18200698D01*
X26526182Y-18114984D02*
X26649991Y-18114984D01*
X26649991Y-18114984D02*
X26583325Y-18191174D01*
X26583325Y-18191174D02*
X26611896Y-18191174D01*
X26611896Y-18191174D02*
X26630944Y-18200698D01*
X26630944Y-18200698D02*
X26640468Y-18210222D01*
X26640468Y-18210222D02*
X26649991Y-18229270D01*
X26649991Y-18229270D02*
X26649991Y-18276889D01*
X26649991Y-18276889D02*
X26640468Y-18295936D01*
X26640468Y-18295936D02*
X26630944Y-18305460D01*
X26630944Y-18305460D02*
X26611896Y-18314984D01*
X26611896Y-18314984D02*
X26554753Y-18314984D01*
X26554753Y-18314984D02*
X26535706Y-18305460D01*
X26535706Y-18305460D02*
X26526182Y-18295936D01*
X26888087Y-18314984D02*
X26888087Y-18114984D01*
X26973801Y-18314984D02*
X26973801Y-18210222D01*
X26973801Y-18210222D02*
X26964277Y-18191174D01*
X26964277Y-18191174D02*
X26945230Y-18181650D01*
X26945230Y-18181650D02*
X26916658Y-18181650D01*
X26916658Y-18181650D02*
X26897610Y-18191174D01*
X26897610Y-18191174D02*
X26888087Y-18200698D01*
X27097610Y-18314984D02*
X27078563Y-18305460D01*
X27078563Y-18305460D02*
X27069039Y-18295936D01*
X27069039Y-18295936D02*
X27059515Y-18276889D01*
X27059515Y-18276889D02*
X27059515Y-18219746D01*
X27059515Y-18219746D02*
X27069039Y-18200698D01*
X27069039Y-18200698D02*
X27078563Y-18191174D01*
X27078563Y-18191174D02*
X27097610Y-18181650D01*
X27097610Y-18181650D02*
X27126182Y-18181650D01*
X27126182Y-18181650D02*
X27145230Y-18191174D01*
X27145230Y-18191174D02*
X27154753Y-18200698D01*
X27154753Y-18200698D02*
X27164277Y-18219746D01*
X27164277Y-18219746D02*
X27164277Y-18276889D01*
X27164277Y-18276889D02*
X27154753Y-18295936D01*
X27154753Y-18295936D02*
X27145230Y-18305460D01*
X27145230Y-18305460D02*
X27126182Y-18314984D01*
X27126182Y-18314984D02*
X27097610Y-18314984D01*
X27278563Y-18314984D02*
X27259515Y-18305460D01*
X27259515Y-18305460D02*
X27249991Y-18286412D01*
X27249991Y-18286412D02*
X27249991Y-18114984D01*
X27430944Y-18305460D02*
X27411896Y-18314984D01*
X27411896Y-18314984D02*
X27373801Y-18314984D01*
X27373801Y-18314984D02*
X27354753Y-18305460D01*
X27354753Y-18305460D02*
X27345230Y-18286412D01*
X27345230Y-18286412D02*
X27345230Y-18210222D01*
X27345230Y-18210222D02*
X27354753Y-18191174D01*
X27354753Y-18191174D02*
X27373801Y-18181650D01*
X27373801Y-18181650D02*
X27411896Y-18181650D01*
X27411896Y-18181650D02*
X27430944Y-18191174D01*
X27430944Y-18191174D02*
X27440468Y-18210222D01*
X27440468Y-18210222D02*
X27440468Y-18229270D01*
X27440468Y-18229270D02*
X27345230Y-18248317D01*
X27516658Y-18305460D02*
X27535706Y-18314984D01*
X27535706Y-18314984D02*
X27573801Y-18314984D01*
X27573801Y-18314984D02*
X27592849Y-18305460D01*
X27592849Y-18305460D02*
X27602372Y-18286412D01*
X27602372Y-18286412D02*
X27602372Y-18276889D01*
X27602372Y-18276889D02*
X27592849Y-18257841D01*
X27592849Y-18257841D02*
X27573801Y-18248317D01*
X27573801Y-18248317D02*
X27545230Y-18248317D01*
X27545230Y-18248317D02*
X27526182Y-18238793D01*
X27526182Y-18238793D02*
X27516658Y-18219746D01*
X27516658Y-18219746D02*
X27516658Y-18210222D01*
X27516658Y-18210222D02*
X27526182Y-18191174D01*
X27526182Y-18191174D02*
X27545230Y-18181650D01*
X27545230Y-18181650D02*
X27573801Y-18181650D01*
X27573801Y-18181650D02*
X27592849Y-18191174D01*
X27669039Y-18391174D02*
X27678563Y-18381650D01*
X27678563Y-18381650D02*
X27697611Y-18353079D01*
X27697611Y-18353079D02*
X27707134Y-18334031D01*
X27707134Y-18334031D02*
X27716658Y-18305460D01*
X27716658Y-18305460D02*
X27726182Y-18257841D01*
X27726182Y-18257841D02*
X27726182Y-18219746D01*
X27726182Y-18219746D02*
X27716658Y-18172127D01*
X27716658Y-18172127D02*
X27707134Y-18143555D01*
X27707134Y-18143555D02*
X27697611Y-18124508D01*
X27697611Y-18124508D02*
X27678563Y-18095936D01*
X27678563Y-18095936D02*
X27669039Y-18086412D01*
D13*
X22643500Y-18547500D02*
X22703500Y-18487500D01*
X22643500Y-18427500D01*
X22583500Y-18487500D01*
X22643500Y-18547500D01*
D11*
X23069039Y-18578984D02*
X22954753Y-18578984D01*
X23011896Y-18578984D02*
X23011896Y-18378984D01*
X23011896Y-18378984D02*
X22992848Y-18407555D01*
X22992848Y-18407555D02*
X22973801Y-18426603D01*
X22973801Y-18426603D02*
X22954753Y-18436127D01*
X23154753Y-18559936D02*
X23164277Y-18569460D01*
X23164277Y-18569460D02*
X23154753Y-18578984D01*
X23154753Y-18578984D02*
X23145229Y-18569460D01*
X23145229Y-18569460D02*
X23154753Y-18559936D01*
X23154753Y-18559936D02*
X23154753Y-18578984D01*
X23240467Y-18398031D02*
X23249991Y-18388508D01*
X23249991Y-18388508D02*
X23269039Y-18378984D01*
X23269039Y-18378984D02*
X23316658Y-18378984D01*
X23316658Y-18378984D02*
X23335705Y-18388508D01*
X23335705Y-18388508D02*
X23345229Y-18398031D01*
X23345229Y-18398031D02*
X23354753Y-18417079D01*
X23354753Y-18417079D02*
X23354753Y-18436127D01*
X23354753Y-18436127D02*
X23345229Y-18464698D01*
X23345229Y-18464698D02*
X23230943Y-18578984D01*
X23230943Y-18578984D02*
X23354753Y-18578984D01*
X23478562Y-18378984D02*
X23497610Y-18378984D01*
X23497610Y-18378984D02*
X23516658Y-18388508D01*
X23516658Y-18388508D02*
X23526182Y-18398031D01*
X23526182Y-18398031D02*
X23535705Y-18417079D01*
X23535705Y-18417079D02*
X23545229Y-18455174D01*
X23545229Y-18455174D02*
X23545229Y-18502793D01*
X23545229Y-18502793D02*
X23535705Y-18540889D01*
X23535705Y-18540889D02*
X23526182Y-18559936D01*
X23526182Y-18559936D02*
X23516658Y-18569460D01*
X23516658Y-18569460D02*
X23497610Y-18578984D01*
X23497610Y-18578984D02*
X23478562Y-18578984D01*
X23478562Y-18578984D02*
X23459515Y-18569460D01*
X23459515Y-18569460D02*
X23449991Y-18559936D01*
X23449991Y-18559936D02*
X23440467Y-18540889D01*
X23440467Y-18540889D02*
X23430943Y-18502793D01*
X23430943Y-18502793D02*
X23430943Y-18455174D01*
X23430943Y-18455174D02*
X23440467Y-18417079D01*
X23440467Y-18417079D02*
X23449991Y-18398031D01*
X23449991Y-18398031D02*
X23459515Y-18388508D01*
X23459515Y-18388508D02*
X23478562Y-18378984D01*
X23669039Y-18378984D02*
X23688086Y-18378984D01*
X23688086Y-18378984D02*
X23707134Y-18388508D01*
X23707134Y-18388508D02*
X23716658Y-18398031D01*
X23716658Y-18398031D02*
X23726182Y-18417079D01*
X23726182Y-18417079D02*
X23735705Y-18455174D01*
X23735705Y-18455174D02*
X23735705Y-18502793D01*
X23735705Y-18502793D02*
X23726182Y-18540889D01*
X23726182Y-18540889D02*
X23716658Y-18559936D01*
X23716658Y-18559936D02*
X23707134Y-18569460D01*
X23707134Y-18569460D02*
X23688086Y-18578984D01*
X23688086Y-18578984D02*
X23669039Y-18578984D01*
X23669039Y-18578984D02*
X23649991Y-18569460D01*
X23649991Y-18569460D02*
X23640467Y-18559936D01*
X23640467Y-18559936D02*
X23630943Y-18540889D01*
X23630943Y-18540889D02*
X23621420Y-18502793D01*
X23621420Y-18502793D02*
X23621420Y-18455174D01*
X23621420Y-18455174D02*
X23630943Y-18417079D01*
X23630943Y-18417079D02*
X23640467Y-18398031D01*
X23640467Y-18398031D02*
X23649991Y-18388508D01*
X23649991Y-18388508D02*
X23669039Y-18378984D01*
X23821420Y-18578984D02*
X23821420Y-18445650D01*
X23821420Y-18464698D02*
X23830943Y-18455174D01*
X23830943Y-18455174D02*
X23849991Y-18445650D01*
X23849991Y-18445650D02*
X23878563Y-18445650D01*
X23878563Y-18445650D02*
X23897610Y-18455174D01*
X23897610Y-18455174D02*
X23907134Y-18474222D01*
X23907134Y-18474222D02*
X23907134Y-18578984D01*
X23907134Y-18474222D02*
X23916658Y-18455174D01*
X23916658Y-18455174D02*
X23935705Y-18445650D01*
X23935705Y-18445650D02*
X23964277Y-18445650D01*
X23964277Y-18445650D02*
X23983324Y-18455174D01*
X23983324Y-18455174D02*
X23992848Y-18474222D01*
X23992848Y-18474222D02*
X23992848Y-18578984D01*
X24088086Y-18578984D02*
X24088086Y-18445650D01*
X24088086Y-18464698D02*
X24097610Y-18455174D01*
X24097610Y-18455174D02*
X24116658Y-18445650D01*
X24116658Y-18445650D02*
X24145229Y-18445650D01*
X24145229Y-18445650D02*
X24164277Y-18455174D01*
X24164277Y-18455174D02*
X24173801Y-18474222D01*
X24173801Y-18474222D02*
X24173801Y-18578984D01*
X24173801Y-18474222D02*
X24183324Y-18455174D01*
X24183324Y-18455174D02*
X24202372Y-18445650D01*
X24202372Y-18445650D02*
X24230943Y-18445650D01*
X24230943Y-18445650D02*
X24249991Y-18455174D01*
X24249991Y-18455174D02*
X24259515Y-18474222D01*
X24259515Y-18474222D02*
X24259515Y-18578984D01*
X24649991Y-18369460D02*
X24478563Y-18626603D01*
X24907134Y-18378984D02*
X24926182Y-18378984D01*
X24926182Y-18378984D02*
X24945229Y-18388508D01*
X24945229Y-18388508D02*
X24954753Y-18398031D01*
X24954753Y-18398031D02*
X24964277Y-18417079D01*
X24964277Y-18417079D02*
X24973801Y-18455174D01*
X24973801Y-18455174D02*
X24973801Y-18502793D01*
X24973801Y-18502793D02*
X24964277Y-18540889D01*
X24964277Y-18540889D02*
X24954753Y-18559936D01*
X24954753Y-18559936D02*
X24945229Y-18569460D01*
X24945229Y-18569460D02*
X24926182Y-18578984D01*
X24926182Y-18578984D02*
X24907134Y-18578984D01*
X24907134Y-18578984D02*
X24888086Y-18569460D01*
X24888086Y-18569460D02*
X24878563Y-18559936D01*
X24878563Y-18559936D02*
X24869039Y-18540889D01*
X24869039Y-18540889D02*
X24859515Y-18502793D01*
X24859515Y-18502793D02*
X24859515Y-18455174D01*
X24859515Y-18455174D02*
X24869039Y-18417079D01*
X24869039Y-18417079D02*
X24878563Y-18398031D01*
X24878563Y-18398031D02*
X24888086Y-18388508D01*
X24888086Y-18388508D02*
X24907134Y-18378984D01*
X25059515Y-18559936D02*
X25069039Y-18569460D01*
X25069039Y-18569460D02*
X25059515Y-18578984D01*
X25059515Y-18578984D02*
X25049991Y-18569460D01*
X25049991Y-18569460D02*
X25059515Y-18559936D01*
X25059515Y-18559936D02*
X25059515Y-18578984D01*
X25192848Y-18378984D02*
X25211896Y-18378984D01*
X25211896Y-18378984D02*
X25230944Y-18388508D01*
X25230944Y-18388508D02*
X25240467Y-18398031D01*
X25240467Y-18398031D02*
X25249991Y-18417079D01*
X25249991Y-18417079D02*
X25259515Y-18455174D01*
X25259515Y-18455174D02*
X25259515Y-18502793D01*
X25259515Y-18502793D02*
X25249991Y-18540889D01*
X25249991Y-18540889D02*
X25240467Y-18559936D01*
X25240467Y-18559936D02*
X25230944Y-18569460D01*
X25230944Y-18569460D02*
X25211896Y-18578984D01*
X25211896Y-18578984D02*
X25192848Y-18578984D01*
X25192848Y-18578984D02*
X25173801Y-18569460D01*
X25173801Y-18569460D02*
X25164277Y-18559936D01*
X25164277Y-18559936D02*
X25154753Y-18540889D01*
X25154753Y-18540889D02*
X25145229Y-18502793D01*
X25145229Y-18502793D02*
X25145229Y-18455174D01*
X25145229Y-18455174D02*
X25154753Y-18417079D01*
X25154753Y-18417079D02*
X25164277Y-18398031D01*
X25164277Y-18398031D02*
X25173801Y-18388508D01*
X25173801Y-18388508D02*
X25192848Y-18378984D01*
X25430944Y-18445650D02*
X25430944Y-18578984D01*
X25383325Y-18369460D02*
X25335706Y-18512317D01*
X25335706Y-18512317D02*
X25459515Y-18512317D01*
X25516658Y-18378984D02*
X25649991Y-18378984D01*
X25649991Y-18378984D02*
X25564277Y-18578984D01*
X25716658Y-18398031D02*
X25726182Y-18388508D01*
X25726182Y-18388508D02*
X25745229Y-18378984D01*
X25745229Y-18378984D02*
X25792848Y-18378984D01*
X25792848Y-18378984D02*
X25811896Y-18388508D01*
X25811896Y-18388508D02*
X25821420Y-18398031D01*
X25821420Y-18398031D02*
X25830944Y-18417079D01*
X25830944Y-18417079D02*
X25830944Y-18436127D01*
X25830944Y-18436127D02*
X25821420Y-18464698D01*
X25821420Y-18464698D02*
X25707134Y-18578984D01*
X25707134Y-18578984D02*
X25830944Y-18578984D01*
X25907134Y-18378984D02*
X25907134Y-18417079D01*
X25983325Y-18378984D02*
X25983325Y-18417079D01*
X26278563Y-18655174D02*
X26269039Y-18645650D01*
X26269039Y-18645650D02*
X26249991Y-18617079D01*
X26249991Y-18617079D02*
X26240468Y-18598031D01*
X26240468Y-18598031D02*
X26230944Y-18569460D01*
X26230944Y-18569460D02*
X26221420Y-18521841D01*
X26221420Y-18521841D02*
X26221420Y-18483746D01*
X26221420Y-18483746D02*
X26230944Y-18436127D01*
X26230944Y-18436127D02*
X26240468Y-18407555D01*
X26240468Y-18407555D02*
X26249991Y-18388508D01*
X26249991Y-18388508D02*
X26269039Y-18359936D01*
X26269039Y-18359936D02*
X26278563Y-18350412D01*
X26459515Y-18578984D02*
X26345229Y-18578984D01*
X26402372Y-18578984D02*
X26402372Y-18378984D01*
X26402372Y-18378984D02*
X26383325Y-18407555D01*
X26383325Y-18407555D02*
X26364277Y-18426603D01*
X26364277Y-18426603D02*
X26345229Y-18436127D01*
X26583325Y-18378984D02*
X26602372Y-18378984D01*
X26602372Y-18378984D02*
X26621420Y-18388508D01*
X26621420Y-18388508D02*
X26630944Y-18398031D01*
X26630944Y-18398031D02*
X26640468Y-18417079D01*
X26640468Y-18417079D02*
X26649991Y-18455174D01*
X26649991Y-18455174D02*
X26649991Y-18502793D01*
X26649991Y-18502793D02*
X26640468Y-18540889D01*
X26640468Y-18540889D02*
X26630944Y-18559936D01*
X26630944Y-18559936D02*
X26621420Y-18569460D01*
X26621420Y-18569460D02*
X26602372Y-18578984D01*
X26602372Y-18578984D02*
X26583325Y-18578984D01*
X26583325Y-18578984D02*
X26564277Y-18569460D01*
X26564277Y-18569460D02*
X26554753Y-18559936D01*
X26554753Y-18559936D02*
X26545229Y-18540889D01*
X26545229Y-18540889D02*
X26535706Y-18502793D01*
X26535706Y-18502793D02*
X26535706Y-18455174D01*
X26535706Y-18455174D02*
X26545229Y-18417079D01*
X26545229Y-18417079D02*
X26554753Y-18398031D01*
X26554753Y-18398031D02*
X26564277Y-18388508D01*
X26564277Y-18388508D02*
X26583325Y-18378984D01*
X26888087Y-18578984D02*
X26888087Y-18378984D01*
X26973801Y-18578984D02*
X26973801Y-18474222D01*
X26973801Y-18474222D02*
X26964277Y-18455174D01*
X26964277Y-18455174D02*
X26945230Y-18445650D01*
X26945230Y-18445650D02*
X26916658Y-18445650D01*
X26916658Y-18445650D02*
X26897610Y-18455174D01*
X26897610Y-18455174D02*
X26888087Y-18464698D01*
X27097610Y-18578984D02*
X27078563Y-18569460D01*
X27078563Y-18569460D02*
X27069039Y-18559936D01*
X27069039Y-18559936D02*
X27059515Y-18540889D01*
X27059515Y-18540889D02*
X27059515Y-18483746D01*
X27059515Y-18483746D02*
X27069039Y-18464698D01*
X27069039Y-18464698D02*
X27078563Y-18455174D01*
X27078563Y-18455174D02*
X27097610Y-18445650D01*
X27097610Y-18445650D02*
X27126182Y-18445650D01*
X27126182Y-18445650D02*
X27145230Y-18455174D01*
X27145230Y-18455174D02*
X27154753Y-18464698D01*
X27154753Y-18464698D02*
X27164277Y-18483746D01*
X27164277Y-18483746D02*
X27164277Y-18540889D01*
X27164277Y-18540889D02*
X27154753Y-18559936D01*
X27154753Y-18559936D02*
X27145230Y-18569460D01*
X27145230Y-18569460D02*
X27126182Y-18578984D01*
X27126182Y-18578984D02*
X27097610Y-18578984D01*
X27278563Y-18578984D02*
X27259515Y-18569460D01*
X27259515Y-18569460D02*
X27249991Y-18550412D01*
X27249991Y-18550412D02*
X27249991Y-18378984D01*
X27430944Y-18569460D02*
X27411896Y-18578984D01*
X27411896Y-18578984D02*
X27373801Y-18578984D01*
X27373801Y-18578984D02*
X27354753Y-18569460D01*
X27354753Y-18569460D02*
X27345230Y-18550412D01*
X27345230Y-18550412D02*
X27345230Y-18474222D01*
X27345230Y-18474222D02*
X27354753Y-18455174D01*
X27354753Y-18455174D02*
X27373801Y-18445650D01*
X27373801Y-18445650D02*
X27411896Y-18445650D01*
X27411896Y-18445650D02*
X27430944Y-18455174D01*
X27430944Y-18455174D02*
X27440468Y-18474222D01*
X27440468Y-18474222D02*
X27440468Y-18493270D01*
X27440468Y-18493270D02*
X27345230Y-18512317D01*
X27516658Y-18569460D02*
X27535706Y-18578984D01*
X27535706Y-18578984D02*
X27573801Y-18578984D01*
X27573801Y-18578984D02*
X27592849Y-18569460D01*
X27592849Y-18569460D02*
X27602372Y-18550412D01*
X27602372Y-18550412D02*
X27602372Y-18540889D01*
X27602372Y-18540889D02*
X27592849Y-18521841D01*
X27592849Y-18521841D02*
X27573801Y-18512317D01*
X27573801Y-18512317D02*
X27545230Y-18512317D01*
X27545230Y-18512317D02*
X27526182Y-18502793D01*
X27526182Y-18502793D02*
X27516658Y-18483746D01*
X27516658Y-18483746D02*
X27516658Y-18474222D01*
X27516658Y-18474222D02*
X27526182Y-18455174D01*
X27526182Y-18455174D02*
X27545230Y-18445650D01*
X27545230Y-18445650D02*
X27573801Y-18445650D01*
X27573801Y-18445650D02*
X27592849Y-18455174D01*
X27669039Y-18655174D02*
X27678563Y-18645650D01*
X27678563Y-18645650D02*
X27697611Y-18617079D01*
X27697611Y-18617079D02*
X27707134Y-18598031D01*
X27707134Y-18598031D02*
X27716658Y-18569460D01*
X27716658Y-18569460D02*
X27726182Y-18521841D01*
X27726182Y-18521841D02*
X27726182Y-18483746D01*
X27726182Y-18483746D02*
X27716658Y-18436127D01*
X27716658Y-18436127D02*
X27707134Y-18407555D01*
X27707134Y-18407555D02*
X27697611Y-18388508D01*
X27697611Y-18388508D02*
X27678563Y-18359936D01*
X27678563Y-18359936D02*
X27669039Y-18350412D01*
M02*
