%TF.GenerationSoftware,KiCad,Pcbnew,8.0.7*%
%TF.CreationDate,2025-01-16T14:46:27+00:00*%
%TF.ProjectId,MAIN,4d41494e-2e6b-4696-9361-645f70636258,rev?*%
%TF.SameCoordinates,Original*%
%TF.FileFunction,Drillmap*%
%TF.FilePolarity,Positive*%
%FSLAX45Y45*%
G04 Gerber Fmt 4.5, Leading zero omitted, Abs format (unit mm)*
G04 Created by KiCad (PCBNEW 8.0.7) date 2025-01-16 14:46:27*
%MOMM*%
%LPD*%
G01*
G04 APERTURE LIST*
%ADD10C,0.050000*%
%ADD11C,0.200000*%
G04 APERTURE END LIST*
D10*
X32666000Y-6810000D02*
X22706000Y-6810000D01*
X32666000Y-16789000D02*
X32666000Y-6810000D01*
X22706000Y-6810000D02*
X22706000Y-16789000D01*
X22706000Y-16789000D02*
X32666000Y-16789000D01*
D11*
X22964277Y-17102984D02*
X22964277Y-16902984D01*
X22964277Y-16902984D02*
X23011896Y-16902984D01*
X23011896Y-16902984D02*
X23040467Y-16912508D01*
X23040467Y-16912508D02*
X23059515Y-16931555D01*
X23059515Y-16931555D02*
X23069039Y-16950603D01*
X23069039Y-16950603D02*
X23078562Y-16988698D01*
X23078562Y-16988698D02*
X23078562Y-17017270D01*
X23078562Y-17017270D02*
X23069039Y-17055365D01*
X23069039Y-17055365D02*
X23059515Y-17074412D01*
X23059515Y-17074412D02*
X23040467Y-17093460D01*
X23040467Y-17093460D02*
X23011896Y-17102984D01*
X23011896Y-17102984D02*
X22964277Y-17102984D01*
X23164277Y-17102984D02*
X23164277Y-16969650D01*
X23164277Y-17007746D02*
X23173801Y-16988698D01*
X23173801Y-16988698D02*
X23183324Y-16979174D01*
X23183324Y-16979174D02*
X23202372Y-16969650D01*
X23202372Y-16969650D02*
X23221420Y-16969650D01*
X23288086Y-17102984D02*
X23288086Y-16969650D01*
X23288086Y-16902984D02*
X23278562Y-16912508D01*
X23278562Y-16912508D02*
X23288086Y-16922031D01*
X23288086Y-16922031D02*
X23297610Y-16912508D01*
X23297610Y-16912508D02*
X23288086Y-16902984D01*
X23288086Y-16902984D02*
X23288086Y-16922031D01*
X23411896Y-17102984D02*
X23392848Y-17093460D01*
X23392848Y-17093460D02*
X23383324Y-17074412D01*
X23383324Y-17074412D02*
X23383324Y-16902984D01*
X23516658Y-17102984D02*
X23497610Y-17093460D01*
X23497610Y-17093460D02*
X23488086Y-17074412D01*
X23488086Y-17074412D02*
X23488086Y-16902984D01*
X23745229Y-17102984D02*
X23745229Y-16902984D01*
X23745229Y-16902984D02*
X23811896Y-17045841D01*
X23811896Y-17045841D02*
X23878562Y-16902984D01*
X23878562Y-16902984D02*
X23878562Y-17102984D01*
X24059515Y-17102984D02*
X24059515Y-16998222D01*
X24059515Y-16998222D02*
X24049991Y-16979174D01*
X24049991Y-16979174D02*
X24030943Y-16969650D01*
X24030943Y-16969650D02*
X23992848Y-16969650D01*
X23992848Y-16969650D02*
X23973801Y-16979174D01*
X24059515Y-17093460D02*
X24040467Y-17102984D01*
X24040467Y-17102984D02*
X23992848Y-17102984D01*
X23992848Y-17102984D02*
X23973801Y-17093460D01*
X23973801Y-17093460D02*
X23964277Y-17074412D01*
X23964277Y-17074412D02*
X23964277Y-17055365D01*
X23964277Y-17055365D02*
X23973801Y-17036317D01*
X23973801Y-17036317D02*
X23992848Y-17026793D01*
X23992848Y-17026793D02*
X24040467Y-17026793D01*
X24040467Y-17026793D02*
X24059515Y-17017270D01*
X24154753Y-16969650D02*
X24154753Y-17169650D01*
X24154753Y-16979174D02*
X24173801Y-16969650D01*
X24173801Y-16969650D02*
X24211896Y-16969650D01*
X24211896Y-16969650D02*
X24230943Y-16979174D01*
X24230943Y-16979174D02*
X24240467Y-16988698D01*
X24240467Y-16988698D02*
X24249991Y-17007746D01*
X24249991Y-17007746D02*
X24249991Y-17064889D01*
X24249991Y-17064889D02*
X24240467Y-17083936D01*
X24240467Y-17083936D02*
X24230943Y-17093460D01*
X24230943Y-17093460D02*
X24211896Y-17102984D01*
X24211896Y-17102984D02*
X24173801Y-17102984D01*
X24173801Y-17102984D02*
X24154753Y-17093460D01*
X24335705Y-17083936D02*
X24345229Y-17093460D01*
X24345229Y-17093460D02*
X24335705Y-17102984D01*
X24335705Y-17102984D02*
X24326182Y-17093460D01*
X24326182Y-17093460D02*
X24335705Y-17083936D01*
X24335705Y-17083936D02*
X24335705Y-17102984D01*
X24335705Y-16979174D02*
X24345229Y-16988698D01*
X24345229Y-16988698D02*
X24335705Y-16998222D01*
X24335705Y-16998222D02*
X24326182Y-16988698D01*
X24326182Y-16988698D02*
X24335705Y-16979174D01*
X24335705Y-16979174D02*
X24335705Y-16998222D01*
M02*
