%TF.GenerationSoftware,KiCad,Pcbnew,9.0.0*%
%TF.CreationDate,2025-03-13T15:25:09+00:00*%
%TF.ProjectId,MAIN,4d41494e-2e6b-4696-9361-645f70636258,rev?*%
%TF.SameCoordinates,Original*%
%TF.FileFunction,Soldermask,Bot*%
%TF.FilePolarity,Negative*%
%FSLAX46Y46*%
G04 Gerber Fmt 4.6, Leading zero omitted, Abs format (unit mm)*
G04 Created by KiCad (PCBNEW 9.0.0) date 2025-03-13 15:25:09*
%MOMM*%
%LPD*%
G01*
G04 APERTURE LIST*
%ADD10C,1.600000*%
%ADD11R,1.050000X1.500000*%
%ADD12O,1.050000X1.500000*%
%ADD13O,1.600000X1.600000*%
%ADD14R,2.400000X2.400000*%
%ADD15O,2.400000X2.400000*%
%ADD16R,1.700000X1.700000*%
%ADD17O,1.700000X1.700000*%
%ADD18C,1.400000*%
%ADD19O,1.400000X1.400000*%
%ADD20C,1.800000*%
%ADD21R,1.600000X1.600000*%
G04 APERTURE END LIST*
D10*
%TO.C,C4*%
X256256200Y-123552200D03*
X253756200Y-123552200D03*
%TD*%
%TO.C,C7*%
X312006200Y-79482200D03*
X317006200Y-79482200D03*
%TD*%
D11*
%TO.C,Q6*%
X313506200Y-85482200D03*
D12*
X314776200Y-85482200D03*
X316046200Y-85482200D03*
%TD*%
D10*
%TO.C,R20*%
X260006200Y-111052200D03*
D13*
X260006200Y-123752200D03*
%TD*%
D10*
%TO.C,R17*%
X286381200Y-87017200D03*
D13*
X273681200Y-87017200D03*
%TD*%
D10*
%TO.C,R42*%
X285926200Y-115742200D03*
D13*
X296086200Y-115742200D03*
%TD*%
D14*
%TO.C,D2*%
X232506200Y-142982200D03*
D15*
X232506200Y-137902200D03*
%TD*%
D11*
%TO.C,Q1*%
X270506200Y-93242200D03*
D12*
X271776200Y-93242200D03*
X273046200Y-93242200D03*
%TD*%
D10*
%TO.C,R27*%
X231386200Y-160592200D03*
D13*
X231386200Y-147892200D03*
%TD*%
D16*
%TO.C,J1*%
X237485000Y-70800000D03*
D17*
X240025000Y-70800000D03*
X242565000Y-70800000D03*
X245105000Y-70800000D03*
X247645000Y-70800000D03*
X250185000Y-70800000D03*
X252725000Y-70800000D03*
X255265000Y-70800000D03*
X257805000Y-70800000D03*
X260345000Y-70800000D03*
X262885000Y-70800000D03*
X265425000Y-70800000D03*
X267965000Y-70800000D03*
X270505000Y-70800000D03*
X273045000Y-70800000D03*
X275585000Y-70800000D03*
X278125000Y-70800000D03*
X280665000Y-70800000D03*
X283205000Y-70800000D03*
X285745000Y-70800000D03*
X288285000Y-70800000D03*
X290825000Y-70800000D03*
X293365000Y-70800000D03*
X295905000Y-70800000D03*
X298445000Y-70800000D03*
X300985000Y-70800000D03*
X303525000Y-70800000D03*
X306065000Y-70800000D03*
X308605000Y-70800000D03*
X311145000Y-70800000D03*
X313685000Y-70800000D03*
X316225000Y-70800000D03*
%TD*%
D10*
%TO.C,R4*%
X281656200Y-103742200D03*
D13*
X294356200Y-103742200D03*
%TD*%
D10*
%TO.C,R18*%
X247926200Y-84742200D03*
D13*
X258086200Y-84742200D03*
%TD*%
D10*
%TO.C,C6*%
X277506200Y-156242200D03*
X275006200Y-156242200D03*
%TD*%
%TO.C,R31*%
X264446200Y-156242200D03*
D13*
X272066200Y-156242200D03*
%TD*%
D18*
%TO.C,TH11*%
X314506200Y-96742200D03*
D19*
X314506200Y-99282200D03*
%TD*%
D20*
%TO.C,R10*%
X279531200Y-134717200D03*
X276991200Y-144877200D03*
X279531200Y-152497200D03*
%TD*%
D10*
%TO.C,R2*%
X276346200Y-93742200D03*
D13*
X286506200Y-93742200D03*
%TD*%
D18*
%TO.C,TH9*%
X292156200Y-77522200D03*
D19*
X292156200Y-80062200D03*
%TD*%
D10*
%TO.C,R48*%
X296166200Y-124242200D03*
D13*
X286006200Y-124242200D03*
%TD*%
D20*
%TO.C,R3*%
X260006200Y-78242200D03*
X270166200Y-80782200D03*
X277786200Y-78242200D03*
%TD*%
D10*
%TO.C,R39*%
X314616200Y-101762200D03*
D13*
X314616200Y-114462200D03*
%TD*%
D10*
%TO.C,R21*%
X245506200Y-134042200D03*
D13*
X245506200Y-146742200D03*
%TD*%
D10*
%TO.C,R9*%
X293086200Y-134892200D03*
D13*
X282926200Y-134892200D03*
%TD*%
D10*
%TO.C,R45*%
X307426200Y-133822200D03*
D13*
X307426200Y-123662200D03*
%TD*%
D11*
%TO.C,Q4*%
X253558700Y-112912200D03*
D12*
X254828700Y-112912200D03*
X256098700Y-112912200D03*
%TD*%
D10*
%TO.C,C5*%
X233256200Y-110742200D03*
X235756200Y-110742200D03*
%TD*%
%TO.C,R15*%
X271006200Y-85742200D03*
D13*
X260846200Y-85742200D03*
%TD*%
D10*
%TO.C,R19*%
X233006200Y-134822200D03*
D13*
X233006200Y-124662200D03*
%TD*%
D10*
%TO.C,R24*%
X238506200Y-102552200D03*
D13*
X238506200Y-94932200D03*
%TD*%
D10*
%TO.C,R33*%
X238886200Y-127242200D03*
D13*
X246506200Y-127242200D03*
%TD*%
D21*
%TO.C,U2*%
X249006200Y-89502200D03*
D13*
X249006200Y-92042200D03*
X249006200Y-94582200D03*
X249006200Y-97122200D03*
X249006200Y-99662200D03*
X249006200Y-102202200D03*
X249006200Y-104742200D03*
X256626200Y-104742200D03*
X256626200Y-102202200D03*
X256626200Y-99662200D03*
X256626200Y-97122200D03*
X256626200Y-94582200D03*
X256626200Y-92042200D03*
X256626200Y-89502200D03*
%TD*%
D16*
%TO.C,J3*%
X316235000Y-165200000D03*
D17*
X313695000Y-165200000D03*
X311155000Y-165200000D03*
X308615000Y-165200000D03*
X306075000Y-165200000D03*
X303535000Y-165200000D03*
X300995000Y-165200000D03*
X298455000Y-165200000D03*
X295915000Y-165200000D03*
X293375000Y-165200000D03*
X290835000Y-165200000D03*
X288295000Y-165200000D03*
X285755000Y-165200000D03*
X283215000Y-165200000D03*
X280675000Y-165200000D03*
X278135000Y-165200000D03*
X275595000Y-165200000D03*
X273055000Y-165200000D03*
X270515000Y-165200000D03*
X267975000Y-165200000D03*
X265435000Y-165200000D03*
X262895000Y-165200000D03*
X260355000Y-165200000D03*
X257815000Y-165200000D03*
X255275000Y-165200000D03*
X252735000Y-165200000D03*
X250195000Y-165200000D03*
X247655000Y-165200000D03*
X245115000Y-165200000D03*
X242575000Y-165200000D03*
X240035000Y-165200000D03*
X237495000Y-165200000D03*
%TD*%
D20*
%TO.C,R36*%
X314701200Y-117137200D03*
X312161200Y-127297200D03*
X314701200Y-134917200D03*
%TD*%
D21*
%TO.C,U1*%
X273886200Y-112002200D03*
D13*
X273886200Y-114542200D03*
X273886200Y-117082200D03*
X273886200Y-119622200D03*
X273886200Y-122162200D03*
X273886200Y-124702200D03*
X273886200Y-127242200D03*
X281506200Y-127242200D03*
X281506200Y-124702200D03*
X281506200Y-122162200D03*
X281506200Y-119622200D03*
X281506200Y-117082200D03*
X281506200Y-114542200D03*
X281506200Y-112002200D03*
%TD*%
D10*
%TO.C,R43*%
X284656200Y-131242200D03*
D13*
X297356200Y-131242200D03*
%TD*%
D18*
%TO.C,TH8*%
X248866200Y-134392200D03*
D19*
X251406200Y-134392200D03*
%TD*%
D11*
%TO.C,Q3*%
X256126200Y-118192200D03*
D12*
X254856200Y-118192200D03*
X253586200Y-118192200D03*
%TD*%
D10*
%TO.C,R12*%
X250006200Y-119362200D03*
D13*
X250006200Y-111742200D03*
%TD*%
D10*
%TO.C,R38*%
X310006200Y-142242200D03*
D13*
X317626200Y-142242200D03*
%TD*%
D10*
%TO.C,R50*%
X320506200Y-96162200D03*
D13*
X320506200Y-106322200D03*
%TD*%
D10*
%TO.C,R35*%
X307426200Y-110162200D03*
D13*
X307426200Y-120322200D03*
%TD*%
D11*
%TO.C,Q2*%
X273006200Y-98742200D03*
D12*
X271736200Y-98742200D03*
X270466200Y-98742200D03*
%TD*%
D10*
%TO.C,R13*%
X289506200Y-144892200D03*
D13*
X289506200Y-157592200D03*
%TD*%
D10*
%TO.C,R44*%
X285926200Y-120742200D03*
D13*
X296086200Y-120742200D03*
%TD*%
D14*
%TO.C,D1*%
X269006200Y-109242200D03*
D15*
X269006200Y-114322200D03*
%TD*%
D21*
%TO.C,C9*%
X298636200Y-155382200D03*
D10*
X298636200Y-153382200D03*
%TD*%
D18*
%TO.C,TH1*%
X276286200Y-98592200D03*
D19*
X278826200Y-98592200D03*
%TD*%
D14*
%TO.C,D4*%
X241246200Y-134242200D03*
D15*
X236166200Y-134242200D03*
%TD*%
D18*
%TO.C,TH3*%
X248786200Y-127242200D03*
D19*
X251326200Y-127242200D03*
%TD*%
D18*
%TO.C,TH5*%
X232706200Y-101662200D03*
D19*
X232706200Y-99122200D03*
%TD*%
D10*
%TO.C,R14*%
X253786200Y-134242200D03*
D13*
X261406200Y-134242200D03*
%TD*%
D11*
%TO.C,Q5*%
X316016200Y-90982200D03*
D12*
X314746200Y-90982200D03*
X313476200Y-90982200D03*
%TD*%
D18*
%TO.C,TH10*%
X320546200Y-90432200D03*
D19*
X320546200Y-92972200D03*
%TD*%
D10*
%TO.C,C2*%
X237506200Y-139742200D03*
X237506200Y-144742200D03*
%TD*%
D16*
%TO.C,J2*%
X320466200Y-147582200D03*
D17*
X323006200Y-147582200D03*
X320466200Y-150122200D03*
X323006200Y-150122200D03*
X320466200Y-152662200D03*
X323006200Y-152662200D03*
X320466200Y-155202200D03*
X323006200Y-155202200D03*
X320466200Y-157742200D03*
X323006200Y-157742200D03*
%TD*%
D21*
%TO.C,U3*%
X302206200Y-89617200D03*
D13*
X302206200Y-92157200D03*
X302206200Y-94697200D03*
X302206200Y-97237200D03*
X302206200Y-99777200D03*
X302206200Y-102317200D03*
X302206200Y-104857200D03*
X309826200Y-104857200D03*
X309826200Y-102317200D03*
X309826200Y-99777200D03*
X309826200Y-97237200D03*
X309826200Y-94697200D03*
X309826200Y-92157200D03*
X309826200Y-89617200D03*
%TD*%
D21*
%TO.C,U4*%
X251886200Y-139702200D03*
D13*
X251886200Y-142242200D03*
X251886200Y-144782200D03*
X251886200Y-147322200D03*
X251886200Y-149862200D03*
X251886200Y-152402200D03*
X251886200Y-154942200D03*
X259506200Y-154942200D03*
X259506200Y-152402200D03*
X259506200Y-149862200D03*
X259506200Y-147322200D03*
X259506200Y-144782200D03*
X259506200Y-142242200D03*
X259506200Y-139702200D03*
%TD*%
D18*
%TO.C,TH2*%
X276286200Y-102242200D03*
D19*
X278826200Y-102242200D03*
%TD*%
D10*
%TO.C,R8*%
X238506200Y-92052200D03*
D13*
X238506200Y-84432200D03*
%TD*%
D10*
%TO.C,R40*%
X321094700Y-82433100D03*
D13*
X321094700Y-74813100D03*
%TD*%
D10*
%TO.C,R22*%
X244006200Y-96592200D03*
D13*
X244006200Y-83892200D03*
%TD*%
D14*
%TO.C,D3*%
X287246200Y-79242200D03*
D15*
X282166200Y-79242200D03*
%TD*%
D10*
%TO.C,R5*%
X254306200Y-129242200D03*
D13*
X267006200Y-129242200D03*
%TD*%
D10*
%TO.C,C1*%
X266506200Y-100742200D03*
X266506200Y-95742200D03*
%TD*%
%TO.C,C8*%
X296506200Y-92242200D03*
X296506200Y-89742200D03*
%TD*%
%TO.C,R37*%
X320506200Y-109742200D03*
D13*
X320506200Y-122442200D03*
%TD*%
D10*
%TO.C,R16*%
X256006200Y-78742200D03*
D13*
X243306200Y-78742200D03*
%TD*%
D10*
%TO.C,R41*%
X285886200Y-110742200D03*
D13*
X298586200Y-110742200D03*
%TD*%
D10*
%TO.C,R1*%
X282156200Y-98242200D03*
D13*
X294856200Y-98242200D03*
%TD*%
D10*
%TO.C,R32*%
X264756200Y-152942200D03*
D13*
X264756200Y-140242200D03*
%TD*%
D10*
%TO.C,R6*%
X259696200Y-91742200D03*
D13*
X267316200Y-91742200D03*
%TD*%
D14*
%TO.C,D5*%
X308506200Y-79742200D03*
D15*
X308506200Y-84822200D03*
%TD*%
D10*
%TO.C,R47*%
X309006200Y-137742200D03*
D13*
X296306200Y-137742200D03*
%TD*%
D10*
%TO.C,R46*%
X302506200Y-122742200D03*
D13*
X302506200Y-110042200D03*
%TD*%
D10*
%TO.C,R7*%
X232506200Y-90942200D03*
D13*
X232506200Y-78242200D03*
%TD*%
D18*
%TO.C,TH6*%
X289006200Y-139522200D03*
D19*
X289006200Y-142062200D03*
%TD*%
D10*
%TO.C,C3*%
X238806200Y-78492200D03*
X238806200Y-80992200D03*
%TD*%
%TO.C,R23*%
X234426200Y-149742200D03*
D13*
X244586200Y-149742200D03*
%TD*%
D10*
%TO.C,R29*%
X244006200Y-154742200D03*
D13*
X236386200Y-154742200D03*
%TD*%
D10*
%TO.C,R25*%
X244006200Y-99392200D03*
D13*
X244006200Y-112092200D03*
%TD*%
D10*
%TO.C,R30*%
X271756200Y-153242200D03*
D13*
X271756200Y-140542200D03*
%TD*%
D10*
%TO.C,R51*%
X306056200Y-154882200D03*
D13*
X316216200Y-154882200D03*
%TD*%
D10*
%TO.C,R34*%
X291806200Y-84242200D03*
D13*
X304506200Y-84242200D03*
%TD*%
D10*
%TO.C,R52*%
X305976200Y-147882200D03*
D13*
X316136200Y-147882200D03*
%TD*%
D10*
%TO.C,R26*%
X230386200Y-106242200D03*
D13*
X238006200Y-106242200D03*
%TD*%
D10*
%TO.C,R11*%
X284006200Y-138042200D03*
D13*
X284006200Y-150742200D03*
%TD*%
D21*
%TO.C,C10*%
X298636200Y-149382200D03*
D10*
X298636200Y-147382200D03*
%TD*%
D18*
%TO.C,TH4*%
X232706200Y-96342200D03*
D19*
X232706200Y-93802200D03*
%TD*%
D10*
%TO.C,R49*%
X320506200Y-135822200D03*
D13*
X320506200Y-125662200D03*
%TD*%
D18*
%TO.C,TH12*%
X320506200Y-87522200D03*
D19*
X320506200Y-84982200D03*
%TD*%
D18*
%TO.C,TH7*%
X248866200Y-131242200D03*
D19*
X251406200Y-131242200D03*
%TD*%
D10*
%TO.C,R28*%
X231156200Y-116242200D03*
D13*
X243856200Y-116242200D03*
%TD*%
M02*
