%TF.GenerationSoftware,KiCad,Pcbnew,9.0.0*%
%TF.CreationDate,2025-03-13T15:24:42+00:00*%
%TF.ProjectId,MAIN,4d41494e-2e6b-4696-9361-645f70636258,rev?*%
%TF.SameCoordinates,Original*%
%TF.FileFunction,Copper,L1,Top*%
%TF.FilePolarity,Positive*%
%FSLAX46Y46*%
G04 Gerber Fmt 4.6, Leading zero omitted, Abs format (unit mm)*
G04 Created by KiCad (PCBNEW 9.0.0) date 2025-03-13 15:24:42*
%MOMM*%
%LPD*%
G01*
G04 APERTURE LIST*
%TA.AperFunction,ComponentPad*%
%ADD10C,1.600000*%
%TD*%
%TA.AperFunction,ComponentPad*%
%ADD11R,1.050000X1.500000*%
%TD*%
%TA.AperFunction,ComponentPad*%
%ADD12O,1.050000X1.500000*%
%TD*%
%TA.AperFunction,ComponentPad*%
%ADD13O,1.600000X1.600000*%
%TD*%
%TA.AperFunction,ComponentPad*%
%ADD14R,2.400000X2.400000*%
%TD*%
%TA.AperFunction,ComponentPad*%
%ADD15O,2.400000X2.400000*%
%TD*%
%TA.AperFunction,ComponentPad*%
%ADD16R,1.700000X1.700000*%
%TD*%
%TA.AperFunction,ComponentPad*%
%ADD17O,1.700000X1.700000*%
%TD*%
%TA.AperFunction,ComponentPad*%
%ADD18C,1.400000*%
%TD*%
%TA.AperFunction,ComponentPad*%
%ADD19O,1.400000X1.400000*%
%TD*%
%TA.AperFunction,ComponentPad*%
%ADD20C,1.800000*%
%TD*%
%TA.AperFunction,ComponentPad*%
%ADD21R,1.600000X1.600000*%
%TD*%
%TA.AperFunction,ViaPad*%
%ADD22C,0.800000*%
%TD*%
%TA.AperFunction,Conductor*%
%ADD23C,0.250000*%
%TD*%
%TA.AperFunction,Conductor*%
%ADD24C,0.500000*%
%TD*%
G04 APERTURE END LIST*
D10*
%TO.P,C4,1*%
%TO.N,Net-(U4B-+)*%
X256256200Y-123552200D03*
%TO.P,C4,2*%
%TO.N,Net-(U4A--)*%
X253756200Y-123552200D03*
%TD*%
%TO.P,C7,1*%
%TO.N,Net-(D5-K)*%
X312006200Y-79482200D03*
%TO.P,C7,2*%
%TO.N,VCO1CoarsePot1*%
X317006200Y-79482200D03*
%TD*%
D11*
%TO.P,Q6,1,C*%
%TO.N,Net-(D5-K)*%
X313506200Y-85482200D03*
D12*
%TO.P,Q6,2,B*%
%TO.N,Net-(Q5-E)*%
X314776200Y-85482200D03*
%TO.P,Q6,3,E*%
%TO.N,VCO1CoarsePot1*%
X316046200Y-85482200D03*
%TD*%
D10*
%TO.P,R20,1*%
%TO.N,VCO1CoarsePot1*%
X260006200Y-111052200D03*
D13*
%TO.P,R20,2*%
%TO.N,Net-(U4B-+)*%
X260006200Y-123752200D03*
%TD*%
D10*
%TO.P,R17,1*%
%TO.N,Net-(D3-K)*%
X286381200Y-87017200D03*
D13*
%TO.P,R17,2*%
%TO.N,VCO1CoarsePot1*%
X273681200Y-87017200D03*
%TD*%
D10*
%TO.P,R42,1*%
%TO.N,Net-(U3D--)*%
X285926200Y-115742200D03*
D13*
%TO.P,R42,2*%
%TO.N,VCO2PwmPot1*%
X296086200Y-115742200D03*
%TD*%
D14*
%TO.P,D2,1,K*%
%TO.N,Net-(D2-K)*%
X232506200Y-142982200D03*
D15*
%TO.P,D2,2,A*%
%TO.N,Net-(D2-A)*%
X232506200Y-137902200D03*
%TD*%
D11*
%TO.P,Q1,1,C*%
%TO.N,VCO1CoarsePot3*%
X270506200Y-93242200D03*
D12*
%TO.P,Q1,2,B*%
%TO.N,VCO1FMPot1*%
X271776200Y-93242200D03*
%TO.P,Q1,3,E*%
%TO.N,Net-(Q1-E)*%
X273046200Y-93242200D03*
%TD*%
D10*
%TO.P,R27,1*%
%TO.N,Net-(R27-Pad1)*%
X231386200Y-160592200D03*
D13*
%TO.P,R27,2*%
%TO.N,Net-(U4B--)*%
X231386200Y-147892200D03*
%TD*%
D16*
%TO.P,J1,1,Pin_1*%
%TO.N,VCO1CoarsePot1*%
X237485000Y-70800000D03*
D17*
%TO.P,J1,2,Pin_2*%
%TO.N,VCO1CoarsePot2*%
X240025000Y-70800000D03*
%TO.P,J1,3,Pin_3*%
%TO.N,VCO1CoarsePot3*%
X242565000Y-70800000D03*
%TO.P,J1,4,Pin_4*%
%TO.N,VCO1CoarsePot1*%
X245105000Y-70800000D03*
%TO.P,J1,5,Pin_5*%
%TO.N,VCO1FinePot2*%
X247645000Y-70800000D03*
%TO.P,J1,6,Pin_6*%
%TO.N,VCO1CoarsePot3*%
X250185000Y-70800000D03*
%TO.P,J1,7,Pin_7*%
%TO.N,VCO1FMPot1*%
X252725000Y-70800000D03*
%TO.P,J1,8,Pin_8*%
%TO.N,VCO1FMPot2*%
X255265000Y-70800000D03*
%TO.P,J1,9,Pin_9*%
%TO.N,VCO1FMPot3*%
X257805000Y-70800000D03*
%TO.P,J1,10,Pin_10*%
%TO.N,VCO1PwmPot1*%
X260345000Y-70800000D03*
%TO.P,J1,11,Pin_11*%
%TO.N,VCO1CoarsePot1*%
X262885000Y-70800000D03*
%TO.P,J1,12,Pin_12*%
%TO.N,VCO1PwmPot3*%
X265425000Y-70800000D03*
%TO.P,J1,13,Pin_13*%
%TO.N,SW1p1*%
X267965000Y-70800000D03*
%TO.P,J1,14,Pin_14*%
%TO.N,SW1p2*%
X270505000Y-70800000D03*
%TO.P,J1,15,Pin_15*%
%TO.N,SW1p3*%
X273045000Y-70800000D03*
%TO.P,J1,16,Pin_16*%
%TO.N,VCO1CoarsePot1*%
X275585000Y-70800000D03*
%TO.P,J1,17,Pin_17*%
%TO.N,VCO2CoarsePot2*%
X278125000Y-70800000D03*
%TO.P,J1,18,Pin_18*%
%TO.N,VCO1CoarsePot3*%
X280665000Y-70800000D03*
%TO.P,J1,19,Pin_19*%
%TO.N,VCO1CoarsePot1*%
X283205000Y-70800000D03*
%TO.P,J1,20,Pin_20*%
%TO.N,VCO2FinePot2*%
X285745000Y-70800000D03*
%TO.P,J1,21,Pin_21*%
%TO.N,VCO1CoarsePot3*%
X288285000Y-70800000D03*
%TO.P,J1,22,Pin_22*%
%TO.N,VCO2FMPot1*%
X290825000Y-70800000D03*
%TO.P,J1,23,Pin_23*%
%TO.N,VCO2FMPot2*%
X293365000Y-70800000D03*
%TO.P,J1,24,Pin_24*%
%TO.N,VCO2FMPot3*%
X295905000Y-70800000D03*
%TO.P,J1,25,Pin_25*%
%TO.N,VCO2PwmPot1*%
X298445000Y-70800000D03*
%TO.P,J1,26,Pin_26*%
%TO.N,VCO2PwmPot2*%
X300985000Y-70800000D03*
%TO.P,J1,27,Pin_27*%
%TO.N,VCO2PwmPot3*%
X303525000Y-70800000D03*
%TO.P,J1,28,Pin_28*%
%TO.N,VCO2IDKPot1*%
X306065000Y-70800000D03*
%TO.P,J1,29,Pin_29*%
%TO.N,VCO2IDKPot2*%
X308605000Y-70800000D03*
%TO.P,J1,30,Pin_30*%
%TO.N,VCO1CoarsePot3*%
X311145000Y-70800000D03*
%TO.P,J1,31,Pin_31*%
%TO.N,SW2p1*%
X313685000Y-70800000D03*
%TO.P,J1,32,Pin_32*%
%TO.N,SW2p2*%
X316225000Y-70800000D03*
%TD*%
D10*
%TO.P,R4,1*%
%TO.N,Net-(R4-Pad1)*%
X281656200Y-103742200D03*
D13*
%TO.P,R4,2*%
%TO.N,cvIn1*%
X294356200Y-103742200D03*
%TD*%
D10*
%TO.P,R18,1*%
%TO.N,Net-(U2B--)*%
X247926200Y-84742200D03*
D13*
%TO.P,R18,2*%
%TO.N,VCO1CoarsePot1*%
X258086200Y-84742200D03*
%TD*%
D10*
%TO.P,C6,1*%
%TO.N,Net-(C6-Pad1)*%
X277506200Y-156242200D03*
%TO.P,C6,2*%
%TO.N,Net-(C6-Pad2)*%
X275006200Y-156242200D03*
%TD*%
%TO.P,R31,1*%
%TO.N,VCO3WaveMixPot3*%
X264446200Y-156242200D03*
D13*
%TO.P,R31,2*%
%TO.N,Net-(C6-Pad1)*%
X272066200Y-156242200D03*
%TD*%
D18*
%TO.P,TH11,1*%
%TO.N,VCO2FMPot1*%
X314506200Y-96742200D03*
D19*
%TO.P,TH11,2*%
%TO.N,Net-(R39-Pad1)*%
X314506200Y-99282200D03*
%TD*%
D20*
%TO.P,R10,1*%
%TO.N,Net-(R10-Pad1)*%
X279531200Y-134717200D03*
%TO.P,R10,2*%
%TO.N,VCO1CoarsePot1*%
X276991200Y-144877200D03*
%TO.P,R10,3*%
%TO.N,N/C*%
X279531200Y-152497200D03*
%TD*%
D10*
%TO.P,R2,1*%
%TO.N,VCO1FMPot1*%
X276346200Y-93742200D03*
D13*
%TO.P,R2,2*%
%TO.N,Net-(R2-Pad2)*%
X286506200Y-93742200D03*
%TD*%
D18*
%TO.P,TH9,1*%
%TO.N,VCO2FMPot2*%
X292156200Y-77522200D03*
D19*
%TO.P,TH9,2*%
%TO.N,Net-(R34-Pad1)*%
X292156200Y-80062200D03*
%TD*%
D10*
%TO.P,R48,1*%
%TO.N,Net-(U3C-+)*%
X296166200Y-124242200D03*
D13*
%TO.P,R48,2*%
%TO.N,VCO1CoarsePot1*%
X286006200Y-124242200D03*
%TD*%
D20*
%TO.P,R3,1*%
%TO.N,Net-(R2-Pad2)*%
X260006200Y-78242200D03*
%TO.P,R3,2*%
%TO.N,VCO1CoarsePot1*%
X270166200Y-80782200D03*
%TO.P,R3,3*%
%TO.N,N/C*%
X277786200Y-78242200D03*
%TD*%
D10*
%TO.P,R39,1*%
%TO.N,Net-(R39-Pad1)*%
X314616200Y-101762200D03*
D13*
%TO.P,R39,2*%
%TO.N,VCO2CoarsePot2*%
X314616200Y-114462200D03*
%TD*%
D10*
%TO.P,R21,1*%
%TO.N,Net-(D4-K)*%
X245506200Y-134042200D03*
D13*
%TO.P,R21,2*%
%TO.N,VCO1CoarsePot1*%
X245506200Y-146742200D03*
%TD*%
D10*
%TO.P,R9,1*%
%TO.N,VCO3FMPot1*%
X293086200Y-134892200D03*
D13*
%TO.P,R9,2*%
%TO.N,Net-(R10-Pad1)*%
X282926200Y-134892200D03*
%TD*%
D10*
%TO.P,R45,1*%
%TO.N,Net-(U3B--)*%
X307426200Y-133822200D03*
D13*
%TO.P,R45,2*%
%TO.N,VCO1CoarsePot1*%
X307426200Y-123662200D03*
%TD*%
D11*
%TO.P,Q4,1,C*%
%TO.N,Net-(D2-K)*%
X253558700Y-112912200D03*
D12*
%TO.P,Q4,2,B*%
%TO.N,Net-(Q3-E)*%
X254828700Y-112912200D03*
%TO.P,Q4,3,E*%
%TO.N,VCO1CoarsePot1*%
X256098700Y-112912200D03*
%TD*%
D10*
%TO.P,C5,1*%
%TO.N,Net-(C5-Pad1)*%
X233256200Y-110742200D03*
%TO.P,C5,2*%
%TO.N,Net-(C5-Pad2)*%
X235756200Y-110742200D03*
%TD*%
%TO.P,R15,1*%
%TO.N,Net-(D3-A)*%
X271006200Y-85742200D03*
D13*
%TO.P,R15,2*%
%TO.N,VCO1PwmPot1*%
X260846200Y-85742200D03*
%TD*%
D10*
%TO.P,R19,1*%
%TO.N,Net-(D4-A)*%
X233006200Y-134822200D03*
D13*
%TO.P,R19,2*%
%TO.N,VCO3PwmPot1*%
X233006200Y-124662200D03*
%TD*%
D10*
%TO.P,R24,1*%
%TO.N,SW1p3*%
X238506200Y-102552200D03*
D13*
%TO.P,R24,2*%
%TO.N,Net-(R22-Pad1)*%
X238506200Y-94932200D03*
%TD*%
D10*
%TO.P,R33,1*%
%TO.N,mixOut*%
X238886200Y-127242200D03*
D13*
%TO.P,R33,2*%
%TO.N,Net-(U4D--)*%
X246506200Y-127242200D03*
%TD*%
D21*
%TO.P,U2,1*%
%TO.N,Net-(U2A--)*%
X249006200Y-89502200D03*
D13*
%TO.P,U2,2,-*%
X249006200Y-92042200D03*
%TO.P,U2,3,+*%
%TO.N,Net-(D1-K)*%
X249006200Y-94582200D03*
%TO.P,U2,4,V+*%
%TO.N,VCO2IDKPot1*%
X249006200Y-97122200D03*
%TO.P,U2,5,+*%
%TO.N,Net-(U2B-+)*%
X249006200Y-99662200D03*
%TO.P,U2,6,-*%
%TO.N,Net-(U2B--)*%
X249006200Y-102202200D03*
%TO.P,U2,7*%
%TO.N,Net-(R22-Pad1)*%
X249006200Y-104742200D03*
%TO.P,U2,8*%
%TO.N,Net-(D3-A)*%
X256626200Y-104742200D03*
%TO.P,U2,9,-*%
%TO.N,VCO1PwmPot1*%
X256626200Y-102202200D03*
%TO.P,U2,10,+*%
%TO.N,Net-(U2B-+)*%
X256626200Y-99662200D03*
%TO.P,U2,11,V-*%
%TO.N,VCO1CoarsePot3*%
X256626200Y-97122200D03*
%TO.P,U2,12,+*%
%TO.N,VCO1CoarsePot1*%
X256626200Y-94582200D03*
%TO.P,U2,13,-*%
X256626200Y-92042200D03*
%TO.P,U2,14*%
%TO.N,unconnected-(U2-Pad14)*%
X256626200Y-89502200D03*
%TD*%
D16*
%TO.P,J3,1,Pin_1*%
%TO.N,SW2p3*%
X316235000Y-165200000D03*
D17*
%TO.P,J3,2,Pin_2*%
%TO.N,VCO1CoarsePot1*%
X313695000Y-165200000D03*
%TO.P,J3,3,Pin_3*%
%TO.N,VCO3CoarsePot2*%
X311155000Y-165200000D03*
%TO.P,J3,4,Pin_4*%
%TO.N,VCO1CoarsePot3*%
X308615000Y-165200000D03*
%TO.P,J3,5,Pin_5*%
%TO.N,VCO1CoarsePot1*%
X306075000Y-165200000D03*
%TO.P,J3,6,Pin_6*%
%TO.N,VCO3FinePot2*%
X303535000Y-165200000D03*
%TO.P,J3,7,Pin_7*%
%TO.N,VCO1CoarsePot3*%
X300995000Y-165200000D03*
%TO.P,J3,8,Pin_8*%
%TO.N,VCO3FMPot1*%
X298455000Y-165200000D03*
%TO.P,J3,9,Pin_9*%
%TO.N,VCO3FMPot2*%
X295915000Y-165200000D03*
%TO.P,J3,10,Pin_10*%
%TO.N,VCO3FMPot3*%
X293375000Y-165200000D03*
%TO.P,J3,11,Pin_11*%
%TO.N,VCO3PwmPot1*%
X290835000Y-165200000D03*
%TO.P,J3,12,Pin_12*%
%TO.N,VCO1CoarsePot1*%
X288295000Y-165200000D03*
%TO.P,J3,13,Pin_13*%
%TO.N,VCO3PwmPot3*%
X285755000Y-165200000D03*
%TO.P,J3,14,Pin_14*%
%TO.N,VCO3WaveMixPot1*%
X283215000Y-165200000D03*
%TO.P,J3,15,Pin_15*%
%TO.N,VCO3WaveMixPot2*%
X280675000Y-165200000D03*
%TO.P,J3,16,Pin_16*%
%TO.N,VCO3WaveMixPot3*%
X278135000Y-165200000D03*
%TO.P,J3,17,Pin_17*%
%TO.N,cvIn1*%
X275595000Y-165200000D03*
%TO.P,J3,18,Pin_18*%
%TO.N,cvIn2*%
X273055000Y-165200000D03*
%TO.P,J3,19,Pin_19*%
%TO.N,cvIn3*%
X270515000Y-165200000D03*
%TO.P,J3,20,Pin_20*%
%TO.N,fmIn1*%
X267975000Y-165200000D03*
%TO.P,J3,21,Pin_21*%
%TO.N,fmIn2*%
X265435000Y-165200000D03*
%TO.P,J3,22,Pin_22*%
%TO.N,fmIn3*%
X262895000Y-165200000D03*
%TO.P,J3,23,Pin_23*%
%TO.N,VCO2PwmPot2*%
X260355000Y-165200000D03*
%TO.P,J3,24,Pin_24*%
%TO.N,SW1p2*%
X257815000Y-165200000D03*
%TO.P,J3,25,Pin_25*%
%TO.N,SW2p2*%
X255275000Y-165200000D03*
%TO.P,J3,26,Pin_26*%
%TO.N,mixOut*%
X252735000Y-165200000D03*
%TO.P,J3,27,Pin_27*%
%TO.N,unconnected-(J3-Pin_27-Pad27)*%
X250195000Y-165200000D03*
%TO.P,J3,28,Pin_28*%
%TO.N,unconnected-(J3-Pin_28-Pad28)*%
X247655000Y-165200000D03*
%TO.P,J3,29,Pin_29*%
%TO.N,unconnected-(J3-Pin_29-Pad29)*%
X245115000Y-165200000D03*
%TO.P,J3,30,Pin_30*%
%TO.N,unconnected-(J3-Pin_30-Pad30)*%
X242575000Y-165200000D03*
%TO.P,J3,31,Pin_31*%
%TO.N,unconnected-(J3-Pin_31-Pad31)*%
X240035000Y-165200000D03*
%TO.P,J3,32,Pin_32*%
%TO.N,unconnected-(J3-Pin_32-Pad32)*%
X237495000Y-165200000D03*
%TD*%
D20*
%TO.P,R36,1*%
%TO.N,Net-(R35-Pad2)*%
X314701200Y-117137200D03*
%TO.P,R36,2*%
%TO.N,VCO1CoarsePot1*%
X312161200Y-127297200D03*
%TO.P,R36,3*%
%TO.N,N/C*%
X314701200Y-134917200D03*
%TD*%
D21*
%TO.P,U1,1*%
%TO.N,Net-(D1-K)*%
X273886200Y-112002200D03*
D13*
%TO.P,U1,2*%
%TO.N,Net-(D1-A)*%
X273886200Y-114542200D03*
%TO.P,U1,3*%
%TO.N,Net-(D3-K)*%
X273886200Y-117082200D03*
%TO.P,U1,4*%
%TO.N,Net-(C5-Pad2)*%
X273886200Y-119622200D03*
%TO.P,U1,5*%
%TO.N,Net-(D5-K)*%
X273886200Y-122162200D03*
%TO.P,U1,6*%
%TO.N,Net-(D5-A)*%
X273886200Y-124702200D03*
%TO.P,U1,7,VSS*%
%TO.N,VCO1CoarsePot1*%
X273886200Y-127242200D03*
%TO.P,U1,8*%
%TO.N,Net-(D2-A)*%
X281506200Y-127242200D03*
%TO.P,U1,9*%
%TO.N,Net-(D2-K)*%
X281506200Y-124702200D03*
%TO.P,U1,10*%
%TO.N,Net-(C6-Pad2)*%
X281506200Y-122162200D03*
%TO.P,U1,11*%
%TO.N,Net-(D4-K)*%
X281506200Y-119622200D03*
%TO.P,U1,12*%
%TO.N,N/C*%
X281506200Y-117082200D03*
%TO.P,U1,13*%
X281506200Y-114542200D03*
%TO.P,U1,14,VDD*%
%TO.N,VCO2IDKPot1*%
X281506200Y-112002200D03*
%TD*%
D10*
%TO.P,R43,1*%
%TO.N,VCO1CoarsePot1*%
X284656200Y-131242200D03*
D13*
%TO.P,R43,2*%
%TO.N,Net-(U3B-+)*%
X297356200Y-131242200D03*
%TD*%
D18*
%TO.P,TH8,1*%
%TO.N,VCO3FMPot1*%
X248866200Y-134392200D03*
D19*
%TO.P,TH8,2*%
%TO.N,Net-(R14-Pad1)*%
X251406200Y-134392200D03*
%TD*%
D11*
%TO.P,Q3,1,C*%
%TO.N,VCO1CoarsePot3*%
X256126200Y-118192200D03*
D12*
%TO.P,Q3,2,B*%
%TO.N,VCO3FMPot1*%
X254856200Y-118192200D03*
%TO.P,Q3,3,E*%
%TO.N,Net-(Q3-E)*%
X253586200Y-118192200D03*
%TD*%
D10*
%TO.P,R12,1*%
%TO.N,VCO2IDKPot1*%
X250006200Y-119362200D03*
D13*
%TO.P,R12,2*%
%TO.N,Net-(Q3-E)*%
X250006200Y-111742200D03*
%TD*%
D10*
%TO.P,R38,1*%
%TO.N,VCO2IDKPot1*%
X310006200Y-142242200D03*
D13*
%TO.P,R38,2*%
%TO.N,Net-(Q5-E)*%
X317626200Y-142242200D03*
%TD*%
D10*
%TO.P,R50,1*%
%TO.N,SW2p1*%
X320506200Y-96162200D03*
D13*
%TO.P,R50,2*%
%TO.N,Net-(U3C--)*%
X320506200Y-106322200D03*
%TD*%
D10*
%TO.P,R35,1*%
%TO.N,VCO2FMPot1*%
X307426200Y-110162200D03*
D13*
%TO.P,R35,2*%
%TO.N,Net-(R35-Pad2)*%
X307426200Y-120322200D03*
%TD*%
D11*
%TO.P,Q2,1,C*%
%TO.N,Net-(D1-K)*%
X273006200Y-98742200D03*
D12*
%TO.P,Q2,2,B*%
%TO.N,Net-(Q1-E)*%
X271736200Y-98742200D03*
%TO.P,Q2,3,E*%
%TO.N,VCO1CoarsePot1*%
X270466200Y-98742200D03*
%TD*%
D10*
%TO.P,R13,1*%
%TO.N,Net-(R13-Pad1)*%
X289506200Y-144892200D03*
D13*
%TO.P,R13,2*%
%TO.N,VCO3CoarsePot2*%
X289506200Y-157592200D03*
%TD*%
D10*
%TO.P,R44,1*%
%TO.N,Net-(U3D--)*%
X285926200Y-120742200D03*
D13*
%TO.P,R44,2*%
%TO.N,VCO1CoarsePot1*%
X296086200Y-120742200D03*
%TD*%
D14*
%TO.P,D1,1,K*%
%TO.N,Net-(D1-K)*%
X269006200Y-109242200D03*
D15*
%TO.P,D1,2,A*%
%TO.N,Net-(D1-A)*%
X269006200Y-114322200D03*
%TD*%
D21*
%TO.P,C9,1*%
%TO.N,VCO2IDKPot1*%
X298636200Y-155382200D03*
D10*
%TO.P,C9,2*%
%TO.N,VCO1CoarsePot1*%
X298636200Y-153382200D03*
%TD*%
D18*
%TO.P,TH1,1*%
%TO.N,VCO1FMPot2*%
X276286200Y-98592200D03*
D19*
%TO.P,TH1,2*%
%TO.N,Net-(R1-Pad1)*%
X278826200Y-98592200D03*
%TD*%
D14*
%TO.P,D4,1,K*%
%TO.N,Net-(D4-K)*%
X241246200Y-134242200D03*
D15*
%TO.P,D4,2,A*%
%TO.N,Net-(D4-A)*%
X236166200Y-134242200D03*
%TD*%
D18*
%TO.P,TH3,1*%
%TO.N,VCO3FMPot2*%
X248786200Y-127242200D03*
D19*
%TO.P,TH3,2*%
%TO.N,Net-(R5-Pad1)*%
X251326200Y-127242200D03*
%TD*%
D18*
%TO.P,TH5,1*%
%TO.N,VCO1FMPot1*%
X232706200Y-101662200D03*
D19*
%TO.P,TH5,2*%
%TO.N,Net-(R8-Pad1)*%
X232706200Y-99122200D03*
%TD*%
D10*
%TO.P,R14,1*%
%TO.N,Net-(R14-Pad1)*%
X253786200Y-134242200D03*
D13*
%TO.P,R14,2*%
%TO.N,VCO3FinePot2*%
X261406200Y-134242200D03*
%TD*%
D11*
%TO.P,Q5,1,C*%
%TO.N,VCO1CoarsePot3*%
X316016200Y-90982200D03*
D12*
%TO.P,Q5,2,B*%
%TO.N,VCO2FMPot1*%
X314746200Y-90982200D03*
%TO.P,Q5,3,E*%
%TO.N,Net-(Q5-E)*%
X313476200Y-90982200D03*
%TD*%
D18*
%TO.P,TH10,1*%
%TO.N,VCO2FMPot1*%
X320546200Y-90432200D03*
D19*
%TO.P,TH10,2*%
%TO.N,Net-(R37-Pad1)*%
X320546200Y-92972200D03*
%TD*%
D10*
%TO.P,C2,1*%
%TO.N,Net-(D2-K)*%
X237506200Y-139742200D03*
%TO.P,C2,2*%
%TO.N,VCO1CoarsePot1*%
X237506200Y-144742200D03*
%TD*%
D16*
%TO.P,J2,1,Pin_1*%
%TO.N,Net-(J2-Pin_1)*%
X320466200Y-147582200D03*
D17*
%TO.P,J2,2,Pin_2*%
X323006200Y-147582200D03*
%TO.P,J2,3,Pin_3*%
%TO.N,VCO1CoarsePot1*%
X320466200Y-150122200D03*
%TO.P,J2,4,Pin_4*%
X323006200Y-150122200D03*
%TO.P,J2,5,Pin_5*%
X320466200Y-152662200D03*
%TO.P,J2,6,Pin_6*%
X323006200Y-152662200D03*
%TO.P,J2,7,Pin_7*%
X320466200Y-155202200D03*
%TO.P,J2,8,Pin_8*%
X323006200Y-155202200D03*
%TO.P,J2,9,Pin_9*%
%TO.N,Net-(J2-Pin_10)*%
X320466200Y-157742200D03*
%TO.P,J2,10,Pin_10*%
X323006200Y-157742200D03*
%TD*%
D21*
%TO.P,U3,1*%
%TO.N,Net-(U3A--)*%
X302206200Y-89617200D03*
D13*
%TO.P,U3,2,-*%
X302206200Y-92157200D03*
%TO.P,U3,3,+*%
%TO.N,Net-(D5-K)*%
X302206200Y-94697200D03*
%TO.P,U3,4,V+*%
%TO.N,VCO2IDKPot1*%
X302206200Y-97237200D03*
%TO.P,U3,5,+*%
%TO.N,Net-(U3B-+)*%
X302206200Y-99777200D03*
%TO.P,U3,6,-*%
%TO.N,Net-(U3B--)*%
X302206200Y-102317200D03*
%TO.P,U3,7*%
%TO.N,Net-(R47-Pad1)*%
X302206200Y-104857200D03*
%TO.P,U3,8*%
%TO.N,Net-(U3C--)*%
X309826200Y-104857200D03*
%TO.P,U3,9,-*%
X309826200Y-102317200D03*
%TO.P,U3,10,+*%
%TO.N,Net-(U3C-+)*%
X309826200Y-99777200D03*
%TO.P,U3,11,V-*%
%TO.N,VCO1CoarsePot3*%
X309826200Y-97237200D03*
%TO.P,U3,12,+*%
%TO.N,Net-(U3B-+)*%
X309826200Y-94697200D03*
%TO.P,U3,13,-*%
%TO.N,Net-(U3D--)*%
X309826200Y-92157200D03*
%TO.P,U3,14*%
%TO.N,Net-(R46-Pad2)*%
X309826200Y-89617200D03*
%TD*%
D21*
%TO.P,U4,1*%
%TO.N,Net-(U4A--)*%
X251886200Y-139702200D03*
D13*
%TO.P,U4,2,-*%
X251886200Y-142242200D03*
%TO.P,U4,3,+*%
%TO.N,Net-(D2-K)*%
X251886200Y-144782200D03*
%TO.P,U4,4,V+*%
%TO.N,VCO2IDKPot1*%
X251886200Y-147322200D03*
%TO.P,U4,5,+*%
%TO.N,Net-(U4B-+)*%
X251886200Y-149862200D03*
%TO.P,U4,6,-*%
%TO.N,Net-(U4B--)*%
X251886200Y-152402200D03*
%TO.P,U4,7*%
%TO.N,Net-(R27-Pad1)*%
X251886200Y-154942200D03*
%TO.P,U4,8*%
%TO.N,Net-(D4-A)*%
X259506200Y-154942200D03*
%TO.P,U4,9,-*%
%TO.N,VCO3PwmPot1*%
X259506200Y-152402200D03*
%TO.P,U4,10,+*%
%TO.N,Net-(U4B-+)*%
X259506200Y-149862200D03*
%TO.P,U4,11,V-*%
%TO.N,VCO1CoarsePot3*%
X259506200Y-147322200D03*
%TO.P,U4,12,+*%
%TO.N,VCO3WaveMixPot2*%
X259506200Y-144782200D03*
%TO.P,U4,13,-*%
%TO.N,Net-(U4D--)*%
X259506200Y-142242200D03*
%TO.P,U4,14*%
X259506200Y-139702200D03*
%TD*%
D18*
%TO.P,TH2,1*%
%TO.N,VCO1FMPot1*%
X276286200Y-102242200D03*
D19*
%TO.P,TH2,2*%
%TO.N,Net-(R4-Pad1)*%
X278826200Y-102242200D03*
%TD*%
D10*
%TO.P,R8,1*%
%TO.N,Net-(R8-Pad1)*%
X238506200Y-92052200D03*
D13*
%TO.P,R8,2*%
%TO.N,VCO1FinePot2*%
X238506200Y-84432200D03*
%TD*%
D10*
%TO.P,R40,1*%
%TO.N,Net-(R40-Pad1)*%
X321094700Y-82433100D03*
D13*
%TO.P,R40,2*%
%TO.N,VCO2FinePot2*%
X321094700Y-74813100D03*
%TD*%
D10*
%TO.P,R22,1*%
%TO.N,Net-(R22-Pad1)*%
X244006200Y-96592200D03*
D13*
%TO.P,R22,2*%
%TO.N,Net-(U2B--)*%
X244006200Y-83892200D03*
%TD*%
D14*
%TO.P,D3,1,K*%
%TO.N,Net-(D3-K)*%
X287246200Y-79242200D03*
D15*
%TO.P,D3,2,A*%
%TO.N,Net-(D3-A)*%
X282166200Y-79242200D03*
%TD*%
D10*
%TO.P,R5,1*%
%TO.N,Net-(R5-Pad1)*%
X254306200Y-129242200D03*
D13*
%TO.P,R5,2*%
%TO.N,fmIn3*%
X267006200Y-129242200D03*
%TD*%
D10*
%TO.P,C1,1*%
%TO.N,Net-(D1-K)*%
X266506200Y-100742200D03*
%TO.P,C1,2*%
%TO.N,VCO1CoarsePot1*%
X266506200Y-95742200D03*
%TD*%
%TO.P,C8,1*%
%TO.N,Net-(U3B-+)*%
X296506200Y-92242200D03*
%TO.P,C8,2*%
%TO.N,Net-(U3A--)*%
X296506200Y-89742200D03*
%TD*%
%TO.P,R37,1*%
%TO.N,Net-(R37-Pad1)*%
X320506200Y-109742200D03*
D13*
%TO.P,R37,2*%
%TO.N,cvIn2*%
X320506200Y-122442200D03*
%TD*%
D10*
%TO.P,R16,1*%
%TO.N,VCO1CoarsePot1*%
X256006200Y-78742200D03*
D13*
%TO.P,R16,2*%
%TO.N,Net-(U2B-+)*%
X243306200Y-78742200D03*
%TD*%
D10*
%TO.P,R41,1*%
%TO.N,Net-(U3D--)*%
X285886200Y-110742200D03*
D13*
%TO.P,R41,2*%
%TO.N,VCO2IDKPot2*%
X298586200Y-110742200D03*
%TD*%
D10*
%TO.P,R1,1*%
%TO.N,Net-(R1-Pad1)*%
X282156200Y-98242200D03*
D13*
%TO.P,R1,2*%
%TO.N,fmIn1*%
X294856200Y-98242200D03*
%TD*%
D10*
%TO.P,R32,1*%
%TO.N,VCO3WaveMixPot3*%
X264756200Y-152942200D03*
D13*
%TO.P,R32,2*%
%TO.N,VCO1CoarsePot1*%
X264756200Y-140242200D03*
%TD*%
D10*
%TO.P,R6,1*%
%TO.N,VCO2IDKPot1*%
X259696200Y-91742200D03*
D13*
%TO.P,R6,2*%
%TO.N,Net-(Q1-E)*%
X267316200Y-91742200D03*
%TD*%
D14*
%TO.P,D5,1,K*%
%TO.N,Net-(D5-K)*%
X308506200Y-79742200D03*
D15*
%TO.P,D5,2,A*%
%TO.N,Net-(D5-A)*%
X308506200Y-84822200D03*
%TD*%
D10*
%TO.P,R47,1*%
%TO.N,Net-(R47-Pad1)*%
X309006200Y-137742200D03*
D13*
%TO.P,R47,2*%
%TO.N,Net-(U3B--)*%
X296306200Y-137742200D03*
%TD*%
D10*
%TO.P,R46,1*%
%TO.N,Net-(U3C-+)*%
X302506200Y-122742200D03*
D13*
%TO.P,R46,2*%
%TO.N,Net-(R46-Pad2)*%
X302506200Y-110042200D03*
%TD*%
D10*
%TO.P,R7,1*%
%TO.N,Net-(R7-Pad1)*%
X232506200Y-90942200D03*
D13*
%TO.P,R7,2*%
%TO.N,VCO1CoarsePot2*%
X232506200Y-78242200D03*
%TD*%
D18*
%TO.P,TH6,1*%
%TO.N,VCO3FMPot1*%
X289006200Y-139522200D03*
D19*
%TO.P,TH6,2*%
%TO.N,Net-(R11-Pad1)*%
X289006200Y-142062200D03*
%TD*%
D10*
%TO.P,C3,1*%
%TO.N,Net-(U2B-+)*%
X238806200Y-78492200D03*
%TO.P,C3,2*%
%TO.N,Net-(U2A--)*%
X238806200Y-80992200D03*
%TD*%
%TO.P,R23,1*%
%TO.N,Net-(U4B--)*%
X234426200Y-149742200D03*
D13*
%TO.P,R23,2*%
%TO.N,VCO1CoarsePot1*%
X244586200Y-149742200D03*
%TD*%
D10*
%TO.P,R29,1*%
%TO.N,VCO3WaveMixPot1*%
X244006200Y-154742200D03*
D13*
%TO.P,R29,2*%
%TO.N,Net-(R27-Pad1)*%
X236386200Y-154742200D03*
%TD*%
D10*
%TO.P,R25,1*%
%TO.N,Net-(C5-Pad1)*%
X244006200Y-99392200D03*
D13*
%TO.P,R25,2*%
%TO.N,VCO1CoarsePot1*%
X244006200Y-112092200D03*
%TD*%
D10*
%TO.P,R30,1*%
%TO.N,Net-(C6-Pad1)*%
X271756200Y-153242200D03*
D13*
%TO.P,R30,2*%
%TO.N,VCO1CoarsePot1*%
X271756200Y-140542200D03*
%TD*%
D10*
%TO.P,R51,1*%
%TO.N,VCO2IDKPot1*%
X306056200Y-154882200D03*
D13*
%TO.P,R51,2*%
%TO.N,Net-(J2-Pin_10)*%
X316216200Y-154882200D03*
%TD*%
D10*
%TO.P,R34,1*%
%TO.N,Net-(R34-Pad1)*%
X291806200Y-84242200D03*
D13*
%TO.P,R34,2*%
%TO.N,fmIn2*%
X304506200Y-84242200D03*
%TD*%
D10*
%TO.P,R52,1*%
%TO.N,VCO1CoarsePot3*%
X305976200Y-147882200D03*
D13*
%TO.P,R52,2*%
%TO.N,Net-(J2-Pin_1)*%
X316136200Y-147882200D03*
%TD*%
D10*
%TO.P,R26,1*%
%TO.N,SW1p1*%
X230386200Y-106242200D03*
D13*
%TO.P,R26,2*%
%TO.N,Net-(C5-Pad1)*%
X238006200Y-106242200D03*
%TD*%
D10*
%TO.P,R11,1*%
%TO.N,Net-(R11-Pad1)*%
X284006200Y-138042200D03*
D13*
%TO.P,R11,2*%
%TO.N,cvIn3*%
X284006200Y-150742200D03*
%TD*%
D21*
%TO.P,C10,1*%
%TO.N,VCO1CoarsePot1*%
X298636200Y-149382200D03*
D10*
%TO.P,C10,2*%
%TO.N,VCO1CoarsePot3*%
X298636200Y-147382200D03*
%TD*%
D18*
%TO.P,TH4,1*%
%TO.N,VCO1FMPot1*%
X232706200Y-96342200D03*
D19*
%TO.P,TH4,2*%
%TO.N,Net-(R7-Pad1)*%
X232706200Y-93802200D03*
%TD*%
D10*
%TO.P,R49,1*%
%TO.N,SW2p3*%
X320506200Y-135822200D03*
D13*
%TO.P,R49,2*%
%TO.N,Net-(R47-Pad1)*%
X320506200Y-125662200D03*
%TD*%
D18*
%TO.P,TH12,1*%
%TO.N,VCO2FMPot1*%
X320506200Y-87522200D03*
D19*
%TO.P,TH12,2*%
%TO.N,Net-(R40-Pad1)*%
X320506200Y-84982200D03*
%TD*%
D18*
%TO.P,TH7,1*%
%TO.N,VCO3FMPot1*%
X248866200Y-131242200D03*
D19*
%TO.P,TH7,2*%
%TO.N,Net-(R13-Pad1)*%
X251406200Y-131242200D03*
%TD*%
D10*
%TO.P,R28,1*%
%TO.N,SW1p1*%
X231156200Y-116242200D03*
D13*
%TO.P,R28,2*%
%TO.N,VCO1CoarsePot1*%
X243856200Y-116242200D03*
%TD*%
D22*
%TO.N,VCO2PwmPot2*%
X291750000Y-89250000D03*
X285750000Y-161500000D03*
X295500000Y-86750000D03*
%TO.N,SW2p2*%
X323750000Y-143250000D03*
X262500000Y-151000000D03*
%TO.N,SW1p2*%
X269250000Y-162500000D03*
%TO.N,Net-(D2-A)*%
X277500000Y-137250000D03*
%TO.N,Net-(D5-A)*%
X279750000Y-84500000D03*
%TO.N,VCO3FMPot2*%
X254000000Y-167240000D03*
%TO.N,mixOut*%
X239500000Y-162500000D03*
%TO.N,cvIn1*%
X284500000Y-107500000D03*
%TO.N,VCO3WaveMixPot2*%
X281500000Y-143500000D03*
%TO.N,cvIn2*%
X277750000Y-132250000D03*
%TO.N,cvIn3*%
X273750000Y-149750000D03*
%TO.N,fmIn1*%
X270750000Y-106250000D03*
%TO.N,fmIn2*%
X266500000Y-89500000D03*
%TO.N,VCO3FinePot2*%
X268500000Y-150500000D03*
%TO.N,SW1p3*%
X270000000Y-102750000D03*
%TO.N,VCO2CoarsePot2*%
X280750000Y-108250000D03*
%TO.N,Net-(D5-K)*%
X274250000Y-90750000D03*
%TO.N,Net-(D3-A)*%
X264250000Y-88500000D03*
%TO.N,VCO1FMPot2*%
X274250000Y-75250000D03*
%TO.N,Net-(D5-K)*%
X299500000Y-91000000D03*
%TO.N,Net-(D3-K)*%
X282750000Y-107500000D03*
X275250000Y-108000000D03*
%TO.N,VCO2FMPot1*%
X314500000Y-73500000D03*
%TO.N,Net-(D4-K)*%
X271250000Y-121250000D03*
X271250000Y-132500000D03*
%TO.N,Net-(D2-K)*%
X283250000Y-118500000D03*
%TO.N,Net-(U3D--)*%
X311000000Y-107500000D03*
%TO.N,SW1p1*%
X231000000Y-69750000D03*
%TO.N,VCO1FMPot1*%
X252750000Y-86750000D03*
%TO.N,Net-(U4D--)*%
X248050000Y-138750000D03*
%TO.N,Net-(R13-Pad1)*%
X274000000Y-141750000D03*
X273500000Y-132000000D03*
%TO.N,VCO3FinePot2*%
X267750000Y-135000000D03*
%TO.N,Net-(R2-Pad2)*%
X289750000Y-76250000D03*
%TO.N,Net-(D2-K)*%
X239519653Y-113480347D03*
%TO.N,VCO3PwmPot1*%
X255750000Y-125750000D03*
%TO.N,Net-(D4-A)*%
X255000000Y-136500000D03*
%TO.N,Net-(R46-Pad2)*%
X304500000Y-98250000D03*
X304500000Y-101000000D03*
%TO.N,Net-(R37-Pad1)*%
X317250000Y-97500000D03*
%TO.N,VCO3FMPot1*%
X294500000Y-149000000D03*
X292500000Y-146272200D03*
%TO.N,VCO3WaveMixPot3*%
X264500000Y-160750000D03*
%TO.N,VCO2IDKPot1*%
X260500000Y-93500000D03*
X263000000Y-96000000D03*
%TD*%
D23*
%TO.N,VCO2PwmPot2*%
X291750000Y-88000000D02*
X291750000Y-89250000D01*
X295500000Y-86750000D02*
X295000000Y-87250000D01*
X295000000Y-87250000D02*
X292500000Y-87250000D01*
X292500000Y-87250000D02*
X291750000Y-88000000D01*
X285750000Y-161500000D02*
X284391000Y-162859000D01*
X284391000Y-162859000D02*
X284391000Y-166109000D01*
X284391000Y-166109000D02*
X283750000Y-166750000D01*
X283750000Y-166750000D02*
X261905000Y-166750000D01*
X261905000Y-166750000D02*
X260355000Y-165200000D01*
%TO.N,SW2p2*%
X323750000Y-143250000D02*
X321750000Y-145250000D01*
X321750000Y-145250000D02*
X291750000Y-145250000D01*
X291750000Y-145250000D02*
X288263800Y-148736200D01*
X288263800Y-148736200D02*
X264763800Y-148736200D01*
X264763800Y-148736200D02*
X262500000Y-151000000D01*
%TO.N,SW1p2*%
X257815000Y-165200000D02*
X257815000Y-163435000D01*
X258750000Y-162500000D02*
X269250000Y-162500000D01*
X257815000Y-163435000D02*
X258750000Y-162500000D01*
%TO.N,VCO3FMPot1*%
X289006200Y-139522200D02*
X285984000Y-136500000D01*
X285984000Y-136500000D02*
X279548962Y-136500000D01*
X264298962Y-121250000D02*
X256857000Y-121250000D01*
X279548962Y-136500000D02*
X264298962Y-121250000D01*
X256857000Y-121250000D02*
X254856200Y-119249200D01*
X254856200Y-119249200D02*
X254856200Y-118192200D01*
%TO.N,Net-(D2-A)*%
X271498400Y-137250000D02*
X277500000Y-137250000D01*
%TO.N,Net-(D5-A)*%
X279750000Y-84500000D02*
X289750000Y-84500000D01*
X291000000Y-85750000D02*
X292500000Y-85750000D01*
X306500000Y-84500000D02*
X308184000Y-84500000D01*
X289750000Y-84500000D02*
X291000000Y-85750000D01*
X292500000Y-85750000D02*
X293750000Y-84500000D01*
X293750000Y-84500000D02*
X302500000Y-84500000D01*
X308184000Y-84500000D02*
X308506200Y-84822200D01*
X302500000Y-84500000D02*
X303500000Y-85500000D01*
X303500000Y-85500000D02*
X305500000Y-85500000D01*
X305500000Y-85500000D02*
X306500000Y-84500000D01*
%TO.N,fmIn2*%
X304506200Y-84242200D02*
X302014000Y-81750000D01*
X302014000Y-81750000D02*
X282500000Y-81750000D01*
X282500000Y-81750000D02*
X280750000Y-83500000D01*
X280750000Y-83500000D02*
X275000000Y-83500000D01*
X275000000Y-83500000D02*
X270000000Y-88500000D01*
X270000000Y-88500000D02*
X267500000Y-88500000D01*
X267500000Y-88500000D02*
X266500000Y-89500000D01*
%TO.N,Net-(D3-A)*%
X282166200Y-79242200D02*
X282166200Y-80083800D01*
X282166200Y-80083800D02*
X279750000Y-82500000D01*
X279750000Y-82500000D02*
X274248400Y-82500000D01*
X274248400Y-82500000D02*
X271006200Y-85742200D01*
%TO.N,VCO3FMPot2*%
X254000000Y-167240000D02*
X293875000Y-167240000D01*
X293875000Y-167240000D02*
X295915000Y-165200000D01*
%TO.N,mixOut*%
X250035000Y-162500000D02*
X239500000Y-162500000D01*
X252735000Y-165200000D02*
X250035000Y-162500000D01*
%TO.N,cvIn1*%
X284500000Y-107500000D02*
X288257800Y-103742200D01*
X288257800Y-103742200D02*
X294356200Y-103742200D01*
%TO.N,VCO3WaveMixPot2*%
X281500000Y-143500000D02*
X281000000Y-143000000D01*
X281000000Y-143000000D02*
X261288400Y-143000000D01*
X261288400Y-143000000D02*
X259506200Y-144782200D01*
%TO.N,cvIn2*%
X277750000Y-132250000D02*
X279750000Y-132250000D01*
X279750000Y-132250000D02*
X285500000Y-126500000D01*
X285500000Y-126500000D02*
X311224574Y-126500000D01*
X311224574Y-126500000D02*
X311653374Y-126071200D01*
X316448400Y-126500000D02*
X320506200Y-122442200D01*
X311653374Y-126071200D02*
X312669026Y-126071200D01*
X312669026Y-126071200D02*
X313097826Y-126500000D01*
X313097826Y-126500000D02*
X316448400Y-126500000D01*
%TO.N,cvIn3*%
X273750000Y-149750000D02*
X283014000Y-149750000D01*
X283014000Y-149750000D02*
X284006200Y-150742200D01*
%TO.N,fmIn1*%
X283000000Y-105500000D02*
X290257800Y-98242200D01*
X290257800Y-98242200D02*
X294856200Y-98242200D01*
X270750000Y-106250000D02*
X271500000Y-105500000D01*
X271500000Y-105500000D02*
X283000000Y-105500000D01*
%TO.N,VCO3FinePot2*%
X268500000Y-150500000D02*
X268750000Y-150750000D01*
X268750000Y-150750000D02*
X280250000Y-150750000D01*
X280250000Y-150750000D02*
X292468200Y-162968200D01*
X292468200Y-162968200D02*
X301303200Y-162968200D01*
X301303200Y-162968200D02*
X303535000Y-165200000D01*
%TO.N,SW1p3*%
X270000000Y-102750000D02*
X269500000Y-103250000D01*
X269500000Y-103250000D02*
X268750000Y-103250000D01*
X268750000Y-103250000D02*
X268671800Y-103328200D01*
X268671800Y-103328200D02*
X239282200Y-103328200D01*
X239282200Y-103328200D02*
X238506200Y-102552200D01*
%TO.N,VCO2CoarsePot2*%
X280750000Y-108250000D02*
X286000000Y-113500000D01*
X286000000Y-113500000D02*
X313654000Y-113500000D01*
X313654000Y-113500000D02*
X314616200Y-114462200D01*
%TO.N,Net-(D5-K)*%
X274250000Y-90750000D02*
X274500000Y-90500000D01*
X274500000Y-90500000D02*
X292250000Y-90500000D01*
X296972605Y-90868200D02*
X297104405Y-91000000D01*
X292250000Y-90500000D02*
X292618200Y-90868200D01*
X292618200Y-90868200D02*
X296972605Y-90868200D01*
X297104405Y-91000000D02*
X299500000Y-91000000D01*
%TO.N,SW1p1*%
X231000000Y-69750000D02*
X232000000Y-68750000D01*
X232000000Y-68750000D02*
X267000000Y-68750000D01*
X267000000Y-68750000D02*
X267965000Y-69715000D01*
X267965000Y-69715000D02*
X267965000Y-70800000D01*
%TO.N,Net-(D3-A)*%
X264250000Y-88500000D02*
X267007800Y-85742200D01*
X267007800Y-85742200D02*
X271006200Y-85742200D01*
%TO.N,VCO1FMPot2*%
X256750000Y-75250000D02*
X274250000Y-75250000D01*
%TO.N,Net-(D3-K)*%
X275750000Y-107500000D02*
X282750000Y-107500000D01*
X275250000Y-108000000D02*
X275750000Y-107500000D01*
%TO.N,VCO2FMPot1*%
X314500000Y-73500000D02*
X291500000Y-73500000D01*
X291500000Y-73500000D02*
X290825000Y-72825000D01*
X290825000Y-72825000D02*
X290825000Y-70800000D01*
%TO.N,Net-(D4-K)*%
X245506200Y-134042200D02*
X247048400Y-132500000D01*
X247048400Y-132500000D02*
X271250000Y-132500000D01*
X271250000Y-121250000D02*
X271750000Y-120750000D01*
X271750000Y-120750000D02*
X280378400Y-120750000D01*
X280378400Y-120750000D02*
X281506200Y-119622200D01*
%TO.N,Net-(D2-K)*%
X253558700Y-112912200D02*
X253558700Y-113808700D01*
X253558700Y-113808700D02*
X254000000Y-114250000D01*
X254000000Y-114250000D02*
X266250000Y-114250000D01*
X266250000Y-114250000D02*
X270250000Y-118250000D01*
X270250000Y-118250000D02*
X283000000Y-118250000D01*
X283000000Y-118250000D02*
X283250000Y-118500000D01*
%TO.N,Net-(C5-Pad2)*%
X235756200Y-110742200D02*
X240014000Y-115000000D01*
X240014000Y-115000000D02*
X265750000Y-115000000D01*
X265750000Y-115000000D02*
X270372200Y-119622200D01*
X270372200Y-119622200D02*
X273886200Y-119622200D01*
%TO.N,Net-(U3D--)*%
X289128400Y-107500000D02*
X311000000Y-107500000D01*
X285886200Y-110742200D02*
X289128400Y-107500000D01*
%TO.N,VCO1FMPot1*%
X252750000Y-86750000D02*
X257250000Y-86750000D01*
X257250000Y-86750000D02*
X265000000Y-94500000D01*
X265000000Y-94500000D02*
X269455200Y-94500000D01*
X269455200Y-94500000D02*
X269455200Y-94518200D01*
X271557200Y-94518200D02*
X271557200Y-94500000D01*
X269455200Y-94518200D02*
X271557200Y-94518200D01*
X271575400Y-94500000D02*
X271776200Y-94299200D01*
X271557200Y-94500000D02*
X271575400Y-94500000D01*
X271776200Y-94299200D02*
X271776200Y-93242200D01*
%TO.N,VCO1FMPot2*%
X256750000Y-75250000D02*
X255265000Y-73765000D01*
X255265000Y-73765000D02*
X255265000Y-70800000D01*
%TO.N,Net-(U4D--)*%
X248050000Y-138750000D02*
X248800000Y-138000000D01*
X248800000Y-138000000D02*
X257804000Y-138000000D01*
X257804000Y-138000000D02*
X259506200Y-139702200D01*
%TO.N,Net-(R13-Pad1)*%
X274000000Y-141750000D02*
X286364000Y-141750000D01*
X251406200Y-131242200D02*
X272742200Y-131242200D01*
X272742200Y-131242200D02*
X273500000Y-132000000D01*
X286364000Y-141750000D02*
X289506200Y-144892200D01*
%TO.N,VCO3FinePot2*%
X266992200Y-134242200D02*
X261406200Y-134242200D01*
X267750000Y-135000000D02*
X266992200Y-134242200D01*
%TO.N,Net-(U2A--)*%
X238806200Y-80992200D02*
X247316200Y-89502200D01*
X247316200Y-89502200D02*
X249006200Y-89502200D01*
%TO.N,Net-(R2-Pad2)*%
X261998400Y-76250000D02*
X289750000Y-76250000D01*
X260006200Y-78242200D02*
X261998400Y-76250000D01*
%TO.N,Net-(D2-K)*%
X239519653Y-113480347D02*
X252990553Y-113480347D01*
X252990553Y-113480347D02*
X253558700Y-112912200D01*
%TO.N,VCO3PwmPot1*%
X255750000Y-125750000D02*
X255000000Y-125000000D01*
X255000000Y-125000000D02*
X233344000Y-125000000D01*
X233344000Y-125000000D02*
X233006200Y-124662200D01*
%TO.N,Net-(D4-A)*%
X255000000Y-136500000D02*
X238424000Y-136500000D01*
X238424000Y-136500000D02*
X236166200Y-134242200D01*
%TO.N,Net-(R46-Pad2)*%
X304500000Y-101000000D02*
X304500000Y-98250000D01*
%TO.N,VCO2FMPot1*%
X314506200Y-96742200D02*
X315457000Y-95791400D01*
X315457000Y-95791400D02*
X315457000Y-92750000D01*
%TO.N,Net-(R37-Pad1)*%
X317250000Y-96268400D02*
X320546200Y-92972200D01*
X317250000Y-97500000D02*
X317250000Y-96268400D01*
%TO.N,VCO3FMPot1*%
X292500000Y-147000000D02*
X294500000Y-149000000D01*
X292500000Y-146272200D02*
X292500000Y-147000000D01*
%TO.N,VCO3CoarsePot2*%
X311155000Y-165200000D02*
X311155000Y-159155000D01*
X311155000Y-159155000D02*
X309592200Y-157592200D01*
X309592200Y-157592200D02*
X289506200Y-157592200D01*
%TO.N,VCO3WaveMixPot3*%
X273685000Y-160750000D02*
X264500000Y-160750000D01*
X278135000Y-165200000D02*
X273685000Y-160750000D01*
%TO.N,VCO3WaveMixPot1*%
X283215000Y-165200000D02*
X283215000Y-161215000D01*
X283215000Y-161215000D02*
X281750000Y-159750000D01*
X281750000Y-159750000D02*
X259500000Y-159750000D01*
X259500000Y-159750000D02*
X253500000Y-153750000D01*
X253500000Y-153750000D02*
X244998400Y-153750000D01*
X244998400Y-153750000D02*
X244006200Y-154742200D01*
%TO.N,VCO3PwmPot1*%
X259506200Y-152402200D02*
X262402200Y-152402200D01*
X262402200Y-152402200D02*
X268750000Y-158750000D01*
X268750000Y-158750000D02*
X286750000Y-158750000D01*
X286750000Y-158750000D02*
X290835000Y-162835000D01*
X290835000Y-162835000D02*
X290835000Y-165200000D01*
%TO.N,Net-(D5-K)*%
X313506200Y-85482200D02*
X311421200Y-85482200D01*
X311421200Y-85482200D02*
X302206200Y-94697200D01*
%TO.N,Net-(U3B-+)*%
X296506200Y-92242200D02*
X296506200Y-95756200D01*
X296506200Y-95756200D02*
X300527200Y-99777200D01*
X300527200Y-99777200D02*
X302206200Y-99777200D01*
%TO.N,Net-(R10-Pad1)*%
X279531200Y-134717200D02*
X282751200Y-134717200D01*
X282751200Y-134717200D02*
X282926200Y-134892200D01*
%TO.N,Net-(U4B-+)*%
X251886200Y-149862200D02*
X259506200Y-149862200D01*
%TO.N,VCO2FinePot2*%
X321094700Y-74813100D02*
X287063100Y-74813100D01*
X287063100Y-74813100D02*
X285745000Y-73495000D01*
X285745000Y-73495000D02*
X285745000Y-70800000D01*
%TO.N,VCO2FMPot1*%
X314746200Y-90982200D02*
X314746200Y-92039200D01*
X314746200Y-92039200D02*
X315457000Y-92750000D01*
X318228400Y-92750000D02*
X320546200Y-90432200D01*
X315457000Y-92750000D02*
X318228400Y-92750000D01*
%TO.N,Net-(U3C--)*%
X309826200Y-104857200D02*
X310719000Y-105750000D01*
X310719000Y-105750000D02*
X319934000Y-105750000D01*
X319934000Y-105750000D02*
X320506200Y-106322200D01*
%TO.N,Net-(D2-A)*%
X232506200Y-137902200D02*
X233158400Y-137250000D01*
X233158400Y-137250000D02*
X271498400Y-137250000D01*
%TO.N,Net-(D1-K)*%
X266506200Y-100742200D02*
X264300200Y-98536200D01*
X264300200Y-98536200D02*
X252960200Y-98536200D01*
X252960200Y-98536200D02*
X249006200Y-94582200D01*
X269006200Y-109242200D02*
X271126200Y-109242200D01*
X271126200Y-109242200D02*
X273886200Y-112002200D01*
%TO.N,Net-(D1-A)*%
X269006200Y-114322200D02*
X273666200Y-114322200D01*
X273666200Y-114322200D02*
X273886200Y-114542200D01*
%TO.N,Net-(D1-K)*%
X266506200Y-100742200D02*
X272257800Y-100742200D01*
X272257800Y-100742200D02*
X273006200Y-99993800D01*
X273006200Y-99993800D02*
X273006200Y-98742200D01*
%TO.N,Net-(U4B--)*%
X234426200Y-149742200D02*
X237086200Y-152402200D01*
X237086200Y-152402200D02*
X251886200Y-152402200D01*
%TO.N,Net-(R11-Pad1)*%
X284006200Y-138042200D02*
X288026200Y-142062200D01*
X288026200Y-142062200D02*
X289006200Y-142062200D01*
%TO.N,Net-(U3B--)*%
X307426200Y-133822200D02*
X297177800Y-133822200D01*
X297177800Y-133822200D02*
X296306200Y-134693800D01*
X296306200Y-134693800D02*
X296306200Y-137742200D01*
%TO.N,Net-(U3C-+)*%
X296166200Y-124242200D02*
X301006200Y-124242200D01*
X301006200Y-124242200D02*
X302506200Y-122742200D01*
%TO.N,Net-(Q3-E)*%
X250006200Y-111742200D02*
X250748400Y-111000000D01*
X254828700Y-111328700D02*
X254828700Y-112912200D01*
X250748400Y-111000000D02*
X254500000Y-111000000D01*
X254500000Y-111000000D02*
X254828700Y-111328700D01*
%TO.N,Net-(C5-Pad1)*%
X233256200Y-110742200D02*
X233256200Y-109243800D01*
X233256200Y-109243800D02*
X234000000Y-108500000D01*
X234000000Y-108500000D02*
X237000000Y-108500000D01*
X237000000Y-108500000D02*
X238006200Y-107493800D01*
X238006200Y-107493800D02*
X238006200Y-106242200D01*
%TO.N,Net-(R4-Pad1)*%
X278826200Y-102242200D02*
X278826200Y-103326200D01*
X279242200Y-103742200D02*
X281656200Y-103742200D01*
X278826200Y-103326200D02*
X279242200Y-103742200D01*
%TO.N,Net-(R1-Pad1)*%
X278826200Y-98592200D02*
X281806200Y-98592200D01*
X281806200Y-98592200D02*
X282156200Y-98242200D01*
%TO.N,VCO1FMPot1*%
X276346200Y-93742200D02*
X275088400Y-95000000D01*
X275088400Y-95000000D02*
X272500000Y-95000000D01*
X272500000Y-95000000D02*
X271776200Y-94276200D01*
X271776200Y-94276200D02*
X271776200Y-93242200D01*
%TO.N,Net-(Q1-E)*%
X267316200Y-91742200D02*
X272742200Y-91742200D01*
X272742200Y-91742200D02*
X273046200Y-92046200D01*
X273046200Y-92046200D02*
X273046200Y-93242200D01*
%TO.N,Net-(U2B-+)*%
X249006200Y-99662200D02*
X256626200Y-99662200D01*
%TO.N,Net-(D5-K)*%
X308506200Y-79742200D02*
X311746200Y-79742200D01*
X311746200Y-79742200D02*
X312006200Y-79482200D01*
%TO.N,Net-(U3A--)*%
X296506200Y-89742200D02*
X302081200Y-89742200D01*
X302081200Y-89742200D02*
X302206200Y-89617200D01*
%TO.N,Net-(R35-Pad2)*%
X307426200Y-120322200D02*
X314177800Y-120322200D01*
X314701200Y-119798800D02*
X314701200Y-117137200D01*
X314177800Y-120322200D02*
X314701200Y-119798800D01*
%TO.N,Net-(J2-Pin_10)*%
X316216200Y-154882200D02*
X316216200Y-157216200D01*
X316216200Y-157216200D02*
X316742200Y-157742200D01*
X316742200Y-157742200D02*
X320466200Y-157742200D01*
%TO.N,Net-(J2-Pin_1)*%
X320466200Y-147582200D02*
X316436200Y-147582200D01*
X316436200Y-147582200D02*
X316136200Y-147882200D01*
X320466200Y-147582200D02*
X323006200Y-147582200D01*
%TO.N,Net-(J2-Pin_10)*%
X320466200Y-157742200D02*
X323006200Y-157742200D01*
%TO.N,Net-(C6-Pad1)*%
X272066200Y-156242200D02*
X272066200Y-157566200D01*
X272066200Y-157566200D02*
X272500000Y-158000000D01*
X272500000Y-158000000D02*
X277000000Y-158000000D01*
X277000000Y-158000000D02*
X277506200Y-157493800D01*
X277506200Y-157493800D02*
X277506200Y-156242200D01*
%TO.N,Net-(R27-Pad1)*%
X231386200Y-160592200D02*
X231386200Y-159613800D01*
X231386200Y-159613800D02*
X236257800Y-154742200D01*
X236257800Y-154742200D02*
X236386200Y-154742200D01*
%TO.N,Net-(U4B--)*%
X231386200Y-147892200D02*
X232576200Y-147892200D01*
X232576200Y-147892200D02*
X234426200Y-149742200D01*
%TO.N,Net-(D2-K)*%
X232506200Y-142982200D02*
X234000000Y-142982200D01*
X237506200Y-139742200D02*
X234266200Y-142982200D01*
X234266200Y-142982200D02*
X234000000Y-142982200D01*
X234000000Y-142982200D02*
X249000000Y-142982200D01*
X249000000Y-142982200D02*
X250800000Y-144782200D01*
X250800000Y-144782200D02*
X251886200Y-144782200D01*
%TO.N,Net-(D4-A)*%
X233006200Y-134822200D02*
X235586200Y-134822200D01*
X235586200Y-134822200D02*
X236166200Y-134242200D01*
%TO.N,Net-(D4-K)*%
X241246200Y-134242200D02*
X245306200Y-134242200D01*
X245306200Y-134242200D02*
X245506200Y-134042200D01*
%TO.N,Net-(R14-Pad1)*%
X251406200Y-134392200D02*
X253636200Y-134392200D01*
X253636200Y-134392200D02*
X253786200Y-134242200D01*
%TO.N,Net-(R5-Pad1)*%
X251326200Y-127242200D02*
X252742200Y-127242200D01*
X252742200Y-127242200D02*
X254306200Y-128806200D01*
X254306200Y-128806200D02*
X254306200Y-129242200D01*
%TO.N,Net-(U4B-+)*%
X256256200Y-123552200D02*
X259806200Y-123552200D01*
X259806200Y-123552200D02*
X260006200Y-123752200D01*
%TO.N,Net-(R22-Pad1)*%
X238506200Y-94932200D02*
X242346200Y-94932200D01*
X242346200Y-94932200D02*
X244006200Y-96592200D01*
%TO.N,Net-(U2B--)*%
X244006200Y-83892200D02*
X247076200Y-83892200D01*
X247076200Y-83892200D02*
X247926200Y-84742200D01*
%TO.N,Net-(U2B-+)*%
X238806200Y-78492200D02*
X243056200Y-78492200D01*
X243056200Y-78492200D02*
X243306200Y-78742200D01*
D24*
%TO.N,VCO2IDKPot1*%
X263000000Y-96000000D02*
X260500000Y-93500000D01*
D23*
%TO.N,Net-(R27-Pad1)*%
X236386200Y-154742200D02*
X238144000Y-156500000D01*
X238144000Y-156500000D02*
X250328400Y-156500000D01*
X250328400Y-156500000D02*
X251886200Y-154942200D01*
%TD*%
M02*
