%TF.GenerationSoftware,KiCad,Pcbnew,9.0.0*%
%TF.CreationDate,2025-03-13T15:25:21+00:00*%
%TF.ProjectId,MAIN,4d41494e-2e6b-4696-9361-645f70636258,rev?*%
%TF.SameCoordinates,Original*%
%TF.FileFunction,Drillmap*%
%TF.FilePolarity,Positive*%
%FSLAX45Y45*%
G04 Gerber Fmt 4.5, Leading zero omitted, Abs format (unit mm)*
G04 Created by KiCad (PCBNEW 9.0.0) date 2025-03-13 15:25:21*
%MOMM*%
%LPD*%
G01*
G04 APERTURE LIST*
%ADD10C,0.050000*%
%ADD11C,0.200000*%
%ADD12C,0.100000*%
%ADD13C,0.120000*%
G04 APERTURE END LIST*
D10*
X32666000Y-6810000D02*
X22706000Y-6810000D01*
X32666000Y-16789000D02*
X32666000Y-6810000D01*
X22706000Y-6810000D02*
X22706000Y-16789000D01*
X22706000Y-16789000D02*
X32666000Y-16789000D01*
D11*
D12*
X23080000Y-6955000D02*
X23120000Y-6995000D01*
X23120000Y-6955000D02*
X23080000Y-6995000D01*
X23930000Y-16230000D02*
X23970000Y-16270000D01*
X23970000Y-16230000D02*
X23930000Y-16270000D01*
X23931965Y-11328035D02*
X23971965Y-11368035D01*
X23971965Y-11328035D02*
X23931965Y-11368035D01*
X24785000Y-13855000D02*
X24825000Y-13895000D01*
X24825000Y-13855000D02*
X24785000Y-13895000D01*
X25255000Y-8655000D02*
X25295000Y-8695000D01*
X25295000Y-8655000D02*
X25255000Y-8695000D01*
X25380000Y-16704000D02*
X25420000Y-16744000D01*
X25420000Y-16704000D02*
X25380000Y-16744000D01*
X25480000Y-13630000D02*
X25520000Y-13670000D01*
X25520000Y-13630000D02*
X25480000Y-13670000D01*
X25555000Y-12555000D02*
X25595000Y-12595000D01*
X25595000Y-12555000D02*
X25555000Y-12595000D01*
X26030000Y-9330000D02*
X26070000Y-9370000D01*
X26070000Y-9330000D02*
X26030000Y-9370000D01*
X26230000Y-15080000D02*
X26270000Y-15120000D01*
X26270000Y-15080000D02*
X26230000Y-15120000D01*
X26280000Y-9580000D02*
X26320000Y-9620000D01*
X26320000Y-9580000D02*
X26280000Y-9620000D01*
X26405000Y-8830000D02*
X26445000Y-8870000D01*
X26445000Y-8830000D02*
X26405000Y-8870000D01*
X26430000Y-16055000D02*
X26470000Y-16095000D01*
X26470000Y-16055000D02*
X26430000Y-16095000D01*
X26630000Y-8930000D02*
X26670000Y-8970000D01*
X26670000Y-8930000D02*
X26630000Y-8970000D01*
X26755000Y-13480000D02*
X26795000Y-13520000D01*
X26795000Y-13480000D02*
X26755000Y-13520000D01*
X26830000Y-15030000D02*
X26870000Y-15070000D01*
X26870000Y-15030000D02*
X26830000Y-15070000D01*
X26905000Y-16230000D02*
X26945000Y-16270000D01*
X26945000Y-16230000D02*
X26905000Y-16270000D01*
X26980000Y-10255000D02*
X27020000Y-10295000D01*
X27020000Y-10255000D02*
X26980000Y-10295000D01*
X27055000Y-10605000D02*
X27095000Y-10645000D01*
X27095000Y-10605000D02*
X27055000Y-10645000D01*
X27105000Y-12105000D02*
X27145000Y-12145000D01*
X27145000Y-12105000D02*
X27105000Y-12145000D01*
X27105000Y-13230000D02*
X27145000Y-13270000D01*
X27145000Y-13230000D02*
X27105000Y-13270000D01*
X27330000Y-13180000D02*
X27370000Y-13220000D01*
X27370000Y-13180000D02*
X27330000Y-13220000D01*
X27355000Y-14955000D02*
X27395000Y-14995000D01*
X27395000Y-14955000D02*
X27355000Y-14995000D01*
X27380000Y-14155000D02*
X27420000Y-14195000D01*
X27420000Y-14155000D02*
X27380000Y-14195000D01*
X27405000Y-7505000D02*
X27445000Y-7545000D01*
X27445000Y-7505000D02*
X27405000Y-7545000D01*
X27405000Y-9055000D02*
X27445000Y-9095000D01*
X27445000Y-9055000D02*
X27405000Y-9095000D01*
X27505000Y-10780000D02*
X27545000Y-10820000D01*
X27545000Y-10780000D02*
X27505000Y-10820000D01*
X27730000Y-13705000D02*
X27770000Y-13745000D01*
X27770000Y-13705000D02*
X27730000Y-13745000D01*
X27755000Y-13205000D02*
X27795000Y-13245000D01*
X27795000Y-13205000D02*
X27755000Y-13245000D01*
X27955000Y-8430000D02*
X27995000Y-8470000D01*
X27995000Y-8430000D02*
X27955000Y-8470000D01*
X28055000Y-10805000D02*
X28095000Y-10845000D01*
X28095000Y-10805000D02*
X28055000Y-10845000D01*
X28130000Y-14330000D02*
X28170000Y-14370000D01*
X28170000Y-14330000D02*
X28130000Y-14370000D01*
X28255000Y-10730000D02*
X28295000Y-10770000D01*
X28295000Y-10730000D02*
X28255000Y-10770000D01*
X28305000Y-11830000D02*
X28345000Y-11870000D01*
X28345000Y-11830000D02*
X28305000Y-11870000D01*
X28430000Y-10730000D02*
X28470000Y-10770000D01*
X28470000Y-10730000D02*
X28430000Y-10770000D01*
X28555000Y-16130000D02*
X28595000Y-16170000D01*
X28595000Y-16130000D02*
X28555000Y-16170000D01*
X28955000Y-7605000D02*
X28995000Y-7645000D01*
X28995000Y-7605000D02*
X28955000Y-7645000D01*
X29155000Y-8905000D02*
X29195000Y-8945000D01*
X29195000Y-8905000D02*
X29155000Y-8945000D01*
X29230000Y-14607220D02*
X29270000Y-14647220D01*
X29270000Y-14607220D02*
X29230000Y-14647220D01*
X29430000Y-14880000D02*
X29470000Y-14920000D01*
X29470000Y-14880000D02*
X29430000Y-14920000D01*
X29530000Y-8655000D02*
X29570000Y-8695000D01*
X29570000Y-8655000D02*
X29530000Y-8695000D01*
X29930000Y-9080000D02*
X29970000Y-9120000D01*
X29970000Y-9080000D02*
X29930000Y-9120000D01*
X30430000Y-9805000D02*
X30470000Y-9845000D01*
X30470000Y-9805000D02*
X30430000Y-9845000D01*
X30430000Y-10080000D02*
X30470000Y-10120000D01*
X30470000Y-10080000D02*
X30430000Y-10120000D01*
X31080000Y-10730000D02*
X31120000Y-10770000D01*
X31120000Y-10730000D02*
X31080000Y-10770000D01*
X31430000Y-7330000D02*
X31470000Y-7370000D01*
X31470000Y-7330000D02*
X31430000Y-7370000D01*
X31705000Y-9730000D02*
X31745000Y-9770000D01*
X31745000Y-9730000D02*
X31705000Y-9770000D01*
X32355000Y-14305000D02*
X32395000Y-14345000D01*
X32395000Y-14305000D02*
X32355000Y-14345000D01*
X23305620Y-9380220D02*
G75*
G02*
X23235620Y-9380220I-35000J0D01*
G01*
X23235620Y-9380220D02*
G75*
G02*
X23305620Y-9380220I35000J0D01*
G01*
X23305620Y-9634220D02*
G75*
G02*
X23235620Y-9634220I-35000J0D01*
G01*
X23235620Y-9634220D02*
G75*
G02*
X23305620Y-9634220I35000J0D01*
G01*
X23305620Y-9912220D02*
G75*
G02*
X23235620Y-9912220I-35000J0D01*
G01*
X23235620Y-9912220D02*
G75*
G02*
X23305620Y-9912220I35000J0D01*
G01*
X23305620Y-10166220D02*
G75*
G02*
X23235620Y-10166220I-35000J0D01*
G01*
X23235620Y-10166220D02*
G75*
G02*
X23305620Y-10166220I35000J0D01*
G01*
X24913620Y-12724220D02*
G75*
G02*
X24843620Y-12724220I-35000J0D01*
G01*
X24843620Y-12724220D02*
G75*
G02*
X24913620Y-12724220I35000J0D01*
G01*
X24921620Y-13124220D02*
G75*
G02*
X24851620Y-13124220I-35000J0D01*
G01*
X24851620Y-13124220D02*
G75*
G02*
X24921620Y-13124220I35000J0D01*
G01*
X24921620Y-13439220D02*
G75*
G02*
X24851620Y-13439220I-35000J0D01*
G01*
X24851620Y-13439220D02*
G75*
G02*
X24921620Y-13439220I35000J0D01*
G01*
X25167620Y-12724220D02*
G75*
G02*
X25097620Y-12724220I-35000J0D01*
G01*
X25097620Y-12724220D02*
G75*
G02*
X25167620Y-12724220I35000J0D01*
G01*
X25175620Y-13124220D02*
G75*
G02*
X25105620Y-13124220I-35000J0D01*
G01*
X25105620Y-13124220D02*
G75*
G02*
X25175620Y-13124220I35000J0D01*
G01*
X25175620Y-13439220D02*
G75*
G02*
X25105620Y-13439220I-35000J0D01*
G01*
X25105620Y-13439220D02*
G75*
G02*
X25175620Y-13439220I35000J0D01*
G01*
X27663620Y-9859220D02*
G75*
G02*
X27593620Y-9859220I-35000J0D01*
G01*
X27593620Y-9859220D02*
G75*
G02*
X27663620Y-9859220I35000J0D01*
G01*
X27663620Y-10224220D02*
G75*
G02*
X27593620Y-10224220I-35000J0D01*
G01*
X27593620Y-10224220D02*
G75*
G02*
X27663620Y-10224220I35000J0D01*
G01*
X27917620Y-9859220D02*
G75*
G02*
X27847620Y-9859220I-35000J0D01*
G01*
X27847620Y-9859220D02*
G75*
G02*
X27917620Y-9859220I35000J0D01*
G01*
X27917620Y-10224220D02*
G75*
G02*
X27847620Y-10224220I-35000J0D01*
G01*
X27847620Y-10224220D02*
G75*
G02*
X27917620Y-10224220I35000J0D01*
G01*
X28935620Y-13952220D02*
G75*
G02*
X28865620Y-13952220I-35000J0D01*
G01*
X28865620Y-13952220D02*
G75*
G02*
X28935620Y-13952220I35000J0D01*
G01*
X28935620Y-14206220D02*
G75*
G02*
X28865620Y-14206220I-35000J0D01*
G01*
X28865620Y-14206220D02*
G75*
G02*
X28935620Y-14206220I35000J0D01*
G01*
X29250620Y-7752220D02*
G75*
G02*
X29180620Y-7752220I-35000J0D01*
G01*
X29180620Y-7752220D02*
G75*
G02*
X29250620Y-7752220I35000J0D01*
G01*
X29250620Y-8006220D02*
G75*
G02*
X29180620Y-8006220I-35000J0D01*
G01*
X29180620Y-8006220D02*
G75*
G02*
X29250620Y-8006220I35000J0D01*
G01*
X31485620Y-9674220D02*
G75*
G02*
X31415620Y-9674220I-35000J0D01*
G01*
X31415620Y-9674220D02*
G75*
G02*
X31485620Y-9674220I35000J0D01*
G01*
X31485620Y-9928220D02*
G75*
G02*
X31415620Y-9928220I-35000J0D01*
G01*
X31415620Y-9928220D02*
G75*
G02*
X31485620Y-9928220I35000J0D01*
G01*
X32085620Y-8498220D02*
G75*
G02*
X32015620Y-8498220I-35000J0D01*
G01*
X32015620Y-8498220D02*
G75*
G02*
X32085620Y-8498220I35000J0D01*
G01*
X32085620Y-8752220D02*
G75*
G02*
X32015620Y-8752220I-35000J0D01*
G01*
X32015620Y-8752220D02*
G75*
G02*
X32085620Y-8752220I35000J0D01*
G01*
X32089620Y-9043220D02*
G75*
G02*
X32019620Y-9043220I-35000J0D01*
G01*
X32019620Y-9043220D02*
G75*
G02*
X32089620Y-9043220I35000J0D01*
G01*
X32089620Y-9297220D02*
G75*
G02*
X32019620Y-9297220I-35000J0D01*
G01*
X32019620Y-9297220D02*
G75*
G02*
X32089620Y-9297220I35000J0D01*
G01*
X25355870Y-11253720D02*
X25355870Y-11328720D01*
X25318370Y-11291220D02*
X25393370Y-11291220D01*
X25358620Y-11781720D02*
X25358620Y-11856720D01*
X25321120Y-11819220D02*
X25396120Y-11819220D01*
X25482870Y-11253720D02*
X25482870Y-11328720D01*
X25445370Y-11291220D02*
X25520370Y-11291220D01*
X25485620Y-11781720D02*
X25485620Y-11856720D01*
X25448120Y-11819220D02*
X25523120Y-11819220D01*
X25609870Y-11253720D02*
X25609870Y-11328720D01*
X25572370Y-11291220D02*
X25647370Y-11291220D01*
X25612620Y-11781720D02*
X25612620Y-11856720D01*
X25575120Y-11819220D02*
X25650120Y-11819220D01*
X27046620Y-9836720D02*
X27046620Y-9911720D01*
X27009120Y-9874220D02*
X27084120Y-9874220D01*
X27050620Y-9286720D02*
X27050620Y-9361720D01*
X27013120Y-9324220D02*
X27088120Y-9324220D01*
X27173620Y-9836720D02*
X27173620Y-9911720D01*
X27136120Y-9874220D02*
X27211120Y-9874220D01*
X27177620Y-9286720D02*
X27177620Y-9361720D01*
X27140120Y-9324220D02*
X27215120Y-9324220D01*
X27300620Y-9836720D02*
X27300620Y-9911720D01*
X27263120Y-9874220D02*
X27338120Y-9874220D01*
X27304620Y-9286720D02*
X27304620Y-9361720D01*
X27267120Y-9324220D02*
X27342120Y-9324220D01*
X31347620Y-9060720D02*
X31347620Y-9135720D01*
X31310120Y-9098220D02*
X31385120Y-9098220D01*
X31350620Y-8510720D02*
X31350620Y-8585720D01*
X31313120Y-8548220D02*
X31388120Y-8548220D01*
X31474620Y-9060720D02*
X31474620Y-9135720D01*
X31437120Y-9098220D02*
X31512120Y-9098220D01*
X31477620Y-8510720D02*
X31477620Y-8585720D01*
X31440120Y-8548220D02*
X31515120Y-8548220D01*
X31601620Y-9060720D02*
X31601620Y-9135720D01*
X31564120Y-9098220D02*
X31639120Y-9098220D01*
X31604620Y-8510720D02*
X31604620Y-8585720D01*
X31567120Y-8548220D02*
X31642120Y-8548220D01*
X23066904Y-10652505D02*
X23066904Y-10595936D01*
X23010335Y-10595936D01*
X23010335Y-10652505D01*
X23066904Y-10652505D01*
X23143904Y-11652504D02*
X23143904Y-11595935D01*
X23087335Y-11595935D01*
X23087335Y-11652504D01*
X23143904Y-11652504D01*
X23166904Y-14817504D02*
X23166904Y-14760935D01*
X23110335Y-14760935D01*
X23110335Y-14817504D01*
X23166904Y-14817504D01*
X23166904Y-16087504D02*
X23166904Y-16030935D01*
X23110335Y-16030935D01*
X23110335Y-16087504D01*
X23166904Y-16087504D01*
X23278904Y-7852504D02*
X23278904Y-7795935D01*
X23222335Y-7795935D01*
X23222335Y-7852504D01*
X23278904Y-7852504D01*
X23278904Y-9122505D02*
X23278904Y-9065936D01*
X23222335Y-9065936D01*
X23222335Y-9122505D01*
X23278904Y-9122505D01*
X23328904Y-12494504D02*
X23328904Y-12437935D01*
X23272335Y-12437935D01*
X23272335Y-12494504D01*
X23328904Y-12494504D01*
X23328904Y-13510504D02*
X23328904Y-13453935D01*
X23272335Y-13453935D01*
X23272335Y-13510504D01*
X23328904Y-13510504D01*
X23353904Y-11102505D02*
X23353904Y-11045936D01*
X23297335Y-11045936D01*
X23297335Y-11102505D01*
X23353904Y-11102505D01*
X23470904Y-15002504D02*
X23470904Y-14945935D01*
X23414335Y-14945935D01*
X23414335Y-15002504D01*
X23470904Y-15002504D01*
X23603904Y-11102505D02*
X23603904Y-11045936D01*
X23547335Y-11045936D01*
X23547335Y-11102505D01*
X23603904Y-11102505D01*
X23666904Y-15502504D02*
X23666904Y-15445935D01*
X23610335Y-15445935D01*
X23610335Y-15502504D01*
X23666904Y-15502504D01*
X23778904Y-14002504D02*
X23778904Y-13945935D01*
X23722335Y-13945935D01*
X23722335Y-14002504D01*
X23778904Y-14002504D01*
X23778904Y-14502504D02*
X23778904Y-14445935D01*
X23722335Y-14445935D01*
X23722335Y-14502504D01*
X23778904Y-14502504D01*
X23828904Y-10652505D02*
X23828904Y-10595936D01*
X23772335Y-10595936D01*
X23772335Y-10652505D01*
X23828904Y-10652505D01*
X23878904Y-8471505D02*
X23878904Y-8414936D01*
X23822335Y-8414936D01*
X23822335Y-8471505D01*
X23878904Y-8471505D01*
X23878904Y-9233505D02*
X23878904Y-9176936D01*
X23822335Y-9176936D01*
X23822335Y-9233505D01*
X23878904Y-9233505D01*
X23878904Y-9521505D02*
X23878904Y-9464936D01*
X23822335Y-9464936D01*
X23822335Y-9521505D01*
X23878904Y-9521505D01*
X23878904Y-10283505D02*
X23878904Y-10226936D01*
X23822335Y-10226936D01*
X23822335Y-10283505D01*
X23878904Y-10283505D01*
X23908904Y-7877504D02*
X23908904Y-7820935D01*
X23852335Y-7820935D01*
X23852335Y-7877504D01*
X23908904Y-7877504D01*
X23908904Y-8127504D02*
X23908904Y-8070935D01*
X23852335Y-8070935D01*
X23852335Y-8127504D01*
X23908904Y-8127504D01*
X23916904Y-12752504D02*
X23916904Y-12695935D01*
X23860335Y-12695935D01*
X23860335Y-12752504D01*
X23916904Y-12752504D01*
X24358904Y-7902504D02*
X24358904Y-7845935D01*
X24302335Y-7845935D01*
X24302335Y-7902504D01*
X24358904Y-7902504D01*
X24413904Y-11652504D02*
X24413904Y-11595935D01*
X24357335Y-11595935D01*
X24357335Y-11652504D01*
X24413904Y-11652504D01*
X24428904Y-8417505D02*
X24428904Y-8360935D01*
X24372335Y-8360935D01*
X24372335Y-8417505D01*
X24428904Y-8417505D01*
X24428904Y-9687505D02*
X24428904Y-9630936D01*
X24372335Y-9630936D01*
X24372335Y-9687505D01*
X24428904Y-9687505D01*
X24428904Y-9967505D02*
X24428904Y-9910936D01*
X24372335Y-9910936D01*
X24372335Y-9967505D01*
X24428904Y-9967505D01*
X24428904Y-11237504D02*
X24428904Y-11180936D01*
X24372335Y-11180936D01*
X24372335Y-11237504D01*
X24428904Y-11237504D01*
X24428904Y-15502504D02*
X24428904Y-15445935D01*
X24372335Y-15445935D01*
X24372335Y-15502504D01*
X24428904Y-15502504D01*
X24486904Y-15002504D02*
X24486904Y-14945935D01*
X24430335Y-14945935D01*
X24430335Y-15002504D01*
X24486904Y-15002504D01*
X24578904Y-13432504D02*
X24578904Y-13375935D01*
X24522335Y-13375935D01*
X24522335Y-13432504D01*
X24578904Y-13432504D01*
X24578904Y-14702504D02*
X24578904Y-14645935D01*
X24522335Y-14645935D01*
X24522335Y-14702504D01*
X24578904Y-14702504D01*
X24678904Y-12752504D02*
X24678904Y-12695935D01*
X24622335Y-12695935D01*
X24622335Y-12752504D01*
X24678904Y-12752504D01*
X24820904Y-8502505D02*
X24820904Y-8445936D01*
X24764335Y-8445936D01*
X24764335Y-8502505D01*
X24820904Y-8502505D01*
X24928904Y-8978505D02*
X24928904Y-8921936D01*
X24872335Y-8921936D01*
X24872335Y-8978505D01*
X24928904Y-8978505D01*
X24928904Y-9232505D02*
X24928904Y-9175936D01*
X24872335Y-9175936D01*
X24872335Y-9232505D01*
X24928904Y-9232505D01*
X24928904Y-9486505D02*
X24928904Y-9429936D01*
X24872335Y-9429936D01*
X24872335Y-9486505D01*
X24928904Y-9486505D01*
X24928904Y-9740505D02*
X24928904Y-9683936D01*
X24872335Y-9683936D01*
X24872335Y-9740505D01*
X24928904Y-9740505D01*
X24928904Y-9994505D02*
X24928904Y-9937936D01*
X24872335Y-9937936D01*
X24872335Y-9994505D01*
X24928904Y-9994505D01*
X24928904Y-10248505D02*
X24928904Y-10191936D01*
X24872335Y-10191936D01*
X24872335Y-10248505D01*
X24928904Y-10248505D01*
X24928904Y-10502505D02*
X24928904Y-10445936D01*
X24872335Y-10445936D01*
X24872335Y-10502505D01*
X24928904Y-10502505D01*
X25028904Y-11202504D02*
X25028904Y-11145936D01*
X24972335Y-11145936D01*
X24972335Y-11202504D01*
X25028904Y-11202504D01*
X25028904Y-11964504D02*
X25028904Y-11907935D01*
X24972335Y-11907935D01*
X24972335Y-11964504D01*
X25028904Y-11964504D01*
X25216904Y-13998504D02*
X25216904Y-13941935D01*
X25160335Y-13941935D01*
X25160335Y-13998504D01*
X25216904Y-13998504D01*
X25216904Y-14252504D02*
X25216904Y-14195935D01*
X25160335Y-14195935D01*
X25160335Y-14252504D01*
X25216904Y-14252504D01*
X25216904Y-14506504D02*
X25216904Y-14449935D01*
X25160335Y-14449935D01*
X25160335Y-14506504D01*
X25216904Y-14506504D01*
X25216904Y-14760504D02*
X25216904Y-14703935D01*
X25160335Y-14703935D01*
X25160335Y-14760504D01*
X25216904Y-14760504D01*
X25216904Y-15014504D02*
X25216904Y-14957935D01*
X25160335Y-14957935D01*
X25160335Y-15014504D01*
X25216904Y-15014504D01*
X25216904Y-15268504D02*
X25216904Y-15211935D01*
X25160335Y-15211935D01*
X25160335Y-15268504D01*
X25216904Y-15268504D01*
X25216904Y-15522504D02*
X25216904Y-15465935D01*
X25160335Y-15465935D01*
X25160335Y-15522504D01*
X25216904Y-15522504D01*
X25403904Y-12383504D02*
X25403904Y-12326935D01*
X25347335Y-12326935D01*
X25347335Y-12383504D01*
X25403904Y-12383504D01*
X25406904Y-13452504D02*
X25406904Y-13395935D01*
X25350335Y-13395935D01*
X25350335Y-13452504D01*
X25406904Y-13452504D01*
X25458904Y-12952504D02*
X25458904Y-12895935D01*
X25402335Y-12895935D01*
X25402335Y-12952504D01*
X25458904Y-12952504D01*
X25628904Y-7902504D02*
X25628904Y-7845935D01*
X25572335Y-7845935D01*
X25572335Y-7902504D01*
X25628904Y-7902504D01*
X25653904Y-12383504D02*
X25653904Y-12326935D01*
X25597335Y-12326935D01*
X25597335Y-12383504D01*
X25653904Y-12383504D01*
X25690904Y-8978505D02*
X25690904Y-8921936D01*
X25634335Y-8921936D01*
X25634335Y-8978505D01*
X25690904Y-8978505D01*
X25690904Y-9232505D02*
X25690904Y-9175936D01*
X25634335Y-9175936D01*
X25634335Y-9232505D01*
X25690904Y-9232505D01*
X25690904Y-9486505D02*
X25690904Y-9429936D01*
X25634335Y-9429936D01*
X25634335Y-9486505D01*
X25690904Y-9486505D01*
X25690904Y-9740505D02*
X25690904Y-9683936D01*
X25634335Y-9683936D01*
X25634335Y-9740505D01*
X25690904Y-9740505D01*
X25690904Y-9994505D02*
X25690904Y-9937936D01*
X25634335Y-9937936D01*
X25634335Y-9994505D01*
X25690904Y-9994505D01*
X25690904Y-10248505D02*
X25690904Y-10191936D01*
X25634335Y-10191936D01*
X25634335Y-10248505D01*
X25690904Y-10248505D01*
X25690904Y-10502505D02*
X25690904Y-10445936D01*
X25634335Y-10445936D01*
X25634335Y-10502505D01*
X25690904Y-10502505D01*
X25836904Y-8502505D02*
X25836904Y-8445936D01*
X25780335Y-8445936D01*
X25780335Y-8502505D01*
X25836904Y-8502505D01*
X25978904Y-13998504D02*
X25978904Y-13941935D01*
X25922335Y-13941935D01*
X25922335Y-13998504D01*
X25978904Y-13998504D01*
X25978904Y-14252504D02*
X25978904Y-14195935D01*
X25922335Y-14195935D01*
X25922335Y-14252504D01*
X25978904Y-14252504D01*
X25978904Y-14506504D02*
X25978904Y-14449935D01*
X25922335Y-14449935D01*
X25922335Y-14506504D01*
X25978904Y-14506504D01*
X25978904Y-14760504D02*
X25978904Y-14703935D01*
X25922335Y-14703935D01*
X25922335Y-14760504D01*
X25978904Y-14760504D01*
X25978904Y-15014504D02*
X25978904Y-14957935D01*
X25922335Y-14957935D01*
X25922335Y-15014504D01*
X25978904Y-15014504D01*
X25978904Y-15268504D02*
X25978904Y-15211935D01*
X25922335Y-15211935D01*
X25922335Y-15268504D01*
X25978904Y-15268504D01*
X25978904Y-15522504D02*
X25978904Y-15465935D01*
X25922335Y-15465935D01*
X25922335Y-15522504D01*
X25978904Y-15522504D01*
X25997904Y-9202505D02*
X25997904Y-9145936D01*
X25941335Y-9145936D01*
X25941335Y-9202505D01*
X25997904Y-9202505D01*
X26028904Y-11133505D02*
X26028904Y-11076936D01*
X25972335Y-11076936D01*
X25972335Y-11133505D01*
X26028904Y-11133505D01*
X26028904Y-12403504D02*
X26028904Y-12346935D01*
X25972335Y-12346935D01*
X25972335Y-12403504D01*
X26028904Y-12403504D01*
X26112904Y-8602505D02*
X26112904Y-8545936D01*
X26056335Y-8545936D01*
X26056335Y-8602505D01*
X26112904Y-8602505D01*
X26168904Y-13452504D02*
X26168904Y-13395935D01*
X26112335Y-13395935D01*
X26112335Y-13452504D01*
X26168904Y-13452504D01*
X26472904Y-15652504D02*
X26472904Y-15595935D01*
X26416335Y-15595935D01*
X26416335Y-15652504D01*
X26472904Y-15652504D01*
X26503904Y-14052504D02*
X26503904Y-13995935D01*
X26447335Y-13995935D01*
X26447335Y-14052504D01*
X26503904Y-14052504D01*
X26503904Y-15322504D02*
X26503904Y-15265935D01*
X26447335Y-15265935D01*
X26447335Y-15322504D01*
X26503904Y-15322504D01*
X26678904Y-9602505D02*
X26678904Y-9545936D01*
X26622335Y-9545936D01*
X26622335Y-9602505D01*
X26678904Y-9602505D01*
X26678904Y-10102505D02*
X26678904Y-10045936D01*
X26622335Y-10045936D01*
X26622335Y-10102505D01*
X26678904Y-10102505D01*
X26728904Y-12952504D02*
X26728904Y-12895935D01*
X26672335Y-12895935D01*
X26672335Y-12952504D01*
X26728904Y-12952504D01*
X26759904Y-9202505D02*
X26759904Y-9145936D01*
X26703335Y-9145936D01*
X26703335Y-9202505D01*
X26759904Y-9202505D01*
X27128904Y-8602505D02*
X27128904Y-8545936D01*
X27072335Y-8545936D01*
X27072335Y-8602505D01*
X27128904Y-8602505D01*
X27203904Y-14082504D02*
X27203904Y-14025935D01*
X27147335Y-14025935D01*
X27147335Y-14082504D01*
X27203904Y-14082504D01*
X27203904Y-15352504D02*
X27203904Y-15295935D01*
X27147335Y-15295935D01*
X27147335Y-15352504D01*
X27203904Y-15352504D01*
X27234904Y-15652504D02*
X27234904Y-15595935D01*
X27178335Y-15595935D01*
X27178335Y-15652504D01*
X27234904Y-15652504D01*
X27396404Y-8730005D02*
X27396404Y-8673436D01*
X27339835Y-8673436D01*
X27339835Y-8730005D01*
X27396404Y-8730005D01*
X27416904Y-11228504D02*
X27416904Y-11171936D01*
X27360335Y-11171936D01*
X27360335Y-11228504D01*
X27416904Y-11228504D01*
X27416904Y-11482504D02*
X27416904Y-11425935D01*
X27360335Y-11425935D01*
X27360335Y-11482504D01*
X27416904Y-11482504D01*
X27416904Y-11736504D02*
X27416904Y-11679935D01*
X27360335Y-11679935D01*
X27360335Y-11736504D01*
X27416904Y-11736504D01*
X27416904Y-11990504D02*
X27416904Y-11933935D01*
X27360335Y-11933935D01*
X27360335Y-11990504D01*
X27416904Y-11990504D01*
X27416904Y-12244504D02*
X27416904Y-12187935D01*
X27360335Y-12187935D01*
X27360335Y-12244504D01*
X27416904Y-12244504D01*
X27416904Y-12498504D02*
X27416904Y-12441935D01*
X27360335Y-12441935D01*
X27360335Y-12498504D01*
X27416904Y-12498504D01*
X27416904Y-12752504D02*
X27416904Y-12695935D01*
X27360335Y-12695935D01*
X27360335Y-12752504D01*
X27416904Y-12752504D01*
X27528904Y-15652504D02*
X27528904Y-15595935D01*
X27472335Y-15595935D01*
X27472335Y-15652504D01*
X27528904Y-15652504D01*
X27662904Y-9402505D02*
X27662904Y-9345936D01*
X27606335Y-9345936D01*
X27606335Y-9402505D01*
X27662904Y-9402505D01*
X27778904Y-15652504D02*
X27778904Y-15595935D01*
X27722335Y-15595935D01*
X27722335Y-15652504D01*
X27778904Y-15652504D01*
X28178904Y-11228504D02*
X28178904Y-11171936D01*
X28122335Y-11171936D01*
X28122335Y-11228504D01*
X28178904Y-11228504D01*
X28178904Y-11482504D02*
X28178904Y-11425935D01*
X28122335Y-11425935D01*
X28122335Y-11482504D01*
X28178904Y-11482504D01*
X28178904Y-11736504D02*
X28178904Y-11679935D01*
X28122335Y-11679935D01*
X28122335Y-11736504D01*
X28178904Y-11736504D01*
X28178904Y-11990504D02*
X28178904Y-11933935D01*
X28122335Y-11933935D01*
X28122335Y-11990504D01*
X28178904Y-11990504D01*
X28178904Y-12244504D02*
X28178904Y-12187935D01*
X28122335Y-12187935D01*
X28122335Y-12244504D01*
X28178904Y-12244504D01*
X28178904Y-12498504D02*
X28178904Y-12441935D01*
X28122335Y-12441935D01*
X28122335Y-12498504D01*
X28178904Y-12498504D01*
X28178904Y-12752504D02*
X28178904Y-12695935D01*
X28122335Y-12695935D01*
X28122335Y-12752504D01*
X28178904Y-12752504D01*
X28193904Y-10402505D02*
X28193904Y-10345936D01*
X28137335Y-10345936D01*
X28137335Y-10402505D01*
X28193904Y-10402505D01*
X28243904Y-9852505D02*
X28243904Y-9795936D01*
X28187335Y-9795936D01*
X28187335Y-9852505D01*
X28243904Y-9852505D01*
X28320904Y-13517504D02*
X28320904Y-13460935D01*
X28264335Y-13460935D01*
X28264335Y-13517504D01*
X28320904Y-13517504D01*
X28428904Y-13832504D02*
X28428904Y-13775935D01*
X28372335Y-13775935D01*
X28372335Y-13832504D01*
X28428904Y-13832504D01*
X28428904Y-15102504D02*
X28428904Y-15045935D01*
X28372335Y-15045935D01*
X28372335Y-15102504D01*
X28428904Y-15102504D01*
X28493904Y-13152504D02*
X28493904Y-13095935D01*
X28437335Y-13095935D01*
X28437335Y-13152504D01*
X28493904Y-13152504D01*
X28616904Y-11102505D02*
X28616904Y-11045936D01*
X28560335Y-11045936D01*
X28560335Y-11102505D01*
X28616904Y-11102505D01*
X28620904Y-11602504D02*
X28620904Y-11545935D01*
X28564335Y-11545935D01*
X28564335Y-11602504D01*
X28620904Y-11602504D01*
X28620904Y-12102504D02*
X28620904Y-12045935D01*
X28564335Y-12045935D01*
X28564335Y-12102504D01*
X28620904Y-12102504D01*
X28628904Y-12452504D02*
X28628904Y-12395935D01*
X28572335Y-12395935D01*
X28572335Y-12452504D01*
X28628904Y-12452504D01*
X28666404Y-8730005D02*
X28666404Y-8673436D01*
X28609835Y-8673436D01*
X28609835Y-8730005D01*
X28666404Y-8730005D01*
X28678904Y-9402505D02*
X28678904Y-9345936D01*
X28622335Y-9345936D01*
X28622335Y-9402505D01*
X28678904Y-9402505D01*
X28978904Y-14517504D02*
X28978904Y-14460935D01*
X28922335Y-14460935D01*
X28922335Y-14517504D01*
X28978904Y-14517504D01*
X28978904Y-15787504D02*
X28978904Y-15730935D01*
X28922335Y-15730935D01*
X28922335Y-15787504D01*
X28978904Y-15787504D01*
X29208904Y-8452505D02*
X29208904Y-8395936D01*
X29152335Y-8395936D01*
X29152335Y-8452505D01*
X29208904Y-8452505D01*
X29336904Y-13517504D02*
X29336904Y-13460935D01*
X29280335Y-13460935D01*
X29280335Y-13517504D01*
X29336904Y-13517504D01*
X29463904Y-10402505D02*
X29463904Y-10345936D01*
X29407335Y-10345936D01*
X29407335Y-10402505D01*
X29463904Y-10402505D01*
X29513904Y-9852505D02*
X29513904Y-9795936D01*
X29457335Y-9795936D01*
X29457335Y-9852505D01*
X29513904Y-9852505D01*
X29636904Y-11602504D02*
X29636904Y-11545935D01*
X29580335Y-11545935D01*
X29580335Y-11602504D01*
X29636904Y-11602504D01*
X29636904Y-12102504D02*
X29636904Y-12045935D01*
X29580335Y-12045935D01*
X29580335Y-12102504D01*
X29636904Y-12102504D01*
X29644904Y-12452504D02*
X29644904Y-12395935D01*
X29588335Y-12395935D01*
X29588335Y-12452504D01*
X29644904Y-12452504D01*
X29658904Y-13802504D02*
X29658904Y-13745935D01*
X29602335Y-13745935D01*
X29602335Y-13802504D01*
X29658904Y-13802504D01*
X29678904Y-9002505D02*
X29678904Y-8945936D01*
X29622335Y-8945936D01*
X29622335Y-9002505D01*
X29678904Y-9002505D01*
X29678904Y-9252505D02*
X29678904Y-9195936D01*
X29622335Y-9195936D01*
X29622335Y-9252505D01*
X29678904Y-9252505D01*
X29763904Y-13152504D02*
X29763904Y-13095935D01*
X29707335Y-13095935D01*
X29707335Y-13152504D01*
X29763904Y-13152504D01*
X29886904Y-11102505D02*
X29886904Y-11045936D01*
X29830335Y-11045936D01*
X29830335Y-11102505D01*
X29886904Y-11102505D01*
X29891904Y-14766504D02*
X29891904Y-14709935D01*
X29835335Y-14709935D01*
X29835335Y-14766504D01*
X29891904Y-14766504D01*
X29891904Y-14966504D02*
X29891904Y-14909935D01*
X29835335Y-14909935D01*
X29835335Y-14966504D01*
X29891904Y-14966504D01*
X29891904Y-15366504D02*
X29891904Y-15309935D01*
X29835335Y-15309935D01*
X29835335Y-15366504D01*
X29891904Y-15366504D01*
X29891904Y-15566504D02*
X29891904Y-15509935D01*
X29835335Y-15509935D01*
X29835335Y-15566504D01*
X29891904Y-15566504D01*
X30248904Y-8990005D02*
X30248904Y-8933436D01*
X30192335Y-8933436D01*
X30192335Y-8990005D01*
X30248904Y-8990005D01*
X30248904Y-9244005D02*
X30248904Y-9187436D01*
X30192335Y-9187436D01*
X30192335Y-9244005D01*
X30248904Y-9244005D01*
X30248904Y-9498005D02*
X30248904Y-9441436D01*
X30192335Y-9441436D01*
X30192335Y-9498005D01*
X30248904Y-9498005D01*
X30248904Y-9752005D02*
X30248904Y-9695436D01*
X30192335Y-9695436D01*
X30192335Y-9752005D01*
X30248904Y-9752005D01*
X30248904Y-10006005D02*
X30248904Y-9949436D01*
X30192335Y-9949436D01*
X30192335Y-10006005D01*
X30248904Y-10006005D01*
X30248904Y-10260005D02*
X30248904Y-10203436D01*
X30192335Y-10203436D01*
X30192335Y-10260005D01*
X30248904Y-10260005D01*
X30248904Y-10514005D02*
X30248904Y-10457436D01*
X30192335Y-10457436D01*
X30192335Y-10514005D01*
X30248904Y-10514005D01*
X30278904Y-11032505D02*
X30278904Y-10975936D01*
X30222335Y-10975936D01*
X30222335Y-11032505D01*
X30278904Y-11032505D01*
X30278904Y-12302504D02*
X30278904Y-12245935D01*
X30222335Y-12245935D01*
X30222335Y-12302504D01*
X30278904Y-12302504D01*
X30478904Y-8452505D02*
X30478904Y-8395936D01*
X30422335Y-8395936D01*
X30422335Y-8452505D01*
X30478904Y-8452505D01*
X30625904Y-14816504D02*
X30625904Y-14759935D01*
X30569335Y-14759935D01*
X30569335Y-14816504D01*
X30625904Y-14816504D01*
X30633904Y-15516504D02*
X30633904Y-15459935D01*
X30577335Y-15459935D01*
X30577335Y-15516504D01*
X30633904Y-15516504D01*
X30770904Y-11044505D02*
X30770904Y-10987936D01*
X30714335Y-10987936D01*
X30714335Y-11044505D01*
X30770904Y-11044505D01*
X30770904Y-12060504D02*
X30770904Y-12003935D01*
X30714335Y-12003935D01*
X30714335Y-12060504D01*
X30770904Y-12060504D01*
X30770904Y-12394504D02*
X30770904Y-12337935D01*
X30714335Y-12337935D01*
X30714335Y-12394504D01*
X30770904Y-12394504D01*
X30770904Y-13410504D02*
X30770904Y-13353935D01*
X30714335Y-13353935D01*
X30714335Y-13410504D01*
X30770904Y-13410504D01*
X30928904Y-13802504D02*
X30928904Y-13745935D01*
X30872335Y-13745935D01*
X30872335Y-13802504D01*
X30928904Y-13802504D01*
X31010904Y-8990005D02*
X31010904Y-8933436D01*
X30954335Y-8933436D01*
X30954335Y-8990005D01*
X31010904Y-8990005D01*
X31010904Y-9244005D02*
X31010904Y-9187436D01*
X30954335Y-9187436D01*
X30954335Y-9244005D01*
X31010904Y-9244005D01*
X31010904Y-9498005D02*
X31010904Y-9441436D01*
X30954335Y-9441436D01*
X30954335Y-9498005D01*
X31010904Y-9498005D01*
X31010904Y-9752005D02*
X31010904Y-9695436D01*
X30954335Y-9695436D01*
X30954335Y-9752005D01*
X31010904Y-9752005D01*
X31010904Y-10006005D02*
X31010904Y-9949436D01*
X30954335Y-9949436D01*
X30954335Y-10006005D01*
X31010904Y-10006005D01*
X31010904Y-10260005D02*
X31010904Y-10203436D01*
X30954335Y-10203436D01*
X30954335Y-10260005D01*
X31010904Y-10260005D01*
X31010904Y-10514005D02*
X31010904Y-10457436D01*
X30954335Y-10457436D01*
X30954335Y-10514005D01*
X31010904Y-10514005D01*
X31028904Y-14252504D02*
X31028904Y-14195935D01*
X30972335Y-14195935D01*
X30972335Y-14252504D01*
X31028904Y-14252504D01*
X31228904Y-7976504D02*
X31228904Y-7919935D01*
X31172335Y-7919935D01*
X31172335Y-7976504D01*
X31228904Y-7976504D01*
X31489904Y-10204505D02*
X31489904Y-10147936D01*
X31433335Y-10147936D01*
X31433335Y-10204505D01*
X31489904Y-10204505D01*
X31489904Y-11474504D02*
X31489904Y-11417935D01*
X31433335Y-11417935D01*
X31433335Y-11474504D01*
X31489904Y-11474504D01*
X31641904Y-14816504D02*
X31641904Y-14759935D01*
X31585335Y-14759935D01*
X31585335Y-14816504D01*
X31641904Y-14816504D01*
X31649904Y-15516504D02*
X31649904Y-15459935D01*
X31593335Y-15459935D01*
X31593335Y-15516504D01*
X31649904Y-15516504D01*
X31728904Y-7976504D02*
X31728904Y-7919935D01*
X31672335Y-7919935D01*
X31672335Y-7976504D01*
X31728904Y-7976504D01*
X31790904Y-14252504D02*
X31790904Y-14195935D01*
X31734335Y-14195935D01*
X31734335Y-14252504D01*
X31790904Y-14252504D01*
X32078904Y-9644505D02*
X32078904Y-9587936D01*
X32022335Y-9587936D01*
X32022335Y-9644505D01*
X32078904Y-9644505D01*
X32078904Y-10660505D02*
X32078904Y-10603936D01*
X32022335Y-10603936D01*
X32022335Y-10660505D01*
X32078904Y-10660505D01*
X32078904Y-11002505D02*
X32078904Y-10945936D01*
X32022335Y-10945936D01*
X32022335Y-11002505D01*
X32078904Y-11002505D01*
X32078904Y-12272504D02*
X32078904Y-12215935D01*
X32022335Y-12215935D01*
X32022335Y-12272504D01*
X32078904Y-12272504D01*
X32078904Y-12594504D02*
X32078904Y-12537935D01*
X32022335Y-12537935D01*
X32022335Y-12594504D01*
X32078904Y-12594504D01*
X32078904Y-13610504D02*
X32078904Y-13553935D01*
X32022335Y-13553935D01*
X32022335Y-13610504D01*
X32078904Y-13610504D01*
X32137754Y-7509594D02*
X32137754Y-7453025D01*
X32081185Y-7453025D01*
X32081185Y-7509594D01*
X32137754Y-7509594D01*
X32137754Y-8271594D02*
X32137754Y-8215025D01*
X32081185Y-8215025D01*
X32081185Y-8271594D01*
X32137754Y-8271594D01*
X23748500Y-7130000D02*
X23798500Y-7080000D01*
X23748500Y-7030000D01*
X23698500Y-7080000D01*
X23748500Y-7130000D01*
X23749500Y-16570000D02*
X23799500Y-16520000D01*
X23749500Y-16470000D01*
X23699500Y-16520000D01*
X23749500Y-16570000D01*
X24002500Y-7130000D02*
X24052500Y-7080000D01*
X24002500Y-7030000D01*
X23952500Y-7080000D01*
X24002500Y-7130000D01*
X24003500Y-16570000D02*
X24053500Y-16520000D01*
X24003500Y-16470000D01*
X23953500Y-16520000D01*
X24003500Y-16570000D01*
X24256500Y-7130000D02*
X24306500Y-7080000D01*
X24256500Y-7030000D01*
X24206500Y-7080000D01*
X24256500Y-7130000D01*
X24257500Y-16570000D02*
X24307500Y-16520000D01*
X24257500Y-16470000D01*
X24207500Y-16520000D01*
X24257500Y-16570000D01*
X24510500Y-7130000D02*
X24560500Y-7080000D01*
X24510500Y-7030000D01*
X24460500Y-7080000D01*
X24510500Y-7130000D01*
X24511500Y-16570000D02*
X24561500Y-16520000D01*
X24511500Y-16470000D01*
X24461500Y-16520000D01*
X24511500Y-16570000D01*
X24764500Y-7130000D02*
X24814500Y-7080000D01*
X24764500Y-7030000D01*
X24714500Y-7080000D01*
X24764500Y-7130000D01*
X24765500Y-16570000D02*
X24815500Y-16520000D01*
X24765500Y-16470000D01*
X24715500Y-16520000D01*
X24765500Y-16570000D01*
X25018500Y-7130000D02*
X25068500Y-7080000D01*
X25018500Y-7030000D01*
X24968500Y-7080000D01*
X25018500Y-7130000D01*
X25019500Y-16570000D02*
X25069500Y-16520000D01*
X25019500Y-16470000D01*
X24969500Y-16520000D01*
X25019500Y-16570000D01*
X25272500Y-7130000D02*
X25322500Y-7080000D01*
X25272500Y-7030000D01*
X25222500Y-7080000D01*
X25272500Y-7130000D01*
X25273500Y-16570000D02*
X25323500Y-16520000D01*
X25273500Y-16470000D01*
X25223500Y-16520000D01*
X25273500Y-16570000D01*
X25526500Y-7130000D02*
X25576500Y-7080000D01*
X25526500Y-7030000D01*
X25476500Y-7080000D01*
X25526500Y-7130000D01*
X25527500Y-16570000D02*
X25577500Y-16520000D01*
X25527500Y-16470000D01*
X25477500Y-16520000D01*
X25527500Y-16570000D01*
X25780500Y-7130000D02*
X25830500Y-7080000D01*
X25780500Y-7030000D01*
X25730500Y-7080000D01*
X25780500Y-7130000D01*
X25781500Y-16570000D02*
X25831500Y-16520000D01*
X25781500Y-16470000D01*
X25731500Y-16520000D01*
X25781500Y-16570000D01*
X26000620Y-7874220D02*
X26050620Y-7824220D01*
X26000620Y-7774220D01*
X25950620Y-7824220D01*
X26000620Y-7874220D01*
X26034500Y-7130000D02*
X26084500Y-7080000D01*
X26034500Y-7030000D01*
X25984500Y-7080000D01*
X26034500Y-7130000D01*
X26035500Y-16570000D02*
X26085500Y-16520000D01*
X26035500Y-16470000D01*
X25985500Y-16520000D01*
X26035500Y-16570000D01*
X26288500Y-7130000D02*
X26338500Y-7080000D01*
X26288500Y-7030000D01*
X26238500Y-7080000D01*
X26288500Y-7130000D01*
X26289500Y-16570000D02*
X26339500Y-16520000D01*
X26289500Y-16470000D01*
X26239500Y-16520000D01*
X26289500Y-16570000D01*
X26542500Y-7130000D02*
X26592500Y-7080000D01*
X26542500Y-7030000D01*
X26492500Y-7080000D01*
X26542500Y-7130000D01*
X26543500Y-16570000D02*
X26593500Y-16520000D01*
X26543500Y-16470000D01*
X26493500Y-16520000D01*
X26543500Y-16570000D01*
X26796500Y-7130000D02*
X26846500Y-7080000D01*
X26796500Y-7030000D01*
X26746500Y-7080000D01*
X26796500Y-7130000D01*
X26797500Y-16570000D02*
X26847500Y-16520000D01*
X26797500Y-16470000D01*
X26747500Y-16520000D01*
X26797500Y-16570000D01*
X27016620Y-8128220D02*
X27066620Y-8078220D01*
X27016620Y-8028220D01*
X26966620Y-8078220D01*
X27016620Y-8128220D01*
X27050500Y-7130000D02*
X27100500Y-7080000D01*
X27050500Y-7030000D01*
X27000500Y-7080000D01*
X27050500Y-7130000D01*
X27051500Y-16570000D02*
X27101500Y-16520000D01*
X27051500Y-16470000D01*
X27001500Y-16520000D01*
X27051500Y-16570000D01*
X27304500Y-7130000D02*
X27354500Y-7080000D01*
X27304500Y-7030000D01*
X27254500Y-7080000D01*
X27304500Y-7130000D01*
X27305500Y-16570000D02*
X27355500Y-16520000D01*
X27305500Y-16470000D01*
X27255500Y-16520000D01*
X27305500Y-16570000D01*
X27558500Y-7130000D02*
X27608500Y-7080000D01*
X27558500Y-7030000D01*
X27508500Y-7080000D01*
X27558500Y-7130000D01*
X27559500Y-16570000D02*
X27609500Y-16520000D01*
X27559500Y-16470000D01*
X27509500Y-16520000D01*
X27559500Y-16570000D01*
X27699120Y-14537720D02*
X27749120Y-14487720D01*
X27699120Y-14437720D01*
X27649120Y-14487720D01*
X27699120Y-14537720D01*
X27778620Y-7874220D02*
X27828620Y-7824220D01*
X27778620Y-7774220D01*
X27728620Y-7824220D01*
X27778620Y-7874220D01*
X27812500Y-7130000D02*
X27862500Y-7080000D01*
X27812500Y-7030000D01*
X27762500Y-7080000D01*
X27812500Y-7130000D01*
X27813500Y-16570000D02*
X27863500Y-16520000D01*
X27813500Y-16470000D01*
X27763500Y-16520000D01*
X27813500Y-16570000D01*
X27953120Y-13521720D02*
X28003120Y-13471720D01*
X27953120Y-13421720D01*
X27903120Y-13471720D01*
X27953120Y-13521720D01*
X27953120Y-15299720D02*
X28003120Y-15249720D01*
X27953120Y-15199720D01*
X27903120Y-15249720D01*
X27953120Y-15299720D01*
X28066500Y-7130000D02*
X28116500Y-7080000D01*
X28066500Y-7030000D01*
X28016500Y-7080000D01*
X28066500Y-7130000D01*
X28067500Y-16570000D02*
X28117500Y-16520000D01*
X28067500Y-16470000D01*
X28017500Y-16520000D01*
X28067500Y-16570000D01*
X28320500Y-7130000D02*
X28370500Y-7080000D01*
X28320500Y-7030000D01*
X28270500Y-7080000D01*
X28320500Y-7130000D01*
X28321500Y-16570000D02*
X28371500Y-16520000D01*
X28321500Y-16470000D01*
X28271500Y-16520000D01*
X28321500Y-16570000D01*
X28574500Y-7130000D02*
X28624500Y-7080000D01*
X28574500Y-7030000D01*
X28524500Y-7080000D01*
X28574500Y-7130000D01*
X28575500Y-16570000D02*
X28625500Y-16520000D01*
X28575500Y-16470000D01*
X28525500Y-16520000D01*
X28575500Y-16570000D01*
X28828500Y-7130000D02*
X28878500Y-7080000D01*
X28828500Y-7030000D01*
X28778500Y-7080000D01*
X28828500Y-7130000D01*
X28829500Y-16570000D02*
X28879500Y-16520000D01*
X28829500Y-16470000D01*
X28779500Y-16520000D01*
X28829500Y-16570000D01*
X29082500Y-7130000D02*
X29132500Y-7080000D01*
X29082500Y-7030000D01*
X29032500Y-7080000D01*
X29082500Y-7130000D01*
X29083500Y-16570000D02*
X29133500Y-16520000D01*
X29083500Y-16470000D01*
X29033500Y-16520000D01*
X29083500Y-16570000D01*
X29336500Y-7130000D02*
X29386500Y-7080000D01*
X29336500Y-7030000D01*
X29286500Y-7080000D01*
X29336500Y-7130000D01*
X29337500Y-16570000D02*
X29387500Y-16520000D01*
X29337500Y-16470000D01*
X29287500Y-16520000D01*
X29337500Y-16570000D01*
X29590500Y-7130000D02*
X29640500Y-7080000D01*
X29590500Y-7030000D01*
X29540500Y-7080000D01*
X29590500Y-7130000D01*
X29591500Y-16570000D02*
X29641500Y-16520000D01*
X29591500Y-16470000D01*
X29541500Y-16520000D01*
X29591500Y-16570000D01*
X29844500Y-7130000D02*
X29894500Y-7080000D01*
X29844500Y-7030000D01*
X29794500Y-7080000D01*
X29844500Y-7130000D01*
X29845500Y-16570000D02*
X29895500Y-16520000D01*
X29845500Y-16470000D01*
X29795500Y-16520000D01*
X29845500Y-16570000D01*
X30098500Y-7130000D02*
X30148500Y-7080000D01*
X30098500Y-7030000D01*
X30048500Y-7080000D01*
X30098500Y-7130000D01*
X30099500Y-16570000D02*
X30149500Y-16520000D01*
X30099500Y-16470000D01*
X30049500Y-16520000D01*
X30099500Y-16570000D01*
X30352500Y-7130000D02*
X30402500Y-7080000D01*
X30352500Y-7030000D01*
X30302500Y-7080000D01*
X30352500Y-7130000D01*
X30353500Y-16570000D02*
X30403500Y-16520000D01*
X30353500Y-16470000D01*
X30303500Y-16520000D01*
X30353500Y-16570000D01*
X30606500Y-7130000D02*
X30656500Y-7080000D01*
X30606500Y-7030000D01*
X30556500Y-7080000D01*
X30606500Y-7130000D01*
X30607500Y-16570000D02*
X30657500Y-16520000D01*
X30607500Y-16470000D01*
X30557500Y-16520000D01*
X30607500Y-16570000D01*
X30860500Y-7130000D02*
X30910500Y-7080000D01*
X30860500Y-7030000D01*
X30810500Y-7080000D01*
X30860500Y-7130000D01*
X30861500Y-16570000D02*
X30911500Y-16520000D01*
X30861500Y-16470000D01*
X30811500Y-16520000D01*
X30861500Y-16570000D01*
X31114500Y-7130000D02*
X31164500Y-7080000D01*
X31114500Y-7030000D01*
X31064500Y-7080000D01*
X31114500Y-7130000D01*
X31115500Y-16570000D02*
X31165500Y-16520000D01*
X31115500Y-16470000D01*
X31065500Y-16520000D01*
X31115500Y-16570000D01*
X31216120Y-12779720D02*
X31266120Y-12729720D01*
X31216120Y-12679720D01*
X31166120Y-12729720D01*
X31216120Y-12779720D01*
X31368500Y-7130000D02*
X31418500Y-7080000D01*
X31368500Y-7030000D01*
X31318500Y-7080000D01*
X31368500Y-7130000D01*
X31369500Y-16570000D02*
X31419500Y-16520000D01*
X31369500Y-16470000D01*
X31319500Y-16520000D01*
X31369500Y-16570000D01*
X31470120Y-11763720D02*
X31520120Y-11713720D01*
X31470120Y-11663720D01*
X31420120Y-11713720D01*
X31470120Y-11763720D01*
X31470120Y-13541720D02*
X31520120Y-13491720D01*
X31470120Y-13441720D01*
X31420120Y-13491720D01*
X31470120Y-13541720D01*
X31622500Y-7130000D02*
X31672500Y-7080000D01*
X31622500Y-7030000D01*
X31572500Y-7080000D01*
X31622500Y-7130000D01*
X31623500Y-16570000D02*
X31673500Y-16520000D01*
X31623500Y-16470000D01*
X31573500Y-16520000D01*
X31623500Y-16570000D01*
X32046620Y-14808220D02*
X32096620Y-14758220D01*
X32046620Y-14708220D01*
X31996620Y-14758220D01*
X32046620Y-14808220D01*
X32046620Y-15062220D02*
X32096620Y-15012220D01*
X32046620Y-14962220D01*
X31996620Y-15012220D01*
X32046620Y-15062220D01*
X32046620Y-15316220D02*
X32096620Y-15266220D01*
X32046620Y-15216220D01*
X31996620Y-15266220D01*
X32046620Y-15316220D01*
X32046620Y-15570220D02*
X32096620Y-15520220D01*
X32046620Y-15470220D01*
X31996620Y-15520220D01*
X32046620Y-15570220D01*
X32046620Y-15824220D02*
X32096620Y-15774220D01*
X32046620Y-15724220D01*
X31996620Y-15774220D01*
X32046620Y-15824220D01*
X32300620Y-14808220D02*
X32350620Y-14758220D01*
X32300620Y-14708220D01*
X32250620Y-14758220D01*
X32300620Y-14808220D01*
X32300620Y-15062220D02*
X32350620Y-15012220D01*
X32300620Y-14962220D01*
X32250620Y-15012220D01*
X32300620Y-15062220D01*
X32300620Y-15316220D02*
X32350620Y-15266220D01*
X32300620Y-15216220D01*
X32250620Y-15266220D01*
X32300620Y-15316220D01*
X32300620Y-15570220D02*
X32350620Y-15520220D01*
X32300620Y-15470220D01*
X32250620Y-15520220D01*
X32300620Y-15570220D01*
X32300620Y-15824220D02*
X32350620Y-15774220D01*
X32300620Y-15724220D01*
X32250620Y-15774220D01*
X32300620Y-15824220D01*
D13*
X23190620Y-13730220D02*
X23310620Y-13850220D01*
X23310620Y-13730220D02*
X23190620Y-13850220D01*
X23310620Y-13790220D02*
G75*
G02*
X23190620Y-13790220I-60000J0D01*
G01*
X23190620Y-13790220D02*
G75*
G02*
X23310620Y-13790220I60000J0D01*
G01*
X23190620Y-14238220D02*
X23310620Y-14358220D01*
X23310620Y-14238220D02*
X23190620Y-14358220D01*
X23310620Y-14298220D02*
G75*
G02*
X23190620Y-14298220I-60000J0D01*
G01*
X23190620Y-14298220D02*
G75*
G02*
X23310620Y-14298220I60000J0D01*
G01*
X23556620Y-13364220D02*
X23676620Y-13484220D01*
X23676620Y-13364220D02*
X23556620Y-13484220D01*
X23676620Y-13424220D02*
G75*
G02*
X23556620Y-13424220I-60000J0D01*
G01*
X23556620Y-13424220D02*
G75*
G02*
X23676620Y-13424220I60000J0D01*
G01*
X24064620Y-13364220D02*
X24184620Y-13484220D01*
X24184620Y-13364220D02*
X24064620Y-13484220D01*
X24184620Y-13424220D02*
G75*
G02*
X24064620Y-13424220I-60000J0D01*
G01*
X24064620Y-13424220D02*
G75*
G02*
X24184620Y-13424220I60000J0D01*
G01*
X26840620Y-10864220D02*
X26960620Y-10984220D01*
X26960620Y-10864220D02*
X26840620Y-10984220D01*
X26960620Y-10924220D02*
G75*
G02*
X26840620Y-10924220I-60000J0D01*
G01*
X26840620Y-10924220D02*
G75*
G02*
X26960620Y-10924220I60000J0D01*
G01*
X26840620Y-11372220D02*
X26960620Y-11492220D01*
X26960620Y-11372220D02*
X26840620Y-11492220D01*
X26960620Y-11432220D02*
G75*
G02*
X26840620Y-11432220I-60000J0D01*
G01*
X26840620Y-11432220D02*
G75*
G02*
X26960620Y-11432220I60000J0D01*
G01*
X28156620Y-7864220D02*
X28276620Y-7984220D01*
X28276620Y-7864220D02*
X28156620Y-7984220D01*
X28276620Y-7924220D02*
G75*
G02*
X28156620Y-7924220I-60000J0D01*
G01*
X28156620Y-7924220D02*
G75*
G02*
X28276620Y-7924220I60000J0D01*
G01*
X28664620Y-7864220D02*
X28784620Y-7984220D01*
X28784620Y-7864220D02*
X28664620Y-7984220D01*
X28784620Y-7924220D02*
G75*
G02*
X28664620Y-7924220I-60000J0D01*
G01*
X28664620Y-7924220D02*
G75*
G02*
X28784620Y-7924220I60000J0D01*
G01*
X30790620Y-7914220D02*
X30910620Y-8034220D01*
X30910620Y-7914220D02*
X30790620Y-8034220D01*
X30910620Y-7974220D02*
G75*
G02*
X30790620Y-7974220I-60000J0D01*
G01*
X30790620Y-7974220D02*
G75*
G02*
X30910620Y-7974220I60000J0D01*
G01*
X30790620Y-8422220D02*
X30910620Y-8542220D01*
X30910620Y-8422220D02*
X30790620Y-8542220D01*
X30910620Y-8482220D02*
G75*
G02*
X30790620Y-8482220I-60000J0D01*
G01*
X30790620Y-8482220D02*
G75*
G02*
X30910620Y-8482220I60000J0D01*
G01*
D11*
X22964277Y-17102984D02*
X22964277Y-16902984D01*
X22964277Y-16902984D02*
X23011896Y-16902984D01*
X23011896Y-16902984D02*
X23040467Y-16912508D01*
X23040467Y-16912508D02*
X23059515Y-16931555D01*
X23059515Y-16931555D02*
X23069039Y-16950603D01*
X23069039Y-16950603D02*
X23078562Y-16988698D01*
X23078562Y-16988698D02*
X23078562Y-17017270D01*
X23078562Y-17017270D02*
X23069039Y-17055365D01*
X23069039Y-17055365D02*
X23059515Y-17074412D01*
X23059515Y-17074412D02*
X23040467Y-17093460D01*
X23040467Y-17093460D02*
X23011896Y-17102984D01*
X23011896Y-17102984D02*
X22964277Y-17102984D01*
X23164277Y-17102984D02*
X23164277Y-16969650D01*
X23164277Y-17007746D02*
X23173801Y-16988698D01*
X23173801Y-16988698D02*
X23183324Y-16979174D01*
X23183324Y-16979174D02*
X23202372Y-16969650D01*
X23202372Y-16969650D02*
X23221420Y-16969650D01*
X23288086Y-17102984D02*
X23288086Y-16969650D01*
X23288086Y-16902984D02*
X23278562Y-16912508D01*
X23278562Y-16912508D02*
X23288086Y-16922031D01*
X23288086Y-16922031D02*
X23297610Y-16912508D01*
X23297610Y-16912508D02*
X23288086Y-16902984D01*
X23288086Y-16902984D02*
X23288086Y-16922031D01*
X23411896Y-17102984D02*
X23392848Y-17093460D01*
X23392848Y-17093460D02*
X23383324Y-17074412D01*
X23383324Y-17074412D02*
X23383324Y-16902984D01*
X23516658Y-17102984D02*
X23497610Y-17093460D01*
X23497610Y-17093460D02*
X23488086Y-17074412D01*
X23488086Y-17074412D02*
X23488086Y-16902984D01*
X23745229Y-17102984D02*
X23745229Y-16902984D01*
X23745229Y-16902984D02*
X23811896Y-17045841D01*
X23811896Y-17045841D02*
X23878562Y-16902984D01*
X23878562Y-16902984D02*
X23878562Y-17102984D01*
X24059515Y-17102984D02*
X24059515Y-16998222D01*
X24059515Y-16998222D02*
X24049991Y-16979174D01*
X24049991Y-16979174D02*
X24030943Y-16969650D01*
X24030943Y-16969650D02*
X23992848Y-16969650D01*
X23992848Y-16969650D02*
X23973801Y-16979174D01*
X24059515Y-17093460D02*
X24040467Y-17102984D01*
X24040467Y-17102984D02*
X23992848Y-17102984D01*
X23992848Y-17102984D02*
X23973801Y-17093460D01*
X23973801Y-17093460D02*
X23964277Y-17074412D01*
X23964277Y-17074412D02*
X23964277Y-17055365D01*
X23964277Y-17055365D02*
X23973801Y-17036317D01*
X23973801Y-17036317D02*
X23992848Y-17026793D01*
X23992848Y-17026793D02*
X24040467Y-17026793D01*
X24040467Y-17026793D02*
X24059515Y-17017270D01*
X24154753Y-16969650D02*
X24154753Y-17169650D01*
X24154753Y-16979174D02*
X24173801Y-16969650D01*
X24173801Y-16969650D02*
X24211896Y-16969650D01*
X24211896Y-16969650D02*
X24230943Y-16979174D01*
X24230943Y-16979174D02*
X24240467Y-16988698D01*
X24240467Y-16988698D02*
X24249991Y-17007746D01*
X24249991Y-17007746D02*
X24249991Y-17064889D01*
X24249991Y-17064889D02*
X24240467Y-17083936D01*
X24240467Y-17083936D02*
X24230943Y-17093460D01*
X24230943Y-17093460D02*
X24211896Y-17102984D01*
X24211896Y-17102984D02*
X24173801Y-17102984D01*
X24173801Y-17102984D02*
X24154753Y-17093460D01*
X24335705Y-17083936D02*
X24345229Y-17093460D01*
X24345229Y-17093460D02*
X24335705Y-17102984D01*
X24335705Y-17102984D02*
X24326182Y-17093460D01*
X24326182Y-17093460D02*
X24335705Y-17083936D01*
X24335705Y-17083936D02*
X24335705Y-17102984D01*
X24335705Y-16979174D02*
X24345229Y-16988698D01*
X24345229Y-16988698D02*
X24335705Y-16998222D01*
X24335705Y-16998222D02*
X24326182Y-16988698D01*
X24326182Y-16988698D02*
X24335705Y-16979174D01*
X24335705Y-16979174D02*
X24335705Y-16998222D01*
D12*
X22663500Y-17411500D02*
X22703500Y-17451500D01*
X22703500Y-17411500D02*
X22663500Y-17451500D01*
D11*
X23002372Y-17322984D02*
X23021420Y-17322984D01*
X23021420Y-17322984D02*
X23040467Y-17332508D01*
X23040467Y-17332508D02*
X23049991Y-17342031D01*
X23049991Y-17342031D02*
X23059515Y-17361079D01*
X23059515Y-17361079D02*
X23069039Y-17399174D01*
X23069039Y-17399174D02*
X23069039Y-17446793D01*
X23069039Y-17446793D02*
X23059515Y-17484889D01*
X23059515Y-17484889D02*
X23049991Y-17503936D01*
X23049991Y-17503936D02*
X23040467Y-17513460D01*
X23040467Y-17513460D02*
X23021420Y-17522984D01*
X23021420Y-17522984D02*
X23002372Y-17522984D01*
X23002372Y-17522984D02*
X22983324Y-17513460D01*
X22983324Y-17513460D02*
X22973801Y-17503936D01*
X22973801Y-17503936D02*
X22964277Y-17484889D01*
X22964277Y-17484889D02*
X22954753Y-17446793D01*
X22954753Y-17446793D02*
X22954753Y-17399174D01*
X22954753Y-17399174D02*
X22964277Y-17361079D01*
X22964277Y-17361079D02*
X22973801Y-17342031D01*
X22973801Y-17342031D02*
X22983324Y-17332508D01*
X22983324Y-17332508D02*
X23002372Y-17322984D01*
X23154753Y-17503936D02*
X23164277Y-17513460D01*
X23164277Y-17513460D02*
X23154753Y-17522984D01*
X23154753Y-17522984D02*
X23145229Y-17513460D01*
X23145229Y-17513460D02*
X23154753Y-17503936D01*
X23154753Y-17503936D02*
X23154753Y-17522984D01*
X23335705Y-17389650D02*
X23335705Y-17522984D01*
X23288086Y-17313460D02*
X23240467Y-17456317D01*
X23240467Y-17456317D02*
X23364277Y-17456317D01*
X23478562Y-17322984D02*
X23497610Y-17322984D01*
X23497610Y-17322984D02*
X23516658Y-17332508D01*
X23516658Y-17332508D02*
X23526182Y-17342031D01*
X23526182Y-17342031D02*
X23535705Y-17361079D01*
X23535705Y-17361079D02*
X23545229Y-17399174D01*
X23545229Y-17399174D02*
X23545229Y-17446793D01*
X23545229Y-17446793D02*
X23535705Y-17484889D01*
X23535705Y-17484889D02*
X23526182Y-17503936D01*
X23526182Y-17503936D02*
X23516658Y-17513460D01*
X23516658Y-17513460D02*
X23497610Y-17522984D01*
X23497610Y-17522984D02*
X23478562Y-17522984D01*
X23478562Y-17522984D02*
X23459515Y-17513460D01*
X23459515Y-17513460D02*
X23449991Y-17503936D01*
X23449991Y-17503936D02*
X23440467Y-17484889D01*
X23440467Y-17484889D02*
X23430943Y-17446793D01*
X23430943Y-17446793D02*
X23430943Y-17399174D01*
X23430943Y-17399174D02*
X23440467Y-17361079D01*
X23440467Y-17361079D02*
X23449991Y-17342031D01*
X23449991Y-17342031D02*
X23459515Y-17332508D01*
X23459515Y-17332508D02*
X23478562Y-17322984D01*
X23669039Y-17322984D02*
X23688086Y-17322984D01*
X23688086Y-17322984D02*
X23707134Y-17332508D01*
X23707134Y-17332508D02*
X23716658Y-17342031D01*
X23716658Y-17342031D02*
X23726182Y-17361079D01*
X23726182Y-17361079D02*
X23735705Y-17399174D01*
X23735705Y-17399174D02*
X23735705Y-17446793D01*
X23735705Y-17446793D02*
X23726182Y-17484889D01*
X23726182Y-17484889D02*
X23716658Y-17503936D01*
X23716658Y-17503936D02*
X23707134Y-17513460D01*
X23707134Y-17513460D02*
X23688086Y-17522984D01*
X23688086Y-17522984D02*
X23669039Y-17522984D01*
X23669039Y-17522984D02*
X23649991Y-17513460D01*
X23649991Y-17513460D02*
X23640467Y-17503936D01*
X23640467Y-17503936D02*
X23630943Y-17484889D01*
X23630943Y-17484889D02*
X23621420Y-17446793D01*
X23621420Y-17446793D02*
X23621420Y-17399174D01*
X23621420Y-17399174D02*
X23630943Y-17361079D01*
X23630943Y-17361079D02*
X23640467Y-17342031D01*
X23640467Y-17342031D02*
X23649991Y-17332508D01*
X23649991Y-17332508D02*
X23669039Y-17322984D01*
X23821420Y-17522984D02*
X23821420Y-17389650D01*
X23821420Y-17408698D02*
X23830943Y-17399174D01*
X23830943Y-17399174D02*
X23849991Y-17389650D01*
X23849991Y-17389650D02*
X23878563Y-17389650D01*
X23878563Y-17389650D02*
X23897610Y-17399174D01*
X23897610Y-17399174D02*
X23907134Y-17418222D01*
X23907134Y-17418222D02*
X23907134Y-17522984D01*
X23907134Y-17418222D02*
X23916658Y-17399174D01*
X23916658Y-17399174D02*
X23935705Y-17389650D01*
X23935705Y-17389650D02*
X23964277Y-17389650D01*
X23964277Y-17389650D02*
X23983324Y-17399174D01*
X23983324Y-17399174D02*
X23992848Y-17418222D01*
X23992848Y-17418222D02*
X23992848Y-17522984D01*
X24088086Y-17522984D02*
X24088086Y-17389650D01*
X24088086Y-17408698D02*
X24097610Y-17399174D01*
X24097610Y-17399174D02*
X24116658Y-17389650D01*
X24116658Y-17389650D02*
X24145229Y-17389650D01*
X24145229Y-17389650D02*
X24164277Y-17399174D01*
X24164277Y-17399174D02*
X24173801Y-17418222D01*
X24173801Y-17418222D02*
X24173801Y-17522984D01*
X24173801Y-17418222D02*
X24183324Y-17399174D01*
X24183324Y-17399174D02*
X24202372Y-17389650D01*
X24202372Y-17389650D02*
X24230943Y-17389650D01*
X24230943Y-17389650D02*
X24249991Y-17399174D01*
X24249991Y-17399174D02*
X24259515Y-17418222D01*
X24259515Y-17418222D02*
X24259515Y-17522984D01*
X24649991Y-17313460D02*
X24478563Y-17570603D01*
X24907134Y-17322984D02*
X24926182Y-17322984D01*
X24926182Y-17322984D02*
X24945229Y-17332508D01*
X24945229Y-17332508D02*
X24954753Y-17342031D01*
X24954753Y-17342031D02*
X24964277Y-17361079D01*
X24964277Y-17361079D02*
X24973801Y-17399174D01*
X24973801Y-17399174D02*
X24973801Y-17446793D01*
X24973801Y-17446793D02*
X24964277Y-17484889D01*
X24964277Y-17484889D02*
X24954753Y-17503936D01*
X24954753Y-17503936D02*
X24945229Y-17513460D01*
X24945229Y-17513460D02*
X24926182Y-17522984D01*
X24926182Y-17522984D02*
X24907134Y-17522984D01*
X24907134Y-17522984D02*
X24888086Y-17513460D01*
X24888086Y-17513460D02*
X24878563Y-17503936D01*
X24878563Y-17503936D02*
X24869039Y-17484889D01*
X24869039Y-17484889D02*
X24859515Y-17446793D01*
X24859515Y-17446793D02*
X24859515Y-17399174D01*
X24859515Y-17399174D02*
X24869039Y-17361079D01*
X24869039Y-17361079D02*
X24878563Y-17342031D01*
X24878563Y-17342031D02*
X24888086Y-17332508D01*
X24888086Y-17332508D02*
X24907134Y-17322984D01*
X25059515Y-17503936D02*
X25069039Y-17513460D01*
X25069039Y-17513460D02*
X25059515Y-17522984D01*
X25059515Y-17522984D02*
X25049991Y-17513460D01*
X25049991Y-17513460D02*
X25059515Y-17503936D01*
X25059515Y-17503936D02*
X25059515Y-17522984D01*
X25192848Y-17322984D02*
X25211896Y-17322984D01*
X25211896Y-17322984D02*
X25230944Y-17332508D01*
X25230944Y-17332508D02*
X25240467Y-17342031D01*
X25240467Y-17342031D02*
X25249991Y-17361079D01*
X25249991Y-17361079D02*
X25259515Y-17399174D01*
X25259515Y-17399174D02*
X25259515Y-17446793D01*
X25259515Y-17446793D02*
X25249991Y-17484889D01*
X25249991Y-17484889D02*
X25240467Y-17503936D01*
X25240467Y-17503936D02*
X25230944Y-17513460D01*
X25230944Y-17513460D02*
X25211896Y-17522984D01*
X25211896Y-17522984D02*
X25192848Y-17522984D01*
X25192848Y-17522984D02*
X25173801Y-17513460D01*
X25173801Y-17513460D02*
X25164277Y-17503936D01*
X25164277Y-17503936D02*
X25154753Y-17484889D01*
X25154753Y-17484889D02*
X25145229Y-17446793D01*
X25145229Y-17446793D02*
X25145229Y-17399174D01*
X25145229Y-17399174D02*
X25154753Y-17361079D01*
X25154753Y-17361079D02*
X25164277Y-17342031D01*
X25164277Y-17342031D02*
X25173801Y-17332508D01*
X25173801Y-17332508D02*
X25192848Y-17322984D01*
X25449991Y-17522984D02*
X25335706Y-17522984D01*
X25392848Y-17522984D02*
X25392848Y-17322984D01*
X25392848Y-17322984D02*
X25373801Y-17351555D01*
X25373801Y-17351555D02*
X25354753Y-17370603D01*
X25354753Y-17370603D02*
X25335706Y-17380127D01*
X25630944Y-17322984D02*
X25535706Y-17322984D01*
X25535706Y-17322984D02*
X25526182Y-17418222D01*
X25526182Y-17418222D02*
X25535706Y-17408698D01*
X25535706Y-17408698D02*
X25554753Y-17399174D01*
X25554753Y-17399174D02*
X25602372Y-17399174D01*
X25602372Y-17399174D02*
X25621420Y-17408698D01*
X25621420Y-17408698D02*
X25630944Y-17418222D01*
X25630944Y-17418222D02*
X25640467Y-17437270D01*
X25640467Y-17437270D02*
X25640467Y-17484889D01*
X25640467Y-17484889D02*
X25630944Y-17503936D01*
X25630944Y-17503936D02*
X25621420Y-17513460D01*
X25621420Y-17513460D02*
X25602372Y-17522984D01*
X25602372Y-17522984D02*
X25554753Y-17522984D01*
X25554753Y-17522984D02*
X25535706Y-17513460D01*
X25535706Y-17513460D02*
X25526182Y-17503936D01*
X25707134Y-17322984D02*
X25840467Y-17322984D01*
X25840467Y-17322984D02*
X25754753Y-17522984D01*
X25907134Y-17322984D02*
X25907134Y-17361079D01*
X25983325Y-17322984D02*
X25983325Y-17361079D01*
X26278563Y-17599174D02*
X26269039Y-17589650D01*
X26269039Y-17589650D02*
X26249991Y-17561079D01*
X26249991Y-17561079D02*
X26240468Y-17542031D01*
X26240468Y-17542031D02*
X26230944Y-17513460D01*
X26230944Y-17513460D02*
X26221420Y-17465841D01*
X26221420Y-17465841D02*
X26221420Y-17427746D01*
X26221420Y-17427746D02*
X26230944Y-17380127D01*
X26230944Y-17380127D02*
X26240468Y-17351555D01*
X26240468Y-17351555D02*
X26249991Y-17332508D01*
X26249991Y-17332508D02*
X26269039Y-17303936D01*
X26269039Y-17303936D02*
X26278563Y-17294412D01*
X26440468Y-17389650D02*
X26440468Y-17522984D01*
X26392848Y-17313460D02*
X26345229Y-17456317D01*
X26345229Y-17456317D02*
X26469039Y-17456317D01*
X26573801Y-17408698D02*
X26554753Y-17399174D01*
X26554753Y-17399174D02*
X26545229Y-17389650D01*
X26545229Y-17389650D02*
X26535706Y-17370603D01*
X26535706Y-17370603D02*
X26535706Y-17361079D01*
X26535706Y-17361079D02*
X26545229Y-17342031D01*
X26545229Y-17342031D02*
X26554753Y-17332508D01*
X26554753Y-17332508D02*
X26573801Y-17322984D01*
X26573801Y-17322984D02*
X26611896Y-17322984D01*
X26611896Y-17322984D02*
X26630944Y-17332508D01*
X26630944Y-17332508D02*
X26640468Y-17342031D01*
X26640468Y-17342031D02*
X26649991Y-17361079D01*
X26649991Y-17361079D02*
X26649991Y-17370603D01*
X26649991Y-17370603D02*
X26640468Y-17389650D01*
X26640468Y-17389650D02*
X26630944Y-17399174D01*
X26630944Y-17399174D02*
X26611896Y-17408698D01*
X26611896Y-17408698D02*
X26573801Y-17408698D01*
X26573801Y-17408698D02*
X26554753Y-17418222D01*
X26554753Y-17418222D02*
X26545229Y-17427746D01*
X26545229Y-17427746D02*
X26535706Y-17446793D01*
X26535706Y-17446793D02*
X26535706Y-17484889D01*
X26535706Y-17484889D02*
X26545229Y-17503936D01*
X26545229Y-17503936D02*
X26554753Y-17513460D01*
X26554753Y-17513460D02*
X26573801Y-17522984D01*
X26573801Y-17522984D02*
X26611896Y-17522984D01*
X26611896Y-17522984D02*
X26630944Y-17513460D01*
X26630944Y-17513460D02*
X26640468Y-17503936D01*
X26640468Y-17503936D02*
X26649991Y-17484889D01*
X26649991Y-17484889D02*
X26649991Y-17446793D01*
X26649991Y-17446793D02*
X26640468Y-17427746D01*
X26640468Y-17427746D02*
X26630944Y-17418222D01*
X26630944Y-17418222D02*
X26611896Y-17408698D01*
X26888087Y-17522984D02*
X26888087Y-17322984D01*
X26973801Y-17522984D02*
X26973801Y-17418222D01*
X26973801Y-17418222D02*
X26964277Y-17399174D01*
X26964277Y-17399174D02*
X26945230Y-17389650D01*
X26945230Y-17389650D02*
X26916658Y-17389650D01*
X26916658Y-17389650D02*
X26897610Y-17399174D01*
X26897610Y-17399174D02*
X26888087Y-17408698D01*
X27097610Y-17522984D02*
X27078563Y-17513460D01*
X27078563Y-17513460D02*
X27069039Y-17503936D01*
X27069039Y-17503936D02*
X27059515Y-17484889D01*
X27059515Y-17484889D02*
X27059515Y-17427746D01*
X27059515Y-17427746D02*
X27069039Y-17408698D01*
X27069039Y-17408698D02*
X27078563Y-17399174D01*
X27078563Y-17399174D02*
X27097610Y-17389650D01*
X27097610Y-17389650D02*
X27126182Y-17389650D01*
X27126182Y-17389650D02*
X27145230Y-17399174D01*
X27145230Y-17399174D02*
X27154753Y-17408698D01*
X27154753Y-17408698D02*
X27164277Y-17427746D01*
X27164277Y-17427746D02*
X27164277Y-17484889D01*
X27164277Y-17484889D02*
X27154753Y-17503936D01*
X27154753Y-17503936D02*
X27145230Y-17513460D01*
X27145230Y-17513460D02*
X27126182Y-17522984D01*
X27126182Y-17522984D02*
X27097610Y-17522984D01*
X27278563Y-17522984D02*
X27259515Y-17513460D01*
X27259515Y-17513460D02*
X27249991Y-17494412D01*
X27249991Y-17494412D02*
X27249991Y-17322984D01*
X27430944Y-17513460D02*
X27411896Y-17522984D01*
X27411896Y-17522984D02*
X27373801Y-17522984D01*
X27373801Y-17522984D02*
X27354753Y-17513460D01*
X27354753Y-17513460D02*
X27345230Y-17494412D01*
X27345230Y-17494412D02*
X27345230Y-17418222D01*
X27345230Y-17418222D02*
X27354753Y-17399174D01*
X27354753Y-17399174D02*
X27373801Y-17389650D01*
X27373801Y-17389650D02*
X27411896Y-17389650D01*
X27411896Y-17389650D02*
X27430944Y-17399174D01*
X27430944Y-17399174D02*
X27440468Y-17418222D01*
X27440468Y-17418222D02*
X27440468Y-17437270D01*
X27440468Y-17437270D02*
X27345230Y-17456317D01*
X27516658Y-17513460D02*
X27535706Y-17522984D01*
X27535706Y-17522984D02*
X27573801Y-17522984D01*
X27573801Y-17522984D02*
X27592849Y-17513460D01*
X27592849Y-17513460D02*
X27602372Y-17494412D01*
X27602372Y-17494412D02*
X27602372Y-17484889D01*
X27602372Y-17484889D02*
X27592849Y-17465841D01*
X27592849Y-17465841D02*
X27573801Y-17456317D01*
X27573801Y-17456317D02*
X27545230Y-17456317D01*
X27545230Y-17456317D02*
X27526182Y-17446793D01*
X27526182Y-17446793D02*
X27516658Y-17427746D01*
X27516658Y-17427746D02*
X27516658Y-17418222D01*
X27516658Y-17418222D02*
X27526182Y-17399174D01*
X27526182Y-17399174D02*
X27545230Y-17389650D01*
X27545230Y-17389650D02*
X27573801Y-17389650D01*
X27573801Y-17389650D02*
X27592849Y-17399174D01*
X27669039Y-17599174D02*
X27678563Y-17589650D01*
X27678563Y-17589650D02*
X27697611Y-17561079D01*
X27697611Y-17561079D02*
X27707134Y-17542031D01*
X27707134Y-17542031D02*
X27716658Y-17513460D01*
X27716658Y-17513460D02*
X27726182Y-17465841D01*
X27726182Y-17465841D02*
X27726182Y-17427746D01*
X27726182Y-17427746D02*
X27716658Y-17380127D01*
X27716658Y-17380127D02*
X27707134Y-17351555D01*
X27707134Y-17351555D02*
X27697611Y-17332508D01*
X27697611Y-17332508D02*
X27678563Y-17303936D01*
X27678563Y-17303936D02*
X27669039Y-17294412D01*
D12*
X22703500Y-17695500D02*
G75*
G02*
X22633500Y-17695500I-35000J0D01*
G01*
X22633500Y-17695500D02*
G75*
G02*
X22703500Y-17695500I35000J0D01*
G01*
D11*
X23002372Y-17586984D02*
X23021420Y-17586984D01*
X23021420Y-17586984D02*
X23040467Y-17596508D01*
X23040467Y-17596508D02*
X23049991Y-17606031D01*
X23049991Y-17606031D02*
X23059515Y-17625079D01*
X23059515Y-17625079D02*
X23069039Y-17663174D01*
X23069039Y-17663174D02*
X23069039Y-17710793D01*
X23069039Y-17710793D02*
X23059515Y-17748889D01*
X23059515Y-17748889D02*
X23049991Y-17767936D01*
X23049991Y-17767936D02*
X23040467Y-17777460D01*
X23040467Y-17777460D02*
X23021420Y-17786984D01*
X23021420Y-17786984D02*
X23002372Y-17786984D01*
X23002372Y-17786984D02*
X22983324Y-17777460D01*
X22983324Y-17777460D02*
X22973801Y-17767936D01*
X22973801Y-17767936D02*
X22964277Y-17748889D01*
X22964277Y-17748889D02*
X22954753Y-17710793D01*
X22954753Y-17710793D02*
X22954753Y-17663174D01*
X22954753Y-17663174D02*
X22964277Y-17625079D01*
X22964277Y-17625079D02*
X22973801Y-17606031D01*
X22973801Y-17606031D02*
X22983324Y-17596508D01*
X22983324Y-17596508D02*
X23002372Y-17586984D01*
X23154753Y-17767936D02*
X23164277Y-17777460D01*
X23164277Y-17777460D02*
X23154753Y-17786984D01*
X23154753Y-17786984D02*
X23145229Y-17777460D01*
X23145229Y-17777460D02*
X23154753Y-17767936D01*
X23154753Y-17767936D02*
X23154753Y-17786984D01*
X23230943Y-17586984D02*
X23364277Y-17586984D01*
X23364277Y-17586984D02*
X23278562Y-17786984D01*
X23478562Y-17586984D02*
X23497610Y-17586984D01*
X23497610Y-17586984D02*
X23516658Y-17596508D01*
X23516658Y-17596508D02*
X23526182Y-17606031D01*
X23526182Y-17606031D02*
X23535705Y-17625079D01*
X23535705Y-17625079D02*
X23545229Y-17663174D01*
X23545229Y-17663174D02*
X23545229Y-17710793D01*
X23545229Y-17710793D02*
X23535705Y-17748889D01*
X23535705Y-17748889D02*
X23526182Y-17767936D01*
X23526182Y-17767936D02*
X23516658Y-17777460D01*
X23516658Y-17777460D02*
X23497610Y-17786984D01*
X23497610Y-17786984D02*
X23478562Y-17786984D01*
X23478562Y-17786984D02*
X23459515Y-17777460D01*
X23459515Y-17777460D02*
X23449991Y-17767936D01*
X23449991Y-17767936D02*
X23440467Y-17748889D01*
X23440467Y-17748889D02*
X23430943Y-17710793D01*
X23430943Y-17710793D02*
X23430943Y-17663174D01*
X23430943Y-17663174D02*
X23440467Y-17625079D01*
X23440467Y-17625079D02*
X23449991Y-17606031D01*
X23449991Y-17606031D02*
X23459515Y-17596508D01*
X23459515Y-17596508D02*
X23478562Y-17586984D01*
X23669039Y-17586984D02*
X23688086Y-17586984D01*
X23688086Y-17586984D02*
X23707134Y-17596508D01*
X23707134Y-17596508D02*
X23716658Y-17606031D01*
X23716658Y-17606031D02*
X23726182Y-17625079D01*
X23726182Y-17625079D02*
X23735705Y-17663174D01*
X23735705Y-17663174D02*
X23735705Y-17710793D01*
X23735705Y-17710793D02*
X23726182Y-17748889D01*
X23726182Y-17748889D02*
X23716658Y-17767936D01*
X23716658Y-17767936D02*
X23707134Y-17777460D01*
X23707134Y-17777460D02*
X23688086Y-17786984D01*
X23688086Y-17786984D02*
X23669039Y-17786984D01*
X23669039Y-17786984D02*
X23649991Y-17777460D01*
X23649991Y-17777460D02*
X23640467Y-17767936D01*
X23640467Y-17767936D02*
X23630943Y-17748889D01*
X23630943Y-17748889D02*
X23621420Y-17710793D01*
X23621420Y-17710793D02*
X23621420Y-17663174D01*
X23621420Y-17663174D02*
X23630943Y-17625079D01*
X23630943Y-17625079D02*
X23640467Y-17606031D01*
X23640467Y-17606031D02*
X23649991Y-17596508D01*
X23649991Y-17596508D02*
X23669039Y-17586984D01*
X23821420Y-17786984D02*
X23821420Y-17653650D01*
X23821420Y-17672698D02*
X23830943Y-17663174D01*
X23830943Y-17663174D02*
X23849991Y-17653650D01*
X23849991Y-17653650D02*
X23878563Y-17653650D01*
X23878563Y-17653650D02*
X23897610Y-17663174D01*
X23897610Y-17663174D02*
X23907134Y-17682222D01*
X23907134Y-17682222D02*
X23907134Y-17786984D01*
X23907134Y-17682222D02*
X23916658Y-17663174D01*
X23916658Y-17663174D02*
X23935705Y-17653650D01*
X23935705Y-17653650D02*
X23964277Y-17653650D01*
X23964277Y-17653650D02*
X23983324Y-17663174D01*
X23983324Y-17663174D02*
X23992848Y-17682222D01*
X23992848Y-17682222D02*
X23992848Y-17786984D01*
X24088086Y-17786984D02*
X24088086Y-17653650D01*
X24088086Y-17672698D02*
X24097610Y-17663174D01*
X24097610Y-17663174D02*
X24116658Y-17653650D01*
X24116658Y-17653650D02*
X24145229Y-17653650D01*
X24145229Y-17653650D02*
X24164277Y-17663174D01*
X24164277Y-17663174D02*
X24173801Y-17682222D01*
X24173801Y-17682222D02*
X24173801Y-17786984D01*
X24173801Y-17682222D02*
X24183324Y-17663174D01*
X24183324Y-17663174D02*
X24202372Y-17653650D01*
X24202372Y-17653650D02*
X24230943Y-17653650D01*
X24230943Y-17653650D02*
X24249991Y-17663174D01*
X24249991Y-17663174D02*
X24259515Y-17682222D01*
X24259515Y-17682222D02*
X24259515Y-17786984D01*
X24649991Y-17577460D02*
X24478563Y-17834603D01*
X24907134Y-17586984D02*
X24926182Y-17586984D01*
X24926182Y-17586984D02*
X24945229Y-17596508D01*
X24945229Y-17596508D02*
X24954753Y-17606031D01*
X24954753Y-17606031D02*
X24964277Y-17625079D01*
X24964277Y-17625079D02*
X24973801Y-17663174D01*
X24973801Y-17663174D02*
X24973801Y-17710793D01*
X24973801Y-17710793D02*
X24964277Y-17748889D01*
X24964277Y-17748889D02*
X24954753Y-17767936D01*
X24954753Y-17767936D02*
X24945229Y-17777460D01*
X24945229Y-17777460D02*
X24926182Y-17786984D01*
X24926182Y-17786984D02*
X24907134Y-17786984D01*
X24907134Y-17786984D02*
X24888086Y-17777460D01*
X24888086Y-17777460D02*
X24878563Y-17767936D01*
X24878563Y-17767936D02*
X24869039Y-17748889D01*
X24869039Y-17748889D02*
X24859515Y-17710793D01*
X24859515Y-17710793D02*
X24859515Y-17663174D01*
X24859515Y-17663174D02*
X24869039Y-17625079D01*
X24869039Y-17625079D02*
X24878563Y-17606031D01*
X24878563Y-17606031D02*
X24888086Y-17596508D01*
X24888086Y-17596508D02*
X24907134Y-17586984D01*
X25059515Y-17767936D02*
X25069039Y-17777460D01*
X25069039Y-17777460D02*
X25059515Y-17786984D01*
X25059515Y-17786984D02*
X25049991Y-17777460D01*
X25049991Y-17777460D02*
X25059515Y-17767936D01*
X25059515Y-17767936D02*
X25059515Y-17786984D01*
X25192848Y-17586984D02*
X25211896Y-17586984D01*
X25211896Y-17586984D02*
X25230944Y-17596508D01*
X25230944Y-17596508D02*
X25240467Y-17606031D01*
X25240467Y-17606031D02*
X25249991Y-17625079D01*
X25249991Y-17625079D02*
X25259515Y-17663174D01*
X25259515Y-17663174D02*
X25259515Y-17710793D01*
X25259515Y-17710793D02*
X25249991Y-17748889D01*
X25249991Y-17748889D02*
X25240467Y-17767936D01*
X25240467Y-17767936D02*
X25230944Y-17777460D01*
X25230944Y-17777460D02*
X25211896Y-17786984D01*
X25211896Y-17786984D02*
X25192848Y-17786984D01*
X25192848Y-17786984D02*
X25173801Y-17777460D01*
X25173801Y-17777460D02*
X25164277Y-17767936D01*
X25164277Y-17767936D02*
X25154753Y-17748889D01*
X25154753Y-17748889D02*
X25145229Y-17710793D01*
X25145229Y-17710793D02*
X25145229Y-17663174D01*
X25145229Y-17663174D02*
X25154753Y-17625079D01*
X25154753Y-17625079D02*
X25164277Y-17606031D01*
X25164277Y-17606031D02*
X25173801Y-17596508D01*
X25173801Y-17596508D02*
X25192848Y-17586984D01*
X25335706Y-17606031D02*
X25345229Y-17596508D01*
X25345229Y-17596508D02*
X25364277Y-17586984D01*
X25364277Y-17586984D02*
X25411896Y-17586984D01*
X25411896Y-17586984D02*
X25430944Y-17596508D01*
X25430944Y-17596508D02*
X25440467Y-17606031D01*
X25440467Y-17606031D02*
X25449991Y-17625079D01*
X25449991Y-17625079D02*
X25449991Y-17644127D01*
X25449991Y-17644127D02*
X25440467Y-17672698D01*
X25440467Y-17672698D02*
X25326182Y-17786984D01*
X25326182Y-17786984D02*
X25449991Y-17786984D01*
X25516658Y-17586984D02*
X25649991Y-17586984D01*
X25649991Y-17586984D02*
X25564277Y-17786984D01*
X25811896Y-17586984D02*
X25773801Y-17586984D01*
X25773801Y-17586984D02*
X25754753Y-17596508D01*
X25754753Y-17596508D02*
X25745229Y-17606031D01*
X25745229Y-17606031D02*
X25726182Y-17634603D01*
X25726182Y-17634603D02*
X25716658Y-17672698D01*
X25716658Y-17672698D02*
X25716658Y-17748889D01*
X25716658Y-17748889D02*
X25726182Y-17767936D01*
X25726182Y-17767936D02*
X25735706Y-17777460D01*
X25735706Y-17777460D02*
X25754753Y-17786984D01*
X25754753Y-17786984D02*
X25792848Y-17786984D01*
X25792848Y-17786984D02*
X25811896Y-17777460D01*
X25811896Y-17777460D02*
X25821420Y-17767936D01*
X25821420Y-17767936D02*
X25830944Y-17748889D01*
X25830944Y-17748889D02*
X25830944Y-17701270D01*
X25830944Y-17701270D02*
X25821420Y-17682222D01*
X25821420Y-17682222D02*
X25811896Y-17672698D01*
X25811896Y-17672698D02*
X25792848Y-17663174D01*
X25792848Y-17663174D02*
X25754753Y-17663174D01*
X25754753Y-17663174D02*
X25735706Y-17672698D01*
X25735706Y-17672698D02*
X25726182Y-17682222D01*
X25726182Y-17682222D02*
X25716658Y-17701270D01*
X25907134Y-17586984D02*
X25907134Y-17625079D01*
X25983325Y-17586984D02*
X25983325Y-17625079D01*
X26278563Y-17863174D02*
X26269039Y-17853650D01*
X26269039Y-17853650D02*
X26249991Y-17825079D01*
X26249991Y-17825079D02*
X26240468Y-17806031D01*
X26240468Y-17806031D02*
X26230944Y-17777460D01*
X26230944Y-17777460D02*
X26221420Y-17729841D01*
X26221420Y-17729841D02*
X26221420Y-17691746D01*
X26221420Y-17691746D02*
X26230944Y-17644127D01*
X26230944Y-17644127D02*
X26240468Y-17615555D01*
X26240468Y-17615555D02*
X26249991Y-17596508D01*
X26249991Y-17596508D02*
X26269039Y-17567936D01*
X26269039Y-17567936D02*
X26278563Y-17558412D01*
X26345229Y-17606031D02*
X26354753Y-17596508D01*
X26354753Y-17596508D02*
X26373801Y-17586984D01*
X26373801Y-17586984D02*
X26421420Y-17586984D01*
X26421420Y-17586984D02*
X26440468Y-17596508D01*
X26440468Y-17596508D02*
X26449991Y-17606031D01*
X26449991Y-17606031D02*
X26459515Y-17625079D01*
X26459515Y-17625079D02*
X26459515Y-17644127D01*
X26459515Y-17644127D02*
X26449991Y-17672698D01*
X26449991Y-17672698D02*
X26335706Y-17786984D01*
X26335706Y-17786984D02*
X26459515Y-17786984D01*
X26630944Y-17653650D02*
X26630944Y-17786984D01*
X26583325Y-17577460D02*
X26535706Y-17720317D01*
X26535706Y-17720317D02*
X26659515Y-17720317D01*
X26888087Y-17786984D02*
X26888087Y-17586984D01*
X26973801Y-17786984D02*
X26973801Y-17682222D01*
X26973801Y-17682222D02*
X26964277Y-17663174D01*
X26964277Y-17663174D02*
X26945230Y-17653650D01*
X26945230Y-17653650D02*
X26916658Y-17653650D01*
X26916658Y-17653650D02*
X26897610Y-17663174D01*
X26897610Y-17663174D02*
X26888087Y-17672698D01*
X27097610Y-17786984D02*
X27078563Y-17777460D01*
X27078563Y-17777460D02*
X27069039Y-17767936D01*
X27069039Y-17767936D02*
X27059515Y-17748889D01*
X27059515Y-17748889D02*
X27059515Y-17691746D01*
X27059515Y-17691746D02*
X27069039Y-17672698D01*
X27069039Y-17672698D02*
X27078563Y-17663174D01*
X27078563Y-17663174D02*
X27097610Y-17653650D01*
X27097610Y-17653650D02*
X27126182Y-17653650D01*
X27126182Y-17653650D02*
X27145230Y-17663174D01*
X27145230Y-17663174D02*
X27154753Y-17672698D01*
X27154753Y-17672698D02*
X27164277Y-17691746D01*
X27164277Y-17691746D02*
X27164277Y-17748889D01*
X27164277Y-17748889D02*
X27154753Y-17767936D01*
X27154753Y-17767936D02*
X27145230Y-17777460D01*
X27145230Y-17777460D02*
X27126182Y-17786984D01*
X27126182Y-17786984D02*
X27097610Y-17786984D01*
X27278563Y-17786984D02*
X27259515Y-17777460D01*
X27259515Y-17777460D02*
X27249991Y-17758412D01*
X27249991Y-17758412D02*
X27249991Y-17586984D01*
X27430944Y-17777460D02*
X27411896Y-17786984D01*
X27411896Y-17786984D02*
X27373801Y-17786984D01*
X27373801Y-17786984D02*
X27354753Y-17777460D01*
X27354753Y-17777460D02*
X27345230Y-17758412D01*
X27345230Y-17758412D02*
X27345230Y-17682222D01*
X27345230Y-17682222D02*
X27354753Y-17663174D01*
X27354753Y-17663174D02*
X27373801Y-17653650D01*
X27373801Y-17653650D02*
X27411896Y-17653650D01*
X27411896Y-17653650D02*
X27430944Y-17663174D01*
X27430944Y-17663174D02*
X27440468Y-17682222D01*
X27440468Y-17682222D02*
X27440468Y-17701270D01*
X27440468Y-17701270D02*
X27345230Y-17720317D01*
X27516658Y-17777460D02*
X27535706Y-17786984D01*
X27535706Y-17786984D02*
X27573801Y-17786984D01*
X27573801Y-17786984D02*
X27592849Y-17777460D01*
X27592849Y-17777460D02*
X27602372Y-17758412D01*
X27602372Y-17758412D02*
X27602372Y-17748889D01*
X27602372Y-17748889D02*
X27592849Y-17729841D01*
X27592849Y-17729841D02*
X27573801Y-17720317D01*
X27573801Y-17720317D02*
X27545230Y-17720317D01*
X27545230Y-17720317D02*
X27526182Y-17710793D01*
X27526182Y-17710793D02*
X27516658Y-17691746D01*
X27516658Y-17691746D02*
X27516658Y-17682222D01*
X27516658Y-17682222D02*
X27526182Y-17663174D01*
X27526182Y-17663174D02*
X27545230Y-17653650D01*
X27545230Y-17653650D02*
X27573801Y-17653650D01*
X27573801Y-17653650D02*
X27592849Y-17663174D01*
X27669039Y-17863174D02*
X27678563Y-17853650D01*
X27678563Y-17853650D02*
X27697611Y-17825079D01*
X27697611Y-17825079D02*
X27707134Y-17806031D01*
X27707134Y-17806031D02*
X27716658Y-17777460D01*
X27716658Y-17777460D02*
X27726182Y-17729841D01*
X27726182Y-17729841D02*
X27726182Y-17691746D01*
X27726182Y-17691746D02*
X27716658Y-17644127D01*
X27716658Y-17644127D02*
X27707134Y-17615555D01*
X27707134Y-17615555D02*
X27697611Y-17596508D01*
X27697611Y-17596508D02*
X27678563Y-17567936D01*
X27678563Y-17567936D02*
X27669039Y-17558412D01*
D12*
X22666000Y-17922000D02*
X22666000Y-17997000D01*
X22628500Y-17959500D02*
X22703500Y-17959500D01*
D11*
X23002372Y-17850984D02*
X23021420Y-17850984D01*
X23021420Y-17850984D02*
X23040467Y-17860508D01*
X23040467Y-17860508D02*
X23049991Y-17870031D01*
X23049991Y-17870031D02*
X23059515Y-17889079D01*
X23059515Y-17889079D02*
X23069039Y-17927174D01*
X23069039Y-17927174D02*
X23069039Y-17974793D01*
X23069039Y-17974793D02*
X23059515Y-18012889D01*
X23059515Y-18012889D02*
X23049991Y-18031936D01*
X23049991Y-18031936D02*
X23040467Y-18041460D01*
X23040467Y-18041460D02*
X23021420Y-18050984D01*
X23021420Y-18050984D02*
X23002372Y-18050984D01*
X23002372Y-18050984D02*
X22983324Y-18041460D01*
X22983324Y-18041460D02*
X22973801Y-18031936D01*
X22973801Y-18031936D02*
X22964277Y-18012889D01*
X22964277Y-18012889D02*
X22954753Y-17974793D01*
X22954753Y-17974793D02*
X22954753Y-17927174D01*
X22954753Y-17927174D02*
X22964277Y-17889079D01*
X22964277Y-17889079D02*
X22973801Y-17870031D01*
X22973801Y-17870031D02*
X22983324Y-17860508D01*
X22983324Y-17860508D02*
X23002372Y-17850984D01*
X23154753Y-18031936D02*
X23164277Y-18041460D01*
X23164277Y-18041460D02*
X23154753Y-18050984D01*
X23154753Y-18050984D02*
X23145229Y-18041460D01*
X23145229Y-18041460D02*
X23154753Y-18031936D01*
X23154753Y-18031936D02*
X23154753Y-18050984D01*
X23230943Y-17850984D02*
X23364277Y-17850984D01*
X23364277Y-17850984D02*
X23278562Y-18050984D01*
X23535705Y-17850984D02*
X23440467Y-17850984D01*
X23440467Y-17850984D02*
X23430943Y-17946222D01*
X23430943Y-17946222D02*
X23440467Y-17936698D01*
X23440467Y-17936698D02*
X23459515Y-17927174D01*
X23459515Y-17927174D02*
X23507134Y-17927174D01*
X23507134Y-17927174D02*
X23526182Y-17936698D01*
X23526182Y-17936698D02*
X23535705Y-17946222D01*
X23535705Y-17946222D02*
X23545229Y-17965270D01*
X23545229Y-17965270D02*
X23545229Y-18012889D01*
X23545229Y-18012889D02*
X23535705Y-18031936D01*
X23535705Y-18031936D02*
X23526182Y-18041460D01*
X23526182Y-18041460D02*
X23507134Y-18050984D01*
X23507134Y-18050984D02*
X23459515Y-18050984D01*
X23459515Y-18050984D02*
X23440467Y-18041460D01*
X23440467Y-18041460D02*
X23430943Y-18031936D01*
X23669039Y-17850984D02*
X23688086Y-17850984D01*
X23688086Y-17850984D02*
X23707134Y-17860508D01*
X23707134Y-17860508D02*
X23716658Y-17870031D01*
X23716658Y-17870031D02*
X23726182Y-17889079D01*
X23726182Y-17889079D02*
X23735705Y-17927174D01*
X23735705Y-17927174D02*
X23735705Y-17974793D01*
X23735705Y-17974793D02*
X23726182Y-18012889D01*
X23726182Y-18012889D02*
X23716658Y-18031936D01*
X23716658Y-18031936D02*
X23707134Y-18041460D01*
X23707134Y-18041460D02*
X23688086Y-18050984D01*
X23688086Y-18050984D02*
X23669039Y-18050984D01*
X23669039Y-18050984D02*
X23649991Y-18041460D01*
X23649991Y-18041460D02*
X23640467Y-18031936D01*
X23640467Y-18031936D02*
X23630943Y-18012889D01*
X23630943Y-18012889D02*
X23621420Y-17974793D01*
X23621420Y-17974793D02*
X23621420Y-17927174D01*
X23621420Y-17927174D02*
X23630943Y-17889079D01*
X23630943Y-17889079D02*
X23640467Y-17870031D01*
X23640467Y-17870031D02*
X23649991Y-17860508D01*
X23649991Y-17860508D02*
X23669039Y-17850984D01*
X23821420Y-18050984D02*
X23821420Y-17917650D01*
X23821420Y-17936698D02*
X23830943Y-17927174D01*
X23830943Y-17927174D02*
X23849991Y-17917650D01*
X23849991Y-17917650D02*
X23878563Y-17917650D01*
X23878563Y-17917650D02*
X23897610Y-17927174D01*
X23897610Y-17927174D02*
X23907134Y-17946222D01*
X23907134Y-17946222D02*
X23907134Y-18050984D01*
X23907134Y-17946222D02*
X23916658Y-17927174D01*
X23916658Y-17927174D02*
X23935705Y-17917650D01*
X23935705Y-17917650D02*
X23964277Y-17917650D01*
X23964277Y-17917650D02*
X23983324Y-17927174D01*
X23983324Y-17927174D02*
X23992848Y-17946222D01*
X23992848Y-17946222D02*
X23992848Y-18050984D01*
X24088086Y-18050984D02*
X24088086Y-17917650D01*
X24088086Y-17936698D02*
X24097610Y-17927174D01*
X24097610Y-17927174D02*
X24116658Y-17917650D01*
X24116658Y-17917650D02*
X24145229Y-17917650D01*
X24145229Y-17917650D02*
X24164277Y-17927174D01*
X24164277Y-17927174D02*
X24173801Y-17946222D01*
X24173801Y-17946222D02*
X24173801Y-18050984D01*
X24173801Y-17946222D02*
X24183324Y-17927174D01*
X24183324Y-17927174D02*
X24202372Y-17917650D01*
X24202372Y-17917650D02*
X24230943Y-17917650D01*
X24230943Y-17917650D02*
X24249991Y-17927174D01*
X24249991Y-17927174D02*
X24259515Y-17946222D01*
X24259515Y-17946222D02*
X24259515Y-18050984D01*
X24649991Y-17841460D02*
X24478563Y-18098603D01*
X24907134Y-17850984D02*
X24926182Y-17850984D01*
X24926182Y-17850984D02*
X24945229Y-17860508D01*
X24945229Y-17860508D02*
X24954753Y-17870031D01*
X24954753Y-17870031D02*
X24964277Y-17889079D01*
X24964277Y-17889079D02*
X24973801Y-17927174D01*
X24973801Y-17927174D02*
X24973801Y-17974793D01*
X24973801Y-17974793D02*
X24964277Y-18012889D01*
X24964277Y-18012889D02*
X24954753Y-18031936D01*
X24954753Y-18031936D02*
X24945229Y-18041460D01*
X24945229Y-18041460D02*
X24926182Y-18050984D01*
X24926182Y-18050984D02*
X24907134Y-18050984D01*
X24907134Y-18050984D02*
X24888086Y-18041460D01*
X24888086Y-18041460D02*
X24878563Y-18031936D01*
X24878563Y-18031936D02*
X24869039Y-18012889D01*
X24869039Y-18012889D02*
X24859515Y-17974793D01*
X24859515Y-17974793D02*
X24859515Y-17927174D01*
X24859515Y-17927174D02*
X24869039Y-17889079D01*
X24869039Y-17889079D02*
X24878563Y-17870031D01*
X24878563Y-17870031D02*
X24888086Y-17860508D01*
X24888086Y-17860508D02*
X24907134Y-17850984D01*
X25059515Y-18031936D02*
X25069039Y-18041460D01*
X25069039Y-18041460D02*
X25059515Y-18050984D01*
X25059515Y-18050984D02*
X25049991Y-18041460D01*
X25049991Y-18041460D02*
X25059515Y-18031936D01*
X25059515Y-18031936D02*
X25059515Y-18050984D01*
X25192848Y-17850984D02*
X25211896Y-17850984D01*
X25211896Y-17850984D02*
X25230944Y-17860508D01*
X25230944Y-17860508D02*
X25240467Y-17870031D01*
X25240467Y-17870031D02*
X25249991Y-17889079D01*
X25249991Y-17889079D02*
X25259515Y-17927174D01*
X25259515Y-17927174D02*
X25259515Y-17974793D01*
X25259515Y-17974793D02*
X25249991Y-18012889D01*
X25249991Y-18012889D02*
X25240467Y-18031936D01*
X25240467Y-18031936D02*
X25230944Y-18041460D01*
X25230944Y-18041460D02*
X25211896Y-18050984D01*
X25211896Y-18050984D02*
X25192848Y-18050984D01*
X25192848Y-18050984D02*
X25173801Y-18041460D01*
X25173801Y-18041460D02*
X25164277Y-18031936D01*
X25164277Y-18031936D02*
X25154753Y-18012889D01*
X25154753Y-18012889D02*
X25145229Y-17974793D01*
X25145229Y-17974793D02*
X25145229Y-17927174D01*
X25145229Y-17927174D02*
X25154753Y-17889079D01*
X25154753Y-17889079D02*
X25164277Y-17870031D01*
X25164277Y-17870031D02*
X25173801Y-17860508D01*
X25173801Y-17860508D02*
X25192848Y-17850984D01*
X25335706Y-17870031D02*
X25345229Y-17860508D01*
X25345229Y-17860508D02*
X25364277Y-17850984D01*
X25364277Y-17850984D02*
X25411896Y-17850984D01*
X25411896Y-17850984D02*
X25430944Y-17860508D01*
X25430944Y-17860508D02*
X25440467Y-17870031D01*
X25440467Y-17870031D02*
X25449991Y-17889079D01*
X25449991Y-17889079D02*
X25449991Y-17908127D01*
X25449991Y-17908127D02*
X25440467Y-17936698D01*
X25440467Y-17936698D02*
X25326182Y-18050984D01*
X25326182Y-18050984D02*
X25449991Y-18050984D01*
X25545229Y-18050984D02*
X25583325Y-18050984D01*
X25583325Y-18050984D02*
X25602372Y-18041460D01*
X25602372Y-18041460D02*
X25611896Y-18031936D01*
X25611896Y-18031936D02*
X25630944Y-18003365D01*
X25630944Y-18003365D02*
X25640467Y-17965270D01*
X25640467Y-17965270D02*
X25640467Y-17889079D01*
X25640467Y-17889079D02*
X25630944Y-17870031D01*
X25630944Y-17870031D02*
X25621420Y-17860508D01*
X25621420Y-17860508D02*
X25602372Y-17850984D01*
X25602372Y-17850984D02*
X25564277Y-17850984D01*
X25564277Y-17850984D02*
X25545229Y-17860508D01*
X25545229Y-17860508D02*
X25535706Y-17870031D01*
X25535706Y-17870031D02*
X25526182Y-17889079D01*
X25526182Y-17889079D02*
X25526182Y-17936698D01*
X25526182Y-17936698D02*
X25535706Y-17955746D01*
X25535706Y-17955746D02*
X25545229Y-17965270D01*
X25545229Y-17965270D02*
X25564277Y-17974793D01*
X25564277Y-17974793D02*
X25602372Y-17974793D01*
X25602372Y-17974793D02*
X25621420Y-17965270D01*
X25621420Y-17965270D02*
X25630944Y-17955746D01*
X25630944Y-17955746D02*
X25640467Y-17936698D01*
X25821420Y-17850984D02*
X25726182Y-17850984D01*
X25726182Y-17850984D02*
X25716658Y-17946222D01*
X25716658Y-17946222D02*
X25726182Y-17936698D01*
X25726182Y-17936698D02*
X25745229Y-17927174D01*
X25745229Y-17927174D02*
X25792848Y-17927174D01*
X25792848Y-17927174D02*
X25811896Y-17936698D01*
X25811896Y-17936698D02*
X25821420Y-17946222D01*
X25821420Y-17946222D02*
X25830944Y-17965270D01*
X25830944Y-17965270D02*
X25830944Y-18012889D01*
X25830944Y-18012889D02*
X25821420Y-18031936D01*
X25821420Y-18031936D02*
X25811896Y-18041460D01*
X25811896Y-18041460D02*
X25792848Y-18050984D01*
X25792848Y-18050984D02*
X25745229Y-18050984D01*
X25745229Y-18050984D02*
X25726182Y-18041460D01*
X25726182Y-18041460D02*
X25716658Y-18031936D01*
X25907134Y-17850984D02*
X25907134Y-17889079D01*
X25983325Y-17850984D02*
X25983325Y-17889079D01*
X26278563Y-18127174D02*
X26269039Y-18117650D01*
X26269039Y-18117650D02*
X26249991Y-18089079D01*
X26249991Y-18089079D02*
X26240468Y-18070031D01*
X26240468Y-18070031D02*
X26230944Y-18041460D01*
X26230944Y-18041460D02*
X26221420Y-17993841D01*
X26221420Y-17993841D02*
X26221420Y-17955746D01*
X26221420Y-17955746D02*
X26230944Y-17908127D01*
X26230944Y-17908127D02*
X26240468Y-17879555D01*
X26240468Y-17879555D02*
X26249991Y-17860508D01*
X26249991Y-17860508D02*
X26269039Y-17831936D01*
X26269039Y-17831936D02*
X26278563Y-17822412D01*
X26459515Y-18050984D02*
X26345229Y-18050984D01*
X26402372Y-18050984D02*
X26402372Y-17850984D01*
X26402372Y-17850984D02*
X26383325Y-17879555D01*
X26383325Y-17879555D02*
X26364277Y-17898603D01*
X26364277Y-17898603D02*
X26345229Y-17908127D01*
X26573801Y-17936698D02*
X26554753Y-17927174D01*
X26554753Y-17927174D02*
X26545229Y-17917650D01*
X26545229Y-17917650D02*
X26535706Y-17898603D01*
X26535706Y-17898603D02*
X26535706Y-17889079D01*
X26535706Y-17889079D02*
X26545229Y-17870031D01*
X26545229Y-17870031D02*
X26554753Y-17860508D01*
X26554753Y-17860508D02*
X26573801Y-17850984D01*
X26573801Y-17850984D02*
X26611896Y-17850984D01*
X26611896Y-17850984D02*
X26630944Y-17860508D01*
X26630944Y-17860508D02*
X26640468Y-17870031D01*
X26640468Y-17870031D02*
X26649991Y-17889079D01*
X26649991Y-17889079D02*
X26649991Y-17898603D01*
X26649991Y-17898603D02*
X26640468Y-17917650D01*
X26640468Y-17917650D02*
X26630944Y-17927174D01*
X26630944Y-17927174D02*
X26611896Y-17936698D01*
X26611896Y-17936698D02*
X26573801Y-17936698D01*
X26573801Y-17936698D02*
X26554753Y-17946222D01*
X26554753Y-17946222D02*
X26545229Y-17955746D01*
X26545229Y-17955746D02*
X26535706Y-17974793D01*
X26535706Y-17974793D02*
X26535706Y-18012889D01*
X26535706Y-18012889D02*
X26545229Y-18031936D01*
X26545229Y-18031936D02*
X26554753Y-18041460D01*
X26554753Y-18041460D02*
X26573801Y-18050984D01*
X26573801Y-18050984D02*
X26611896Y-18050984D01*
X26611896Y-18050984D02*
X26630944Y-18041460D01*
X26630944Y-18041460D02*
X26640468Y-18031936D01*
X26640468Y-18031936D02*
X26649991Y-18012889D01*
X26649991Y-18012889D02*
X26649991Y-17974793D01*
X26649991Y-17974793D02*
X26640468Y-17955746D01*
X26640468Y-17955746D02*
X26630944Y-17946222D01*
X26630944Y-17946222D02*
X26611896Y-17936698D01*
X26888087Y-18050984D02*
X26888087Y-17850984D01*
X26973801Y-18050984D02*
X26973801Y-17946222D01*
X26973801Y-17946222D02*
X26964277Y-17927174D01*
X26964277Y-17927174D02*
X26945230Y-17917650D01*
X26945230Y-17917650D02*
X26916658Y-17917650D01*
X26916658Y-17917650D02*
X26897610Y-17927174D01*
X26897610Y-17927174D02*
X26888087Y-17936698D01*
X27097610Y-18050984D02*
X27078563Y-18041460D01*
X27078563Y-18041460D02*
X27069039Y-18031936D01*
X27069039Y-18031936D02*
X27059515Y-18012889D01*
X27059515Y-18012889D02*
X27059515Y-17955746D01*
X27059515Y-17955746D02*
X27069039Y-17936698D01*
X27069039Y-17936698D02*
X27078563Y-17927174D01*
X27078563Y-17927174D02*
X27097610Y-17917650D01*
X27097610Y-17917650D02*
X27126182Y-17917650D01*
X27126182Y-17917650D02*
X27145230Y-17927174D01*
X27145230Y-17927174D02*
X27154753Y-17936698D01*
X27154753Y-17936698D02*
X27164277Y-17955746D01*
X27164277Y-17955746D02*
X27164277Y-18012889D01*
X27164277Y-18012889D02*
X27154753Y-18031936D01*
X27154753Y-18031936D02*
X27145230Y-18041460D01*
X27145230Y-18041460D02*
X27126182Y-18050984D01*
X27126182Y-18050984D02*
X27097610Y-18050984D01*
X27278563Y-18050984D02*
X27259515Y-18041460D01*
X27259515Y-18041460D02*
X27249991Y-18022412D01*
X27249991Y-18022412D02*
X27249991Y-17850984D01*
X27430944Y-18041460D02*
X27411896Y-18050984D01*
X27411896Y-18050984D02*
X27373801Y-18050984D01*
X27373801Y-18050984D02*
X27354753Y-18041460D01*
X27354753Y-18041460D02*
X27345230Y-18022412D01*
X27345230Y-18022412D02*
X27345230Y-17946222D01*
X27345230Y-17946222D02*
X27354753Y-17927174D01*
X27354753Y-17927174D02*
X27373801Y-17917650D01*
X27373801Y-17917650D02*
X27411896Y-17917650D01*
X27411896Y-17917650D02*
X27430944Y-17927174D01*
X27430944Y-17927174D02*
X27440468Y-17946222D01*
X27440468Y-17946222D02*
X27440468Y-17965270D01*
X27440468Y-17965270D02*
X27345230Y-17984317D01*
X27516658Y-18041460D02*
X27535706Y-18050984D01*
X27535706Y-18050984D02*
X27573801Y-18050984D01*
X27573801Y-18050984D02*
X27592849Y-18041460D01*
X27592849Y-18041460D02*
X27602372Y-18022412D01*
X27602372Y-18022412D02*
X27602372Y-18012889D01*
X27602372Y-18012889D02*
X27592849Y-17993841D01*
X27592849Y-17993841D02*
X27573801Y-17984317D01*
X27573801Y-17984317D02*
X27545230Y-17984317D01*
X27545230Y-17984317D02*
X27526182Y-17974793D01*
X27526182Y-17974793D02*
X27516658Y-17955746D01*
X27516658Y-17955746D02*
X27516658Y-17946222D01*
X27516658Y-17946222D02*
X27526182Y-17927174D01*
X27526182Y-17927174D02*
X27545230Y-17917650D01*
X27545230Y-17917650D02*
X27573801Y-17917650D01*
X27573801Y-17917650D02*
X27592849Y-17927174D01*
X27669039Y-18127174D02*
X27678563Y-18117650D01*
X27678563Y-18117650D02*
X27697611Y-18089079D01*
X27697611Y-18089079D02*
X27707134Y-18070031D01*
X27707134Y-18070031D02*
X27716658Y-18041460D01*
X27716658Y-18041460D02*
X27726182Y-17993841D01*
X27726182Y-17993841D02*
X27726182Y-17955746D01*
X27726182Y-17955746D02*
X27716658Y-17908127D01*
X27716658Y-17908127D02*
X27707134Y-17879555D01*
X27707134Y-17879555D02*
X27697611Y-17860508D01*
X27697611Y-17860508D02*
X27678563Y-17831936D01*
X27678563Y-17831936D02*
X27669039Y-17822412D01*
D12*
X22691784Y-18251785D02*
X22691784Y-18195216D01*
X22635215Y-18195216D01*
X22635215Y-18251785D01*
X22691784Y-18251785D01*
D11*
X23002372Y-18114984D02*
X23021420Y-18114984D01*
X23021420Y-18114984D02*
X23040467Y-18124508D01*
X23040467Y-18124508D02*
X23049991Y-18134031D01*
X23049991Y-18134031D02*
X23059515Y-18153079D01*
X23059515Y-18153079D02*
X23069039Y-18191174D01*
X23069039Y-18191174D02*
X23069039Y-18238793D01*
X23069039Y-18238793D02*
X23059515Y-18276889D01*
X23059515Y-18276889D02*
X23049991Y-18295936D01*
X23049991Y-18295936D02*
X23040467Y-18305460D01*
X23040467Y-18305460D02*
X23021420Y-18314984D01*
X23021420Y-18314984D02*
X23002372Y-18314984D01*
X23002372Y-18314984D02*
X22983324Y-18305460D01*
X22983324Y-18305460D02*
X22973801Y-18295936D01*
X22973801Y-18295936D02*
X22964277Y-18276889D01*
X22964277Y-18276889D02*
X22954753Y-18238793D01*
X22954753Y-18238793D02*
X22954753Y-18191174D01*
X22954753Y-18191174D02*
X22964277Y-18153079D01*
X22964277Y-18153079D02*
X22973801Y-18134031D01*
X22973801Y-18134031D02*
X22983324Y-18124508D01*
X22983324Y-18124508D02*
X23002372Y-18114984D01*
X23154753Y-18295936D02*
X23164277Y-18305460D01*
X23164277Y-18305460D02*
X23154753Y-18314984D01*
X23154753Y-18314984D02*
X23145229Y-18305460D01*
X23145229Y-18305460D02*
X23154753Y-18295936D01*
X23154753Y-18295936D02*
X23154753Y-18314984D01*
X23278562Y-18200698D02*
X23259515Y-18191174D01*
X23259515Y-18191174D02*
X23249991Y-18181650D01*
X23249991Y-18181650D02*
X23240467Y-18162603D01*
X23240467Y-18162603D02*
X23240467Y-18153079D01*
X23240467Y-18153079D02*
X23249991Y-18134031D01*
X23249991Y-18134031D02*
X23259515Y-18124508D01*
X23259515Y-18124508D02*
X23278562Y-18114984D01*
X23278562Y-18114984D02*
X23316658Y-18114984D01*
X23316658Y-18114984D02*
X23335705Y-18124508D01*
X23335705Y-18124508D02*
X23345229Y-18134031D01*
X23345229Y-18134031D02*
X23354753Y-18153079D01*
X23354753Y-18153079D02*
X23354753Y-18162603D01*
X23354753Y-18162603D02*
X23345229Y-18181650D01*
X23345229Y-18181650D02*
X23335705Y-18191174D01*
X23335705Y-18191174D02*
X23316658Y-18200698D01*
X23316658Y-18200698D02*
X23278562Y-18200698D01*
X23278562Y-18200698D02*
X23259515Y-18210222D01*
X23259515Y-18210222D02*
X23249991Y-18219746D01*
X23249991Y-18219746D02*
X23240467Y-18238793D01*
X23240467Y-18238793D02*
X23240467Y-18276889D01*
X23240467Y-18276889D02*
X23249991Y-18295936D01*
X23249991Y-18295936D02*
X23259515Y-18305460D01*
X23259515Y-18305460D02*
X23278562Y-18314984D01*
X23278562Y-18314984D02*
X23316658Y-18314984D01*
X23316658Y-18314984D02*
X23335705Y-18305460D01*
X23335705Y-18305460D02*
X23345229Y-18295936D01*
X23345229Y-18295936D02*
X23354753Y-18276889D01*
X23354753Y-18276889D02*
X23354753Y-18238793D01*
X23354753Y-18238793D02*
X23345229Y-18219746D01*
X23345229Y-18219746D02*
X23335705Y-18210222D01*
X23335705Y-18210222D02*
X23316658Y-18200698D01*
X23478562Y-18114984D02*
X23497610Y-18114984D01*
X23497610Y-18114984D02*
X23516658Y-18124508D01*
X23516658Y-18124508D02*
X23526182Y-18134031D01*
X23526182Y-18134031D02*
X23535705Y-18153079D01*
X23535705Y-18153079D02*
X23545229Y-18191174D01*
X23545229Y-18191174D02*
X23545229Y-18238793D01*
X23545229Y-18238793D02*
X23535705Y-18276889D01*
X23535705Y-18276889D02*
X23526182Y-18295936D01*
X23526182Y-18295936D02*
X23516658Y-18305460D01*
X23516658Y-18305460D02*
X23497610Y-18314984D01*
X23497610Y-18314984D02*
X23478562Y-18314984D01*
X23478562Y-18314984D02*
X23459515Y-18305460D01*
X23459515Y-18305460D02*
X23449991Y-18295936D01*
X23449991Y-18295936D02*
X23440467Y-18276889D01*
X23440467Y-18276889D02*
X23430943Y-18238793D01*
X23430943Y-18238793D02*
X23430943Y-18191174D01*
X23430943Y-18191174D02*
X23440467Y-18153079D01*
X23440467Y-18153079D02*
X23449991Y-18134031D01*
X23449991Y-18134031D02*
X23459515Y-18124508D01*
X23459515Y-18124508D02*
X23478562Y-18114984D01*
X23669039Y-18114984D02*
X23688086Y-18114984D01*
X23688086Y-18114984D02*
X23707134Y-18124508D01*
X23707134Y-18124508D02*
X23716658Y-18134031D01*
X23716658Y-18134031D02*
X23726182Y-18153079D01*
X23726182Y-18153079D02*
X23735705Y-18191174D01*
X23735705Y-18191174D02*
X23735705Y-18238793D01*
X23735705Y-18238793D02*
X23726182Y-18276889D01*
X23726182Y-18276889D02*
X23716658Y-18295936D01*
X23716658Y-18295936D02*
X23707134Y-18305460D01*
X23707134Y-18305460D02*
X23688086Y-18314984D01*
X23688086Y-18314984D02*
X23669039Y-18314984D01*
X23669039Y-18314984D02*
X23649991Y-18305460D01*
X23649991Y-18305460D02*
X23640467Y-18295936D01*
X23640467Y-18295936D02*
X23630943Y-18276889D01*
X23630943Y-18276889D02*
X23621420Y-18238793D01*
X23621420Y-18238793D02*
X23621420Y-18191174D01*
X23621420Y-18191174D02*
X23630943Y-18153079D01*
X23630943Y-18153079D02*
X23640467Y-18134031D01*
X23640467Y-18134031D02*
X23649991Y-18124508D01*
X23649991Y-18124508D02*
X23669039Y-18114984D01*
X23821420Y-18314984D02*
X23821420Y-18181650D01*
X23821420Y-18200698D02*
X23830943Y-18191174D01*
X23830943Y-18191174D02*
X23849991Y-18181650D01*
X23849991Y-18181650D02*
X23878563Y-18181650D01*
X23878563Y-18181650D02*
X23897610Y-18191174D01*
X23897610Y-18191174D02*
X23907134Y-18210222D01*
X23907134Y-18210222D02*
X23907134Y-18314984D01*
X23907134Y-18210222D02*
X23916658Y-18191174D01*
X23916658Y-18191174D02*
X23935705Y-18181650D01*
X23935705Y-18181650D02*
X23964277Y-18181650D01*
X23964277Y-18181650D02*
X23983324Y-18191174D01*
X23983324Y-18191174D02*
X23992848Y-18210222D01*
X23992848Y-18210222D02*
X23992848Y-18314984D01*
X24088086Y-18314984D02*
X24088086Y-18181650D01*
X24088086Y-18200698D02*
X24097610Y-18191174D01*
X24097610Y-18191174D02*
X24116658Y-18181650D01*
X24116658Y-18181650D02*
X24145229Y-18181650D01*
X24145229Y-18181650D02*
X24164277Y-18191174D01*
X24164277Y-18191174D02*
X24173801Y-18210222D01*
X24173801Y-18210222D02*
X24173801Y-18314984D01*
X24173801Y-18210222D02*
X24183324Y-18191174D01*
X24183324Y-18191174D02*
X24202372Y-18181650D01*
X24202372Y-18181650D02*
X24230943Y-18181650D01*
X24230943Y-18181650D02*
X24249991Y-18191174D01*
X24249991Y-18191174D02*
X24259515Y-18210222D01*
X24259515Y-18210222D02*
X24259515Y-18314984D01*
X24649991Y-18105460D02*
X24478563Y-18362603D01*
X24907134Y-18114984D02*
X24926182Y-18114984D01*
X24926182Y-18114984D02*
X24945229Y-18124508D01*
X24945229Y-18124508D02*
X24954753Y-18134031D01*
X24954753Y-18134031D02*
X24964277Y-18153079D01*
X24964277Y-18153079D02*
X24973801Y-18191174D01*
X24973801Y-18191174D02*
X24973801Y-18238793D01*
X24973801Y-18238793D02*
X24964277Y-18276889D01*
X24964277Y-18276889D02*
X24954753Y-18295936D01*
X24954753Y-18295936D02*
X24945229Y-18305460D01*
X24945229Y-18305460D02*
X24926182Y-18314984D01*
X24926182Y-18314984D02*
X24907134Y-18314984D01*
X24907134Y-18314984D02*
X24888086Y-18305460D01*
X24888086Y-18305460D02*
X24878563Y-18295936D01*
X24878563Y-18295936D02*
X24869039Y-18276889D01*
X24869039Y-18276889D02*
X24859515Y-18238793D01*
X24859515Y-18238793D02*
X24859515Y-18191174D01*
X24859515Y-18191174D02*
X24869039Y-18153079D01*
X24869039Y-18153079D02*
X24878563Y-18134031D01*
X24878563Y-18134031D02*
X24888086Y-18124508D01*
X24888086Y-18124508D02*
X24907134Y-18114984D01*
X25059515Y-18295936D02*
X25069039Y-18305460D01*
X25069039Y-18305460D02*
X25059515Y-18314984D01*
X25059515Y-18314984D02*
X25049991Y-18305460D01*
X25049991Y-18305460D02*
X25059515Y-18295936D01*
X25059515Y-18295936D02*
X25059515Y-18314984D01*
X25192848Y-18114984D02*
X25211896Y-18114984D01*
X25211896Y-18114984D02*
X25230944Y-18124508D01*
X25230944Y-18124508D02*
X25240467Y-18134031D01*
X25240467Y-18134031D02*
X25249991Y-18153079D01*
X25249991Y-18153079D02*
X25259515Y-18191174D01*
X25259515Y-18191174D02*
X25259515Y-18238793D01*
X25259515Y-18238793D02*
X25249991Y-18276889D01*
X25249991Y-18276889D02*
X25240467Y-18295936D01*
X25240467Y-18295936D02*
X25230944Y-18305460D01*
X25230944Y-18305460D02*
X25211896Y-18314984D01*
X25211896Y-18314984D02*
X25192848Y-18314984D01*
X25192848Y-18314984D02*
X25173801Y-18305460D01*
X25173801Y-18305460D02*
X25164277Y-18295936D01*
X25164277Y-18295936D02*
X25154753Y-18276889D01*
X25154753Y-18276889D02*
X25145229Y-18238793D01*
X25145229Y-18238793D02*
X25145229Y-18191174D01*
X25145229Y-18191174D02*
X25154753Y-18153079D01*
X25154753Y-18153079D02*
X25164277Y-18134031D01*
X25164277Y-18134031D02*
X25173801Y-18124508D01*
X25173801Y-18124508D02*
X25192848Y-18114984D01*
X25326182Y-18114984D02*
X25449991Y-18114984D01*
X25449991Y-18114984D02*
X25383325Y-18191174D01*
X25383325Y-18191174D02*
X25411896Y-18191174D01*
X25411896Y-18191174D02*
X25430944Y-18200698D01*
X25430944Y-18200698D02*
X25440467Y-18210222D01*
X25440467Y-18210222D02*
X25449991Y-18229270D01*
X25449991Y-18229270D02*
X25449991Y-18276889D01*
X25449991Y-18276889D02*
X25440467Y-18295936D01*
X25440467Y-18295936D02*
X25430944Y-18305460D01*
X25430944Y-18305460D02*
X25411896Y-18314984D01*
X25411896Y-18314984D02*
X25354753Y-18314984D01*
X25354753Y-18314984D02*
X25335706Y-18305460D01*
X25335706Y-18305460D02*
X25326182Y-18295936D01*
X25640467Y-18314984D02*
X25526182Y-18314984D01*
X25583325Y-18314984D02*
X25583325Y-18114984D01*
X25583325Y-18114984D02*
X25564277Y-18143555D01*
X25564277Y-18143555D02*
X25545229Y-18162603D01*
X25545229Y-18162603D02*
X25526182Y-18172127D01*
X25821420Y-18114984D02*
X25726182Y-18114984D01*
X25726182Y-18114984D02*
X25716658Y-18210222D01*
X25716658Y-18210222D02*
X25726182Y-18200698D01*
X25726182Y-18200698D02*
X25745229Y-18191174D01*
X25745229Y-18191174D02*
X25792848Y-18191174D01*
X25792848Y-18191174D02*
X25811896Y-18200698D01*
X25811896Y-18200698D02*
X25821420Y-18210222D01*
X25821420Y-18210222D02*
X25830944Y-18229270D01*
X25830944Y-18229270D02*
X25830944Y-18276889D01*
X25830944Y-18276889D02*
X25821420Y-18295936D01*
X25821420Y-18295936D02*
X25811896Y-18305460D01*
X25811896Y-18305460D02*
X25792848Y-18314984D01*
X25792848Y-18314984D02*
X25745229Y-18314984D01*
X25745229Y-18314984D02*
X25726182Y-18305460D01*
X25726182Y-18305460D02*
X25716658Y-18295936D01*
X25907134Y-18114984D02*
X25907134Y-18153079D01*
X25983325Y-18114984D02*
X25983325Y-18153079D01*
X26278563Y-18391174D02*
X26269039Y-18381650D01*
X26269039Y-18381650D02*
X26249991Y-18353079D01*
X26249991Y-18353079D02*
X26240468Y-18334031D01*
X26240468Y-18334031D02*
X26230944Y-18305460D01*
X26230944Y-18305460D02*
X26221420Y-18257841D01*
X26221420Y-18257841D02*
X26221420Y-18219746D01*
X26221420Y-18219746D02*
X26230944Y-18172127D01*
X26230944Y-18172127D02*
X26240468Y-18143555D01*
X26240468Y-18143555D02*
X26249991Y-18124508D01*
X26249991Y-18124508D02*
X26269039Y-18095936D01*
X26269039Y-18095936D02*
X26278563Y-18086412D01*
X26459515Y-18314984D02*
X26345229Y-18314984D01*
X26402372Y-18314984D02*
X26402372Y-18114984D01*
X26402372Y-18114984D02*
X26383325Y-18143555D01*
X26383325Y-18143555D02*
X26364277Y-18162603D01*
X26364277Y-18162603D02*
X26345229Y-18172127D01*
X26526182Y-18114984D02*
X26659515Y-18114984D01*
X26659515Y-18114984D02*
X26573801Y-18314984D01*
X26821420Y-18181650D02*
X26821420Y-18314984D01*
X26773801Y-18105460D02*
X26726182Y-18248317D01*
X26726182Y-18248317D02*
X26849991Y-18248317D01*
X27078563Y-18314984D02*
X27078563Y-18114984D01*
X27164277Y-18314984D02*
X27164277Y-18210222D01*
X27164277Y-18210222D02*
X27154753Y-18191174D01*
X27154753Y-18191174D02*
X27135706Y-18181650D01*
X27135706Y-18181650D02*
X27107134Y-18181650D01*
X27107134Y-18181650D02*
X27088087Y-18191174D01*
X27088087Y-18191174D02*
X27078563Y-18200698D01*
X27288087Y-18314984D02*
X27269039Y-18305460D01*
X27269039Y-18305460D02*
X27259515Y-18295936D01*
X27259515Y-18295936D02*
X27249991Y-18276889D01*
X27249991Y-18276889D02*
X27249991Y-18219746D01*
X27249991Y-18219746D02*
X27259515Y-18200698D01*
X27259515Y-18200698D02*
X27269039Y-18191174D01*
X27269039Y-18191174D02*
X27288087Y-18181650D01*
X27288087Y-18181650D02*
X27316658Y-18181650D01*
X27316658Y-18181650D02*
X27335706Y-18191174D01*
X27335706Y-18191174D02*
X27345230Y-18200698D01*
X27345230Y-18200698D02*
X27354753Y-18219746D01*
X27354753Y-18219746D02*
X27354753Y-18276889D01*
X27354753Y-18276889D02*
X27345230Y-18295936D01*
X27345230Y-18295936D02*
X27335706Y-18305460D01*
X27335706Y-18305460D02*
X27316658Y-18314984D01*
X27316658Y-18314984D02*
X27288087Y-18314984D01*
X27469039Y-18314984D02*
X27449991Y-18305460D01*
X27449991Y-18305460D02*
X27440468Y-18286412D01*
X27440468Y-18286412D02*
X27440468Y-18114984D01*
X27621420Y-18305460D02*
X27602372Y-18314984D01*
X27602372Y-18314984D02*
X27564277Y-18314984D01*
X27564277Y-18314984D02*
X27545230Y-18305460D01*
X27545230Y-18305460D02*
X27535706Y-18286412D01*
X27535706Y-18286412D02*
X27535706Y-18210222D01*
X27535706Y-18210222D02*
X27545230Y-18191174D01*
X27545230Y-18191174D02*
X27564277Y-18181650D01*
X27564277Y-18181650D02*
X27602372Y-18181650D01*
X27602372Y-18181650D02*
X27621420Y-18191174D01*
X27621420Y-18191174D02*
X27630944Y-18210222D01*
X27630944Y-18210222D02*
X27630944Y-18229270D01*
X27630944Y-18229270D02*
X27535706Y-18248317D01*
X27707134Y-18305460D02*
X27726182Y-18314984D01*
X27726182Y-18314984D02*
X27764277Y-18314984D01*
X27764277Y-18314984D02*
X27783325Y-18305460D01*
X27783325Y-18305460D02*
X27792849Y-18286412D01*
X27792849Y-18286412D02*
X27792849Y-18276889D01*
X27792849Y-18276889D02*
X27783325Y-18257841D01*
X27783325Y-18257841D02*
X27764277Y-18248317D01*
X27764277Y-18248317D02*
X27735706Y-18248317D01*
X27735706Y-18248317D02*
X27716658Y-18238793D01*
X27716658Y-18238793D02*
X27707134Y-18219746D01*
X27707134Y-18219746D02*
X27707134Y-18210222D01*
X27707134Y-18210222D02*
X27716658Y-18191174D01*
X27716658Y-18191174D02*
X27735706Y-18181650D01*
X27735706Y-18181650D02*
X27764277Y-18181650D01*
X27764277Y-18181650D02*
X27783325Y-18191174D01*
X27859515Y-18391174D02*
X27869039Y-18381650D01*
X27869039Y-18381650D02*
X27888087Y-18353079D01*
X27888087Y-18353079D02*
X27897611Y-18334031D01*
X27897611Y-18334031D02*
X27907134Y-18305460D01*
X27907134Y-18305460D02*
X27916658Y-18257841D01*
X27916658Y-18257841D02*
X27916658Y-18219746D01*
X27916658Y-18219746D02*
X27907134Y-18172127D01*
X27907134Y-18172127D02*
X27897611Y-18143555D01*
X27897611Y-18143555D02*
X27888087Y-18124508D01*
X27888087Y-18124508D02*
X27869039Y-18095936D01*
X27869039Y-18095936D02*
X27859515Y-18086412D01*
D12*
X22653500Y-18537500D02*
X22703500Y-18487500D01*
X22653500Y-18437500D01*
X22603500Y-18487500D01*
X22653500Y-18537500D01*
D11*
X23069039Y-18578984D02*
X22954753Y-18578984D01*
X23011896Y-18578984D02*
X23011896Y-18378984D01*
X23011896Y-18378984D02*
X22992848Y-18407555D01*
X22992848Y-18407555D02*
X22973801Y-18426603D01*
X22973801Y-18426603D02*
X22954753Y-18436127D01*
X23154753Y-18559936D02*
X23164277Y-18569460D01*
X23164277Y-18569460D02*
X23154753Y-18578984D01*
X23154753Y-18578984D02*
X23145229Y-18569460D01*
X23145229Y-18569460D02*
X23154753Y-18559936D01*
X23154753Y-18559936D02*
X23154753Y-18578984D01*
X23288086Y-18378984D02*
X23307134Y-18378984D01*
X23307134Y-18378984D02*
X23326182Y-18388508D01*
X23326182Y-18388508D02*
X23335705Y-18398031D01*
X23335705Y-18398031D02*
X23345229Y-18417079D01*
X23345229Y-18417079D02*
X23354753Y-18455174D01*
X23354753Y-18455174D02*
X23354753Y-18502793D01*
X23354753Y-18502793D02*
X23345229Y-18540889D01*
X23345229Y-18540889D02*
X23335705Y-18559936D01*
X23335705Y-18559936D02*
X23326182Y-18569460D01*
X23326182Y-18569460D02*
X23307134Y-18578984D01*
X23307134Y-18578984D02*
X23288086Y-18578984D01*
X23288086Y-18578984D02*
X23269039Y-18569460D01*
X23269039Y-18569460D02*
X23259515Y-18559936D01*
X23259515Y-18559936D02*
X23249991Y-18540889D01*
X23249991Y-18540889D02*
X23240467Y-18502793D01*
X23240467Y-18502793D02*
X23240467Y-18455174D01*
X23240467Y-18455174D02*
X23249991Y-18417079D01*
X23249991Y-18417079D02*
X23259515Y-18398031D01*
X23259515Y-18398031D02*
X23269039Y-18388508D01*
X23269039Y-18388508D02*
X23288086Y-18378984D01*
X23478562Y-18378984D02*
X23497610Y-18378984D01*
X23497610Y-18378984D02*
X23516658Y-18388508D01*
X23516658Y-18388508D02*
X23526182Y-18398031D01*
X23526182Y-18398031D02*
X23535705Y-18417079D01*
X23535705Y-18417079D02*
X23545229Y-18455174D01*
X23545229Y-18455174D02*
X23545229Y-18502793D01*
X23545229Y-18502793D02*
X23535705Y-18540889D01*
X23535705Y-18540889D02*
X23526182Y-18559936D01*
X23526182Y-18559936D02*
X23516658Y-18569460D01*
X23516658Y-18569460D02*
X23497610Y-18578984D01*
X23497610Y-18578984D02*
X23478562Y-18578984D01*
X23478562Y-18578984D02*
X23459515Y-18569460D01*
X23459515Y-18569460D02*
X23449991Y-18559936D01*
X23449991Y-18559936D02*
X23440467Y-18540889D01*
X23440467Y-18540889D02*
X23430943Y-18502793D01*
X23430943Y-18502793D02*
X23430943Y-18455174D01*
X23430943Y-18455174D02*
X23440467Y-18417079D01*
X23440467Y-18417079D02*
X23449991Y-18398031D01*
X23449991Y-18398031D02*
X23459515Y-18388508D01*
X23459515Y-18388508D02*
X23478562Y-18378984D01*
X23669039Y-18378984D02*
X23688086Y-18378984D01*
X23688086Y-18378984D02*
X23707134Y-18388508D01*
X23707134Y-18388508D02*
X23716658Y-18398031D01*
X23716658Y-18398031D02*
X23726182Y-18417079D01*
X23726182Y-18417079D02*
X23735705Y-18455174D01*
X23735705Y-18455174D02*
X23735705Y-18502793D01*
X23735705Y-18502793D02*
X23726182Y-18540889D01*
X23726182Y-18540889D02*
X23716658Y-18559936D01*
X23716658Y-18559936D02*
X23707134Y-18569460D01*
X23707134Y-18569460D02*
X23688086Y-18578984D01*
X23688086Y-18578984D02*
X23669039Y-18578984D01*
X23669039Y-18578984D02*
X23649991Y-18569460D01*
X23649991Y-18569460D02*
X23640467Y-18559936D01*
X23640467Y-18559936D02*
X23630943Y-18540889D01*
X23630943Y-18540889D02*
X23621420Y-18502793D01*
X23621420Y-18502793D02*
X23621420Y-18455174D01*
X23621420Y-18455174D02*
X23630943Y-18417079D01*
X23630943Y-18417079D02*
X23640467Y-18398031D01*
X23640467Y-18398031D02*
X23649991Y-18388508D01*
X23649991Y-18388508D02*
X23669039Y-18378984D01*
X23821420Y-18578984D02*
X23821420Y-18445650D01*
X23821420Y-18464698D02*
X23830943Y-18455174D01*
X23830943Y-18455174D02*
X23849991Y-18445650D01*
X23849991Y-18445650D02*
X23878563Y-18445650D01*
X23878563Y-18445650D02*
X23897610Y-18455174D01*
X23897610Y-18455174D02*
X23907134Y-18474222D01*
X23907134Y-18474222D02*
X23907134Y-18578984D01*
X23907134Y-18474222D02*
X23916658Y-18455174D01*
X23916658Y-18455174D02*
X23935705Y-18445650D01*
X23935705Y-18445650D02*
X23964277Y-18445650D01*
X23964277Y-18445650D02*
X23983324Y-18455174D01*
X23983324Y-18455174D02*
X23992848Y-18474222D01*
X23992848Y-18474222D02*
X23992848Y-18578984D01*
X24088086Y-18578984D02*
X24088086Y-18445650D01*
X24088086Y-18464698D02*
X24097610Y-18455174D01*
X24097610Y-18455174D02*
X24116658Y-18445650D01*
X24116658Y-18445650D02*
X24145229Y-18445650D01*
X24145229Y-18445650D02*
X24164277Y-18455174D01*
X24164277Y-18455174D02*
X24173801Y-18474222D01*
X24173801Y-18474222D02*
X24173801Y-18578984D01*
X24173801Y-18474222D02*
X24183324Y-18455174D01*
X24183324Y-18455174D02*
X24202372Y-18445650D01*
X24202372Y-18445650D02*
X24230943Y-18445650D01*
X24230943Y-18445650D02*
X24249991Y-18455174D01*
X24249991Y-18455174D02*
X24259515Y-18474222D01*
X24259515Y-18474222D02*
X24259515Y-18578984D01*
X24649991Y-18369460D02*
X24478563Y-18626603D01*
X24907134Y-18378984D02*
X24926182Y-18378984D01*
X24926182Y-18378984D02*
X24945229Y-18388508D01*
X24945229Y-18388508D02*
X24954753Y-18398031D01*
X24954753Y-18398031D02*
X24964277Y-18417079D01*
X24964277Y-18417079D02*
X24973801Y-18455174D01*
X24973801Y-18455174D02*
X24973801Y-18502793D01*
X24973801Y-18502793D02*
X24964277Y-18540889D01*
X24964277Y-18540889D02*
X24954753Y-18559936D01*
X24954753Y-18559936D02*
X24945229Y-18569460D01*
X24945229Y-18569460D02*
X24926182Y-18578984D01*
X24926182Y-18578984D02*
X24907134Y-18578984D01*
X24907134Y-18578984D02*
X24888086Y-18569460D01*
X24888086Y-18569460D02*
X24878563Y-18559936D01*
X24878563Y-18559936D02*
X24869039Y-18540889D01*
X24869039Y-18540889D02*
X24859515Y-18502793D01*
X24859515Y-18502793D02*
X24859515Y-18455174D01*
X24859515Y-18455174D02*
X24869039Y-18417079D01*
X24869039Y-18417079D02*
X24878563Y-18398031D01*
X24878563Y-18398031D02*
X24888086Y-18388508D01*
X24888086Y-18388508D02*
X24907134Y-18378984D01*
X25059515Y-18559936D02*
X25069039Y-18569460D01*
X25069039Y-18569460D02*
X25059515Y-18578984D01*
X25059515Y-18578984D02*
X25049991Y-18569460D01*
X25049991Y-18569460D02*
X25059515Y-18559936D01*
X25059515Y-18559936D02*
X25059515Y-18578984D01*
X25192848Y-18378984D02*
X25211896Y-18378984D01*
X25211896Y-18378984D02*
X25230944Y-18388508D01*
X25230944Y-18388508D02*
X25240467Y-18398031D01*
X25240467Y-18398031D02*
X25249991Y-18417079D01*
X25249991Y-18417079D02*
X25259515Y-18455174D01*
X25259515Y-18455174D02*
X25259515Y-18502793D01*
X25259515Y-18502793D02*
X25249991Y-18540889D01*
X25249991Y-18540889D02*
X25240467Y-18559936D01*
X25240467Y-18559936D02*
X25230944Y-18569460D01*
X25230944Y-18569460D02*
X25211896Y-18578984D01*
X25211896Y-18578984D02*
X25192848Y-18578984D01*
X25192848Y-18578984D02*
X25173801Y-18569460D01*
X25173801Y-18569460D02*
X25164277Y-18559936D01*
X25164277Y-18559936D02*
X25154753Y-18540889D01*
X25154753Y-18540889D02*
X25145229Y-18502793D01*
X25145229Y-18502793D02*
X25145229Y-18455174D01*
X25145229Y-18455174D02*
X25154753Y-18417079D01*
X25154753Y-18417079D02*
X25164277Y-18398031D01*
X25164277Y-18398031D02*
X25173801Y-18388508D01*
X25173801Y-18388508D02*
X25192848Y-18378984D01*
X25326182Y-18378984D02*
X25449991Y-18378984D01*
X25449991Y-18378984D02*
X25383325Y-18455174D01*
X25383325Y-18455174D02*
X25411896Y-18455174D01*
X25411896Y-18455174D02*
X25430944Y-18464698D01*
X25430944Y-18464698D02*
X25440467Y-18474222D01*
X25440467Y-18474222D02*
X25449991Y-18493270D01*
X25449991Y-18493270D02*
X25449991Y-18540889D01*
X25449991Y-18540889D02*
X25440467Y-18559936D01*
X25440467Y-18559936D02*
X25430944Y-18569460D01*
X25430944Y-18569460D02*
X25411896Y-18578984D01*
X25411896Y-18578984D02*
X25354753Y-18578984D01*
X25354753Y-18578984D02*
X25335706Y-18569460D01*
X25335706Y-18569460D02*
X25326182Y-18559936D01*
X25545229Y-18578984D02*
X25583325Y-18578984D01*
X25583325Y-18578984D02*
X25602372Y-18569460D01*
X25602372Y-18569460D02*
X25611896Y-18559936D01*
X25611896Y-18559936D02*
X25630944Y-18531365D01*
X25630944Y-18531365D02*
X25640467Y-18493270D01*
X25640467Y-18493270D02*
X25640467Y-18417079D01*
X25640467Y-18417079D02*
X25630944Y-18398031D01*
X25630944Y-18398031D02*
X25621420Y-18388508D01*
X25621420Y-18388508D02*
X25602372Y-18378984D01*
X25602372Y-18378984D02*
X25564277Y-18378984D01*
X25564277Y-18378984D02*
X25545229Y-18388508D01*
X25545229Y-18388508D02*
X25535706Y-18398031D01*
X25535706Y-18398031D02*
X25526182Y-18417079D01*
X25526182Y-18417079D02*
X25526182Y-18464698D01*
X25526182Y-18464698D02*
X25535706Y-18483746D01*
X25535706Y-18483746D02*
X25545229Y-18493270D01*
X25545229Y-18493270D02*
X25564277Y-18502793D01*
X25564277Y-18502793D02*
X25602372Y-18502793D01*
X25602372Y-18502793D02*
X25621420Y-18493270D01*
X25621420Y-18493270D02*
X25630944Y-18483746D01*
X25630944Y-18483746D02*
X25640467Y-18464698D01*
X25811896Y-18445650D02*
X25811896Y-18578984D01*
X25764277Y-18369460D02*
X25716658Y-18512317D01*
X25716658Y-18512317D02*
X25840467Y-18512317D01*
X25907134Y-18378984D02*
X25907134Y-18417079D01*
X25983325Y-18378984D02*
X25983325Y-18417079D01*
X26278563Y-18655174D02*
X26269039Y-18645650D01*
X26269039Y-18645650D02*
X26249991Y-18617079D01*
X26249991Y-18617079D02*
X26240468Y-18598031D01*
X26240468Y-18598031D02*
X26230944Y-18569460D01*
X26230944Y-18569460D02*
X26221420Y-18521841D01*
X26221420Y-18521841D02*
X26221420Y-18483746D01*
X26221420Y-18483746D02*
X26230944Y-18436127D01*
X26230944Y-18436127D02*
X26240468Y-18407555D01*
X26240468Y-18407555D02*
X26249991Y-18388508D01*
X26249991Y-18388508D02*
X26269039Y-18359936D01*
X26269039Y-18359936D02*
X26278563Y-18350412D01*
X26383325Y-18464698D02*
X26364277Y-18455174D01*
X26364277Y-18455174D02*
X26354753Y-18445650D01*
X26354753Y-18445650D02*
X26345229Y-18426603D01*
X26345229Y-18426603D02*
X26345229Y-18417079D01*
X26345229Y-18417079D02*
X26354753Y-18398031D01*
X26354753Y-18398031D02*
X26364277Y-18388508D01*
X26364277Y-18388508D02*
X26383325Y-18378984D01*
X26383325Y-18378984D02*
X26421420Y-18378984D01*
X26421420Y-18378984D02*
X26440468Y-18388508D01*
X26440468Y-18388508D02*
X26449991Y-18398031D01*
X26449991Y-18398031D02*
X26459515Y-18417079D01*
X26459515Y-18417079D02*
X26459515Y-18426603D01*
X26459515Y-18426603D02*
X26449991Y-18445650D01*
X26449991Y-18445650D02*
X26440468Y-18455174D01*
X26440468Y-18455174D02*
X26421420Y-18464698D01*
X26421420Y-18464698D02*
X26383325Y-18464698D01*
X26383325Y-18464698D02*
X26364277Y-18474222D01*
X26364277Y-18474222D02*
X26354753Y-18483746D01*
X26354753Y-18483746D02*
X26345229Y-18502793D01*
X26345229Y-18502793D02*
X26345229Y-18540889D01*
X26345229Y-18540889D02*
X26354753Y-18559936D01*
X26354753Y-18559936D02*
X26364277Y-18569460D01*
X26364277Y-18569460D02*
X26383325Y-18578984D01*
X26383325Y-18578984D02*
X26421420Y-18578984D01*
X26421420Y-18578984D02*
X26440468Y-18569460D01*
X26440468Y-18569460D02*
X26449991Y-18559936D01*
X26449991Y-18559936D02*
X26459515Y-18540889D01*
X26459515Y-18540889D02*
X26459515Y-18502793D01*
X26459515Y-18502793D02*
X26449991Y-18483746D01*
X26449991Y-18483746D02*
X26440468Y-18474222D01*
X26440468Y-18474222D02*
X26421420Y-18464698D01*
X26526182Y-18378984D02*
X26649991Y-18378984D01*
X26649991Y-18378984D02*
X26583325Y-18455174D01*
X26583325Y-18455174D02*
X26611896Y-18455174D01*
X26611896Y-18455174D02*
X26630944Y-18464698D01*
X26630944Y-18464698D02*
X26640468Y-18474222D01*
X26640468Y-18474222D02*
X26649991Y-18493270D01*
X26649991Y-18493270D02*
X26649991Y-18540889D01*
X26649991Y-18540889D02*
X26640468Y-18559936D01*
X26640468Y-18559936D02*
X26630944Y-18569460D01*
X26630944Y-18569460D02*
X26611896Y-18578984D01*
X26611896Y-18578984D02*
X26554753Y-18578984D01*
X26554753Y-18578984D02*
X26535706Y-18569460D01*
X26535706Y-18569460D02*
X26526182Y-18559936D01*
X26888087Y-18578984D02*
X26888087Y-18378984D01*
X26973801Y-18578984D02*
X26973801Y-18474222D01*
X26973801Y-18474222D02*
X26964277Y-18455174D01*
X26964277Y-18455174D02*
X26945230Y-18445650D01*
X26945230Y-18445650D02*
X26916658Y-18445650D01*
X26916658Y-18445650D02*
X26897610Y-18455174D01*
X26897610Y-18455174D02*
X26888087Y-18464698D01*
X27097610Y-18578984D02*
X27078563Y-18569460D01*
X27078563Y-18569460D02*
X27069039Y-18559936D01*
X27069039Y-18559936D02*
X27059515Y-18540889D01*
X27059515Y-18540889D02*
X27059515Y-18483746D01*
X27059515Y-18483746D02*
X27069039Y-18464698D01*
X27069039Y-18464698D02*
X27078563Y-18455174D01*
X27078563Y-18455174D02*
X27097610Y-18445650D01*
X27097610Y-18445650D02*
X27126182Y-18445650D01*
X27126182Y-18445650D02*
X27145230Y-18455174D01*
X27145230Y-18455174D02*
X27154753Y-18464698D01*
X27154753Y-18464698D02*
X27164277Y-18483746D01*
X27164277Y-18483746D02*
X27164277Y-18540889D01*
X27164277Y-18540889D02*
X27154753Y-18559936D01*
X27154753Y-18559936D02*
X27145230Y-18569460D01*
X27145230Y-18569460D02*
X27126182Y-18578984D01*
X27126182Y-18578984D02*
X27097610Y-18578984D01*
X27278563Y-18578984D02*
X27259515Y-18569460D01*
X27259515Y-18569460D02*
X27249991Y-18550412D01*
X27249991Y-18550412D02*
X27249991Y-18378984D01*
X27430944Y-18569460D02*
X27411896Y-18578984D01*
X27411896Y-18578984D02*
X27373801Y-18578984D01*
X27373801Y-18578984D02*
X27354753Y-18569460D01*
X27354753Y-18569460D02*
X27345230Y-18550412D01*
X27345230Y-18550412D02*
X27345230Y-18474222D01*
X27345230Y-18474222D02*
X27354753Y-18455174D01*
X27354753Y-18455174D02*
X27373801Y-18445650D01*
X27373801Y-18445650D02*
X27411896Y-18445650D01*
X27411896Y-18445650D02*
X27430944Y-18455174D01*
X27430944Y-18455174D02*
X27440468Y-18474222D01*
X27440468Y-18474222D02*
X27440468Y-18493270D01*
X27440468Y-18493270D02*
X27345230Y-18512317D01*
X27516658Y-18569460D02*
X27535706Y-18578984D01*
X27535706Y-18578984D02*
X27573801Y-18578984D01*
X27573801Y-18578984D02*
X27592849Y-18569460D01*
X27592849Y-18569460D02*
X27602372Y-18550412D01*
X27602372Y-18550412D02*
X27602372Y-18540889D01*
X27602372Y-18540889D02*
X27592849Y-18521841D01*
X27592849Y-18521841D02*
X27573801Y-18512317D01*
X27573801Y-18512317D02*
X27545230Y-18512317D01*
X27545230Y-18512317D02*
X27526182Y-18502793D01*
X27526182Y-18502793D02*
X27516658Y-18483746D01*
X27516658Y-18483746D02*
X27516658Y-18474222D01*
X27516658Y-18474222D02*
X27526182Y-18455174D01*
X27526182Y-18455174D02*
X27545230Y-18445650D01*
X27545230Y-18445650D02*
X27573801Y-18445650D01*
X27573801Y-18445650D02*
X27592849Y-18455174D01*
X27669039Y-18655174D02*
X27678563Y-18645650D01*
X27678563Y-18645650D02*
X27697611Y-18617079D01*
X27697611Y-18617079D02*
X27707134Y-18598031D01*
X27707134Y-18598031D02*
X27716658Y-18569460D01*
X27716658Y-18569460D02*
X27726182Y-18521841D01*
X27726182Y-18521841D02*
X27726182Y-18483746D01*
X27726182Y-18483746D02*
X27716658Y-18436127D01*
X27716658Y-18436127D02*
X27707134Y-18407555D01*
X27707134Y-18407555D02*
X27697611Y-18388508D01*
X27697611Y-18388508D02*
X27678563Y-18359936D01*
X27678563Y-18359936D02*
X27669039Y-18350412D01*
D13*
X22583500Y-18691500D02*
X22703500Y-18811500D01*
X22703500Y-18691500D02*
X22583500Y-18811500D01*
X22703500Y-18751500D02*
G75*
G02*
X22583500Y-18751500I-60000J0D01*
G01*
X22583500Y-18751500D02*
G75*
G02*
X22703500Y-18751500I60000J0D01*
G01*
D11*
X23069039Y-18842984D02*
X22954753Y-18842984D01*
X23011896Y-18842984D02*
X23011896Y-18642984D01*
X23011896Y-18642984D02*
X22992848Y-18671555D01*
X22992848Y-18671555D02*
X22973801Y-18690603D01*
X22973801Y-18690603D02*
X22954753Y-18700127D01*
X23154753Y-18823936D02*
X23164277Y-18833460D01*
X23164277Y-18833460D02*
X23154753Y-18842984D01*
X23154753Y-18842984D02*
X23145229Y-18833460D01*
X23145229Y-18833460D02*
X23154753Y-18823936D01*
X23154753Y-18823936D02*
X23154753Y-18842984D01*
X23240467Y-18662031D02*
X23249991Y-18652508D01*
X23249991Y-18652508D02*
X23269039Y-18642984D01*
X23269039Y-18642984D02*
X23316658Y-18642984D01*
X23316658Y-18642984D02*
X23335705Y-18652508D01*
X23335705Y-18652508D02*
X23345229Y-18662031D01*
X23345229Y-18662031D02*
X23354753Y-18681079D01*
X23354753Y-18681079D02*
X23354753Y-18700127D01*
X23354753Y-18700127D02*
X23345229Y-18728698D01*
X23345229Y-18728698D02*
X23230943Y-18842984D01*
X23230943Y-18842984D02*
X23354753Y-18842984D01*
X23478562Y-18642984D02*
X23497610Y-18642984D01*
X23497610Y-18642984D02*
X23516658Y-18652508D01*
X23516658Y-18652508D02*
X23526182Y-18662031D01*
X23526182Y-18662031D02*
X23535705Y-18681079D01*
X23535705Y-18681079D02*
X23545229Y-18719174D01*
X23545229Y-18719174D02*
X23545229Y-18766793D01*
X23545229Y-18766793D02*
X23535705Y-18804889D01*
X23535705Y-18804889D02*
X23526182Y-18823936D01*
X23526182Y-18823936D02*
X23516658Y-18833460D01*
X23516658Y-18833460D02*
X23497610Y-18842984D01*
X23497610Y-18842984D02*
X23478562Y-18842984D01*
X23478562Y-18842984D02*
X23459515Y-18833460D01*
X23459515Y-18833460D02*
X23449991Y-18823936D01*
X23449991Y-18823936D02*
X23440467Y-18804889D01*
X23440467Y-18804889D02*
X23430943Y-18766793D01*
X23430943Y-18766793D02*
X23430943Y-18719174D01*
X23430943Y-18719174D02*
X23440467Y-18681079D01*
X23440467Y-18681079D02*
X23449991Y-18662031D01*
X23449991Y-18662031D02*
X23459515Y-18652508D01*
X23459515Y-18652508D02*
X23478562Y-18642984D01*
X23669039Y-18642984D02*
X23688086Y-18642984D01*
X23688086Y-18642984D02*
X23707134Y-18652508D01*
X23707134Y-18652508D02*
X23716658Y-18662031D01*
X23716658Y-18662031D02*
X23726182Y-18681079D01*
X23726182Y-18681079D02*
X23735705Y-18719174D01*
X23735705Y-18719174D02*
X23735705Y-18766793D01*
X23735705Y-18766793D02*
X23726182Y-18804889D01*
X23726182Y-18804889D02*
X23716658Y-18823936D01*
X23716658Y-18823936D02*
X23707134Y-18833460D01*
X23707134Y-18833460D02*
X23688086Y-18842984D01*
X23688086Y-18842984D02*
X23669039Y-18842984D01*
X23669039Y-18842984D02*
X23649991Y-18833460D01*
X23649991Y-18833460D02*
X23640467Y-18823936D01*
X23640467Y-18823936D02*
X23630943Y-18804889D01*
X23630943Y-18804889D02*
X23621420Y-18766793D01*
X23621420Y-18766793D02*
X23621420Y-18719174D01*
X23621420Y-18719174D02*
X23630943Y-18681079D01*
X23630943Y-18681079D02*
X23640467Y-18662031D01*
X23640467Y-18662031D02*
X23649991Y-18652508D01*
X23649991Y-18652508D02*
X23669039Y-18642984D01*
X23821420Y-18842984D02*
X23821420Y-18709650D01*
X23821420Y-18728698D02*
X23830943Y-18719174D01*
X23830943Y-18719174D02*
X23849991Y-18709650D01*
X23849991Y-18709650D02*
X23878563Y-18709650D01*
X23878563Y-18709650D02*
X23897610Y-18719174D01*
X23897610Y-18719174D02*
X23907134Y-18738222D01*
X23907134Y-18738222D02*
X23907134Y-18842984D01*
X23907134Y-18738222D02*
X23916658Y-18719174D01*
X23916658Y-18719174D02*
X23935705Y-18709650D01*
X23935705Y-18709650D02*
X23964277Y-18709650D01*
X23964277Y-18709650D02*
X23983324Y-18719174D01*
X23983324Y-18719174D02*
X23992848Y-18738222D01*
X23992848Y-18738222D02*
X23992848Y-18842984D01*
X24088086Y-18842984D02*
X24088086Y-18709650D01*
X24088086Y-18728698D02*
X24097610Y-18719174D01*
X24097610Y-18719174D02*
X24116658Y-18709650D01*
X24116658Y-18709650D02*
X24145229Y-18709650D01*
X24145229Y-18709650D02*
X24164277Y-18719174D01*
X24164277Y-18719174D02*
X24173801Y-18738222D01*
X24173801Y-18738222D02*
X24173801Y-18842984D01*
X24173801Y-18738222D02*
X24183324Y-18719174D01*
X24183324Y-18719174D02*
X24202372Y-18709650D01*
X24202372Y-18709650D02*
X24230943Y-18709650D01*
X24230943Y-18709650D02*
X24249991Y-18719174D01*
X24249991Y-18719174D02*
X24259515Y-18738222D01*
X24259515Y-18738222D02*
X24259515Y-18842984D01*
X24649991Y-18633460D02*
X24478563Y-18890603D01*
X24907134Y-18642984D02*
X24926182Y-18642984D01*
X24926182Y-18642984D02*
X24945229Y-18652508D01*
X24945229Y-18652508D02*
X24954753Y-18662031D01*
X24954753Y-18662031D02*
X24964277Y-18681079D01*
X24964277Y-18681079D02*
X24973801Y-18719174D01*
X24973801Y-18719174D02*
X24973801Y-18766793D01*
X24973801Y-18766793D02*
X24964277Y-18804889D01*
X24964277Y-18804889D02*
X24954753Y-18823936D01*
X24954753Y-18823936D02*
X24945229Y-18833460D01*
X24945229Y-18833460D02*
X24926182Y-18842984D01*
X24926182Y-18842984D02*
X24907134Y-18842984D01*
X24907134Y-18842984D02*
X24888086Y-18833460D01*
X24888086Y-18833460D02*
X24878563Y-18823936D01*
X24878563Y-18823936D02*
X24869039Y-18804889D01*
X24869039Y-18804889D02*
X24859515Y-18766793D01*
X24859515Y-18766793D02*
X24859515Y-18719174D01*
X24859515Y-18719174D02*
X24869039Y-18681079D01*
X24869039Y-18681079D02*
X24878563Y-18662031D01*
X24878563Y-18662031D02*
X24888086Y-18652508D01*
X24888086Y-18652508D02*
X24907134Y-18642984D01*
X25059515Y-18823936D02*
X25069039Y-18833460D01*
X25069039Y-18833460D02*
X25059515Y-18842984D01*
X25059515Y-18842984D02*
X25049991Y-18833460D01*
X25049991Y-18833460D02*
X25059515Y-18823936D01*
X25059515Y-18823936D02*
X25059515Y-18842984D01*
X25192848Y-18642984D02*
X25211896Y-18642984D01*
X25211896Y-18642984D02*
X25230944Y-18652508D01*
X25230944Y-18652508D02*
X25240467Y-18662031D01*
X25240467Y-18662031D02*
X25249991Y-18681079D01*
X25249991Y-18681079D02*
X25259515Y-18719174D01*
X25259515Y-18719174D02*
X25259515Y-18766793D01*
X25259515Y-18766793D02*
X25249991Y-18804889D01*
X25249991Y-18804889D02*
X25240467Y-18823936D01*
X25240467Y-18823936D02*
X25230944Y-18833460D01*
X25230944Y-18833460D02*
X25211896Y-18842984D01*
X25211896Y-18842984D02*
X25192848Y-18842984D01*
X25192848Y-18842984D02*
X25173801Y-18833460D01*
X25173801Y-18833460D02*
X25164277Y-18823936D01*
X25164277Y-18823936D02*
X25154753Y-18804889D01*
X25154753Y-18804889D02*
X25145229Y-18766793D01*
X25145229Y-18766793D02*
X25145229Y-18719174D01*
X25145229Y-18719174D02*
X25154753Y-18681079D01*
X25154753Y-18681079D02*
X25164277Y-18662031D01*
X25164277Y-18662031D02*
X25173801Y-18652508D01*
X25173801Y-18652508D02*
X25192848Y-18642984D01*
X25430944Y-18709650D02*
X25430944Y-18842984D01*
X25383325Y-18633460D02*
X25335706Y-18776317D01*
X25335706Y-18776317D02*
X25459515Y-18776317D01*
X25516658Y-18642984D02*
X25649991Y-18642984D01*
X25649991Y-18642984D02*
X25564277Y-18842984D01*
X25716658Y-18662031D02*
X25726182Y-18652508D01*
X25726182Y-18652508D02*
X25745229Y-18642984D01*
X25745229Y-18642984D02*
X25792848Y-18642984D01*
X25792848Y-18642984D02*
X25811896Y-18652508D01*
X25811896Y-18652508D02*
X25821420Y-18662031D01*
X25821420Y-18662031D02*
X25830944Y-18681079D01*
X25830944Y-18681079D02*
X25830944Y-18700127D01*
X25830944Y-18700127D02*
X25821420Y-18728698D01*
X25821420Y-18728698D02*
X25707134Y-18842984D01*
X25707134Y-18842984D02*
X25830944Y-18842984D01*
X25907134Y-18642984D02*
X25907134Y-18681079D01*
X25983325Y-18642984D02*
X25983325Y-18681079D01*
X26278563Y-18919174D02*
X26269039Y-18909650D01*
X26269039Y-18909650D02*
X26249991Y-18881079D01*
X26249991Y-18881079D02*
X26240468Y-18862031D01*
X26240468Y-18862031D02*
X26230944Y-18833460D01*
X26230944Y-18833460D02*
X26221420Y-18785841D01*
X26221420Y-18785841D02*
X26221420Y-18747746D01*
X26221420Y-18747746D02*
X26230944Y-18700127D01*
X26230944Y-18700127D02*
X26240468Y-18671555D01*
X26240468Y-18671555D02*
X26249991Y-18652508D01*
X26249991Y-18652508D02*
X26269039Y-18623936D01*
X26269039Y-18623936D02*
X26278563Y-18614412D01*
X26459515Y-18842984D02*
X26345229Y-18842984D01*
X26402372Y-18842984D02*
X26402372Y-18642984D01*
X26402372Y-18642984D02*
X26383325Y-18671555D01*
X26383325Y-18671555D02*
X26364277Y-18690603D01*
X26364277Y-18690603D02*
X26345229Y-18700127D01*
X26583325Y-18642984D02*
X26602372Y-18642984D01*
X26602372Y-18642984D02*
X26621420Y-18652508D01*
X26621420Y-18652508D02*
X26630944Y-18662031D01*
X26630944Y-18662031D02*
X26640468Y-18681079D01*
X26640468Y-18681079D02*
X26649991Y-18719174D01*
X26649991Y-18719174D02*
X26649991Y-18766793D01*
X26649991Y-18766793D02*
X26640468Y-18804889D01*
X26640468Y-18804889D02*
X26630944Y-18823936D01*
X26630944Y-18823936D02*
X26621420Y-18833460D01*
X26621420Y-18833460D02*
X26602372Y-18842984D01*
X26602372Y-18842984D02*
X26583325Y-18842984D01*
X26583325Y-18842984D02*
X26564277Y-18833460D01*
X26564277Y-18833460D02*
X26554753Y-18823936D01*
X26554753Y-18823936D02*
X26545229Y-18804889D01*
X26545229Y-18804889D02*
X26535706Y-18766793D01*
X26535706Y-18766793D02*
X26535706Y-18719174D01*
X26535706Y-18719174D02*
X26545229Y-18681079D01*
X26545229Y-18681079D02*
X26554753Y-18662031D01*
X26554753Y-18662031D02*
X26564277Y-18652508D01*
X26564277Y-18652508D02*
X26583325Y-18642984D01*
X26888087Y-18842984D02*
X26888087Y-18642984D01*
X26973801Y-18842984D02*
X26973801Y-18738222D01*
X26973801Y-18738222D02*
X26964277Y-18719174D01*
X26964277Y-18719174D02*
X26945230Y-18709650D01*
X26945230Y-18709650D02*
X26916658Y-18709650D01*
X26916658Y-18709650D02*
X26897610Y-18719174D01*
X26897610Y-18719174D02*
X26888087Y-18728698D01*
X27097610Y-18842984D02*
X27078563Y-18833460D01*
X27078563Y-18833460D02*
X27069039Y-18823936D01*
X27069039Y-18823936D02*
X27059515Y-18804889D01*
X27059515Y-18804889D02*
X27059515Y-18747746D01*
X27059515Y-18747746D02*
X27069039Y-18728698D01*
X27069039Y-18728698D02*
X27078563Y-18719174D01*
X27078563Y-18719174D02*
X27097610Y-18709650D01*
X27097610Y-18709650D02*
X27126182Y-18709650D01*
X27126182Y-18709650D02*
X27145230Y-18719174D01*
X27145230Y-18719174D02*
X27154753Y-18728698D01*
X27154753Y-18728698D02*
X27164277Y-18747746D01*
X27164277Y-18747746D02*
X27164277Y-18804889D01*
X27164277Y-18804889D02*
X27154753Y-18823936D01*
X27154753Y-18823936D02*
X27145230Y-18833460D01*
X27145230Y-18833460D02*
X27126182Y-18842984D01*
X27126182Y-18842984D02*
X27097610Y-18842984D01*
X27278563Y-18842984D02*
X27259515Y-18833460D01*
X27259515Y-18833460D02*
X27249991Y-18814412D01*
X27249991Y-18814412D02*
X27249991Y-18642984D01*
X27430944Y-18833460D02*
X27411896Y-18842984D01*
X27411896Y-18842984D02*
X27373801Y-18842984D01*
X27373801Y-18842984D02*
X27354753Y-18833460D01*
X27354753Y-18833460D02*
X27345230Y-18814412D01*
X27345230Y-18814412D02*
X27345230Y-18738222D01*
X27345230Y-18738222D02*
X27354753Y-18719174D01*
X27354753Y-18719174D02*
X27373801Y-18709650D01*
X27373801Y-18709650D02*
X27411896Y-18709650D01*
X27411896Y-18709650D02*
X27430944Y-18719174D01*
X27430944Y-18719174D02*
X27440468Y-18738222D01*
X27440468Y-18738222D02*
X27440468Y-18757270D01*
X27440468Y-18757270D02*
X27345230Y-18776317D01*
X27516658Y-18833460D02*
X27535706Y-18842984D01*
X27535706Y-18842984D02*
X27573801Y-18842984D01*
X27573801Y-18842984D02*
X27592849Y-18833460D01*
X27592849Y-18833460D02*
X27602372Y-18814412D01*
X27602372Y-18814412D02*
X27602372Y-18804889D01*
X27602372Y-18804889D02*
X27592849Y-18785841D01*
X27592849Y-18785841D02*
X27573801Y-18776317D01*
X27573801Y-18776317D02*
X27545230Y-18776317D01*
X27545230Y-18776317D02*
X27526182Y-18766793D01*
X27526182Y-18766793D02*
X27516658Y-18747746D01*
X27516658Y-18747746D02*
X27516658Y-18738222D01*
X27516658Y-18738222D02*
X27526182Y-18719174D01*
X27526182Y-18719174D02*
X27545230Y-18709650D01*
X27545230Y-18709650D02*
X27573801Y-18709650D01*
X27573801Y-18709650D02*
X27592849Y-18719174D01*
X27669039Y-18919174D02*
X27678563Y-18909650D01*
X27678563Y-18909650D02*
X27697611Y-18881079D01*
X27697611Y-18881079D02*
X27707134Y-18862031D01*
X27707134Y-18862031D02*
X27716658Y-18833460D01*
X27716658Y-18833460D02*
X27726182Y-18785841D01*
X27726182Y-18785841D02*
X27726182Y-18747746D01*
X27726182Y-18747746D02*
X27716658Y-18700127D01*
X27716658Y-18700127D02*
X27707134Y-18671555D01*
X27707134Y-18671555D02*
X27697611Y-18652508D01*
X27697611Y-18652508D02*
X27678563Y-18623936D01*
X27678563Y-18623936D02*
X27669039Y-18614412D01*
M02*
