%TF.GenerationSoftware,KiCad,Pcbnew,8.0.7*%
%TF.CreationDate,2025-01-16T14:45:50+00:00*%
%TF.ProjectId,MAIN,4d41494e-2e6b-4696-9361-645f70636258,rev?*%
%TF.SameCoordinates,Original*%
%TF.FileFunction,Copper,L3,Inr*%
%TF.FilePolarity,Positive*%
%FSLAX46Y46*%
G04 Gerber Fmt 4.6, Leading zero omitted, Abs format (unit mm)*
G04 Created by KiCad (PCBNEW 8.0.7) date 2025-01-16 14:45:50*
%MOMM*%
%LPD*%
G01*
G04 APERTURE LIST*
%TA.AperFunction,ComponentPad*%
%ADD10C,1.600000*%
%TD*%
%TA.AperFunction,ComponentPad*%
%ADD11R,1.050000X1.500000*%
%TD*%
%TA.AperFunction,ComponentPad*%
%ADD12O,1.050000X1.500000*%
%TD*%
%TA.AperFunction,ComponentPad*%
%ADD13O,1.600000X1.600000*%
%TD*%
%TA.AperFunction,ComponentPad*%
%ADD14R,2.400000X2.400000*%
%TD*%
%TA.AperFunction,ComponentPad*%
%ADD15O,2.400000X2.400000*%
%TD*%
%TA.AperFunction,ComponentPad*%
%ADD16R,1.700000X1.700000*%
%TD*%
%TA.AperFunction,ComponentPad*%
%ADD17O,1.700000X1.700000*%
%TD*%
%TA.AperFunction,ComponentPad*%
%ADD18C,1.400000*%
%TD*%
%TA.AperFunction,ComponentPad*%
%ADD19O,1.400000X1.400000*%
%TD*%
%TA.AperFunction,ComponentPad*%
%ADD20C,1.800000*%
%TD*%
%TA.AperFunction,ComponentPad*%
%ADD21R,1.600000X1.600000*%
%TD*%
%TA.AperFunction,ViaPad*%
%ADD22C,0.800000*%
%TD*%
%TA.AperFunction,Conductor*%
%ADD23C,0.250000*%
%TD*%
%TA.AperFunction,Conductor*%
%ADD24C,0.500000*%
%TD*%
G04 APERTURE END LIST*
D10*
%TO.N,Net-(U4B-+)*%
%TO.C,C4*%
X256256200Y-123552200D03*
%TO.N,Net-(U4A--)*%
X253756200Y-123552200D03*
%TD*%
%TO.N,Net-(D5-K)*%
%TO.C,C7*%
X312006200Y-79482200D03*
%TO.N,VCO1CoarsePot1*%
X317006200Y-79482200D03*
%TD*%
D11*
%TO.N,Net-(D5-K)*%
%TO.C,Q6*%
X313506200Y-85482200D03*
D12*
%TO.N,Net-(Q5-E)*%
X314776200Y-85482200D03*
%TO.N,VCO1CoarsePot1*%
X316046200Y-85482200D03*
%TD*%
D10*
%TO.N,VCO1CoarsePot1*%
%TO.C,R20*%
X260006200Y-111052200D03*
D13*
%TO.N,Net-(U4B-+)*%
X260006200Y-123752200D03*
%TD*%
D10*
%TO.N,Net-(D3-K)*%
%TO.C,R17*%
X286381200Y-87017200D03*
D13*
%TO.N,VCO1CoarsePot1*%
X273681200Y-87017200D03*
%TD*%
D10*
%TO.N,Net-(U3D--)*%
%TO.C,R42*%
X285926200Y-115742200D03*
D13*
%TO.N,VCO2PwmPot1*%
X296086200Y-115742200D03*
%TD*%
D14*
%TO.N,Net-(D2-K)*%
%TO.C,D2*%
X232506200Y-142982200D03*
D15*
%TO.N,Net-(D2-A)*%
X232506200Y-137902200D03*
%TD*%
D11*
%TO.N,VCO1CoarsePot3*%
%TO.C,Q1*%
X270506200Y-93242200D03*
D12*
%TO.N,VCO1FMPot1*%
X271776200Y-93242200D03*
%TO.N,Net-(Q1-E)*%
X273046200Y-93242200D03*
%TD*%
D10*
%TO.N,Net-(R27-Pad1)*%
%TO.C,R27*%
X231386200Y-160592200D03*
D13*
%TO.N,Net-(U4B--)*%
X231386200Y-147892200D03*
%TD*%
D16*
%TO.N,VCO1CoarsePot1*%
%TO.C,J1*%
X237485000Y-70800000D03*
D17*
%TO.N,VCO1CoarsePot2*%
X240025000Y-70800000D03*
%TO.N,VCO1CoarsePot3*%
X242565000Y-70800000D03*
%TO.N,VCO1CoarsePot1*%
X245105000Y-70800000D03*
%TO.N,VCO1FinePot2*%
X247645000Y-70800000D03*
%TO.N,VCO1CoarsePot3*%
X250185000Y-70800000D03*
%TO.N,VCO1FMPot1*%
X252725000Y-70800000D03*
%TO.N,VCO1FMPot2*%
X255265000Y-70800000D03*
%TO.N,VCO1FMPot3*%
X257805000Y-70800000D03*
%TO.N,VCO1PwmPot1*%
X260345000Y-70800000D03*
%TO.N,VCO1CoarsePot1*%
X262885000Y-70800000D03*
%TO.N,VCO1PwmPot3*%
X265425000Y-70800000D03*
%TO.N,SW1p1*%
X267965000Y-70800000D03*
%TO.N,SW1p2*%
X270505000Y-70800000D03*
%TO.N,SW1p3*%
X273045000Y-70800000D03*
%TO.N,VCO1CoarsePot1*%
X275585000Y-70800000D03*
%TO.N,VCO2CoarsePot2*%
X278125000Y-70800000D03*
%TO.N,VCO1CoarsePot3*%
X280665000Y-70800000D03*
%TO.N,VCO1CoarsePot1*%
X283205000Y-70800000D03*
%TO.N,VCO2FinePot2*%
X285745000Y-70800000D03*
%TO.N,VCO1CoarsePot3*%
X288285000Y-70800000D03*
%TO.N,VCO2FMPot1*%
X290825000Y-70800000D03*
%TO.N,VCO2FMPot2*%
X293365000Y-70800000D03*
%TO.N,VCO2FMPot3*%
X295905000Y-70800000D03*
%TO.N,VCO2PwmPot1*%
X298445000Y-70800000D03*
%TO.N,VCO2PwmPot2*%
X300985000Y-70800000D03*
%TO.N,VCO2PwmPot3*%
X303525000Y-70800000D03*
%TO.N,VCO2IDKPot1*%
X306065000Y-70800000D03*
%TO.N,VCO2IDKPot2*%
X308605000Y-70800000D03*
%TO.N,VCO1CoarsePot3*%
X311145000Y-70800000D03*
%TO.N,SW2p1*%
X313685000Y-70800000D03*
%TO.N,SW2p2*%
X316225000Y-70800000D03*
%TD*%
D10*
%TO.N,Net-(R4-Pad1)*%
%TO.C,R4*%
X281656200Y-103742200D03*
D13*
%TO.N,cvIn1*%
X294356200Y-103742200D03*
%TD*%
D10*
%TO.N,Net-(U2B--)*%
%TO.C,R18*%
X247926200Y-84742200D03*
D13*
%TO.N,VCO1CoarsePot1*%
X258086200Y-84742200D03*
%TD*%
D10*
%TO.N,Net-(C6-Pad1)*%
%TO.C,C6*%
X277506200Y-156242200D03*
%TO.N,Net-(C6-Pad2)*%
X275006200Y-156242200D03*
%TD*%
%TO.N,VCO3WaveMixPot3*%
%TO.C,R31*%
X264446200Y-156242200D03*
D13*
%TO.N,Net-(C6-Pad1)*%
X272066200Y-156242200D03*
%TD*%
D18*
%TO.N,VCO2FMPot1*%
%TO.C,TH11*%
X314506200Y-96742200D03*
D19*
%TO.N,Net-(R39-Pad1)*%
X314506200Y-99282200D03*
%TD*%
D20*
%TO.N,Net-(R10-Pad1)*%
%TO.C,R10*%
X279531200Y-134717200D03*
%TO.N,VCO1CoarsePot1*%
X276991200Y-144877200D03*
%TO.N,N/C*%
X279531200Y-152497200D03*
%TD*%
D10*
%TO.N,VCO1FMPot1*%
%TO.C,R2*%
X276346200Y-93742200D03*
D13*
%TO.N,Net-(R2-Pad2)*%
X286506200Y-93742200D03*
%TD*%
D18*
%TO.N,VCO2FMPot2*%
%TO.C,TH9*%
X292156200Y-77522200D03*
D19*
%TO.N,Net-(R34-Pad1)*%
X292156200Y-80062200D03*
%TD*%
D10*
%TO.N,Net-(U3C-+)*%
%TO.C,R48*%
X296166200Y-124242200D03*
D13*
%TO.N,VCO1CoarsePot1*%
X286006200Y-124242200D03*
%TD*%
D20*
%TO.N,Net-(R2-Pad2)*%
%TO.C,R3*%
X260006200Y-78242200D03*
%TO.N,VCO1CoarsePot1*%
X270166200Y-80782200D03*
%TO.N,N/C*%
X277786200Y-78242200D03*
%TD*%
D10*
%TO.N,Net-(R39-Pad1)*%
%TO.C,R39*%
X314616200Y-101762200D03*
D13*
%TO.N,VCO2CoarsePot2*%
X314616200Y-114462200D03*
%TD*%
D10*
%TO.N,Net-(D4-K)*%
%TO.C,R21*%
X245506200Y-134042200D03*
D13*
%TO.N,VCO1CoarsePot1*%
X245506200Y-146742200D03*
%TD*%
D10*
%TO.N,VCO3FMPot1*%
%TO.C,R9*%
X293086200Y-134892200D03*
D13*
%TO.N,Net-(R10-Pad1)*%
X282926200Y-134892200D03*
%TD*%
D10*
%TO.N,Net-(U3B--)*%
%TO.C,R45*%
X307426200Y-133822200D03*
D13*
%TO.N,VCO1CoarsePot1*%
X307426200Y-123662200D03*
%TD*%
D11*
%TO.N,Net-(D2-K)*%
%TO.C,Q4*%
X253558700Y-112912200D03*
D12*
%TO.N,Net-(Q3-E)*%
X254828700Y-112912200D03*
%TO.N,VCO1CoarsePot1*%
X256098700Y-112912200D03*
%TD*%
D10*
%TO.N,Net-(C5-Pad1)*%
%TO.C,C5*%
X233256200Y-110742200D03*
%TO.N,Net-(C5-Pad2)*%
X235756200Y-110742200D03*
%TD*%
%TO.N,Net-(D3-A)*%
%TO.C,R15*%
X271006200Y-85742200D03*
D13*
%TO.N,VCO1PwmPot1*%
X260846200Y-85742200D03*
%TD*%
D10*
%TO.N,Net-(D4-A)*%
%TO.C,R19*%
X233006200Y-134822200D03*
D13*
%TO.N,VCO3PwmPot1*%
X233006200Y-124662200D03*
%TD*%
D10*
%TO.N,SW1p3*%
%TO.C,R24*%
X238506200Y-102552200D03*
D13*
%TO.N,Net-(R22-Pad1)*%
X238506200Y-94932200D03*
%TD*%
D10*
%TO.N,mixOut*%
%TO.C,R33*%
X238886200Y-127242200D03*
D13*
%TO.N,Net-(U4D--)*%
X246506200Y-127242200D03*
%TD*%
D21*
%TO.N,Net-(U2A--)*%
%TO.C,U2*%
X249006200Y-89502200D03*
D13*
X249006200Y-92042200D03*
%TO.N,Net-(D1-K)*%
X249006200Y-94582200D03*
%TO.N,VCO2IDKPot1*%
X249006200Y-97122200D03*
%TO.N,Net-(U2B-+)*%
X249006200Y-99662200D03*
%TO.N,Net-(U2B--)*%
X249006200Y-102202200D03*
%TO.N,Net-(R22-Pad1)*%
X249006200Y-104742200D03*
%TO.N,Net-(D3-A)*%
X256626200Y-104742200D03*
%TO.N,VCO1PwmPot1*%
X256626200Y-102202200D03*
%TO.N,Net-(U2B-+)*%
X256626200Y-99662200D03*
%TO.N,VCO1CoarsePot3*%
X256626200Y-97122200D03*
%TO.N,VCO1CoarsePot1*%
X256626200Y-94582200D03*
X256626200Y-92042200D03*
%TO.N,unconnected-(U2-Pad14)*%
X256626200Y-89502200D03*
%TD*%
D16*
%TO.N,SW2p3*%
%TO.C,J3*%
X316235000Y-165200000D03*
D17*
%TO.N,VCO1CoarsePot1*%
X313695000Y-165200000D03*
%TO.N,VCO3CoarsePot2*%
X311155000Y-165200000D03*
%TO.N,VCO1CoarsePot3*%
X308615000Y-165200000D03*
%TO.N,VCO1CoarsePot1*%
X306075000Y-165200000D03*
%TO.N,VCO3FinePot2*%
X303535000Y-165200000D03*
%TO.N,VCO1CoarsePot3*%
X300995000Y-165200000D03*
%TO.N,VCO3FMPot1*%
X298455000Y-165200000D03*
%TO.N,VCO3FMPot2*%
X295915000Y-165200000D03*
%TO.N,VCO3FMPot3*%
X293375000Y-165200000D03*
%TO.N,VCO3PwmPot1*%
X290835000Y-165200000D03*
%TO.N,VCO1CoarsePot1*%
X288295000Y-165200000D03*
%TO.N,VCO3PwmPot3*%
X285755000Y-165200000D03*
%TO.N,VCO3WaveMixPot1*%
X283215000Y-165200000D03*
%TO.N,VCO3WaveMixPot2*%
X280675000Y-165200000D03*
%TO.N,VCO3WaveMixPot3*%
X278135000Y-165200000D03*
%TO.N,cvIn1*%
X275595000Y-165200000D03*
%TO.N,cvIn2*%
X273055000Y-165200000D03*
%TO.N,cvIn3*%
X270515000Y-165200000D03*
%TO.N,fmIn1*%
X267975000Y-165200000D03*
%TO.N,fmIn2*%
X265435000Y-165200000D03*
%TO.N,fmIn3*%
X262895000Y-165200000D03*
%TO.N,VCO2PwmPot2*%
X260355000Y-165200000D03*
%TO.N,SW1p2*%
X257815000Y-165200000D03*
%TO.N,SW2p2*%
X255275000Y-165200000D03*
%TO.N,mixOut*%
X252735000Y-165200000D03*
%TO.N,unconnected-(J3-Pin_27-Pad27)*%
X250195000Y-165200000D03*
%TO.N,unconnected-(J3-Pin_28-Pad28)*%
X247655000Y-165200000D03*
%TO.N,unconnected-(J3-Pin_29-Pad29)*%
X245115000Y-165200000D03*
%TO.N,unconnected-(J3-Pin_30-Pad30)*%
X242575000Y-165200000D03*
%TO.N,unconnected-(J3-Pin_31-Pad31)*%
X240035000Y-165200000D03*
%TO.N,unconnected-(J3-Pin_32-Pad32)*%
X237495000Y-165200000D03*
%TD*%
D20*
%TO.N,Net-(R35-Pad2)*%
%TO.C,R36*%
X314701200Y-117137200D03*
%TO.N,VCO1CoarsePot1*%
X312161200Y-127297200D03*
%TO.N,N/C*%
X314701200Y-134917200D03*
%TD*%
D21*
%TO.N,Net-(D1-K)*%
%TO.C,U1*%
X273886200Y-112002200D03*
D13*
%TO.N,Net-(D1-A)*%
X273886200Y-114542200D03*
%TO.N,Net-(D3-K)*%
X273886200Y-117082200D03*
%TO.N,Net-(C5-Pad2)*%
X273886200Y-119622200D03*
%TO.N,Net-(D5-K)*%
X273886200Y-122162200D03*
%TO.N,Net-(D5-A)*%
X273886200Y-124702200D03*
%TO.N,VCO1CoarsePot1*%
X273886200Y-127242200D03*
%TO.N,Net-(D2-A)*%
X281506200Y-127242200D03*
%TO.N,Net-(D2-K)*%
X281506200Y-124702200D03*
%TO.N,Net-(C6-Pad2)*%
X281506200Y-122162200D03*
%TO.N,Net-(D4-K)*%
X281506200Y-119622200D03*
%TO.N,N/C*%
X281506200Y-117082200D03*
X281506200Y-114542200D03*
%TO.N,VCO2IDKPot1*%
X281506200Y-112002200D03*
%TD*%
D10*
%TO.N,VCO1CoarsePot1*%
%TO.C,R43*%
X284656200Y-131242200D03*
D13*
%TO.N,Net-(U3B-+)*%
X297356200Y-131242200D03*
%TD*%
D18*
%TO.N,VCO3FMPot1*%
%TO.C,TH8*%
X248866200Y-134392200D03*
D19*
%TO.N,Net-(R14-Pad1)*%
X251406200Y-134392200D03*
%TD*%
D11*
%TO.N,VCO1CoarsePot3*%
%TO.C,Q3*%
X256126200Y-118192200D03*
D12*
%TO.N,VCO3FMPot1*%
X254856200Y-118192200D03*
%TO.N,Net-(Q3-E)*%
X253586200Y-118192200D03*
%TD*%
D10*
%TO.N,VCO2IDKPot1*%
%TO.C,R12*%
X250006200Y-119362200D03*
D13*
%TO.N,Net-(Q3-E)*%
X250006200Y-111742200D03*
%TD*%
D10*
%TO.N,VCO2IDKPot1*%
%TO.C,R38*%
X310006200Y-142242200D03*
D13*
%TO.N,Net-(Q5-E)*%
X317626200Y-142242200D03*
%TD*%
D10*
%TO.N,SW2p1*%
%TO.C,R50*%
X320506200Y-96162200D03*
D13*
%TO.N,Net-(U3C--)*%
X320506200Y-106322200D03*
%TD*%
D10*
%TO.N,VCO2FMPot1*%
%TO.C,R35*%
X307426200Y-110162200D03*
D13*
%TO.N,Net-(R35-Pad2)*%
X307426200Y-120322200D03*
%TD*%
D11*
%TO.N,Net-(D1-K)*%
%TO.C,Q2*%
X273006200Y-98742200D03*
D12*
%TO.N,Net-(Q1-E)*%
X271736200Y-98742200D03*
%TO.N,VCO1CoarsePot1*%
X270466200Y-98742200D03*
%TD*%
D10*
%TO.N,Net-(R13-Pad1)*%
%TO.C,R13*%
X289506200Y-144892200D03*
D13*
%TO.N,VCO3CoarsePot2*%
X289506200Y-157592200D03*
%TD*%
D10*
%TO.N,Net-(U3D--)*%
%TO.C,R44*%
X285926200Y-120742200D03*
D13*
%TO.N,VCO1CoarsePot1*%
X296086200Y-120742200D03*
%TD*%
D14*
%TO.N,Net-(D1-K)*%
%TO.C,D1*%
X269006200Y-109242200D03*
D15*
%TO.N,Net-(D1-A)*%
X269006200Y-114322200D03*
%TD*%
D21*
%TO.N,VCO2IDKPot1*%
%TO.C,C9*%
X298636200Y-155382200D03*
D10*
%TO.N,VCO1CoarsePot1*%
X298636200Y-153382200D03*
%TD*%
D18*
%TO.N,VCO1FMPot2*%
%TO.C,TH1*%
X276286200Y-98592200D03*
D19*
%TO.N,Net-(R1-Pad1)*%
X278826200Y-98592200D03*
%TD*%
D14*
%TO.N,Net-(D4-K)*%
%TO.C,D4*%
X241246200Y-134242200D03*
D15*
%TO.N,Net-(D4-A)*%
X236166200Y-134242200D03*
%TD*%
D18*
%TO.N,VCO3FMPot2*%
%TO.C,TH3*%
X248786200Y-127242200D03*
D19*
%TO.N,Net-(R5-Pad1)*%
X251326200Y-127242200D03*
%TD*%
D18*
%TO.N,VCO1FMPot1*%
%TO.C,TH5*%
X232706200Y-101662200D03*
D19*
%TO.N,Net-(R8-Pad1)*%
X232706200Y-99122200D03*
%TD*%
D10*
%TO.N,Net-(R14-Pad1)*%
%TO.C,R14*%
X253786200Y-134242200D03*
D13*
%TO.N,VCO3FinePot2*%
X261406200Y-134242200D03*
%TD*%
D11*
%TO.N,VCO1CoarsePot3*%
%TO.C,Q5*%
X316016200Y-90982200D03*
D12*
%TO.N,VCO2FMPot1*%
X314746200Y-90982200D03*
%TO.N,Net-(Q5-E)*%
X313476200Y-90982200D03*
%TD*%
D18*
%TO.N,VCO2FMPot1*%
%TO.C,TH10*%
X320546200Y-90432200D03*
D19*
%TO.N,Net-(R37-Pad1)*%
X320546200Y-92972200D03*
%TD*%
D10*
%TO.N,Net-(D2-K)*%
%TO.C,C2*%
X237506200Y-139742200D03*
%TO.N,VCO1CoarsePot1*%
X237506200Y-144742200D03*
%TD*%
D16*
%TO.N,Net-(J2-Pin_1)*%
%TO.C,J2*%
X320466200Y-147582200D03*
D17*
X323006200Y-147582200D03*
%TO.N,VCO1CoarsePot1*%
X320466200Y-150122200D03*
X323006200Y-150122200D03*
X320466200Y-152662200D03*
X323006200Y-152662200D03*
X320466200Y-155202200D03*
X323006200Y-155202200D03*
%TO.N,Net-(J2-Pin_10)*%
X320466200Y-157742200D03*
X323006200Y-157742200D03*
%TD*%
D21*
%TO.N,Net-(U3A--)*%
%TO.C,U3*%
X302206200Y-89617200D03*
D13*
X302206200Y-92157200D03*
%TO.N,Net-(D5-K)*%
X302206200Y-94697200D03*
%TO.N,VCO2IDKPot1*%
X302206200Y-97237200D03*
%TO.N,Net-(U3B-+)*%
X302206200Y-99777200D03*
%TO.N,Net-(U3B--)*%
X302206200Y-102317200D03*
%TO.N,Net-(R47-Pad1)*%
X302206200Y-104857200D03*
%TO.N,Net-(U3C--)*%
X309826200Y-104857200D03*
X309826200Y-102317200D03*
%TO.N,Net-(U3C-+)*%
X309826200Y-99777200D03*
%TO.N,VCO1CoarsePot3*%
X309826200Y-97237200D03*
%TO.N,Net-(U3B-+)*%
X309826200Y-94697200D03*
%TO.N,Net-(U3D--)*%
X309826200Y-92157200D03*
%TO.N,Net-(R46-Pad2)*%
X309826200Y-89617200D03*
%TD*%
D21*
%TO.N,Net-(U4A--)*%
%TO.C,U4*%
X251886200Y-139702200D03*
D13*
X251886200Y-142242200D03*
%TO.N,Net-(D2-K)*%
X251886200Y-144782200D03*
%TO.N,VCO2IDKPot1*%
X251886200Y-147322200D03*
%TO.N,Net-(U4B-+)*%
X251886200Y-149862200D03*
%TO.N,Net-(U4B--)*%
X251886200Y-152402200D03*
%TO.N,Net-(R27-Pad1)*%
X251886200Y-154942200D03*
%TO.N,Net-(D4-A)*%
X259506200Y-154942200D03*
%TO.N,VCO3PwmPot1*%
X259506200Y-152402200D03*
%TO.N,Net-(U4B-+)*%
X259506200Y-149862200D03*
%TO.N,VCO1CoarsePot3*%
X259506200Y-147322200D03*
%TO.N,VCO3WaveMixPot2*%
X259506200Y-144782200D03*
%TO.N,Net-(U4D--)*%
X259506200Y-142242200D03*
X259506200Y-139702200D03*
%TD*%
D18*
%TO.N,VCO1FMPot1*%
%TO.C,TH2*%
X276286200Y-102242200D03*
D19*
%TO.N,Net-(R4-Pad1)*%
X278826200Y-102242200D03*
%TD*%
D10*
%TO.N,Net-(R8-Pad1)*%
%TO.C,R8*%
X238506200Y-92052200D03*
D13*
%TO.N,VCO1FinePot2*%
X238506200Y-84432200D03*
%TD*%
D10*
%TO.N,Net-(R40-Pad1)*%
%TO.C,R40*%
X321094700Y-82433100D03*
D13*
%TO.N,VCO2FinePot2*%
X321094700Y-74813100D03*
%TD*%
D10*
%TO.N,Net-(R22-Pad1)*%
%TO.C,R22*%
X244006200Y-96592200D03*
D13*
%TO.N,Net-(U2B--)*%
X244006200Y-83892200D03*
%TD*%
D14*
%TO.N,Net-(D3-K)*%
%TO.C,D3*%
X287246200Y-79242200D03*
D15*
%TO.N,Net-(D3-A)*%
X282166200Y-79242200D03*
%TD*%
D10*
%TO.N,Net-(R5-Pad1)*%
%TO.C,R5*%
X254306200Y-129242200D03*
D13*
%TO.N,fmIn3*%
X267006200Y-129242200D03*
%TD*%
D10*
%TO.N,Net-(D1-K)*%
%TO.C,C1*%
X266506200Y-100742200D03*
%TO.N,VCO1CoarsePot1*%
X266506200Y-95742200D03*
%TD*%
%TO.N,Net-(U3B-+)*%
%TO.C,C8*%
X296506200Y-92242200D03*
%TO.N,Net-(U3A--)*%
X296506200Y-89742200D03*
%TD*%
%TO.N,Net-(R37-Pad1)*%
%TO.C,R37*%
X320506200Y-109742200D03*
D13*
%TO.N,cvIn2*%
X320506200Y-122442200D03*
%TD*%
D10*
%TO.N,VCO1CoarsePot1*%
%TO.C,R16*%
X256006200Y-78742200D03*
D13*
%TO.N,Net-(U2B-+)*%
X243306200Y-78742200D03*
%TD*%
D10*
%TO.N,Net-(U3D--)*%
%TO.C,R41*%
X285886200Y-110742200D03*
D13*
%TO.N,VCO2IDKPot2*%
X298586200Y-110742200D03*
%TD*%
D10*
%TO.N,Net-(R1-Pad1)*%
%TO.C,R1*%
X282156200Y-98242200D03*
D13*
%TO.N,fmIn1*%
X294856200Y-98242200D03*
%TD*%
D10*
%TO.N,VCO3WaveMixPot3*%
%TO.C,R32*%
X264756200Y-152942200D03*
D13*
%TO.N,VCO1CoarsePot1*%
X264756200Y-140242200D03*
%TD*%
D10*
%TO.N,VCO2IDKPot1*%
%TO.C,R6*%
X259696200Y-91742200D03*
D13*
%TO.N,Net-(Q1-E)*%
X267316200Y-91742200D03*
%TD*%
D14*
%TO.N,Net-(D5-K)*%
%TO.C,D5*%
X308506200Y-79742200D03*
D15*
%TO.N,Net-(D5-A)*%
X308506200Y-84822200D03*
%TD*%
D10*
%TO.N,Net-(R47-Pad1)*%
%TO.C,R47*%
X309006200Y-137742200D03*
D13*
%TO.N,Net-(U3B--)*%
X296306200Y-137742200D03*
%TD*%
D10*
%TO.N,Net-(U3C-+)*%
%TO.C,R46*%
X302506200Y-122742200D03*
D13*
%TO.N,Net-(R46-Pad2)*%
X302506200Y-110042200D03*
%TD*%
D10*
%TO.N,Net-(R7-Pad1)*%
%TO.C,R7*%
X232506200Y-90942200D03*
D13*
%TO.N,VCO1CoarsePot2*%
X232506200Y-78242200D03*
%TD*%
D18*
%TO.N,VCO3FMPot1*%
%TO.C,TH6*%
X289006200Y-139522200D03*
D19*
%TO.N,Net-(R11-Pad1)*%
X289006200Y-142062200D03*
%TD*%
D10*
%TO.N,Net-(U2B-+)*%
%TO.C,C3*%
X238806200Y-78492200D03*
%TO.N,Net-(U2A--)*%
X238806200Y-80992200D03*
%TD*%
%TO.N,Net-(U4B--)*%
%TO.C,R23*%
X234426200Y-149742200D03*
D13*
%TO.N,VCO1CoarsePot1*%
X244586200Y-149742200D03*
%TD*%
D10*
%TO.N,VCO3WaveMixPot1*%
%TO.C,R29*%
X244006200Y-154742200D03*
D13*
%TO.N,Net-(R27-Pad1)*%
X236386200Y-154742200D03*
%TD*%
D10*
%TO.N,Net-(C5-Pad1)*%
%TO.C,R25*%
X244006200Y-99392200D03*
D13*
%TO.N,VCO1CoarsePot1*%
X244006200Y-112092200D03*
%TD*%
D10*
%TO.N,Net-(C6-Pad1)*%
%TO.C,R30*%
X271756200Y-153242200D03*
D13*
%TO.N,VCO1CoarsePot1*%
X271756200Y-140542200D03*
%TD*%
D10*
%TO.N,VCO2IDKPot1*%
%TO.C,R51*%
X306056200Y-154882200D03*
D13*
%TO.N,Net-(J2-Pin_10)*%
X316216200Y-154882200D03*
%TD*%
D10*
%TO.N,Net-(R34-Pad1)*%
%TO.C,R34*%
X291806200Y-84242200D03*
D13*
%TO.N,fmIn2*%
X304506200Y-84242200D03*
%TD*%
D10*
%TO.N,VCO1CoarsePot3*%
%TO.C,R52*%
X305976200Y-147882200D03*
D13*
%TO.N,Net-(J2-Pin_1)*%
X316136200Y-147882200D03*
%TD*%
D10*
%TO.N,SW1p1*%
%TO.C,R26*%
X230386200Y-106242200D03*
D13*
%TO.N,Net-(C5-Pad1)*%
X238006200Y-106242200D03*
%TD*%
D10*
%TO.N,Net-(R11-Pad1)*%
%TO.C,R11*%
X284006200Y-138042200D03*
D13*
%TO.N,cvIn3*%
X284006200Y-150742200D03*
%TD*%
D21*
%TO.N,VCO1CoarsePot1*%
%TO.C,C10*%
X298636200Y-149382200D03*
D10*
%TO.N,VCO1CoarsePot3*%
X298636200Y-147382200D03*
%TD*%
D18*
%TO.N,VCO1FMPot1*%
%TO.C,TH4*%
X232706200Y-96342200D03*
D19*
%TO.N,Net-(R7-Pad1)*%
X232706200Y-93802200D03*
%TD*%
D10*
%TO.N,SW2p3*%
%TO.C,R49*%
X320506200Y-135822200D03*
D13*
%TO.N,Net-(R47-Pad1)*%
X320506200Y-125662200D03*
%TD*%
D18*
%TO.N,VCO2FMPot1*%
%TO.C,TH12*%
X320506200Y-87522200D03*
D19*
%TO.N,Net-(R40-Pad1)*%
X320506200Y-84982200D03*
%TD*%
D18*
%TO.N,VCO3FMPot1*%
%TO.C,TH7*%
X248866200Y-131242200D03*
D19*
%TO.N,Net-(R13-Pad1)*%
X251406200Y-131242200D03*
%TD*%
D10*
%TO.N,SW1p1*%
%TO.C,R28*%
X231156200Y-116242200D03*
D13*
%TO.N,VCO1CoarsePot1*%
X243856200Y-116242200D03*
%TD*%
D22*
%TO.N,cvIn2*%
X290154000Y-148078400D03*
%TO.N,fmIn3*%
X260353900Y-160965300D03*
%TD*%
D23*
%TO.N,Net-(U3C-+)*%
X305807300Y-119441100D02*
X302506200Y-122742200D01*
X305807300Y-104641100D02*
X305807300Y-119441100D01*
X309544500Y-100903900D02*
X305807300Y-104641100D01*
X309826200Y-100903900D02*
X309544500Y-100903900D01*
X309826200Y-99777200D02*
X309826200Y-100903900D01*
%TO.N,Net-(R46-Pad2)*%
X309826200Y-89617200D02*
X309826200Y-90743900D01*
X302506200Y-110042200D02*
X302506200Y-108915500D01*
X309578600Y-90743900D02*
X309826200Y-90743900D01*
X306665600Y-93656900D02*
X309578600Y-90743900D01*
X306665600Y-101989100D02*
X306665600Y-93656900D01*
X303632900Y-105021800D02*
X306665600Y-101989100D01*
X303632900Y-107788800D02*
X303632900Y-105021800D01*
X302506200Y-108915500D02*
X303632900Y-107788800D01*
%TO.N,Net-(U3B--)*%
X302206200Y-102317200D02*
X302206200Y-103443900D01*
X296306200Y-137742200D02*
X297432900Y-137742200D01*
X306586200Y-132982200D02*
X302192900Y-132982200D01*
X307426200Y-133822200D02*
X306586200Y-132982200D01*
X302192900Y-132982200D02*
X297432900Y-137742200D01*
X301924500Y-103443900D02*
X302206200Y-103443900D01*
X301044400Y-104324000D02*
X301924500Y-103443900D01*
X301044400Y-131833700D02*
X301044400Y-104324000D01*
X302192900Y-132982200D02*
X301044400Y-131833700D01*
%TO.N,Net-(U3D--)*%
X285926200Y-110782200D02*
X285926200Y-115742200D01*
X285886200Y-110742200D02*
X285926200Y-110782200D01*
X285926200Y-115742200D02*
X285926200Y-120742200D01*
%TO.N,Net-(R40-Pad1)*%
X321094700Y-83367000D02*
X321094700Y-82433100D01*
X320506200Y-83955500D02*
X321094700Y-83367000D01*
X320506200Y-84982200D02*
X320506200Y-83955500D01*
%TO.N,Net-(R39-Pad1)*%
X314616200Y-100418900D02*
X314616200Y-101762200D01*
X314506200Y-100308900D02*
X314616200Y-100418900D01*
X314506200Y-99282200D02*
X314506200Y-100308900D01*
%TO.N,Net-(R37-Pad1)*%
X321673600Y-108574800D02*
X320506200Y-109742200D01*
X321673600Y-95126300D02*
X321673600Y-108574800D01*
X320546200Y-93998900D02*
X321673600Y-95126300D01*
X320546200Y-92972200D02*
X320546200Y-93998900D01*
%TO.N,Net-(U4D--)*%
X259506200Y-139702200D02*
X259506200Y-142242200D01*
%TO.N,Net-(R27-Pad1)*%
X236109500Y-155868900D02*
X231386200Y-160592200D01*
X236386200Y-155868900D02*
X236109500Y-155868900D01*
X236386200Y-154742200D02*
X236386200Y-155868900D01*
%TO.N,Net-(R22-Pad1)*%
X249006200Y-104742200D02*
X249006200Y-103615500D01*
X248771700Y-103615500D02*
X249006200Y-103615500D01*
X247692400Y-102536200D02*
X248771700Y-103615500D01*
X247692400Y-100919300D02*
X247692400Y-102536200D01*
X244006200Y-97233100D02*
X247692400Y-100919300D01*
X244006200Y-96592200D02*
X244006200Y-97233100D01*
%TO.N,Net-(U2B--)*%
X249006200Y-102202200D02*
X249006200Y-101075500D01*
X244006200Y-83892200D02*
X245132900Y-83892200D01*
X246055200Y-84814500D02*
X245132900Y-83892200D01*
X247853900Y-84814500D02*
X246055200Y-84814500D01*
X247853900Y-100103400D02*
X247853900Y-84814500D01*
X248826000Y-101075500D02*
X247853900Y-100103400D01*
X249006200Y-101075500D02*
X248826000Y-101075500D01*
X247853900Y-84814500D02*
X247926200Y-84742200D01*
%TO.N,Net-(R8-Pad1)*%
X238506200Y-92295500D02*
X238506200Y-92052200D01*
X232706200Y-98095500D02*
X238506200Y-92295500D01*
X232706200Y-99122200D02*
X232706200Y-98095500D01*
%TO.N,Net-(R7-Pad1)*%
X232506200Y-92575500D02*
X232506200Y-90942200D01*
X232706200Y-92775500D02*
X232506200Y-92575500D01*
X232706200Y-93802200D02*
X232706200Y-92775500D01*
%TO.N,Net-(Q5-E)*%
X313476200Y-103399600D02*
X313476200Y-90982200D01*
X317626200Y-107549600D02*
X313476200Y-103399600D01*
X317626200Y-142242200D02*
X317626200Y-107549600D01*
%TO.N,Net-(Q3-E)*%
X254828700Y-115184100D02*
X254828700Y-112912200D01*
X253586200Y-116426600D02*
X254828700Y-115184100D01*
X253586200Y-118192200D02*
X253586200Y-116426600D01*
%TO.N,Net-(Q1-E)*%
X273046200Y-95389300D02*
X273046200Y-93242200D01*
X271736200Y-96699300D02*
X273046200Y-95389300D01*
X271736200Y-98742200D02*
X271736200Y-96699300D01*
%TO.N,Net-(D4-A)*%
X251529500Y-151132200D02*
X236166200Y-135768900D01*
X254569500Y-151132200D02*
X251529500Y-151132200D01*
X258379500Y-154942200D02*
X254569500Y-151132200D01*
X259506200Y-154942200D02*
X258379500Y-154942200D01*
X236166200Y-134242200D02*
X236166200Y-135005500D01*
X236166200Y-135005500D02*
X236166200Y-135768900D01*
X233189500Y-135005500D02*
X233006200Y-134822200D01*
X236166200Y-135005500D02*
X233189500Y-135005500D01*
%TO.N,Net-(D3-K)*%
X287246200Y-86152200D02*
X286381200Y-87017200D01*
X287246200Y-79242200D02*
X287246200Y-86152200D01*
X273886200Y-117082200D02*
X273886200Y-115955500D01*
X274078400Y-115955500D02*
X273886200Y-115955500D01*
X274078400Y-115955400D02*
X274078400Y-115955500D01*
X280111800Y-109922000D02*
X274078400Y-115955400D01*
X280111800Y-93286600D02*
X280111800Y-109922000D01*
X286381200Y-87017200D02*
X280111800Y-93286600D01*
%TO.N,Net-(U3A--)*%
X302206200Y-92157200D02*
X302206200Y-89617200D01*
%TO.N,Net-(U3B-+)*%
X297356200Y-131242200D02*
X297356200Y-130115500D01*
X302206200Y-99777200D02*
X301079500Y-99777200D01*
X301079500Y-96815500D02*
X301079500Y-99777200D01*
X296506200Y-92242200D02*
X301079500Y-96815500D01*
X297456200Y-103400500D02*
X301079500Y-99777200D01*
X297456200Y-114004000D02*
X297456200Y-103400500D01*
X297751600Y-114299400D02*
X297456200Y-114004000D01*
X297751600Y-129720100D02*
X297751600Y-114299400D01*
X297356200Y-130115500D02*
X297751600Y-129720100D01*
%TO.N,Net-(C6-Pad2)*%
X281506200Y-122162200D02*
X281506200Y-123288900D01*
X281224500Y-123288900D02*
X281506200Y-123288900D01*
X278137500Y-126375900D02*
X281224500Y-123288900D01*
X278137500Y-140576400D02*
X278137500Y-126375900D01*
X275006200Y-143707700D02*
X278137500Y-140576400D01*
X275006200Y-156242200D02*
X275006200Y-143707700D01*
%TO.N,Net-(C6-Pad1)*%
X271756200Y-154805500D02*
X271756200Y-153242200D01*
X272066200Y-155115500D02*
X271756200Y-154805500D01*
X272066200Y-156242200D02*
X272066200Y-155115500D01*
%TO.N,Net-(C5-Pad1)*%
X238282900Y-105115500D02*
X244006200Y-99392200D01*
X238006200Y-105115500D02*
X238282900Y-105115500D01*
X238006200Y-106242200D02*
X238006200Y-105115500D01*
%TO.N,Net-(U4A--)*%
X251886200Y-142242200D02*
X251886200Y-139702200D01*
X252478500Y-124829900D02*
X253756200Y-123552200D01*
X252478500Y-137983200D02*
X252478500Y-124829900D01*
X251886200Y-138575500D02*
X252478500Y-137983200D01*
X251886200Y-139702200D02*
X251886200Y-138575500D01*
%TO.N,Net-(U4B-+)*%
X260006200Y-135156300D02*
X260006200Y-123752200D01*
X260666800Y-135816900D02*
X260006200Y-135156300D01*
X260666800Y-147856600D02*
X260666800Y-135816900D01*
X259787900Y-148735500D02*
X260666800Y-147856600D01*
X259506200Y-148735500D02*
X259787900Y-148735500D01*
X259506200Y-149862200D02*
X259506200Y-148735500D01*
%TO.N,Net-(U2A--)*%
X249006200Y-92042200D02*
X249006200Y-89502200D01*
%TO.N,Net-(D2-K)*%
X251886200Y-144782200D02*
X251886200Y-143655500D01*
X253558700Y-112912200D02*
X252707000Y-112912200D01*
X252707000Y-119748500D02*
X252707000Y-112912200D01*
X247721400Y-124734100D02*
X252707000Y-119748500D01*
X247721400Y-139772400D02*
X247721400Y-124734100D01*
X251604500Y-143655500D02*
X247721400Y-139772400D01*
X251886200Y-143655500D02*
X251604500Y-143655500D01*
%TO.N,Net-(D1-K)*%
X273006200Y-98742200D02*
X273006200Y-99818900D01*
X272429500Y-99818900D02*
X273006200Y-99818900D01*
X269006200Y-103242200D02*
X272429500Y-99818900D01*
X266506200Y-100742200D02*
X269006200Y-103242200D01*
X269006200Y-103242200D02*
X269006200Y-109242200D01*
%TO.N,SW2p2*%
X316225000Y-70800000D02*
X315048300Y-70800000D01*
X255275000Y-165200000D02*
X256451700Y-165200000D01*
X256451700Y-165567800D02*
X256451700Y-165200000D01*
X257260600Y-166376700D02*
X256451700Y-165567800D01*
X258310600Y-166376700D02*
X257260600Y-166376700D01*
X259009300Y-165678000D02*
X258310600Y-166376700D01*
X259009300Y-164580600D02*
X259009300Y-165678000D01*
X267229700Y-156360200D02*
X259009300Y-164580600D01*
X267229700Y-148126200D02*
X267229700Y-156360200D01*
X276195200Y-139160700D02*
X267229700Y-148126200D01*
X276195200Y-114477400D02*
X276195200Y-139160700D01*
X284436700Y-106235900D02*
X276195200Y-114477400D01*
X284436700Y-93273000D02*
X284436700Y-106235900D01*
X294635000Y-83074700D02*
X284436700Y-93273000D01*
X294635000Y-70397000D02*
X294635000Y-83074700D01*
X295932800Y-69099200D02*
X294635000Y-70397000D01*
X313715200Y-69099200D02*
X295932800Y-69099200D01*
X315048300Y-70432300D02*
X313715200Y-69099200D01*
X315048300Y-70800000D02*
X315048300Y-70432300D01*
%TO.N,VCO2PwmPot2*%
X260355000Y-165200000D02*
X260355000Y-164023300D01*
X300985000Y-70800000D02*
X299808300Y-70800000D01*
X268482400Y-155895900D02*
X260355000Y-164023300D01*
X268482400Y-147830400D02*
X268482400Y-155895900D01*
X277024500Y-139288300D02*
X268482400Y-147830400D01*
X277024500Y-114363500D02*
X277024500Y-139288300D01*
X288820200Y-102567800D02*
X277024500Y-114363500D01*
X288820200Y-91533100D02*
X288820200Y-102567800D01*
X297175000Y-83178300D02*
X288820200Y-91533100D01*
X297175000Y-70392300D02*
X297175000Y-83178300D01*
X297944000Y-69623300D02*
X297175000Y-70392300D01*
X298999400Y-69623300D02*
X297944000Y-69623300D01*
X299808300Y-70432200D02*
X298999400Y-69623300D01*
X299808300Y-70800000D02*
X299808300Y-70432200D01*
%TO.N,SW1p2*%
X257815000Y-165200000D02*
X257815000Y-164023300D01*
X258327800Y-164023300D02*
X257815000Y-164023300D01*
X266778000Y-155573100D02*
X258327800Y-164023300D01*
X266778000Y-147618400D02*
X266778000Y-155573100D01*
X275020700Y-139375700D02*
X266778000Y-147618400D01*
X275020700Y-124214600D02*
X275020700Y-139375700D01*
X274238300Y-123432200D02*
X275020700Y-124214600D01*
X273509500Y-123432200D02*
X274238300Y-123432200D01*
X272711200Y-122633900D02*
X273509500Y-123432200D01*
X272711200Y-107417200D02*
X272711200Y-122633900D01*
X277476700Y-102651700D02*
X272711200Y-107417200D01*
X277476700Y-85163900D02*
X277476700Y-102651700D01*
X270505000Y-78192200D02*
X277476700Y-85163900D01*
X270505000Y-70800000D02*
X270505000Y-78192200D01*
%TO.N,VCO2FMPot2*%
X292156200Y-73185500D02*
X293365000Y-71976700D01*
X292156200Y-77522200D02*
X292156200Y-73185500D01*
X293365000Y-70800000D02*
X293365000Y-71976700D01*
%TO.N,VCO1FMPot2*%
X255481900Y-71976700D02*
X255265000Y-71976700D01*
X274822300Y-91317100D02*
X255481900Y-71976700D01*
X274822300Y-97128300D02*
X274822300Y-91317100D01*
X276286200Y-98592200D02*
X274822300Y-97128300D01*
X255265000Y-70800000D02*
X255265000Y-71976700D01*
%TO.N,SW2p1*%
X318190500Y-76482200D02*
X313685000Y-71976700D01*
X318190500Y-93846500D02*
X318190500Y-76482200D01*
X320506200Y-96162200D02*
X318190500Y-93846500D01*
X313685000Y-70800000D02*
X313685000Y-71976700D01*
%TO.N,VCO2PwmPot1*%
X296086200Y-95811700D02*
X296086200Y-115742200D01*
X294927400Y-94652900D02*
X296086200Y-95811700D01*
X294927400Y-88307800D02*
X294927400Y-94652900D01*
X298445000Y-84790200D02*
X294927400Y-88307800D01*
X298445000Y-70800000D02*
X298445000Y-84790200D01*
%TO.N,VCO2IDKPot2*%
X306640200Y-73941500D02*
X308605000Y-71976700D01*
X306640200Y-92978000D02*
X306640200Y-73941500D01*
X304532700Y-95085500D02*
X306640200Y-92978000D01*
X304532700Y-99110700D02*
X304532700Y-95085500D01*
X302596200Y-101047200D02*
X304532700Y-99110700D01*
X301861100Y-101047200D02*
X302596200Y-101047200D01*
X298586200Y-104322100D02*
X301861100Y-101047200D01*
X298586200Y-110742200D02*
X298586200Y-104322100D01*
X308605000Y-70800000D02*
X308605000Y-71976700D01*
%TO.N,cvIn2*%
X273055000Y-165200000D02*
X274231700Y-165200000D01*
X274231700Y-164000700D02*
X274231700Y-165200000D01*
X290154000Y-148078400D02*
X274231700Y-164000700D01*
%TO.N,fmIn2*%
X303379500Y-84523900D02*
X303379500Y-84242200D01*
X296911200Y-90992200D02*
X303379500Y-84523900D01*
X296150400Y-90992200D02*
X296911200Y-90992200D01*
X295379100Y-91763500D02*
X296150400Y-90992200D01*
X295379100Y-94428000D02*
X295379100Y-91763500D01*
X296906000Y-95954900D02*
X295379100Y-94428000D01*
X296906000Y-114317800D02*
X296906000Y-95954900D01*
X297299900Y-114711700D02*
X296906000Y-114317800D01*
X297299900Y-125558600D02*
X297299900Y-114711700D01*
X294806400Y-128052100D02*
X297299900Y-125558600D01*
X294806400Y-145948700D02*
X294806400Y-128052100D01*
X276955500Y-163799600D02*
X294806400Y-145948700D01*
X276955500Y-165509700D02*
X276955500Y-163799600D01*
X276074400Y-166390800D02*
X276955500Y-165509700D01*
X267434800Y-166390800D02*
X276074400Y-166390800D01*
X266611700Y-165567700D02*
X267434800Y-166390800D01*
X266611700Y-165200000D02*
X266611700Y-165567700D01*
X265435000Y-165200000D02*
X266611700Y-165200000D01*
X304506200Y-84242200D02*
X303379500Y-84242200D01*
%TO.N,mixOut*%
X231844800Y-134283600D02*
X238886200Y-127242200D01*
X231844800Y-135328200D02*
X231844800Y-134283600D01*
X232838000Y-136321400D02*
X231844800Y-135328200D01*
X233115500Y-136321400D02*
X232838000Y-136321400D01*
X235716000Y-138921900D02*
X233115500Y-136321400D01*
X235716000Y-148107500D02*
X235716000Y-138921900D01*
X251631800Y-164023300D02*
X235716000Y-148107500D01*
X252735000Y-164023300D02*
X251631800Y-164023300D01*
X252735000Y-165200000D02*
X252735000Y-164023300D01*
%TO.N,VCO3WaveMixPot3*%
X264446200Y-153252200D02*
X264756200Y-152942200D01*
X264446200Y-156242200D02*
X264446200Y-153252200D01*
%TO.N,SW1p1*%
X230386200Y-115472200D02*
X231156200Y-116242200D01*
X230386200Y-106242200D02*
X230386200Y-115472200D01*
%TO.N,VCO3PwmPot1*%
X237914900Y-124662200D02*
X233006200Y-124662200D01*
X243677500Y-130424800D02*
X237914900Y-124662200D01*
X243677500Y-140728600D02*
X243677500Y-130424800D01*
X251541100Y-148592200D02*
X243677500Y-140728600D01*
X254569500Y-148592200D02*
X251541100Y-148592200D01*
X258379500Y-152402200D02*
X254569500Y-148592200D01*
X259506200Y-152402200D02*
X258379500Y-152402200D01*
%TO.N,VCO1PwmPot1*%
X256344400Y-101075500D02*
X256626200Y-101075500D01*
X255499500Y-100230600D02*
X256344400Y-101075500D01*
X255499500Y-96598700D02*
X255499500Y-100230600D01*
X256246000Y-95852200D02*
X255499500Y-96598700D01*
X257203800Y-95852200D02*
X256246000Y-95852200D01*
X260846200Y-92209800D02*
X257203800Y-95852200D01*
X260846200Y-85742200D02*
X260846200Y-92209800D01*
X256626200Y-102202200D02*
X256626200Y-101075500D01*
%TO.N,cvIn3*%
X271851800Y-164023300D02*
X284006200Y-151868900D01*
X270515000Y-164023300D02*
X271851800Y-164023300D01*
X270515000Y-165200000D02*
X270515000Y-164023300D01*
X284006200Y-150742200D02*
X284006200Y-151868900D01*
%TO.N,VCO1FinePot2*%
X241181200Y-78440500D02*
X247645000Y-71976700D01*
X241181200Y-80630500D02*
X241181200Y-78440500D01*
X238506200Y-83305500D02*
X241181200Y-80630500D01*
X238506200Y-84432200D02*
X238506200Y-83305500D01*
X247645000Y-70800000D02*
X247645000Y-71976700D01*
%TO.N,fmIn3*%
X262531400Y-158787800D02*
X260353900Y-160965300D01*
X262531400Y-139117000D02*
X262531400Y-158787800D01*
X267006200Y-134642200D02*
X262531400Y-139117000D01*
X267006200Y-129242200D02*
X267006200Y-134642200D01*
%TO.N,cvIn1*%
X275595000Y-165200000D02*
X275595000Y-164023300D01*
X294356200Y-103742200D02*
X294356200Y-104868900D01*
X291056600Y-148561700D02*
X275595000Y-164023300D01*
X291056600Y-108168500D02*
X291056600Y-148561700D01*
X294356200Y-104868900D02*
X291056600Y-108168500D01*
%TO.N,fmIn1*%
X267975000Y-165200000D02*
X267975000Y-164023300D01*
X294856200Y-98242200D02*
X294856200Y-99368900D01*
X288600200Y-105624900D02*
X294856200Y-99368900D01*
X288600200Y-135957600D02*
X288600200Y-105624900D01*
X276379500Y-148178300D02*
X288600200Y-135957600D01*
X276379500Y-156501300D02*
X276379500Y-148178300D01*
X268857500Y-164023300D02*
X276379500Y-156501300D01*
X267975000Y-164023300D02*
X268857500Y-164023300D01*
%TO.N,VCO2FMPot1*%
X314506200Y-92298900D02*
X314506200Y-96742200D01*
X314746200Y-92058900D02*
X314506200Y-92298900D01*
X314746200Y-90982200D02*
X314746200Y-92058900D01*
%TO.N,VCO3FMPot1*%
X254856200Y-118192200D02*
X254856200Y-119268900D01*
X250056200Y-130052200D02*
X248866200Y-131242200D01*
X250056200Y-124068900D02*
X250056200Y-130052200D01*
X254856200Y-119268900D02*
X250056200Y-124068900D01*
X248866200Y-131242200D02*
X248866200Y-134392200D01*
%TO.N,VCO1FMPot1*%
X231664800Y-97383600D02*
X232706200Y-96342200D01*
X231664800Y-100620800D02*
X231664800Y-97383600D01*
X232706200Y-101662200D02*
X231664800Y-100620800D01*
X252725000Y-70800000D02*
X252725000Y-71976700D01*
X271776200Y-93242200D02*
X271776200Y-92165500D01*
X252725000Y-75176000D02*
X252725000Y-71976700D01*
X254786700Y-75176000D02*
X271776200Y-92165500D01*
X252725000Y-75176000D02*
X254786700Y-75176000D01*
X251125200Y-75176000D02*
X252725000Y-75176000D01*
X235656000Y-90645200D02*
X251125200Y-75176000D01*
X235656000Y-93392400D02*
X235656000Y-90645200D01*
X232706200Y-96342200D02*
X235656000Y-93392400D01*
D24*
%TO.N,VCO1CoarsePot3*%
X256126200Y-118192200D02*
X257102900Y-118192200D01*
X259506200Y-147322200D02*
X259506200Y-146070500D01*
X257523500Y-144635400D02*
X257523500Y-118192200D01*
X258958600Y-146070500D02*
X257523500Y-144635400D01*
X259506200Y-146070500D02*
X258958600Y-146070500D01*
X257523500Y-118192200D02*
X257102900Y-118192200D01*
X256626200Y-97122200D02*
X256626200Y-98373900D01*
X263793100Y-93242200D02*
X270506200Y-93242200D01*
X257916000Y-99119300D02*
X263793100Y-93242200D01*
X257916000Y-117799700D02*
X257916000Y-99119300D01*
X257523500Y-118192200D02*
X257916000Y-117799700D01*
X257170600Y-98373900D02*
X256626200Y-98373900D01*
X257916000Y-99119300D02*
X257170600Y-98373900D01*
X311145000Y-70800000D02*
X311145000Y-72101700D01*
X309826200Y-97237200D02*
X309826200Y-95985500D01*
X316016200Y-90982200D02*
X316016200Y-89780500D01*
X311116000Y-89780500D02*
X316016200Y-89780500D01*
X311116000Y-88765600D02*
X311116000Y-89780500D01*
X310751000Y-88400600D02*
X311116000Y-88765600D01*
X310751000Y-72495700D02*
X310751000Y-88400600D01*
X311145000Y-72101700D02*
X310751000Y-72495700D01*
X310370600Y-95985500D02*
X309826200Y-95985500D01*
X311116000Y-95240100D02*
X310370600Y-95985500D01*
X311116000Y-89780500D02*
X311116000Y-95240100D01*
%TO.N,VCO2IDKPot1*%
X249550600Y-98373900D02*
X249006200Y-98373900D01*
X251272700Y-100096000D02*
X249550600Y-98373900D01*
X251272700Y-118095700D02*
X251272700Y-100096000D01*
X250006200Y-119362200D02*
X251272700Y-118095700D01*
X249006200Y-97122200D02*
X249006200Y-98373900D01*
X310006200Y-150932200D02*
X306056200Y-154882200D01*
X310006200Y-142242200D02*
X310006200Y-150932200D01*
X302206200Y-97237200D02*
X302206200Y-95985500D01*
X302750600Y-95985500D02*
X302206200Y-95985500D01*
X306063500Y-92672600D02*
X302750600Y-95985500D01*
X306063500Y-72103200D02*
X306063500Y-92672600D01*
X306065000Y-72101700D02*
X306063500Y-72103200D01*
X306065000Y-70800000D02*
X306065000Y-72101700D01*
X245233800Y-124134600D02*
X250006200Y-119362200D01*
X245233800Y-131969800D02*
X245233800Y-124134600D01*
X247144700Y-133880700D02*
X245233800Y-131969800D01*
X247144700Y-141876600D02*
X247144700Y-133880700D01*
X251338600Y-146070500D02*
X247144700Y-141876600D01*
X251886200Y-146070500D02*
X251338600Y-146070500D01*
X251886200Y-147322200D02*
X251886200Y-146070500D01*
%TO.N,VCO1CoarsePot1*%
X323006200Y-152662200D02*
X323006200Y-150122200D01*
X271756200Y-140542200D02*
X271756200Y-139290500D01*
X244006200Y-114840500D02*
X244006200Y-112092200D01*
X243856200Y-114990500D02*
X244006200Y-114840500D01*
X243856200Y-116242200D02*
X243856200Y-114990500D01*
X245082800Y-147993900D02*
X245506200Y-147993900D01*
X244586200Y-148490500D02*
X245082800Y-147993900D01*
X244586200Y-149742200D02*
X244586200Y-148490500D01*
X245506200Y-146742200D02*
X245506200Y-147993900D01*
X271756200Y-130623900D02*
X271756200Y-139290500D01*
X273886200Y-128493900D02*
X271756200Y-130623900D01*
X273886200Y-127242200D02*
X273886200Y-128493900D01*
X256626200Y-94582200D02*
X256626200Y-92042200D01*
X258086200Y-89878100D02*
X258086200Y-84742200D01*
X257173800Y-90790500D02*
X258086200Y-89878100D01*
X256626200Y-90790500D02*
X257173800Y-90790500D01*
X256626200Y-92042200D02*
X256626200Y-90790500D01*
X258086200Y-80822200D02*
X258086200Y-84742200D01*
X256006200Y-78742200D02*
X258086200Y-80822200D01*
X243744500Y-72160500D02*
X245105000Y-70800000D01*
X238845500Y-72160500D02*
X243744500Y-72160500D01*
X237485000Y-70800000D02*
X238845500Y-72160500D01*
X316046200Y-80442200D02*
X316046200Y-85482200D01*
X317006200Y-79482200D02*
X316046200Y-80442200D01*
X320466200Y-155202200D02*
X321767900Y-155202200D01*
X323006200Y-155202200D02*
X323006200Y-152662200D01*
X323006200Y-155202200D02*
X321767900Y-155202200D01*
X262885000Y-70800000D02*
X262885000Y-72101700D01*
X273681200Y-84297200D02*
X270166200Y-80782200D01*
X273681200Y-87017200D02*
X273681200Y-84297200D01*
X276905300Y-69479700D02*
X275585000Y-70800000D01*
X281884700Y-69479700D02*
X276905300Y-69479700D01*
X283205000Y-70800000D02*
X281884700Y-69479700D01*
X307380200Y-163894800D02*
X306075000Y-165200000D01*
X313695000Y-163894800D02*
X307380200Y-163894800D01*
X313695000Y-161973400D02*
X313695000Y-163894800D01*
X320466200Y-155202200D02*
X313695000Y-161973400D01*
X313695000Y-163894800D02*
X313695000Y-165200000D01*
X298636200Y-149382200D02*
X298636200Y-153382200D01*
X273341800Y-125990500D02*
X273886200Y-125990500D01*
X260006200Y-112654900D02*
X273341800Y-125990500D01*
X260006200Y-111052200D02*
X260006200Y-112654900D01*
X273886200Y-127242200D02*
X273886200Y-125990500D01*
X262885000Y-73501000D02*
X270166200Y-80782200D01*
X262885000Y-72101700D02*
X262885000Y-73501000D01*
X306075000Y-165200000D02*
X306075000Y-163898300D01*
X288295000Y-165200000D02*
X288295000Y-163898300D01*
X295821300Y-156372000D02*
X288295000Y-163898300D01*
X297328400Y-156372000D02*
X295821300Y-156372000D01*
X304854700Y-163898300D02*
X297328400Y-156372000D01*
X306075000Y-163898300D02*
X304854700Y-163898300D01*
X298323100Y-153382200D02*
X298636200Y-153382200D01*
X297328400Y-154376900D02*
X298323100Y-153382200D01*
X297328400Y-156372000D02*
X297328400Y-154376900D01*
%TD*%
M02*
