%TF.GenerationSoftware,KiCad,Pcbnew,8.0.7*%
%TF.CreationDate,2025-01-16T14:45:50+00:00*%
%TF.ProjectId,MAIN,4d41494e-2e6b-4696-9361-645f70636258,rev?*%
%TF.SameCoordinates,Original*%
%TF.FileFunction,Copper,L2,Inr*%
%TF.FilePolarity,Positive*%
%FSLAX46Y46*%
G04 Gerber Fmt 4.6, Leading zero omitted, Abs format (unit mm)*
G04 Created by KiCad (PCBNEW 8.0.7) date 2025-01-16 14:45:50*
%MOMM*%
%LPD*%
G01*
G04 APERTURE LIST*
%TA.AperFunction,ComponentPad*%
%ADD10C,1.600000*%
%TD*%
%TA.AperFunction,ComponentPad*%
%ADD11R,1.050000X1.500000*%
%TD*%
%TA.AperFunction,ComponentPad*%
%ADD12O,1.050000X1.500000*%
%TD*%
%TA.AperFunction,ComponentPad*%
%ADD13O,1.600000X1.600000*%
%TD*%
%TA.AperFunction,ComponentPad*%
%ADD14R,2.400000X2.400000*%
%TD*%
%TA.AperFunction,ComponentPad*%
%ADD15O,2.400000X2.400000*%
%TD*%
%TA.AperFunction,ComponentPad*%
%ADD16R,1.700000X1.700000*%
%TD*%
%TA.AperFunction,ComponentPad*%
%ADD17O,1.700000X1.700000*%
%TD*%
%TA.AperFunction,ComponentPad*%
%ADD18C,1.400000*%
%TD*%
%TA.AperFunction,ComponentPad*%
%ADD19O,1.400000X1.400000*%
%TD*%
%TA.AperFunction,ComponentPad*%
%ADD20C,1.800000*%
%TD*%
%TA.AperFunction,ComponentPad*%
%ADD21R,1.600000X1.600000*%
%TD*%
%TA.AperFunction,ViaPad*%
%ADD22C,0.800000*%
%TD*%
%TA.AperFunction,Conductor*%
%ADD23C,0.250000*%
%TD*%
%TA.AperFunction,Conductor*%
%ADD24C,0.500000*%
%TD*%
G04 APERTURE END LIST*
D10*
%TO.N,Net-(U4B-+)*%
%TO.C,C4*%
X256256200Y-123552200D03*
%TO.N,Net-(U4A--)*%
X253756200Y-123552200D03*
%TD*%
%TO.N,Net-(D5-K)*%
%TO.C,C7*%
X312006200Y-79482200D03*
%TO.N,VCO1CoarsePot1*%
X317006200Y-79482200D03*
%TD*%
D11*
%TO.N,Net-(D5-K)*%
%TO.C,Q6*%
X313506200Y-85482200D03*
D12*
%TO.N,Net-(Q5-E)*%
X314776200Y-85482200D03*
%TO.N,VCO1CoarsePot1*%
X316046200Y-85482200D03*
%TD*%
D10*
%TO.N,VCO1CoarsePot1*%
%TO.C,R20*%
X260006200Y-111052200D03*
D13*
%TO.N,Net-(U4B-+)*%
X260006200Y-123752200D03*
%TD*%
D10*
%TO.N,Net-(D3-K)*%
%TO.C,R17*%
X286381200Y-87017200D03*
D13*
%TO.N,VCO1CoarsePot1*%
X273681200Y-87017200D03*
%TD*%
D10*
%TO.N,Net-(U3D--)*%
%TO.C,R42*%
X285926200Y-115742200D03*
D13*
%TO.N,VCO2PwmPot1*%
X296086200Y-115742200D03*
%TD*%
D14*
%TO.N,Net-(D2-K)*%
%TO.C,D2*%
X232506200Y-142982200D03*
D15*
%TO.N,Net-(D2-A)*%
X232506200Y-137902200D03*
%TD*%
D11*
%TO.N,VCO1CoarsePot3*%
%TO.C,Q1*%
X270506200Y-93242200D03*
D12*
%TO.N,VCO1FMPot1*%
X271776200Y-93242200D03*
%TO.N,Net-(Q1-E)*%
X273046200Y-93242200D03*
%TD*%
D10*
%TO.N,Net-(R27-Pad1)*%
%TO.C,R27*%
X231386200Y-160592200D03*
D13*
%TO.N,Net-(U4B--)*%
X231386200Y-147892200D03*
%TD*%
D16*
%TO.N,VCO1CoarsePot1*%
%TO.C,J1*%
X237485000Y-70800000D03*
D17*
%TO.N,VCO1CoarsePot2*%
X240025000Y-70800000D03*
%TO.N,VCO1CoarsePot3*%
X242565000Y-70800000D03*
%TO.N,VCO1CoarsePot1*%
X245105000Y-70800000D03*
%TO.N,VCO1FinePot2*%
X247645000Y-70800000D03*
%TO.N,VCO1CoarsePot3*%
X250185000Y-70800000D03*
%TO.N,VCO1FMPot1*%
X252725000Y-70800000D03*
%TO.N,VCO1FMPot2*%
X255265000Y-70800000D03*
%TO.N,VCO1FMPot3*%
X257805000Y-70800000D03*
%TO.N,VCO1PwmPot1*%
X260345000Y-70800000D03*
%TO.N,VCO1CoarsePot1*%
X262885000Y-70800000D03*
%TO.N,VCO1PwmPot3*%
X265425000Y-70800000D03*
%TO.N,SW1p1*%
X267965000Y-70800000D03*
%TO.N,SW1p2*%
X270505000Y-70800000D03*
%TO.N,SW1p3*%
X273045000Y-70800000D03*
%TO.N,VCO1CoarsePot1*%
X275585000Y-70800000D03*
%TO.N,VCO2CoarsePot2*%
X278125000Y-70800000D03*
%TO.N,VCO1CoarsePot3*%
X280665000Y-70800000D03*
%TO.N,VCO1CoarsePot1*%
X283205000Y-70800000D03*
%TO.N,VCO2FinePot2*%
X285745000Y-70800000D03*
%TO.N,VCO1CoarsePot3*%
X288285000Y-70800000D03*
%TO.N,VCO2FMPot1*%
X290825000Y-70800000D03*
%TO.N,VCO2FMPot2*%
X293365000Y-70800000D03*
%TO.N,VCO2FMPot3*%
X295905000Y-70800000D03*
%TO.N,VCO2PwmPot1*%
X298445000Y-70800000D03*
%TO.N,VCO2PwmPot2*%
X300985000Y-70800000D03*
%TO.N,VCO2PwmPot3*%
X303525000Y-70800000D03*
%TO.N,VCO2IDKPot1*%
X306065000Y-70800000D03*
%TO.N,VCO2IDKPot2*%
X308605000Y-70800000D03*
%TO.N,VCO1CoarsePot3*%
X311145000Y-70800000D03*
%TO.N,SW2p1*%
X313685000Y-70800000D03*
%TO.N,SW2p2*%
X316225000Y-70800000D03*
%TD*%
D10*
%TO.N,Net-(R4-Pad1)*%
%TO.C,R4*%
X281656200Y-103742200D03*
D13*
%TO.N,cvIn1*%
X294356200Y-103742200D03*
%TD*%
D10*
%TO.N,Net-(U2B--)*%
%TO.C,R18*%
X247926200Y-84742200D03*
D13*
%TO.N,VCO1CoarsePot1*%
X258086200Y-84742200D03*
%TD*%
D10*
%TO.N,Net-(C6-Pad1)*%
%TO.C,C6*%
X277506200Y-156242200D03*
%TO.N,Net-(C6-Pad2)*%
X275006200Y-156242200D03*
%TD*%
%TO.N,VCO3WaveMixPot3*%
%TO.C,R31*%
X264446200Y-156242200D03*
D13*
%TO.N,Net-(C6-Pad1)*%
X272066200Y-156242200D03*
%TD*%
D18*
%TO.N,VCO2FMPot1*%
%TO.C,TH11*%
X314506200Y-96742200D03*
D19*
%TO.N,Net-(R39-Pad1)*%
X314506200Y-99282200D03*
%TD*%
D20*
%TO.N,Net-(R10-Pad1)*%
%TO.C,R10*%
X279531200Y-134717200D03*
%TO.N,VCO1CoarsePot1*%
X276991200Y-144877200D03*
%TO.N,N/C*%
X279531200Y-152497200D03*
%TD*%
D10*
%TO.N,VCO1FMPot1*%
%TO.C,R2*%
X276346200Y-93742200D03*
D13*
%TO.N,Net-(R2-Pad2)*%
X286506200Y-93742200D03*
%TD*%
D18*
%TO.N,VCO2FMPot2*%
%TO.C,TH9*%
X292156200Y-77522200D03*
D19*
%TO.N,Net-(R34-Pad1)*%
X292156200Y-80062200D03*
%TD*%
D10*
%TO.N,Net-(U3C-+)*%
%TO.C,R48*%
X296166200Y-124242200D03*
D13*
%TO.N,VCO1CoarsePot1*%
X286006200Y-124242200D03*
%TD*%
D20*
%TO.N,Net-(R2-Pad2)*%
%TO.C,R3*%
X260006200Y-78242200D03*
%TO.N,VCO1CoarsePot1*%
X270166200Y-80782200D03*
%TO.N,N/C*%
X277786200Y-78242200D03*
%TD*%
D10*
%TO.N,Net-(R39-Pad1)*%
%TO.C,R39*%
X314616200Y-101762200D03*
D13*
%TO.N,VCO2CoarsePot2*%
X314616200Y-114462200D03*
%TD*%
D10*
%TO.N,Net-(D4-K)*%
%TO.C,R21*%
X245506200Y-134042200D03*
D13*
%TO.N,VCO1CoarsePot1*%
X245506200Y-146742200D03*
%TD*%
D10*
%TO.N,VCO3FMPot1*%
%TO.C,R9*%
X293086200Y-134892200D03*
D13*
%TO.N,Net-(R10-Pad1)*%
X282926200Y-134892200D03*
%TD*%
D10*
%TO.N,Net-(U3B--)*%
%TO.C,R45*%
X307426200Y-133822200D03*
D13*
%TO.N,VCO1CoarsePot1*%
X307426200Y-123662200D03*
%TD*%
D11*
%TO.N,Net-(D2-K)*%
%TO.C,Q4*%
X253558700Y-112912200D03*
D12*
%TO.N,Net-(Q3-E)*%
X254828700Y-112912200D03*
%TO.N,VCO1CoarsePot1*%
X256098700Y-112912200D03*
%TD*%
D10*
%TO.N,Net-(C5-Pad1)*%
%TO.C,C5*%
X233256200Y-110742200D03*
%TO.N,Net-(C5-Pad2)*%
X235756200Y-110742200D03*
%TD*%
%TO.N,Net-(D3-A)*%
%TO.C,R15*%
X271006200Y-85742200D03*
D13*
%TO.N,VCO1PwmPot1*%
X260846200Y-85742200D03*
%TD*%
D10*
%TO.N,Net-(D4-A)*%
%TO.C,R19*%
X233006200Y-134822200D03*
D13*
%TO.N,VCO3PwmPot1*%
X233006200Y-124662200D03*
%TD*%
D10*
%TO.N,SW1p3*%
%TO.C,R24*%
X238506200Y-102552200D03*
D13*
%TO.N,Net-(R22-Pad1)*%
X238506200Y-94932200D03*
%TD*%
D10*
%TO.N,mixOut*%
%TO.C,R33*%
X238886200Y-127242200D03*
D13*
%TO.N,Net-(U4D--)*%
X246506200Y-127242200D03*
%TD*%
D21*
%TO.N,Net-(U2A--)*%
%TO.C,U2*%
X249006200Y-89502200D03*
D13*
X249006200Y-92042200D03*
%TO.N,Net-(D1-K)*%
X249006200Y-94582200D03*
%TO.N,VCO2IDKPot1*%
X249006200Y-97122200D03*
%TO.N,Net-(U2B-+)*%
X249006200Y-99662200D03*
%TO.N,Net-(U2B--)*%
X249006200Y-102202200D03*
%TO.N,Net-(R22-Pad1)*%
X249006200Y-104742200D03*
%TO.N,Net-(D3-A)*%
X256626200Y-104742200D03*
%TO.N,VCO1PwmPot1*%
X256626200Y-102202200D03*
%TO.N,Net-(U2B-+)*%
X256626200Y-99662200D03*
%TO.N,VCO1CoarsePot3*%
X256626200Y-97122200D03*
%TO.N,VCO1CoarsePot1*%
X256626200Y-94582200D03*
X256626200Y-92042200D03*
%TO.N,unconnected-(U2-Pad14)*%
X256626200Y-89502200D03*
%TD*%
D16*
%TO.N,SW2p3*%
%TO.C,J3*%
X316235000Y-165200000D03*
D17*
%TO.N,VCO1CoarsePot1*%
X313695000Y-165200000D03*
%TO.N,VCO3CoarsePot2*%
X311155000Y-165200000D03*
%TO.N,VCO1CoarsePot3*%
X308615000Y-165200000D03*
%TO.N,VCO1CoarsePot1*%
X306075000Y-165200000D03*
%TO.N,VCO3FinePot2*%
X303535000Y-165200000D03*
%TO.N,VCO1CoarsePot3*%
X300995000Y-165200000D03*
%TO.N,VCO3FMPot1*%
X298455000Y-165200000D03*
%TO.N,VCO3FMPot2*%
X295915000Y-165200000D03*
%TO.N,VCO3FMPot3*%
X293375000Y-165200000D03*
%TO.N,VCO3PwmPot1*%
X290835000Y-165200000D03*
%TO.N,VCO1CoarsePot1*%
X288295000Y-165200000D03*
%TO.N,VCO3PwmPot3*%
X285755000Y-165200000D03*
%TO.N,VCO3WaveMixPot1*%
X283215000Y-165200000D03*
%TO.N,VCO3WaveMixPot2*%
X280675000Y-165200000D03*
%TO.N,VCO3WaveMixPot3*%
X278135000Y-165200000D03*
%TO.N,cvIn1*%
X275595000Y-165200000D03*
%TO.N,cvIn2*%
X273055000Y-165200000D03*
%TO.N,cvIn3*%
X270515000Y-165200000D03*
%TO.N,fmIn1*%
X267975000Y-165200000D03*
%TO.N,fmIn2*%
X265435000Y-165200000D03*
%TO.N,fmIn3*%
X262895000Y-165200000D03*
%TO.N,VCO2PwmPot2*%
X260355000Y-165200000D03*
%TO.N,SW1p2*%
X257815000Y-165200000D03*
%TO.N,SW2p2*%
X255275000Y-165200000D03*
%TO.N,mixOut*%
X252735000Y-165200000D03*
%TO.N,unconnected-(J3-Pin_27-Pad27)*%
X250195000Y-165200000D03*
%TO.N,unconnected-(J3-Pin_28-Pad28)*%
X247655000Y-165200000D03*
%TO.N,unconnected-(J3-Pin_29-Pad29)*%
X245115000Y-165200000D03*
%TO.N,unconnected-(J3-Pin_30-Pad30)*%
X242575000Y-165200000D03*
%TO.N,unconnected-(J3-Pin_31-Pad31)*%
X240035000Y-165200000D03*
%TO.N,unconnected-(J3-Pin_32-Pad32)*%
X237495000Y-165200000D03*
%TD*%
D20*
%TO.N,Net-(R35-Pad2)*%
%TO.C,R36*%
X314701200Y-117137200D03*
%TO.N,VCO1CoarsePot1*%
X312161200Y-127297200D03*
%TO.N,N/C*%
X314701200Y-134917200D03*
%TD*%
D21*
%TO.N,Net-(D1-K)*%
%TO.C,U1*%
X273886200Y-112002200D03*
D13*
%TO.N,Net-(D1-A)*%
X273886200Y-114542200D03*
%TO.N,Net-(D3-K)*%
X273886200Y-117082200D03*
%TO.N,Net-(C5-Pad2)*%
X273886200Y-119622200D03*
%TO.N,Net-(D5-K)*%
X273886200Y-122162200D03*
%TO.N,Net-(D5-A)*%
X273886200Y-124702200D03*
%TO.N,VCO1CoarsePot1*%
X273886200Y-127242200D03*
%TO.N,Net-(D2-A)*%
X281506200Y-127242200D03*
%TO.N,Net-(D2-K)*%
X281506200Y-124702200D03*
%TO.N,Net-(C6-Pad2)*%
X281506200Y-122162200D03*
%TO.N,Net-(D4-K)*%
X281506200Y-119622200D03*
%TO.N,N/C*%
X281506200Y-117082200D03*
X281506200Y-114542200D03*
%TO.N,VCO2IDKPot1*%
X281506200Y-112002200D03*
%TD*%
D10*
%TO.N,VCO1CoarsePot1*%
%TO.C,R43*%
X284656200Y-131242200D03*
D13*
%TO.N,Net-(U3B-+)*%
X297356200Y-131242200D03*
%TD*%
D18*
%TO.N,VCO3FMPot1*%
%TO.C,TH8*%
X248866200Y-134392200D03*
D19*
%TO.N,Net-(R14-Pad1)*%
X251406200Y-134392200D03*
%TD*%
D11*
%TO.N,VCO1CoarsePot3*%
%TO.C,Q3*%
X256126200Y-118192200D03*
D12*
%TO.N,VCO3FMPot1*%
X254856200Y-118192200D03*
%TO.N,Net-(Q3-E)*%
X253586200Y-118192200D03*
%TD*%
D10*
%TO.N,VCO2IDKPot1*%
%TO.C,R12*%
X250006200Y-119362200D03*
D13*
%TO.N,Net-(Q3-E)*%
X250006200Y-111742200D03*
%TD*%
D10*
%TO.N,VCO2IDKPot1*%
%TO.C,R38*%
X310006200Y-142242200D03*
D13*
%TO.N,Net-(Q5-E)*%
X317626200Y-142242200D03*
%TD*%
D10*
%TO.N,SW2p1*%
%TO.C,R50*%
X320506200Y-96162200D03*
D13*
%TO.N,Net-(U3C--)*%
X320506200Y-106322200D03*
%TD*%
D10*
%TO.N,VCO2FMPot1*%
%TO.C,R35*%
X307426200Y-110162200D03*
D13*
%TO.N,Net-(R35-Pad2)*%
X307426200Y-120322200D03*
%TD*%
D11*
%TO.N,Net-(D1-K)*%
%TO.C,Q2*%
X273006200Y-98742200D03*
D12*
%TO.N,Net-(Q1-E)*%
X271736200Y-98742200D03*
%TO.N,VCO1CoarsePot1*%
X270466200Y-98742200D03*
%TD*%
D10*
%TO.N,Net-(R13-Pad1)*%
%TO.C,R13*%
X289506200Y-144892200D03*
D13*
%TO.N,VCO3CoarsePot2*%
X289506200Y-157592200D03*
%TD*%
D10*
%TO.N,Net-(U3D--)*%
%TO.C,R44*%
X285926200Y-120742200D03*
D13*
%TO.N,VCO1CoarsePot1*%
X296086200Y-120742200D03*
%TD*%
D14*
%TO.N,Net-(D1-K)*%
%TO.C,D1*%
X269006200Y-109242200D03*
D15*
%TO.N,Net-(D1-A)*%
X269006200Y-114322200D03*
%TD*%
D21*
%TO.N,VCO2IDKPot1*%
%TO.C,C9*%
X298636200Y-155382200D03*
D10*
%TO.N,VCO1CoarsePot1*%
X298636200Y-153382200D03*
%TD*%
D18*
%TO.N,VCO1FMPot2*%
%TO.C,TH1*%
X276286200Y-98592200D03*
D19*
%TO.N,Net-(R1-Pad1)*%
X278826200Y-98592200D03*
%TD*%
D14*
%TO.N,Net-(D4-K)*%
%TO.C,D4*%
X241246200Y-134242200D03*
D15*
%TO.N,Net-(D4-A)*%
X236166200Y-134242200D03*
%TD*%
D18*
%TO.N,VCO3FMPot2*%
%TO.C,TH3*%
X248786200Y-127242200D03*
D19*
%TO.N,Net-(R5-Pad1)*%
X251326200Y-127242200D03*
%TD*%
D18*
%TO.N,VCO1FMPot1*%
%TO.C,TH5*%
X232706200Y-101662200D03*
D19*
%TO.N,Net-(R8-Pad1)*%
X232706200Y-99122200D03*
%TD*%
D10*
%TO.N,Net-(R14-Pad1)*%
%TO.C,R14*%
X253786200Y-134242200D03*
D13*
%TO.N,VCO3FinePot2*%
X261406200Y-134242200D03*
%TD*%
D11*
%TO.N,VCO1CoarsePot3*%
%TO.C,Q5*%
X316016200Y-90982200D03*
D12*
%TO.N,VCO2FMPot1*%
X314746200Y-90982200D03*
%TO.N,Net-(Q5-E)*%
X313476200Y-90982200D03*
%TD*%
D18*
%TO.N,VCO2FMPot1*%
%TO.C,TH10*%
X320546200Y-90432200D03*
D19*
%TO.N,Net-(R37-Pad1)*%
X320546200Y-92972200D03*
%TD*%
D10*
%TO.N,Net-(D2-K)*%
%TO.C,C2*%
X237506200Y-139742200D03*
%TO.N,VCO1CoarsePot1*%
X237506200Y-144742200D03*
%TD*%
D16*
%TO.N,Net-(J2-Pin_1)*%
%TO.C,J2*%
X320466200Y-147582200D03*
D17*
X323006200Y-147582200D03*
%TO.N,VCO1CoarsePot1*%
X320466200Y-150122200D03*
X323006200Y-150122200D03*
X320466200Y-152662200D03*
X323006200Y-152662200D03*
X320466200Y-155202200D03*
X323006200Y-155202200D03*
%TO.N,Net-(J2-Pin_10)*%
X320466200Y-157742200D03*
X323006200Y-157742200D03*
%TD*%
D21*
%TO.N,Net-(U3A--)*%
%TO.C,U3*%
X302206200Y-89617200D03*
D13*
X302206200Y-92157200D03*
%TO.N,Net-(D5-K)*%
X302206200Y-94697200D03*
%TO.N,VCO2IDKPot1*%
X302206200Y-97237200D03*
%TO.N,Net-(U3B-+)*%
X302206200Y-99777200D03*
%TO.N,Net-(U3B--)*%
X302206200Y-102317200D03*
%TO.N,Net-(R47-Pad1)*%
X302206200Y-104857200D03*
%TO.N,Net-(U3C--)*%
X309826200Y-104857200D03*
X309826200Y-102317200D03*
%TO.N,Net-(U3C-+)*%
X309826200Y-99777200D03*
%TO.N,VCO1CoarsePot3*%
X309826200Y-97237200D03*
%TO.N,Net-(U3B-+)*%
X309826200Y-94697200D03*
%TO.N,Net-(U3D--)*%
X309826200Y-92157200D03*
%TO.N,Net-(R46-Pad2)*%
X309826200Y-89617200D03*
%TD*%
D21*
%TO.N,Net-(U4A--)*%
%TO.C,U4*%
X251886200Y-139702200D03*
D13*
X251886200Y-142242200D03*
%TO.N,Net-(D2-K)*%
X251886200Y-144782200D03*
%TO.N,VCO2IDKPot1*%
X251886200Y-147322200D03*
%TO.N,Net-(U4B-+)*%
X251886200Y-149862200D03*
%TO.N,Net-(U4B--)*%
X251886200Y-152402200D03*
%TO.N,Net-(R27-Pad1)*%
X251886200Y-154942200D03*
%TO.N,Net-(D4-A)*%
X259506200Y-154942200D03*
%TO.N,VCO3PwmPot1*%
X259506200Y-152402200D03*
%TO.N,Net-(U4B-+)*%
X259506200Y-149862200D03*
%TO.N,VCO1CoarsePot3*%
X259506200Y-147322200D03*
%TO.N,VCO3WaveMixPot2*%
X259506200Y-144782200D03*
%TO.N,Net-(U4D--)*%
X259506200Y-142242200D03*
X259506200Y-139702200D03*
%TD*%
D18*
%TO.N,VCO1FMPot1*%
%TO.C,TH2*%
X276286200Y-102242200D03*
D19*
%TO.N,Net-(R4-Pad1)*%
X278826200Y-102242200D03*
%TD*%
D10*
%TO.N,Net-(R8-Pad1)*%
%TO.C,R8*%
X238506200Y-92052200D03*
D13*
%TO.N,VCO1FinePot2*%
X238506200Y-84432200D03*
%TD*%
D10*
%TO.N,Net-(R40-Pad1)*%
%TO.C,R40*%
X321094700Y-82433100D03*
D13*
%TO.N,VCO2FinePot2*%
X321094700Y-74813100D03*
%TD*%
D10*
%TO.N,Net-(R22-Pad1)*%
%TO.C,R22*%
X244006200Y-96592200D03*
D13*
%TO.N,Net-(U2B--)*%
X244006200Y-83892200D03*
%TD*%
D14*
%TO.N,Net-(D3-K)*%
%TO.C,D3*%
X287246200Y-79242200D03*
D15*
%TO.N,Net-(D3-A)*%
X282166200Y-79242200D03*
%TD*%
D10*
%TO.N,Net-(R5-Pad1)*%
%TO.C,R5*%
X254306200Y-129242200D03*
D13*
%TO.N,fmIn3*%
X267006200Y-129242200D03*
%TD*%
D10*
%TO.N,Net-(D1-K)*%
%TO.C,C1*%
X266506200Y-100742200D03*
%TO.N,VCO1CoarsePot1*%
X266506200Y-95742200D03*
%TD*%
%TO.N,Net-(U3B-+)*%
%TO.C,C8*%
X296506200Y-92242200D03*
%TO.N,Net-(U3A--)*%
X296506200Y-89742200D03*
%TD*%
%TO.N,Net-(R37-Pad1)*%
%TO.C,R37*%
X320506200Y-109742200D03*
D13*
%TO.N,cvIn2*%
X320506200Y-122442200D03*
%TD*%
D10*
%TO.N,VCO1CoarsePot1*%
%TO.C,R16*%
X256006200Y-78742200D03*
D13*
%TO.N,Net-(U2B-+)*%
X243306200Y-78742200D03*
%TD*%
D10*
%TO.N,Net-(U3D--)*%
%TO.C,R41*%
X285886200Y-110742200D03*
D13*
%TO.N,VCO2IDKPot2*%
X298586200Y-110742200D03*
%TD*%
D10*
%TO.N,Net-(R1-Pad1)*%
%TO.C,R1*%
X282156200Y-98242200D03*
D13*
%TO.N,fmIn1*%
X294856200Y-98242200D03*
%TD*%
D10*
%TO.N,VCO3WaveMixPot3*%
%TO.C,R32*%
X264756200Y-152942200D03*
D13*
%TO.N,VCO1CoarsePot1*%
X264756200Y-140242200D03*
%TD*%
D10*
%TO.N,VCO2IDKPot1*%
%TO.C,R6*%
X259696200Y-91742200D03*
D13*
%TO.N,Net-(Q1-E)*%
X267316200Y-91742200D03*
%TD*%
D14*
%TO.N,Net-(D5-K)*%
%TO.C,D5*%
X308506200Y-79742200D03*
D15*
%TO.N,Net-(D5-A)*%
X308506200Y-84822200D03*
%TD*%
D10*
%TO.N,Net-(R47-Pad1)*%
%TO.C,R47*%
X309006200Y-137742200D03*
D13*
%TO.N,Net-(U3B--)*%
X296306200Y-137742200D03*
%TD*%
D10*
%TO.N,Net-(U3C-+)*%
%TO.C,R46*%
X302506200Y-122742200D03*
D13*
%TO.N,Net-(R46-Pad2)*%
X302506200Y-110042200D03*
%TD*%
D10*
%TO.N,Net-(R7-Pad1)*%
%TO.C,R7*%
X232506200Y-90942200D03*
D13*
%TO.N,VCO1CoarsePot2*%
X232506200Y-78242200D03*
%TD*%
D18*
%TO.N,VCO3FMPot1*%
%TO.C,TH6*%
X289006200Y-139522200D03*
D19*
%TO.N,Net-(R11-Pad1)*%
X289006200Y-142062200D03*
%TD*%
D10*
%TO.N,Net-(U2B-+)*%
%TO.C,C3*%
X238806200Y-78492200D03*
%TO.N,Net-(U2A--)*%
X238806200Y-80992200D03*
%TD*%
%TO.N,Net-(U4B--)*%
%TO.C,R23*%
X234426200Y-149742200D03*
D13*
%TO.N,VCO1CoarsePot1*%
X244586200Y-149742200D03*
%TD*%
D10*
%TO.N,VCO3WaveMixPot1*%
%TO.C,R29*%
X244006200Y-154742200D03*
D13*
%TO.N,Net-(R27-Pad1)*%
X236386200Y-154742200D03*
%TD*%
D10*
%TO.N,Net-(C5-Pad1)*%
%TO.C,R25*%
X244006200Y-99392200D03*
D13*
%TO.N,VCO1CoarsePot1*%
X244006200Y-112092200D03*
%TD*%
D10*
%TO.N,Net-(C6-Pad1)*%
%TO.C,R30*%
X271756200Y-153242200D03*
D13*
%TO.N,VCO1CoarsePot1*%
X271756200Y-140542200D03*
%TD*%
D10*
%TO.N,VCO2IDKPot1*%
%TO.C,R51*%
X306056200Y-154882200D03*
D13*
%TO.N,Net-(J2-Pin_10)*%
X316216200Y-154882200D03*
%TD*%
D10*
%TO.N,Net-(R34-Pad1)*%
%TO.C,R34*%
X291806200Y-84242200D03*
D13*
%TO.N,fmIn2*%
X304506200Y-84242200D03*
%TD*%
D10*
%TO.N,VCO1CoarsePot3*%
%TO.C,R52*%
X305976200Y-147882200D03*
D13*
%TO.N,Net-(J2-Pin_1)*%
X316136200Y-147882200D03*
%TD*%
D10*
%TO.N,SW1p1*%
%TO.C,R26*%
X230386200Y-106242200D03*
D13*
%TO.N,Net-(C5-Pad1)*%
X238006200Y-106242200D03*
%TD*%
D10*
%TO.N,Net-(R11-Pad1)*%
%TO.C,R11*%
X284006200Y-138042200D03*
D13*
%TO.N,cvIn3*%
X284006200Y-150742200D03*
%TD*%
D21*
%TO.N,VCO1CoarsePot1*%
%TO.C,C10*%
X298636200Y-149382200D03*
D10*
%TO.N,VCO1CoarsePot3*%
X298636200Y-147382200D03*
%TD*%
D18*
%TO.N,VCO1FMPot1*%
%TO.C,TH4*%
X232706200Y-96342200D03*
D19*
%TO.N,Net-(R7-Pad1)*%
X232706200Y-93802200D03*
%TD*%
D10*
%TO.N,SW2p3*%
%TO.C,R49*%
X320506200Y-135822200D03*
D13*
%TO.N,Net-(R47-Pad1)*%
X320506200Y-125662200D03*
%TD*%
D18*
%TO.N,VCO2FMPot1*%
%TO.C,TH12*%
X320506200Y-87522200D03*
D19*
%TO.N,Net-(R40-Pad1)*%
X320506200Y-84982200D03*
%TD*%
D18*
%TO.N,VCO3FMPot1*%
%TO.C,TH7*%
X248866200Y-131242200D03*
D19*
%TO.N,Net-(R13-Pad1)*%
X251406200Y-131242200D03*
%TD*%
D10*
%TO.N,SW1p1*%
%TO.C,R28*%
X231156200Y-116242200D03*
D13*
%TO.N,VCO1CoarsePot1*%
X243856200Y-116242200D03*
%TD*%
D22*
%TO.N,cvIn2*%
X290154000Y-148078400D03*
%TO.N,fmIn3*%
X260353900Y-160965300D03*
%TD*%
D23*
%TO.N,Net-(U3C--)*%
X312417900Y-106322200D02*
X310952900Y-104857200D01*
X320506200Y-106322200D02*
X312417900Y-106322200D01*
X309826200Y-104857200D02*
X310952900Y-104857200D01*
%TO.N,Net-(R47-Pad1)*%
X319959500Y-126788900D02*
X309006200Y-137742200D01*
X320506200Y-126788900D02*
X319959500Y-126788900D01*
X320506200Y-125662200D02*
X320506200Y-126788900D01*
X320506200Y-125662200D02*
X320506200Y-124535500D01*
X302206200Y-106573500D02*
X302206200Y-104857200D01*
X311344700Y-115712000D02*
X302206200Y-106573500D01*
X315420100Y-115712000D02*
X311344700Y-115712000D01*
X321632900Y-121924800D02*
X315420100Y-115712000D01*
X321632900Y-123408800D02*
X321632900Y-121924800D01*
X320506200Y-124535500D02*
X321632900Y-123408800D01*
%TO.N,Net-(U3C-+)*%
X301006200Y-124242200D02*
X302506200Y-122742200D01*
X296166200Y-124242200D02*
X301006200Y-124242200D01*
%TO.N,Net-(R35-Pad2)*%
X311516200Y-120322200D02*
X314701200Y-117137200D01*
X307426200Y-120322200D02*
X311516200Y-120322200D01*
%TO.N,Net-(R34-Pad1)*%
X292156200Y-83892200D02*
X291806200Y-84242200D01*
X292156200Y-80062200D02*
X292156200Y-83892200D01*
%TO.N,Net-(R27-Pad1)*%
X238639600Y-153615500D02*
X237512900Y-154742200D01*
X249432800Y-153615500D02*
X238639600Y-153615500D01*
X250759500Y-154942200D02*
X249432800Y-153615500D01*
X251886200Y-154942200D02*
X250759500Y-154942200D01*
X236386200Y-154742200D02*
X237512900Y-154742200D01*
%TO.N,Net-(U4B--)*%
X231386200Y-147892200D02*
X232512900Y-147892200D01*
X237086200Y-152402200D02*
X234426200Y-149742200D01*
X251886200Y-152402200D02*
X237086200Y-152402200D01*
X234362900Y-149742200D02*
X232512900Y-147892200D01*
X234426200Y-149742200D02*
X234362900Y-149742200D01*
%TO.N,Net-(R22-Pad1)*%
X241292900Y-96592200D02*
X239632900Y-94932200D01*
X244006200Y-96592200D02*
X241292900Y-96592200D01*
X238506200Y-94932200D02*
X239632900Y-94932200D01*
%TO.N,Net-(R14-Pad1)*%
X253636200Y-134392200D02*
X253786200Y-134242200D01*
X251406200Y-134392200D02*
X253636200Y-134392200D01*
%TO.N,Net-(R13-Pad1)*%
X282855600Y-144892200D02*
X289506200Y-144892200D01*
X274290500Y-136327100D02*
X282855600Y-144892200D01*
X269606400Y-136327100D02*
X274290500Y-136327100D01*
X265548200Y-132268900D02*
X269606400Y-136327100D01*
X253459600Y-132268900D02*
X265548200Y-132268900D01*
X252432900Y-131242200D02*
X253459600Y-132268900D01*
X251406200Y-131242200D02*
X252432900Y-131242200D01*
%TO.N,Net-(R11-Pad1)*%
X287979500Y-142015500D02*
X284006200Y-138042200D01*
X287979500Y-142062200D02*
X287979500Y-142015500D01*
X289006200Y-142062200D02*
X287979500Y-142062200D01*
%TO.N,Net-(R10-Pad1)*%
X279706200Y-134892200D02*
X279531200Y-134717200D01*
X282926200Y-134892200D02*
X279706200Y-134892200D01*
%TO.N,Net-(R5-Pad1)*%
X252352900Y-127288900D02*
X254306200Y-129242200D01*
X252352900Y-127242200D02*
X252352900Y-127288900D01*
X251326200Y-127242200D02*
X252352900Y-127242200D01*
%TO.N,Net-(R4-Pad1)*%
X280156200Y-102242200D02*
X281656200Y-103742200D01*
X278826200Y-102242200D02*
X280156200Y-102242200D01*
%TO.N,Net-(R2-Pad2)*%
X284252800Y-92615500D02*
X285379500Y-93742200D01*
X274379500Y-92615500D02*
X284252800Y-92615500D01*
X260006200Y-78242200D02*
X274379500Y-92615500D01*
X286506200Y-93742200D02*
X285379500Y-93742200D01*
%TO.N,Net-(R1-Pad1)*%
X281806200Y-98592200D02*
X282156200Y-98242200D01*
X278826200Y-98592200D02*
X281806200Y-98592200D01*
%TO.N,Net-(Q3-E)*%
X251226200Y-111835500D02*
X251132900Y-111742200D01*
X254828700Y-111835500D02*
X251226200Y-111835500D01*
X254828700Y-112912200D02*
X254828700Y-111835500D01*
X250006200Y-111742200D02*
X251132900Y-111742200D01*
%TO.N,Net-(J2-Pin_10)*%
X323006200Y-157742200D02*
X320466200Y-157742200D01*
X319289500Y-156828800D02*
X317342900Y-154882200D01*
X319289500Y-157742200D02*
X319289500Y-156828800D01*
X316216200Y-154882200D02*
X317342900Y-154882200D01*
X320466200Y-157742200D02*
X319289500Y-157742200D01*
%TO.N,Net-(J2-Pin_1)*%
X317562900Y-147582200D02*
X317262900Y-147882200D01*
X320466200Y-147582200D02*
X317562900Y-147582200D01*
X316136200Y-147882200D02*
X317262900Y-147882200D01*
X323006200Y-147582200D02*
X320466200Y-147582200D01*
%TO.N,Net-(D5-A)*%
X274168000Y-123575500D02*
X273886200Y-123575500D01*
X275012900Y-122730600D02*
X274168000Y-123575500D01*
X275012900Y-121903600D02*
X275012900Y-122730600D01*
X281104300Y-115812200D02*
X275012900Y-121903600D01*
X283307800Y-115812200D02*
X281104300Y-115812200D01*
X284932900Y-114187100D02*
X283307800Y-115812200D01*
X285890100Y-114187100D02*
X284932900Y-114187100D01*
X301468500Y-98608700D02*
X285890100Y-114187100D01*
X302458100Y-98608700D02*
X301468500Y-98608700D01*
X308506200Y-92560600D02*
X302458100Y-98608700D01*
X308506200Y-84822200D02*
X308506200Y-92560600D01*
X273886200Y-124702200D02*
X273886200Y-123575500D01*
%TO.N,Net-(D4-K)*%
X245306200Y-134242200D02*
X245506200Y-134042200D01*
X241246200Y-134242200D02*
X245306200Y-134242200D01*
X280379500Y-119903900D02*
X280379500Y-119622200D01*
X274416400Y-125867000D02*
X280379500Y-119903900D01*
X251219400Y-125867000D02*
X274416400Y-125867000D01*
X250201100Y-126885300D02*
X251219400Y-125867000D01*
X250201100Y-127798500D02*
X250201100Y-126885300D01*
X245506200Y-132493400D02*
X250201100Y-127798500D01*
X245506200Y-134042200D02*
X245506200Y-132493400D01*
X281506200Y-119622200D02*
X280379500Y-119622200D01*
%TO.N,Net-(D3-A)*%
X282166200Y-79242200D02*
X280639500Y-79242200D01*
X274139500Y-85742200D02*
X271006200Y-85742200D01*
X280639500Y-79242200D02*
X274139500Y-85742200D01*
%TO.N,Net-(D2-A)*%
X281506200Y-127242200D02*
X280379500Y-127242200D01*
X279223200Y-128398500D02*
X280379500Y-127242200D01*
X267756000Y-128398500D02*
X279223200Y-128398500D01*
X267473000Y-128115500D02*
X267756000Y-128398500D01*
X257026400Y-128115500D02*
X267473000Y-128115500D01*
X254773000Y-130368900D02*
X257026400Y-128115500D01*
X253182500Y-130368900D02*
X254773000Y-130368900D01*
X252545800Y-129732200D02*
X253182500Y-130368900D01*
X248912500Y-129732200D02*
X252545800Y-129732200D01*
X247616900Y-131027800D02*
X248912500Y-129732200D01*
X247616900Y-133526100D02*
X247616900Y-131027800D01*
X243240800Y-137902200D02*
X247616900Y-133526100D01*
X232506200Y-137902200D02*
X243240800Y-137902200D01*
%TO.N,Net-(D1-A)*%
X272539500Y-114322200D02*
X272759500Y-114542200D01*
X269006200Y-114322200D02*
X272539500Y-114322200D01*
X273886200Y-114542200D02*
X272759500Y-114542200D01*
%TO.N,Net-(U3A--)*%
X300954500Y-89742200D02*
X301079500Y-89617200D01*
X296506200Y-89742200D02*
X300954500Y-89742200D01*
X302206200Y-89617200D02*
X301079500Y-89617200D01*
%TO.N,Net-(U3B-+)*%
X303619500Y-99777200D02*
X308699500Y-94697200D01*
X302206200Y-99777200D02*
X303619500Y-99777200D01*
X309826200Y-94697200D02*
X308699500Y-94697200D01*
%TO.N,Net-(D5-K)*%
X274168000Y-121035500D02*
X273886200Y-121035500D01*
X275012900Y-120190600D02*
X274168000Y-121035500D01*
X275012900Y-116890200D02*
X275012900Y-120190600D01*
X291528000Y-100375100D02*
X275012900Y-116890200D01*
X295401600Y-100375100D02*
X291528000Y-100375100D01*
X301079500Y-94697200D02*
X295401600Y-100375100D01*
X302206200Y-94697200D02*
X301079500Y-94697200D01*
X273886200Y-122162200D02*
X273886200Y-121035500D01*
X313506200Y-85482200D02*
X312654500Y-85482200D01*
X311746200Y-84573900D02*
X312654500Y-85482200D01*
X311746200Y-79742200D02*
X311746200Y-84573900D01*
X308506200Y-79742200D02*
X311746200Y-79742200D01*
X311746200Y-79742200D02*
X312006200Y-79482200D01*
%TO.N,Net-(C6-Pad1)*%
X276340200Y-157408200D02*
X277506200Y-156242200D01*
X274358900Y-157408200D02*
X276340200Y-157408200D01*
X273192900Y-156242200D02*
X274358900Y-157408200D01*
X272066200Y-156242200D02*
X273192900Y-156242200D01*
%TO.N,Net-(C5-Pad2)*%
X239106200Y-114092200D02*
X235756200Y-110742200D01*
X246444400Y-114092200D02*
X239106200Y-114092200D01*
X251974400Y-119622200D02*
X246444400Y-114092200D01*
X273886200Y-119622200D02*
X251974400Y-119622200D01*
%TO.N,Net-(C5-Pad1)*%
X236879500Y-107118900D02*
X236879500Y-106242200D01*
X233256200Y-110742200D02*
X236879500Y-107118900D01*
X238006200Y-106242200D02*
X236879500Y-106242200D01*
%TO.N,Net-(U4B-+)*%
X259506200Y-149862200D02*
X251886200Y-149862200D01*
X258679500Y-123552200D02*
X258879500Y-123752200D01*
X256256200Y-123552200D02*
X258679500Y-123552200D01*
X260006200Y-123752200D02*
X258879500Y-123752200D01*
%TO.N,Net-(U2B-+)*%
X241929500Y-78492200D02*
X242179500Y-78742200D01*
X238806200Y-78492200D02*
X241929500Y-78492200D01*
X243306200Y-78742200D02*
X242179500Y-78742200D01*
X256626200Y-99662200D02*
X249006200Y-99662200D01*
%TO.N,Net-(D2-K)*%
X237272900Y-139742200D02*
X234032900Y-142982200D01*
X237506200Y-139742200D02*
X237272900Y-139742200D01*
X232506200Y-142982200D02*
X234032900Y-142982200D01*
X238920300Y-147869600D02*
X234032900Y-142982200D01*
X247672100Y-147869600D02*
X238920300Y-147869600D01*
X250759500Y-144782200D02*
X247672100Y-147869600D01*
X251886200Y-144782200D02*
X250759500Y-144782200D01*
%TO.N,Net-(D1-K)*%
X249006200Y-94582200D02*
X249006200Y-95708900D01*
X248724400Y-95708900D02*
X249006200Y-95708900D01*
X247879500Y-96553800D02*
X248724400Y-95708900D01*
X247879500Y-97606100D02*
X247879500Y-96553800D01*
X248665600Y-98392200D02*
X247879500Y-97606100D01*
X264156200Y-98392200D02*
X248665600Y-98392200D01*
X266506200Y-100742200D02*
X264156200Y-98392200D01*
X270532900Y-109775600D02*
X272759500Y-112002200D01*
X270532900Y-109242200D02*
X270532900Y-109775600D01*
X273886200Y-112002200D02*
X272759500Y-112002200D01*
X269006200Y-109242200D02*
X270532900Y-109242200D01*
%TO.N,VCO3WaveMixPot2*%
X280675000Y-165200000D02*
X279498300Y-165200000D01*
X253706200Y-144782200D02*
X259506200Y-144782200D01*
X252436200Y-146052200D02*
X253706200Y-144782200D01*
X251492500Y-146052200D02*
X252436200Y-146052200D01*
X250727400Y-146817300D02*
X251492500Y-146052200D01*
X250727400Y-150383400D02*
X250727400Y-146817300D01*
X251476200Y-151132200D02*
X250727400Y-150383400D01*
X256604600Y-151132200D02*
X251476200Y-151132200D01*
X259146100Y-153673700D02*
X256604600Y-151132200D01*
X262410400Y-153673700D02*
X259146100Y-153673700D01*
X263430300Y-154693600D02*
X262410400Y-153673700D01*
X268147300Y-154693600D02*
X263430300Y-154693600D01*
X277477000Y-164023300D02*
X268147300Y-154693600D01*
X278663200Y-164023300D02*
X277477000Y-164023300D01*
X279498300Y-164858400D02*
X278663200Y-164023300D01*
X279498300Y-165200000D02*
X279498300Y-164858400D01*
%TO.N,VCO3FMPot2*%
X295915000Y-165200000D02*
X294738300Y-165200000D01*
X294738300Y-165567700D02*
X294738300Y-165200000D01*
X293469000Y-166837000D02*
X294738300Y-165567700D01*
X273013100Y-166837000D02*
X293469000Y-166837000D01*
X271785000Y-165608900D02*
X273013100Y-166837000D01*
X271785000Y-164717800D02*
X271785000Y-165608900D01*
X270787000Y-163719800D02*
X271785000Y-164717800D01*
X243734300Y-163719800D02*
X270787000Y-163719800D01*
X230250400Y-150235900D02*
X243734300Y-163719800D01*
X230250400Y-135983200D02*
X230250400Y-150235900D01*
X233802100Y-132431500D02*
X230250400Y-135983200D01*
X243596900Y-132431500D02*
X233802100Y-132431500D01*
X248786200Y-127242200D02*
X243596900Y-132431500D01*
%TO.N,SW2p3*%
X315005200Y-141323200D02*
X320506200Y-135822200D01*
X315005200Y-162793500D02*
X315005200Y-141323200D01*
X316235000Y-164023300D02*
X315005200Y-162793500D01*
X316235000Y-165200000D02*
X316235000Y-164023300D01*
%TO.N,VCO2CoarsePot2*%
X278125000Y-70800000D02*
X279301700Y-70800000D01*
X314616200Y-114462200D02*
X314616200Y-113335500D01*
X308662900Y-107382200D02*
X314616200Y-113335500D01*
X308662900Y-96747800D02*
X308662900Y-107382200D01*
X309443500Y-95967200D02*
X308662900Y-96747800D01*
X310186000Y-95967200D02*
X309443500Y-95967200D01*
X310957300Y-95195900D02*
X310186000Y-95967200D01*
X310957300Y-85114000D02*
X310957300Y-95195900D01*
X308949200Y-83105900D02*
X310957300Y-85114000D01*
X297495100Y-83105900D02*
X308949200Y-83105900D01*
X293181400Y-78792200D02*
X297495100Y-83105900D01*
X290430400Y-78792200D02*
X293181400Y-78792200D01*
X283614900Y-71976700D02*
X290430400Y-78792200D01*
X280110600Y-71976700D02*
X283614900Y-71976700D01*
X279301700Y-71167800D02*
X280110600Y-71976700D01*
X279301700Y-70800000D02*
X279301700Y-71167800D01*
%TO.N,cvIn2*%
X320506200Y-122442200D02*
X319379500Y-122442200D01*
X294870000Y-148078400D02*
X290154000Y-148078400D01*
X319379500Y-123568900D02*
X294870000Y-148078400D01*
X319379500Y-122442200D02*
X319379500Y-123568900D01*
%TO.N,VCO3WaveMixPot3*%
X268315500Y-156242200D02*
X264446200Y-156242200D01*
X276958300Y-164885000D02*
X268315500Y-156242200D01*
X276958300Y-165200000D02*
X276958300Y-164885000D01*
X278135000Y-165200000D02*
X276958300Y-165200000D01*
%TO.N,VCO3WaveMixPot1*%
X282038300Y-165567800D02*
X282038300Y-165200000D01*
X281229400Y-166376700D02*
X282038300Y-165567800D01*
X275013600Y-166376700D02*
X281229400Y-166376700D01*
X274325000Y-165688100D02*
X275013600Y-166376700D01*
X274325000Y-164804600D02*
X274325000Y-165688100D01*
X271959000Y-162438600D02*
X274325000Y-164804600D01*
X251702600Y-162438600D02*
X271959000Y-162438600D01*
X244006200Y-154742200D02*
X251702600Y-162438600D01*
X283215000Y-165200000D02*
X282038300Y-165200000D01*
%TO.N,SW1p1*%
X267965000Y-70800000D02*
X266788300Y-70800000D01*
X236345800Y-100282600D02*
X230386200Y-106242200D01*
X236345800Y-95490400D02*
X236345800Y-100282600D01*
X238270100Y-93566100D02*
X236345800Y-95490400D01*
X242205000Y-93566100D02*
X238270100Y-93566100D01*
X253264000Y-82507100D02*
X242205000Y-93566100D01*
X253900700Y-82507100D02*
X253264000Y-82507100D01*
X257324400Y-79083400D02*
X253900700Y-82507100D01*
X257324400Y-78499800D02*
X257324400Y-79083400D01*
X263847500Y-71976700D02*
X257324400Y-78499800D01*
X265979400Y-71976700D02*
X263847500Y-71976700D01*
X266788300Y-71167800D02*
X265979400Y-71976700D01*
X266788300Y-70800000D02*
X266788300Y-71167800D01*
%TO.N,SW1p3*%
X273045000Y-70800000D02*
X271868300Y-70800000D01*
X243066200Y-97992200D02*
X238506200Y-102552200D01*
X244216900Y-97992200D02*
X243066200Y-97992200D01*
X246657100Y-95552000D02*
X244216900Y-97992200D01*
X246657100Y-93000200D02*
X246657100Y-95552000D01*
X247108700Y-92548600D02*
X246657100Y-93000200D01*
X247108700Y-89301200D02*
X247108700Y-92548600D01*
X253451100Y-82958800D02*
X247108700Y-89301200D01*
X254087800Y-82958800D02*
X253451100Y-82958800D01*
X258118500Y-78928100D02*
X254087800Y-82958800D01*
X258118500Y-78370900D02*
X258118500Y-78928100D01*
X263232100Y-73257300D02*
X258118500Y-78370900D01*
X269778700Y-73257300D02*
X263232100Y-73257300D01*
X271868300Y-71167700D02*
X269778700Y-73257300D01*
X271868300Y-70800000D02*
X271868300Y-71167700D01*
%TO.N,VCO3PwmPot1*%
X290835000Y-165200000D02*
X289658300Y-165200000D01*
X289658300Y-164832300D02*
X289658300Y-165200000D01*
X283959800Y-159133800D02*
X289658300Y-164832300D01*
X273364300Y-159133800D02*
X283959800Y-159133800D01*
X268472400Y-154241900D02*
X273364300Y-159133800D01*
X263793000Y-154241900D02*
X268472400Y-154241900D01*
X261953300Y-152402200D02*
X263793000Y-154241900D01*
X259506200Y-152402200D02*
X261953300Y-152402200D01*
%TO.N,VCO3FinePot2*%
X303535000Y-165200000D02*
X304711700Y-165200000D01*
X261406200Y-134242200D02*
X262532900Y-134242200D01*
X270876500Y-142585800D02*
X262532900Y-134242200D01*
X272423000Y-142585800D02*
X270876500Y-142585800D01*
X282022300Y-152185100D02*
X272423000Y-142585800D01*
X305021100Y-152185100D02*
X282022300Y-152185100D01*
X312334600Y-159498600D02*
X305021100Y-152185100D01*
X312334600Y-165690600D02*
X312334600Y-159498600D01*
X311634400Y-166390800D02*
X312334600Y-165690600D01*
X305534800Y-166390800D02*
X311634400Y-166390800D01*
X304711700Y-165567700D02*
X305534800Y-166390800D01*
X304711700Y-165200000D02*
X304711700Y-165567700D01*
%TO.N,VCO3CoarsePot2*%
X302738200Y-157592200D02*
X289506200Y-157592200D01*
X309978300Y-164832300D02*
X302738200Y-157592200D01*
X309978300Y-165200000D02*
X309978300Y-164832300D01*
X311155000Y-165200000D02*
X309978300Y-165200000D01*
%TO.N,VCO1CoarsePot2*%
X233357900Y-77115500D02*
X232506200Y-77115500D01*
X238848300Y-71625100D02*
X233357900Y-77115500D01*
X238848300Y-70800000D02*
X238848300Y-71625100D01*
X240025000Y-70800000D02*
X238848300Y-70800000D01*
X232506200Y-78242200D02*
X232506200Y-77115500D01*
%TO.N,VCO2FMPot1*%
X314746200Y-90982200D02*
X314746200Y-89905500D01*
X320546200Y-89250600D02*
X320546200Y-90432200D01*
X319662000Y-88366400D02*
X320546200Y-89250600D01*
X320506200Y-87522200D02*
X319662000Y-88366400D01*
X290825000Y-70800000D02*
X292001700Y-70800000D01*
X314746200Y-88366400D02*
X314746200Y-89905500D01*
X319662000Y-88366400D02*
X314746200Y-88366400D01*
X292001700Y-71106500D02*
X292001700Y-70800000D01*
X303549400Y-82654200D02*
X292001700Y-71106500D01*
X309153500Y-82654200D02*
X303549400Y-82654200D01*
X312536200Y-86036900D02*
X309153500Y-82654200D01*
X312536200Y-86295100D02*
X312536200Y-86036900D01*
X314607500Y-88366400D02*
X312536200Y-86295100D01*
X314746200Y-88366400D02*
X314607500Y-88366400D01*
%TO.N,VCO3FMPot1*%
X288819200Y-139159200D02*
X293086200Y-134892200D01*
X289006200Y-139346300D02*
X288819200Y-139159200D01*
X289006200Y-139522200D02*
X289006200Y-139346300D01*
X249909500Y-130198900D02*
X248866200Y-131242200D01*
X252237900Y-130198900D02*
X249909500Y-130198900D01*
X253216500Y-131177500D02*
X252237900Y-130198900D01*
X266110200Y-131177500D02*
X253216500Y-131177500D01*
X267671700Y-132739000D02*
X266110200Y-131177500D01*
X282398900Y-132739000D02*
X267671700Y-132739000D01*
X288819200Y-139159200D02*
X282398900Y-132739000D01*
%TO.N,VCO1FMPot1*%
X271776200Y-93242200D02*
X271776200Y-94318900D01*
X275242700Y-101198700D02*
X275242700Y-94318900D01*
X276286200Y-102242200D02*
X275242700Y-101198700D01*
X275769500Y-94318900D02*
X275242700Y-94318900D01*
X276346200Y-93742200D02*
X275769500Y-94318900D01*
X275242700Y-94318900D02*
X271776200Y-94318900D01*
D24*
%TO.N,VCO1CoarsePot3*%
X305476200Y-147382200D02*
X305976200Y-147882200D01*
X298636200Y-147382200D02*
X305476200Y-147382200D01*
X242565000Y-70800000D02*
X242565000Y-69498300D01*
X248883300Y-69498300D02*
X242565000Y-69498300D01*
X250185000Y-70800000D02*
X248883300Y-69498300D01*
X279328900Y-69463900D02*
X280665000Y-70800000D01*
X251521100Y-69463900D02*
X279328900Y-69463900D01*
X250185000Y-70800000D02*
X251521100Y-69463900D01*
X288285000Y-69486000D02*
X288285000Y-70800000D01*
X309831000Y-69486000D02*
X288285000Y-69486000D01*
X311145000Y-70800000D02*
X309831000Y-69486000D01*
X281979000Y-69486000D02*
X280665000Y-70800000D01*
X288285000Y-69486000D02*
X281979000Y-69486000D01*
X300995000Y-165200000D02*
X300995000Y-163898300D01*
X271211400Y-147322200D02*
X259506200Y-147322200D01*
X278097500Y-154208300D02*
X271211400Y-147322200D01*
X282161200Y-154208300D02*
X278097500Y-154208300D01*
X291851200Y-163898300D02*
X282161200Y-154208300D01*
X300995000Y-163898300D02*
X291851200Y-163898300D01*
X307313300Y-163898300D02*
X300995000Y-163898300D01*
X308615000Y-165200000D02*
X307313300Y-163898300D01*
%TO.N,VCO2IDKPot1*%
X302206200Y-97237200D02*
X300954500Y-97237200D01*
X282132100Y-112002200D02*
X282757900Y-112002200D01*
X296949500Y-101242200D02*
X300954500Y-97237200D01*
X293517900Y-101242200D02*
X296949500Y-101242200D01*
X282757900Y-112002200D02*
X293517900Y-101242200D01*
X282132100Y-112002200D02*
X281506200Y-112002200D01*
X254067900Y-93312200D02*
X250257900Y-97122200D01*
X258126200Y-93312200D02*
X254067900Y-93312200D01*
X259696200Y-91742200D02*
X258126200Y-93312200D01*
X249006200Y-97122200D02*
X250257900Y-97122200D01*
X305556200Y-155382200D02*
X298636200Y-155382200D01*
X306056200Y-154882200D02*
X305556200Y-155382200D01*
X284365800Y-155382200D02*
X298636200Y-155382200D01*
X275035800Y-146052200D02*
X284365800Y-155382200D01*
X255778700Y-146052200D02*
X275035800Y-146052200D01*
X254508700Y-147322200D02*
X255778700Y-146052200D01*
X251886200Y-147322200D02*
X254508700Y-147322200D01*
%TO.N,VCO1CoarsePot1*%
X308677900Y-123813900D02*
X312161200Y-127297200D01*
X308677900Y-123662200D02*
X308677900Y-123813900D01*
X307426200Y-123662200D02*
X308677900Y-123662200D01*
X271756200Y-140542200D02*
X273007900Y-140542200D01*
X286006200Y-124242200D02*
X287257900Y-124242200D01*
X307426200Y-123662200D02*
X306174500Y-123662200D01*
X296086200Y-120742200D02*
X294834500Y-120742200D01*
X244006200Y-112092200D02*
X245257900Y-112092200D01*
X256098700Y-112912200D02*
X256098700Y-114113900D01*
X294834500Y-120742200D02*
X294834500Y-120905900D01*
X290594200Y-120905900D02*
X294834500Y-120905900D01*
X287257900Y-124242200D02*
X290594200Y-120905900D01*
X303418200Y-120905900D02*
X306174500Y-123662200D01*
X294834500Y-120905900D02*
X303418200Y-120905900D01*
X264756200Y-140242200D02*
X263504500Y-140242200D01*
X245506200Y-146742200D02*
X245506200Y-145490500D01*
X238254500Y-145490500D02*
X237506200Y-144742200D01*
X245506200Y-145490500D02*
X238254500Y-145490500D01*
X262774500Y-140972200D02*
X263504500Y-140242200D01*
X250024500Y-140972200D02*
X262774500Y-140972200D01*
X245506200Y-145490500D02*
X250024500Y-140972200D01*
X256626200Y-94582200D02*
X257877900Y-94582200D01*
X245260000Y-112092200D02*
X245257900Y-112092200D01*
X247281700Y-114113900D02*
X245260000Y-112092200D01*
X256098700Y-114113900D02*
X247281700Y-114113900D01*
X262646700Y-72101700D02*
X256006200Y-78742200D01*
X262885000Y-72101700D02*
X262646700Y-72101700D01*
X262885000Y-70800000D02*
X262885000Y-72101700D01*
X253047200Y-78742200D02*
X256006200Y-78742200D01*
X245105000Y-70800000D02*
X253047200Y-78742200D01*
X275585000Y-75363400D02*
X270166200Y-80782200D01*
X275585000Y-70800000D02*
X275585000Y-75363400D01*
X320466200Y-152662200D02*
X320466200Y-151360500D01*
X323006200Y-150122200D02*
X320466200Y-150122200D01*
X320466200Y-150122200D02*
X320466200Y-151360500D01*
X270466200Y-98742200D02*
X269489500Y-98742200D01*
X265346200Y-94582200D02*
X266506200Y-95742200D01*
X257877900Y-94582200D02*
X265346200Y-94582200D01*
X269489500Y-98725500D02*
X269489500Y-98742200D01*
X266506200Y-95742200D02*
X269489500Y-98725500D01*
X273886200Y-127242200D02*
X275137900Y-127242200D01*
X286006200Y-124242200D02*
X284754500Y-124242200D01*
X276389600Y-125990500D02*
X283006200Y-125990500D01*
X275137900Y-127242200D02*
X276389600Y-125990500D01*
X283006200Y-125990500D02*
X284754500Y-124242200D01*
X284656200Y-127640500D02*
X284656200Y-131242200D01*
X283006200Y-125990500D02*
X284656200Y-127640500D01*
X273007900Y-140893900D02*
X273007900Y-140542200D01*
X276991200Y-144877200D02*
X273007900Y-140893900D01*
X281496200Y-149382200D02*
X276991200Y-144877200D01*
X298636200Y-149382200D02*
X281496200Y-149382200D01*
X256098700Y-112912200D02*
X257075400Y-112912200D01*
X269489500Y-101568900D02*
X260006200Y-111052200D01*
X269489500Y-98742200D02*
X269489500Y-101568900D01*
X258935400Y-111052200D02*
X257075400Y-112912200D01*
X260006200Y-111052200D02*
X258935400Y-111052200D01*
%TD*%
M02*
