%TF.GenerationSoftware,KiCad,Pcbnew,8.0.7*%
%TF.CreationDate,2025-01-11T15:45:07+00:00*%
%TF.ProjectId,MAIN,4d41494e-2e6b-4696-9361-645f70636258,rev?*%
%TF.SameCoordinates,Original*%
%TF.FileFunction,Copper,L1,Top*%
%TF.FilePolarity,Positive*%
%FSLAX46Y46*%
G04 Gerber Fmt 4.6, Leading zero omitted, Abs format (unit mm)*
G04 Created by KiCad (PCBNEW 8.0.7) date 2025-01-11 15:45:07*
%MOMM*%
%LPD*%
G01*
G04 APERTURE LIST*
%TA.AperFunction,ComponentPad*%
%ADD10C,1.600000*%
%TD*%
%TA.AperFunction,ComponentPad*%
%ADD11R,1.050000X1.500000*%
%TD*%
%TA.AperFunction,ComponentPad*%
%ADD12O,1.050000X1.500000*%
%TD*%
%TA.AperFunction,ComponentPad*%
%ADD13O,1.600000X1.600000*%
%TD*%
%TA.AperFunction,ComponentPad*%
%ADD14R,2.400000X2.400000*%
%TD*%
%TA.AperFunction,ComponentPad*%
%ADD15O,2.400000X2.400000*%
%TD*%
%TA.AperFunction,ComponentPad*%
%ADD16R,1.700000X1.700000*%
%TD*%
%TA.AperFunction,ComponentPad*%
%ADD17O,1.700000X1.700000*%
%TD*%
%TA.AperFunction,ComponentPad*%
%ADD18C,1.400000*%
%TD*%
%TA.AperFunction,ComponentPad*%
%ADD19O,1.400000X1.400000*%
%TD*%
%TA.AperFunction,ComponentPad*%
%ADD20C,1.800000*%
%TD*%
%TA.AperFunction,ComponentPad*%
%ADD21R,1.600000X1.600000*%
%TD*%
G04 APERTURE END LIST*
D10*
%TO.P,C4,1*%
%TO.N,Net-(U4B-+)*%
X256256194Y-123552182D03*
%TO.P,C4,2*%
%TO.N,Net-(U4A--)*%
X253756194Y-123552182D03*
%TD*%
%TO.P,C7,1*%
%TO.N,Net-(D5-K)*%
X312006194Y-79482182D03*
%TO.P,C7,2*%
%TO.N,VCO1CoarsePot1*%
X317006194Y-79482182D03*
%TD*%
D11*
%TO.P,Q6,1,C*%
%TO.N,Net-(D5-K)*%
X313506194Y-85482182D03*
D12*
%TO.P,Q6,2,B*%
%TO.N,Net-(Q5-E)*%
X314776194Y-85482182D03*
%TO.P,Q6,3,E*%
%TO.N,VCO1CoarsePot1*%
X316046194Y-85482182D03*
%TD*%
D10*
%TO.P,R20,1*%
%TO.N,VCO1CoarsePot1*%
X260006194Y-111052182D03*
D13*
%TO.P,R20,2*%
%TO.N,Net-(U4B-+)*%
X260006194Y-123752182D03*
%TD*%
D10*
%TO.P,R17,1*%
%TO.N,Net-(D3-K)*%
X286381194Y-87017182D03*
D13*
%TO.P,R17,2*%
%TO.N,VCO1CoarsePot1*%
X273681194Y-87017182D03*
%TD*%
D10*
%TO.P,R42,1*%
%TO.N,Net-(U3D--)*%
X285926194Y-115742182D03*
D13*
%TO.P,R42,2*%
%TO.N,VCO2PwmPot1*%
X296086194Y-115742182D03*
%TD*%
D14*
%TO.P,D2,1,K*%
%TO.N,Net-(D2-K)*%
X232506194Y-142982182D03*
D15*
%TO.P,D2,2,A*%
%TO.N,Net-(D2-A)*%
X232506194Y-137902182D03*
%TD*%
D11*
%TO.P,Q1,1,C*%
%TO.N,VCO1CoarsePot3*%
X270506194Y-93242182D03*
D12*
%TO.P,Q1,2,B*%
%TO.N,VCO1FMPot1*%
X271776194Y-93242182D03*
%TO.P,Q1,3,E*%
%TO.N,Net-(Q1-E)*%
X273046194Y-93242182D03*
%TD*%
D10*
%TO.P,R27,1*%
%TO.N,Net-(R27-Pad1)*%
X231386194Y-160592182D03*
D13*
%TO.P,R27,2*%
%TO.N,Net-(U4B--)*%
X231386194Y-147892182D03*
%TD*%
D16*
%TO.P,J1,1,Pin_1*%
%TO.N,VCO1CoarsePot1*%
X237485000Y-70800000D03*
D17*
%TO.P,J1,2,Pin_2*%
%TO.N,VCO1CoarsePot2*%
X240025000Y-70800000D03*
%TO.P,J1,3,Pin_3*%
%TO.N,VCO1CoarsePot3*%
X242565000Y-70800000D03*
%TO.P,J1,4,Pin_4*%
%TO.N,VCO1CoarsePot1*%
X245105000Y-70800000D03*
%TO.P,J1,5,Pin_5*%
%TO.N,VCO1FinePot2*%
X247645000Y-70800000D03*
%TO.P,J1,6,Pin_6*%
%TO.N,VCO1CoarsePot3*%
X250185000Y-70800000D03*
%TO.P,J1,7,Pin_7*%
%TO.N,VCO1FMPot1*%
X252725000Y-70800000D03*
%TO.P,J1,8,Pin_8*%
%TO.N,VCO1FMPot2*%
X255265000Y-70800000D03*
%TO.P,J1,9,Pin_9*%
%TO.N,VCO1FMPot3*%
X257805000Y-70800000D03*
%TO.P,J1,10,Pin_10*%
%TO.N,VCO1PwmPot1*%
X260345000Y-70800000D03*
%TO.P,J1,11,Pin_11*%
%TO.N,VCO1CoarsePot1*%
X262885000Y-70800000D03*
%TO.P,J1,12,Pin_12*%
%TO.N,VCO1PwmPot3*%
X265425000Y-70800000D03*
%TO.P,J1,13,Pin_13*%
%TO.N,SW1p1*%
X267965000Y-70800000D03*
%TO.P,J1,14,Pin_14*%
%TO.N,SW1p2*%
X270505000Y-70800000D03*
%TO.P,J1,15,Pin_15*%
%TO.N,SW1p3*%
X273045000Y-70800000D03*
%TO.P,J1,16,Pin_16*%
%TO.N,VCO1CoarsePot1*%
X275585000Y-70800000D03*
%TO.P,J1,17,Pin_17*%
%TO.N,VCO2CoarsePot2*%
X278125000Y-70800000D03*
%TO.P,J1,18,Pin_18*%
%TO.N,VCO1CoarsePot3*%
X280665000Y-70800000D03*
%TO.P,J1,19,Pin_19*%
%TO.N,VCO1CoarsePot1*%
X283205000Y-70800000D03*
%TO.P,J1,20,Pin_20*%
%TO.N,VCO2FinePot2*%
X285745000Y-70800000D03*
%TO.P,J1,21,Pin_21*%
%TO.N,VCO1CoarsePot3*%
X288285000Y-70800000D03*
%TO.P,J1,22,Pin_22*%
%TO.N,VCO2FMPot1*%
X290825000Y-70800000D03*
%TO.P,J1,23,Pin_23*%
%TO.N,VCO2FMPot2*%
X293365000Y-70800000D03*
%TO.P,J1,24,Pin_24*%
%TO.N,VCO2FMPot3*%
X295905000Y-70800000D03*
%TO.P,J1,25,Pin_25*%
%TO.N,VCO2PwmPot1*%
X298445000Y-70800000D03*
%TO.P,J1,26,Pin_26*%
%TO.N,VCO2PwmPot2*%
X300985000Y-70800000D03*
%TO.P,J1,27,Pin_27*%
%TO.N,VCO2PwmPot3*%
X303525000Y-70800000D03*
%TO.P,J1,28,Pin_28*%
%TO.N,VCO2IDKPot1*%
X306065000Y-70800000D03*
%TO.P,J1,29,Pin_29*%
%TO.N,VCO2IDKPot2*%
X308605000Y-70800000D03*
%TO.P,J1,30,Pin_30*%
%TO.N,VCO1CoarsePot3*%
X311145000Y-70800000D03*
%TO.P,J1,31,Pin_31*%
%TO.N,SW2p1*%
X313685000Y-70800000D03*
%TO.P,J1,32,Pin_32*%
%TO.N,SW2p2*%
X316225000Y-70800000D03*
%TD*%
D10*
%TO.P,R4,1*%
%TO.N,Net-(R4-Pad1)*%
X281656194Y-103742182D03*
D13*
%TO.P,R4,2*%
%TO.N,cvIn1*%
X294356194Y-103742182D03*
%TD*%
D10*
%TO.P,R18,1*%
%TO.N,Net-(U2B--)*%
X247926194Y-84742182D03*
D13*
%TO.P,R18,2*%
%TO.N,VCO1CoarsePot1*%
X258086194Y-84742182D03*
%TD*%
D10*
%TO.P,C6,1*%
%TO.N,Net-(C6-Pad1)*%
X277506192Y-156242182D03*
%TO.P,C6,2*%
%TO.N,Net-(C6-Pad2)*%
X275006192Y-156242182D03*
%TD*%
%TO.P,R31,1*%
%TO.N,VCO3WaveMixPot3*%
X264446192Y-156242182D03*
D13*
%TO.P,R31,2*%
%TO.N,Net-(C6-Pad1)*%
X272066192Y-156242182D03*
%TD*%
D18*
%TO.P,TH11,1*%
%TO.N,VCO2FMPot1*%
X314506194Y-96742182D03*
D19*
%TO.P,TH11,2*%
%TO.N,Net-(R39-Pad1)*%
X314506194Y-99282182D03*
%TD*%
D20*
%TO.P,R10,1*%
%TO.N,Net-(R10-Pad1)*%
X279531192Y-134717182D03*
%TO.P,R10,2*%
%TO.N,VCO1CoarsePot1*%
X276991192Y-144877182D03*
%TO.P,R10,3*%
%TO.N,N/C*%
X279531192Y-152497182D03*
%TD*%
D10*
%TO.P,R2,1*%
%TO.N,VCO1FMPot1*%
X276346194Y-93742182D03*
D13*
%TO.P,R2,2*%
%TO.N,Net-(R2-Pad2)*%
X286506194Y-93742182D03*
%TD*%
D18*
%TO.P,TH9,1*%
%TO.N,VCO2FMPot2*%
X292156194Y-77522182D03*
D19*
%TO.P,TH9,2*%
%TO.N,Net-(R34-Pad1)*%
X292156194Y-80062182D03*
%TD*%
D10*
%TO.P,R48,1*%
%TO.N,Net-(U3C-+)*%
X296166194Y-124242182D03*
D13*
%TO.P,R48,2*%
%TO.N,VCO1CoarsePot1*%
X286006194Y-124242182D03*
%TD*%
D20*
%TO.P,R3,1*%
%TO.N,Net-(R2-Pad2)*%
X260006194Y-78242182D03*
%TO.P,R3,2*%
%TO.N,VCO1CoarsePot1*%
X270166194Y-80782182D03*
%TO.P,R3,3*%
%TO.N,N/C*%
X277786194Y-78242182D03*
%TD*%
D10*
%TO.P,R39,1*%
%TO.N,Net-(R39-Pad1)*%
X314616194Y-101762182D03*
D13*
%TO.P,R39,2*%
%TO.N,VCO2CoarsePot2*%
X314616194Y-114462182D03*
%TD*%
D10*
%TO.P,R21,1*%
%TO.N,Net-(D4-K)*%
X245506194Y-134042182D03*
D13*
%TO.P,R21,2*%
%TO.N,VCO1CoarsePot1*%
X245506194Y-146742182D03*
%TD*%
D10*
%TO.P,R9,1*%
%TO.N,VCO3FMPot1*%
X293086194Y-134892182D03*
D13*
%TO.P,R9,2*%
%TO.N,Net-(R10-Pad1)*%
X282926194Y-134892182D03*
%TD*%
D10*
%TO.P,R45,1*%
%TO.N,Net-(U3B--)*%
X307426194Y-133822182D03*
D13*
%TO.P,R45,2*%
%TO.N,VCO1CoarsePot1*%
X307426194Y-123662182D03*
%TD*%
D11*
%TO.P,Q4,1,C*%
%TO.N,Net-(D2-K)*%
X253558666Y-112912182D03*
D12*
%TO.P,Q4,2,B*%
%TO.N,Net-(Q3-E)*%
X254828666Y-112912182D03*
%TO.P,Q4,3,E*%
%TO.N,VCO1CoarsePot1*%
X256098666Y-112912182D03*
%TD*%
D10*
%TO.P,C5,1*%
%TO.N,Net-(C5-Pad1)*%
X233256194Y-110742182D03*
%TO.P,C5,2*%
%TO.N,Net-(C5-Pad2)*%
X235756194Y-110742182D03*
%TD*%
%TO.P,R15,1*%
%TO.N,Net-(D3-A)*%
X271006194Y-85742182D03*
D13*
%TO.P,R15,2*%
%TO.N,VCO1PwmPot1*%
X260846194Y-85742182D03*
%TD*%
D10*
%TO.P,R19,1*%
%TO.N,Net-(D4-A)*%
X233006194Y-134822182D03*
D13*
%TO.P,R19,2*%
%TO.N,VCO3PwmPot1*%
X233006194Y-124662182D03*
%TD*%
D10*
%TO.P,R24,1*%
%TO.N,SW1p3*%
X238506194Y-102552182D03*
D13*
%TO.P,R24,2*%
%TO.N,Net-(R22-Pad1)*%
X238506194Y-94932182D03*
%TD*%
D10*
%TO.P,R33,1*%
%TO.N,mixOut*%
X238886194Y-127242182D03*
D13*
%TO.P,R33,2*%
%TO.N,Net-(U4D--)*%
X246506194Y-127242182D03*
%TD*%
D21*
%TO.P,U2,1*%
%TO.N,Net-(U2A--)*%
X249006194Y-89502182D03*
D13*
%TO.P,U2,2,-*%
X249006194Y-92042182D03*
%TO.P,U2,3,+*%
%TO.N,Net-(D1-K)*%
X249006194Y-94582182D03*
%TO.P,U2,4,V+*%
%TO.N,VCO2IDKPot1*%
X249006194Y-97122182D03*
%TO.P,U2,5,+*%
%TO.N,Net-(U2B-+)*%
X249006194Y-99662182D03*
%TO.P,U2,6,-*%
%TO.N,Net-(U2B--)*%
X249006194Y-102202182D03*
%TO.P,U2,7*%
%TO.N,Net-(R22-Pad1)*%
X249006194Y-104742182D03*
%TO.P,U2,8*%
%TO.N,Net-(D3-A)*%
X256626194Y-104742182D03*
%TO.P,U2,9,-*%
%TO.N,VCO1PwmPot1*%
X256626194Y-102202182D03*
%TO.P,U2,10,+*%
%TO.N,Net-(U2B-+)*%
X256626194Y-99662182D03*
%TO.P,U2,11,V-*%
%TO.N,VCO1CoarsePot3*%
X256626194Y-97122182D03*
%TO.P,U2,12,+*%
%TO.N,VCO1CoarsePot1*%
X256626194Y-94582182D03*
%TO.P,U2,13,-*%
X256626194Y-92042182D03*
%TO.P,U2,14*%
%TO.N,unconnected-(U2-Pad14)*%
X256626194Y-89502182D03*
%TD*%
D16*
%TO.P,J3,1,Pin_1*%
%TO.N,SW2p3*%
X316235000Y-165200000D03*
D17*
%TO.P,J3,2,Pin_2*%
%TO.N,VCO1CoarsePot1*%
X313695000Y-165200000D03*
%TO.P,J3,3,Pin_3*%
%TO.N,VCO3CoarsePot2*%
X311155000Y-165200000D03*
%TO.P,J3,4,Pin_4*%
%TO.N,VCO1CoarsePot3*%
X308615000Y-165200000D03*
%TO.P,J3,5,Pin_5*%
%TO.N,VCO1CoarsePot1*%
X306075000Y-165200000D03*
%TO.P,J3,6,Pin_6*%
%TO.N,VCO3FinePot2*%
X303535000Y-165200000D03*
%TO.P,J3,7,Pin_7*%
%TO.N,VCO1CoarsePot3*%
X300995000Y-165200000D03*
%TO.P,J3,8,Pin_8*%
%TO.N,VCO3FMPot1*%
X298455000Y-165200000D03*
%TO.P,J3,9,Pin_9*%
%TO.N,VCO3FMPot2*%
X295915000Y-165200000D03*
%TO.P,J3,10,Pin_10*%
%TO.N,VCO3FMPot3*%
X293375000Y-165200000D03*
%TO.P,J3,11,Pin_11*%
%TO.N,VCO3PwmPot1*%
X290835000Y-165200000D03*
%TO.P,J3,12,Pin_12*%
%TO.N,VCO1CoarsePot1*%
X288295000Y-165200000D03*
%TO.P,J3,13,Pin_13*%
%TO.N,VCO3PwmPot3*%
X285755000Y-165200000D03*
%TO.P,J3,14,Pin_14*%
%TO.N,VCO3WaveMixPot1*%
X283215000Y-165200000D03*
%TO.P,J3,15,Pin_15*%
%TO.N,VCO3WaveMixPot2*%
X280675000Y-165200000D03*
%TO.P,J3,16,Pin_16*%
%TO.N,VCO3WaveMixPot3*%
X278135000Y-165200000D03*
%TO.P,J3,17,Pin_17*%
%TO.N,cvIn1*%
X275595000Y-165200000D03*
%TO.P,J3,18,Pin_18*%
%TO.N,cvIn2*%
X273055000Y-165200000D03*
%TO.P,J3,19,Pin_19*%
%TO.N,cvIn3*%
X270515000Y-165200000D03*
%TO.P,J3,20,Pin_20*%
%TO.N,fmIn1*%
X267975000Y-165200000D03*
%TO.P,J3,21,Pin_21*%
%TO.N,fmIn2*%
X265435000Y-165200000D03*
%TO.P,J3,22,Pin_22*%
%TO.N,fmIn3*%
X262895000Y-165200000D03*
%TO.P,J3,23,Pin_23*%
%TO.N,VCO2PwmPot2*%
X260355000Y-165200000D03*
%TO.P,J3,24,Pin_24*%
%TO.N,SW1p2*%
X257815000Y-165200000D03*
%TO.P,J3,25,Pin_25*%
%TO.N,SW2p2*%
X255275000Y-165200000D03*
%TO.P,J3,26,Pin_26*%
%TO.N,mixOut*%
X252735000Y-165200000D03*
%TO.P,J3,27,Pin_27*%
%TO.N,unconnected-(J3-Pin_27-Pad27)*%
X250195000Y-165200000D03*
%TO.P,J3,28,Pin_28*%
%TO.N,unconnected-(J3-Pin_28-Pad28)*%
X247655000Y-165200000D03*
%TO.P,J3,29,Pin_29*%
%TO.N,unconnected-(J3-Pin_29-Pad29)*%
X245115000Y-165200000D03*
%TO.P,J3,30,Pin_30*%
%TO.N,unconnected-(J3-Pin_30-Pad30)*%
X242575000Y-165200000D03*
%TO.P,J3,31,Pin_31*%
%TO.N,unconnected-(J3-Pin_31-Pad31)*%
X240035000Y-165200000D03*
%TO.P,J3,32,Pin_32*%
%TO.N,unconnected-(J3-Pin_32-Pad32)*%
X237495000Y-165200000D03*
%TD*%
D20*
%TO.P,R36,1*%
%TO.N,Net-(R35-Pad2)*%
X314701194Y-117137182D03*
%TO.P,R36,2*%
%TO.N,VCO1CoarsePot1*%
X312161194Y-127297182D03*
%TO.P,R36,3*%
%TO.N,N/C*%
X314701194Y-134917182D03*
%TD*%
D21*
%TO.P,U1,1*%
%TO.N,Net-(D1-K)*%
X273886194Y-112002182D03*
D13*
%TO.P,U1,2*%
%TO.N,Net-(D1-A)*%
X273886194Y-114542182D03*
%TO.P,U1,3*%
%TO.N,Net-(D3-K)*%
X273886194Y-117082182D03*
%TO.P,U1,4*%
%TO.N,Net-(C5-Pad2)*%
X273886194Y-119622182D03*
%TO.P,U1,5*%
%TO.N,Net-(D5-K)*%
X273886194Y-122162182D03*
%TO.P,U1,6*%
%TO.N,Net-(D5-A)*%
X273886194Y-124702182D03*
%TO.P,U1,7,VSS*%
%TO.N,VCO1CoarsePot1*%
X273886194Y-127242182D03*
%TO.P,U1,8*%
%TO.N,Net-(D2-A)*%
X281506194Y-127242182D03*
%TO.P,U1,9*%
%TO.N,Net-(D2-K)*%
X281506194Y-124702182D03*
%TO.P,U1,10*%
%TO.N,Net-(C6-Pad2)*%
X281506194Y-122162182D03*
%TO.P,U1,11*%
%TO.N,Net-(D4-K)*%
X281506194Y-119622182D03*
%TO.P,U1,12*%
%TO.N,N/C*%
X281506194Y-117082182D03*
%TO.P,U1,13*%
X281506194Y-114542182D03*
%TO.P,U1,14,VDD*%
%TO.N,VCO2IDKPot1*%
X281506194Y-112002182D03*
%TD*%
D10*
%TO.P,R43,1*%
%TO.N,VCO1CoarsePot1*%
X284656194Y-131242182D03*
D13*
%TO.P,R43,2*%
%TO.N,Net-(U3B-+)*%
X297356194Y-131242182D03*
%TD*%
D18*
%TO.P,TH8,1*%
%TO.N,VCO3FMPot1*%
X248866194Y-134392182D03*
D19*
%TO.P,TH8,2*%
%TO.N,Net-(R14-Pad1)*%
X251406194Y-134392182D03*
%TD*%
D11*
%TO.P,Q3,1,C*%
%TO.N,VCO1CoarsePot3*%
X256126194Y-118192182D03*
D12*
%TO.P,Q3,2,B*%
%TO.N,VCO3FMPot1*%
X254856194Y-118192182D03*
%TO.P,Q3,3,E*%
%TO.N,Net-(Q3-E)*%
X253586194Y-118192182D03*
%TD*%
D10*
%TO.P,R12,1*%
%TO.N,VCO2IDKPot1*%
X250006194Y-119362182D03*
D13*
%TO.P,R12,2*%
%TO.N,Net-(Q3-E)*%
X250006194Y-111742182D03*
%TD*%
D10*
%TO.P,R38,1*%
%TO.N,VCO2IDKPot1*%
X310006194Y-142242182D03*
D13*
%TO.P,R38,2*%
%TO.N,Net-(Q5-E)*%
X317626194Y-142242182D03*
%TD*%
D10*
%TO.P,R50,1*%
%TO.N,SW2p1*%
X320506194Y-96162182D03*
D13*
%TO.P,R50,2*%
%TO.N,Net-(U3C--)*%
X320506194Y-106322182D03*
%TD*%
D10*
%TO.P,R35,1*%
%TO.N,VCO2FMPot1*%
X307426194Y-110162182D03*
D13*
%TO.P,R35,2*%
%TO.N,Net-(R35-Pad2)*%
X307426194Y-120322182D03*
%TD*%
D11*
%TO.P,Q2,1,C*%
%TO.N,Net-(D1-K)*%
X273006194Y-98742182D03*
D12*
%TO.P,Q2,2,B*%
%TO.N,Net-(Q1-E)*%
X271736194Y-98742182D03*
%TO.P,Q2,3,E*%
%TO.N,VCO1CoarsePot1*%
X270466194Y-98742182D03*
%TD*%
D10*
%TO.P,R13,1*%
%TO.N,Net-(R13-Pad1)*%
X289506194Y-144892182D03*
D13*
%TO.P,R13,2*%
%TO.N,VCO3CoarsePot2*%
X289506194Y-157592182D03*
%TD*%
D10*
%TO.P,R44,1*%
%TO.N,Net-(U3D--)*%
X285926194Y-120742182D03*
D13*
%TO.P,R44,2*%
%TO.N,VCO1CoarsePot1*%
X296086194Y-120742182D03*
%TD*%
D14*
%TO.P,D1,1,K*%
%TO.N,Net-(D1-K)*%
X269006194Y-109242182D03*
D15*
%TO.P,D1,2,A*%
%TO.N,Net-(D1-A)*%
X269006194Y-114322182D03*
%TD*%
D21*
%TO.P,C9,1*%
%TO.N,VCO2IDKPot1*%
X298636194Y-155382182D03*
D10*
%TO.P,C9,2*%
%TO.N,VCO1CoarsePot1*%
X298636194Y-153382182D03*
%TD*%
D18*
%TO.P,TH1,1*%
%TO.N,VCO1FMPot2*%
X276286194Y-98592182D03*
D19*
%TO.P,TH1,2*%
%TO.N,Net-(R1-Pad1)*%
X278826194Y-98592182D03*
%TD*%
D14*
%TO.P,D4,1,K*%
%TO.N,Net-(D4-K)*%
X241246194Y-134242182D03*
D15*
%TO.P,D4,2,A*%
%TO.N,Net-(D4-A)*%
X236166194Y-134242182D03*
%TD*%
D18*
%TO.P,TH3,1*%
%TO.N,VCO3FMPot2*%
X248786194Y-127242182D03*
D19*
%TO.P,TH3,2*%
%TO.N,Net-(R5-Pad1)*%
X251326194Y-127242182D03*
%TD*%
D18*
%TO.P,TH5,1*%
%TO.N,VCO1FMPot1*%
X232706194Y-101662182D03*
D19*
%TO.P,TH5,2*%
%TO.N,Net-(R8-Pad1)*%
X232706194Y-99122182D03*
%TD*%
D10*
%TO.P,R14,1*%
%TO.N,Net-(R14-Pad1)*%
X253786194Y-134242182D03*
D13*
%TO.P,R14,2*%
%TO.N,VCO3FinePot2*%
X261406194Y-134242182D03*
%TD*%
D11*
%TO.P,Q5,1,C*%
%TO.N,VCO1CoarsePot3*%
X316016194Y-90982182D03*
D12*
%TO.P,Q5,2,B*%
%TO.N,VCO2FMPot1*%
X314746194Y-90982182D03*
%TO.P,Q5,3,E*%
%TO.N,Net-(Q5-E)*%
X313476194Y-90982182D03*
%TD*%
D18*
%TO.P,TH10,1*%
%TO.N,VCO2FMPot1*%
X320546194Y-90432182D03*
D19*
%TO.P,TH10,2*%
%TO.N,Net-(R37-Pad1)*%
X320546194Y-92972182D03*
%TD*%
D10*
%TO.P,C2,1*%
%TO.N,Net-(D2-K)*%
X237506194Y-139742182D03*
%TO.P,C2,2*%
%TO.N,VCO1CoarsePot1*%
X237506194Y-144742182D03*
%TD*%
D16*
%TO.P,J2,1,Pin_1*%
%TO.N,Net-(J2-Pin_1)*%
X320466194Y-147582182D03*
D17*
%TO.P,J2,2,Pin_2*%
X323006194Y-147582182D03*
%TO.P,J2,3,Pin_3*%
%TO.N,VCO1CoarsePot1*%
X320466194Y-150122182D03*
%TO.P,J2,4,Pin_4*%
X323006194Y-150122182D03*
%TO.P,J2,5,Pin_5*%
X320466194Y-152662182D03*
%TO.P,J2,6,Pin_6*%
X323006194Y-152662182D03*
%TO.P,J2,7,Pin_7*%
X320466194Y-155202182D03*
%TO.P,J2,8,Pin_8*%
X323006194Y-155202182D03*
%TO.P,J2,9,Pin_9*%
%TO.N,Net-(J2-Pin_10)*%
X320466194Y-157742182D03*
%TO.P,J2,10,Pin_10*%
X323006194Y-157742182D03*
%TD*%
D21*
%TO.P,U3,1*%
%TO.N,Net-(U3A--)*%
X302206194Y-89617182D03*
D13*
%TO.P,U3,2,-*%
X302206194Y-92157182D03*
%TO.P,U3,3,+*%
%TO.N,Net-(D5-K)*%
X302206194Y-94697182D03*
%TO.P,U3,4,V+*%
%TO.N,VCO2IDKPot1*%
X302206194Y-97237182D03*
%TO.P,U3,5,+*%
%TO.N,Net-(U3B-+)*%
X302206194Y-99777182D03*
%TO.P,U3,6,-*%
%TO.N,Net-(U3B--)*%
X302206194Y-102317182D03*
%TO.P,U3,7*%
%TO.N,Net-(R47-Pad1)*%
X302206194Y-104857182D03*
%TO.P,U3,8*%
%TO.N,Net-(U3C--)*%
X309826194Y-104857182D03*
%TO.P,U3,9,-*%
X309826194Y-102317182D03*
%TO.P,U3,10,+*%
%TO.N,Net-(U3C-+)*%
X309826194Y-99777182D03*
%TO.P,U3,11,V-*%
%TO.N,VCO1CoarsePot3*%
X309826194Y-97237182D03*
%TO.P,U3,12,+*%
%TO.N,Net-(U3B-+)*%
X309826194Y-94697182D03*
%TO.P,U3,13,-*%
%TO.N,Net-(U3D--)*%
X309826194Y-92157182D03*
%TO.P,U3,14*%
%TO.N,Net-(R46-Pad2)*%
X309826194Y-89617182D03*
%TD*%
D21*
%TO.P,U4,1*%
%TO.N,Net-(U4A--)*%
X251886194Y-139702182D03*
D13*
%TO.P,U4,2,-*%
X251886194Y-142242182D03*
%TO.P,U4,3,+*%
%TO.N,Net-(D2-K)*%
X251886194Y-144782182D03*
%TO.P,U4,4,V+*%
%TO.N,VCO2IDKPot1*%
X251886194Y-147322182D03*
%TO.P,U4,5,+*%
%TO.N,Net-(U4B-+)*%
X251886194Y-149862182D03*
%TO.P,U4,6,-*%
%TO.N,Net-(U4B--)*%
X251886194Y-152402182D03*
%TO.P,U4,7*%
%TO.N,Net-(R27-Pad1)*%
X251886194Y-154942182D03*
%TO.P,U4,8*%
%TO.N,Net-(D4-A)*%
X259506194Y-154942182D03*
%TO.P,U4,9,-*%
%TO.N,VCO3PwmPot1*%
X259506194Y-152402182D03*
%TO.P,U4,10,+*%
%TO.N,Net-(U4B-+)*%
X259506194Y-149862182D03*
%TO.P,U4,11,V-*%
%TO.N,VCO1CoarsePot3*%
X259506194Y-147322182D03*
%TO.P,U4,12,+*%
%TO.N,VCO3WaveMixPot2*%
X259506194Y-144782182D03*
%TO.P,U4,13,-*%
%TO.N,Net-(U4D--)*%
X259506194Y-142242182D03*
%TO.P,U4,14*%
X259506194Y-139702182D03*
%TD*%
D18*
%TO.P,TH2,1*%
%TO.N,VCO1FMPot1*%
X276286194Y-102242182D03*
D19*
%TO.P,TH2,2*%
%TO.N,Net-(R4-Pad1)*%
X278826194Y-102242182D03*
%TD*%
D10*
%TO.P,R8,1*%
%TO.N,Net-(R8-Pad1)*%
X238506194Y-92052182D03*
D13*
%TO.P,R8,2*%
%TO.N,VCO1FinePot2*%
X238506194Y-84432182D03*
%TD*%
D10*
%TO.P,R40,1*%
%TO.N,Net-(R40-Pad1)*%
X321094672Y-82433140D03*
D13*
%TO.P,R40,2*%
%TO.N,VCO2FinePot2*%
X321094672Y-74813140D03*
%TD*%
D10*
%TO.P,R22,1*%
%TO.N,Net-(R22-Pad1)*%
X244006194Y-96592182D03*
D13*
%TO.P,R22,2*%
%TO.N,Net-(U2B--)*%
X244006194Y-83892182D03*
%TD*%
D14*
%TO.P,D3,1,K*%
%TO.N,Net-(D3-K)*%
X287246194Y-79242182D03*
D15*
%TO.P,D3,2,A*%
%TO.N,Net-(D3-A)*%
X282166194Y-79242182D03*
%TD*%
D10*
%TO.P,R5,1*%
%TO.N,Net-(R5-Pad1)*%
X254306194Y-129242182D03*
D13*
%TO.P,R5,2*%
%TO.N,fmIn3*%
X267006194Y-129242182D03*
%TD*%
D10*
%TO.P,C1,1*%
%TO.N,Net-(D1-K)*%
X266506194Y-100742182D03*
%TO.P,C1,2*%
%TO.N,VCO1CoarsePot1*%
X266506194Y-95742182D03*
%TD*%
%TO.P,C8,1*%
%TO.N,Net-(U3B-+)*%
X296506194Y-92242182D03*
%TO.P,C8,2*%
%TO.N,Net-(U3A--)*%
X296506194Y-89742182D03*
%TD*%
%TO.P,R37,1*%
%TO.N,Net-(R37-Pad1)*%
X320506194Y-109742182D03*
D13*
%TO.P,R37,2*%
%TO.N,cvIn2*%
X320506194Y-122442182D03*
%TD*%
D10*
%TO.P,R16,1*%
%TO.N,VCO1CoarsePot1*%
X256006194Y-78742182D03*
D13*
%TO.P,R16,2*%
%TO.N,Net-(U2B-+)*%
X243306194Y-78742182D03*
%TD*%
D10*
%TO.P,R41,1*%
%TO.N,Net-(U3D--)*%
X285886194Y-110742182D03*
D13*
%TO.P,R41,2*%
%TO.N,VCO2IDKPot2*%
X298586194Y-110742182D03*
%TD*%
D10*
%TO.P,R1,1*%
%TO.N,Net-(R1-Pad1)*%
X282156194Y-98242182D03*
D13*
%TO.P,R1,2*%
%TO.N,fmIn1*%
X294856194Y-98242182D03*
%TD*%
D10*
%TO.P,R32,1*%
%TO.N,VCO3WaveMixPot3*%
X264756192Y-152942182D03*
D13*
%TO.P,R32,2*%
%TO.N,VCO1CoarsePot1*%
X264756192Y-140242182D03*
%TD*%
D10*
%TO.P,R6,1*%
%TO.N,VCO2IDKPot1*%
X259696194Y-91742182D03*
D13*
%TO.P,R6,2*%
%TO.N,Net-(Q1-E)*%
X267316194Y-91742182D03*
%TD*%
D14*
%TO.P,D5,1,K*%
%TO.N,Net-(D5-K)*%
X308506194Y-79742182D03*
D15*
%TO.P,D5,2,A*%
%TO.N,Net-(D5-A)*%
X308506194Y-84822182D03*
%TD*%
D10*
%TO.P,R47,1*%
%TO.N,Net-(R47-Pad1)*%
X309006194Y-137742182D03*
D13*
%TO.P,R47,2*%
%TO.N,Net-(U3B--)*%
X296306194Y-137742182D03*
%TD*%
D10*
%TO.P,R46,1*%
%TO.N,Net-(U3C-+)*%
X302506194Y-122742182D03*
D13*
%TO.P,R46,2*%
%TO.N,Net-(R46-Pad2)*%
X302506194Y-110042182D03*
%TD*%
D10*
%TO.P,R7,1*%
%TO.N,Net-(R7-Pad1)*%
X232506194Y-90942182D03*
D13*
%TO.P,R7,2*%
%TO.N,VCO1CoarsePot2*%
X232506194Y-78242182D03*
%TD*%
D18*
%TO.P,TH6,1*%
%TO.N,VCO3FMPot1*%
X289006194Y-139522182D03*
D19*
%TO.P,TH6,2*%
%TO.N,Net-(R11-Pad1)*%
X289006194Y-142062182D03*
%TD*%
D10*
%TO.P,C3,1*%
%TO.N,Net-(U2B-+)*%
X238806194Y-78492182D03*
%TO.P,C3,2*%
%TO.N,Net-(U2A--)*%
X238806194Y-80992182D03*
%TD*%
%TO.P,R23,1*%
%TO.N,Net-(U4B--)*%
X234426194Y-149742182D03*
D13*
%TO.P,R23,2*%
%TO.N,VCO1CoarsePot1*%
X244586194Y-149742182D03*
%TD*%
D10*
%TO.P,R29,1*%
%TO.N,VCO3WaveMixPot1*%
X244006194Y-154742182D03*
D13*
%TO.P,R29,2*%
%TO.N,Net-(R27-Pad1)*%
X236386194Y-154742182D03*
%TD*%
D10*
%TO.P,R25,1*%
%TO.N,Net-(C5-Pad1)*%
X244006194Y-99392182D03*
D13*
%TO.P,R25,2*%
%TO.N,VCO1CoarsePot1*%
X244006194Y-112092182D03*
%TD*%
D10*
%TO.P,R30,1*%
%TO.N,Net-(C6-Pad1)*%
X271756192Y-153242182D03*
D13*
%TO.P,R30,2*%
%TO.N,VCO1CoarsePot1*%
X271756192Y-140542182D03*
%TD*%
D10*
%TO.P,R51,1*%
%TO.N,VCO2IDKPot1*%
X306056194Y-154882182D03*
D13*
%TO.P,R51,2*%
%TO.N,Net-(J2-Pin_10)*%
X316216194Y-154882182D03*
%TD*%
D10*
%TO.P,R34,1*%
%TO.N,Net-(R34-Pad1)*%
X291806194Y-84242182D03*
D13*
%TO.P,R34,2*%
%TO.N,fmIn2*%
X304506194Y-84242182D03*
%TD*%
D10*
%TO.P,R52,1*%
%TO.N,VCO1CoarsePot3*%
X305976194Y-147882182D03*
D13*
%TO.P,R52,2*%
%TO.N,Net-(J2-Pin_1)*%
X316136194Y-147882182D03*
%TD*%
D10*
%TO.P,R26,1*%
%TO.N,SW1p1*%
X230386194Y-106242182D03*
D13*
%TO.P,R26,2*%
%TO.N,Net-(C5-Pad1)*%
X238006194Y-106242182D03*
%TD*%
D10*
%TO.P,R11,1*%
%TO.N,Net-(R11-Pad1)*%
X284006194Y-138042182D03*
D13*
%TO.P,R11,2*%
%TO.N,cvIn3*%
X284006194Y-150742182D03*
%TD*%
D21*
%TO.P,C10,1*%
%TO.N,VCO1CoarsePot1*%
X298636194Y-149382182D03*
D10*
%TO.P,C10,2*%
%TO.N,VCO1CoarsePot3*%
X298636194Y-147382182D03*
%TD*%
D18*
%TO.P,TH4,1*%
%TO.N,VCO1FMPot1*%
X232706194Y-96342182D03*
D19*
%TO.P,TH4,2*%
%TO.N,Net-(R7-Pad1)*%
X232706194Y-93802182D03*
%TD*%
D10*
%TO.P,R49,1*%
%TO.N,SW2p3*%
X320506194Y-135822182D03*
D13*
%TO.P,R49,2*%
%TO.N,Net-(R47-Pad1)*%
X320506194Y-125662182D03*
%TD*%
D18*
%TO.P,TH12,1*%
%TO.N,VCO2FMPot1*%
X320506194Y-87522182D03*
D19*
%TO.P,TH12,2*%
%TO.N,Net-(R40-Pad1)*%
X320506194Y-84982182D03*
%TD*%
D18*
%TO.P,TH7,1*%
%TO.N,VCO3FMPot1*%
X248866194Y-131242182D03*
D19*
%TO.P,TH7,2*%
%TO.N,Net-(R13-Pad1)*%
X251406194Y-131242182D03*
%TD*%
D10*
%TO.P,R28,1*%
%TO.N,SW1p1*%
X231156194Y-116242182D03*
D13*
%TO.P,R28,2*%
%TO.N,VCO1CoarsePot1*%
X243856194Y-116242182D03*
%TD*%
M02*
